<svg width="90" height="25" fill="none" xmlns="http://www.w3.org/2000/svg">
  <path d="M16.8 13.7a17 17 0 0 1-.6 4.5 9.6 9.6 0 0 1-1.6 3.4 7 7 0 0 1-2.6 2 8 8 0 0 1-3.4.8 8 8 0 0 1-3.1-.6c-1-.4-1.8-1-2.5-1.9-.7-.8-1.2-2-1.6-3.3C1 17.3.8 15.7.8 14c0-1.7.2-3.2.6-4.5C1.7 8 2.3 7 3 6c.7-.9 1.5-1.6 2.6-2A8 8 0 0 1 9 3.2a8 8 0 0 1 3.1.6c1 .4 1.8 1 2.5 1.9.7.8 1.2 2 1.6 3.2.4 1.4.6 3 .6 4.8Zm-12.1 0V15l7.7-5.5A5 5 0 0 0 10.9 7c-.6-.5-1.3-.8-2.1-.8a3 3 0 0 0-1.6.5c-.5.3-1 .7-1.3 1.4-.4.6-.7 1.3-1 2.3l-.2 3.3Zm8.2.1a9 9 0 0 0 0-1l-7.6 5.5c.3 1 .8 1.7 1.4 2.2a3.3 3.3 0 0 0 3.7.3c.5-.3 1-.8 1.3-1.4.4-.6.7-1.3 1-2.3l.2-3.3Zm17.7 10.5a8.5 8.5 0 0 1-7.8-4.4 9 9 0 0 1 0-8.6 8.3 8.3 0 0 1 3-3.2A9 9 0 0 1 30.5 7c1.9 0 3.4.4 4.7 1.2 1.3.8 2.3 1.9 3 3.1l-4.3 1.3c-.7-1.3-1.9-2-3.4-2a4.2 4.2 0 0 0-3.8 2.4c-.4.8-.6 1.7-.6 2.7 0 1 .2 1.9.6 2.6a5 5 0 0 0 1.6 1.8 4.2 4.2 0 0 0 4.3.1c.7-.4 1.1-.8 1.4-1.4l4.2 1.3a7.2 7.2 0 0 1-3 3.1 8.9 8.9 0 0 1-4.6 1.2ZM54 23.1l-2.2.8c-.8.3-1.7.4-2.6.4-.8 0-1.5-.2-2.2-.4-.6-.3-1.2-.7-1.6-1.3-.3-.7-.5-1.5-.5-2.4v-9.7h-2.2V7.2H45V1.8h4.3v5.4h3.5v3.3h-3.5v8.2c0 .6.1 1 .4 1.3.3.2.7.4 1.2.4l1.3-.3 1-.4.9 3.4Zm4.2-4c0-1.1.3-2.1 1-3 .6-.7 1.4-1.4 2.5-1.8 1-.5 2.3-.7 3.7-.7a12.3 12.3 0 0 1 4 .7v-1c0-1-.3-1.8-.9-2.4-.6-.6-1.5-.9-2.8-.9-.9 0-1.8.2-2.6.5s-1.7.8-2.6 1.4l-1.4-2.8a12.4 12.4 0 0 1 7-2.2 8 8 0 0 1 5.6 1.8c1.4 1.2 2 3 2 5.2v5.3c0 .5.1.8.3 1 .1.2.4.3.8.3V24a7 7 0 0 1-1 .2H73c-.9 0-1.5-.2-2-.6-.4-.3-.7-.8-.8-1.4v-.8a7.5 7.5 0 0 1-6.1 3c-1.2 0-2.2-.3-3-.8a5.6 5.6 0 0 1-2.1-1.8c-.5-.9-.8-1.8-.8-2.8Zm10.5.8c.5-.5.8-1 .8-1.5v-1.7c-1.1-.4-2.3-.6-3.4-.6s-2 .2-2.7.7c-.7.5-1.1 1.1-1.1 1.9 0 .6.3 1.2.8 1.7s1.2.8 2.2.8a5 5 0 0 0 1.8-.4c.7-.2 1.2-.5 1.6-.9ZM81 .6h4.3v18c0 .8.1 1.3.4 1.6s.6.4 1 .4.8 0 1.1-.2l1-.3.6 3.3c-.6.3-1.3.5-2 .6l-2.1.3c-1.4 0-2.4-.4-3.2-1.1-.7-.7-1-1.7-1-3V.5Z" fill="url(#a)"/>
  <defs>
    <linearGradient id="a" x1="-163.9" y1="-6" x2="117.3" y2="-6" gradientUnits="userSpaceOnUse">
      <stop offset=".3" stop-color="#0B14EC"/>
      <stop offset="1" stop-color="#00F0FF"/>
    </linearGradient>
  </defs>
</svg>
