<svg width="540" height="633" viewBox="0 0 540 633" fill="none" xmlns="http://www.w3.org/2000/svg">
  <g class="lower-ring-setup">
    <g class="lower-ring">
      <path class="a4" d="M187.8 82.6c-2.4 1.2-3.5 3.9-2.7 6.6.4 1.3 2.2 3.1 3.4 3.5 2 .6 4.2 0 5.5-1.3l.9-1h2.2c2 0 2.3.1 2.7.5.4.5.4 1.1.5 13.4l.2 13 .5 1c.7 1.4 2 2.8 3.3 3.5l.8.4h-4.4c-3.4 0-4.6 0-4.7-.3-.2-.1-.3-2.6-.3-6.7l-.1-6.4-.7-1.2c-.8-1.5-2-2.6-3.6-3.1-1-.4-1.7-.5-8.2-.5h-7l-.6-.7a5.5 5.5 0 1 0-6.2 8.7c2 .9 4 .5 6-1.1l1.1-1.1h6.3c5.3 0 6.3 0 6.7.3.5.4.5.4.5 6.5 0 5.6 0 6.2.5 7.3.5 1.5 1.9 2.9 3.4 3.7 1.1.5 1.3.5 7.5.6l6.5.1v1.3c0 2.2.5 2-9.6 2.2-8.6 0-8.8.1-10 .6a9 9 0 0 0-3.6 3.5c-.6 1.1-.9 2.8-.9 5 0 1.5 0 1.6-.6 2.1-.4.3-1 1.1-1.3 1.8a4 4 0 0 0-.5 2.6c.4 5 6.3 7 9.5 3.3 1-1.1 1.3-2 1.3-3.6 0-1.7-.3-2.6-1.5-3.8-.9-1-.9-1-.9-2.8 0-3-.6-2.8 8.1-2.7l9-.2a7.2 7.2 0 0 0 5.8-3.6l.6-1v11c0 10.2 0 11-.4 11.9a4 4 0 0 1-7.2.4c-.5-.8-.6-1.2-.6-2.7 0-1.8 0-1.9.7-2.5.4-.3 1-1 1.2-1.7 2-4-1.7-8.6-6-7.7a5.6 5.6 0 0 0-2.6 9.5c.7.6.7.8.7 2.1 0 4.6 2.2 8.3 6 10 1.2.7 1.8.8 3.6.9 1.6 0 2.4 0 3.3-.3a9.8 9.8 0 0 0 5.6-4.3c1.5-2.5 1.5-2.2 1.5-17.2v-13.5h3.1v13c0 7.6 0 13.4.2 14.1.6 3.1 2.8 6 5.7 7.4 1.4.7 1.6.7 4.2.7 2.4 0 2.7 0 3.8-.6a10 10 0 0 0 6-9.6v-2l1-1c1.5-1.4 2-3.4 1.4-5.4a5.2 5.2 0 0 0-2.6-3.2c-1-.5-1.5-.6-2.7-.6-4.9 0-7.2 6-3.6 9.4.7.7.8.8.8 2.3 0 1.8-.5 3-1.6 4a4 4 0 0 1-6-1l-.6-1v-22.1l.7 1 1.8 2c2 1.3 2.1 1.3 11.2 1.4 4.6 0 8.5.1 8.8.2.6.1 1 1 1 2.8 0 1.6 0 1.7-.8 2.4a5 5 0 0 0-1.8 4c0 3.2 2.3 5.4 5.4 5.4 3.2 0 5.4-2.3 5.4-5.4 0-1.7-.3-2.6-1.6-3.9l-.8-.9-.1-2.5c-.1-2-.2-2.8-.6-3.6a8 8 0 0 0-3.6-3.7l-1.2-.6H243l-8.8-.1-.5-.6c-.3-.4-.4-1-.4-1.8v-1.2h6.4c6 0 6.4-.1 7.4-.6a7.5 7.5 0 0 0 3.4-3.3l.6-1v-6.5c.2-5.7.2-6.5.5-6.7.3-.2 2-.3 6.9-.3h6.5l.4.7c.7 1 2.3 1.7 3.6 1.9 3.3.3 6-2.1 6-5.4 0-1.7-.6-3-1.8-4.1a5.3 5.3 0 0 0-7.3.1l-1 1h-7.4l-7.3.1-1.1.6c-.6.4-1.5 1.1-2 1.7-1.6 1.7-1.7 2.2-1.8 9.2 0 3.3-.1 6.2-.2 6.3 0 .3-1.2.3-4.7.3H236l1-.4a8.8 8.8 0 0 0 3.3-3.6l.6-1.2.1-13c.1-12.4.1-12.9.5-13.2.4-.2 1.1-.3 2.7-.3 2 0 2.2 0 2.6.5.8 1 2.3 1.7 3.8 1.9 2.6.2 4.9-1.4 5.6-3.8.4-1.4.4-1.8 0-3.3a5.2 5.2 0 0 0-5.2-3.8 5 5 0 0 0-4 1.7l-.6.8h-2.4c-4.3 0-6.6 1.2-8.1 4.4l-.8 1.5v12.8c-.2 12.4-.2 12.9-.6 13.2-.3.2-1.3.3-4.3.3h-3.8V112h.8a5 5 0 0 0 4-2.5c.3-.6.4-1.7.5-8.8 0-5.4 0-8.6-.2-9.6-.7-4-3.7-7.5-7.6-8.7-1.2-.3-2-.4-3.8-.3-2 0-2.4.1-4 .8-3 1.5-5.1 4-6 7.1-.3 1.3-.3 2.7-.3 9.8 0 8.8 0 9.2 1 10.6.6.8 2.4 1.6 3.5 1.6h.8V116.7h-4c-3.7 0-4 0-4.4-.5-.4-.4-.4-1-.5-13.4L206 90l-.6-1c-.7-1.6-2.1-3-3.7-3.7-1-.5-1.6-.6-4-.7-2.7 0-2.9 0-3.2-.6a5.5 5.5 0 0 0-6.7-1.3Z" fill="url(#paint76_linear)" fill-opacity=".2"/>
      <path class="a5" d="M104.8 41.6c-2.4 1.2-3.5 3.9-2.7 6.6.4 1.3 2.2 3.1 3.4 3.5 2 .6 4.2 0 5.5-1.3l.9-1h2.2c2 0 2.3.1 2.7.5.4.5.4 1.1.5 13.4l.2 13 .5 1c.7 1.4 2 2.8 3.3 3.5l.8.4h-4.4c-3.4 0-4.6 0-4.7-.3-.2-.1-.3-2.6-.3-6.7l-.1-6.4-.7-1.2c-.8-1.5-2-2.6-3.6-3.1-1-.4-1.7-.5-8.2-.5h-7l-.6-.7a5.5 5.5 0 1 0-6.2 8.7c2 .9 4 .5 6-1.1l1.1-1.1h6.3c5.3 0 6.3 0 6.7.3.5.4.5.4.5 6.5 0 5.6 0 6.2.5 7.3.5 1.5 1.9 2.9 3.4 3.7 1.1.5 1.3.5 7.5.6l6.5.1v1.3c0 2.2.5 2-9.6 2.2-8.6 0-8.8.1-10 .6a9 9 0 0 0-3.6 3.5c-.6 1.1-.9 2.9-.9 5 0 1.5 0 1.6-.6 2.1-.4.3-1 1.1-1.3 1.8a4 4 0 0 0-.5 2.6c.4 5 6.3 7 9.5 3.3 1-1.1 1.3-2 1.3-3.6 0-1.7-.3-2.6-1.5-3.8-.9-1-.9-1-.9-2.8 0-3-.6-2.8 8.1-2.7l9-.2a7.2 7.2 0 0 0 5.8-3.6l.6-1v11c0 10.2 0 11-.4 11.9a4 4 0 0 1-7.2.4c-.5-.8-.6-1.2-.6-2.7 0-1.8 0-1.9.7-2.5.4-.3 1-1 1.2-1.7 2-4-1.7-8.6-6-7.7a5.6 5.6 0 0 0-2.6 9.5c.7.6.7.8.7 2.1 0 4.6 2.2 8.3 6 10 1.2.7 1.8.8 3.6.9 1.6 0 2.4 0 3.3-.3a9.8 9.8 0 0 0 5.6-4.3c1.5-2.5 1.5-2.2 1.5-17.2V87.9h3.1v13c0 7.6 0 13.4.2 14.1.6 3.1 2.8 6 5.7 7.4 1.4.7 1.6.7 4.2.7 2.4 0 2.7 0 3.8-.6a10 10 0 0 0 6-9.6v-2l1-1c1.5-1.4 2-3.4 1.4-5.4a5.2 5.2 0 0 0-2.6-3.2c-1-.5-1.5-.6-2.7-.6-4.9 0-7.2 6-3.6 9.4.7.7.8.8.8 2.3 0 1.8-.5 3-1.6 4a4 4 0 0 1-6-1l-.6-1V92.3l.7 1 1.8 2c2 1.3 2.1 1.3 11.2 1.4 4.6 0 8.5.1 8.8.2.6.1 1 1 1 2.8 0 1.6 0 1.7-.8 2.4a5 5 0 0 0-1.8 4c0 3.2 2.3 5.4 5.4 5.4 3.2 0 5.4-2.3 5.4-5.4 0-1.7-.3-2.6-1.6-3.9l-.8-.9-.1-2.5c-.1-2-.2-2.8-.6-3.6a8 8 0 0 0-3.6-3.7L169 91H160l-8.8-.1-.5-.6c-.3-.4-.4-1-.4-1.8v-1.2h6.4c6 0 6.4-.1 7.4-.6a7.5 7.5 0 0 0 3.4-3.3l.6-1v-6.5c.2-5.7.2-6.5.5-6.7.3-.2 2-.3 6.9-.3h6.5l.4.7c.7 1 2.3 1.7 3.6 1.9 3.3.3 6-2.1 6-5.4 0-1.7-.6-3-1.8-4.1a5.3 5.3 0 0 0-7.3.1l-1 1h-7.4l-7.3.1-1.1.6c-.6.4-1.5 1.1-2 1.7-1.6 1.7-1.7 2.2-1.8 9.2 0 3.3-.1 6.2-.2 6.3 0 .3-1.2.3-4.7.3H153l1-.4a8.8 8.8 0 0 0 3.3-3.6l.6-1.2.1-13c.1-12.4.1-12.9.5-13.2.4-.2 1.1-.3 2.7-.3 2 0 2.2 0 2.6.5.8 1 2.3 1.7 3.8 1.9 2.6.2 4.9-1.4 5.6-3.8.4-1.4.4-1.8 0-3.3a5.2 5.2 0 0 0-5.2-3.8 5 5 0 0 0-4 1.7l-.6.8h-2.4c-4.3 0-6.6 1.2-8.1 4.4l-.8 1.5v12.8c-.2 12.4-.2 12.9-.6 13.2-.3.2-1.3.3-4.3.3h-3.8V71h.8a5 5 0 0 0 4-2.5c.3-.6.4-1.7.5-8.8 0-5.4 0-8.6-.2-9.6-.7-4-3.7-7.5-7.6-8.7-1.2-.3-2-.4-3.8-.3-2 0-2.4.1-4 .8-3 1.5-5.1 4-6 7.1-.3 1.3-.3 2.7-.3 9.8 0 8.8 0 9.2 1 10.6.6.8 2.4 1.6 3.5 1.6h.8V75.7h-4c-3.7 0-4 0-4.4-.5-.4-.4-.4-1-.5-13.4L123 49l-.6-1c-.7-1.6-2.1-3-3.7-3.7-1-.5-1.6-.6-4-.7-2.7 0-2.9 0-3.2-.6a5.5 5.5 0 0 0-6.7-1.3Z" fill="url(#paint77_linear)" fill-opacity=".2"/>
      <path class="a3" d="M285.8 82.6c-2.4 1.2-3.5 3.9-2.7 6.6.4 1.3 2.2 3.1 3.4 3.5 2 .6 4.2 0 5.5-1.3l.9-1h2.2c2 0 2.3.1 2.7.5.4.5.4 1.1.5 13.4l.2 13 .5 1c.7 1.4 2 2.8 3.3 3.5l.8.4h-4.4c-3.4 0-4.6 0-4.7-.3-.2-.1-.3-2.6-.4-6.7v-6.4l-.7-1.2c-.8-1.5-2-2.6-3.6-3.1-1-.4-1.7-.5-8.2-.5h-7l-.6-.7a5.5 5.5 0 1 0-6.2 8.7c2 .9 4 .5 6-1.1l1.1-1.1h6.3c5.3 0 6.3 0 6.7.3.5.4.5.4.5 6.5 0 5.6 0 6.2.5 7.3.6 1.5 1.9 2.9 3.4 3.7 1.1.5 1.3.5 7.5.6l6.5.1v1.3c0 2.2.5 2-9.6 2.2-8.6 0-8.8.1-10 .6a9 9 0 0 0-3.6 3.5c-.6 1.1-.9 2.8-.9 5 0 1.5 0 1.6-.6 2.1-.4.3-1 1.1-1.3 1.8a4 4 0 0 0-.5 2.6c.4 5 6.3 7 9.5 3.3 1-1.1 1.3-2 1.3-3.6 0-1.7-.3-2.6-1.5-3.8-.9-1-.9-1-.9-2.8 0-3-.6-2.8 8.1-2.7l9-.2a7.2 7.2 0 0 0 5.8-3.6l.6-1v11c0 10.2 0 11-.4 11.9a4 4 0 0 1-7.2.4c-.5-.8-.6-1.2-.6-2.7 0-1.8 0-1.9.7-2.5.4-.3 1-1 1.2-1.7 2-4-1.7-8.6-6-7.7a5.6 5.6 0 0 0-2.6 9.5c.7.6.7.8.7 2.1 0 4.6 2.2 8.3 6 10 1.2.7 1.8.8 3.6.9 1.6 0 2.4 0 3.3-.3a9.8 9.8 0 0 0 5.6-4.3c1.5-2.5 1.5-2.2 1.5-17.2v-13.5h3.1v13c0 7.6 0 13.4.2 14.1.6 3.1 2.8 6 5.7 7.4 1.4.7 1.6.7 4.2.7 2.4 0 2.7 0 3.8-.6a10 10 0 0 0 6-9.6v-2l1-1c1.5-1.4 2-3.4 1.4-5.4a5.2 5.2 0 0 0-2.6-3.2c-1-.5-1.5-.6-2.7-.6-4.9 0-7.2 6-3.6 9.4.7.7.8.8.8 2.3 0 1.8-.5 3-1.6 4a4 4 0 0 1-6-1l-.6-1v-22.1l.7 1 1.8 2c2 1.3 2.1 1.3 11.2 1.4 4.6 0 8.5.1 8.8.2.6.1 1 1 1 2.8 0 1.6 0 1.7-.8 2.4a5 5 0 0 0-1.8 4c0 3.2 2.3 5.4 5.4 5.4 3.2 0 5.4-2.3 5.4-5.4 0-1.7-.3-2.6-1.6-3.9l-.8-.9-.1-2.5c-.1-2-.2-2.8-.6-3.6a8 8 0 0 0-3.6-3.7l-1.2-.6H341l-8.8-.1-.5-.6c-.3-.4-.4-1-.4-1.8v-1.2h6.4c6 0 6.4-.1 7.4-.6a7.5 7.5 0 0 0 3.4-3.3l.6-1v-6.5c.2-5.7.2-6.5.5-6.7.3-.2 2-.3 6.9-.3h6.5l.4.7c.7 1 2.3 1.7 3.6 1.9 3.3.3 6-2.1 6-5.4 0-1.7-.6-3-1.8-4.1a5.3 5.3 0 0 0-7.3.1l-1 1h-7.4l-7.3.1-1.1.6c-.6.4-1.5 1.1-2 1.7-1.6 1.7-1.7 2.2-1.8 9.2 0 3.3-.1 6.2-.2 6.3 0 .3-1.2.3-4.7.3H334l1-.4a8.8 8.8 0 0 0 3.3-3.6l.6-1.2.1-13c.1-12.4.1-12.9.5-13.2.4-.2 1.1-.3 2.7-.3 2 0 2.2 0 2.6.5.8 1 2.3 1.7 3.8 1.9 2.6.2 4.9-1.4 5.6-3.8.4-1.4.4-1.8 0-3.3a5.2 5.2 0 0 0-5.2-3.8 5 5 0 0 0-4 1.7l-.6.8h-2.4c-4.3 0-6.6 1.2-8.1 4.4l-.8 1.5v12.8c-.2 12.4-.2 12.9-.6 13.2-.3.2-1.3.3-4.3.3h-3.8V112h.8a5 5 0 0 0 4-2.5c.3-.6.4-1.7.5-8.8 0-5.4 0-8.6-.2-9.6-.7-4-3.7-7.5-7.6-8.7-1.2-.3-2-.4-3.8-.3-2 0-2.4.1-4 .8-3 1.5-5.1 4-6 7.1-.3 1.3-.3 2.7-.3 9.8 0 8.8 0 9.2 1 10.6.6.8 2.4 1.6 3.5 1.6h.8V116.7h-4c-3.7 0-4 0-4.4-.5-.4-.4-.4-1-.5-13.4L304 90l-.6-1c-.7-1.6-2.1-3-3.7-3.7-1-.5-1.6-.6-4-.7-2.7 0-2.9 0-3.2-.6a5.5 5.5 0 0 0-6.7-1.3Z" fill="url(#paint78_linear)" fill-opacity=".2"/>
      <path class="a2" d="M368.8 41.6c-2.4 1.2-3.5 3.9-2.7 6.6.4 1.3 2.2 3.1 3.4 3.5 2 .6 4.2 0 5.5-1.3l.9-1h2.2c2 0 2.3.1 2.7.5.4.5.4 1.1.5 13.4l.2 13 .5 1c.7 1.4 2 2.8 3.3 3.5l.8.4h-4.4c-3.4 0-4.6 0-4.7-.3-.2-.1-.3-2.6-.4-6.7v-6.4l-.7-1.2c-.8-1.5-2-2.6-3.6-3.1-1-.4-1.7-.5-8.2-.5h-7l-.6-.7a5.5 5.5 0 1 0-6.2 8.7c2 .9 4 .5 6-1.1l1.1-1.1h6.3c5.3 0 6.3 0 6.7.3.5.4.5.4.5 6.5 0 5.6 0 6.2.5 7.3.6 1.5 1.9 2.9 3.4 3.7 1.1.5 1.3.5 7.5.6l6.5.1v1.3c0 2.2.5 2-9.6 2.2-8.6 0-8.8.1-10 .6a9 9 0 0 0-3.6 3.5c-.6 1.1-.9 2.9-.9 5 0 1.5 0 1.6-.6 2.1-.4.3-1 1.1-1.3 1.8a4 4 0 0 0-.5 2.6c.4 5 6.3 7 9.5 3.3 1-1.1 1.3-2 1.3-3.6 0-1.7-.3-2.6-1.5-3.8-.9-1-.9-1-.9-2.8 0-3-.6-2.8 8.1-2.7l9-.2a7.2 7.2 0 0 0 5.8-3.6l.6-1v11c0 10.2 0 11-.4 11.9a4 4 0 0 1-7.2.4c-.5-.8-.6-1.2-.6-2.7 0-1.8 0-1.9.7-2.5.4-.3 1-1 1.2-1.7 2-4-1.7-8.6-6-7.7a5.6 5.6 0 0 0-2.6 9.5c.7.6.7.8.7 2.1 0 4.6 2.2 8.3 6 10 1.2.7 1.8.8 3.6.9 1.6 0 2.4 0 3.3-.3a9.8 9.8 0 0 0 5.6-4.3c1.5-2.5 1.5-2.2 1.5-17.2V87.9h3.1v13c0 7.6 0 13.4.2 14.1.6 3.1 2.8 6 5.7 7.4 1.4.7 1.6.7 4.2.7 2.4 0 2.7 0 3.8-.6a10 10 0 0 0 6-9.6v-2l1-1c1.5-1.4 2-3.4 1.4-5.4a5.2 5.2 0 0 0-2.6-3.2c-1-.5-1.5-.6-2.7-.6-4.9 0-7.2 6-3.6 9.4.7.7.8.8.8 2.3 0 1.8-.5 3-1.6 4a4 4 0 0 1-6-1l-.6-1V92.3l.7 1 1.8 2c2 1.3 2.1 1.3 11.2 1.4 4.6 0 8.5.1 8.8.2.6.1 1 1 1 2.8 0 1.6 0 1.7-.8 2.4a5 5 0 0 0-1.8 4c0 3.2 2.3 5.4 5.4 5.4 3.2 0 5.4-2.3 5.4-5.4 0-1.7-.3-2.6-1.6-3.9l-.8-.9-.1-2.5c-.1-2-.2-2.8-.6-3.6a8 8 0 0 0-3.6-3.7L433 91H424l-8.8-.1-.5-.6c-.3-.4-.4-1-.4-1.8v-1.2h6.4c6 0 6.4-.1 7.4-.6a7.5 7.5 0 0 0 3.4-3.3l.6-1v-6.5c.2-5.7.2-6.5.5-6.7.3-.2 2-.3 6.9-.3h6.5l.4.7c.7 1 2.3 1.7 3.6 1.9 3.3.3 6-2.1 6-5.4 0-1.7-.6-3-1.8-4.1a5.3 5.3 0 0 0-7.3.1l-1 1h-7.4l-7.3.1-1.1.6c-.6.4-1.5 1.1-2 1.7-1.6 1.7-1.7 2.2-1.8 9.2 0 3.3-.1 6.2-.2 6.3 0 .3-1.2.3-4.7.3H417l1-.4a8.8 8.8 0 0 0 3.3-3.6l.6-1.2.1-13c.1-12.4.1-12.9.5-13.2.4-.2 1.1-.3 2.7-.3 2 0 2.2 0 2.6.5.8 1 2.3 1.7 3.8 1.9 2.6.2 4.9-1.4 5.6-3.8.4-1.4.4-1.8 0-3.3a5.2 5.2 0 0 0-5.2-3.8 5 5 0 0 0-4 1.7l-.6.8h-2.4c-4.3 0-6.6 1.2-8.1 4.4l-.8 1.5v12.8c-.2 12.4-.2 12.9-.6 13.2-.3.2-1.3.3-4.3.3h-3.8V71h.8a5 5 0 0 0 4-2.5c.3-.6.4-1.7.5-8.8 0-5.4 0-8.6-.2-9.6-.7-4-3.7-7.5-7.6-8.7-1.2-.3-2-.4-3.8-.3-2 0-2.4.1-4 .8-3 1.5-5.1 4-6 7.1-.3 1.3-.3 2.7-.3 9.8 0 8.8 0 9.2 1 10.6.6.8 2.4 1.6 3.5 1.6h.8V75.7h-4c-3.7 0-4 0-4.4-.5-.4-.4-.4-1-.5-13.4L387 49l-.6-1c-.7-1.6-2.1-3-3.7-3.7-1-.5-1.6-.6-4-.7-2.7 0-2.9 0-3.2-.6a5.5 5.5 0 0 0-6.7-1.3Z" fill="url(#paint79_linear)" fill-opacity=".2"/>
      <path class="a1" d="M451.8.6c-2.4 1.2-3.5 3.9-2.7 6.6.4 1.3 2.2 3.1 3.4 3.5 2 .6 4.2 0 5.5-1.3l.9-1h2.2c2 0 2.3.1 2.7.5.4.5.4 1.1.5 13.4l.2 13 .5 1c.7 1.4 2 2.8 3.3 3.5l.8.4h-4.4c-3.4 0-4.6 0-4.7-.3-.2-.1-.3-2.6-.4-6.7v-6.4l-.7-1.2c-.8-1.5-2-2.6-3.6-3.1-1-.4-1.7-.5-8.2-.5h-7l-.6-.7a5.5 5.5 0 1 0-6.2 8.7c2 .9 4 .5 6-1.1l1.1-1.1h6.3c5.3 0 6.3 0 6.7.4.5.3.5.3.5 6.4 0 5.6 0 6.2.5 7.3.6 1.5 1.9 3 3.4 3.7 1.1.5 1.3.5 7.5.6l6.5.1v1.3c0 2.2.5 2-9.6 2.2-8.6 0-8.8.1-10 .6a9 9 0 0 0-3.6 3.5c-.6 1.1-.9 2.9-.9 5 0 1.5 0 1.6-.6 2.1-.4.3-1 1.1-1.3 1.8a4 4 0 0 0-.5 2.6c.4 5 6.3 7 9.5 3.3 1-1.1 1.3-2 1.3-3.6 0-1.7-.3-2.6-1.5-3.8-.9-1-.9-1-.9-2.8 0-3-.6-2.8 8.1-2.7l9-.2a7.2 7.2 0 0 0 5.8-3.6l.6-1v11c0 10.2 0 11-.4 11.9a4 4 0 0 1-7.2.4c-.5-.8-.6-1.2-.6-2.7 0-1.8 0-1.9.7-2.5.4-.3 1-1 1.2-1.7 2-4-1.7-8.6-6-7.7a5.6 5.6 0 0 0-2.6 9.5c.7.6.7.8.7 2.1 0 4.6 2.2 8.3 6 10 1.2.7 1.8.8 3.6.9 1.6 0 2.4 0 3.3-.3a9.8 9.8 0 0 0 5.6-4.3c1.5-2.5 1.5-2.2 1.5-17.2V46.9h3.1v13c0 7.6 0 13.4.2 14.1.6 3.1 2.8 6 5.7 7.4 1.4.7 1.6.7 4.2.7 2.4 0 2.7 0 3.8-.6a10 10 0 0 0 6-9.6v-2l1-1c1.5-1.4 2-3.4 1.4-5.4a5.2 5.2 0 0 0-2.6-3.2c-1-.5-1.5-.6-2.7-.6-4.9 0-7.2 6-3.6 9.4.7.7.8.8.8 2.3 0 1.9-.5 3-1.6 4a4 4 0 0 1-6-1l-.6-1V51.3l.7 1 1.8 2c2 1.3 2.1 1.3 11.2 1.4 4.6 0 8.5.1 8.8.2.6.1 1 1 1 2.8 0 1.6 0 1.7-.8 2.4a5 5 0 0 0-1.8 4c0 3.2 2.3 5.4 5.4 5.4 3.2 0 5.4-2.3 5.4-5.4 0-1.7-.3-2.6-1.6-3.9l-.8-.9-.1-2.5c-.1-2-.2-2.8-.6-3.6a8 8 0 0 0-3.6-3.7L516 50H507l-8.8-.1-.5-.6c-.3-.4-.4-1-.4-1.8v-1.2h6.4c6 0 6.4-.1 7.4-.6a7.5 7.5 0 0 0 3.4-3.3l.6-1v-6.5c.2-5.7.2-6.5.5-6.7.3-.2 2-.3 6.9-.3h6.5l.4.7c.7 1 2.3 1.7 3.6 1.9 3.3.3 6-2.1 6-5.4 0-1.7-.6-3-1.8-4.1a5.3 5.3 0 0 0-7.3.1l-1 1h-7.4l-7.3.1-1.1.6c-.6.4-1.5 1.1-2 1.7-1.6 1.7-1.7 2.2-1.8 9.2 0 3.3-.1 6.2-.2 6.3 0 .3-1.2.3-4.7.3H500l1-.4a8.8 8.8 0 0 0 3.3-3.6l.6-1.2.1-13c.1-12.4.1-12.9.5-13.2.4-.2 1.1-.3 2.7-.3 2 0 2.2 0 2.6.5.8 1 2.3 1.7 3.8 1.9 2.6.2 4.9-1.4 5.6-3.8.4-1.4.4-1.8 0-3.3a5.2 5.2 0 0 0-5.2-3.8 5 5 0 0 0-4 1.7l-.6.8h-2.4c-4.3 0-6.6 1.2-8.1 4.4l-.8 1.5v12.8c-.2 12.4-.2 12.9-.6 13.2-.3.2-1.3.3-4.3.3h-3.8V30h.8a5 5 0 0 0 4-2.5c.3-.6.4-1.7.5-8.8 0-5.4 0-8.6-.2-9.6-.7-4-3.7-7.5-7.6-8.7-1.2-.3-2-.4-3.8-.3-2 0-2.4.1-4 .8-3 1.5-5.1 4-6 7.1-.3 1.3-.3 2.7-.3 9.8 0 8.8 0 9.2 1 10.6.6.8 2.4 1.6 3.5 1.6h.8V34.7h-4c-3.7 0-4 0-4.4-.5-.4-.4-.4-1-.5-13.4L470 8l-.6-1c-.7-1.6-2.1-3-3.7-3.7-1-.5-1.6-.6-4-.7-2.7 0-2.9 0-3.2-.6a5.5 5.5 0 0 0-6.7-1.3Z" fill="url(#paint80_linear)" fill-opacity=".2"/>
      <path class="a6" d="M21.8.6c-2.4 1.2-3.5 3.9-2.7 6.6.4 1.3 2.2 3.1 3.4 3.5 2 .6 4.2 0 5.5-1.3l.9-1h2.2c2 0 2.3.1 2.7.5.4.5.4 1.1.5 13.4l.2 13 .5 1c.7 1.4 2 2.8 3.3 3.5l.8.4h-4.4c-3.4 0-4.6 0-4.7-.3-.2-.1-.3-2.6-.4-6.7v-6.4l-.7-1.2c-.8-1.5-2-2.6-3.6-3.1-1-.4-1.7-.5-8.2-.5h-7l-.6-.7A5.5 5.5 0 1 0 3.3 30c2 .9 4 .5 6-1.1l1.1-1.1h6.3c5.3 0 6.3 0 6.7.3.5.4.5.4.5 6.5 0 5.6 0 6.2.5 7.3.6 1.5 1.9 2.9 3.4 3.7 1.1.5 1.3.5 7.5.6l6.5.1v1.3c0 2.2.5 2-9.6 2.2-8.6 0-8.8.1-10 .6a9 9 0 0 0-3.6 3.5c-.6 1.1-.9 2.9-.9 5 0 1.5 0 1.6-.6 2.1-.4.3-1 1.1-1.3 1.8a4 4 0 0 0-.5 2.6c.4 5 6.3 7 9.5 3.3 1-1.1 1.3-2 1.3-3.6 0-1.7-.3-2.6-1.5-3.8-.9-1-.9-1-.9-2.8 0-3-.6-2.8 8.1-2.7l9-.2a7.2 7.2 0 0 0 5.8-3.6l.6-1v11c0 10.2 0 11-.4 11.9a4 4 0 0 1-7.2.4c-.5-.8-.6-1.2-.6-2.7 0-1.8 0-1.9.7-2.5.4-.3 1-1 1.2-1.7 2-4-1.7-8.6-6-7.7a5.6 5.6 0 0 0-2.6 9.5c.7.6.7.8.7 2.1 0 4.6 2.2 8.3 6 10 1.2.7 1.8.8 3.6.9 1.6 0 2.4 0 3.3-.3a9.8 9.8 0 0 0 5.6-4.3C53 75 53 75.4 53 60.4V46.9H56v13c0 7.6 0 13.4.2 14.1.6 3.1 2.8 6 5.7 7.4 1.4.7 1.6.7 4.2.7 2.4 0 2.7 0 3.8-.6a10 10 0 0 0 6-9.6v-2l1-1c1.5-1.4 2-3.4 1.4-5.4a5.2 5.2 0 0 0-2.6-3.2c-1-.5-1.5-.6-2.7-.6-4.9 0-7.2 6-3.6 9.4.7.7.8.8.8 2.3 0 1.8-.5 3-1.5 4a4 4 0 0 1-6.2-1l-.5-1V51.3l.7 1 1.8 2c2 1.3 2.1 1.3 11.2 1.4 4.6 0 8.5.1 8.8.2.6.1 1 1 1 2.8 0 1.6 0 1.7-.8 2.4a5 5 0 0 0-1.8 4c0 3.2 2.3 5.4 5.4 5.4 3.2 0 5.4-2.3 5.4-5.4 0-1.7-.3-2.6-1.6-3.9l-.8-.9-.1-2.5c-.1-2-.2-2.8-.6-3.6a8 8 0 0 0-3.6-3.7L86 50H77l-8.8-.1-.5-.6c-.3-.4-.4-1-.4-1.8v-1.2h6.4c6 0 6.4-.1 7.4-.6a7.5 7.5 0 0 0 3.4-3.3l.6-1v-6.5c.2-5.7.2-6.5.5-6.7.3-.2 2-.3 6.9-.3H99l.4.7c.7 1 2.3 1.7 3.6 1.9 3.3.3 6-2.1 6-5.4 0-1.7-.6-3-1.8-4.1a5.3 5.3 0 0 0-7.3.1l-1 1h-7.4l-7.3.1-1.1.6c-.6.4-1.5 1.1-2 1.7-1.6 1.7-1.7 2.2-1.8 9.2 0 3.3-.1 6.2-.2 6.3 0 .3-1.2.3-4.7.3H70l1-.4a8.8 8.8 0 0 0 3.3-3.6l.6-1.2.1-13c.1-12.4.1-12.9.5-13.2.4-.2 1.1-.3 2.7-.3 2 0 2.2 0 2.6.5.8 1 2.3 1.7 3.8 1.9 2.6.2 4.9-1.4 5.6-3.8.4-1.4.4-1.8 0-3.3A5.2 5.2 0 0 0 84.9 0a5 5 0 0 0-4 1.7l-.6.8h-2.4c-4.3 0-6.6 1.2-8.1 4.4L69 8.4v12.8c-.2 12.4-.2 12.9-.6 13.2-.3.2-1.3.3-4.3.3h-3.8V30h.8a5 5 0 0 0 4-2.5c.3-.6.4-1.7.5-8.8 0-5.4 0-8.6-.2-9.6-.7-4-3.7-7.5-7.6-8.7-1.2-.3-2-.4-3.8-.3-2 0-2.4.1-4 .8C47 2.4 45 5 44 8c-.3 1.3-.3 2.7-.3 9.8 0 8.8 0 9.2 1 10.6.6.8 2.3 1.6 3.5 1.6h.8V34.7h-4c-3.7 0-4 0-4.4-.5-.4-.4-.4-1-.5-13.4L40 8l-.6-1c-.7-1.6-2.1-3-3.7-3.7-1-.5-1.6-.6-4-.7-2.7 0-2.9 0-3.2-.6A5.5 5.5 0 0 0 21.8.6Z" fill="url(#paint81_linear)" fill-opacity=".2"/>
      <path class="b5" d="M104.8 123.6c-2.4 1.2-3.5 3.9-2.7 6.6.4 1.3 2.2 3.1 3.4 3.5 2 .6 4.2 0 5.5-1.3l.9-1h2.2c2 0 2.3.1 2.7.5.4.5.4 1.1.5 13.4l.2 13 .5 1c.7 1.4 2 2.8 3.3 3.5l.8.4h-4.4c-3.4 0-4.6 0-4.7-.3-.2-.1-.3-2.6-.3-6.7l-.1-6.4-.7-1.2c-.8-1.5-2-2.6-3.6-3.1-1-.4-1.7-.5-8.2-.5h-7l-.6-.7a5.5 5.5 0 1 0-6.2 8.7c2 .9 4 .5 6-1.1l1.1-1.1h6.3c5.3 0 6.3 0 6.7.3.5.4.5.4.5 6.5 0 5.6 0 6.2.5 7.3.5 1.5 1.9 2.9 3.4 3.7 1.1.5 1.3.5 7.5.6l6.5.1v1.3c0 2.2.5 2-9.6 2.2-8.6 0-8.8.1-10 .6a9 9 0 0 0-3.6 3.5c-.6 1.1-.9 2.9-.9 5 0 1.5 0 1.6-.6 2.1-.4.3-1 1.1-1.3 1.8a4 4 0 0 0-.5 2.6c.4 5 6.3 7 9.5 3.3 1-1.1 1.3-2 1.3-3.6 0-1.7-.3-2.6-1.5-3.8-.9-1-.9-1-.9-2.8 0-3-.6-2.8 8.1-2.7l9-.2a7.2 7.2 0 0 0 5.8-3.6l.6-1v11c0 10.2 0 11-.4 11.9a4 4 0 0 1-7.2.4c-.5-.8-.6-1.2-.6-2.7 0-1.8 0-1.9.7-2.5.4-.3 1-1 1.2-1.7 2-4-1.7-8.6-6-7.7a5.6 5.6 0 0 0-2.6 9.5c.7.6.7.8.7 2.1 0 4.6 2.2 8.3 6 10 1.2.7 1.8.8 3.6.9 1.6 0 2.4 0 3.3-.3a9.8 9.8 0 0 0 5.6-4.3c1.5-2.5 1.5-2.2 1.5-17.2v-13.5h3.1v13c0 7.6 0 13.4.2 14.1.6 3.1 2.8 6 5.7 7.4 1.4.7 1.6.7 4.2.7 2.4 0 2.7 0 3.8-.6a10 10 0 0 0 6-9.6v-2l1-1c1.5-1.4 2-3.4 1.4-5.4a5.2 5.2 0 0 0-2.6-3.2c-1-.5-1.5-.6-2.7-.6-4.9 0-7.2 6-3.6 9.4.7.7.8.8.8 2.3 0 1.8-.5 3-1.6 4a4 4 0 0 1-6-1l-.6-1v-22.1l.7 1 1.8 2c2 1.3 2.1 1.3 11.2 1.4 4.6 0 8.5.1 8.8.2.6.1 1 1 1 2.8 0 1.6 0 1.7-.8 2.4a5 5 0 0 0-1.8 4c0 3.2 2.3 5.4 5.4 5.4 3.2 0 5.4-2.3 5.4-5.4 0-1.7-.3-2.6-1.6-3.9l-.8-.9-.1-2.5c-.1-2-.2-2.8-.6-3.6a8 8 0 0 0-3.6-3.7l-1.2-.6H160l-8.8-.1-.5-.6c-.3-.4-.4-1-.4-1.8v-1.2h6.4c6 0 6.4-.1 7.4-.6a7.5 7.5 0 0 0 3.4-3.3l.6-1v-6.5c.2-5.7.2-6.5.5-6.7.3-.2 2-.3 6.9-.3h6.5l.4.7c.7 1 2.3 1.7 3.6 1.9 3.3.3 6-2.1 6-5.4 0-1.7-.6-3-1.8-4.1a5.3 5.3 0 0 0-7.3.1l-1 1h-7.4l-7.3.1-1.1.6c-.6.4-1.5 1.1-2 1.7-1.6 1.7-1.7 2.2-1.8 9.2 0 3.3-.1 6.2-.2 6.3 0 .3-1.2.3-4.7.3H153l1-.4a8.8 8.8 0 0 0 3.3-3.6l.6-1.2.1-13c.1-12.4.1-12.9.5-13.2.4-.2 1.1-.3 2.7-.3 2 0 2.2 0 2.6.5.8 1 2.3 1.7 3.8 1.9 2.6.2 4.9-1.4 5.6-3.8.4-1.4.4-1.8 0-3.3a5.2 5.2 0 0 0-5.2-3.8 5 5 0 0 0-4 1.7l-.6.8h-2.4c-4.3 0-6.6 1.2-8.1 4.4l-.8 1.5v12.8c-.2 12.4-.2 12.9-.6 13.2-.3.2-1.3.3-4.3.3h-3.8V153h.8a5 5 0 0 0 4-2.5c.3-.6.4-1.7.5-8.8 0-5.4 0-8.6-.2-9.6-.7-4-3.7-7.5-7.6-8.7-1.2-.3-2-.4-3.8-.3-2 0-2.4.1-4 .8-3 1.5-5.1 4-6 7.1-.3 1.3-.3 2.7-.3 9.8 0 8.8 0 9.2 1 10.6.6.8 2.4 1.6 3.5 1.6h.8V157.7h-4c-3.7 0-4 0-4.4-.5-.4-.4-.4-1-.5-13.4L123 131l-.6-1c-.7-1.6-2.1-3-3.7-3.7-1-.5-1.6-.6-4-.7-2.7 0-2.9 0-3.2-.6a5.5 5.5 0 0 0-6.7-1.3Z" fill="url(#paint82_linear)" fill-opacity=".5"/>
      <path class="b4" d="M187.8 164.6c-2.4 1.2-3.5 3.9-2.7 6.6.4 1.3 2.2 3.1 3.4 3.5 2 .6 4.2 0 5.5-1.3l.9-1h2.2c2 0 2.3.1 2.7.5.4.5.4 1.1.5 13.4l.2 13 .5 1c.7 1.4 2 2.8 3.3 3.5l.8.4h-4.4c-3.4 0-4.6 0-4.7-.3-.2-.1-.3-2.6-.3-6.7l-.1-6.4-.7-1.2c-.8-1.5-2-2.6-3.6-3.1-1-.4-1.7-.5-8.2-.5h-7l-.6-.7a5.5 5.5 0 1 0-6.2 8.7c2 .9 4 .5 6-1.1l1.1-1.1h6.3c5.3 0 6.3 0 6.7.3.5.4.5.4.5 6.5 0 5.6 0 6.2.5 7.3.5 1.5 1.9 2.9 3.4 3.7 1.1.5 1.3.5 7.5.6l6.5.1v1.3c0 2.2.5 2-9.6 2.2-8.6 0-8.8.1-10 .6a9 9 0 0 0-3.6 3.5c-.6 1.1-.9 2.9-.9 5 0 1.5 0 1.6-.6 2.1-.4.3-1 1.1-1.3 1.8a4 4 0 0 0-.5 2.6c.4 5 6.3 7 9.5 3.3 1-1.1 1.3-2 1.3-3.6 0-1.7-.3-2.6-1.5-3.8-.9-1-.9-1-.9-2.8 0-3-.6-2.8 8.1-2.7l9-.2a7.2 7.2 0 0 0 5.8-3.6l.6-1v11c0 10.2 0 11-.4 11.9a4 4 0 0 1-7.2.4c-.5-.8-.6-1.2-.6-2.7 0-1.8 0-1.9.7-2.5.4-.3 1-1 1.2-1.7 2-4-1.7-8.6-6-7.7a5.6 5.6 0 0 0-2.6 9.5c.7.6.7.8.7 2.1 0 4.6 2.2 8.3 6 10 1.2.7 1.8.8 3.6.9 1.6 0 2.4 0 3.3-.3a9.8 9.8 0 0 0 5.6-4.3c1.5-2.5 1.5-2.2 1.5-17.2v-13.5h3.1v13c0 7.6 0 13.4.2 14.1.6 3.1 2.8 6 5.7 7.4 1.4.7 1.6.7 4.2.7 2.4 0 2.7 0 3.8-.6a10 10 0 0 0 6-9.6v-2l1-1c1.5-1.4 2-3.4 1.4-5.4a5.2 5.2 0 0 0-2.6-3.2c-1-.5-1.5-.6-2.7-.6-4.9 0-7.2 6-3.6 9.4.7.7.8.8.8 2.3 0 1.8-.5 3-1.6 4a4 4 0 0 1-6-1l-.6-1v-22.1l.7 1 1.8 2c2 1.3 2.1 1.3 11.2 1.4 4.6 0 8.5.1 8.8.2.6.1 1 1 1 2.8 0 1.6 0 1.7-.8 2.4a5 5 0 0 0-1.8 4c0 3.2 2.3 5.4 5.4 5.4 3.2 0 5.4-2.3 5.4-5.4 0-1.7-.3-2.6-1.6-3.9l-.8-.9-.1-2.5c-.1-2-.2-2.8-.6-3.6a8 8 0 0 0-3.6-3.7l-1.2-.6H243l-8.8-.1-.5-.6c-.3-.4-.4-1-.4-1.8v-1.2h6.4c6 0 6.4-.1 7.4-.6a7.5 7.5 0 0 0 3.4-3.3l.6-1v-6.5c.2-5.7.2-6.5.5-6.7.3-.2 2-.3 6.9-.3h6.5l.4.7c.7 1 2.3 1.7 3.6 1.9 3.3.3 6-2.1 6-5.4 0-1.7-.6-3-1.8-4.1a5.3 5.3 0 0 0-7.3.1l-1 1h-7.4l-7.3.1-1.1.6c-.6.4-1.5 1.1-2 1.7-1.6 1.7-1.7 2.2-1.8 9.2 0 3.3-.1 6.2-.2 6.3 0 .3-1.2.3-4.7.3H236l1-.4a8.8 8.8 0 0 0 3.3-3.6l.6-1.2.1-13c.1-12.4.1-12.9.5-13.2.4-.2 1.1-.3 2.7-.3 2 0 2.2 0 2.6.5.8 1 2.3 1.7 3.8 1.9 2.6.2 4.9-1.4 5.6-3.8.4-1.4.4-1.8 0-3.3a5.2 5.2 0 0 0-5.2-3.8 5 5 0 0 0-4 1.7l-.6.8h-2.4c-4.3 0-6.6 1.2-8.1 4.4l-.8 1.5v12.8c-.2 12.4-.2 12.9-.6 13.2-.3.2-1.3.3-4.3.3h-3.8V194h.8a5 5 0 0 0 4-2.5c.3-.6.4-1.7.5-8.8 0-5.4 0-8.6-.2-9.6-.7-4-3.7-7.5-7.6-8.7-1.2-.3-2-.4-3.8-.3-2 0-2.4.1-4 .8-3 1.5-5.1 4-6 7.1-.3 1.3-.3 2.7-.3 9.8 0 8.8 0 9.2 1 10.6.6.8 2.4 1.6 3.5 1.6h.8V198.7h-4c-3.7 0-4 0-4.4-.5-.4-.4-.4-1-.5-13.4L206 172l-.6-1c-.7-1.6-2.1-3-3.7-3.7-1-.5-1.6-.6-4-.7-2.7 0-2.9 0-3.2-.6a5.5 5.5 0 0 0-6.7-1.3Z" fill="url(#paint83_linear)" fill-opacity=".5"/>
      <path class="b3" d="M285.8 164.6c-2.4 1.2-3.5 3.9-2.7 6.6.4 1.3 2.2 3.1 3.4 3.5 2 .6 4.2 0 5.5-1.3l.9-1h2.2c2 0 2.3.1 2.7.5.4.5.4 1.1.5 13.4l.2 13 .5 1c.7 1.4 2 2.8 3.3 3.5l.8.4h-4.4c-3.4 0-4.6 0-4.7-.3-.2-.1-.3-2.6-.4-6.7v-6.4l-.7-1.2c-.8-1.5-2-2.6-3.6-3.1-1-.4-1.7-.5-8.2-.5h-7l-.6-.7a5.5 5.5 0 1 0-6.2 8.7c2 .9 4 .5 6-1.1l1.1-1.1h6.3c5.3 0 6.3 0 6.7.3.5.4.5.4.5 6.5 0 5.6 0 6.2.5 7.3.6 1.5 1.9 2.9 3.4 3.7 1.1.5 1.3.5 7.5.6l6.5.1v1.3c0 2.2.5 2-9.6 2.2-8.6 0-8.8.1-10 .6a9 9 0 0 0-3.6 3.5c-.6 1.1-.9 2.9-.9 5 0 1.5 0 1.6-.6 2.1-.4.3-1 1.1-1.3 1.8a4 4 0 0 0-.5 2.6c.4 5 6.3 7 9.5 3.3 1-1.1 1.3-2 1.3-3.6 0-1.7-.3-2.6-1.5-3.8-.9-1-.9-1-.9-2.8 0-3-.6-2.8 8.1-2.7l9-.2a7.2 7.2 0 0 0 5.8-3.6l.6-1v11c0 10.2 0 11-.4 11.9a4 4 0 0 1-7.2.4c-.5-.8-.6-1.2-.6-2.7 0-1.8 0-1.9.7-2.5.4-.3 1-1 1.2-1.7 2-4-1.7-8.6-6-7.7a5.6 5.6 0 0 0-2.6 9.5c.7.6.7.8.7 2.1 0 4.6 2.2 8.3 6 10 1.2.7 1.8.8 3.6.9 1.6 0 2.4 0 3.3-.3a9.8 9.8 0 0 0 5.6-4.3c1.5-2.5 1.5-2.2 1.5-17.2v-13.5h3.1v13c0 7.6 0 13.4.2 14.1.6 3.1 2.8 6 5.7 7.4 1.4.7 1.6.7 4.2.7 2.4 0 2.7 0 3.8-.6a10 10 0 0 0 6-9.6v-2l1-1c1.5-1.4 2-3.4 1.4-5.4a5.2 5.2 0 0 0-2.6-3.2c-1-.5-1.5-.6-2.7-.6-4.9 0-7.2 6-3.6 9.4.7.7.8.8.8 2.3 0 1.8-.5 3-1.6 4a4 4 0 0 1-6-1l-.6-1v-22.1l.7 1 1.8 2c2 1.3 2.1 1.3 11.2 1.4 4.6 0 8.5.1 8.8.2.6.1 1 1 1 2.8 0 1.6 0 1.7-.8 2.4a5 5 0 0 0-1.8 4c0 3.2 2.3 5.4 5.4 5.4 3.2 0 5.4-2.3 5.4-5.4 0-1.7-.3-2.6-1.6-3.9l-.8-.9-.1-2.5c-.1-2-.2-2.8-.6-3.6a8 8 0 0 0-3.6-3.7l-1.2-.6H341l-8.8-.1-.5-.6c-.3-.4-.4-1-.4-1.8v-1.2h6.4c6 0 6.4-.1 7.4-.6a7.5 7.5 0 0 0 3.4-3.3l.6-1v-6.5c.2-5.7.2-6.5.5-6.7.3-.2 2-.3 6.9-.3h6.5l.4.7c.7 1 2.3 1.7 3.6 1.9 3.3.3 6-2.1 6-5.4 0-1.7-.6-3-1.8-4.1a5.3 5.3 0 0 0-7.3.1l-1 1h-7.4l-7.3.1-1.1.6c-.6.4-1.5 1.1-2 1.7-1.6 1.7-1.7 2.2-1.8 9.2 0 3.3-.1 6.2-.2 6.3 0 .3-1.2.3-4.7.3H334l1-.4a8.8 8.8 0 0 0 3.3-3.6l.6-1.2.1-13c.1-12.4.1-12.9.5-13.2.4-.2 1.1-.3 2.7-.3 2 0 2.2 0 2.6.5.8 1 2.3 1.7 3.8 1.9 2.6.2 4.9-1.4 5.6-3.8.4-1.4.4-1.8 0-3.3a5.2 5.2 0 0 0-5.2-3.8 5 5 0 0 0-4 1.7l-.6.8h-2.4c-4.3 0-6.6 1.2-8.1 4.4l-.8 1.5v12.8c-.2 12.4-.2 12.9-.6 13.2-.3.2-1.3.3-4.3.3h-3.8V194h.8a5 5 0 0 0 4-2.5c.3-.6.4-1.7.5-8.8 0-5.4 0-8.6-.2-9.6-.7-4-3.7-7.5-7.6-8.7-1.2-.3-2-.4-3.8-.3-2 0-2.4.1-4 .8-3 1.5-5.1 4-6 7.1-.3 1.3-.3 2.7-.3 9.8 0 8.8 0 9.2 1 10.6.6.8 2.4 1.6 3.5 1.6h.8V198.7h-4c-3.7 0-4 0-4.4-.5-.4-.4-.4-1-.5-13.4L304 172l-.6-1c-.7-1.6-2.1-3-3.7-3.7-1-.5-1.6-.6-4-.7-2.7 0-2.9 0-3.2-.6a5.5 5.5 0 0 0-6.7-1.3Z" fill="url(#paint84_linear)" fill-opacity=".5"/>
      <path class="b2" d="M368.8 123.6c-2.4 1.2-3.5 3.9-2.7 6.6.4 1.3 2.2 3.1 3.4 3.5 2 .6 4.2 0 5.5-1.3l.9-1h2.2c2 0 2.3.1 2.7.5.4.5.4 1.1.5 13.4l.2 13 .5 1c.7 1.4 2 2.8 3.3 3.5l.8.4h-4.4c-3.4 0-4.6 0-4.7-.3-.2-.1-.3-2.6-.4-6.7v-6.4l-.7-1.2c-.8-1.5-2-2.6-3.6-3.1-1-.4-1.7-.5-8.2-.5h-7l-.6-.7a5.5 5.5 0 1 0-6.2 8.7c2 .9 4 .5 6-1.1l1.1-1.1h6.3c5.3 0 6.3 0 6.7.3.5.4.5.4.5 6.5 0 5.6 0 6.2.5 7.3.6 1.5 1.9 2.9 3.4 3.7 1.1.5 1.3.5 7.5.6l6.5.1v1.3c0 2.2.5 2-9.6 2.2-8.6 0-8.8.1-10 .6a9 9 0 0 0-3.6 3.5c-.6 1.1-.9 2.9-.9 5 0 1.5 0 1.6-.6 2.1-.4.3-1 1.1-1.3 1.8a4 4 0 0 0-.5 2.6c.4 5 6.3 7 9.5 3.3 1-1.1 1.3-2 1.3-3.6 0-1.7-.3-2.6-1.5-3.8-.9-1-.9-1-.9-2.8 0-3-.6-2.8 8.1-2.7l9-.2a7.2 7.2 0 0 0 5.8-3.6l.6-1v11c0 10.2 0 11-.4 11.9a4 4 0 0 1-7.2.4c-.5-.8-.6-1.2-.6-2.7 0-1.8 0-1.9.7-2.5.4-.3 1-1 1.2-1.7 2-4-1.7-8.6-6-7.7a5.6 5.6 0 0 0-2.6 9.5c.7.6.7.8.7 2.1 0 4.6 2.2 8.3 6 10 1.2.7 1.8.8 3.6.9 1.6 0 2.4 0 3.3-.3a9.8 9.8 0 0 0 5.6-4.3c1.5-2.5 1.5-2.2 1.5-17.2v-13.5h3.1v13c0 7.6 0 13.4.2 14.1.6 3.1 2.8 6 5.7 7.4 1.4.7 1.6.7 4.2.7 2.4 0 2.7 0 3.8-.6a10 10 0 0 0 6-9.6v-2l1-1c1.5-1.4 2-3.4 1.4-5.4a5.2 5.2 0 0 0-2.6-3.2c-1-.5-1.5-.6-2.7-.6-4.9 0-7.2 6-3.6 9.4.7.7.8.8.8 2.3 0 1.8-.5 3-1.6 4a4 4 0 0 1-6-1l-.6-1v-22.1l.7 1 1.8 2c2 1.3 2.1 1.3 11.2 1.4 4.6 0 8.5.1 8.8.2.6.1 1 1 1 2.8 0 1.6 0 1.7-.8 2.4a5 5 0 0 0-1.8 4c0 3.2 2.3 5.4 5.4 5.4 3.2 0 5.4-2.3 5.4-5.4 0-1.7-.3-2.6-1.6-3.9l-.8-.9-.1-2.5c-.1-2-.2-2.8-.6-3.6a8 8 0 0 0-3.6-3.7l-1.2-.6H424l-8.8-.1-.5-.6c-.3-.4-.4-1-.4-1.8v-1.2h6.4c6 0 6.4-.1 7.4-.6a7.5 7.5 0 0 0 3.4-3.3l.6-1v-6.5c.2-5.7.2-6.5.5-6.7.3-.2 2-.3 6.9-.3h6.5l.4.7c.7 1 2.3 1.7 3.6 1.9 3.3.3 6-2.1 6-5.4 0-1.7-.6-3-1.8-4.1a5.3 5.3 0 0 0-7.3.1l-1 1h-7.4l-7.3.1-1.1.6c-.6.4-1.5 1.1-2 1.7-1.6 1.7-1.7 2.2-1.8 9.2 0 3.3-.1 6.2-.2 6.3 0 .3-1.2.3-4.7.3H417l1-.4a8.8 8.8 0 0 0 3.3-3.6l.6-1.2.1-13c.1-12.4.1-12.9.5-13.2.4-.2 1.1-.3 2.7-.3 2 0 2.2 0 2.6.5.8 1 2.3 1.7 3.8 1.9 2.6.2 4.9-1.4 5.6-3.8.4-1.4.4-1.8 0-3.3a5.2 5.2 0 0 0-5.2-3.8 5 5 0 0 0-4 1.7l-.6.8h-2.4c-4.3 0-6.6 1.2-8.1 4.4l-.8 1.5v12.8c-.2 12.4-.2 12.9-.6 13.2-.3.2-1.3.3-4.3.3h-3.8V153h.8a5 5 0 0 0 4-2.5c.3-.6.4-1.7.5-8.8 0-5.4 0-8.6-.2-9.6-.7-4-3.7-7.5-7.6-8.7-1.2-.3-2-.4-3.8-.3-2 0-2.4.1-4 .8-3 1.5-5.1 4-6 7.1-.3 1.3-.3 2.7-.3 9.8 0 8.8 0 9.2 1 10.6.6.8 2.4 1.6 3.5 1.6h.8V157.7h-4c-3.7 0-4 0-4.4-.5-.4-.4-.4-1-.5-13.4L387 131l-.6-1c-.7-1.6-2.1-3-3.7-3.7-1-.5-1.6-.6-4-.7-2.7 0-2.9 0-3.2-.6a5.5 5.5 0 0 0-6.7-1.3Z" fill="url(#paint85_linear)" fill-opacity=".5"/>
      <path class="b1" d="M451.8 82.6c-2.4 1.2-3.5 3.9-2.7 6.6.4 1.3 2.2 3.1 3.4 3.5 2 .6 4.2 0 5.5-1.3l.9-1h2.2c2 0 2.3.1 2.7.5.4.5.4 1.1.5 13.4l.2 13 .5 1c.7 1.4 2 2.8 3.3 3.5l.8.4h-4.4c-3.4 0-4.6 0-4.7-.3-.2-.1-.3-2.6-.4-6.7v-6.4l-.7-1.2c-.8-1.5-2-2.6-3.6-3.1-1-.4-1.7-.5-8.2-.5h-7l-.6-.7a5.5 5.5 0 1 0-6.2 8.7c2 1 4 .5 6-1.1l1.1-1.1h6.3c5.3 0 6.3 0 6.7.4.5.3.5.3.5 6.4 0 5.6 0 6.2.5 7.3.6 1.5 1.9 3 3.4 3.7 1.1.5 1.3.5 7.5.6l6.5.1v1.3c0 2.2.5 2-9.6 2.2-8.6 0-8.8.1-10 .6a9 9 0 0 0-3.6 3.5c-.6 1.1-.9 2.9-.9 5 0 1.5 0 1.6-.6 2.1-.4.3-1 1.1-1.3 1.8a4 4 0 0 0-.5 2.6c.4 5 6.3 7 9.5 3.3 1-1.1 1.3-2 1.3-3.6 0-1.7-.3-2.6-1.5-3.8-.9-1-.9-1-.9-2.8 0-3-.6-2.8 8.1-2.7l9-.2a7.2 7.2 0 0 0 5.8-3.6l.6-1v11c0 10.2 0 11-.4 11.9a4 4 0 0 1-7.2.4c-.5-.8-.6-1.2-.6-2.7 0-1.8 0-1.9.7-2.5.4-.3 1-1 1.2-1.7 2-4-1.7-8.6-6-7.7a5.6 5.6 0 0 0-2.6 9.5c.7.6.7.8.7 2.1 0 4.6 2.2 8.3 6 10 1.2.7 1.8.8 3.6.9 1.6 0 2.4 0 3.3-.3a9.8 9.8 0 0 0 5.6-4.3c1.5-2.5 1.5-2.2 1.5-17.2v-13.5h3.1v13c0 7.6 0 13.4.2 14.1.6 3.1 2.8 6 5.7 7.4 1.4.7 1.6.7 4.2.7 2.4 0 2.7 0 3.8-.6a10 10 0 0 0 6-9.6v-2l1-1c1.5-1.4 2-3.4 1.4-5.4a5.2 5.2 0 0 0-2.6-3.2c-1-.5-1.5-.6-2.7-.6-4.9 0-7.2 6-3.6 9.4.7.7.8.8.8 2.3 0 1.9-.5 3-1.6 4a4 4 0 0 1-6-1l-.6-1v-22.1l.7 1 1.8 2c2 1.3 2.1 1.3 11.2 1.4 4.6 0 8.5.1 8.8.2.6.1 1 1 1 2.8 0 1.6 0 1.7-.8 2.4a5 5 0 0 0-1.8 4c0 3.2 2.3 5.4 5.4 5.4 3.2 0 5.4-2.3 5.4-5.4 0-1.7-.3-2.6-1.6-3.9l-.8-.9-.1-2.5c-.1-2-.2-2.8-.6-3.6a8 8 0 0 0-3.6-3.7l-1.2-.6H507l-8.8-.1-.5-.6c-.3-.4-.4-1-.4-1.8v-1.2h6.4c6 0 6.4-.1 7.4-.6a7.5 7.5 0 0 0 3.4-3.3l.6-1v-6.5c.2-5.7.2-6.5.5-6.7.3-.2 2-.3 6.9-.3h6.5l.4.7c.7 1 2.3 1.7 3.6 1.9 3.3.3 6-2.1 6-5.4 0-1.7-.6-3-1.8-4.1a5.3 5.3 0 0 0-7.3.1l-1 1h-7.4l-7.3.1-1.1.6c-.6.4-1.5 1.1-2 1.7-1.6 1.7-1.7 2.2-1.8 9.2 0 3.3-.1 6.2-.2 6.3 0 .3-1.2.3-4.7.3H500l1-.4a8.8 8.8 0 0 0 3.3-3.6l.6-1.2.1-13c.1-12.4.1-12.9.5-13.2.4-.2 1.1-.3 2.7-.3 2 0 2.2 0 2.6.5.8 1 2.3 1.7 3.8 1.9 2.6.2 4.9-1.4 5.6-3.8.4-1.4.4-1.8 0-3.3a5.2 5.2 0 0 0-5.2-3.8 5 5 0 0 0-4 1.7l-.6.8h-2.4c-4.3 0-6.6 1.2-8.1 4.4l-.8 1.5v12.8c-.2 12.4-.2 12.9-.6 13.2-.3.2-1.3.3-4.3.3h-3.8V112h.8a5 5 0 0 0 4-2.5c.3-.6.4-1.7.5-8.8 0-5.4 0-8.6-.2-9.6-.7-4-3.7-7.5-7.6-8.7-1.2-.3-2-.4-3.8-.3-2 0-2.4.1-4 .8-3 1.5-5.1 4-6 7.1-.3 1.3-.3 2.7-.3 9.8 0 8.8 0 9.2 1 10.6.6.8 2.4 1.6 3.5 1.6h.8V116.7h-4c-3.7 0-4 0-4.4-.5-.4-.4-.4-1-.5-13.4L470 90l-.6-1c-.7-1.6-2.1-3-3.7-3.7-1-.5-1.6-.6-4-.7-2.7 0-2.9 0-3.2-.6a5.5 5.5 0 0 0-6.7-1.3Z" fill="url(#paint86_linear)" fill-opacity=".5"/>
      <path class="b6" d="M21.8 83.6c-2.4 1.2-3.5 3.9-2.7 6.6.4 1.3 2.2 3.1 3.4 3.5 2 .6 4.2 0 5.5-1.3l.9-1h2.2c2 0 2.3.1 2.7.5.4.5.4 1.1.5 13.4l.2 13 .5 1c.7 1.4 2 2.8 3.3 3.5l.8.4h-4.4c-3.4 0-4.6 0-4.7-.3-.2-.1-.3-2.6-.4-6.7v-6.4l-.7-1.2c-.8-1.5-2-2.6-3.6-3.1-1-.4-1.7-.5-8.2-.5h-7l-.6-.7a5.5 5.5 0 1 0-6.2 8.7c2 .9 4 .5 6-1.1l1.1-1.1h6.3c5.3 0 6.3 0 6.7.4.5.3.5.3.5 6.4 0 5.6 0 6.2.5 7.3.6 1.5 1.9 2.9 3.4 3.7 1.1.5 1.3.5 7.5.6l6.5.1v1.3c0 2.2.5 2-9.6 2.2-8.6 0-8.8.1-10 .6a9 9 0 0 0-3.6 3.5c-.6 1.1-.9 2.9-.9 5 0 1.5 0 1.6-.6 2.1-.4.3-1 1.1-1.3 1.8a4 4 0 0 0-.5 2.6c.4 5 6.3 7 9.5 3.3 1-1.1 1.3-2 1.3-3.6 0-1.7-.3-2.6-1.5-3.8-.9-1-.9-1-.9-2.8 0-3-.6-2.8 8.1-2.7l9-.2a7.2 7.2 0 0 0 5.8-3.6l.6-1v11c0 10.2 0 11-.4 11.9a4 4 0 0 1-7.2.4c-.5-.8-.6-1.2-.6-2.7 0-1.8 0-1.9.7-2.5.4-.3 1-1 1.2-1.7 2-4-1.7-8.6-6-7.7a5.6 5.6 0 0 0-2.6 9.5c.7.6.7.8.7 2.1 0 4.6 2.2 8.3 6 10 1.2.7 1.8.8 3.6.9 1.6 0 2.4 0 3.3-.3a9.8 9.8 0 0 0 5.6-4.3c1.5-2.5 1.5-2.2 1.5-17.2v-13.5H56v13c0 7.6 0 13.4.2 14.1.6 3.1 2.8 6 5.7 7.4 1.4.7 1.6.7 4.2.7 2.4 0 2.7 0 3.8-.6a10 10 0 0 0 6-9.6v-2l1-1c1.5-1.4 2-3.4 1.4-5.4a5.2 5.2 0 0 0-2.6-3.2c-1-.5-1.5-.6-2.7-.6-4.9 0-7.2 6-3.6 9.4.7.7.8.8.8 2.3 0 1.8-.5 3-1.5 4a4 4 0 0 1-6.2-1l-.5-1v-22.1l.7 1 1.8 2c2 1.3 2.1 1.3 11.2 1.4 4.6 0 8.5.1 8.8.2.6.1 1 1 1 2.8 0 1.6 0 1.7-.8 2.4a5 5 0 0 0-1.8 4c0 3.2 2.3 5.4 5.4 5.4 3.2 0 5.4-2.3 5.4-5.4 0-1.7-.3-2.6-1.6-3.9l-.8-.9-.1-2.5c-.1-2-.2-2.8-.6-3.6a8 8 0 0 0-3.6-3.7L86 133H77l-8.8-.1-.5-.6c-.3-.4-.4-1-.4-1.8v-1.2h6.4c6 0 6.4-.1 7.4-.6a7.5 7.5 0 0 0 3.4-3.3l.6-1v-6.5c.2-5.7.2-6.5.5-6.7.3-.2 2-.3 6.9-.3H99l.4.7c.7 1 2.3 1.7 3.6 1.9 3.3.3 6-2.1 6-5.4 0-1.7-.6-3-1.8-4.1a5.3 5.3 0 0 0-7.3.1l-1 1h-7.4l-7.3.1-1.1.6c-.6.4-1.5 1.1-2 1.7-1.6 1.7-1.7 2.2-1.8 9.2 0 3.3-.1 6.2-.2 6.3 0 .3-1.2.3-4.7.3H70l1-.4a8.8 8.8 0 0 0 3.3-3.6l.6-1.2.1-13c.1-12.4.1-12.9.5-13.2.4-.2 1.1-.3 2.7-.3 2 0 2.2 0 2.6.5.8 1 2.3 1.7 3.8 1.9 2.6.2 4.9-1.4 5.6-3.8.4-1.4.4-1.8 0-3.3a5.2 5.2 0 0 0-5.2-3.8 5 5 0 0 0-4 1.7l-.6.8h-2.4c-4.3 0-6.6 1.2-8.1 4.4l-.8 1.5v12.8c-.2 12.4-.2 12.9-.6 13.2-.3.2-1.3.3-4.3.3h-3.8V113h.8a5 5 0 0 0 4-2.5c.3-.6.4-1.7.5-8.8 0-5.4 0-8.6-.2-9.6-.7-4-3.7-7.5-7.6-8.7-1.2-.3-2-.4-3.8-.3-2 0-2.4.1-4 .8-3 1.5-5.1 4-6 7.1-.3 1.3-.3 2.7-.3 9.8 0 8.8 0 9.2 1 10.6.6.8 2.3 1.6 3.5 1.6h.8V117.7h-4c-3.7 0-4 0-4.4-.5-.4-.4-.4-1-.5-13.4L40 91l-.6-1c-.7-1.6-2.1-3-3.7-3.7-1-.5-1.6-.6-4-.7-2.7 0-2.9 0-3.2-.6a5.5 5.5 0 0 0-6.7-1.3Z" fill="url(#paint87_linear)" fill-opacity=".5"/>
      <path class="c4" d="M187.8 246.6c-2.4 1.2-3.5 3.9-2.7 6.6.4 1.3 2.2 3.1 3.4 3.5 2 .6 4.2 0 5.5-1.3l.9-1h2.2c2 0 2.3.1 2.7.5.4.5.4 1.1.5 13.4l.2 13 .5 1c.7 1.4 2 2.8 3.3 3.5l.8.4h-4.4c-3.4 0-4.6 0-4.7-.3-.2-.1-.3-2.6-.3-6.7l-.1-6.4-.7-1.2c-.8-1.5-2-2.6-3.6-3.1-1-.4-1.7-.5-8.2-.5h-7l-.6-.7a5.5 5.5 0 1 0-6.2 8.7c2 .9 4 .5 6-1.1l1.1-1.1h6.3c5.3 0 6.3 0 6.7.3.5.4.5.4.5 6.5 0 5.6 0 6.2.5 7.3.5 1.5 1.9 2.9 3.4 3.7 1.1.5 1.3.5 7.5.6l6.5.1v1.3c0 2.2.5 2-9.6 2.2-8.6 0-8.8.1-10 .6a9 9 0 0 0-3.6 3.5c-.6 1.1-.9 2.9-.9 5 0 1.5 0 1.6-.6 2.1-.4.3-1 1.1-1.3 1.8a4 4 0 0 0-.5 2.6c.4 5 6.3 7 9.5 3.3 1-1.1 1.3-2 1.3-3.6 0-1.7-.3-2.6-1.5-3.8-.9-1-.9-1-.9-2.8 0-3-.6-2.8 8.1-2.7l9-.2a7.2 7.2 0 0 0 5.8-3.6l.6-1v11c0 10.2 0 11-.4 11.9a4 4 0 0 1-7.2.4c-.5-.8-.6-1.2-.6-2.7 0-1.8 0-1.9.7-2.5.4-.3 1-1 1.2-1.7 2-4-1.7-8.6-6-7.7a5.6 5.6 0 0 0-2.6 9.5c.7.6.7.8.7 2.1 0 4.6 2.2 8.3 6 10 1.2.7 1.8.8 3.6.9 1.6 0 2.4 0 3.3-.3a9.8 9.8 0 0 0 5.6-4.3c1.5-2.5 1.5-2.2 1.5-17.2v-13.5h3.1v13c0 7.6 0 13.4.2 14.1.6 3.1 2.8 6 5.7 7.4 1.4.7 1.6.7 4.2.7 2.4 0 2.7 0 3.8-.6a10 10 0 0 0 6-9.6v-2l1-1c1.5-1.4 2-3.4 1.4-5.4a5.2 5.2 0 0 0-2.6-3.2c-1-.5-1.5-.6-2.7-.6-4.9 0-7.2 6-3.6 9.4.7.7.8.8.8 2.3 0 1.9-.5 3-1.6 4a4 4 0 0 1-6-1l-.6-1v-22.1l.7 1 1.8 2c2 1.3 2.1 1.3 11.2 1.4 4.6 0 8.5.1 8.8.2.6.1 1 1 1 2.8 0 1.6 0 1.7-.8 2.4a5 5 0 0 0-1.8 4c0 3.2 2.3 5.4 5.4 5.4 3.2 0 5.4-2.3 5.4-5.4 0-1.7-.3-2.6-1.6-3.9l-.8-.9-.1-2.5c-.1-2-.2-2.8-.6-3.6a8 8 0 0 0-3.6-3.7l-1.2-.6H243l-8.8-.1-.5-.6c-.3-.4-.4-1-.4-1.8v-1.2h6.4c6 0 6.4-.1 7.4-.6a7.5 7.5 0 0 0 3.4-3.3l.6-1v-6.5c.2-5.7.2-6.5.5-6.7.3-.2 2-.3 6.9-.3h6.5l.4.7c.7 1 2.3 1.7 3.6 1.9 3.3.3 6-2.1 6-5.4 0-1.7-.6-3-1.8-4.1a5.3 5.3 0 0 0-7.3.1l-1 1h-7.4l-7.3.1-1.1.6c-.6.4-1.5 1.1-2 1.7-1.6 1.7-1.7 2.2-1.8 9.2 0 3.3-.1 6.2-.2 6.3 0 .3-1.2.3-4.7.3H236l1-.4a8.8 8.8 0 0 0 3.3-3.6l.6-1.2.1-13c.1-12.4.1-12.9.5-13.2.4-.2 1.1-.3 2.7-.3 2 0 2.2 0 2.6.5.8 1 2.3 1.7 3.8 1.9 2.6.2 4.9-1.4 5.6-3.8.4-1.4.4-1.8 0-3.3a5.2 5.2 0 0 0-5.2-3.8 5 5 0 0 0-4 1.7l-.6.8h-2.4c-4.3 0-6.6 1.2-8.1 4.4l-.8 1.5v12.8c-.2 12.4-.2 12.9-.6 13.2-.3.2-1.3.3-4.3.3h-3.8V276h.8a5 5 0 0 0 4-2.5c.3-.6.4-1.7.5-8.8 0-5.4 0-8.6-.2-9.6-.7-4-3.7-7.5-7.6-8.7-1.2-.3-2-.4-3.8-.3-2 0-2.4.1-4 .8-3 1.5-5.1 4-6 7.1-.3 1.3-.3 2.7-.3 9.8 0 8.8 0 9.2 1 10.6.6.8 2.4 1.6 3.5 1.6h.8V280.7h-4c-3.7 0-4 0-4.4-.5-.4-.4-.4-1-.5-13.4L206 254l-.6-1c-.7-1.6-2.1-3-3.7-3.7-1-.5-1.6-.6-4-.7-2.7 0-2.9 0-3.2-.6a5.5 5.5 0 0 0-6.7-1.3Z" fill="url(#paint88_linear)"/>
      <path class="c5" d="M104.8 205.6c-2.4 1.2-3.5 3.9-2.7 6.6.4 1.3 2.2 3.1 3.4 3.5 2 .6 4.2 0 5.5-1.3l.9-1h2.2c2 0 2.3.1 2.7.5.4.5.4 1.1.5 13.4l.2 13 .5 1c.7 1.4 2 2.8 3.3 3.5l.8.4h-4.4c-3.4 0-4.6 0-4.7-.3-.2-.1-.3-2.6-.3-6.7l-.1-6.4-.7-1.2c-.8-1.5-2-2.6-3.6-3.1-1-.4-1.7-.5-8.2-.5h-7l-.6-.7a5.5 5.5 0 1 0-6.2 8.7c2 .9 4 .5 6-1.1l1.1-1.1h6.3c5.3 0 6.3 0 6.7.3.5.4.5.4.5 6.5 0 5.6 0 6.2.5 7.3.5 1.5 1.9 2.9 3.4 3.7 1.1.5 1.3.5 7.5.6l6.5.1v1.3c0 2.2.5 2-9.6 2.2-8.6 0-8.8.1-10 .6a9 9 0 0 0-3.6 3.5c-.6 1.1-.9 2.9-.9 5 0 1.5 0 1.6-.6 2.1-.4.3-1 1.1-1.3 1.8a4 4 0 0 0-.5 2.6c.4 5 6.3 7 9.5 3.3 1-1.1 1.3-2 1.3-3.6 0-1.7-.3-2.6-1.5-3.8-.9-1-.9-1-.9-2.8 0-3-.6-2.8 8.1-2.7l9-.2a7.2 7.2 0 0 0 5.8-3.6l.6-1v11c0 10.2 0 11-.4 11.9a4 4 0 0 1-7.2.4c-.5-.8-.6-1.2-.6-2.7 0-1.8 0-1.9.7-2.5.4-.3 1-1 1.2-1.7 2-4-1.7-8.6-6-7.7a5.6 5.6 0 0 0-2.6 9.5c.7.6.7.8.7 2.1 0 4.6 2.2 8.3 6 10 1.2.7 1.8.8 3.6.9 1.6 0 2.4 0 3.3-.3a9.8 9.8 0 0 0 5.6-4.3c1.5-2.5 1.5-2.2 1.5-17.2v-13.5h3.1v13c0 7.6 0 13.4.2 14.1.6 3.1 2.8 6 5.7 7.4 1.4.7 1.6.7 4.2.7 2.4 0 2.7 0 3.8-.6a10 10 0 0 0 6-9.6v-2l1-1c1.5-1.4 2-3.4 1.4-5.4a5.2 5.2 0 0 0-2.6-3.2c-1-.5-1.5-.6-2.7-.6-4.9 0-7.2 6-3.6 9.4.7.7.8.8.8 2.3 0 1.9-.5 3-1.6 4a4 4 0 0 1-6-1l-.6-1v-22.1l.7 1 1.8 2c2 1.3 2.1 1.3 11.2 1.4 4.6 0 8.5.1 8.8.2.6.1 1 1 1 2.8 0 1.6 0 1.7-.8 2.4a5 5 0 0 0-1.8 4c0 3.2 2.3 5.4 5.4 5.4 3.2 0 5.4-2.3 5.4-5.4 0-1.7-.3-2.6-1.6-3.9l-.8-.9-.1-2.5c-.1-2-.2-2.8-.6-3.6a8 8 0 0 0-3.6-3.7l-1.2-.6H160l-8.8-.1-.5-.6c-.3-.4-.4-1-.4-1.8v-1.2h6.4c6 0 6.4-.1 7.4-.6a7.5 7.5 0 0 0 3.4-3.3l.6-1v-6.5c.2-5.7.2-6.5.5-6.7.3-.2 2-.3 6.9-.3h6.5l.4.7c.7 1 2.3 1.7 3.6 1.9 3.3.3 6-2.1 6-5.4 0-1.7-.6-3-1.8-4.1a5.3 5.3 0 0 0-7.3.1l-1 1h-7.4l-7.3.1-1.1.6c-.6.4-1.5 1.1-2 1.7-1.6 1.7-1.7 2.2-1.8 9.2 0 3.3-.1 6.2-.2 6.3 0 .3-1.2.3-4.7.3H153l1-.4a8.8 8.8 0 0 0 3.3-3.6l.6-1.2.1-13c.1-12.4.1-12.9.5-13.2.4-.2 1.1-.3 2.7-.3 2 0 2.2 0 2.6.5.8 1 2.3 1.7 3.8 1.9 2.6.2 4.9-1.4 5.6-3.8.4-1.4.4-1.8 0-3.3a5.2 5.2 0 0 0-5.2-3.8 5 5 0 0 0-4 1.7l-.6.8h-2.4c-4.3 0-6.6 1.2-8.1 4.4l-.8 1.5v12.8c-.2 12.4-.2 12.9-.6 13.2-.3.2-1.3.3-4.3.3h-3.8V235h.8a5 5 0 0 0 4-2.5c.3-.6.4-1.7.5-8.8 0-5.4 0-8.6-.2-9.6-.7-4-3.7-7.5-7.6-8.7-1.2-.3-2-.4-3.8-.3-2 0-2.4.1-4 .8-3 1.5-5.1 4-6 7.1-.3 1.3-.3 2.7-.3 9.8 0 8.8 0 9.2 1 10.6.6.8 2.4 1.6 3.5 1.6h.8V239.7h-4c-3.7 0-4 0-4.4-.5-.4-.4-.4-1-.5-13.4L123 213l-.6-1c-.7-1.6-2.1-3-3.7-3.7-1-.5-1.6-.6-4-.7-2.7 0-2.9 0-3.2-.6a5.5 5.5 0 0 0-6.7-1.3Z" fill="url(#paint89_linear)"/>
      <path class="c3" d="M285.8 246.6c-2.4 1.2-3.5 3.9-2.7 6.6.4 1.3 2.2 3.1 3.4 3.5 2 .6 4.2 0 5.5-1.3l.9-1h2.2c2 0 2.3.1 2.7.5.4.5.4 1.1.5 13.4l.2 13 .5 1c.7 1.4 2 2.8 3.3 3.5l.8.4h-4.4c-3.4 0-4.6 0-4.7-.3-.2-.1-.3-2.6-.4-6.7v-6.4l-.7-1.2c-.8-1.5-2-2.6-3.6-3.1-1-.4-1.7-.5-8.2-.5h-7l-.6-.7a5.5 5.5 0 1 0-6.2 8.7c2 .9 4 .5 6-1.1l1.1-1.1h6.3c5.3 0 6.3 0 6.7.3.5.4.5.4.5 6.5 0 5.6 0 6.2.5 7.3.6 1.5 1.9 2.9 3.4 3.7 1.1.5 1.3.5 7.5.6l6.5.1v1.3c0 2.2.5 2-9.6 2.2-8.6 0-8.8.1-10 .6a9 9 0 0 0-3.6 3.5c-.6 1.1-.9 2.9-.9 5 0 1.5 0 1.6-.6 2.1-.4.3-1 1.1-1.3 1.8a4 4 0 0 0-.5 2.6c.4 5 6.3 7 9.5 3.3 1-1.1 1.3-2 1.3-3.6 0-1.7-.3-2.6-1.5-3.8-.9-1-.9-1-.9-2.8 0-3-.6-2.8 8.1-2.7l9-.2a7.2 7.2 0 0 0 5.8-3.6l.6-1v11c0 10.2 0 11-.4 11.9a4 4 0 0 1-7.2.4c-.5-.8-.6-1.2-.6-2.7 0-1.8 0-1.9.7-2.5.4-.3 1-1 1.2-1.7 2-4-1.7-8.6-6-7.7a5.6 5.6 0 0 0-2.6 9.5c.7.6.7.8.7 2.1 0 4.6 2.2 8.3 6 10 1.2.7 1.8.8 3.6.9 1.6 0 2.4 0 3.3-.3a9.8 9.8 0 0 0 5.6-4.3c1.5-2.5 1.5-2.2 1.5-17.2v-13.5h3.1v13c0 7.6 0 13.4.2 14.1.6 3.1 2.8 6 5.7 7.4 1.4.7 1.6.7 4.2.7 2.4 0 2.7 0 3.8-.6a10 10 0 0 0 6-9.6v-2l1-1c1.5-1.4 2-3.4 1.4-5.4a5.2 5.2 0 0 0-2.6-3.2c-1-.5-1.5-.6-2.7-.6-4.9 0-7.2 6-3.6 9.4.7.7.8.8.8 2.3 0 1.9-.5 3-1.6 4a4 4 0 0 1-6-1l-.6-1v-22.1l.7 1 1.8 2c2 1.3 2.1 1.3 11.2 1.4 4.6 0 8.5.1 8.8.2.6.1 1 1 1 2.8 0 1.6 0 1.7-.8 2.4a5 5 0 0 0-1.8 4c0 3.2 2.3 5.4 5.4 5.4 3.2 0 5.4-2.3 5.4-5.4 0-1.7-.3-2.6-1.6-3.9l-.8-.9-.1-2.5c-.1-2-.2-2.8-.6-3.6a8 8 0 0 0-3.6-3.7l-1.2-.6H341l-8.8-.1-.5-.6c-.3-.4-.4-1-.4-1.8v-1.2h6.4c6 0 6.4-.1 7.4-.6a7.5 7.5 0 0 0 3.4-3.3l.6-1v-6.5c.2-5.7.2-6.5.5-6.7.3-.2 2-.3 6.9-.3h6.5l.4.7c.7 1 2.3 1.7 3.6 1.9 3.3.3 6-2.1 6-5.4 0-1.7-.6-3-1.8-4.1a5.3 5.3 0 0 0-7.3.1l-1 1h-7.4l-7.3.1-1.1.6c-.6.4-1.5 1.1-2 1.7-1.6 1.7-1.7 2.2-1.8 9.2 0 3.3-.1 6.2-.2 6.3 0 .3-1.2.3-4.7.3H334l1-.4a8.8 8.8 0 0 0 3.3-3.6l.6-1.2.1-13c.1-12.4.1-12.9.5-13.2.4-.2 1.1-.3 2.7-.3 2 0 2.2 0 2.6.5.8 1 2.3 1.7 3.8 1.9 2.6.2 4.9-1.4 5.6-3.8.4-1.4.4-1.8 0-3.3a5.2 5.2 0 0 0-5.2-3.8 5 5 0 0 0-4 1.7l-.6.8h-2.4c-4.3 0-6.6 1.2-8.1 4.4l-.8 1.5v12.8c-.2 12.4-.2 12.9-.6 13.2-.3.2-1.3.3-4.3.3h-3.8V276h.8a5 5 0 0 0 4-2.5c.3-.6.4-1.7.5-8.8 0-5.4 0-8.6-.2-9.6-.7-4-3.7-7.5-7.6-8.7-1.2-.3-2-.4-3.8-.3-2 0-2.4.1-4 .8-3 1.5-5.1 4-6 7.1-.3 1.3-.3 2.7-.3 9.8 0 8.8 0 9.2 1 10.6.6.8 2.4 1.6 3.5 1.6h.8V280.7h-4c-3.7 0-4 0-4.4-.5-.4-.4-.4-1-.5-13.4L304 254l-.6-1c-.7-1.6-2.1-3-3.7-3.7-1-.5-1.6-.6-4-.7-2.7 0-2.9 0-3.2-.6a5.5 5.5 0 0 0-6.7-1.3Z" fill="url(#paint90_linear)"/>
      <path class="c2" d="M368.8 205.6c-2.4 1.2-3.5 3.9-2.7 6.6.4 1.3 2.2 3.1 3.4 3.5 2 .6 4.2 0 5.5-1.3l.9-1h2.2c2 0 2.3.1 2.7.5.4.5.4 1.1.5 13.4l.2 13 .5 1c.7 1.4 2 2.8 3.3 3.5l.8.4h-4.4c-3.4 0-4.6 0-4.7-.3-.2-.1-.3-2.6-.4-6.7v-6.4l-.7-1.2c-.8-1.5-2-2.6-3.6-3.1-1-.4-1.7-.5-8.2-.5h-7l-.6-.7a5.5 5.5 0 1 0-6.2 8.7c2 .9 4 .5 6-1.1l1.1-1.1h6.3c5.3 0 6.3 0 6.7.3.5.4.5.4.5 6.5 0 5.6 0 6.2.5 7.3.6 1.5 1.9 2.9 3.4 3.7 1.1.5 1.3.5 7.5.6l6.5.1v1.3c0 2.2.5 2-9.6 2.2-8.6 0-8.8.1-10 .6a9 9 0 0 0-3.6 3.5c-.6 1.1-.9 2.9-.9 5 0 1.5 0 1.6-.6 2.1-.4.3-1 1.1-1.3 1.8a4 4 0 0 0-.5 2.6c.4 5 6.3 7 9.5 3.3 1-1.1 1.3-2 1.3-3.6 0-1.7-.3-2.6-1.5-3.8-.9-1-.9-1-.9-2.8 0-3-.6-2.8 8.1-2.7l9-.2a7.2 7.2 0 0 0 5.8-3.6l.6-1v11c0 10.2 0 11-.4 11.9a4 4 0 0 1-7.2.4c-.5-.8-.6-1.2-.6-2.7 0-1.8 0-1.9.7-2.5.4-.3 1-1 1.2-1.7 2-4-1.7-8.6-6-7.7a5.6 5.6 0 0 0-2.6 9.5c.7.6.7.8.7 2.1 0 4.6 2.2 8.3 6 10 1.2.7 1.8.8 3.6.9 1.6 0 2.4 0 3.3-.3a9.8 9.8 0 0 0 5.6-4.3c1.5-2.5 1.5-2.2 1.5-17.2v-13.5h3.1v13c0 7.6 0 13.4.2 14.1.6 3.1 2.8 6 5.7 7.4 1.4.7 1.6.7 4.2.7 2.4 0 2.7 0 3.8-.6a10 10 0 0 0 6-9.6v-2l1-1c1.5-1.4 2-3.4 1.4-5.4a5.2 5.2 0 0 0-2.6-3.2c-1-.5-1.5-.6-2.7-.6-4.9 0-7.2 6-3.6 9.4.7.7.8.8.8 2.3 0 1.9-.5 3-1.6 4a4 4 0 0 1-6-1l-.6-1v-22.1l.7 1 1.8 2c2 1.3 2.1 1.3 11.2 1.4 4.6 0 8.5.1 8.8.2.6.1 1 1 1 2.8 0 1.6 0 1.7-.8 2.4a5 5 0 0 0-1.8 4c0 3.2 2.3 5.4 5.4 5.4 3.2 0 5.4-2.3 5.4-5.4 0-1.7-.3-2.6-1.6-3.9l-.8-.9-.1-2.5c-.1-2-.2-2.8-.6-3.6a8 8 0 0 0-3.6-3.7l-1.2-.6H424l-8.8-.1-.5-.6c-.3-.4-.4-1-.4-1.8v-1.2h6.4c6 0 6.4-.1 7.4-.6a7.5 7.5 0 0 0 3.4-3.3l.6-1v-6.5c.2-5.7.2-6.5.5-6.7.3-.2 2-.3 6.9-.3h6.5l.4.7c.7 1 2.3 1.7 3.6 1.9 3.3.3 6-2.1 6-5.4 0-1.7-.6-3-1.8-4.1a5.3 5.3 0 0 0-7.3.1l-1 1h-7.4l-7.3.1-1.1.6c-.6.4-1.5 1.1-2 1.7-1.6 1.7-1.7 2.2-1.8 9.2 0 3.3-.1 6.2-.2 6.3 0 .3-1.2.3-4.7.3H417l1-.4a8.8 8.8 0 0 0 3.3-3.6l.6-1.2.1-13c.1-12.4.1-12.9.5-13.2.4-.2 1.1-.3 2.7-.3 2 0 2.2 0 2.6.5.8 1 2.3 1.7 3.8 1.9 2.6.2 4.9-1.4 5.6-3.8.4-1.4.4-1.8 0-3.3a5.2 5.2 0 0 0-5.2-3.8 5 5 0 0 0-4 1.7l-.6.8h-2.4c-4.3 0-6.6 1.2-8.1 4.4l-.8 1.5v12.8c-.2 12.4-.2 12.9-.6 13.2-.3.2-1.3.3-4.3.3h-3.8V235h.8a5 5 0 0 0 4-2.5c.3-.6.4-1.7.5-8.8 0-5.4 0-8.6-.2-9.6-.7-4-3.7-7.5-7.6-8.7-1.2-.3-2-.4-3.8-.3-2 0-2.4.1-4 .8-3 1.5-5.1 4-6 7.1-.3 1.3-.3 2.7-.3 9.8 0 8.8 0 9.2 1 10.6.6.8 2.4 1.6 3.5 1.6h.8V239.7h-4c-3.7 0-4 0-4.4-.5-.4-.4-.4-1-.5-13.4L387 213l-.6-1c-.7-1.6-2.1-3-3.7-3.7-1-.5-1.6-.6-4-.7-2.7 0-2.9 0-3.2-.6a5.5 5.5 0 0 0-6.7-1.3Z" fill="url(#paint91_linear)"/>
      <path class="c1" d="M451.8 164.6c-2.4 1.2-3.5 3.9-2.7 6.6.4 1.3 2.2 3.1 3.4 3.5 2 .6 4.2 0 5.5-1.3l.9-1h2.2c2 0 2.3.1 2.7.5.4.5.4 1.1.5 13.4l.2 13 .5 1c.7 1.4 2 2.8 3.3 3.5l.8.4h-4.4c-3.4 0-4.6 0-4.7-.3-.2-.1-.3-2.6-.4-6.7v-6.4l-.7-1.2c-.8-1.5-2-2.6-3.6-3.1-1-.4-1.7-.5-8.2-.5h-7l-.6-.7a5.5 5.5 0 1 0-6.2 8.7c2 1 4 .5 6-1.1l1.1-1.1h6.3c5.3 0 6.3 0 6.7.4.5.3.5.3.5 6.4 0 5.6 0 6.2.5 7.3.6 1.5 1.9 3 3.4 3.7 1.1.5 1.3.5 7.5.6l6.5.1v1.3c0 2.2.5 2-9.6 2.2-8.6 0-8.8.1-10 .6a9 9 0 0 0-3.6 3.5c-.6 1.1-.9 2.9-.9 5 0 1.5 0 1.6-.6 2.1-.4.3-1 1.1-1.3 1.8a4 4 0 0 0-.5 2.6c.4 5 6.3 7 9.5 3.3 1-1.1 1.3-2 1.3-3.6 0-1.7-.3-2.6-1.5-3.8-.9-1-.9-1-.9-2.8 0-3-.6-2.8 8.1-2.7l9-.2a7.2 7.2 0 0 0 5.8-3.6l.6-1v11c0 10.2 0 11-.4 11.9a4 4 0 0 1-7.2.4c-.5-.8-.6-1.2-.6-2.7 0-1.8 0-1.9.7-2.5.4-.3 1-1 1.2-1.7 2-4-1.7-8.6-6-7.6a5.6 5.6 0 0 0-2.6 9.4c.7.6.7.8.7 2.1 0 4.6 2.2 8.3 6 10 1.2.7 1.8.8 3.6.9 1.6 0 2.4 0 3.3-.3a9.8 9.8 0 0 0 5.6-4.3c1.5-2.5 1.5-2.2 1.5-17.2v-13.5h3.1v13c0 7.6 0 13.4.2 14.1.6 3.1 2.8 6 5.7 7.4 1.4.7 1.6.7 4.2.7 2.4 0 2.7 0 3.8-.6a10 10 0 0 0 6-9.6v-2l1-1c1.5-1.4 2-3.4 1.4-5.4a5.2 5.2 0 0 0-2.6-3.2c-1-.5-1.5-.6-2.7-.6-4.9 0-7.2 6-3.6 9.4.7.7.8.8.8 2.3 0 1.9-.5 3.1-1.6 4a4 4 0 0 1-6-1l-.6-1v-22.2l.7 1.2 1.8 1.8c2 1.4 2.1 1.4 11.2 1.5 4.6 0 8.5.1 8.8.2.6.1 1 1 1 2.8 0 1.6 0 1.7-.8 2.4a5 5 0 0 0-1.8 4c0 3.2 2.3 5.4 5.4 5.4 3.2 0 5.4-2.3 5.4-5.4 0-1.7-.3-2.5-1.6-3.9l-.8-.9-.1-2.5c-.1-2-.2-2.8-.6-3.6a8 8 0 0 0-3.6-3.7l-1.2-.6H507l-8.8-.1-.5-.6c-.3-.4-.4-1-.4-1.8v-1.1l6.4-.1c6 0 6.4-.1 7.4-.6a7.5 7.5 0 0 0 3.4-3.3l.6-1v-6.5c.2-5.7.2-6.5.5-6.7.3-.2 2-.3 6.9-.3h6.5l.4.7c.7 1 2.3 1.7 3.6 1.9 3.3.3 6-2.1 6-5.4 0-1.7-.6-3-1.8-4.1a5.3 5.3 0 0 0-7.3.1l-1 1h-7.4l-7.3.1-1.1.6c-.6.4-1.5 1.1-2 1.7-1.6 1.7-1.7 2.2-1.8 9.2 0 3.3-.1 6.2-.2 6.3 0 .3-1.2.3-4.7.3H500l1-.4a8.8 8.8 0 0 0 3.3-3.6l.6-1.2.1-13c.1-12.4.1-12.9.5-13.2.4-.2 1.1-.3 2.7-.3 2 0 2.2 0 2.6.5.8 1 2.3 1.7 3.8 1.9 2.6.2 4.9-1.4 5.6-3.8.4-1.4.4-1.8 0-3.3a5.2 5.2 0 0 0-5.2-3.8 5 5 0 0 0-4 1.7l-.6.8h-2.4c-4.3 0-6.6 1.2-8.1 4.4l-.8 1.5v12.8c-.2 12.4-.2 12.9-.6 13.2-.3.2-1.3.3-4.3.3h-3.8V194h.8a5 5 0 0 0 4-2.5c.3-.6.4-1.7.5-8.8 0-5.4 0-8.6-.2-9.6-.7-4-3.7-7.5-7.6-8.7-1.2-.3-2-.4-3.8-.3-2 0-2.4.1-4 .8-3 1.5-5.1 4-6 7.1-.3 1.3-.3 2.7-.3 9.8 0 8.8 0 9.2 1 10.6.6.8 2.4 1.6 3.5 1.6h.8V198.7h-4c-3.7 0-4 0-4.4-.5-.4-.4-.4-1-.5-13.4L470 172l-.6-1c-.7-1.6-2.1-3-3.7-3.7-1-.5-1.6-.6-4-.7-2.7 0-2.9 0-3.2-.6a5.5 5.5 0 0 0-6.7-1.3Z" fill="url(#paint92_linear)"/>
      <path class="c6" d="M21.8 165.6c-2.4 1.2-3.5 3.9-2.7 6.6.4 1.3 2.2 3.1 3.4 3.5 2 .6 4.2 0 5.5-1.3l.9-1h2.2c2 0 2.3.1 2.7.5.4.5.4 1.1.5 13.4l.2 13 .5 1c.7 1.4 2 2.8 3.3 3.5l.8.4h-4.4c-3.4 0-4.6 0-4.7-.3-.2-.1-.3-2.6-.4-6.7v-6.4l-.7-1.2c-.8-1.5-2-2.6-3.6-3.1-1-.4-1.7-.5-8.2-.5h-7l-.6-.7a5.5 5.5 0 1 0-6.2 8.7c2 1 4 .5 6-1.1l1.1-1.1h6.3c5.3 0 6.3 0 6.7.4.5.3.5.3.5 6.4 0 5.6 0 6.2.5 7.3.6 1.5 1.9 3 3.4 3.7 1.1.5 1.3.5 7.5.6l6.5.1v1.3c0 2.2.5 2-9.6 2.2-8.6 0-8.8.1-10 .6a9 9 0 0 0-3.6 3.5c-.6 1.1-.9 2.9-.9 5 0 1.5 0 1.6-.6 2.1-.4.3-1 1.1-1.3 1.8a4 4 0 0 0-.5 2.6c.4 5 6.3 7 9.5 3.3 1-1.1 1.3-2 1.3-3.6 0-1.7-.3-2.6-1.5-3.8-.9-1-.9-1-.9-2.8 0-3-.6-2.8 8.1-2.7l9-.2a7.2 7.2 0 0 0 5.8-3.6l.6-1v11c0 10.2 0 11-.4 11.9a4 4 0 0 1-7.2.4c-.5-.8-.6-1.2-.6-2.7 0-1.8 0-1.9.7-2.5.4-.3 1-1 1.2-1.7 2-4-1.7-8.6-6-7.6a5.6 5.6 0 0 0-2.6 9.4c.7.6.7.8.7 2.1 0 4.6 2.2 8.3 6 10 1.2.7 1.8.8 3.6.9 1.6 0 2.4 0 3.3-.3a9.8 9.8 0 0 0 5.6-4.3c1.5-2.5 1.5-2.2 1.5-17.2v-13.5H56v13c0 7.6 0 13.4.2 14.1.6 3.1 2.8 6 5.7 7.4 1.4.7 1.6.7 4.2.7 2.4 0 2.7 0 3.8-.6a10 10 0 0 0 6-9.6v-2l1-1c1.5-1.4 2-3.4 1.4-5.4a5.2 5.2 0 0 0-2.6-3.2c-1-.5-1.5-.6-2.7-.6-4.9 0-7.2 6-3.6 9.4.7.7.8.8.8 2.3 0 1.9-.5 3.1-1.5 4a4 4 0 0 1-6.2-1l-.5-1v-22.2l.7 1.2 1.8 1.8c2 1.4 2.1 1.4 11.2 1.5 4.6 0 8.5.1 8.8.2.6.1 1 1 1 2.8 0 1.6 0 1.7-.8 2.4a5 5 0 0 0-1.8 4c0 3.2 2.3 5.4 5.4 5.4 3.2 0 5.4-2.3 5.4-5.4 0-1.7-.3-2.6-1.6-3.9l-.8-.9-.1-2.5c-.1-2-.2-2.8-.6-3.6a8 8 0 0 0-3.6-3.7L86 215H77l-8.8-.1-.5-.6c-.3-.4-.4-1-.4-1.8v-1.2h6.4c6 0 6.4-.1 7.4-.6a7.5 7.5 0 0 0 3.4-3.3l.6-1v-6.5c.2-5.7.2-6.5.5-6.7.3-.2 2-.3 6.9-.3H99l.4.7c.7 1 2.3 1.7 3.6 1.9 3.3.3 6-2.1 6-5.4 0-1.7-.6-3-1.8-4.1a5.3 5.3 0 0 0-7.3.1l-1 1h-7.4l-7.3.1-1.1.6c-.6.4-1.5 1.1-2 1.7-1.6 1.7-1.7 2.2-1.8 9.2 0 3.3-.1 6.2-.2 6.3 0 .3-1.2.3-4.7.3H70l1-.4a8.8 8.8 0 0 0 3.3-3.6l.6-1.2.1-13c.1-12.4.1-12.9.5-13.2.4-.2 1.1-.3 2.7-.3 2 0 2.2 0 2.6.5.8 1 2.3 1.7 3.8 1.9 2.6.2 4.9-1.4 5.6-3.8.4-1.4.4-1.8 0-3.3a5.2 5.2 0 0 0-5.2-3.8 5 5 0 0 0-4 1.7l-.6.8h-2.4c-4.3 0-6.6 1.2-8.1 4.4l-.8 1.5v12.8c-.2 12.4-.2 12.9-.6 13.2-.3.2-1.3.3-4.3.3h-3.8V195h.8a5 5 0 0 0 4-2.5c.3-.6.4-1.7.5-8.8 0-5.4 0-8.6-.2-9.6-.7-4-3.7-7.5-7.6-8.7-1.2-.3-2-.4-3.8-.3-2 0-2.4.1-4 .8-3 1.5-5.1 4-6 7.1-.3 1.3-.3 2.7-.3 9.8 0 8.8 0 9.2 1 10.6.6.8 2.3 1.6 3.5 1.6h.8V199.7h-4c-3.7 0-4 0-4.4-.5-.4-.4-.4-1-.5-13.4L40 173l-.6-1c-.7-1.6-2.1-3-3.7-3.7-1-.5-1.6-.6-4-.7-2.7 0-2.9 0-3.2-.6a5.5 5.5 0 0 0-6.7-1.3Z" fill="url(#paint93_linear)"/>
    </g>
    <path fill-rule="evenodd" clip-rule="evenodd" d="M81 633h378V424.3c-14.5 1.2-29.4 6-44.5 15l-10.9 6.6C278 522 276.8 522.7 151 439.3a96.6 96.6 0 0 0-69.9-15V633Z" fill="url(#paint94_linear)" fill-opacity=".5"/>
    <path fill-rule="evenodd" clip-rule="evenodd" d="M81 630h378V462.6c-41.4-37.3-90.8-57.6-142.5-26.3l-10.9 6.6C190.1 513 179.8 519.1 81 455V630Z" fill="url(#paint95_linear)"/>
    <g class="coins">
      <g class="coin-10">
        <g filter="url(#filter0)" >
          <circle cx="269.5" cy="505.5" r="16.5" fill="#00F0FF" fill-opacity=".2"/>
          <circle cx="269.5" cy="505.5" r="15.5" stroke="#00F0FF" stroke-width="2"/>
        </g>
        <g filter="url(#filter1_d)">
          <path d="M274.6 506c0 1 0 2-.3 3-.2.8-.5 1.6-1 2.2-.4.6-1 1.1-1.6 1.5-.6.3-1.4.5-2.3.5a4.1 4.1 0 0 1-3.6-1.7c-.4-.6-.8-1.4-1-2.3a13 13 0 0 1 0-6.2 7 7 0 0 1 1-2.2 4.5 4.5 0 0 1 3.9-2c.7 0 1.4.1 2 .4a4 4 0 0 1 1.6 1.3c.4.6.8 1.3 1 2.3.2.9.3 2 .3 3.2Zm-1.8 0a8.1 8.1 0 0 0-.1-1.4l-6 4.4.4 1 .6.9.8.5 1 .2c.5 0 1-.1 1.4-.4a3 3 0 0 0 1-1c.3-.5.5-1 .6-1.7.2-.7.3-1.5.3-2.4Zm-6.5 0v1.2l6-4.4a5 5 0 0 0-.4-1 3 3 0 0 0-.6-.7 2.5 2.5 0 0 0-1.8-.7c-.4 0-.9 0-1.3.3a3 3 0 0 0-1 1c-.3.6-.5 1.1-.6 1.8-.2.7-.3 1.5-.3 2.4Z" fill="#00F0FF"/>
        </g>
      </g>
      <g class="coin-9">
        <g filter="url(#filter2)" >
          <circle cx="269.5" cy="505.5" r="16.5" fill="#00F0FF" fill-opacity=".2"/>
          <circle cx="269.5" cy="505.5" r="15.5" stroke="#00F0FF" stroke-width="2"/>
        </g>
        <g filter="url(#filter3_d)">
          <path d="M274.6 506c0 1 0 2-.3 3-.2.8-.5 1.6-1 2.2-.4.6-1 1.1-1.6 1.5-.6.3-1.4.5-2.3.5a4.1 4.1 0 0 1-3.6-1.7c-.4-.6-.8-1.4-1-2.3a13 13 0 0 1 0-6.2 7 7 0 0 1 1-2.2 4.5 4.5 0 0 1 3.9-2c.7 0 1.4.1 2 .4a4 4 0 0 1 1.6 1.3c.4.6.8 1.3 1 2.3.2.9.3 2 .3 3.2Zm-1.8 0a8.1 8.1 0 0 0-.1-1.4l-6 4.4.4 1 .6.9.8.5 1 .2c.5 0 1-.1 1.4-.4a3 3 0 0 0 1-1c.3-.5.5-1 .6-1.7.2-.7.3-1.5.3-2.4Zm-6.5 0v1.2l6-4.4a5 5 0 0 0-.4-1 3 3 0 0 0-.6-.7 2.5 2.5 0 0 0-1.8-.7c-.4 0-.9 0-1.3.3a3 3 0 0 0-1 1c-.3.6-.5 1.1-.6 1.8-.2.7-.3 1.5-.3 2.4Z" fill="#00F0FF"/>
        </g>
      </g>
      <g class="coin-8">
        <g  filter="url(#filter4)" >
          <circle cx="269.5" cy="505.5" r="16.5" fill="#00F0FF" fill-opacity=".2"/>
          <circle cx="269.5" cy="505.5" r="15.5" stroke="#00F0FF" stroke-width="2"/>
        </g>
        <g  filter="url(#filter5_d)">
          <path d="M274.6 506c0 1 0 2-.3 3-.2.8-.5 1.6-1 2.2-.4.6-1 1.1-1.6 1.5-.6.3-1.4.5-2.3.5a4.1 4.1 0 0 1-3.6-1.7c-.4-.6-.8-1.4-1-2.3a13 13 0 0 1 0-6.2 7 7 0 0 1 1-2.2 4.5 4.5 0 0 1 3.9-2c.7 0 1.4.1 2 .4a4 4 0 0 1 1.6 1.3c.4.6.8 1.3 1 2.3.2.9.3 2 .3 3.2Zm-1.8 0a8.1 8.1 0 0 0-.1-1.4l-6 4.4.4 1 .6.9.8.5 1 .2c.5 0 1-.1 1.4-.4a3 3 0 0 0 1-1c.3-.5.5-1 .6-1.7.2-.7.3-1.5.3-2.4Zm-6.5 0v1.2l6-4.4a5 5 0 0 0-.4-1 3 3 0 0 0-.6-.7 2.5 2.5 0 0 0-1.8-.7c-.4 0-.9 0-1.3.3a3 3 0 0 0-1 1c-.3.6-.5 1.1-.6 1.8-.2.7-.3 1.5-.3 2.4Z" fill="#00F0FF"/>
        </g>
      </g>
      <g class="coin-7">
        <g filter="url(#filter6)" >
          <circle cx="269.5" cy="505.5" r="16.5" fill="#00F0FF" fill-opacity=".2"/>
          <circle cx="269.5" cy="505.5" r="15.5" stroke="#00F0FF" stroke-width="2"/>
        </g>
        <g filter="url(#filter7_d)">
          <path d="M274.6 506c0 1 0 2-.3 3-.2.8-.5 1.6-1 2.2-.4.6-1 1.1-1.6 1.5-.6.3-1.4.5-2.3.5a4.1 4.1 0 0 1-3.6-1.7c-.4-.6-.8-1.4-1-2.3a13 13 0 0 1 0-6.2 7 7 0 0 1 1-2.2 4.5 4.5 0 0 1 3.9-2c.7 0 1.4.1 2 .4a4 4 0 0 1 1.6 1.3c.4.6.8 1.3 1 2.3.2.9.3 2 .3 3.2Zm-1.8 0a8.1 8.1 0 0 0-.1-1.4l-6 4.4.4 1 .6.9.8.5 1 .2c.5 0 1-.1 1.4-.4a3 3 0 0 0 1-1c.3-.5.5-1 .6-1.7.2-.7.3-1.5.3-2.4Zm-6.5 0v1.2l6-4.4a5 5 0 0 0-.4-1 3 3 0 0 0-.6-.7 2.5 2.5 0 0 0-1.8-.7c-.4 0-.9 0-1.3.3a3 3 0 0 0-1 1c-.3.6-.5 1.1-.6 1.8-.2.7-.3 1.5-.3 2.4Z" fill="#00F0FF"/>
        </g>
      </g>
      <g class="coin-6">
        <g  filter="url(#filter8)" >
          <circle cx="269.5" cy="505.5" r="16.5" fill="#00F0FF" fill-opacity=".2"/>
          <circle cx="269.5" cy="505.5" r="15.5" stroke="#00F0FF" stroke-width="2"/>
        </g>
        <g filter="url(#filter9_d)">
          <path d="M274.6 506c0 1 0 2-.3 3-.2.8-.5 1.6-1 2.2-.4.6-1 1.1-1.6 1.5-.6.3-1.4.5-2.3.5a4.1 4.1 0 0 1-3.6-1.7c-.4-.6-.8-1.4-1-2.3a13 13 0 0 1 0-6.2 7 7 0 0 1 1-2.2 4.5 4.5 0 0 1 3.9-2c.7 0 1.4.1 2 .4a4 4 0 0 1 1.6 1.3c.4.6.8 1.3 1 2.3.2.9.3 2 .3 3.2Zm-1.8 0a8.1 8.1 0 0 0-.1-1.4l-6 4.4.4 1 .6.9.8.5 1 .2c.5 0 1-.1 1.4-.4a3 3 0 0 0 1-1c.3-.5.5-1 .6-1.7.2-.7.3-1.5.3-2.4Zm-6.5 0v1.2l6-4.4a5 5 0 0 0-.4-1 3 3 0 0 0-.6-.7 2.5 2.5 0 0 0-1.8-.7c-.4 0-.9 0-1.3.3a3 3 0 0 0-1 1c-.3.6-.5 1.1-.6 1.8-.2.7-.3 1.5-.3 2.4Z" fill="#00F0FF"/>
        </g>
      </g>
      <g class="coin-5">
        <g filter="url(#filter10)" >
          <circle cx="269.5" cy="505.5" r="16.5" fill="#00F0FF" fill-opacity=".2"/>
          <circle cx="269.5" cy="505.5" r="15.5" stroke="#00F0FF" stroke-width="2"/>
        </g>
        <g filter="url(#filter11_d)">
          <path d="M274.6 506c0 1 0 2-.3 3-.2.8-.5 1.6-1 2.2-.4.6-1 1.1-1.6 1.5-.6.3-1.4.5-2.3.5a4.1 4.1 0 0 1-3.6-1.7c-.4-.6-.8-1.4-1-2.3a13 13 0 0 1 0-6.2 7 7 0 0 1 1-2.2 4.5 4.5 0 0 1 3.9-2c.7 0 1.4.1 2 .4a4 4 0 0 1 1.6 1.3c.4.6.8 1.3 1 2.3.2.9.3 2 .3 3.2Zm-1.8 0a8.1 8.1 0 0 0-.1-1.4l-6 4.4.4 1 .6.9.8.5 1 .2c.5 0 1-.1 1.4-.4a3 3 0 0 0 1-1c.3-.5.5-1 .6-1.7.2-.7.3-1.5.3-2.4Zm-6.5 0v1.2l6-4.4a5 5 0 0 0-.4-1 3 3 0 0 0-.6-.7 2.5 2.5 0 0 0-1.8-.7c-.4 0-.9 0-1.3.3a3 3 0 0 0-1 1c-.3.6-.5 1.1-.6 1.8-.2.7-.3 1.5-.3 2.4Z" fill="#00F0FF"/>
        </g>
      </g>
      <g class="coin-4">
        <g  filter="url(#filter12)" >
          <circle cx="269.5" cy="505.5" r="16.5" fill="#00F0FF" fill-opacity=".2"/>
          <circle cx="269.5" cy="505.5" r="15.5" stroke="#00F0FF" stroke-width="2"/>
        </g>
        <g  filter="url(#filter13_d)">
          <path d="M274.6 506c0 1 0 2-.3 3-.2.8-.5 1.6-1 2.2-.4.6-1 1.1-1.6 1.5-.6.3-1.4.5-2.3.5a4.1 4.1 0 0 1-3.6-1.7c-.4-.6-.8-1.4-1-2.3a13 13 0 0 1 0-6.2 7 7 0 0 1 1-2.2 4.5 4.5 0 0 1 3.9-2c.7 0 1.4.1 2 .4a4 4 0 0 1 1.6 1.3c.4.6.8 1.3 1 2.3.2.9.3 2 .3 3.2Zm-1.8 0a8.1 8.1 0 0 0-.1-1.4l-6 4.4.4 1 .6.9.8.5 1 .2c.5 0 1-.1 1.4-.4a3 3 0 0 0 1-1c.3-.5.5-1 .6-1.7.2-.7.3-1.5.3-2.4Zm-6.5 0v1.2l6-4.4a5 5 0 0 0-.4-1 3 3 0 0 0-.6-.7 2.5 2.5 0 0 0-1.8-.7c-.4 0-.9 0-1.3.3a3 3 0 0 0-1 1c-.3.6-.5 1.1-.6 1.8-.2.7-.3 1.5-.3 2.4Z" fill="#00F0FF"/>
        </g>
      </g>
      <g class="coin-3">
        <g filter="url(#filter14)" >
          <circle cx="269.5" cy="505.5" r="16.5" fill="#00F0FF" fill-opacity=".2"/>
          <circle cx="269.5" cy="505.5" r="15.5" stroke="#00F0FF" stroke-width="2"/>
        </g>
        <g  filter="url(#filter15_d)">
          <path d="M274.6 506c0 1 0 2-.3 3-.2.8-.5 1.6-1 2.2-.4.6-1 1.1-1.6 1.5-.6.3-1.4.5-2.3.5a4.1 4.1 0 0 1-3.6-1.7c-.4-.6-.8-1.4-1-2.3a13 13 0 0 1 0-6.2 7 7 0 0 1 1-2.2 4.5 4.5 0 0 1 3.9-2c.7 0 1.4.1 2 .4a4 4 0 0 1 1.6 1.3c.4.6.8 1.3 1 2.3.2.9.3 2 .3 3.2Zm-1.8 0a8.1 8.1 0 0 0-.1-1.4l-6 4.4.4 1 .6.9.8.5 1 .2c.5 0 1-.1 1.4-.4a3 3 0 0 0 1-1c.3-.5.5-1 .6-1.7.2-.7.3-1.5.3-2.4Zm-6.5 0v1.2l6-4.4a5 5 0 0 0-.4-1 3 3 0 0 0-.6-.7 2.5 2.5 0 0 0-1.8-.7c-.4 0-.9 0-1.3.3a3 3 0 0 0-1 1c-.3.6-.5 1.1-.6 1.8-.2.7-.3 1.5-.3 2.4Z" fill="#00F0FF"/>
        </g>
      </g>
      <g class="coin-2">
        <g filter="url(#filter16)" >
          <circle cx="269.5" cy="505.5" r="16.5" fill="#00F0FF" fill-opacity=".2"/>
          <circle cx="269.5" cy="505.5" r="15.5" stroke="#00F0FF" stroke-width="2"/>
        </g>
        <g filter="url(#filter17_d)">
          <path d="M274.6 506c0 1 0 2-.3 3-.2.8-.5 1.6-1 2.2-.4.6-1 1.1-1.6 1.5-.6.3-1.4.5-2.3.5a4.1 4.1 0 0 1-3.6-1.7c-.4-.6-.8-1.4-1-2.3a13 13 0 0 1 0-6.2 7 7 0 0 1 1-2.2 4.5 4.5 0 0 1 3.9-2c.7 0 1.4.1 2 .4a4 4 0 0 1 1.6 1.3c.4.6.8 1.3 1 2.3.2.9.3 2 .3 3.2Zm-1.8 0a8.1 8.1 0 0 0-.1-1.4l-6 4.4.4 1 .6.9.8.5 1 .2c.5 0 1-.1 1.4-.4a3 3 0 0 0 1-1c.3-.5.5-1 .6-1.7.2-.7.3-1.5.3-2.4Zm-6.5 0v1.2l6-4.4a5 5 0 0 0-.4-1 3 3 0 0 0-.6-.7 2.5 2.5 0 0 0-1.8-.7c-.4 0-.9 0-1.3.3a3 3 0 0 0-1 1c-.3.6-.5 1.1-.6 1.8-.2.7-.3 1.5-.3 2.4Z" fill="#00F0FF"/>
        </g>
      </g>
      <g class="coin-1">
        <g filter="url(#filter18)" >
          <circle cx="269.5" cy="505.5" r="16.5" fill="#00F0FF" fill-opacity=".2"/>
          <circle cx="269.5" cy="505.5" r="15.5" stroke="#00F0FF" stroke-width="2"/>
        </g>
        <g filter="url(#filter19_d)">
          <path d="M274.6 506c0 1 0 2-.3 3-.2.8-.5 1.6-1 2.2-.4.6-1 1.1-1.6 1.5-.6.3-1.4.5-2.3.5a4.1 4.1 0 0 1-3.6-1.7c-.4-.6-.8-1.4-1-2.3a13 13 0 0 1 0-6.2 7 7 0 0 1 1-2.2 4.5 4.5 0 0 1 3.9-2c.7 0 1.4.1 2 .4a4 4 0 0 1 1.6 1.3c.4.6.8 1.3 1 2.3.2.9.3 2 .3 3.2Zm-1.8 0a8.1 8.1 0 0 0-.1-1.4l-6 4.4.4 1 .6.9.8.5 1 .2c.5 0 1-.1 1.4-.4a3 3 0 0 0 1-1c.3-.5.5-1 .6-1.7.2-.7.3-1.5.3-2.4Zm-6.5 0v1.2l6-4.4a5 5 0 0 0-.4-1 3 3 0 0 0-.6-.7 2.5 2.5 0 0 0-1.8-.7c-.4 0-.9 0-1.3.3a3 3 0 0 0-1 1c-.3.6-.5 1.1-.6 1.8-.2.7-.3 1.5-.3 2.4Z" fill="#00F0FF"/>
        </g>
      </g>
    </g>
    <g class="hill-clam">
      <path  d="m248.3 551 20.8 8.5 4.8-2.4 8-1.6 8.2-2.3 4.1-6.5 1.1-5.2 17.3-12.2 5.2-7.6-1.3-10.6 1.1-9.6 1.1-9.7-8.5-7.3-2.7-9-9.2-4.5-5.8-2.4-9.9-6-12.3 1.6-7.5-1.8h-6.2l-8.3 7.1h-6.5l-6.9 4-3.5 8.6-6.9 4.4-2.8 6.5 2.6 12.1-1.7 3-1.1 8.3 3.7 9 10.9 8.7 6.1 5.2 6 11.8Z" fill="url(#paint96_linear)"/>
      <path d="M258.3 461c-1.7.2-4 1-5.5 1.8-1.7 1-3.8 2.8-4.9 4.4l-.8 1.1h-2.2c-2.8 0-5 .4-7.5 1.7-4 1.9-6.4 5.3-7.2 10l-.2 1.5-1.2.4c-2.6.9-5.6 3.3-7 5.6a12 12 0 0 0-1.6 6.6c0 3.3.6 6.2 2 9.3l.6 1.6-.4.8a19.1 19.1 0 0 0-1.7 15.4 16.1 16.1 0 0 0 7.2 9c2.1 1.3 6.4 4.4 8 5.7l3.4 3 2.6 2.2.2 1.6c.5 3.2 1.7 5.9 3.9 8.3a15 15 0 0 0 11.1 5h1.9l2 1.4c3.1 2.2 6.3 3.6 8.2 3.6 2 0 4.7-1 8-3.1l2.4-1.5h1.8a14.9 14.9 0 0 0 15.4-12.7l.3-1.7 2.1-1.7c3.5-2.8 8-6 11-7.8 3.9-2.5 4.7-3.1 6-4.7 1.3-1.6 2.3-3.6 3-5.9.4-1.5.5-2.1.5-5 0-3 0-3.5-.5-5.2l-1.3-3.3-.7-1.5.6-1.3c2-4.2 2.8-9 2.1-12.6a15 15 0 0 0-1-3 14.2 14.2 0 0 0-7.5-6.5c-.7-.3-.7-.3-.8-1.5-.3-2.9-1.6-5.9-3.5-8-2.6-3-7.7-5-12-4.7-1 .1-1.2 0-1.3-.3 0-.3-.7-1.1-1.3-2-2.4-3.1-5.7-5-10-5.6a18.8 18.8 0 0 0-11.8 2.2l-1.1-.6a18.9 18.9 0 0 0-11.3-2Zm6.7 3.5 2.5 1 1.5.8-.6 40c-.3 22-.6 40-.7 39.9l-18-75.6c.1-1.2 3-4.2 5.2-5.2 2-1.1 3.8-1.4 6.6-1.3 1.4 0 3 .3 3.5.4Zm18.3.3c3 .7 6.2 3 7.7 5.5l.6 1-10.2 37.2-10.2 37.5.5-39.6.6-39.9.9-.5c2.6-1.5 6.8-2 10.1-1.2Zm-36.7 6.8 17.6 73.7a3428.5 3428.5 0 0 1-31-63.5c0-1 .8-3.7 1.5-5 1.3-2.5 4.5-4.7 7.6-5.2 1.4-.2 4.1-.2 4.3 0Zm52.8 1.2c4.2 1.2 7 4.2 8 8.5l.2 2a3819.3 3819.3 0 0 1-32.9 62.1s19.7-72.6 19.9-72.9c.1-.2 3.6 0 4.8.3Zm-55.1 39.4 15.3 31.3 1.6 3.5-34.6-42.1c-2-2.5-3.3-7.1-3.3-10.9a9 9 0 0 1 4.3-8c1.2-.7 3-1.5 3.2-1.3l13.5 27.5Zm68-24.6c1.3.8 2.8 2.5 3.5 3.9 1.6 3.5 1 8.4-1.7 13.6l-1.3 2.5-17.4 19.7c-9.5 10.8-17.5 19.9-17.8 20l2-3.8 15.8-29.8 14.1-26.4.5-.9.8.4c.4.1 1 .5 1.5.8Zm-67.9 44c21 25.6 19.7 24 19.2 23.8-1.7-1-6.7-5.3-14.4-12.2-10.4-9.4-13.6-12-20.4-16.6-3-2-4.2-3.5-5.2-6.8-.4-1.4-.5-1.9-.5-4.7 0-3.3.2-4.2 1.3-6.4.4-.9.4-.9.7-.5.2.2 9 10.8 19.3 23.5Zm71.5-19.4c1.1 3.8.5 9-1.4 12.2a14 14 0 0 1-5 4.5 203 203 0 0 0-21.7 16.5l-8.2 6.7a25.1 25.1 0 0 1-4.4 3 2813.8 2813.8 0 0 1 40-44.7l.7 1.8ZM293 545.7a12 12 0 0 1-8.5 7.3l-.8.1.8-.7 8.6-7.2-.1.5Zm-38.7 6.5c.5.6-1 .1-2.8-.8a12 12 0 0 1-5.8-6.7l8.6 7.5Z" fill="url(#paint97_linear)"/>
    </g>
    <path  fill-rule="evenodd" clip-rule="evenodd" d="M81 633h378V501.6c-16.6.2-33.7 3.1-51 9.7l-10.9 4v.1c-126.4 47.8-127.7 48.3-254.3-4.1-19.8-8.2-40.6-11.1-61.8-10.1V633Z" fill="url(#paint22_radial)"/>
  </g>
  <defs>
    <linearGradient id="paint76_linear" x1="110.5" y1="82" x2="455.2" y2="82" gradientUnits="userSpaceOnUse">
      <stop stop-color="#0B14EC"/>
      <stop offset=".6" stop-color="#00F0FF"/>
    </linearGradient>
    <linearGradient id="paint77_linear" x1="27.5" y1="41" x2="372.2" y2="41" gradientUnits="userSpaceOnUse">
      <stop stop-color="#0B14EC"/>
      <stop offset=".6" stop-color="#00F0FF"/>
    </linearGradient>
    <linearGradient id="paint78_linear" x1="208.5" y1="82" x2="553.2" y2="82" gradientUnits="userSpaceOnUse">
      <stop stop-color="#0B14EC"/>
      <stop offset=".6" stop-color="#00F0FF"/>
    </linearGradient>
    <linearGradient id="paint79_linear" x1="291.5" y1="41" x2="636.2" y2="41" gradientUnits="userSpaceOnUse">
      <stop stop-color="#0B14EC"/>
      <stop offset=".6" stop-color="#00F0FF"/>
    </linearGradient>
    <linearGradient id="paint80_linear" x1="374.5" y1="0" x2="719.2" y2="0" gradientUnits="userSpaceOnUse">
      <stop stop-color="#0B14EC"/>
      <stop offset=".6" stop-color="#00F0FF"/>
    </linearGradient>
    <linearGradient id="paint81_linear" x1="-55.5" y1="0" x2="289.2" y2="0" gradientUnits="userSpaceOnUse">
      <stop stop-color="#0B14EC"/>
      <stop offset=".6" stop-color="#00F0FF"/>
    </linearGradient>
    <linearGradient id="paint82_linear" x1="27.5" y1="123" x2="372.2" y2="123" gradientUnits="userSpaceOnUse">
      <stop stop-color="#0B14EC"/>
      <stop offset=".6" stop-color="#00F0FF"/>
    </linearGradient>
    <linearGradient id="paint83_linear" x1="110.5" y1="164" x2="455.2" y2="164" gradientUnits="userSpaceOnUse">
      <stop stop-color="#0B14EC"/>
      <stop offset=".6" stop-color="#00F0FF"/>
    </linearGradient>
    <linearGradient id="paint84_linear" x1="208.5" y1="164" x2="553.2" y2="164" gradientUnits="userSpaceOnUse">
      <stop stop-color="#0B14EC"/>
      <stop offset=".6" stop-color="#00F0FF"/>
    </linearGradient>
    <linearGradient id="paint85_linear" x1="291.5" y1="123" x2="636.2" y2="123" gradientUnits="userSpaceOnUse">
      <stop stop-color="#0B14EC"/>
      <stop offset=".6" stop-color="#00F0FF"/>
    </linearGradient>
    <linearGradient id="paint86_linear" x1="374.5" y1="82" x2="719.2" y2="82" gradientUnits="userSpaceOnUse">
      <stop stop-color="#0B14EC"/>
      <stop offset=".6" stop-color="#00F0FF"/>
    </linearGradient>
    <linearGradient id="paint87_linear" x1="-55.5" y1="83" x2="289.2" y2="83" gradientUnits="userSpaceOnUse">
      <stop stop-color="#0B14EC"/>
      <stop offset=".6" stop-color="#00F0FF"/>
    </linearGradient>
    <linearGradient id="paint88_linear" x1="110.5" y1="246" x2="455.2" y2="246" gradientUnits="userSpaceOnUse">
      <stop stop-color="#0B14EC"/>
      <stop offset=".6" stop-color="#00F0FF"/>
    </linearGradient>
    <linearGradient id="paint89_linear" x1="27.5" y1="205" x2="372.2" y2="205" gradientUnits="userSpaceOnUse">
      <stop stop-color="#0B14EC"/>
      <stop offset=".6" stop-color="#00F0FF"/>
    </linearGradient>
    <linearGradient id="paint90_linear" x1="208.5" y1="246" x2="553.2" y2="246" gradientUnits="userSpaceOnUse">
      <stop stop-color="#0B14EC"/>
      <stop offset=".6" stop-color="#00F0FF"/>
    </linearGradient>
    <linearGradient id="paint91_linear" x1="291.5" y1="205" x2="636.2" y2="205" gradientUnits="userSpaceOnUse">
      <stop stop-color="#0B14EC"/>
      <stop offset=".6" stop-color="#00F0FF"/>
    </linearGradient>
    <linearGradient id="paint92_linear" x1="374.5" y1="164" x2="719.2" y2="164" gradientUnits="userSpaceOnUse">
      <stop stop-color="#0B14EC"/>
      <stop offset=".6" stop-color="#00F0FF"/>
    </linearGradient>
    <linearGradient id="paint93_linear" x1="-55.5" y1="165" x2="289.2" y2="165" gradientUnits="userSpaceOnUse">
      <stop stop-color="#0B14EC"/>
      <stop offset=".6" stop-color="#00F0FF"/>
    </linearGradient>
    <linearGradient id="paint94_linear" x1="258" y1="423" x2="258" y2="633" gradientUnits="userSpaceOnUse">
      <stop stop-color="#00F0FF"/>
      <stop offset="1" stop-color="#1C1E51"/>
    </linearGradient>
    <linearGradient id="paint95_linear" x1="160" y1="420" x2="160" y2="630" gradientUnits="userSpaceOnUse">
      <stop stop-color="#00F0FF"/>
      <stop offset="1" stop-color="#1C1E51"/>
    </linearGradient>
    <linearGradient id="paint96_linear" x1="270.5" y1="462.5" x2="269.6" y2="559.5" gradientUnits="userSpaceOnUse">
      <stop stop-color="#1C1E51"/>
      <stop offset="1" stop-color="#0B14EC"/>
    </linearGradient>
    <linearGradient id="paint97_linear" x1="269.1" y1="561" x2="271.2" y2="461.1" gradientUnits="userSpaceOnUse">
      <stop stop-color="#1C1E51"/>
      <stop offset="1" stop-color="#0B14EC"/>
    </linearGradient>
    <filter id="filter0" x="249" y="485" width="41" height="41" filterUnits="userSpaceOnUse" color-interpolation-filters="sRGB">
      <feFlood flood-opacity="0" result="BackgroundImageFix"/>
      <feColorMatrix in="SourceAlpha" values="0 0 0 0 0 0 0 0 0 0 0 0 0 0 0 0 0 0 127 0" result="hardAlpha"/>
      <feOffset/>
      <feGaussianBlur stdDeviation="2"/>
      <feComposite in2="hardAlpha" operator="out"/>
      <feColorMatrix values="0 0 0 0 0 0 0 0 0 0.94 0 0 0 0 1 0 0 0 1 0"/>
      <feBlend in2="BackgroundImageFix" result="effect1_dropShadow"/>
      <feBlend in="SourceGraphic" in2="effect1_dropShadow" result="shape"/>
      <feColorMatrix in="SourceAlpha" values="0 0 0 0 0 0 0 0 0 0 0 0 0 0 0 0 0 0 127 0" result="hardAlpha"/>
      <feOffset/>
      <feGaussianBlur stdDeviation="2"/>
      <feComposite in2="hardAlpha" operator="arithmetic" k2="-1" k3="1"/>
      <feColorMatrix values="0 0 0 0 0 0 0 0 0 0 0 0 0 0 0 0 0 0 0.25 0"/>
      <feBlend in2="shape" result="effect2_innerShadow"/>
    </filter>
    <filter id="filter1" x="260.4" y="494.8" width="18.2" height="22.4" filterUnits="userSpaceOnUse" color-interpolation-filters="sRGB">
      <feFlood flood-opacity="0" result="BackgroundImageFix"/>
      <feColorMatrix in="SourceAlpha" values="0 0 0 0 0 0 0 0 0 0 0 0 0 0 0 0 0 0 127 0" result="hardAlpha"/>
      <feOffset/>
      <feGaussianBlur stdDeviation="2"/>
      <feComposite in2="hardAlpha" operator="out"/>
      <feColorMatrix values="0 0 0 0 0 0 0 0 0 0.94 0 0 0 0 1 0 0 0 1 0"/>
      <feBlend in2="BackgroundImageFix" result="effect1_dropShadow"/>
      <feBlend in="SourceGraphic" in2="effect1_dropShadow" result="shape"/>
    </filter>
    <filter id="filter2" x="249" y="485" width="41" height="41" filterUnits="userSpaceOnUse" color-interpolation-filters="sRGB">
      <feFlood flood-opacity="0" result="BackgroundImageFix"/>
      <feColorMatrix in="SourceAlpha" values="0 0 0 0 0 0 0 0 0 0 0 0 0 0 0 0 0 0 127 0" result="hardAlpha"/>
      <feOffset/>
      <feGaussianBlur stdDeviation="2"/>
      <feComposite in2="hardAlpha" operator="out"/>
      <feColorMatrix values="0 0 0 0 0 0 0 0 0 0.94 0 0 0 0 1 0 0 0 1 0"/>
      <feBlend in2="BackgroundImageFix" result="effect1_dropShadow"/>
      <feBlend in="SourceGraphic" in2="effect1_dropShadow" result="shape"/>
      <feColorMatrix in="SourceAlpha" values="0 0 0 0 0 0 0 0 0 0 0 0 0 0 0 0 0 0 127 0" result="hardAlpha"/>
      <feOffset/>
      <feGaussianBlur stdDeviation="2"/>
      <feComposite in2="hardAlpha" operator="arithmetic" k2="-1" k3="1"/>
      <feColorMatrix values="0 0 0 0 0 0 0 0 0 0 0 0 0 0 0 0 0 0 0.25 0"/>
      <feBlend in2="shape" result="effect2_innerShadow"/>
    </filter>
    <filter id="filter3" x="260.4" y="494.8" width="18.2" height="22.4" filterUnits="userSpaceOnUse" color-interpolation-filters="sRGB">
      <feFlood flood-opacity="0" result="BackgroundImageFix"/>
      <feColorMatrix in="SourceAlpha" values="0 0 0 0 0 0 0 0 0 0 0 0 0 0 0 0 0 0 127 0" result="hardAlpha"/>
      <feOffset/>
      <feGaussianBlur stdDeviation="2"/>
      <feComposite in2="hardAlpha" operator="out"/>
      <feColorMatrix values="0 0 0 0 0 0 0 0 0 0.94 0 0 0 0 1 0 0 0 1 0"/>
      <feBlend in2="BackgroundImageFix" result="effect1_dropShadow"/>
      <feBlend in="SourceGraphic" in2="effect1_dropShadow" result="shape"/>
    </filter>
    <filter id="filter4" x="249" y="485" width="41" height="41" filterUnits="userSpaceOnUse" color-interpolation-filters="sRGB">
      <feFlood flood-opacity="0" result="BackgroundImageFix"/>
      <feColorMatrix in="SourceAlpha" values="0 0 0 0 0 0 0 0 0 0 0 0 0 0 0 0 0 0 127 0" result="hardAlpha"/>
      <feOffset/>
      <feGaussianBlur stdDeviation="2"/>
      <feComposite in2="hardAlpha" operator="out"/>
      <feColorMatrix values="0 0 0 0 0 0 0 0 0 0.94 0 0 0 0 1 0 0 0 1 0"/>
      <feBlend in2="BackgroundImageFix" result="effect1_dropShadow"/>
      <feBlend in="SourceGraphic" in2="effect1_dropShadow" result="shape"/>
      <feColorMatrix in="SourceAlpha" values="0 0 0 0 0 0 0 0 0 0 0 0 0 0 0 0 0 0 127 0" result="hardAlpha"/>
      <feOffset/>
      <feGaussianBlur stdDeviation="2"/>
      <feComposite in2="hardAlpha" operator="arithmetic" k2="-1" k3="1"/>
      <feColorMatrix values="0 0 0 0 0 0 0 0 0 0 0 0 0 0 0 0 0 0 0.25 0"/>
      <feBlend in2="shape" result="effect2_innerShadow"/>
    </filter>
    <filter id="filter5" x="260.4" y="494.8" width="18.2" height="22.4" filterUnits="userSpaceOnUse" color-interpolation-filters="sRGB">
      <feFlood flood-opacity="0" result="BackgroundImageFix"/>
      <feColorMatrix in="SourceAlpha" values="0 0 0 0 0 0 0 0 0 0 0 0 0 0 0 0 0 0 127 0" result="hardAlpha"/>
      <feOffset/>
      <feGaussianBlur stdDeviation="2"/>
      <feComposite in2="hardAlpha" operator="out"/>
      <feColorMatrix values="0 0 0 0 0 0 0 0 0 0.94 0 0 0 0 1 0 0 0 1 0"/>
      <feBlend in2="BackgroundImageFix" result="effect1_dropShadow"/>
      <feBlend in="SourceGraphic" in2="effect1_dropShadow" result="shape"/>
    </filter>
    <filter id="filter6" x="249" y="485" width="41" height="41" filterUnits="userSpaceOnUse" color-interpolation-filters="sRGB">
      <feFlood flood-opacity="0" result="BackgroundImageFix"/>
      <feColorMatrix in="SourceAlpha" values="0 0 0 0 0 0 0 0 0 0 0 0 0 0 0 0 0 0 127 0" result="hardAlpha"/>
      <feOffset/>
      <feGaussianBlur stdDeviation="2"/>
      <feComposite in2="hardAlpha" operator="out"/>
      <feColorMatrix values="0 0 0 0 0 0 0 0 0 0.94 0 0 0 0 1 0 0 0 1 0"/>
      <feBlend in2="BackgroundImageFix" result="effect1_dropShadow"/>
      <feBlend in="SourceGraphic" in2="effect1_dropShadow" result="shape"/>
      <feColorMatrix in="SourceAlpha" values="0 0 0 0 0 0 0 0 0 0 0 0 0 0 0 0 0 0 127 0" result="hardAlpha"/>
      <feOffset/>
      <feGaussianBlur stdDeviation="2"/>
      <feComposite in2="hardAlpha" operator="arithmetic" k2="-1" k3="1"/>
      <feColorMatrix values="0 0 0 0 0 0 0 0 0 0 0 0 0 0 0 0 0 0 0.25 0"/>
      <feBlend in2="shape" result="effect2_innerShadow"/>
    </filter>
    <filter id="filter7" x="260.4" y="494.8" width="18.2" height="22.4" filterUnits="userSpaceOnUse" color-interpolation-filters="sRGB">
      <feFlood flood-opacity="0" result="BackgroundImageFix"/>
      <feColorMatrix in="SourceAlpha" values="0 0 0 0 0 0 0 0 0 0 0 0 0 0 0 0 0 0 127 0" result="hardAlpha"/>
      <feOffset/>
      <feGaussianBlur stdDeviation="2"/>
      <feComposite in2="hardAlpha" operator="out"/>
      <feColorMatrix values="0 0 0 0 0 0 0 0 0 0.94 0 0 0 0 1 0 0 0 1 0"/>
      <feBlend in2="BackgroundImageFix" result="effect1_dropShadow"/>
      <feBlend in="SourceGraphic" in2="effect1_dropShadow" result="shape"/>
    </filter>
    <filter id="filter8" x="249" y="485" width="41" height="41" filterUnits="userSpaceOnUse" color-interpolation-filters="sRGB">
      <feFlood flood-opacity="0" result="BackgroundImageFix"/>
      <feColorMatrix in="SourceAlpha" values="0 0 0 0 0 0 0 0 0 0 0 0 0 0 0 0 0 0 127 0" result="hardAlpha"/>
      <feOffset/>
      <feGaussianBlur stdDeviation="2"/>
      <feComposite in2="hardAlpha" operator="out"/>
      <feColorMatrix values="0 0 0 0 0 0 0 0 0 0.94 0 0 0 0 1 0 0 0 1 0"/>
      <feBlend in2="BackgroundImageFix" result="effect1_dropShadow"/>
      <feBlend in="SourceGraphic" in2="effect1_dropShadow" result="shape"/>
      <feColorMatrix in="SourceAlpha" values="0 0 0 0 0 0 0 0 0 0 0 0 0 0 0 0 0 0 127 0" result="hardAlpha"/>
      <feOffset/>
      <feGaussianBlur stdDeviation="2"/>
      <feComposite in2="hardAlpha" operator="arithmetic" k2="-1" k3="1"/>
      <feColorMatrix values="0 0 0 0 0 0 0 0 0 0 0 0 0 0 0 0 0 0 0.25 0"/>
      <feBlend in2="shape" result="effect2_innerShadow"/>
    </filter>
    <filter id="filter9" x="260.4" y="494.8" width="18.2" height="22.4" filterUnits="userSpaceOnUse" color-interpolation-filters="sRGB">
      <feFlood flood-opacity="0" result="BackgroundImageFix"/>
      <feColorMatrix in="SourceAlpha" values="0 0 0 0 0 0 0 0 0 0 0 0 0 0 0 0 0 0 127 0" result="hardAlpha"/>
      <feOffset/>
      <feGaussianBlur stdDeviation="2"/>
      <feComposite in2="hardAlpha" operator="out"/>
      <feColorMatrix values="0 0 0 0 0 0 0 0 0 0.94 0 0 0 0 1 0 0 0 1 0"/>
      <feBlend in2="BackgroundImageFix" result="effect1_dropShadow"/>
      <feBlend in="SourceGraphic" in2="effect1_dropShadow" result="shape"/>
    </filter>
    <filter id="filter10" x="249" y="485" width="41" height="41" filterUnits="userSpaceOnUse" color-interpolation-filters="sRGB">
      <feFlood flood-opacity="0" result="BackgroundImageFix"/>
      <feColorMatrix in="SourceAlpha" values="0 0 0 0 0 0 0 0 0 0 0 0 0 0 0 0 0 0 127 0" result="hardAlpha"/>
      <feOffset/>
      <feGaussianBlur stdDeviation="2"/>
      <feComposite in2="hardAlpha" operator="out"/>
      <feColorMatrix values="0 0 0 0 0 0 0 0 0 0.94 0 0 0 0 1 0 0 0 1 0"/>
      <feBlend in2="BackgroundImageFix" result="effect1_dropShadow"/>
      <feBlend in="SourceGraphic" in2="effect1_dropShadow" result="shape"/>
      <feColorMatrix in="SourceAlpha" values="0 0 0 0 0 0 0 0 0 0 0 0 0 0 0 0 0 0 127 0" result="hardAlpha"/>
      <feOffset/>
      <feGaussianBlur stdDeviation="2"/>
      <feComposite in2="hardAlpha" operator="arithmetic" k2="-1" k3="1"/>
      <feColorMatrix values="0 0 0 0 0 0 0 0 0 0 0 0 0 0 0 0 0 0 0.25 0"/>
      <feBlend in2="shape" result="effect2_innerShadow"/>
    </filter>
    <filter id="filter11" x="260.4" y="494.8" width="18.2" height="22.4" filterUnits="userSpaceOnUse" color-interpolation-filters="sRGB">
      <feFlood flood-opacity="0" result="BackgroundImageFix"/>
      <feColorMatrix in="SourceAlpha" values="0 0 0 0 0 0 0 0 0 0 0 0 0 0 0 0 0 0 127 0" result="hardAlpha"/>
      <feOffset/>
      <feGaussianBlur stdDeviation="2"/>
      <feComposite in2="hardAlpha" operator="out"/>
      <feColorMatrix values="0 0 0 0 0 0 0 0 0 0.94 0 0 0 0 1 0 0 0 1 0"/>
      <feBlend in2="BackgroundImageFix" result="effect1_dropShadow"/>
      <feBlend in="SourceGraphic" in2="effect1_dropShadow" result="shape"/>
    </filter>
    <filter id="filter12" x="249" y="485" width="41" height="41" filterUnits="userSpaceOnUse" color-interpolation-filters="sRGB">
      <feFlood flood-opacity="0" result="BackgroundImageFix"/>
      <feColorMatrix in="SourceAlpha" values="0 0 0 0 0 0 0 0 0 0 0 0 0 0 0 0 0 0 127 0" result="hardAlpha"/>
      <feOffset/>
      <feGaussianBlur stdDeviation="2"/>
      <feComposite in2="hardAlpha" operator="out"/>
      <feColorMatrix values="0 0 0 0 0 0 0 0 0 0.94 0 0 0 0 1 0 0 0 1 0"/>
      <feBlend in2="BackgroundImageFix" result="effect1_dropShadow"/>
      <feBlend in="SourceGraphic" in2="effect1_dropShadow" result="shape"/>
      <feColorMatrix in="SourceAlpha" values="0 0 0 0 0 0 0 0 0 0 0 0 0 0 0 0 0 0 127 0" result="hardAlpha"/>
      <feOffset/>
      <feGaussianBlur stdDeviation="2"/>
      <feComposite in2="hardAlpha" operator="arithmetic" k2="-1" k3="1"/>
      <feColorMatrix values="0 0 0 0 0 0 0 0 0 0 0 0 0 0 0 0 0 0 0.25 0"/>
      <feBlend in2="shape" result="effect2_innerShadow"/>
    </filter>
    <filter id="filter13" x="260.4" y="494.8" width="18.2" height="22.4" filterUnits="userSpaceOnUse" color-interpolation-filters="sRGB">
      <feFlood flood-opacity="0" result="BackgroundImageFix"/>
      <feColorMatrix in="SourceAlpha" values="0 0 0 0 0 0 0 0 0 0 0 0 0 0 0 0 0 0 127 0" result="hardAlpha"/>
      <feOffset/>
      <feGaussianBlur stdDeviation="2"/>
      <feComposite in2="hardAlpha" operator="out"/>
      <feColorMatrix values="0 0 0 0 0 0 0 0 0 0.94 0 0 0 0 1 0 0 0 1 0"/>
      <feBlend in2="BackgroundImageFix" result="effect1_dropShadow"/>
      <feBlend in="SourceGraphic" in2="effect1_dropShadow" result="shape"/>
    </filter>
    <filter id="filter14" x="249" y="485" width="41" height="41" filterUnits="userSpaceOnUse" color-interpolation-filters="sRGB">
      <feFlood flood-opacity="0" result="BackgroundImageFix"/>
      <feColorMatrix in="SourceAlpha" values="0 0 0 0 0 0 0 0 0 0 0 0 0 0 0 0 0 0 127 0" result="hardAlpha"/>
      <feOffset/>
      <feGaussianBlur stdDeviation="2"/>
      <feComposite in2="hardAlpha" operator="out"/>
      <feColorMatrix values="0 0 0 0 0 0 0 0 0 0.94 0 0 0 0 1 0 0 0 1 0"/>
      <feBlend in2="BackgroundImageFix" result="effect1_dropShadow"/>
      <feBlend in="SourceGraphic" in2="effect1_dropShadow" result="shape"/>
      <feColorMatrix in="SourceAlpha" values="0 0 0 0 0 0 0 0 0 0 0 0 0 0 0 0 0 0 127 0" result="hardAlpha"/>
      <feOffset/>
      <feGaussianBlur stdDeviation="2"/>
      <feComposite in2="hardAlpha" operator="arithmetic" k2="-1" k3="1"/>
      <feColorMatrix values="0 0 0 0 0 0 0 0 0 0 0 0 0 0 0 0 0 0 0.25 0"/>
      <feBlend in2="shape" result="effect2_innerShadow"/>
    </filter>
    <filter id="filter15" x="260.4" y="494.8" width="18.2" height="22.4" filterUnits="userSpaceOnUse" color-interpolation-filters="sRGB">
      <feFlood flood-opacity="0" result="BackgroundImageFix"/>
      <feColorMatrix in="SourceAlpha" values="0 0 0 0 0 0 0 0 0 0 0 0 0 0 0 0 0 0 127 0" result="hardAlpha"/>
      <feOffset/>
      <feGaussianBlur stdDeviation="2"/>
      <feComposite in2="hardAlpha" operator="out"/>
      <feColorMatrix values="0 0 0 0 0 0 0 0 0 0.94 0 0 0 0 1 0 0 0 1 0"/>
      <feBlend in2="BackgroundImageFix" result="effect1_dropShadow"/>
      <feBlend in="SourceGraphic" in2="effect1_dropShadow" result="shape"/>
    </filter>
    <filter id="filter16" x="249" y="485" width="41" height="41" filterUnits="userSpaceOnUse" color-interpolation-filters="sRGB">
      <feFlood flood-opacity="0" result="BackgroundImageFix"/>
      <feColorMatrix in="SourceAlpha" values="0 0 0 0 0 0 0 0 0 0 0 0 0 0 0 0 0 0 127 0" result="hardAlpha"/>
      <feOffset/>
      <feGaussianBlur stdDeviation="2"/>
      <feComposite in2="hardAlpha" operator="out"/>
      <feColorMatrix values="0 0 0 0 0 0 0 0 0 0.94 0 0 0 0 1 0 0 0 1 0"/>
      <feBlend in2="BackgroundImageFix" result="effect1_dropShadow"/>
      <feBlend in="SourceGraphic" in2="effect1_dropShadow" result="shape"/>
      <feColorMatrix in="SourceAlpha" values="0 0 0 0 0 0 0 0 0 0 0 0 0 0 0 0 0 0 127 0" result="hardAlpha"/>
      <feOffset/>
      <feGaussianBlur stdDeviation="2"/>
      <feComposite in2="hardAlpha" operator="arithmetic" k2="-1" k3="1"/>
      <feColorMatrix values="0 0 0 0 0 0 0 0 0 0 0 0 0 0 0 0 0 0 0.25 0"/>
      <feBlend in2="shape" result="effect2_innerShadow"/>
    </filter>
    <filter id="filter17" x="260.4" y="494.8" width="18.2" height="22.4" filterUnits="userSpaceOnUse" color-interpolation-filters="sRGB">
      <feFlood flood-opacity="0" result="BackgroundImageFix"/>
      <feColorMatrix in="SourceAlpha" values="0 0 0 0 0 0 0 0 0 0 0 0 0 0 0 0 0 0 127 0" result="hardAlpha"/>
      <feOffset/>
      <feGaussianBlur stdDeviation="2"/>
      <feComposite in2="hardAlpha" operator="out"/>
      <feColorMatrix values="0 0 0 0 0 0 0 0 0 0.94 0 0 0 0 1 0 0 0 1 0"/>
      <feBlend in2="BackgroundImageFix" result="effect1_dropShadow"/>
      <feBlend in="SourceGraphic" in2="effect1_dropShadow" result="shape"/>
    </filter>
    <filter id="filter18" x="249" y="485" width="41" height="41" filterUnits="userSpaceOnUse" color-interpolation-filters="sRGB">
      <feFlood flood-opacity="0" result="BackgroundImageFix"/>
      <feColorMatrix in="SourceAlpha" values="0 0 0 0 0 0 0 0 0 0 0 0 0 0 0 0 0 0 127 0" result="hardAlpha"/>
      <feOffset/>
      <feGaussianBlur stdDeviation="2"/>
      <feComposite in2="hardAlpha" operator="out"/>
      <feColorMatrix values="0 0 0 0 0 0 0 0 0 0.94 0 0 0 0 1 0 0 0 1 0"/>
      <feBlend in2="BackgroundImageFix" result="effect1_dropShadow"/>
      <feBlend in="SourceGraphic" in2="effect1_dropShadow" result="shape"/>
      <feColorMatrix in="SourceAlpha" values="0 0 0 0 0 0 0 0 0 0 0 0 0 0 0 0 0 0 127 0" result="hardAlpha"/>
      <feOffset/>
      <feGaussianBlur stdDeviation="2"/>
      <feComposite in2="hardAlpha" operator="arithmetic" k2="-1" k3="1"/>
      <feColorMatrix values="0 0 0 0 0 0 0 0 0 0 0 0 0 0 0 0 0 0 0.25 0"/>
      <feBlend in2="shape" result="effect2_innerShadow"/>
    </filter>
    <filter id="filter19" x="260.4" y="494.8" width="18.2" height="22.4" filterUnits="userSpaceOnUse" color-interpolation-filters="sRGB">
      <feFlood flood-opacity="0" result="BackgroundImageFix"/>
      <feColorMatrix in="SourceAlpha" values="0 0 0 0 0 0 0 0 0 0 0 0 0 0 0 0 0 0 127 0" result="hardAlpha"/>
      <feOffset/>
      <feGaussianBlur stdDeviation="2"/>
      <feComposite in2="hardAlpha" operator="out"/>
      <feColorMatrix values="0 0 0 0 0 0 0 0 0 0.94 0 0 0 0 1 0 0 0 1 0"/>
      <feBlend in2="BackgroundImageFix" result="effect1_dropShadow"/>
      <feBlend in="SourceGraphic" in2="effect1_dropShadow" result="shape"/>
    </filter>
    <radialGradient id="paint22_radial" cx="0" cy="0" r="1" gradientUnits="userSpaceOnUse" gradientTransform="rotate(81.7 202.2 156.7) scale(830.713 5229.72)">
      <stop stop-color="#00F0FF"/>
      <stop offset=".5" stop-color="#0F7FA2"/>
      <stop offset=".8" stop-color="#1C1E51"/>
      <stop offset=".9" stop-color="#1C1E51"/>
    </radialGradient>
  </defs>
</svg>
