<svg width="487" height="464" viewBox="0 0 487 464" fill="none" xmlns="http://www.w3.org/2000/svg">
  <g class="lower-ring-setup-wide">
    <g class="lower-ring">
      <path class="b5" d="M222.6 141.2c-1.6.8-2.2 2.5-1.7 4.2.2.8 1.4 2 2.2 2.2 1.3.4 2.6 0 3.5-.8l.5-.6h1.5c1.2 0 1.4 0 1.7.3.2.3.2.7.3 8.5v8.3l.4.7c.4.8 1.3 1.8 2 2.2l.6.3h-2.8c-2.1 0-2.9 0-3-.2-.1-.1-.2-1.7-.2-4.3v-4.1l-.5-.8c-.5-1-1.3-1.6-2.3-2-.7-.2-1-.3-5.2-.3h-4.4l-.4-.4a3.5 3.5 0 1 0-4 5.5c1.3.6 2.6.4 3.8-.7l.7-.7h4c3.4 0 4 0 4.3.3.4.2.4.2.4 4 0 3.6 0 4 .3 4.7.3 1 1.2 1.9 2.1 2.4.7.3.8.3 4.8.4h4.1v.9c0 1.4.4 1.3-6 1.4-5.6 0-5.7 0-6.4.4-.8.3-1.9 1.3-2.3 2.2a7 7 0 0 0-.6 3.1c0 1 0 1.1-.4 1.4-.3.2-.6.7-.8 1.2-.3.6-.4.9-.3 1.7.2 3.1 4 4.4 6 2a3 3 0 0 0 .9-2.3 3 3 0 0 0-1-2.4c-.6-.6-.6-.7-.6-1.8 0-1.9-.4-1.7 5.2-1.7l5.7-.1c1.7-.2 2.8-1 3.7-2.3l.4-.6v7c0 6.5 0 7-.3 7.5-.9 2-3.5 2.2-4.6.3-.3-.5-.3-.7-.3-1.7 0-1.2 0-1.2.4-1.6.3-.2.6-.7.8-1 1.2-2.7-1-5.6-3.9-5a3.6 3.6 0 0 0-1.6 6c.4.4.5.5.5 1.4 0 3 1.3 5.3 3.7 6.4.9.4 1.2.5 2.4.5 1 0 1.5 0 2-.2a6.3 6.3 0 0 0 3.7-2.7c.9-1.6.9-1.4.9-11v-8.6h2v8.3l.1 9c.4 2 1.8 3.8 3.6 4.7 1 .5 1 .5 2.7.5 1.5 0 1.8 0 2.5-.4a6.4 6.4 0 0 0 3.8-6.1v-1.3l.6-.6c1-1 1.3-2.2.9-3.5-.3-.9-.8-1.5-1.7-2a3.5 3.5 0 0 0-4 5.6c.5.5.5.5.5 1.5 0 1.1-.3 2-1 2.5-1.2 1-3 .8-3.9-.7l-.3-.6v-14.1l.5.7c.2.4.8 1 1.1 1.2 1.3.9 1.4.9 7.2 1h5.6c.4.2.6.7.6 1.9 0 1 0 1-.5 1.5-.8.7-1.1 1.5-1.1 2.5 0 2 1.4 3.5 3.4 3.5s3.5-1.5 3.5-3.5c0-1-.3-1.6-1-2.4l-.6-.6v-1.6c-.1-1.3-.2-1.8-.4-2.3-.4-1-1.4-2-2.3-2.4l-.8-.4h-11.2l-.3-.4c-.2-.3-.3-.6-.3-1.1v-.8h4c4 0 4.1 0 4.8-.4 1-.4 1.7-1.2 2.2-2l.4-.8V163c0-3.7 0-4.1.3-4.3.2-.1 1.2-.2 4.4-.2h4l.4.5c.4.6 1.4 1 2.3 1.2 2 .2 3.8-1.4 3.8-3.4 0-1.1-.4-2-1.1-2.7a3.4 3.4 0 0 0-4.7.1l-.7.6h-4.6l-4.7.1-.7.4-1.3 1c-1 1.2-1 1.5-1.1 6l-.2 4c0 .1-.7.2-3 .2h-2.9l.6-.3c.8-.5 1.7-1.4 2.1-2.3l.4-.8V155c.2-8 .2-8.3.4-8.5.2-.1.7-.2 1.7-.2 1.3 0 1.4 0 1.7.4.5.6 1.5 1 2.4 1.1 1.7.2 3.1-.8 3.6-2.4.2-.9.2-1.1 0-2a3.3 3.3 0 0 0-3.3-2.5c-1.1 0-2 .4-2.6 1.1l-.4.5h-1.5c-2.7 0-4.2.8-5.2 2.8l-.5 1v8.1c-.1 8-.1 8.2-.4 8.4-.2.2-.8.2-2.7.2h-2.4v-3h.4c1 0 2.1-.6 2.6-1.6.3-.3.3-1 .3-5.6v-6.1a7.1 7.1 0 0 0-5-5.5c-.7-.3-1.2-.3-2.3-.3-1.4 0-1.6.1-2.6.6a7 7 0 0 0-3.8 4.5c-.2.8-.2 1.7-.2 6.3 0 5.6 0 5.9.6 6.7.4.5 1.5 1 2.2 1h.5v3h-2.5c-2.4 0-2.5 0-2.8-.3-.2-.3-.2-.7-.3-8.5v-8.3l-.4-.7c-.5-1-1.4-1.8-2.4-2.3-.7-.3-1-.4-2.6-.4-1.7 0-1.8 0-2-.4l-1-.8c-1-.5-2.3-.6-3.3 0Z" fill="url(#paint45_linear)" fill-opacity=".5"/>
      <path class="c5" d="M222.6 193.8c-1.6.8-2.2 2.5-1.7 4.3.2.7 1.4 2 2.2 2.1 1.3.4 2.6.1 3.5-.8l.5-.5h1.5c1.2 0 1.4 0 1.7.3.2.2.2.6.3 8.5v8.2l.4.7c.4.9 1.3 1.8 2 2.2l.6.3h-2.8c-2.1 0-2.9 0-3-.2-.1 0-.2-1.6-.2-4.2v-4.2l-.5-.7c-.5-1-1.3-1.7-2.3-2-.7-.3-1-.3-5.2-.3h-4.4l-.4-.5a3.5 3.5 0 1 0-4 5.6c1.3.6 2.6.3 3.8-.7l.7-.7h4c3.4 0 4 0 4.3.2.4.2.4.2.4 4.1 0 3.6 0 4 .3 4.7.3 1 1.2 1.8 2.1 2.3.7.4.8.4 4.8.4l4.1.1v.8c0 1.4.4 1.3-6 1.4-5.6 0-5.7.1-6.4.4-.8.4-1.9 1.4-2.3 2.2a7 7 0 0 0-.6 3.2c0 1 0 1-.4 1.4-.3.2-.6.7-.8 1.1-.3.7-.4 1-.3 1.7.2 3.1 4 4.5 6 2.1a3 3 0 0 0 .9-2.3 3 3 0 0 0-1-2.5c-.6-.6-.6-.6-.6-1.7 0-2-.4-1.8 5.2-1.8h5.7c1.7-.3 2.8-1 3.7-2.4l.4-.6v7c0 6.5 0 7-.3 7.6-.9 2-3.5 2.1-4.6.3-.3-.5-.3-.8-.3-1.8 0-1.1 0-1.2.4-1.5.3-.2.6-.7.8-1.1 1.2-2.6-1-5.5-3.9-5a3.5 3.5 0 0 0-1.6 6.1c.4.4.5.5.5 1.4 0 2.9 1.3 5.2 3.7 6.4.9.4 1.2.4 2.4.5 1 0 1.5 0 2-.2a6.3 6.3 0 0 0 3.7-2.8c.9-1.5.9-1.4.9-11v-8.5h2v8.2l.1 9c.4 2 1.8 3.9 3.6 4.8 1 .4 1 .4 2.7.4 1.5 0 1.8 0 2.5-.3a6.4 6.4 0 0 0 3.8-6.1V238l.6-.6c1-1 1.3-2.2.9-3.5-.3-1-.8-1.6-1.7-2-.6-.4-.9-.5-1.6-.5a3.5 3.5 0 0 0-2.4 6c.5.5.5.6.5 1.5 0 1.2-.3 2-1 2.5-1.2 1.1-3 .8-3.9-.6l-.3-.6v-14.1l.5.7c.2.4.8.9 1.1 1.1 1.3 1 1.4 1 7.2 1l5.6.1c.4.1.6.7.6 1.8 0 1 0 1-.5 1.5-.8.8-1.1 1.5-1.1 2.6 0 2 1.4 3.4 3.4 3.4s3.5-1.4 3.5-3.4c0-1-.3-1.6-1-2.5l-.6-.6v-1.6c-.1-1.3-.2-1.8-.4-2.3-.4-1-1.4-1.9-2.3-2.3l-.8-.4h-5.6l-5.6-.1-.3-.4c-.2-.2-.3-.6-.3-1v-.8h4c4-.1 4.1-.1 4.8-.5 1-.4 1.7-1.1 2.2-2l.4-.7v-4.2c0-3.6 0-4 .3-4.2.2-.2 1.2-.2 4.4-.2h4l.4.4c.4.6 1.4 1.1 2.3 1.2 2 .3 3.8-1.3 3.8-3.4a3.4 3.4 0 0 0-5.8-2.6l-.7.7h-9.3l-.7.5c-.4.2-1 .6-1.3 1-1 1.1-1 1.4-1.1 5.9 0 2.1-.1 4-.2 4 0 .2-.7.2-3 .2h-2.9l.6-.3c.8-.4 1.7-1.4 2.1-2.2l.4-.8v-8.3c.2-8 .2-8.3.4-8.4.2-.2.7-.2 1.7-.2 1.3 0 1.4 0 1.7.3.5.6 1.5 1.1 2.4 1.2 1.7.1 3.1-.9 3.6-2.5.2-.8.2-1 0-2a3.3 3.3 0 0 0-3.3-2.4c-1.1 0-2 .3-2.6 1l-.4.5h-1.5c-2.7 0-4.2.8-5.2 2.8l-.5 1v8.2c-.1 7.9-.1 8.2-.4 8.4-.2.1-.8.2-2.7.2h-2.4v-3h.4c1 0 2.1-.7 2.6-1.6.3-.4.3-1.1.3-5.6v-6.2a7.1 7.1 0 0 0-5-5.5c-.7-.2-1.2-.3-2.3-.2-1.4 0-1.6.1-2.6.5a7 7 0 0 0-3.8 4.6c-.2.8-.2 1.7-.2 6.2 0 5.6 0 5.9.6 6.8.4.5 1.5 1 2.2 1h.5v3h-2.5c-2.4 0-2.5 0-2.8-.3-.2-.3-.2-.7-.3-8.6v-8.2l-.4-.7c-.5-1-1.4-1.9-2.4-2.3-.7-.4-1-.4-2.6-.4-1.7-.1-1.8-.1-2-.4l-1-.8c-1-.6-2.3-.6-3.3 0Z" fill="url(#paint46_linear)"/>
      <path class="a5" d="M222.9 88.5c-1.5.8-2.2 2.5-1.7 4.3.2.7 1.4 2 2.2 2.1 1.3.4 2.6.1 3.5-.8l.5-.5h1.5c1.3 0 1.4 0 1.7.3.2.2.2.6.3 8.5v8.2l.4.7c.5.9 1.3 1.8 2.1 2.2l.6.3H231c-2.1 0-2.9 0-3-.2 0 0-.2-1.6-.2-4.2v-4.2l-.4-.7c-.6-1-1.3-1.7-2.3-2-.7-.3-1.1-.3-5.3-.3h-4.4l-.4-.5a3.5 3.5 0 1 0-4 5.6c1.3.6 2.6.3 3.8-.7l.8-.7h4c3.3 0 4 0 4.3.2.3.2.3.3.3 4.1 0 3.6 0 4 .3 4.7.3 1 1.2 1.8 2.1 2.3.7.4.9.4 4.9.4l4 .1v.8c0 1.4.4 1.3-6 1.4-5.6 0-5.7.1-6.4.4-.8.4-1.9 1.4-2.3 2.2a7 7 0 0 0-.6 3.2c0 1 0 1-.4 1.4l-.8 1.1c-.3.7-.4 1-.3 1.7.2 3.1 4 4.5 6 2.1a3 3 0 0 0 .9-2.3 3 3 0 0 0-1-2.5c-.6-.6-.6-.6-.6-1.7 0-1.9-.3-1.8 5.2-1.8h5.8c1.6-.3 2.7-1 3.6-2.4l.4-.6v7c0 6.5 0 7-.2 7.6-1 2-3.6 2.1-4.7.3-.3-.5-.3-.8-.3-1.8 0-1.1 0-1.2.4-1.5.3-.2.6-.7.8-1.1 1.2-2.6-1-5.5-3.9-5a3.6 3.6 0 0 0-1.6 6.1c.4.4.5.5.5 1.4 0 3 1.4 5.2 3.7 6.4.9.4 1.2.4 2.4.5 1 0 1.5 0 2.1-.2a6.3 6.3 0 0 0 3.6-2.8c1-1.5.9-1.4.9-11v-8.5h2v8.2l.1 9c.4 2 1.8 3.9 3.7 4.8.9.4 1 .4 2.6.4 1.5 0 1.8 0 2.5-.3a6.4 6.4 0 0 0 3.8-6.1v-1.3l.6-.6c1-1 1.3-2.2 1-3.5-.4-1-.9-1.6-1.8-2-.6-.4-.9-.5-1.6-.5a3.5 3.5 0 0 0-2.4 6c.5.5.5.6.5 1.5 0 1.2-.3 2-1 2.5-1.2 1.1-3 .8-3.8-.6l-.4-.6v-14.1l.5.7c.3.4.8 1 1.1 1.1 1.3 1 1.4 1 7.2 1l5.6.1c.4.1.6.7.6 1.8 0 1 0 1-.5 1.5-.8.8-1.1 1.5-1.1 2.6 0 2 1.4 3.4 3.4 3.4s3.5-1.4 3.5-3.4c0-1-.3-1.6-1-2.5l-.6-.6V125c-.1-1.3-.2-1.8-.4-2.3-.4-1-1.4-1.9-2.3-2.3l-.8-.4h-5.6l-5.6-.1-.3-.4c-.2-.2-.3-.6-.3-1v-.8h4c4-.1 4.2-.1 4.8-.5 1-.4 1.7-1.1 2.2-2l.4-.7v-4.2c0-3.6.1-4 .3-4.2.2-.2 1.2-.2 4.4-.2h4.1l.3.4c.4.6 1.4 1.1 2.3 1.2 2 .3 3.8-1.3 3.8-3.4 0-1-.3-2-1.1-2.6a3.4 3.4 0 0 0-4.7 0l-.7.7h-9.3l-.7.5c-.4.2-1 .6-1.3 1-1 1.1-1 1.4-1.1 5.9l-.1 4c0 .2-.8.2-3 .2h-3l.6-.3c.8-.4 1.7-1.4 2.2-2.2l.3-.8.1-8.3c0-8 0-8.2.3-8.4.2-.2.7-.2 1.7-.2 1.4 0 1.4 0 1.7.3.5.6 1.5 1.1 2.4 1.2 1.7.1 3.1-.9 3.6-2.5.3-.8.3-1 0-2a3.3 3.3 0 0 0-3.3-2.4c-1.1 0-2 .3-2.6 1l-.4.5h-1.5c-2.7 0-4.2.8-5.2 2.8l-.4 1-.1 8.2c0 7.9-.1 8.2-.4 8.4-.2.1-.8.2-2.7.2h-2.4v-3h.5c1 0 2-.7 2.6-1.6.2-.4.2-1.1.2-5.6v-6.2a7.1 7.1 0 0 0-5-5.5c-.7-.2-1.2-.3-2.3-.2-1.3 0-1.6.1-2.5.6a7 7 0 0 0-3.9 4.5c-.2.8-.2 1.7-.2 6.2 0 5.6 0 5.9.6 6.8.4.5 1.5 1 2.2 1h.6v3h-2.6c-2.4 0-2.5 0-2.8-.3-.2-.3-.2-.7-.3-8.6v-8.2l-.4-.7c-.5-1-1.4-1.9-2.4-2.3-.7-.4-1-.4-2.6-.4-1.7-.1-1.8-.1-2-.4l-1-.8c-1-.6-2.2-.6-3.3 0Z" fill="url(#paint47_linear)" fill-opacity=".2"/>
      <path class="b4" d="M273.3 128.6c-1.5.8-2.2 2.5-1.7 4.3.2.7 1.4 2 2.2 2.1 1.3.4 2.6.1 3.5-.8l.6-.6h1.4c1.3 0 1.5 0 1.7.3.3.3.3.7.3 8.6l.1 8.2.4.7c.4.9 1.3 1.8 2 2.2l.6.3h-2.9c-2.1 0-2.8 0-3-.2l-.2-4.3v-4l-.4-.8c-.5-1-1.3-1.7-2.3-2-.7-.3-1.1-.3-5.2-.3h-4.5l-.4-.5a3.5 3.5 0 0 0-4.2-.7 3.5 3.5 0 0 0 .2 6.3c1.3.6 2.6.3 3.8-.7l.8-.7h4c3.4 0 4 0 4.3.2.3.2.3.2.3 4.1 0 3.6 0 4 .3 4.7.3 1 1.2 1.8 2.2 2.3.7.4.8.4 4.8.4l4 .1v.8c0 1.4.4 1.3-6 1.4-5.5 0-5.7 0-6.4.4-.8.4-1.9 1.4-2.3 2.2a7 7 0 0 0-.6 3.2c0 1 0 1-.4 1.4l-.8 1.1c-.3.7-.4.9-.3 1.7.3 3.1 4 4.4 6 2.1a3 3 0 0 0 1-2.3 3 3 0 0 0-1-2.5c-.7-.6-.7-.6-.7-1.7 0-2-.3-1.8 5.2-1.8h5.8c1.6-.3 2.7-1 3.6-2.4l.4-.6v7c0 6.5 0 7-.2 7.6-1 2-3.6 2.1-4.6.3-.3-.5-.4-.8-.4-1.8 0-1.1 0-1.2.4-1.5.3-.2.6-.7.8-1.1 1.2-2.6-1-5.5-3.8-5a3.6 3.6 0 0 0-1.6 6c.4.5.4.6.4 1.5 0 2.9 1.4 5.2 3.8 6.4.8.4 1.1.4 2.3.5 1 0 1.5 0 2.1-.2a6.3 6.3 0 0 0 3.6-2.8c1-1.5 1-1.4 1-11v-8.5h1.9v8.2l.1 9c.4 2 1.8 3.9 3.7 4.8.9.4 1 .4 2.6.4s1.8 0 2.5-.3a6.4 6.4 0 0 0 3.8-6.2V173l.7-.7c1-1 1.2-2.1.8-3.4-.2-1-.8-1.6-1.6-2-.6-.4-1-.5-1.7-.5-3.1 0-4.6 3.9-2.4 6 .5.5.6.5.6 1.5 0 1.2-.4 2-1 2.5-1.3 1.1-3 .8-4-.6l-.3-.6V161l.5.7 1.1 1.1c1.3 1 1.4 1 7.2 1l5.6.1c.4.1.6.7.6 1.8 0 1 0 1-.5 1.5-.8.8-1.1 1.5-1.1 2.6 0 2 1.4 3.4 3.5 3.4 2 0 3.4-1.4 3.4-3.4 0-1-.2-1.6-1-2.5l-.6-.6v-1.6c0-1.3-.1-1.8-.4-2.3-.4-1-1.3-1.9-2.3-2.3l-.8-.4h-5.6l-5.6-.1-.3-.4c-.2-.2-.3-.6-.3-1.1v-.7h4c4-.1 4.2-.1 4.9-.5.8-.4 1.6-1.1 2.1-2l.4-.7v-4.2c0-3.6.1-4 .3-4.3l4.4-.1h4.1l.3.4c.5.6 1.5 1.1 2.3 1.2 2.1.2 3.9-1.3 3.9-3.4 0-1-.4-2-1.2-2.6a3.4 3.4 0 0 0-4.7 0l-.6.7h-9.4l-.7.4-1.3 1c-1 1.2-1 1.5-1.1 6l-.1 4c0 .2-.8.2-3 .2h-3l.6-.3c.8-.4 1.7-1.4 2.2-2.2l.4-.8v-8.3c.1-8 .1-8.3.4-8.5.2 0 .7-.2 1.6-.2 1.4 0 1.5 0 1.7.4.5.6 1.5 1 2.5 1.2 1.6.1 3-.9 3.5-2.5.3-.8.3-1 0-2a3.3 3.3 0 0 0-3.3-2.4c-1 0-2 .3-2.5 1l-.5.5h-1.5c-2.7 0-4.2.8-5.2 2.8l-.4 1v8.2c-.2 7.9-.2 8.2-.4 8.4-.2.1-.9.2-2.8.2H298v-3h.5c1 0 2-.7 2.6-1.6.2-.4.2-1.1.3-5.6 0-3.5 0-5.5-.2-6.2a7.1 7.1 0 0 0-4.8-5.5c-.8-.2-1.3-.3-2.4-.2-1.3 0-1.6 0-2.5.5a7 7 0 0 0-3.9 4.6c-.2.8-.2 1.7-.2 6.2 0 5.6 0 5.9.6 6.7.4.6 1.5 1 2.3 1h.5v3.1h-2.5c-2.4 0-2.6 0-2.8-.3-.3-.3-.3-.7-.4-8.6v-8.2l-.4-.7c-.5-1-1.4-1.9-2.4-2.3-.7-.4-1-.4-2.6-.4-1.7-.1-1.8-.1-2-.4l-1-.8c-1-.6-2.2-.6-3.3 0Z" fill="url(#paint48_linear)" fill-opacity=".5"/>
      <path class="c4" d="M273.3 181.3c-1.5.7-2.2 2.4-1.7 4.2.2.8 1.4 2 2.2 2.2 1.3.4 2.6 0 3.5-.8l.6-.6h1.4c1.3 0 1.5 0 1.7.3.3.3.3.7.3 8.5l.1 8.3.4.7c.4.8 1.3 1.8 2 2.2l.6.2h-2.9l-3-.1-.2-4.3V198l-.4-.8c-.5-1-1.3-1.6-2.3-2-.7-.2-1.1-.3-5.2-.3h-4.5l-.4-.4a3.5 3.5 0 1 0-4 5.5c1.3.6 2.6.4 3.8-.7l.8-.7h4c3.4 0 4 0 4.3.3.3.2.3.2.3 4 0 3.6 0 4 .3 4.7.3 1 1.2 1.9 2.2 2.4.7.3.8.3 4.8.4h4v.9c0 1.4.4 1.3-6 1.4-5.5 0-5.7 0-6.4.4-.8.3-1.9 1.3-2.3 2.2a7 7 0 0 0-.6 3.1c0 1 0 1.1-.4 1.4-.2.2-.6.7-.8 1.2-.3.6-.4.9-.3 1.6.3 3.2 4 4.5 6 2.2a3 3 0 0 0 1-2.4 3 3 0 0 0-1-2.4c-.7-.6-.7-.7-.7-1.8 0-1.9-.3-1.7 5.2-1.7l5.8-.1c1.6-.2 2.7-1 3.6-2.3l.4-.7v7c0 6.6 0 7.1-.2 7.6-1 2-3.6 2.2-4.6.3-.3-.5-.4-.8-.4-1.7 0-1.2 0-1.2.4-1.6.3-.2.6-.7.8-1 1.2-2.7-1-5.6-3.8-5a3.5 3.5 0 0 0-1.6 6c.4.4.4.5.4 1.4 0 3 1.4 5.3 3.8 6.4.8.4 1.1.5 2.3.5 1 0 1.5 0 2.1-.2a6.3 6.3 0 0 0 3.6-2.7c1-1.6 1-1.4 1-11v-8.6h1.9v8.3l.1 9c.4 2 1.8 3.8 3.7 4.7.9.5 1 .5 2.6.5s1.8 0 2.5-.4a6.4 6.4 0 0 0 3.8-6.1v-1.3l.7-.6c1-1 1.2-2.2.8-3.5-.2-.9-.8-1.5-1.6-2-.6-.4-1-.4-1.7-.4-3.1 0-4.6 3.8-2.4 6 .5.5.6.5.6 1.5 0 1.1-.4 2-1 2.5-1.3 1-3 .7-4-.7l-.3-.6v-14.1l.5.7 1.1 1.2c1.3.9 1.4.9 7.2 1h5.6c.4.2.6.7.6 1.9 0 1 0 1-.5 1.5-.8.7-1.1 1.5-1.1 2.5 0 2 1.4 3.5 3.5 3.5 2 0 3.4-1.5 3.4-3.5 0-1-.2-1.6-1-2.4l-.6-.6v-1.6c0-1.3-.1-1.8-.4-2.3-.4-1-1.3-2-2.3-2.4l-.8-.4H303l-.3-.4c-.2-.3-.3-.6-.3-1.1v-.8h4c4 0 4.2-.1 4.9-.4.8-.4 1.6-1.2 2.1-2l.4-.8v-4.1c0-3.7.1-4.1.3-4.3.2-.1 1.2-.2 4.4-.2h4.1l.3.5c.5.6 1.5 1 2.3 1.2 2.1.2 3.9-1.4 3.9-3.4 0-1.1-.4-2-1.2-2.7a3.4 3.4 0 0 0-4.7.1l-.6.6h-4.7l-4.7.1-.7.4-1.3 1c-1 1.2-1 1.5-1.1 6l-.1 4c0 .1-.8.2-3 .2h-3l.6-.3c.8-.5 1.7-1.4 2.2-2.3l.4-.8V195c.1-8 .1-8.3.4-8.5.2-.1.7-.2 1.6-.2 1.4 0 1.5 0 1.7.4.5.6 1.5 1 2.5 1.1 1.6.2 3-.8 3.5-2.4.3-.9.3-1.1 0-2a3.3 3.3 0 0 0-3.3-2.5c-1 0-2 .4-2.5 1l-.5.6h-1.5c-2.7 0-4.2.8-5.2 2.8l-.4 1v8.1c-.2 8-.2 8.2-.4 8.4-.2.2-.9.2-2.8.2H298v-3h.5c1 0 2-.6 2.6-1.6.2-.4.2-1 .3-5.6 0-3.4 0-5.5-.2-6.1a7.1 7.1 0 0 0-4.8-5.5c-.8-.3-1.3-.3-2.4-.3-1.3 0-1.6.1-2.5.6a7 7 0 0 0-3.9 4.5c-.2.8-.2 1.7-.2 6.3 0 5.6 0 5.8.6 6.7.4.5 1.5 1 2.3 1h.5v3h-2.5c-2.4 0-2.6 0-2.8-.3-.3-.3-.3-.7-.4-8.5v-8.3l-.4-.7c-.5-1-1.4-1.8-2.4-2.3-.7-.3-1-.4-2.6-.4-1.7 0-1.8 0-2-.4l-1-.8c-1-.5-2.2-.6-3.3 0Z" fill="url(#paint49_linear)"/>
      <path class="a4" d="M273.3 76c-1.5.7-2.2 2.4-1.7 4.2.2.8 1.4 2 2.2 2.2 1.3.4 2.6 0 3.5-.8l.6-.6h1.4c1.3 0 1.5 0 1.7.3.3.3.3.7.3 8.5l.1 8.3.4.7c.4.8 1.3 1.8 2 2.2l.6.2h-2.9l-3-.1-.2-4.3v-4.1l-.4-.8c-.5-1-1.3-1.6-2.3-2-.7-.2-1.1-.3-5.2-.3h-4.5l-.4-.4a3.5 3.5 0 1 0-4 5.5c1.3.6 2.6.4 3.8-.7l.8-.7h4c3.4 0 4 0 4.3.3.3.2.3.2.3 4 0 3.6 0 4 .3 4.7.3 1 1.2 1.9 2.2 2.4.7.3.8.3 4.8.4h4v.9c0 1.4.4 1.3-6 1.4-5.5 0-5.7 0-6.4.4-.8.3-1.9 1.3-2.3 2.2a7 7 0 0 0-.6 3.1c0 1 0 1.1-.4 1.4-.2.2-.6.7-.8 1.2-.3.6-.4.9-.3 1.6.3 3.2 4 4.5 6 2.2a3 3 0 0 0 1-2.4 3 3 0 0 0-1-2.4c-.7-.6-.7-.7-.7-1.8 0-1.9-.3-1.7 5.2-1.7l5.8-.1c1.6-.2 2.7-1 3.6-2.3l.4-.6v7c0 6.5 0 7-.2 7.5-1 2-3.6 2.2-4.6.3-.3-.5-.4-.8-.4-1.7 0-1.2 0-1.2.4-1.6.3-.2.6-.7.8-1 1.2-2.7-1-5.6-3.8-5a3.5 3.5 0 0 0-1.6 6c.4.4.4.5.4 1.4 0 3 1.4 5.3 3.8 6.4.8.4 1.1.5 2.3.5 1 0 1.5 0 2.1-.2a6.3 6.3 0 0 0 3.6-2.7c1-1.6 1-1.4 1-11v-8.6h1.9v8.3l.1 9c.4 2 1.8 3.8 3.7 4.7.9.5 1 .5 2.6.5s1.8 0 2.5-.4a6.4 6.4 0 0 0 3.8-6.1v-1.3l.7-.6c1-1 1.2-2.2.8-3.5-.2-.9-.8-1.5-1.6-2-.6-.4-1-.4-1.7-.4-3.1 0-4.6 3.8-2.4 6 .5.5.6.5.6 1.5 0 1.1-.4 2-1 2.5-1.3 1-3 .7-4-.7l-.3-.6v-14.1l.5.7 1.1 1.2c1.3.9 1.4.9 7.2 1h5.6c.4.2.6.7.6 1.9 0 1 0 1-.5 1.5-.8.7-1.1 1.5-1.1 2.5 0 2 1.4 3.5 3.5 3.5 2 0 3.4-1.5 3.4-3.5 0-1-.2-1.6-1-2.4l-.6-.6v-1.6c0-1.3-.1-1.8-.4-2.3-.4-1-1.3-2-2.3-2.4l-.8-.4H303l-.3-.4c-.2-.3-.3-.6-.3-1.1v-.8h4c4 0 4.2-.1 4.9-.4.8-.4 1.6-1.2 2.1-2l.4-.8v-4.1c0-3.7.1-4.1.3-4.3.2-.1 1.2-.2 4.4-.2h4.1l.3.5c.5.6 1.5 1 2.3 1.2 2.1.2 3.9-1.4 3.9-3.4 0-1.1-.4-2-1.2-2.7a3.4 3.4 0 0 0-4.7.1l-.6.6h-4.7l-4.7.1-.7.4-1.3 1c-1 1.2-1 1.5-1.1 6l-.1 4c0 .1-.8.2-3 .2h-3l.6-.3c.8-.5 1.7-1.4 2.2-2.3l.4-.8v-8.2c.1-8 .1-8.3.4-8.5.2-.1.7-.2 1.6-.2 1.4 0 1.5 0 1.7.4.5.6 1.5 1 2.5 1.1 1.6.2 3-.8 3.5-2.4.3-.9.3-1.1 0-2a3.3 3.3 0 0 0-3.3-2.5c-1 0-2 .4-2.5 1l-.5.6h-1.5c-2.7 0-4.2.8-5.2 2.8l-.4 1V89c-.2 8-.2 8.2-.4 8.4-.2.2-.9.2-2.8.2H298v-3h.5c1 0 2-.6 2.6-1.6.2-.4.2-1 .3-5.6 0-3.4 0-5.5-.2-6.1a7.1 7.1 0 0 0-4.8-5.5c-.8-.3-1.3-.3-2.4-.3-1.3 0-1.6.1-2.5.6a7 7 0 0 0-3.9 4.5c-.2.8-.2 1.7-.2 6.3 0 5.6 0 5.8.6 6.7.4.5 1.5 1 2.3 1h.5v3h-2.5c-2.4 0-2.6 0-2.8-.3-.3-.3-.3-.7-.4-8.5v-8.3l-.4-.7c-.5-1-1.4-1.8-2.4-2.3-.7-.3-1-.4-2.6-.4-1.7 0-1.8 0-2-.4l-1-.8c-1-.5-2.2-.6-3.3 0Z" fill="url(#paint50_linear)" fill-opacity=".2"/>
      <path class="b3" d="M326 104.4c-1.6.8-2.3 2.5-1.7 4.3.2.7 1.4 2 2.1 2.1 1.4.4 2.7.1 3.6-.8l.5-.5h1.4c1.3 0 1.5 0 1.7.3.3.2.3.6.4 8.5v8.2l.4.7c.4.9 1.3 1.8 2 2.2l.6.3h-2.8c-2.2 0-2.9 0-3-.2-.1 0-.2-1.6-.2-4.2V121l-.5-.7c-.5-1-1.3-1.7-2.3-2-.7-.3-1-.3-5.2-.3h-4.4l-.5-.5a3.5 3.5 0 1 0-4 5.6c1.4.6 2.7.3 3.8-.7l.8-.7h4c3.4 0 4 0 4.3.2.3.2.3.2.3 4.1 0 3.6 0 4 .3 4.7.4 1 1.2 1.8 2.2 2.3.7.4.8.4 4.8.4l4.1.1v.8c0 1.4.4 1.3-6.1 1.4-5.5 0-5.6 0-6.3.4-.9.4-2 1.4-2.3 2.2a7 7 0 0 0-.6 3.2c0 1 0 1-.4 1.4-.3.2-.6.7-.8 1.1-.4.7-.4 1-.3 1.7.2 3.1 4 4.4 6 2.1a3 3 0 0 0 .9-2.3 3 3 0 0 0-1-2.5c-.6-.6-.6-.6-.6-1.7 0-2-.4-1.8 5.2-1.8h5.7c1.7-.3 2.8-1 3.7-2.4l.4-.6v7c0 6.5 0 7-.3 7.6-.9 2-3.5 2.1-4.6.3-.3-.5-.3-.8-.3-1.8 0-1.1 0-1.2.4-1.5.3-.2.6-.7.8-1.1 1.2-2.6-1.1-5.5-3.9-5a3.6 3.6 0 0 0-1.6 6.1c.4.4.4.5.4 1.4 0 2.9 1.4 5.2 3.8 6.4.8.4 1.2.4 2.4.5 1 0 1.5 0 2-.2a6.3 6.3 0 0 0 3.6-2.8c1-1.5 1-1.4 1-11V134h2v17.2c.5 2 1.9 3.9 3.7 4.8 1 .4 1 .4 2.7.4 1.5 0 1.8 0 2.5-.3a6.4 6.4 0 0 0 3.8-6.1v-1.3l.6-.6c1-1 1.3-2.2.9-3.5-.3-1-.8-1.6-1.7-2-.6-.4-1-.5-1.7-.5a3.5 3.5 0 0 0-2.3 6c.5.5.5.5.5 1.5 0 1.2-.3 2-1 2.5-1.2 1.1-3 .8-3.9-.6l-.3-.6v-14.1l.5.7c.2.4.7.9 1.1 1.1 1.3 1 1.3 1 7.1 1l5.6.1c.5.1.7.7.7 1.8 0 1 0 1-.5 1.5-.8.8-1.1 1.5-1.1 2.6 0 2 1.4 3.4 3.4 3.4s3.5-1.4 3.5-3.4c0-1-.3-1.6-1-2.5l-.6-.6V141c-.1-1.3-.2-1.8-.4-2.3-.5-1-1.4-1.9-2.3-2.3l-.8-.4h-5.6l-5.7-.1-.3-.4c-.2-.2-.2-.6-.2-1v-.8h4c4-.1 4.1-.1 4.8-.5.9-.4 1.7-1.1 2.2-2l.4-.7v-4.2c0-3.6 0-4 .3-4.2.2-.2 1.2-.2 4.3-.2h4.2l.3.4c.4.6 1.4 1.1 2.3 1.2 2 .3 3.8-1.3 3.8-3.4a3.4 3.4 0 0 0-5.8-2.6l-.7.7H366l-.7.5c-.4.2-1 .6-1.3 1-1 1.1-1.1 1.4-1.2 5.9v4c-.1.2-.8.2-3 .2h-3l.6-.3c.8-.4 1.7-1.4 2.1-2.2l.4-.8V118c.1-8 .2-8.3.4-8.4.2-.2.7-.2 1.7-.2 1.3 0 1.4 0 1.7.3.5.6 1.4 1.1 2.4 1.2 1.7.1 3.1-.9 3.6-2.5.2-.8.2-1 0-2a3.3 3.3 0 0 0-3.4-2.4c-1 0-1.9.3-2.5 1l-.4.5h-1.5c-2.7 0-4.2.8-5.2 2.8l-.5 1v8.2c-.1 7.9-.1 8.2-.4 8.4-.2.1-.8.2-2.7.2h-2.5v-3h.5c1 0 2.1-.7 2.6-1.6a62 62 0 0 0 .2-11.7 7.1 7.1 0 0 0-4.9-5.6 6 6 0 0 0-2.4-.2c-1.3 0-1.5 0-2.5.5a7 7 0 0 0-3.8 4.6c-.2.8-.3 1.7-.3 6.2 0 5.6 0 5.9.7 6.8.4.5 1.5 1 2.2 1h.5v3h-2.5c-2.4 0-2.5 0-2.8-.3-.2-.3-.3-.7-.3-8.6l-.1-8.2-.4-.7c-.4-1-1.4-1.9-2.3-2.3-.7-.4-1-.4-2.6-.4-1.7-.1-1.8-.1-2-.4l-1-.8c-1-.6-2.3-.6-3.3 0Z" fill="url(#paint51_linear)" fill-opacity=".5"/>
      <path class="c3" d="M326 157c-1.6.9-2.3 2.6-1.7 4.3.2.8 1.4 2 2.1 2.2 1.4.4 2.7 0 3.6-.8l.5-.6h1.4c1.3 0 1.5 0 1.7.3.3.3.3.7.4 8.5v8.3l.4.7c.4.8 1.3 1.8 2 2.2l.6.3h-2.8c-2.2 0-2.9 0-3-.2-.1-.1-.2-1.7-.2-4.3v-4.1l-.5-.8c-.5-1-1.3-1.6-2.3-2-.7-.2-1-.3-5.2-.3h-4.4l-.5-.4a3.5 3.5 0 1 0-4 5.5c1.4.6 2.7.4 3.8-.7l.8-.7h4c3.4 0 4 0 4.3.3.3.2.3.2.3 4 0 3.6 0 4 .3 4.7.4 1 1.2 1.9 2.2 2.4.7.3.8.3 4.8.4h4.1v.9c0 1.4.4 1.3-6.1 1.4-5.5 0-5.6 0-6.3.4-.9.3-2 1.3-2.3 2.2a7 7 0 0 0-.6 3.1c0 1 0 1.1-.4 1.4-.3.2-.6.7-.8 1.2-.4.6-.4.9-.3 1.6.2 3.2 4 4.5 6 2.2a3 3 0 0 0 .9-2.4 3 3 0 0 0-1-2.4c-.6-.6-.6-.7-.6-1.8 0-1.9-.4-1.7 5.2-1.7l5.7-.1c1.7-.2 2.8-1 3.7-2.3l.4-.6v7c0 6.5 0 7-.3 7.5-.9 2-3.5 2.2-4.6.3-.3-.5-.3-.7-.3-1.7 0-1.2 0-1.2.4-1.6.3-.2.6-.7.8-1 1.2-2.7-1.1-5.6-3.9-5a3.5 3.5 0 0 0-1.6 6c.4.4.4.5.4 1.4 0 3 1.4 5.3 3.8 6.4.8.4 1.2.5 2.4.5 1 0 1.5 0 2-.2a6.3 6.3 0 0 0 3.6-2.7c1-1.6 1-1.4 1-11v-8.6h2V204c.5 2 1.9 3.8 3.7 4.7 1 .5 1 .5 2.7.5 1.5 0 1.8 0 2.5-.4a6.4 6.4 0 0 0 3.8-6.1v-1.3l.6-.6c1-1 1.3-2.2.9-3.5-.3-.9-.8-1.5-1.7-2-.6-.3-1-.4-1.7-.4a3.5 3.5 0 0 0-2.3 6c.5.5.5.5.5 1.5 0 1.1-.3 2-1 2.5-1.2 1-3 .8-3.9-.7l-.3-.6v-14.1l.5.7c.2.4.7 1 1.1 1.2 1.3.9 1.3.9 7.1 1h5.6c.5.2.7.7.7 1.9 0 1 0 1-.5 1.5-.8.7-1.1 1.5-1.1 2.5 0 2 1.4 3.5 3.4 3.5s3.5-1.5 3.5-3.5c0-1-.3-1.6-1-2.4l-.6-.6v-1.6c-.1-1.3-.2-1.8-.4-2.3-.5-1-1.4-2-2.3-2.4l-.8-.4h-11.3l-.3-.4c-.2-.3-.2-.6-.2-1.1v-.8h4c4 0 4.1 0 4.8-.4.9-.4 1.7-1.2 2.2-2l.4-.8v-4.1c0-3.7 0-4.1.3-4.3.2-.1 1.2-.2 4.3-.2h4.2l.3.5c.4.6 1.4 1 2.3 1.2 2 .2 3.8-1.4 3.8-3.4 0-1.1-.4-2-1.1-2.7a3.4 3.4 0 0 0-4.7.1l-.7.6h-4.6l-4.7.1-.7.4-1.3 1c-1 1.2-1.1 1.5-1.2 6v4c-.1.1-.8.2-3 .2h-3l.6-.3c.8-.5 1.7-1.4 2.1-2.3l.4-.8v-8.2c.1-8 .2-8.3.4-8.5.2-.1.7-.2 1.7-.2 1.3 0 1.4 0 1.7.4.5.6 1.4 1 2.4 1.1 1.7.2 3.1-.8 3.6-2.4.2-.9.2-1.1 0-2a3.3 3.3 0 0 0-3.4-2.5c-1 0-1.9.4-2.5 1l-.4.6h-1.5c-2.7 0-4.2.8-5.2 2.8l-.5 1v8.1c-.1 8-.1 8.2-.4 8.4-.2.2-.8.2-2.7.2h-2.5v-3h.5c1 0 2.1-.6 2.6-1.6a62 62 0 0 0 .2-11.7 7.1 7.1 0 0 0-4.9-5.5c-.7-.3-1.2-.3-2.4-.3-1.3 0-1.5.1-2.5.6a7 7 0 0 0-3.8 4.5c-.2.8-.3 1.7-.3 6.3 0 5.6 0 5.8.7 6.7.4.5 1.5 1 2.2 1h.5v3h-2.5c-2.4 0-2.5 0-2.8-.3-.2-.3-.3-.7-.3-8.5l-.1-8.3-.4-.7c-.4-1-1.4-1.8-2.3-2.3-.7-.3-1-.4-2.6-.4-1.7 0-1.8 0-2-.4l-1-.8c-1-.5-2.3-.6-3.3 0Z" fill="url(#paint52_linear)"/>
      <path class="a3" d="M326 50.8c-1.6.8-2.3 2.5-1.7 4.2.2.8 1.4 2 2.1 2.2 1.4.4 2.7 0 3.6-.8l.5-.6h1.4c1.3 0 1.5 0 1.7.3.3.3.3.7.4 8.5V73l.4.7c.4.8 1.3 1.8 2 2.2l.6.3h-2.8c-2.2 0-2.9 0-3-.2-.1-.1-.2-1.7-.2-4.3v-4.1l-.5-.8c-.5-1-1.3-1.6-2.3-2-.7-.2-1-.3-5.2-.3h-4.4l-.5-.4a3.5 3.5 0 1 0-4 5.5c1.4.6 2.7.4 3.8-.7l.8-.7h4c3.4 0 4 0 4.3.3.3.2.3.2.3 4 0 3.6 0 4 .3 4.7.4 1 1.2 1.9 2.2 2.4.7.3.8.3 4.8.4h4.1v.9c0 1.4.4 1.3-6.1 1.4-5.5 0-5.6 0-6.3.4-.9.3-2 1.3-2.3 2.2a7 7 0 0 0-.6 3.1c0 1 0 1.1-.4 1.4-.3.2-.6.7-.8 1.2-.4.6-.4.9-.3 1.7.2 3.1 4 4.4 6 2a3 3 0 0 0 .9-2.3 3 3 0 0 0-1-2.4c-.6-.6-.6-.7-.6-1.8 0-1.9-.4-1.7 5.2-1.7l5.7-.1c1.7-.2 2.8-1 3.7-2.3l.4-.6v7c0 6.5 0 7-.3 7.5-.9 2-3.5 2.2-4.6.3-.3-.5-.3-.7-.3-1.7 0-1.2 0-1.2.4-1.6.3-.2.6-.7.8-1 1.2-2.7-1.1-5.6-3.9-5a3.5 3.5 0 0 0-1.6 6c.4.4.4.5.4 1.4 0 3 1.4 5.3 3.8 6.4.8.4 1.2.5 2.4.5 1 0 1.5 0 2-.2a6.3 6.3 0 0 0 3.6-2.7c1-1.6 1-1.4 1-11v-8.6h2v17.3c.5 2 1.9 3.8 3.7 4.7 1 .5 1 .5 2.7.5 1.5 0 1.8 0 2.5-.4a6.4 6.4 0 0 0 3.8-6.1V95l.6-.6c1-1 1.3-2.2.9-3.5-.3-.9-.8-1.5-1.7-2-.6-.3-1-.4-1.7-.4a3.5 3.5 0 0 0-2.3 6c.5.5.5.5.5 1.5 0 1.1-.3 2-1 2.5-1.2 1-3 .8-3.9-.7l-.3-.6V83.1l.5.7c.2.4.7 1 1.1 1.2 1.3.9 1.3.9 7.1 1h5.6c.5.2.7.7.7 1.9 0 1 0 1-.5 1.5-.8.7-1.1 1.5-1.1 2.5 0 2 1.4 3.5 3.4 3.5s3.5-1.5 3.5-3.5c0-1-.3-1.6-1-2.4l-.6-.6v-1.6c-.1-1.3-.2-1.8-.4-2.3-.5-1-1.4-2-2.3-2.4l-.8-.4h-11.3l-.3-.4c-.2-.3-.2-.6-.2-1.1v-.8h4c4 0 4.1 0 4.8-.4.9-.4 1.7-1.2 2.2-2l.4-.8v-4.1c0-3.7 0-4.1.3-4.3.2-.1 1.2-.2 4.3-.2h4.2l.3.5c.4.6 1.4 1 2.3 1.2 2 .2 3.8-1.4 3.8-3.4 0-1.1-.4-2-1.1-2.7a3.4 3.4 0 0 0-4.7.1l-.7.6h-4.6l-4.7.1-.7.4-1.3 1c-1 1.2-1.1 1.5-1.2 6v4c-.1.1-.8.2-3 .2h-3l.6-.3c.8-.5 1.7-1.4 2.1-2.3l.4-.8v-8.2c.1-8 .2-8.3.4-8.5.2-.1.7-.2 1.7-.2 1.3 0 1.4 0 1.7.4.5.6 1.4 1 2.4 1.1 1.7.2 3.1-.8 3.6-2.4.2-.9.2-1.1 0-2a3.3 3.3 0 0 0-3.4-2.5c-1 0-1.9.4-2.5 1.1l-.4.5h-1.5c-2.7 0-4.2.8-5.2 2.8l-.5 1v8.1c-.1 8-.1 8.2-.4 8.4-.2.2-.8.2-2.7.2h-2.5v-3h.5c1 0 2.1-.6 2.6-1.6a62 62 0 0 0 .2-11.7 7.1 7.1 0 0 0-4.9-5.5c-.7-.3-1.2-.3-2.4-.3-1.3 0-1.5.1-2.5.6a7 7 0 0 0-3.8 4.5c-.2.8-.3 1.7-.3 6.3 0 5.6 0 5.8.7 6.7.4.5 1.5 1 2.2 1h.5v3h-2.5c-2.4 0-2.5 0-2.8-.3-.2-.3-.3-.7-.3-8.5l-.1-8.3-.4-.7c-.4-1-1.4-1.8-2.3-2.3-.7-.3-1-.4-2.6-.4-1.7 0-1.8 0-2-.4l-1-.8c-1-.5-2.3-.6-3.3 0Z" fill="url(#paint53_linear)" fill-opacity=".2"/>
      <path class="b2" d="M378.6 79.2c-1.5.8-2.2 2.5-1.7 4.3.2.7 1.4 2 2.2 2.1 1.3.4 2.6.1 3.5-.8l.6-.5h1.4c1.3 0 1.5 0 1.7.3.3.2.3.6.3 8.5l.1 8.2.4.7c.4.9 1.3 1.8 2 2.2l.6.3h-2.9c-2.1 0-2.8 0-3-.2l-.2-4.2v-4.2l-.4-.7c-.6-1-1.3-1.6-2.3-2-.7-.3-1.1-.3-5.2-.3h-4.5l-.4-.5a3.5 3.5 0 1 0-4 5.6c1.3.6 2.6.3 3.8-.7l.8-.7h4c3.4 0 4 0 4.3.2.3.2.3.3.3 4.1 0 3.6 0 4 .3 4.7.3 1 1.2 1.8 2.2 2.3.7.4.8.4 4.8.4l4 .1v.8c0 1.4.4 1.3-6 1.4-5.5 0-5.7.1-6.4.4-.8.4-1.9 1.4-2.3 2.2-.4.8-.6 1.9-.6 3.2 0 1 0 1-.4 1.4l-.8 1.1c-.3.7-.4 1-.3 1.7.3 3.2 4 4.5 6 2.1a3 3 0 0 0 .9-2.3 3 3 0 0 0-1-2.5c-.6-.6-.6-.6-.6-1.7 0-1.9-.3-1.8 5.2-1.8h5.8c1.6-.3 2.7-1 3.6-2.4l.4-.6v7c0 6.5 0 7-.2 7.6-1 2-3.6 2.1-4.6.3-.3-.5-.4-.8-.4-1.8 0-1.1 0-1.2.4-1.5.3-.2.6-.7.8-1.1 1.2-2.6-1-5.5-3.8-5a3.6 3.6 0 0 0-1.6 6.1c.4.4.4.5.4 1.4 0 3 1.4 5.2 3.8 6.4.8.4 1.1.4 2.3.5 1 0 1.5 0 2.1-.2a6.3 6.3 0 0 0 3.6-2.8c1-1.5 1-1.4 1-11v-8.5h1.9v8.2l.1 9c.4 2 1.8 3.9 3.7 4.8.9.4 1 .4 2.6.4s1.8 0 2.5-.3a6.4 6.4 0 0 0 3.8-6.1v-1.3l.7-.6c1-1 1.2-2.2.8-3.5-.2-1-.8-1.6-1.6-2-.6-.4-1-.5-1.7-.5a3.5 3.5 0 0 0-2.4 6c.5.5.6.6.6 1.5 0 1.2-.4 2-1 2.5-1.3 1.1-3 .8-4-.6l-.3-.6v-14.2l.5.8c.3.4.8 1 1.1 1.1 1.3 1 1.4 1 7.2 1l5.6.1c.4.1.6.7.6 1.8 0 1 0 1-.5 1.5-.8.8-1.1 1.5-1.1 2.6 0 2 1.4 3.4 3.5 3.4 2 0 3.4-1.4 3.4-3.4 0-1-.2-1.6-1-2.5l-.6-.6v-1.6c0-1.3-.1-1.8-.4-2.3-.4-1-1.3-1.9-2.3-2.3l-.8-.4H414l-5.6-.1-.3-.4c-.2-.2-.3-.5-.3-1v-.8h4c4-.1 4.2-.1 4.9-.5.8-.4 1.6-1.1 2.1-2l.4-.7V101c0-3.6.1-4 .3-4.2.2-.2 1.2-.2 4.4-.2h4.1l.3.4c.5.6 1.5 1.1 2.3 1.2 2.1.3 3.9-1.3 3.9-3.4 0-1-.4-2-1.2-2.6a3.4 3.4 0 0 0-4.7 0l-.6.7h-9.4l-.7.5c-.4.2-1 .6-1.3 1-1 1.1-1 1.4-1.1 5.9l-.1 4c0 .2-.8.2-3 .2h-3l.6-.3c.8-.4 1.7-1.4 2.2-2.2l.4-.8v-8.3c.1-8 .1-8.2.4-8.4.2-.2.7-.2 1.6-.2 1.4 0 1.5 0 1.7.3.5.6 1.5 1.1 2.4 1.2 1.7.1 3.1-.9 3.6-2.5.3-.8.3-1 0-2a3.3 3.3 0 0 0-3.3-2.4c-1 0-2 .3-2.5 1l-.5.5h-1.5c-2.7 0-4.2.8-5.2 2.8l-.4 1-.1 8.2c0 7.9 0 8.2-.3 8.4-.2.1-.9.2-2.8.2h-2.4v-3h.5c1 0 2-.7 2.6-1.6.2-.4.2-1.1.3-5.6 0-3.5 0-5.5-.2-6.2a7.1 7.1 0 0 0-4.8-5.5c-.8-.2-1.3-.3-2.4-.2-1.3 0-1.6.1-2.5.6a7 7 0 0 0-3.9 4.5c-.2.8-.2 1.7-.2 6.2 0 5.6 0 5.9.6 6.8.4.5 1.5 1 2.3 1h.5v3h-2.5c-2.4 0-2.6 0-2.8-.3-.3-.3-.3-.7-.4-8.6V84l-.4-.7c-.5-1-1.4-1.9-2.4-2.3-.7-.4-1-.4-2.6-.4-1.7-.1-1.8-.1-2-.4l-1-.8c-1-.6-2.2-.6-3.3 0Z" fill="url(#paint54_linear)" fill-opacity=".5"/>
      <path class="c2" d="M378.6 131.9c-1.5.8-2.2 2.5-1.7 4.2.2.8 1.4 2 2.2 2.2 1.3.4 2.6 0 3.5-.8l.6-.6h1.4c1.3 0 1.5 0 1.7.3.3.3.3.7.3 8.5l.1 8.3.4.7c.4.8 1.3 1.8 2 2.2l.6.3h-2.9c-2.1 0-2.8 0-3-.2l-.2-4.3v-4.1l-.4-.8c-.6-.9-1.3-1.6-2.3-2-.7-.2-1.1-.3-5.2-.3h-4.5l-.4-.4a3.5 3.5 0 1 0-4 5.5c1.3.6 2.6.4 3.8-.7l.8-.7h4c3.4 0 4 0 4.3.3.3.2.3.2.3 4 0 3.6 0 4 .3 4.7.3 1 1.2 1.9 2.2 2.4.7.3.8.3 4.8.4h4v.9c0 1.4.4 1.3-6 1.4-5.5 0-5.7 0-6.4.4-.8.3-1.9 1.3-2.3 2.2-.4.7-.6 1.8-.6 3.1 0 1 0 1.1-.4 1.4-.2.2-.6.7-.8 1.2-.3.6-.4.9-.3 1.7.3 3.1 4 4.4 6 2a3 3 0 0 0 .9-2.3 3 3 0 0 0-1-2.4c-.6-.6-.6-.6-.6-1.8 0-1.9-.3-1.7 5.2-1.7l5.8-.1c1.6-.2 2.7-1 3.6-2.3l.4-.6v7c0 6.5 0 7-.2 7.5-1 2-3.6 2.2-4.6.3-.3-.5-.4-.7-.4-1.7 0-1.2 0-1.2.4-1.6.3-.2.6-.7.8-1 1.2-2.7-1-5.6-3.8-5a3.6 3.6 0 0 0-1.6 6c.4.4.4.5.4 1.4 0 3 1.4 5.3 3.8 6.4.8.4 1.1.5 2.3.5 1 0 1.5 0 2.1-.2a6.3 6.3 0 0 0 3.6-2.7c1-1.6 1-1.4 1-11v-8.6h1.9v8.3l.1 9c.4 2 1.8 3.9 3.7 4.7.9.5 1 .5 2.6.5s1.8 0 2.5-.4a6.4 6.4 0 0 0 3.8-6V176l.7-.6c1-1 1.2-2.2.8-3.5-.2-.9-.8-1.5-1.6-2-.6-.3-1-.4-1.7-.4a3.5 3.5 0 0 0-2.4 6c.5.5.6.5.6 1.5 0 1.1-.4 2-1 2.5-1.3 1-3 .8-4-.7l-.3-.6v-14.1l.5.7 1.1 1.2c1.3.9 1.4.9 7.2 1h5.6c.4.2.6.7.6 1.9 0 1 0 1-.5 1.5-.8.7-1.1 1.5-1.1 2.5 0 2 1.4 3.5 3.5 3.5 2 0 3.4-1.5 3.4-3.5 0-1-.2-1.6-1-2.4l-.6-.6v-1.6c0-1.3-.1-1.8-.4-2.3-.4-1-1.3-2-2.3-2.4l-.8-.4h-11.2l-.3-.4c-.2-.3-.3-.6-.3-1.1v-.8h4c4 0 4.2 0 4.9-.4.8-.4 1.6-1.2 2.1-2l.4-.8v-4.1c0-3.7.1-4.1.3-4.3.2-.1 1.2-.2 4.4-.2h4.1l.3.5c.5.6 1.5 1 2.3 1.2 2.1.2 3.9-1.4 3.9-3.4 0-1.1-.4-2-1.2-2.7a3.4 3.4 0 0 0-4.7.1l-.6.6h-4.7l-4.7.1-.7.4-1.3 1c-1 1.2-1 1.5-1.1 6l-.1 4c0 .1-.8.2-3 .2h-3l.6-.3c.8-.5 1.7-1.4 2.2-2.3l.4-.8v-8.2c.1-8 .1-8.3.4-8.5.2-.1.7-.2 1.6-.2 1.4 0 1.5 0 1.7.4.5.6 1.5 1 2.4 1.1 1.7.2 3.1-.8 3.6-2.4.3-.9.3-1.1 0-2a3.3 3.3 0 0 0-3.3-2.5c-1 0-2 .4-2.5 1.1l-.5.5h-1.5c-2.7 0-4.2.8-5.2 2.8l-.4 1-.1 8.1c0 8 0 8.2-.3 8.4-.2.2-.9.2-2.8.2h-2.4v-2.9h.5c1 0 2-.7 2.6-1.7.2-.3.2-1 .3-5.6 0-3.4 0-5.5-.2-6.1a7.1 7.1 0 0 0-4.8-5.5c-.8-.3-1.3-.3-2.4-.3-1.3 0-1.6.1-2.5.6a7 7 0 0 0-3.9 4.5c-.2.8-.2 1.7-.2 6.3 0 5.6 0 5.9.6 6.7.4.5 1.5 1 2.3 1h.5v3h-2.5c-2.4 0-2.6 0-2.8-.3-.3-.3-.3-.7-.4-8.5v-8.2l-.4-.8c-.5-1-1.4-1.8-2.4-2.3-.7-.3-1-.3-2.6-.4-1.7 0-1.8 0-2-.4l-1-.8c-1-.5-2.2-.5-3.3 0Z" fill="url(#paint55_linear)"/>
      <path class="a2" d="M378.6 25.6c-1.5.8-2.2 2.5-1.7 4.2.2.8 1.4 2 2.2 2.2 1.3.4 2.6 0 3.5-.8l.6-.6h1.4c1.3 0 1.5 0 1.7.3.3.3.3.7.3 8.5l.1 8.3.4.7c.4.8 1.3 1.8 2 2.2l.6.3h-2.9c-2.1 0-2.8 0-3-.2l-.2-4.3v-4.1l-.4-.8c-.6-.9-1.3-1.6-2.3-2-.7-.2-1.1-.2-5.2-.2h-4.5l-.4-.5a3.5 3.5 0 1 0-4 5.5c1.3.6 2.6.4 3.8-.7l.8-.7h4c3.4 0 4 0 4.3.3.3.2.3.2.3 4 0 3.6 0 4 .3 4.7.3 1 1.2 1.9 2.2 2.4.7.3.8.3 4.8.4h4v.9c0 1.4.4 1.3-6 1.4-5.5 0-5.7 0-6.4.4-.8.3-1.9 1.3-2.3 2.2-.4.7-.6 1.8-.6 3.1 0 1 0 1.1-.4 1.4-.2.2-.6.7-.8 1.2-.3.6-.4.9-.3 1.7.3 3.1 4 4.4 6 2a3 3 0 0 0 .9-2.3 3 3 0 0 0-1-2.4c-.6-.6-.6-.6-.6-1.8 0-1.9-.3-1.7 5.2-1.7l5.8-.1c1.6-.2 2.7-1 3.6-2.3l.4-.6v7c0 6.5 0 7-.2 7.5-1 2-3.6 2.2-4.6.3-.3-.5-.4-.7-.4-1.7 0-1.2 0-1.2.4-1.6.3-.2.6-.7.8-1 1.2-2.7-1-5.6-3.8-5a3.5 3.5 0 0 0-1.6 6c.4.4.4.5.4 1.4 0 3 1.4 5.3 3.8 6.4.8.4 1.1.5 2.3.5 1 0 1.5 0 2.1-.2a6.3 6.3 0 0 0 3.6-2.7c1-1.6 1-1.4 1-11v-8.6h1.9v8.3l.1 9c.4 2 1.8 3.9 3.7 4.7.9.5 1 .5 2.6.5s1.8 0 2.5-.4a6.4 6.4 0 0 0 3.8-6v-1.4l.7-.6c1-1 1.2-2.2.8-3.5-.2-.9-.8-1.5-1.6-2-.6-.3-1-.4-1.7-.4a3.5 3.5 0 0 0-2.4 6c.5.5.6.5.6 1.5 0 1.1-.4 2-1 2.5-1.3 1-3 .8-4-.7l-.3-.6V58l.5.7 1.1 1.2c1.3.9 1.4.9 7.2 1h5.6c.4.2.6.7.6 1.9 0 1 0 1-.5 1.5-.8.7-1.1 1.5-1.1 2.5 0 2 1.4 3.5 3.5 3.5 2 0 3.4-1.5 3.4-3.5 0-1-.2-1.6-1-2.4l-.6-.6v-1.6c0-1.3-.1-1.8-.4-2.3-.4-1-1.3-2-2.3-2.4l-.8-.4h-11.2l-.3-.4c-.2-.3-.3-.6-.3-1.1v-.8h4c4 0 4.2 0 4.9-.4.8-.4 1.6-1.2 2.1-2l.4-.8v-4.1c0-3.7.1-4.1.3-4.3.2-.1 1.2-.2 4.4-.2h4.1l.3.5c.5.6 1.5 1 2.3 1.2 2.1.2 3.9-1.4 3.9-3.4 0-1.1-.4-2-1.2-2.7a3.4 3.4 0 0 0-4.7.1l-.6.6h-4.7l-4.7.1-.7.4-1.3 1c-1 1.2-1 1.5-1.1 6l-.1 4c0 .1-.8.2-3 .2h-3l.6-.3c.8-.5 1.7-1.4 2.2-2.3l.4-.8v-8.2c.1-8 .1-8.3.4-8.5.2-.1.7-.2 1.6-.2 1.4 0 1.5 0 1.7.4.5.6 1.5 1 2.4 1.1 1.7.2 3.1-.8 3.6-2.4.3-.9.3-1.1 0-2a3.3 3.3 0 0 0-3.3-2.5c-1 0-2 .4-2.5 1.1l-.5.5h-1.5c-2.7 0-4.2.8-5.2 2.8l-.4 1-.1 8.1c0 8 0 8.2-.3 8.4-.2.2-.9.2-2.8.2h-2.4v-2.9h.5c1 0 2-.7 2.6-1.7.2-.3.2-1 .3-5.6 0-3.4 0-5.5-.2-6.1a7.1 7.1 0 0 0-4.8-5.5c-.8-.3-1.3-.3-2.4-.3-1.3 0-1.6.1-2.5.6a7 7 0 0 0-3.9 4.5c-.2.8-.2 1.7-.2 6.3 0 5.6 0 5.9.6 6.7.4.5 1.5 1 2.3 1h.5v3h-2.5c-2.4 0-2.6 0-2.8-.3-.3-.3-.3-.7-.4-8.5v-8.2l-.4-.8c-.5-1-1.4-1.8-2.4-2.3-.7-.3-1-.3-2.6-.4-1.7 0-1.8 0-2-.4l-1-.8c-1-.5-2.2-.5-3.3 0Z" fill="url(#paint56_linear)" fill-opacity=".2"/>
      <path class="b6" d="M171.8 128.6c-1.5.8-2.2 2.5-1.7 4.3.3.7 1.4 2 2.2 2.1 1.3.4 2.7.1 3.5-.8l.6-.6h1.4c1.3 0 1.5 0 1.7.3.3.3.3.7.4 8.6v8.2l.4.7c.4.9 1.3 1.8 2 2.2l.6.3h-2.8c-2.2 0-3 0-3-.2-.1 0-.2-1.6-.2-4.3v-4l-.5-.8c-.5-1-1.3-1.7-2.3-2-.7-.3-1-.3-5.2-.3h-4.5l-.4-.5a3.5 3.5 0 1 0-4 5.6c1.3.6 2.6.3 3.8-.7l.8-.7h4c3.4 0 4 0 4.3.2.3.2.3.2.3 4.1 0 3.6 0 4 .3 4.7.4 1 1.2 1.8 2.2 2.3.7.4.8.4 4.8.4l4.1.1v.8c0 1.4.4 1.3-6.1 1.4-5.5 0-5.6 0-6.4.4-.8.4-1.8 1.4-2.3 2.2a7 7 0 0 0-.5 3.2c0 1 0 1-.5 1.4l-.8 1.1c-.3.7-.3.9-.3 1.7.3 3.1 4 4.4 6 2.1a3 3 0 0 0 1-2.3 3 3 0 0 0-1-2.5c-.6-.6-.6-.6-.6-1.7 0-2-.4-1.8 5.1-1.8l5.8-.1c1.7-.2 2.8-.9 3.7-2.3l.4-.6v7c0 6.5 0 7-.3 7.6-.9 2-3.5 2.1-4.6.3-.3-.5-.4-.8-.4-1.8 0-1.1 0-1.2.5-1.5l.8-1.1c1.2-2.6-1.1-5.5-4-5a3.6 3.6 0 0 0-1.5 6c.4.5.4.6.4 1.5 0 2.9 1.4 5.2 3.8 6.4.8.4 1.2.4 2.3.5 1 0 1.6 0 2.2-.2a6.3 6.3 0 0 0 3.5-2.8c1-1.5 1-1.4 1-11v-8.5h2v17.2c.4 2 1.9 3.9 3.7 4.8 1 .4 1 .4 2.7.4 1.5 0 1.7 0 2.4-.3a6.4 6.4 0 0 0 3.9-6.2V173l.6-.7c1-1 1.3-2.1.9-3.4-.3-1-.8-1.6-1.7-2-.6-.4-1-.5-1.7-.5a3.5 3.5 0 0 0-2.3 6c.5.5.5.5.5 1.5 0 1.2-.3 2-1 2.5-1.3 1.1-3 .8-3.9-.6l-.3-.6V161l.4.7c.3.4.8.9 1.2 1.1 1.3 1 1.3 1 7.1 1l5.6.1c.4.1.6.7.6 1.8 0 1 0 1-.5 1.5-.7.8-1 1.5-1 2.6 0 2 1.4 3.4 3.4 3.4s3.4-1.4 3.4-3.4c0-1-.2-1.6-1-2.5l-.6-.6v-1.6c0-1.3-.1-1.8-.4-2.3-.4-1-1.3-1.9-2.3-2.3l-.7-.4H207l-5.6-.1-.3-.4c-.2-.2-.3-.6-.3-1.1v-.7h4.1c4-.1 4.1-.1 4.8-.5.9-.4 1.7-1.1 2.1-2l.4-.8v-4c.1-3.7.1-4.2.4-4.4l4.3-.1h4.2l.3.4c.4.6 1.4 1.1 2.3 1.2 2 .2 3.8-1.3 3.8-3.4 0-1-.4-2-1.2-2.6a3.4 3.4 0 0 0-4.7 0l-.6.7h-9.3l-.8.4-1.3 1c-1 1.2-1 1.5-1 6l-.2 4c0 .2-.8.2-3 .2h-3l.6-.3c.9-.4 1.8-1.4 2.2-2.2l.4-.8v-8.3c.1-8 .1-8.3.4-8.5.2 0 .7-.2 1.7-.2 1.3 0 1.4 0 1.7.4.4.6 1.4 1 2.4 1.2 1.6.1 3-.9 3.5-2.5.3-.8.3-1 0-2a3.3 3.3 0 0 0-3.3-2.4c-1 0-1.9.3-2.5 1l-.4.5h-1.5c-2.8 0-4.3.8-5.2 2.8l-.5 1v8.2c-.1 7.9-.2 8.2-.4 8.4-.2.1-.8.2-2.7.2h-2.5v-3h.5c1 0 2-.7 2.6-1.6.2-.4.2-1.1.3-5.6l-.1-6.2a7.1 7.1 0 0 0-4.9-5.5c-.8-.2-1.2-.3-2.4-.2-1.3 0-1.5 0-2.5.5a7 7 0 0 0-3.8 4.5c-.2.9-.3 1.8-.3 6.3 0 5.6 0 5.9.7 6.7.4.6 1.5 1 2.2 1h.5v3.1h-2.5c-2.4 0-2.6 0-2.8-.3-.3-.3-.3-.7-.4-8.6v-8.2l-.4-.7c-.4-1-1.4-1.9-2.4-2.3-.7-.4-1-.4-2.6-.5-1.7 0-1.8 0-2-.3 0-.2-.5-.6-1-.8-1-.6-2.2-.6-3.3 0Z" fill="url(#paint57_linear)" fill-opacity=".5"/>
      <path class="c6" d="M171.8 181.3c-1.5.7-2.2 2.4-1.7 4.2.3.8 1.4 2 2.2 2.2 1.3.4 2.7 0 3.5-.8l.6-.6h1.4c1.3 0 1.5 0 1.7.3.3.3.3.7.4 8.5v8.3l.4.7c.4.8 1.3 1.8 2 2.2l.6.2h-2.8l-3-.1c-.1-.1-.2-1.7-.2-4.3V198l-.5-.8c-.5-1-1.3-1.6-2.3-2-.7-.2-1-.3-5.2-.3h-4.5l-.4-.4a3.5 3.5 0 1 0-4 5.5c1.3.6 2.6.4 3.8-.7l.8-.7h4c3.4 0 4 0 4.3.3.3.2.3.2.3 4 0 3.6 0 4 .3 4.7.4 1 1.2 1.9 2.2 2.4.7.3.8.3 4.8.4h4.1v.9c0 1.4.4 1.3-6.1 1.4-5.5 0-5.6 0-6.4.4-.8.3-1.8 1.3-2.3 2.2a7 7 0 0 0-.5 3.1c0 1 0 1.1-.5 1.4l-.8 1.2c-.3.6-.3.9-.3 1.6.3 3.2 4 4.5 6 2.2a3 3 0 0 0 1-2.4 3 3 0 0 0-1-2.4c-.6-.6-.6-.7-.6-1.8 0-1.9-.4-1.7 5.1-1.7l5.8-.1c1.7-.2 2.8-1 3.7-2.3l.4-.7v7c0 6.6 0 7.1-.3 7.6-.9 2-3.5 2.2-4.6.3-.3-.5-.4-.8-.4-1.7 0-1.2 0-1.2.5-1.6l.8-1c1.2-2.7-1.1-5.6-4-5a3.6 3.6 0 0 0-1.5 6c.4.4.4.5.4 1.4 0 3 1.4 5.3 3.8 6.4.8.4 1.2.5 2.3.5 1 0 1.6 0 2.2-.2a6.3 6.3 0 0 0 3.5-2.7c1-1.6 1-1.4 1-11v-8.6h2v17.3c.4 2 1.9 3.8 3.7 4.7 1 .5 1 .5 2.7.5 1.5 0 1.7 0 2.4-.4a6.4 6.4 0 0 0 3.9-6.1v-1.3l.6-.6c1-1 1.3-2.2.9-3.5-.3-.9-.8-1.5-1.7-2-.6-.4-1-.4-1.7-.4a3.5 3.5 0 0 0-2.3 6c.5.5.5.5.5 1.5 0 1.1-.3 2-1 2.5-1.3 1-3 .7-3.9-.7l-.3-.6v-14.1l.4.7c.3.4.8 1 1.2 1.2 1.3.9 1.3.9 7.1 1h5.6c.4.2.6.7.6 1.9 0 1 0 1-.5 1.5-.7.7-1 1.5-1 2.5 0 2 1.4 3.5 3.4 3.5s3.4-1.5 3.4-3.5c0-1-.2-1.6-1-2.4l-.6-.6v-1.6c0-1.3-.1-1.8-.4-2.3-.4-1-1.3-2-2.3-2.4l-.7-.4h-11.3l-.3-.4c-.2-.3-.3-.6-.3-1.1v-.8h4.1c4 0 4.1-.1 4.8-.4.9-.4 1.7-1.2 2.1-2l.4-.8v-4.1c.1-3.7.1-4.1.4-4.3.1-.1 1.2-.2 4.3-.2h4.2l.3.5c.4.6 1.4 1 2.3 1.2 2 .2 3.8-1.4 3.8-3.4 0-1.1-.4-2-1.2-2.7a3.4 3.4 0 0 0-4.7.1l-.6.6h-4.7l-4.6.1-.8.4-1.3 1c-1 1.2-1 1.5-1 6l-.2 4c0 .1-.8.2-3 .2h-3l.6-.3c.9-.5 1.8-1.4 2.2-2.3l.4-.8V195c.1-8 .1-8.3.4-8.5.2-.1.7-.2 1.7-.2 1.3 0 1.4 0 1.7.4.4.6 1.4 1 2.4 1.1 1.6.2 3-.8 3.5-2.4.3-.9.3-1.1 0-2a3.3 3.3 0 0 0-3.3-2.5c-1 0-1.9.4-2.5 1l-.4.6h-1.5c-2.8 0-4.3.8-5.2 2.8l-.5 1v8.1c-.1 8-.2 8.2-.4 8.4-.2.2-.8.2-2.7.2h-2.5v-3h.5c1 0 2-.6 2.6-1.6.2-.4.2-1 .3-5.6l-.1-6.1a7.1 7.1 0 0 0-4.9-5.5c-.8-.3-1.2-.3-2.4-.3-1.3 0-1.5.1-2.5.6a7 7 0 0 0-3.8 4.5c-.2.8-.3 1.7-.3 6.3 0 5.6 0 5.8.7 6.7.4.5 1.5 1 2.2 1h.5v3h-2.5c-2.4 0-2.6 0-2.8-.3-.3-.3-.3-.7-.4-8.5v-8.3l-.4-.7c-.4-1-1.4-1.8-2.4-2.3-.7-.3-1-.4-2.6-.4-1.7 0-1.8 0-2-.4 0-.2-.5-.5-1-.8-1-.5-2.2-.6-3.3 0Z" fill="url(#paint58_linear)"/>
      <path class="a6" d="M171.8 76c-1.5.7-2.2 2.4-1.7 4.2.3.8 1.4 2 2.2 2.2 1.3.4 2.7 0 3.5-.8l.6-.6h1.4c1.3 0 1.5 0 1.7.3.3.3.3.7.4 8.5v8.3l.4.7c.4.8 1.3 1.8 2 2.2l.6.2h-2.8l-3-.1c-.1-.1-.2-1.7-.2-4.3v-4.1l-.5-.8c-.5-1-1.3-1.6-2.3-2-.7-.2-1-.3-5.2-.3h-4.5l-.4-.4a3.5 3.5 0 1 0-4 5.5c1.3.6 2.6.4 3.8-.7l.8-.7h4c3.4 0 4 0 4.3.3.3.2.3.2.3 4 0 3.6 0 4 .3 4.7.4 1 1.2 1.9 2.2 2.4.7.3.8.3 4.8.4h4.1v.9c0 1.4.4 1.3-6.1 1.4-5.5 0-5.6 0-6.4.4-.8.3-1.8 1.3-2.3 2.2a7 7 0 0 0-.5 3.1c0 1 0 1.1-.5 1.4l-.8 1.2c-.3.6-.3.9-.3 1.6.3 3.2 4 4.5 6 2.2a3 3 0 0 0 1-2.4 3 3 0 0 0-1-2.4c-.6-.6-.6-.7-.6-1.8 0-1.9-.4-1.7 5.1-1.7l5.8-.1c1.7-.2 2.8-1 3.7-2.3l.4-.7v7c0 6.6 0 7.1-.3 7.6-.9 2-3.5 2.2-4.6.3-.3-.5-.4-.8-.4-1.7 0-1.2 0-1.2.5-1.6l.8-1c1.2-2.7-1.1-5.6-4-5a3.5 3.5 0 0 0-1.5 6c.4.4.4.5.4 1.4 0 3 1.4 5.3 3.8 6.4.8.4 1.2.5 2.3.5 1 0 1.6 0 2.2-.2a6.3 6.3 0 0 0 3.5-2.7c1-1.6 1-1.4 1-11v-8.6h2v17.3c.4 2 1.9 3.8 3.7 4.7 1 .5 1 .5 2.7.5 1.5 0 1.7 0 2.4-.4a6.4 6.4 0 0 0 3.9-6.1v-1.3l.6-.6c1-1 1.3-2.2.9-3.5-.3-.9-.8-1.5-1.7-2-.6-.4-1-.4-1.7-.4a3.5 3.5 0 0 0-2.3 6c.5.5.5.5.5 1.5 0 1.1-.3 2-1 2.5-1.3 1-3 .7-3.9-.7l-.3-.6v-14.1l.4.7c.3.4.8 1 1.2 1.2 1.3.9 1.3.9 7.1 1h5.6c.4.2.6.7.6 1.9 0 1 0 1-.5 1.5-.7.7-1 1.5-1 2.5 0 2 1.4 3.5 3.4 3.5s3.4-1.5 3.4-3.5c0-1-.2-1.6-1-2.4l-.6-.6v-1.6c0-1.3-.1-1.8-.4-2.3-.4-1-1.3-2-2.3-2.4l-.7-.4h-11.3l-.3-.4c-.2-.3-.3-.6-.3-1.1v-.8h4.1c4 0 4.1-.1 4.8-.4.9-.4 1.7-1.2 2.1-2l.4-.8v-4.1c.1-3.7.1-4.1.4-4.3.1-.1 1.2-.2 4.3-.2h4.2l.3.5c.4.6 1.4 1 2.3 1.2 2 .2 3.8-1.4 3.8-3.4 0-1.1-.4-2-1.2-2.7a3.4 3.4 0 0 0-4.7.1l-.6.6h-4.7l-4.6.1-.8.4-1.3 1c-1 1.2-1 1.5-1 6l-.2 4c0 .1-.8.2-3 .2h-3l.6-.3c.9-.5 1.8-1.4 2.2-2.3l.4-.8v-8.2c.1-8 .1-8.3.4-8.5.2-.1.7-.2 1.7-.2 1.3 0 1.4 0 1.7.4.4.6 1.4 1 2.4 1.1 1.6.2 3-.8 3.5-2.4.3-.9.3-1.1 0-2a3.3 3.3 0 0 0-3.3-2.5c-1 0-1.9.4-2.5 1l-.4.6h-1.5c-2.8 0-4.3.8-5.2 2.8l-.5 1V89c-.1 8-.2 8.2-.4 8.4-.2.2-.8.2-2.7.2h-2.5v-3h.5c1 0 2-.6 2.6-1.6.2-.4.2-1 .3-5.6l-.1-6.1a7.1 7.1 0 0 0-4.9-5.5c-.8-.3-1.2-.3-2.4-.3-1.3 0-1.5.1-2.5.6a7 7 0 0 0-3.8 4.5c-.2.8-.3 1.7-.3 6.3 0 5.6 0 5.8.7 6.7.4.5 1.5 1 2.2 1h.5v3h-2.5c-2.4 0-2.6 0-2.8-.3-.3-.3-.3-.7-.4-8.5v-8.3l-.4-.7c-.4-1-1.4-1.8-2.4-2.3-.7-.3-1-.4-2.6-.4-1.7 0-1.8 0-2-.4 0-.2-.5-.5-1-.8-1-.5-2.2-.6-3.3 0Z" fill="url(#paint59_linear)" fill-opacity=".2"/>
      <path class="b7" d="M119.2 103.4c-1.5.8-2.2 2.5-1.7 4.3.2.7 1.4 2 2.2 2.1 1.3.4 2.6.1 3.5-.8l.5-.5h1.5c1.3 0 1.4 0 1.7.2.2.3.2.7.3 8.6v8.2l.4.7c.5.9 1.3 1.8 2.1 2.2l.6.3h-2.9c-2.1 0-2.9 0-3-.2 0 0-.2-1.6-.2-4.2V120l-.4-.7c-.6-1-1.3-1.7-2.3-2-.7-.3-1.1-.3-5.3-.3h-4.4l-.4-.5a3.5 3.5 0 1 0-4 5.6c1.3.6 2.6.3 3.8-.7l.8-.7h4c3.3 0 4 0 4.3.2.3.2.3.2.3 4.1 0 3.6 0 4 .3 4.7.3 1 1.2 1.8 2.1 2.3.7.4.9.4 4.9.4l4 .1v.8c0 1.4.4 1.3-6 1.4-5.6 0-5.7 0-6.4.4-.8.4-1.9 1.4-2.3 2.2a7 7 0 0 0-.6 3.2c0 1 0 1-.4 1.4l-.8 1.1c-.3.7-.4 1-.3 1.7.2 3.1 4 4.4 6 2.1a3 3 0 0 0 .9-2.3 3 3 0 0 0-1-2.5c-.6-.6-.6-.6-.6-1.7 0-2-.3-1.8 5.2-1.8h5.7c1.7-.3 2.8-1 3.7-2.4l.4-.6v7c0 6.5 0 7-.2 7.6-1 2-3.6 2.1-4.7.3-.3-.5-.3-.8-.3-1.8 0-1.1 0-1.2.4-1.5.3-.2.6-.7.8-1.1 1.2-2.6-1-5.5-3.9-5a3.5 3.5 0 0 0-1.6 6c.4.5.5.6.5 1.5 0 2.9 1.4 5.2 3.7 6.4.9.4 1.2.4 2.4.5 1 0 1.5 0 2.1-.2a6.3 6.3 0 0 0 3.6-2.8c1-1.5.9-1.4.9-11V133h2v8.2l.1 9c.4 2 1.8 3.9 3.7 4.8.9.4 1 .4 2.6.4 1.5 0 1.8 0 2.5-.3a6.4 6.4 0 0 0 3.8-6.1v-1.3l.6-.6c1-1 1.3-2.2 1-3.5-.4-1-.9-1.6-1.8-2-.6-.4-.9-.5-1.6-.5-3.2 0-4.7 3.9-2.4 6 .5.5.5.5.5 1.5 0 1.2-.3 2-1 2.5-1.2 1.1-3 .8-3.8-.6l-.4-.6v-14.1l.5.7 1.1 1.1c1.3 1 1.4 1 7.2 1l5.6.1c.4.1.6.7.6 1.8 0 1 0 1-.5 1.5-.8.8-1.1 1.5-1.1 2.6 0 2 1.4 3.4 3.4 3.4s3.5-1.4 3.5-3.4c0-1-.3-1.6-1-2.5l-.6-.6V140c-.1-1.3-.2-1.8-.4-2.3-.4-1-1.4-1.9-2.3-2.3l-.8-.4h-5.6l-5.6-.1-.3-.4c-.2-.2-.3-.6-.3-1v-.8h4c4-.1 4.2-.1 4.8-.5 1-.4 1.7-1.1 2.2-2l.4-.7v-4.2c0-3.6.1-4 .3-4.3l4.4-.1h4.1l.3.4c.4.6 1.4 1.1 2.3 1.2 2 .3 3.8-1.3 3.8-3.4 0-1-.3-2-1.1-2.6a3.4 3.4 0 0 0-4.7 0l-.7.7h-9.3l-.7.4-1.3 1c-1 1.2-1 1.5-1.1 6l-.1 4c0 .2-.8.2-3 .2h-3l.6-.3c.8-.4 1.7-1.4 2.2-2.2l.3-.8.1-8.3c0-8 0-8.3.3-8.4.2-.2.7-.2 1.7-.2 1.4 0 1.4 0 1.7.3.5.6 1.5 1.1 2.4 1.2 1.7.1 3.1-.9 3.6-2.5.3-.8.3-1 0-2a3.3 3.3 0 0 0-3.3-2.4c-1.1 0-2 .3-2.6 1l-.4.5H155c-2.7 0-4.2.8-5.2 2.8l-.4 1-.1 8.2c0 7.9-.1 8.2-.4 8.4-.2.1-.8.2-2.7.2h-2.4v-3h.5c1 0 2-.7 2.6-1.6.2-.4.2-1.1.2-5.6v-6.2a7.1 7.1 0 0 0-5-5.5c-.7-.2-1.2-.3-2.3-.2-1.3 0-1.6 0-2.5.5a7 7 0 0 0-3.9 4.6c-.2.8-.2 1.7-.2 6.2 0 5.6 0 5.9.6 6.7.4.6 1.5 1.1 2.2 1.1h.6v3H134c-2.4 0-2.5 0-2.8-.3-.2-.3-.2-.7-.3-8.6v-8.2l-.4-.7c-.5-1-1.4-1.9-2.4-2.3-.7-.4-1-.4-2.6-.4-1.7-.1-1.8-.1-2-.4l-1-.8c-1-.6-2.2-.6-3.3 0Z" fill="url(#paint60_linear)" fill-opacity=".5"/>
      <path class="c7" d="M119.2 156c-1.5.8-2.2 2.6-1.7 4.3.2.8 1.4 2 2.2 2.2 1.3.4 2.6 0 3.5-.8l.5-.6h1.5c1.3 0 1.4 0 1.7.3.2.3.2.7.3 8.5v8.3l.4.7c.5.8 1.3 1.8 2.1 2.2l.6.3h-2.9c-2.1 0-2.9 0-3-.2 0-.1-.2-1.7-.2-4.3v-4.1l-.4-.8c-.6-1-1.3-1.6-2.3-2-.7-.2-1.1-.3-5.3-.3h-4.4l-.4-.4a3.5 3.5 0 1 0-4 5.5c1.3.6 2.6.4 3.8-.7l.8-.7h4c3.3 0 4 0 4.3.3.3.2.3.2.3 4 0 3.6 0 4 .3 4.7.3 1 1.2 1.9 2.1 2.4.7.3.9.3 4.9.4h4v.9c0 1.4.4 1.3-6 1.4-5.6 0-5.7 0-6.4.4-.8.3-1.9 1.3-2.3 2.2a7 7 0 0 0-.6 3.1c0 1 0 1.1-.4 1.4-.2.2-.6.7-.8 1.2-.3.6-.4.9-.3 1.6.2 3.2 4 4.5 6 2.2a3 3 0 0 0 .9-2.4 3 3 0 0 0-1-2.4c-.6-.6-.6-.7-.6-1.8 0-1.9-.3-1.7 5.2-1.7l5.7-.1c1.7-.2 2.8-1 3.7-2.3l.4-.6v7c0 6.5 0 7-.2 7.5-1 2-3.6 2.2-4.7.3-.3-.5-.3-.7-.3-1.7 0-1.2 0-1.2.4-1.6.3-.2.6-.7.8-1 1.2-2.7-1-5.6-3.9-5a3.5 3.5 0 0 0-1.6 6c.4.4.5.5.5 1.4 0 3 1.4 5.3 3.7 6.4.9.4 1.2.5 2.4.5 1 0 1.5 0 2.1-.2a6.3 6.3 0 0 0 3.6-2.7c1-1.6.9-1.4.9-11v-8.6h2v8.3l.1 9c.4 2 1.8 3.8 3.7 4.7.9.5 1 .5 2.6.5 1.5 0 1.8 0 2.5-.4a6.4 6.4 0 0 0 3.8-6.1v-1.3l.6-.6c1-1 1.3-2.2 1-3.5-.4-.9-.9-1.5-1.8-2-.6-.4-.9-.4-1.6-.4-3.2 0-4.7 3.8-2.4 6 .5.5.5.5.5 1.5 0 1.1-.3 2-1 2.5-1.2 1-3 .7-3.8-.7l-.4-.6v-14.1l.5.7 1.1 1.2c1.3.9 1.4.9 7.2 1h5.6c.4.2.6.7.6 1.9 0 1 0 1-.5 1.5-.8.7-1.1 1.5-1.1 2.5 0 2 1.4 3.5 3.4 3.5s3.5-1.5 3.5-3.5c0-1-.3-1.6-1-2.4l-.6-.6v-1.6c-.1-1.3-.2-1.8-.4-2.3-.4-1-1.4-2-2.3-2.4l-.8-.4H149l-.3-.4c-.2-.3-.3-.6-.3-1.1v-.8h4c4 0 4.2 0 4.8-.4 1-.4 1.7-1.2 2.2-2l.4-.8v-4.1c0-3.7.1-4.1.3-4.3.2-.1 1.2-.2 4.4-.2h4.1l.3.5c.4.6 1.4 1 2.3 1.2 2 .2 3.8-1.4 3.8-3.4a3.4 3.4 0 0 0-5.8-2.6l-.7.6h-4.6l-4.7.1-.7.4-1.3 1c-1 1.2-1 1.5-1.1 6l-.1 4c0 .1-.8.2-3 .2h-3l.6-.3c.8-.5 1.7-1.4 2.2-2.3l.3-.8.1-8.2c0-8 0-8.3.3-8.5.2-.1.7-.2 1.7-.2 1.4 0 1.4 0 1.7.4.5.6 1.5 1 2.4 1.1 1.7.2 3.1-.8 3.6-2.4.3-.9.3-1.1 0-2a3.3 3.3 0 0 0-3.3-2.5c-1.1 0-2 .4-2.6 1l-.4.6H155c-2.7 0-4.2.8-5.2 2.8l-.4 1-.1 8.1c0 8-.1 8.2-.4 8.4-.2.2-.8.2-2.7.2h-2.4v-3h.5c1 0 2-.6 2.6-1.6.2-.4.2-1 .2-5.6v-6.1a7.1 7.1 0 0 0-5-5.5c-.7-.3-1.2-.3-2.3-.3-1.3 0-1.6.1-2.5.6a7 7 0 0 0-3.9 4.5c-.2.8-.2 1.7-.2 6.3 0 5.6 0 5.8.6 6.7.4.5 1.5 1 2.2 1h.6v3H134c-2.4 0-2.5 0-2.8-.3-.2-.3-.2-.7-.3-8.5v-8.3l-.4-.7c-.5-1-1.4-1.8-2.4-2.3-.7-.3-1-.4-2.6-.4-1.7 0-1.8 0-2-.4l-1-.8c-1-.5-2.2-.6-3.3 0Z" fill="url(#paint61_linear)"/>
      <path class="a7" d="M119.2 50.8c-1.5.8-2.2 2.5-1.7 4.2.2.8 1.4 2 2.2 2.2 1.3.4 2.6 0 3.5-.8l.5-.6h1.5c1.3 0 1.4 0 1.7.3.2.3.2.7.3 8.5V73l.4.7c.5.8 1.3 1.8 2.1 2.2l.6.3h-2.9c-2.1 0-2.9 0-3-.2 0-.1-.2-1.7-.2-4.3v-4.1l-.4-.8c-.6-1-1.3-1.6-2.3-2-.7-.2-1.1-.3-5.3-.3h-4.4l-.4-.4a3.5 3.5 0 1 0-4 5.5c1.3.6 2.6.4 3.8-.7l.8-.7h4c3.3 0 4 0 4.3.3.3.2.3.2.3 4 0 3.6 0 4 .3 4.7.3 1 1.2 1.9 2.1 2.4.7.3.9.3 4.9.4h4v.9c0 1.4.4 1.3-6 1.4-5.6 0-5.7 0-6.4.4-.8.3-1.9 1.3-2.3 2.2a7 7 0 0 0-.6 3.1c0 1 0 1.1-.4 1.4-.2.2-.6.7-.8 1.2-.3.6-.4.9-.3 1.6.2 3.2 4 4.5 6 2.2a3 3 0 0 0 .9-2.4 3 3 0 0 0-1-2.4c-.6-.6-.6-.7-.6-1.8 0-1.9-.3-1.7 5.2-1.7l5.7-.1c1.7-.2 2.8-1 3.7-2.3l.4-.6v7c0 6.5 0 7-.2 7.5-1 2-3.6 2.2-4.7.3-.3-.5-.3-.7-.3-1.7 0-1.2 0-1.2.4-1.6.3-.2.6-.7.8-1 1.2-2.7-1-5.6-3.9-5a3.5 3.5 0 0 0-1.6 6c.4.4.5.5.5 1.4 0 3 1.4 5.3 3.7 6.4.9.4 1.2.5 2.4.5 1 0 1.5 0 2.1-.2a6.3 6.3 0 0 0 3.6-2.7c1-1.6.9-1.4.9-11v-8.6h2v8.3l.1 9c.4 2 1.8 3.8 3.7 4.7.9.5 1 .5 2.6.5 1.5 0 1.8 0 2.5-.4a6.4 6.4 0 0 0 3.8-6.1V95l.6-.6c1-1 1.3-2.2 1-3.5-.4-.9-.9-1.5-1.8-2-.6-.3-.9-.4-1.6-.4-3.2 0-4.7 3.8-2.4 6 .5.5.5.5.5 1.5 0 1.1-.3 2-1 2.5-1.2 1-3 .7-3.8-.7l-.4-.6V83.1l.5.7 1.1 1.2c1.3.9 1.4.9 7.2 1h5.6c.4.2.6.7.6 1.9 0 1 0 1-.5 1.5-.8.7-1.1 1.5-1.1 2.5 0 2 1.4 3.5 3.4 3.5s3.5-1.5 3.5-3.5c0-1-.3-1.6-1-2.4l-.6-.6v-1.6c-.1-1.3-.2-1.8-.4-2.3-.4-1-1.4-2-2.3-2.4l-.8-.4H149l-.3-.4c-.2-.3-.3-.6-.3-1.1v-.8h4c4 0 4.2 0 4.8-.4 1-.4 1.7-1.2 2.2-2l.4-.8v-4.1c0-3.7.1-4.1.3-4.3.2-.1 1.2-.2 4.4-.2h4.1l.3.5c.4.6 1.4 1 2.3 1.2 2 .2 3.8-1.4 3.8-3.4a3.4 3.4 0 0 0-5.8-2.6l-.7.6h-4.6l-4.7.1-.7.4-1.3 1c-1 1.2-1 1.5-1.1 6l-.1 4c0 .1-.8.2-3 .2h-3l.6-.3c.8-.5 1.7-1.4 2.2-2.3l.3-.8.1-8.2c0-8 0-8.3.3-8.5.2-.1.7-.2 1.7-.2 1.4 0 1.4 0 1.7.4.5.6 1.5 1 2.4 1.1 1.7.2 3.1-.8 3.6-2.4.3-.9.3-1.1 0-2a3.3 3.3 0 0 0-3.3-2.5c-1.1 0-2 .4-2.6 1l-.4.6H155c-2.7 0-4.2.8-5.2 2.8l-.4 1-.1 8.1c0 8-.1 8.2-.4 8.4-.2.2-.8.2-2.7.2h-2.4v-3h.5c1 0 2-.6 2.6-1.6.2-.4.2-1 .2-5.6v-6.1a7.1 7.1 0 0 0-5-5.5c-.7-.3-1.2-.3-2.3-.3-1.3 0-1.6.1-2.5.6a7 7 0 0 0-3.9 4.5c-.2.8-.2 1.7-.2 6.3 0 5.6 0 5.8.6 6.7.4.5 1.5 1 2.2 1h.6v3H134c-2.4 0-2.5 0-2.8-.3-.2-.3-.2-.7-.3-8.5v-8.3l-.4-.7c-.5-1-1.4-1.8-2.4-2.3-.7-.3-1-.4-2.6-.4-1.7 0-1.8 0-2-.4l-1-.8c-1-.5-2.2-.6-3.3 0Z" fill="url(#paint62_linear)" fill-opacity=".2"/>
      <path class="b8" d="M66.5 78.2c-1.5.8-2.2 2.5-1.7 4.3.3.7 1.4 2 2.2 2.1 1.3.4 2.7.1 3.5-.8l.6-.5h1.4c1.3 0 1.5 0 1.7.3.3.2.3.6.4 8.5v8.2l.4.7c.4.9 1.3 1.8 2 2.2l.6.3h-2.8c-2.2 0-3 0-3-.2-.1 0-.2-1.6-.2-4.2v-4.2l-.5-.7c-.5-1-1.3-1.6-2.3-2-.7-.3-1-.3-5.2-.3H59l-.4-.5a3.5 3.5 0 1 0-4 5.6c1.3.6 2.6.3 3.8-.7l.8-.7h4c3.4 0 4 0 4.3.2.3.2.3.3.3 4.1 0 3.6 0 4 .3 4.7.4 1 1.2 1.8 2.2 2.3.7.4.8.4 4.8.4l4.1.1v.8c0 1.4.4 1.3-6.1 1.4-5.5 0-5.6.1-6.4.4-.8.4-1.8 1.4-2.3 2.2a7 7 0 0 0-.5 3.2c0 1 0 1-.4 1.4-.3.2-.6.7-.9 1.1-.3.7-.3 1-.3 1.7.3 3.1 4 4.5 6 2.1a3 3 0 0 0 1-2.3 3 3 0 0 0-1-2.5c-.6-.6-.6-.6-.6-1.7 0-1.9-.4-1.8 5.1-1.8h5.8c1.7-.3 2.8-1 3.7-2.4l.4-.6v7c0 6.5 0 7-.3 7.6-.9 2-3.5 2.1-4.6.3-.3-.5-.4-.8-.4-1.8 0-1.1 0-1.2.5-1.5l.8-1.1c1.2-2.6-1.1-5.5-4-5a3.6 3.6 0 0 0-1.5 6.1c.4.4.4.5.4 1.4 0 3 1.4 5.2 3.8 6.4.8.4 1.2.4 2.3.5 1 0 1.6 0 2.2-.2a6.3 6.3 0 0 0 3.5-2.8c1-1.5 1-1.4 1-11v-8.5h2V125c.4 2 1.9 3.9 3.7 4.8 1 .4 1 .4 2.7.4 1.5 0 1.7 0 2.4-.3a6.4 6.4 0 0 0 3.9-6.1v-1.3l.6-.6c1-1 1.3-2.2.9-3.5-.3-1-.8-1.6-1.7-2-.6-.4-1-.5-1.7-.5a3.5 3.5 0 0 0-2.3 6c.5.5.5.6.5 1.5 0 1.2-.3 2-1 2.5-1.3 1.1-3 .8-3.9-.6l-.3-.6v-14.2l.4.8c.3.4.8 1 1.2 1.1 1.3 1 1.3 1 7.1 1l5.6.1c.4.1.6.7.6 1.8 0 1 0 1-.5 1.5-.7.8-1 1.5-1 2.6 0 2 1.4 3.4 3.4 3.4s3.4-1.4 3.4-3.4c0-1-.2-1.6-1-2.5l-.5-.6-.1-1.6c0-1.3-.1-1.8-.4-2.3-.4-1-1.3-1.9-2.3-2.3l-.7-.4h-5.7l-5.6-.1-.3-.4c-.2-.2-.3-.6-.3-1v-.8h4.1c4-.1 4.1-.1 4.8-.5.9-.4 1.7-1.1 2.2-2l.3-.7V100c.1-3.6.1-4 .4-4.2.1-.2 1.2-.2 4.3-.2h4.2l.3.4c.4.6 1.4 1.1 2.3 1.2 2 .3 3.8-1.3 3.8-3.4a3.4 3.4 0 0 0-5.8-2.6l-.7.7h-9.3l-.8.5c-.4.2-1 .6-1.3 1-1 1.1-1 1.4-1 5.9l-.2 4c0 .2-.8.2-3 .2h-3l.6-.3c.9-.4 1.8-1.4 2.2-2.2l.4-.8v-8.3c.1-8 .1-8.2.4-8.4.2-.2.7-.2 1.7-.2 1.3 0 1.4 0 1.7.3.4.6 1.4 1.1 2.4 1.2 1.6.1 3-.9 3.5-2.5.3-.8.3-1 0-2a3.3 3.3 0 0 0-3.3-2.4c-1 0-1.9.3-2.5 1l-.4.5h-1.5c-2.8 0-4.3.8-5.2 2.8l-.5 1v8.2c-.1 7.9-.1 8.2-.4 8.4-.2.1-.8.2-2.7.2H91v-3h.5c1 0 2-.7 2.6-1.6.2-.4.2-1.1.3-5.6l-.1-6.2a7.1 7.1 0 0 0-4.9-5.5c-.8-.2-1.2-.3-2.4-.2-1.3 0-1.5.1-2.5.6a7 7 0 0 0-3.8 4.5c-.2.8-.3 1.7-.3 6.2 0 5.6 0 5.9.7 6.8.4.5 1.5 1 2.2 1h.5v3h-2.5c-2.4 0-2.6 0-2.8-.3-.3-.3-.3-.7-.4-8.6V83l-.4-.7c-.4-1-1.4-1.9-2.4-2.3-.7-.4-1-.4-2.6-.4-1.7-.1-1.8-.1-2-.4 0-.2-.5-.6-1-.8-1-.6-2.2-.6-3.3 0Z" fill="url(#paint63_linear)" fill-opacity=".5"/>
      <path class="c8" d="M66.5 130.9c-1.5.8-2.2 2.5-1.7 4.2.3.8 1.4 2 2.2 2.2 1.3.4 2.7 0 3.5-.8l.6-.6h1.4c1.3 0 1.5 0 1.7.3.3.3.3.7.4 8.5v8.3l.4.7c.4.8 1.3 1.8 2 2.2l.6.3h-2.8c-2.2 0-3 0-3-.2-.1-.1-.2-1.7-.2-4.3v-4.1l-.5-.8c-.5-1-1.3-1.6-2.3-2-.7-.2-1-.3-5.2-.3H59l-.4-.4a3.5 3.5 0 1 0-4 5.5c1.3.6 2.6.4 3.8-.7l.8-.7h4c3.4 0 4 0 4.3.3.3.2.3.2.3 4 0 3.6 0 4 .3 4.7.4 1 1.2 1.9 2.2 2.4.7.3.8.3 4.8.4h4.1v.9c0 1.4.4 1.3-6.1 1.4-5.5 0-5.6 0-6.4.4-.8.3-1.8 1.3-2.3 2.2a7 7 0 0 0-.5 3.1c0 1 0 1.1-.4 1.4-.3.2-.6.7-.9 1.2-.3.6-.3.9-.3 1.7.3 3.1 4 4.4 6 2a3 3 0 0 0 1-2.3 3 3 0 0 0-1-2.4c-.6-.6-.6-.7-.6-1.8 0-1.9-.4-1.7 5.1-1.7l5.8-.1c1.7-.2 2.8-1 3.7-2.3l.4-.6v7c0 6.5 0 7-.3 7.5-.9 2-3.5 2.2-4.6.3-.3-.5-.4-.7-.4-1.7 0-1.2 0-1.2.5-1.6l.8-1c1.2-2.7-1.1-5.6-4-5a3.5 3.5 0 0 0-1.5 6c.4.4.4.5.4 1.4 0 3 1.4 5.3 3.8 6.4.8.4 1.2.5 2.3.5 1 0 1.6 0 2.2-.2a6.3 6.3 0 0 0 3.5-2.7c1-1.6 1-1.4 1-11v-8.6h2v17.3c.4 2 1.9 3.8 3.7 4.7 1 .5 1 .5 2.7.5 1.5 0 1.7 0 2.4-.4a6.4 6.4 0 0 0 3.9-6.1v-1.3l.6-.6c1-1 1.3-2.2.9-3.5-.3-.9-.8-1.5-1.7-2-.6-.3-1-.4-1.7-.4a3.5 3.5 0 0 0-2.3 6c.5.5.5.5.5 1.5 0 1.1-.3 2-1 2.5-1.3 1-3 .8-3.9-.7l-.3-.6v-14.1l.4.7c.3.4.8 1 1.2 1.2 1.3.9 1.3.9 7.1 1h5.6c.4.2.6.7.6 1.9 0 1 0 1-.5 1.5-.7.7-1 1.5-1 2.5 0 2 1.4 3.5 3.4 3.5s3.4-1.5 3.4-3.5c0-1-.2-1.6-1-2.4l-.5-.6-.1-1.6c0-1.3-.1-1.8-.4-2.3-.4-1-1.3-2-2.3-2.4l-.7-.4H96.2l-.3-.4c-.2-.3-.3-.6-.3-1.1v-.8h4.1c4 0 4.1 0 4.8-.4.9-.4 1.7-1.2 2.2-2l.3-.8v-4.1c.1-3.7.1-4.1.4-4.3.1-.1 1.2-.2 4.3-.2h4.2l.3.5c.4.6 1.4 1 2.3 1.2 2 .2 3.8-1.4 3.8-3.4 0-1.1-.4-2-1.1-2.7a3.4 3.4 0 0 0-4.8.1l-.6.6H111l-4.6.1-.8.4-1.3 1c-1 1.2-1 1.5-1 6l-.2 4c0 .1-.8.2-3 .2h-3l.6-.3c.9-.5 1.8-1.4 2.2-2.3l.4-.8v-8.2c.1-8 .1-8.3.4-8.5.2-.1.7-.2 1.7-.2 1.3 0 1.4 0 1.7.4.4.6 1.4 1 2.4 1.1 1.6.2 3-.8 3.5-2.4.3-.9.3-1.1 0-2a3.3 3.3 0 0 0-3.3-2.5c-1 0-1.9.4-2.5 1.1l-.4.5h-1.5c-2.8 0-4.3.8-5.2 2.8l-.5 1v8.1c-.1 8-.1 8.2-.4 8.4-.2.2-.8.2-2.7.2H91v-2.9h.5c1 0 2-.7 2.6-1.7.2-.3.2-1 .3-5.6l-.1-6.1a7.1 7.1 0 0 0-4.9-5.5c-.8-.3-1.2-.3-2.4-.3-1.3 0-1.5.1-2.5.6a7 7 0 0 0-3.8 4.5c-.2.8-.3 1.7-.3 6.3 0 5.6 0 5.9.7 6.7.4.5 1.5 1 2.2 1h.5v3h-2.5c-2.4 0-2.6 0-2.8-.3-.3-.3-.3-.7-.4-8.5v-8.3l-.4-.7c-.4-1-1.4-1.8-2.4-2.3-.7-.3-1-.4-2.6-.4-1.7 0-1.8 0-2-.4 0-.2-.5-.5-1-.8-1-.5-2.2-.6-3.3 0Z" fill="url(#paint64_linear)"/>
      <path class="a8" d="M66.5 25.6c-1.5.8-2.2 2.5-1.7 4.2.3.8 1.4 2 2.2 2.2 1.3.4 2.7 0 3.5-.8l.6-.6h1.4c1.3 0 1.5 0 1.7.3.3.3.3.7.4 8.5v8.3l.4.7c.4.8 1.3 1.8 2 2.2l.6.3h-2.8c-2.2 0-3 0-3-.2-.1-.1-.2-1.7-.2-4.3v-4.1l-.5-.8c-.5-.9-1.3-1.6-2.3-2-.7-.2-1-.3-5.2-.3H59l-.4-.4a3.5 3.5 0 1 0-4 5.5c1.3.6 2.6.4 3.8-.7l.8-.7h4c3.4 0 4 0 4.3.3.3.2.3.2.3 4 0 3.6 0 4 .3 4.7.4 1 1.2 1.9 2.2 2.4.7.3.8.3 4.8.4h4.1v.9c0 1.4.4 1.3-6.1 1.4-5.5 0-5.6 0-6.4.4-.8.3-1.8 1.3-2.3 2.2a7 7 0 0 0-.5 3.1c0 1 0 1.1-.4 1.4-.3.2-.6.7-.9 1.2-.3.6-.3.9-.3 1.7.3 3.1 4 4.4 6 2a3 3 0 0 0 1-2.3 3 3 0 0 0-1-2.4c-.6-.6-.6-.6-.6-1.8 0-1.9-.4-1.7 5.1-1.7l5.8-.1c1.7-.2 2.8-1 3.7-2.3l.4-.6v7c0 6.5 0 7-.3 7.5-.9 2-3.5 2.2-4.6.3-.3-.5-.4-.7-.4-1.7 0-1.2 0-1.2.5-1.6l.8-1c1.2-2.7-1.1-5.6-4-5a3.5 3.5 0 0 0-1.5 6c.4.4.4.5.4 1.4 0 3 1.4 5.3 3.8 6.4.8.4 1.2.5 2.3.5 1 0 1.6 0 2.2-.2a6.3 6.3 0 0 0 3.5-2.7c1-1.6 1-1.4 1-11v-8.6h2v17.3c.4 2 1.9 3.8 3.7 4.7 1 .5 1 .5 2.7.5 1.5 0 1.7 0 2.4-.4a6.4 6.4 0 0 0 3.9-6v-1.4l.6-.6c1-1 1.3-2.2.9-3.5-.3-.9-.8-1.5-1.7-2-.6-.3-1-.4-1.7-.4a3.5 3.5 0 0 0-2.3 6c.5.5.5.5.5 1.5 0 1.1-.3 2-1 2.5-1.3 1-3 .8-3.9-.7l-.3-.6V58l.4.7c.3.4.8 1 1.2 1.2 1.3.9 1.3.9 7.1 1h5.6c.4.2.6.7.6 1.9 0 1 0 1-.5 1.5-.7.7-1 1.5-1 2.5 0 2 1.4 3.5 3.4 3.5s3.4-1.5 3.4-3.5c0-1-.2-1.6-1-2.4l-.5-.6-.1-1.6c0-1.3-.1-1.8-.4-2.3-.4-1-1.3-2-2.3-2.4l-.7-.4H96.2l-.3-.4c-.2-.3-.3-.6-.3-1.1v-.8h4.1c4 0 4.1 0 4.8-.4.9-.4 1.7-1.2 2.2-2l.3-.8v-4.1c.1-3.7.1-4.1.4-4.3.1-.1 1.2-.2 4.3-.2h4.2l.3.5c.4.6 1.4 1 2.3 1.2 2 .2 3.8-1.4 3.8-3.4 0-1.1-.4-2-1.1-2.7a3.4 3.4 0 0 0-4.8.1l-.6.6H111l-4.6.1-.8.4-1.3 1c-1 1.2-1 1.5-1 6l-.2 4c0 .1-.8.2-3 .2h-3l.6-.3c.9-.5 1.8-1.4 2.2-2.3l.4-.8v-8.2c.1-8 .1-8.3.4-8.5.2-.1.7-.2 1.7-.2 1.3 0 1.4 0 1.7.4.4.6 1.4 1 2.4 1.1 1.6.2 3-.8 3.5-2.4.3-.9.3-1.1 0-2a3.3 3.3 0 0 0-3.3-2.5c-1 0-1.9.4-2.5 1.1l-.4.5h-1.5c-2.8 0-4.3.8-5.2 2.8l-.5 1v8.1c-.1 8-.1 8.2-.4 8.4-.2.2-.8.2-2.7.2H91v-2.9h.5c1 0 2-.7 2.6-1.7.2-.3.2-1 .3-5.6l-.1-6.1a7.1 7.1 0 0 0-4.9-5.5c-.8-.3-1.2-.3-2.4-.3-1.3 0-1.5.1-2.5.6a7 7 0 0 0-3.8 4.5c-.2.8-.3 1.7-.3 6.3 0 5.6 0 5.9.7 6.7.4.5 1.5 1 2.2 1h.5v3h-2.5c-2.4 0-2.6 0-2.8-.3-.3-.3-.3-.7-.4-8.5v-8.2l-.4-.8c-.4-1-1.4-1.8-2.4-2.3-.7-.3-1-.4-2.6-.4-1.7 0-1.8 0-2-.4 0-.2-.5-.5-1-.8-1-.5-2.2-.5-3.3 0Z" fill="url(#paint65_linear)" fill-opacity=".2"/>
      <path class="b1" d="M431.3 54c-1.6.8-2.3 2.5-1.7 4.3.2.7 1.4 2 2.1 2.1 1.4.4 2.7.1 3.6-.8l.5-.5h1.4c1.3 0 1.5 0 1.7.3.3.2.3.6.4 8.5v8.2l.4.7c.4.9 1.3 1.8 2 2.2l.6.3h-2.8c-2.2 0-2.9 0-3-.2-.1 0-.2-1.6-.2-4.2v-4.2l-.5-.7c-.5-1-1.3-1.6-2.3-2-.7-.3-1-.3-5.2-.3H424l-.5-.5a3.5 3.5 0 1 0-4 5.6c1.4.6 2.7.3 3.8-.7l.8-.7h4c3.4 0 4 0 4.3.2.3.2.3.3.3 4.1 0 3.6 0 4 .3 4.7.4 1 1.2 1.8 2.2 2.3.7.4.8.4 4.8.4l4.1.1v.8c0 1.4.4 1.3-6.1 1.4-5.5 0-5.6.1-6.3.4-.9.4-2 1.4-2.3 2.2a7 7 0 0 0-.6 3.2c0 1 0 1-.4 1.4-.3.2-.6.7-.8 1.1-.4.7-.4 1-.3 1.7.2 3.1 4 4.5 6 2.1a3 3 0 0 0 .9-2.3 3 3 0 0 0-1-2.5c-.6-.6-.6-.6-.6-1.7 0-1.9-.4-1.8 5.2-1.8h5.7c1.7-.3 2.8-1 3.7-2.4l.4-.6v7c0 6.5 0 7-.3 7.6-.9 2-3.5 2.1-4.6.3-.3-.5-.3-.8-.3-1.8 0-1.1 0-1.2.4-1.5.3-.2.6-.7.8-1.1 1.2-2.6-1.1-5.5-3.9-5a3.5 3.5 0 0 0-1.6 6.1c.4.4.4.5.4 1.4 0 3 1.4 5.2 3.8 6.4.8.4 1.2.4 2.4.5 1 0 1.5 0 2-.2a6.3 6.3 0 0 0 3.6-2.8c1-1.5 1-1.4 1-11v-8.5h2v17.2c.5 2 1.9 3.9 3.7 4.8 1 .4 1 .4 2.7.4 1.5 0 1.8 0 2.5-.3a6.4 6.4 0 0 0 3.8-6.1v-1.3l.6-.6c1-1 1.3-2.2.9-3.5-.3-1-.8-1.6-1.7-2-.6-.4-1-.5-1.7-.5-3.1 0-4.6 3.9-2.3 6 .5.5.5.6.5 1.5 0 1.2-.3 2-1 2.5-1.2 1.1-3 .8-3.9-.6l-.3-.6V86.3l.5.8c.2.4.7 1 1.1 1.1 1.3 1 1.3 1 7.1 1l5.6.1c.5.1.7.7.7 1.8 0 1 0 1-.5 1.5-.8.8-1.1 1.5-1.1 2.6 0 2 1.4 3.4 3.4 3.4s3.5-1.4 3.5-3.4c0-1-.3-1.6-1-2.5l-.6-.6v-1.6c-.1-1.3-.2-1.8-.4-2.3-.5-1-1.4-1.9-2.3-2.3l-.8-.4h-5.6l-5.7-.1-.3-.4c-.2-.2-.2-.6-.2-1v-.8h4c4-.1 4.1-.1 4.8-.5.9-.4 1.7-1.1 2.2-2l.4-.7v-4.2c0-3.6 0-4 .3-4.2.2-.2 1.2-.2 4.3-.2h4.2l.3.4c.4.6 1.4 1.1 2.3 1.2 2 .3 3.8-1.3 3.8-3.4a3.4 3.4 0 0 0-5.8-2.6l-.7.7h-9.3l-.7.5c-.4.2-1 .6-1.3 1-1 1.1-1.1 1.4-1.2 5.9v4c-.1.2-.8.2-3 .2h-3l.6-.3c.8-.4 1.7-1.4 2.1-2.2l.4-.8v-8.3c.1-8 .2-8.2.4-8.4.2-.2.7-.2 1.7-.2 1.3 0 1.4 0 1.7.3.5.6 1.4 1.1 2.4 1.2 1.7.1 3.1-.9 3.6-2.5.2-.8.2-1 0-2a3.3 3.3 0 0 0-3.4-2.4c-1 0-1.9.3-2.5 1l-.4.5H467c-2.7 0-4.2.8-5.2 2.8l-.5 1v8.2c-.1 7.9-.1 8.2-.4 8.4-.2.1-.8.2-2.7.2h-2.5v-3h.5c1 0 2.1-.7 2.6-1.6a62.1 62.1 0 0 0 .2-11.7 7.1 7.1 0 0 0-4.9-5.6c-.7-.2-1.2-.3-2.4-.2-1.3 0-1.5.1-2.5.6a7 7 0 0 0-3.8 4.5c-.2.8-.3 1.7-.3 6.2 0 5.6 0 5.9.7 6.8.4.5 1.5 1 2.2 1h.5v3h-2.5c-2.4 0-2.5 0-2.8-.3-.2-.3-.3-.7-.3-8.6l-.1-8.2-.4-.7c-.4-1-1.4-1.9-2.3-2.3-.7-.4-1-.4-2.6-.4-1.7-.1-1.8-.1-2-.4l-1-.8c-1-.6-2.3-.6-3.3 0Z" fill="url(#paint66_linear)" fill-opacity=".5"/>
      <path class="c1" d="M431.3 106.7c-1.6.8-2.3 2.5-1.7 4.2.2.8 1.4 2 2.1 2.2 1.4.4 2.7 0 3.6-.8l.5-.6h1.4c1.3 0 1.5 0 1.7.3.3.3.3.7.4 8.5v8.3l.4.7c.4.8 1.3 1.8 2 2.2l.6.3h-2.8c-2.2 0-2.9 0-3-.2-.1-.1-.2-1.7-.2-4.3v-4.1l-.5-.8c-.5-.9-1.3-1.6-2.3-2-.7-.2-1-.3-5.2-.3H424l-.5-.4a3.5 3.5 0 1 0-4 5.5c1.4.6 2.7.4 3.8-.7l.8-.7h4c3.4 0 4 0 4.3.3.3.2.3.2.3 4 0 3.6 0 4 .3 4.7.4 1 1.2 1.9 2.2 2.4.7.3.8.3 4.8.4h4.1v.9c0 1.4.4 1.3-6.1 1.4-5.5 0-5.6 0-6.3.4-.9.3-2 1.3-2.3 2.2a7 7 0 0 0-.6 3.1c0 1 0 1.1-.4 1.4-.3.2-.6.7-.8 1.2-.4.6-.4.9-.3 1.7.2 3.1 4 4.4 6 2a3 3 0 0 0 .9-2.3 3 3 0 0 0-1-2.4c-.6-.6-.6-.6-.6-1.8 0-1.9-.4-1.7 5.2-1.7l5.7-.1c1.7-.2 2.8-1 3.7-2.3l.4-.6v7c0 6.5 0 7-.3 7.5-.9 2-3.5 2.2-4.6.3-.3-.5-.3-.7-.3-1.7 0-1.2 0-1.2.4-1.6.3-.2.6-.7.8-1 1.2-2.7-1.1-5.6-3.9-5a3.5 3.5 0 0 0-1.6 6c.4.4.4.5.4 1.4 0 3 1.4 5.3 3.8 6.4.8.4 1.2.5 2.4.5 1 0 1.5 0 2-.2a6.3 6.3 0 0 0 3.6-2.7c1-1.6 1-1.4 1-11v-8.6h2v17.3c.5 2 1.9 3.8 3.7 4.7 1 .5 1 .5 2.7.5 1.5 0 1.8 0 2.5-.4a6.4 6.4 0 0 0 3.8-6v-1.4l.6-.6c1-1 1.3-2.2.9-3.5-.3-.9-.8-1.5-1.7-2-.6-.3-1-.4-1.7-.4-3.1 0-4.6 3.8-2.3 6 .5.5.5.5.5 1.5 0 1.1-.3 2-1 2.5-1.2 1-3 .8-3.9-.7l-.3-.6V139l.5.7c.2.4.7 1 1.1 1.2 1.3.9 1.3.9 7.1 1h5.6c.5.2.7.7.7 1.9 0 1 0 1-.5 1.5-.8.7-1.1 1.5-1.1 2.5 0 2 1.4 3.5 3.4 3.5s3.5-1.5 3.5-3.5c0-1-.3-1.6-1-2.4l-.6-.6v-1.6c-.1-1.3-.2-1.8-.4-2.3-.5-1-1.4-2-2.3-2.4l-.8-.4h-11.3l-.3-.4c-.2-.3-.2-.6-.2-1.1v-.8h4c4 0 4.1 0 4.8-.4.9-.4 1.7-1.2 2.2-2l.4-.8v-4.1c0-3.7 0-4.1.3-4.3.2-.1 1.2-.2 4.3-.2h4.2l.3.5c.4.6 1.4 1 2.3 1.2 2 .2 3.8-1.4 3.8-3.4 0-1.1-.4-2-1.1-2.7a3.4 3.4 0 0 0-4.7.1l-.7.6H476l-4.7.1-.7.4-1.3 1c-1 1.2-1.1 1.5-1.2 6v4c-.1.1-.8.2-3 .2h-3l.6-.3c.8-.5 1.7-1.4 2.1-2.3l.4-.8v-8.2c.1-8 .2-8.3.4-8.5.2-.1.7-.2 1.7-.2 1.3 0 1.4 0 1.7.4.5.6 1.4 1 2.4 1.1 1.7.2 3.1-.8 3.6-2.4.2-.9.2-1.1 0-2a3.3 3.3 0 0 0-3.4-2.5c-1 0-1.9.4-2.5 1.1l-.4.5H467c-2.7 0-4.2.8-5.2 2.8l-.5 1v8.1c-.1 8-.1 8.2-.4 8.4-.2.2-.8.2-2.7.2h-2.5v-2.9h.5c1 0 2.1-.7 2.6-1.7a62.1 62.1 0 0 0 .2-11.7 7.1 7.1 0 0 0-4.9-5.5 6 6 0 0 0-2.4-.3c-1.3 0-1.5.1-2.5.6a7 7 0 0 0-3.8 4.5c-.2.8-.3 1.7-.3 6.3 0 5.6 0 5.9.7 6.7.4.5 1.5 1 2.2 1h.5v3h-2.5c-2.4 0-2.5 0-2.8-.3-.2-.3-.3-.7-.3-8.5l-.1-8.2-.4-.8c-.4-1-1.4-1.8-2.3-2.3-.7-.3-1-.3-2.6-.4-1.7 0-1.8 0-2-.4l-1-.8c-1-.5-2.3-.5-3.3 0Z" fill="url(#paint67_linear)"/>
      <path class="a1" d="M431.3 1.4c-1.6.8-2.3 2.5-1.7 4.2.2.8 1.4 2 2.1 2.2 1.4.4 2.7 0 3.6-.8l.5-.6h1.4c1.3 0 1.5 0 1.7.3.3.3.3.7.4 8.5v8.3l.4.7c.4.8 1.3 1.8 2 2.2l.6.3h-2.8c-2.2 0-2.9 0-3-.2-.1-.1-.2-1.7-.2-4.3v-4.1l-.5-.8c-.5-.9-1.3-1.6-2.3-2-.7-.2-1-.2-5.2-.2H424l-.5-.5a3.5 3.5 0 1 0-4 5.5c1.4.6 2.7.4 3.8-.7l.8-.7h4c3.4 0 4 0 4.3.3.3.2.3.2.3 4 0 3.6 0 4 .3 4.7.4 1 1.2 1.9 2.2 2.4.7.3.8.3 4.8.4h4.1v.9c0 1.4.4 1.3-6.1 1.4-5.5 0-5.6 0-6.3.4-.9.3-2 1.3-2.3 2.2a7 7 0 0 0-.6 3.1c0 1 0 1.1-.4 1.4-.3.2-.6.7-.8 1.2-.4.6-.4.9-.3 1.7.2 3.1 4 4.4 6 2a3 3 0 0 0 .9-2.3 3 3 0 0 0-1-2.4c-.6-.6-.6-.6-.6-1.8 0-1.9-.4-1.7 5.2-1.7l5.7-.1c1.7-.2 2.8-1 3.7-2.3l.4-.6v7c0 6.5 0 7-.3 7.5-.9 2-3.5 2.2-4.6.3-.3-.5-.3-.7-.3-1.7 0-1.2 0-1.2.4-1.6.3-.2.6-.7.8-1 1.2-2.7-1.1-5.6-3.9-5a3.5 3.5 0 0 0-1.6 6c.4.4.4.5.4 1.4 0 3 1.4 5.3 3.8 6.4.8.4 1.2.5 2.4.5 1 0 1.5 0 2-.2a6.3 6.3 0 0 0 3.6-2.7c1-1.6 1-1.4 1-11V31h2v17.3c.5 2 1.9 3.9 3.7 4.7 1 .5 1 .5 2.7.5 1.5 0 1.8 0 2.5-.4a6.4 6.4 0 0 0 3.8-6v-1.4l.6-.6c1-1 1.3-2.2.9-3.5-.3-.9-.8-1.5-1.7-2-.6-.3-1-.4-1.7-.4-3.1 0-4.6 3.8-2.3 6 .5.5.5.5.5 1.5 0 1.1-.3 2-1 2.5-1.2 1-3 .8-3.9-.7l-.3-.6V33.7l.5.7c.2.4.7 1 1.1 1.2 1.3.9 1.3.9 7.1 1h5.6c.5.2.7.7.7 1.9 0 1 0 1-.5 1.5-.8.7-1.1 1.5-1.1 2.5 0 2 1.4 3.5 3.4 3.5s3.5-1.5 3.5-3.5c0-1-.3-1.6-1-2.4l-.6-.6v-1.6c-.1-1.3-.2-1.8-.4-2.3-.5-1-1.4-2-2.3-2.4l-.8-.4h-11.3l-.3-.4c-.2-.3-.2-.6-.2-1.1v-.8h4c4 0 4.1 0 4.8-.4.9-.4 1.7-1.2 2.2-2l.4-.8v-4.1c0-3.7 0-4.1.3-4.3.2-.1 1.2-.2 4.3-.2h4.2l.3.5c.4.6 1.4 1 2.3 1.2 2 .2 3.8-1.4 3.8-3.4 0-1.1-.4-2-1.1-2.7a3.4 3.4 0 0 0-4.7.1l-.7.6H476l-4.7.1-.7.4-1.3 1c-1 1.2-1.1 1.5-1.2 6v4c-.1.1-.8.2-3 .2h-3l.6-.3c.8-.5 1.7-1.4 2.1-2.3l.4-.8v-8.2c.1-8 .2-8.3.4-8.5.2-.1.7-.2 1.7-.2 1.3 0 1.4 0 1.7.4.5.6 1.4 1 2.4 1.1 1.7.2 3.1-.8 3.6-2.4.2-.9.2-1.1 0-2a3.3 3.3 0 0 0-3.4-2.5c-1 0-1.9.4-2.5 1.1l-.4.5H467c-2.7 0-4.2.8-5.2 2.8l-.5 1v8.1c-.1 8-.1 8.2-.4 8.4-.2.2-.8.2-2.7.2h-2.5v-2.9h.5c1 0 2.1-.7 2.6-1.7a62.1 62.1 0 0 0 .2-11.7 7.1 7.1 0 0 0-4.9-5.5c-.7-.3-1.2-.3-2.4-.3-1.3 0-1.5.1-2.5.6a7 7 0 0 0-3.8 4.5c-.2.8-.3 1.7-.3 6.3 0 5.6 0 5.9.7 6.7.4.5 1.5 1 2.2 1h.5v3h-2.5c-2.4 0-2.5 0-2.8-.3-.2-.3-.3-.7-.3-8.5l-.1-8.2-.4-.8c-.4-1-1.4-1.8-2.3-2.3-.7-.3-1-.3-2.6-.4-1.7 0-1.8 0-2-.4l-1-.8c-1-.5-2.3-.5-3.3 0Z" fill="url(#paint68_linear)" fill-opacity=".2"/>
      <path class="b9" d="M13.9 53c-1.5.8-2.2 2.5-1.7 4.3.2.7 1.4 2 2.2 2.1 1.3.4 2.6.1 3.5-.8l.5-.5H20c1.3 0 1.4 0 1.7.3.2.2.2.6.3 8.5v8.2l.4.7c.5.9 1.3 1.8 2.1 2.2l.6.3H22c-2.1 0-2.9 0-3-.2 0 0-.2-1.6-.2-4.2v-4.2l-.4-.7c-.6-1-1.3-1.6-2.3-2-.7-.3-1.1-.3-5.3-.3H6.5l-.4-.5a3.5 3.5 0 1 0-4 5.6c1.3.6 2.6.3 3.8-.7l.8-.7h4c3.3 0 4 0 4.3.2.3.2.3.3.3 4.1 0 3.6 0 4 .3 4.7.3 1 1.2 1.8 2.1 2.3.7.4.9.4 4.9.4l4 .1v.8c0 1.4.4 1.3-6 1.4-5.6 0-5.7.1-6.4.4-.8.4-1.9 1.4-2.3 2.2a7 7 0 0 0-.6 3.2c0 1 0 1-.4 1.4l-.8 1.1c-.3.7-.4 1-.3 1.7.2 3.2 4 4.5 6 2.1a3 3 0 0 0 .9-2.3 3 3 0 0 0-1-2.5c-.6-.6-.6-.6-.6-1.7 0-1.9-.3-1.8 5.2-1.8H26c1.6-.3 2.7-1 3.6-2.4l.4-.6v7c0 6.5 0 7-.2 7.6-1 2-3.6 2.1-4.7.3-.3-.5-.3-.8-.3-1.8 0-1.1 0-1.2.4-1.5.3-.2.6-.7.8-1.1 1.2-2.6-1-5.5-3.9-5a3.5 3.5 0 0 0-1.6 6.1c.4.4.5.5.5 1.4 0 3 1.4 5.2 3.7 6.4.9.4 1.2.4 2.4.5 1 0 1.5 0 2.1-.2a6.3 6.3 0 0 0 3.6-2.8c1-1.5.9-1.4.9-11v-8.5h2v8.2l.1 9c.4 2 1.8 3.9 3.7 4.8.9.4 1 .4 2.6.4 1.5 0 1.8 0 2.5-.3a6.4 6.4 0 0 0 3.8-6.1v-1.3l.6-.6c1-1 1.3-2.2 1-3.5-.4-1-.9-1.6-1.8-2-.6-.4-.9-.5-1.6-.5a3.5 3.5 0 0 0-2.4 6c.5.5.5.6.5 1.5 0 1.2-.3 2-1 2.5-1.2 1.1-3 .8-3.8-.6l-.4-.6V85.3l.5.8c.3.4.8 1 1.1 1.1 1.3 1 1.4 1 7.2 1l5.6.1c.4.1.6.7.6 1.8 0 1 0 1-.5 1.5-.8.8-1.1 1.5-1.1 2.6 0 2 1.4 3.5 3.4 3.5s3.5-1.5 3.5-3.5c0-1-.3-1.6-1-2.5l-.6-.6v-1.6c-.1-1.3-.2-1.8-.4-2.3-.4-1-1.4-1.9-2.3-2.3l-.8-.4h-5.6l-5.6-.1-.3-.4c-.2-.2-.3-.5-.3-1v-.8h4c4-.1 4.2-.1 4.8-.4 1-.5 1.7-1.2 2.2-2.1l.4-.7v-4.1c0-3.7.1-4.2.3-4.3.2-.2 1.2-.2 4.4-.2h4.1l.3.4c.4.6 1.4 1.1 2.3 1.2 2 .3 3.8-1.3 3.8-3.4 0-1-.3-2-1.1-2.6a3.4 3.4 0 0 0-4.7 0l-.7.7h-9.3l-.7.5c-.4.2-1 .6-1.3 1-1 1.1-1 1.4-1.1 5.9l-.1 4c0 .2-.8.2-3 .2h-3l.6-.3c.8-.4 1.7-1.3 2.2-2.2l.3-.8.1-8.3c0-8 0-8.2.3-8.4.2-.2.7-.2 1.7-.2 1.4 0 1.4 0 1.7.3.5.6 1.5 1.1 2.4 1.2 1.7.1 3.1-.9 3.6-2.4.3-1 .3-1.2 0-2.1a3.3 3.3 0 0 0-3.3-2.4c-1.1 0-2 .3-2.6 1l-.4.5h-1.5c-2.7 0-4.2.8-5.2 2.8l-.4 1-.1 8.2c0 7.9-.1 8.2-.4 8.4-.2.1-.8.2-2.7.2h-2.4v-3h.5c1 0 2-.7 2.6-1.6.2-.4.2-1.1.2-5.6v-6.2a7.1 7.1 0 0 0-5-5.5c-.7-.2-1.2-.3-2.3-.2-1.3 0-1.6.1-2.5.6a7 7 0 0 0-3.9 4.5c-.2.8-.2 1.7-.2 6.2 0 5.6 0 5.9.6 6.8.4.5 1.5 1 2.2 1h.6v3h-2.6c-2.4 0-2.5 0-2.8-.3-.2-.3-.2-.7-.3-8.6v-8.2l-.4-.7c-.5-1-1.4-1.9-2.4-2.3-.7-.4-1-.4-2.6-.4-1.7-.1-1.8-.1-2-.4l-1-.8c-1-.6-2.2-.6-3.3 0Z" fill="url(#paint69_linear)" fill-opacity=".5"/>
      <path class="c9" d="M13.9 105.7c-1.5.8-2.2 2.5-1.7 4.2.2.8 1.4 2 2.2 2.2 1.3.4 2.6 0 3.5-.8l.5-.6H20c1.3 0 1.4 0 1.7.3.2.3.2.7.3 8.5v8.3l.4.7c.5.8 1.3 1.8 2.1 2.2l.6.3H22c-2.1 0-2.9 0-3-.2 0-.1-.2-1.7-.2-4.3v-4.1l-.4-.8c-.6-.9-1.3-1.6-2.3-2-.7-.2-1.1-.2-5.3-.2H6.5l-.4-.5a3.5 3.5 0 1 0-4 5.5c1.3.6 2.6.4 3.8-.7l.8-.7h4c3.3 0 4 0 4.3.3.3.2.3.2.3 4 0 3.6 0 4 .3 4.7.3 1 1.2 1.9 2.1 2.4.7.3.9.3 4.9.4h4v.9c0 1.4.4 1.3-6 1.4-5.6 0-5.7 0-6.4.4-.8.3-1.9 1.4-2.3 2.2a7 7 0 0 0-.6 3.1c0 1 0 1.1-.4 1.4-.2.2-.6.7-.8 1.2-.3.6-.4.9-.3 1.7.2 3.1 4 4.4 6 2a3 3 0 0 0 .9-2.3 3 3 0 0 0-1-2.4c-.6-.6-.6-.6-.6-1.8 0-1.8-.3-1.7 5.2-1.7l5.8-.1c1.6-.2 2.7-1 3.6-2.3l.4-.6v7c0 6.5 0 7-.2 7.5-1 2-3.6 2.2-4.7.3-.3-.5-.3-.7-.3-1.7 0-1.2 0-1.2.4-1.6.3-.2.6-.7.8-1 1.2-2.7-1-5.6-3.9-5a3.6 3.6 0 0 0-1.6 6c.4.4.5.5.5 1.4 0 3 1.4 5.3 3.7 6.4.9.4 1.2.5 2.4.5 1 0 1.5 0 2.1-.2a6.3 6.3 0 0 0 3.6-2.7c1-1.6.9-1.4.9-11v-8.6h2v8.3l.1 9c.4 2 1.8 3.9 3.7 4.7.9.5 1 .5 2.6.5 1.5 0 1.8 0 2.5-.4a6.4 6.4 0 0 0 3.8-6v-1.4l.6-.6c1-1 1.3-2.2 1-3.5-.4-.9-.9-1.5-1.8-2a3.5 3.5 0 0 0-4 5.6c.5.5.5.5.5 1.5 0 1.1-.3 2-1 2.5-1.2 1-3 .8-3.8-.7l-.4-.6V138l.5.7 1.1 1.2c1.3.9 1.4.9 7.2 1H54c.4.2.6.7.6 1.9 0 1 0 1-.5 1.5-.8.7-1.1 1.5-1.1 2.5 0 2 1.4 3.5 3.4 3.5s3.5-1.5 3.5-3.5c0-1-.3-1.6-1-2.4l-.6-.6v-1.6c-.1-1.3-.2-1.8-.4-2.3-.4-1-1.4-2-2.3-2.4l-.8-.4H43.6l-.3-.4c-.2-.3-.3-.6-.3-1.1v-.8h4c4 0 4.2 0 4.8-.4 1-.4 1.7-1.2 2.2-2l.4-.8v-4.1c0-3.7.1-4.1.3-4.3.2-.1 1.2-.2 4.4-.2h4.1l.3.5c.4.6 1.4 1 2.3 1.2 2 .2 3.8-1.4 3.8-3.4a3.4 3.4 0 0 0-5.8-2.6l-.7.6h-4.6l-4.7.1-.7.4-1.3 1c-1 1.2-1 1.5-1.1 6l-.1 4c0 .1-.8.2-3 .2h-3l.6-.3c.8-.5 1.7-1.4 2.2-2.3l.3-.8.1-8.2c0-8 0-8.3.3-8.5.2-.1.7-.2 1.7-.2 1.4 0 1.4 0 1.7.4.5.6 1.5 1 2.4 1.1 1.7.2 3.1-.8 3.6-2.4.3-.9.3-1.1 0-2a3.3 3.3 0 0 0-3.3-2.5c-1.1 0-2 .4-2.6 1.1l-.4.5h-1.5c-2.7 0-4.2.8-5.2 2.8l-.4 1-.1 8.1c0 8-.1 8.2-.4 8.4-.2.2-.8.2-2.7.2h-2.4v-2.9h.5c1 0 2-.7 2.6-1.7.2-.3.2-1 .2-5.6v-6.1a7.1 7.1 0 0 0-5-5.5 6 6 0 0 0-2.3-.2c-1.3 0-1.6 0-2.5.5a7 7 0 0 0-3.9 4.5c-.2.8-.2 1.7-.2 6.3 0 5.6 0 5.9.6 6.7.4.5 1.5 1 2.2 1h.6v3h-2.6c-2.4 0-2.5 0-2.8-.3-.2-.3-.2-.7-.3-8.5v-8.2l-.4-.8c-.5-1-1.4-1.8-2.4-2.3-.7-.3-1-.3-2.6-.4-1.7 0-1.8 0-2-.4l-1-.8c-1-.5-2.2-.5-3.3 0Z" fill="url(#paint70_linear)"/>
      <path class="a9" d="M13.9.4c-1.5.8-2.2 2.5-1.7 4.2.2.8 1.4 2 2.2 2.2 1.3.4 2.6 0 3.5-.8l.5-.6H20c1.3 0 1.4 0 1.7.3.2.3.2.7.3 8.6v8.2l.4.7c.5.8 1.3 1.8 2.1 2.2l.6.3H22c-2.1 0-2.9 0-3-.2 0-.1-.2-1.7-.2-4.3v-4.1l-.4-.8c-.6-.9-1.3-1.6-2.3-2-.7-.2-1.1-.2-5.3-.2H6.5l-.4-.5A3.5 3.5 0 1 0 2 19c1.3.6 2.6.4 3.8-.7l.8-.7h4c3.3 0 4 0 4.3.3.3.2.3.2.3 4 0 3.6 0 4 .3 4.7.3 1 1.2 1.9 2.1 2.4.7.3.9.3 4.9.4h4v.9c0 1.4.4 1.3-6 1.4-5.6 0-5.7 0-6.4.4-.8.3-1.9 1.4-2.3 2.2a7 7 0 0 0-.6 3.1c0 1 0 1.1-.4 1.4-.2.2-.6.7-.8 1.2-.3.6-.4.9-.3 1.7.2 3.1 4 4.4 6 2a3 3 0 0 0 .9-2.3 3 3 0 0 0-1-2.4c-.6-.6-.6-.6-.6-1.8 0-1.8-.3-1.7 5.2-1.7l5.8-.1c1.6-.2 2.7-1 3.6-2.3l.4-.6v7c0 6.5 0 7-.2 7.5-1 2-3.6 2.2-4.7.3-.3-.5-.3-.7-.3-1.7 0-1.2 0-1.2.4-1.6.3-.2.6-.7.8-1 1.2-2.7-1-5.6-3.9-5a3.5 3.5 0 0 0-1.6 6c.4.4.5.5.5 1.4 0 3 1.4 5.3 3.7 6.4.9.4 1.2.5 2.4.5 1 0 1.5 0 2.1-.2a6.3 6.3 0 0 0 3.6-2.7c1-1.6.9-1.4.9-11V30h2v8.3l.1 9c.4 2 1.8 3.9 3.7 4.7.9.5 1 .5 2.6.5 1.5 0 1.8 0 2.5-.4a6.4 6.4 0 0 0 3.8-6v-1.4l.6-.6c1-1 1.3-2.2 1-3.5-.4-.9-.9-1.5-1.8-2a3.5 3.5 0 0 0-4 5.6c.5.5.5.5.5 1.5 0 1.1-.3 2-1 2.5-1.2 1-3 .8-3.8-.7l-.4-.6V32.7l.5.7 1.1 1.2c1.3.9 1.4.9 7.2 1H54c.4.2.6.7.6 1.9 0 1 0 1-.5 1.5-.8.7-1.1 1.5-1.1 2.5 0 2 1.4 3.5 3.4 3.5s3.5-1.5 3.5-3.5c0-1-.3-1.6-1-2.4l-.6-.6v-1.6c-.1-1.3-.2-1.8-.4-2.3-.4-1-1.4-2-2.3-2.4l-.8-.4H43.6l-.3-.4c-.2-.3-.3-.6-.3-1.1v-.8h4c4 0 4.2 0 4.8-.4 1-.4 1.7-1.2 2.2-2l.4-.8v-4.1c0-3.7.1-4.1.3-4.3.2-.1 1.2-.2 4.4-.2h4.1l.3.5c.4.6 1.4 1.1 2.3 1.2 2 .2 3.8-1.4 3.8-3.4a3.4 3.4 0 0 0-5.8-2.6l-.7.6h-4.6l-4.7.1-.7.4-1.3 1c-1 1.2-1 1.5-1.1 6l-.1 4c0 .1-.8.2-3 .2h-3l.6-.3c.8-.5 1.7-1.4 2.2-2.3l.3-.8.1-8.2c0-8 0-8.3.3-8.5.2-.1.7-.2 1.7-.2 1.4 0 1.4 0 1.7.4.5.6 1.5 1 2.4 1.1 1.7.2 3.1-.8 3.6-2.4.3-.9.3-1.1 0-2A3.3 3.3 0 0 0 54.2 0c-1.1 0-2 .4-2.6 1.1l-.4.5h-1.5c-2.7 0-4.2.8-5.2 2.8l-.4 1-.1 8.1c0 8-.1 8.2-.4 8.4-.2.2-.8.2-2.7.2h-2.4v-2.9h.5c1 0 2-.7 2.6-1.7.2-.3.2-1 .2-5.6V5.8a7.1 7.1 0 0 0-5-5.5c-.7-.2-1.2-.3-2.3-.2-1.3 0-1.6 0-2.5.5A7 7 0 0 0 28 5.1c-.2.8-.2 1.7-.2 6.3 0 5.6 0 5.9.6 6.7.4.5 1.5 1 2.2 1h.6v3h-2.6c-2.4 0-2.5 0-2.8-.3-.2-.3-.2-.7-.3-8.5V5l-.4-.8c-.5-.9-1.4-1.8-2.4-2.3-.7-.3-1-.3-2.6-.4-1.7 0-1.8 0-2-.4l-1-.8C16.2 0 15 0 14 .4Z" fill="url(#paint71_linear)" fill-opacity=".2"/>
    </g>
    <path class="back-hill" fill-rule="evenodd" clip-rule="evenodd" d="M56 463h375V281a86.2 86.2 0 0 0-72.9 9.6l-9.7 5.8c-112 67.8-113.1 68.4-225.4-5.8a87 87 0 0 0-67-12.7V463Z" fill="url(#paint72_linear)" fill-opacity=".5"/>
    <path class="mid-hill" fill-rule="evenodd" clip-rule="evenodd" d="M56 463h375V349c-42-52.2-99-95.1-159.9-58.4l-9.7 5.8c-105 63.5-112.5 68-205.4 7.3V463Z" fill="url(#paint73_linear)"/>
    <g class="coins">
      <g class="coin-10">
        <g class="Ellipse 2" filter="url(#filter0_di)" >
          <circle cx="230.4" cy="354.4" r="12.4" fill="#00F0FF" fill-opacity=".2"/>
          <circle cx="230.4" cy="354.4" r="11.7" stroke="#00F0FF" stroke-width="1.5"/>
        </g>
        <g class="0" filter="url(#filter1_d)">
          <path d="M234.3 354.7a9 9 0 0 1-.3 2 5 5 0 0 1-.7 1.7c-.3.5-.7.9-1.2 1.1-.5.3-1 .4-1.6.4-.6 0-1-.1-1.5-.3a3 3 0 0 1-1.2-1c-.3-.4-.5-1-.7-1.6a9.4 9.4 0 0 1 0-4.5c.1-.6.4-1.2.7-1.6a3.3 3.3 0 0 1 2.8-1.5c.6 0 1 .1 1.5.3.5.2.8.5 1.2 1 .3.4.5 1 .7 1.6.2.7.3 1.4.3 2.4Zm-1.4 0v-1l-4.4 3.2.3.7.4.6.6.4.7.1c.4 0 .7 0 1-.2l.7-.8.5-1.3.2-1.7Zm-4.7-.1v1l4.4-3.2-.3-.8-.5-.5a1.8 1.8 0 0 0-1.3-.5 1.9 1.9 0 0 0-1.7 1c-.2.3-.3.8-.4 1.3l-.2 1.7Z" fill="#00F0FF"/>
        </g>
      </g>
      <g class="coin-9">
        <g class="Ellipse 2_2" filter="url(#filter2_di)" >
          <circle cx="230.4" cy="354.4" r="12.4" fill="#00F0FF" fill-opacity=".2"/>
          <circle cx="230.4" cy="354.4" r="11.7" stroke="#00F0FF" stroke-width="1.5"/>
        </g>
        <g class="0_2" filter="url(#filter3_d)">
          <path d="M234.3 354.7a9 9 0 0 1-.3 2 5 5 0 0 1-.7 1.7c-.3.5-.7.9-1.2 1.1-.5.3-1 .4-1.6.4-.6 0-1-.1-1.5-.3a3 3 0 0 1-1.2-1c-.3-.4-.5-1-.7-1.6a9.4 9.4 0 0 1 0-4.5c.1-.6.4-1.2.7-1.6a3.3 3.3 0 0 1 2.8-1.5c.6 0 1 .1 1.5.3.5.2.8.5 1.2 1 .3.4.5 1 .7 1.6.2.7.3 1.4.3 2.4Zm-1.4 0v-1l-4.4 3.2.3.7.4.6.6.4.7.1c.4 0 .7 0 1-.2l.7-.8.5-1.3.2-1.7Zm-4.7-.1v1l4.4-3.2-.3-.8-.5-.5a1.8 1.8 0 0 0-1.3-.5 1.9 1.9 0 0 0-1.7 1c-.2.3-.3.8-.4 1.3l-.2 1.7Z" fill="#00F0FF"/>
        </g>
      </g>
      <g class="coin-8">
        <g class="Ellipse 2_3" filter="url(#filter4_di)" >
          <circle cx="230.4" cy="354.4" r="12.4" fill="#00F0FF" fill-opacity=".2"/>
          <circle cx="230.4" cy="354.4" r="11.7" stroke="#00F0FF" stroke-width="1.5"/>
        </g>
        <g class="0_3" filter="url(#filter5_d)">
          <path d="M234.3 354.7a9 9 0 0 1-.3 2 5 5 0 0 1-.7 1.7c-.3.5-.7.9-1.2 1.1-.5.3-1 .4-1.6.4-.6 0-1-.1-1.5-.3a3 3 0 0 1-1.2-1c-.3-.4-.5-1-.7-1.6a9.4 9.4 0 0 1 0-4.5c.1-.6.4-1.2.7-1.6a3.3 3.3 0 0 1 2.8-1.5c.6 0 1 .1 1.5.3.5.2.8.5 1.2 1 .3.4.5 1 .7 1.6.2.7.3 1.4.3 2.4Zm-1.4 0v-1l-4.4 3.2.3.7.4.6.6.4.7.1c.4 0 .7 0 1-.2l.7-.8.5-1.3.2-1.7Zm-4.7-.1v1l4.4-3.2-.3-.8-.5-.5a1.8 1.8 0 0 0-1.3-.5 1.9 1.9 0 0 0-1.7 1c-.2.3-.3.8-.4 1.3l-.2 1.7Z" fill="#00F0FF"/>
        </g>
      </g>
      <g class="coin-7">
        <g class="Ellipse 2_4" filter="url(#filter6_di)" >
          <circle cx="230.4" cy="354.4" r="12.4" fill="#00F0FF" fill-opacity=".2"/>
          <circle cx="230.4" cy="354.4" r="11.7" stroke="#00F0FF" stroke-width="1.5"/>
        </g>
        <g class="0_4" filter="url(#filter7_d)">
          <path d="M234.3 354.7a9 9 0 0 1-.3 2 5 5 0 0 1-.7 1.7c-.3.5-.7.9-1.2 1.1-.5.3-1 .4-1.6.4-.6 0-1-.1-1.5-.3a3 3 0 0 1-1.2-1c-.3-.4-.5-1-.7-1.6a9.4 9.4 0 0 1 0-4.5c.1-.6.4-1.2.7-1.6a3.3 3.3 0 0 1 2.8-1.5c.6 0 1 .1 1.5.3.5.2.8.5 1.2 1 .3.4.5 1 .7 1.6.2.7.3 1.4.3 2.4Zm-1.4 0v-1l-4.4 3.2.3.7.4.6.6.4.7.1c.4 0 .7 0 1-.2l.7-.8.5-1.3.2-1.7Zm-4.7-.1v1l4.4-3.2-.3-.8-.5-.5a1.8 1.8 0 0 0-1.3-.5 1.9 1.9 0 0 0-1.7 1c-.2.3-.3.8-.4 1.3l-.2 1.7Z" fill="#00F0FF"/>
        </g>
      </g>
      <g class="coin-6">
        <g class="Ellipse 2_5" filter="url(#filter8_di)" >
          <circle cx="230.4" cy="354.4" r="12.4" fill="#00F0FF" fill-opacity=".2"/>
          <circle cx="230.4" cy="354.4" r="11.7" stroke="#00F0FF" stroke-width="1.5"/>
        </g>
        <g class="0_5" filter="url(#filter9_d)">
          <path d="M234.3 354.7a9 9 0 0 1-.3 2 5 5 0 0 1-.7 1.7c-.3.5-.7.9-1.2 1.1-.5.3-1 .4-1.6.4-.6 0-1-.1-1.5-.3a3 3 0 0 1-1.2-1c-.3-.4-.5-1-.7-1.6a9.4 9.4 0 0 1 0-4.5c.1-.6.4-1.2.7-1.6a3.3 3.3 0 0 1 2.8-1.5c.6 0 1 .1 1.5.3.5.2.8.5 1.2 1 .3.4.5 1 .7 1.6.2.7.3 1.4.3 2.4Zm-1.4 0v-1l-4.4 3.2.3.7.4.6.6.4.7.1c.4 0 .7 0 1-.2l.7-.8.5-1.3.2-1.7Zm-4.7-.1v1l4.4-3.2-.3-.8-.5-.5a1.8 1.8 0 0 0-1.3-.5 1.9 1.9 0 0 0-1.7 1c-.2.3-.3.8-.4 1.3l-.2 1.7Z" fill="#00F0FF"/>
        </g>
      </g>
      <g class="coin-5">
        <g class="Ellipse 2_6" filter="url(#filter10_di)" >
          <circle cx="230.4" cy="354.4" r="12.4" fill="#00F0FF" fill-opacity=".2"/>
          <circle cx="230.4" cy="354.4" r="11.7" stroke="#00F0FF" stroke-width="1.5"/>
        </g>
        <g class="0_6" filter="url(#filter11_d)">
          <path d="M234.3 354.7a9 9 0 0 1-.3 2 5 5 0 0 1-.7 1.7c-.3.5-.7.9-1.2 1.1-.5.3-1 .4-1.6.4-.6 0-1-.1-1.5-.3a3 3 0 0 1-1.2-1c-.3-.4-.5-1-.7-1.6a9.4 9.4 0 0 1 0-4.5c.1-.6.4-1.2.7-1.6a3.3 3.3 0 0 1 2.8-1.5c.6 0 1 .1 1.5.3.5.2.8.5 1.2 1 .3.4.5 1 .7 1.6.2.7.3 1.4.3 2.4Zm-1.4 0v-1l-4.4 3.2.3.7.4.6.6.4.7.1c.4 0 .7 0 1-.2l.7-.8.5-1.3.2-1.7Zm-4.7-.1v1l4.4-3.2-.3-.8-.5-.5a1.8 1.8 0 0 0-1.3-.5 1.9 1.9 0 0 0-1.7 1c-.2.3-.3.8-.4 1.3l-.2 1.7Z" fill="#00F0FF"/>
        </g>
      </g>
      <g class="coin-4">
        <g class="Ellipse 2_7" filter="url(#filter12_di)" >
          <circle cx="230.4" cy="354.4" r="12.4" fill="#00F0FF" fill-opacity=".2"/>
          <circle cx="230.4" cy="354.4" r="11.7" stroke="#00F0FF" stroke-width="1.5"/>
        </g>
        <g class="0_7" filter="url(#filter13_d)">
          <path d="M234.3 354.7a9 9 0 0 1-.3 2 5 5 0 0 1-.7 1.7c-.3.5-.7.9-1.2 1.1-.5.3-1 .4-1.6.4-.6 0-1-.1-1.5-.3a3 3 0 0 1-1.2-1c-.3-.4-.5-1-.7-1.6a9.4 9.4 0 0 1 0-4.5c.1-.6.4-1.2.7-1.6a3.3 3.3 0 0 1 2.8-1.5c.6 0 1 .1 1.5.3.5.2.8.5 1.2 1 .3.4.5 1 .7 1.6.2.7.3 1.4.3 2.4Zm-1.4 0v-1l-4.4 3.2.3.7.4.6.6.4.7.1c.4 0 .7 0 1-.2l.7-.8.5-1.3.2-1.7Zm-4.7-.1v1l4.4-3.2-.3-.8-.5-.5a1.8 1.8 0 0 0-1.3-.5 1.9 1.9 0 0 0-1.7 1c-.2.3-.3.8-.4 1.3l-.2 1.7Z" fill="#00F0FF"/>
        </g>
      </g>
      <g class="coin-3">
        <g class="Ellipse 2_8" filter="url(#filter14_di)" >
          <circle cx="230.4" cy="354.4" r="12.4" fill="#00F0FF" fill-opacity=".2"/>
          <circle cx="230.4" cy="354.4" r="11.7" stroke="#00F0FF" stroke-width="1.5"/>
        </g>
        <g class="0_8" filter="url(#filter15_d)">
          <path d="M234.3 354.7a9 9 0 0 1-.3 2 5 5 0 0 1-.7 1.7c-.3.5-.7.9-1.2 1.1-.5.3-1 .4-1.6.4-.6 0-1-.1-1.5-.3a3 3 0 0 1-1.2-1c-.3-.4-.5-1-.7-1.6a9.4 9.4 0 0 1 0-4.5c.1-.6.4-1.2.7-1.6a3.3 3.3 0 0 1 2.8-1.5c.6 0 1 .1 1.5.3.5.2.8.5 1.2 1 .3.4.5 1 .7 1.6.2.7.3 1.4.3 2.4Zm-1.4 0v-1l-4.4 3.2.3.7.4.6.6.4.7.1c.4 0 .7 0 1-.2l.7-.8.5-1.3.2-1.7Zm-4.7-.1v1l4.4-3.2-.3-.8-.5-.5a1.8 1.8 0 0 0-1.3-.5 1.9 1.9 0 0 0-1.7 1c-.2.3-.3.8-.4 1.3l-.2 1.7Z" fill="#00F0FF"/>
        </g>
      </g>
      <g class="coin-2">
        <g class="Ellipse 2_9" filter="url(#filter16_di)" >
          <circle cx="230.4" cy="354.4" r="12.4" fill="#00F0FF" fill-opacity=".2"/>
          <circle cx="230.4" cy="354.4" r="11.7" stroke="#00F0FF" stroke-width="1.5"/>
        </g>
        <g class="0_9" filter="url(#filter17_d)">
          <path d="M234.3 354.7a9 9 0 0 1-.3 2 5 5 0 0 1-.7 1.7c-.3.5-.7.9-1.2 1.1-.5.3-1 .4-1.6.4-.6 0-1-.1-1.5-.3a3 3 0 0 1-1.2-1c-.3-.4-.5-1-.7-1.6a9.4 9.4 0 0 1 0-4.5c.1-.6.4-1.2.7-1.6a3.3 3.3 0 0 1 2.8-1.5c.6 0 1 .1 1.5.3.5.2.8.5 1.2 1 .3.4.5 1 .7 1.6.2.7.3 1.4.3 2.4Zm-1.4 0v-1l-4.4 3.2.3.7.4.6.6.4.7.1c.4 0 .7 0 1-.2l.7-.8.5-1.3.2-1.7Zm-4.7-.1v1l4.4-3.2-.3-.8-.5-.5a1.8 1.8 0 0 0-1.3-.5 1.9 1.9 0 0 0-1.7 1c-.2.3-.3.8-.4 1.3l-.2 1.7Z" fill="#00F0FF"/>
        </g>
      </g>
      <g class="coin-1">
        <g class="Ellipse 2_10" filter="url(#filter18_di)" >
          <circle cx="230.4" cy="354.4" r="12.4" fill="#00F0FF" fill-opacity=".2"/>
          <circle cx="230.4" cy="354.4" r="11.7" stroke="#00F0FF" stroke-width="1.5"/>
        </g>
        <g class="0_10" filter="url(#filter19_d)">
          <path d="M234 355c0 .7 0 1.4-.2 2a5 5 0 0 1-.7 1.7c-.3.5-.7.8-1.2 1-.5.3-1 .5-1.7.5l-1.5-.3a3 3 0 0 1-1.1-1c-.3-.4-.6-1-.7-1.6a9.4 9.4 0 0 1 0-4.5c0-.7.3-1.2.6-1.7a3.3 3.3 0 0 1 2.9-1.4c.5 0 1 0 1.5.3.4.2.8.5 1.1 1l.8 1.6.2 2.3Zm-1.4 0a6 6 0 0 0 0-1l-4.3 3.1c0 .3.1.6.3.8 0 .2.2.4.4.6l.6.4.7.1c.4 0 .7 0 1-.3.3-.1.5-.4.7-.7l.5-1.3.1-1.7Zm-4.6-.1v.9l4.3-3.2-.3-.7c0-.2-.2-.4-.4-.6a1.8 1.8 0 0 0-1.3-.5 1.9 1.9 0 0 0-1.7 1l-.5 1.3-.1 1.8Z" fill="#00F0FF"/>
        </g>
      </g>
    </g>
    <g class="hill-clam">
      <path class="Vector 4" d="m225.3 391.2 17.9 7.3 4.1-2 6.8-1.5 7.1-2 3.6-5.6 1-4.4 14.7-10.5 4.5-6.4-1.1-9.2 1-8.3 1-8.3-7.4-6.2-2.3-7.7-7.9-4-5-2-8.5-5.1-10.6 1.3-6.5-1.5h-5.3l-7 6.1h-5.7l-5.9 3.4-3 7.4-6 3.8-2.3 5.6 2.2 10.4-1.5 2.6-1 7 3.3 7.8 9.3 7.5 5.3 4.4 5.2 10.1Z" fill="url(#paint74_linear)"/>
      <path class="Vector" d="M234 313.8c-1.5.2-3.6.9-4.9 1.6-1.4.8-3.2 2.4-4.1 3.7l-.7 1h-2a13 13 0 0 0-6.4 1.5 11 11 0 0 0-6.1 8.5l-.2 1.4-1 .3c-2.3.8-4.8 2.8-6 4.8-1 1.7-1.4 3.2-1.4 5.7 0 2.9.5 5.3 1.6 8l.6 1.4-.4.6a16.4 16.4 0 0 0-1.4 13.2c.6 1.8 1 2.7 2.1 4.2 1 1.3 2 2.1 4.1 3.5l6.8 5 3 2.6 2.3 1.9.1 1.3c.4 2.8 1.4 5.1 3.3 7.2 2.5 2.7 5.7 4.1 9.6 4.2h1.6l1.7 1.2c2.7 2 5.4 3.2 7 3.2 1.8 0 4.1-.9 7-2.7l2-1.3h1.6a12.8 12.8 0 0 0 13.2-11l.2-1.3 1.9-1.5c3-2.4 6.7-5.1 9.3-6.7 3.4-2.2 4.1-2.7 5.2-4 1.2-1.5 2-3.2 2.6-5.1.4-1.3.4-1.8.5-4.3 0-2.6 0-3-.5-4.4-.2-1-.7-2.2-1-2.9l-.7-1.3.5-1.1c1.7-3.6 2.4-7.8 1.8-10.9l-.8-2.5c-1.1-2.3-4-4.8-6.4-5.6-.7-.3-.7-.3-.8-1.3-.2-2.5-1.3-5-3-6.9a13.5 13.5 0 0 0-10.2-4c-1 0-1 0-1.2-.3 0-.2-.6-1-1-1.6-2.2-2.8-5-4.3-8.7-4.9a16.2 16.2 0 0 0-10.1 2l-1-.6a16.2 16.2 0 0 0-9.7-1.8Zm5.7 3.1c.5.1 1.5.5 2.1.9l1.3.6-.5 34.4-.6 34.2-15.4-65c0-.9 2.5-3.5 4.4-4.4a10 10 0 0 1 5.7-1c1.1 0 2.5.2 3 .3Zm15.7.2c2.5.6 5.3 2.6 6.6 4.7l.5.8-8.7 32.1-8.8 32.2.4-34 .5-34.3.8-.4c2.3-1.3 5.8-1.7 8.7-1ZM224 323s15.1 63.2 15 63.3a2967.2 2967.2 0 0 1-26.5-54.6c0-.9.7-3.1 1.2-4.2 1.1-2.2 3.9-4 6.6-4.5 1.2-.2 3.5-.2 3.7 0Zm45.3 1c3.6 1 6 3.6 6.8 7.3l.3 1.8a3275.6 3275.6 0 0 1-28.2 53.4c-.1 0 16.8-62.5 17-62.7.1-.3 3 0 4.1.2Zm-47.3 33.8 13.2 27c.9 1.8 1.5 3.2 1.3 3a7661 7661 0 0 1-29.7-36.2c-1.7-2.2-2.9-6.1-2.8-9.4 0-3 1.2-5.3 3.6-6.8 1-.7 2.6-1.3 2.8-1.1l11.6 23.5Zm58.4-21c1.1.6 2.4 2 3 3.2 1.4 3 .8 7.3-1.5 11.7l-1 2.2-15 17-15.3 17.2 1.6-3.4 13.7-25.6 12.1-22.7.4-.7.7.3 1.3.7ZM222 374.5c18 22 16.8 20.5 16.5 20.3-1.5-.9-5.8-4.5-12.4-10.4-9-8-11.7-10.3-17.6-14.3a9.6 9.6 0 0 1-4.4-5.8 10 10 0 0 1-.4-4c0-2.9.2-3.6 1-5.6.4-.7.4-.7.7-.4l16.6 20.2Zm61.4-16.8c1 3.3.5 7.9-1.2 10.5a12 12 0 0 1-4.4 3.9c-4.7 3-9.2 6.4-18.5 14.2a375 375 0 0 1-7.1 5.8 21.6 21.6 0 0 1-3.8 2.5 2422.5 2422.5 0 0 1 34.4-38.4l.6 1.5Zm-19.6 28.9a10.4 10.4 0 0 1-7.3 6.2l-.7.1.7-.6 7.4-6.2-.1.5Zm-33.3 5.5c.5.5-.8.1-2.4-.7a10.3 10.3 0 0 1-5-5.7l7.4 6.4Z" fill="url(#paint75_linear)"/>
    </g>
    <path class="front-hill" fill-rule="evenodd" clip-rule="evenodd" d="M56 463h375V347.2a141 141 0 0 0-61.9 8l-10 3.6c-116.5 42.4-117.6 42.8-234.4-3.7a141.5 141.5 0 0 0-68.7-8V463Z" fill="url(#paint31_radial)"/>
  </g>
  <defs>
    <linearGradient id="paint45_linear" x1="173.2" y1="140.8" x2="393.2" y2="140.8" gradientUnits="userSpaceOnUse">
      <stop stop-color="#0B14EC"/>
      <stop offset=".6" stop-color="#00F0FF"/>
    </linearGradient>
    <linearGradient id="paint46_linear" x1="173.2" y1="193.4" x2="393.2" y2="193.4" gradientUnits="userSpaceOnUse">
      <stop stop-color="#0B14EC"/>
      <stop offset=".6" stop-color="#00F0FF"/>
    </linearGradient>
    <linearGradient id="paint47_linear" x1="173.6" y1="88.1" x2="393.6" y2="88.1" gradientUnits="userSpaceOnUse">
      <stop stop-color="#0B14EC"/>
      <stop offset=".6" stop-color="#00F0FF"/>
    </linearGradient>
    <linearGradient id="paint48_linear" x1="224" y1="128.2" x2="444" y2="128.2" gradientUnits="userSpaceOnUse">
      <stop stop-color="#0B14EC"/>
      <stop offset=".6" stop-color="#00F0FF"/>
    </linearGradient>
    <linearGradient id="paint49_linear" x1="224" y1="180.9" x2="444" y2="180.9" gradientUnits="userSpaceOnUse">
      <stop stop-color="#0B14EC"/>
      <stop offset=".6" stop-color="#00F0FF"/>
    </linearGradient>
    <linearGradient id="paint50_linear" x1="224" y1="75.6" x2="444" y2="75.6" gradientUnits="userSpaceOnUse">
      <stop stop-color="#0B14EC"/>
      <stop offset=".6" stop-color="#00F0FF"/>
    </linearGradient>
    <linearGradient id="paint51_linear" x1="276.6" y1="104" x2="496.6" y2="104" gradientUnits="userSpaceOnUse">
      <stop stop-color="#0B14EC"/>
      <stop offset=".6" stop-color="#00F0FF"/>
    </linearGradient>
    <linearGradient id="paint52_linear" x1="276.6" y1="156.7" x2="496.6" y2="156.7" gradientUnits="userSpaceOnUse">
      <stop stop-color="#0B14EC"/>
      <stop offset=".6" stop-color="#00F0FF"/>
    </linearGradient>
    <linearGradient id="paint53_linear" x1="276.6" y1="50.4" x2="496.6" y2="50.4" gradientUnits="userSpaceOnUse">
      <stop stop-color="#0B14EC"/>
      <stop offset=".6" stop-color="#00F0FF"/>
    </linearGradient>
    <linearGradient id="paint54_linear" x1="329.3" y1="78.8" x2="549.3" y2="78.8" gradientUnits="userSpaceOnUse">
      <stop stop-color="#0B14EC"/>
      <stop offset=".6" stop-color="#00F0FF"/>
    </linearGradient>
    <linearGradient id="paint55_linear" x1="329.3" y1="131.5" x2="549.3" y2="131.5" gradientUnits="userSpaceOnUse">
      <stop stop-color="#0B14EC"/>
      <stop offset=".6" stop-color="#00F0FF"/>
    </linearGradient>
    <linearGradient id="paint56_linear" x1="329.3" y1="25.2" x2="549.3" y2="25.2" gradientUnits="userSpaceOnUse">
      <stop stop-color="#0B14EC"/>
      <stop offset=".6" stop-color="#00F0FF"/>
    </linearGradient>
    <linearGradient id="paint57_linear" x1="122.5" y1="128.2" x2="342.5" y2="128.2" gradientUnits="userSpaceOnUse">
      <stop stop-color="#0B14EC"/>
      <stop offset=".6" stop-color="#00F0FF"/>
    </linearGradient>
    <linearGradient id="paint58_linear" x1="122.5" y1="180.9" x2="342.5" y2="180.9" gradientUnits="userSpaceOnUse">
      <stop stop-color="#0B14EC"/>
      <stop offset=".6" stop-color="#00F0FF"/>
    </linearGradient>
    <linearGradient id="paint59_linear" x1="122.5" y1="75.6" x2="342.5" y2="75.6" gradientUnits="userSpaceOnUse">
      <stop stop-color="#0B14EC"/>
      <stop offset=".6" stop-color="#00F0FF"/>
    </linearGradient>
    <linearGradient id="paint60_linear" x1="69.9" y1="103" x2="289.9" y2="103" gradientUnits="userSpaceOnUse">
      <stop stop-color="#0B14EC"/>
      <stop offset=".6" stop-color="#00F0FF"/>
    </linearGradient>
    <linearGradient id="paint61_linear" x1="69.9" y1="155.7" x2="289.9" y2="155.7" gradientUnits="userSpaceOnUse">
      <stop stop-color="#0B14EC"/>
      <stop offset=".6" stop-color="#00F0FF"/>
    </linearGradient>
    <linearGradient id="paint62_linear" x1="69.9" y1="50.4" x2="289.9" y2="50.4" gradientUnits="userSpaceOnUse">
      <stop stop-color="#0B14EC"/>
      <stop offset=".6" stop-color="#00F0FF"/>
    </linearGradient>
    <linearGradient id="paint63_linear" x1="17.2" y1="77.8" x2="237.2" y2="77.8" gradientUnits="userSpaceOnUse">
      <stop stop-color="#0B14EC"/>
      <stop offset=".6" stop-color="#00F0FF"/>
    </linearGradient>
    <linearGradient id="paint64_linear" x1="17.2" y1="130.5" x2="237.2" y2="130.5" gradientUnits="userSpaceOnUse">
      <stop stop-color="#0B14EC"/>
      <stop offset=".6" stop-color="#00F0FF"/>
    </linearGradient>
    <linearGradient id="paint65_linear" x1="17.2" y1="25.2" x2="237.2" y2="25.2" gradientUnits="userSpaceOnUse">
      <stop stop-color="#0B14EC"/>
      <stop offset=".6" stop-color="#00F0FF"/>
    </linearGradient>
    <linearGradient id="paint66_linear" x1="381.9" y1="53.6" x2="601.9" y2="53.6" gradientUnits="userSpaceOnUse">
      <stop stop-color="#0B14EC"/>
      <stop offset=".6" stop-color="#00F0FF"/>
    </linearGradient>
    <linearGradient id="paint67_linear" x1="381.9" y1="106.3" x2="601.9" y2="106.3" gradientUnits="userSpaceOnUse">
      <stop stop-color="#0B14EC"/>
      <stop offset=".6" stop-color="#00F0FF"/>
    </linearGradient>
    <linearGradient id="paint68_linear" x1="381.9" y1="1" x2="601.9" y2="1" gradientUnits="userSpaceOnUse">
      <stop stop-color="#0B14EC"/>
      <stop offset=".6" stop-color="#00F0FF"/>
    </linearGradient>
    <linearGradient id="paint69_linear" x1="-35.4" y1="52.6" x2="184.6" y2="52.6" gradientUnits="userSpaceOnUse">
      <stop stop-color="#0B14EC"/>
      <stop offset=".6" stop-color="#00F0FF"/>
    </linearGradient>
    <linearGradient id="paint70_linear" x1="-35.4" y1="105.3" x2="184.6" y2="105.3" gradientUnits="userSpaceOnUse">
      <stop stop-color="#0B14EC"/>
      <stop offset=".6" stop-color="#00F0FF"/>
    </linearGradient>
    <linearGradient id="paint71_linear" x1="-35.4" y1="0" x2="184.6" y2="0" gradientUnits="userSpaceOnUse">
      <stop stop-color="#0B14EC"/>
      <stop offset=".6" stop-color="#00F0FF"/>
    </linearGradient>
    <linearGradient id="paint72_linear" x1="218.5" y1="276" x2="218.5" y2="463" gradientUnits="userSpaceOnUse">
      <stop stop-color="#00F0FF"/>
      <stop offset="1" stop-color="#1C1E51"/>
    </linearGradient>
    <linearGradient id="paint73_linear" x1="131.5" y1="276" x2="131.5" y2="463" gradientUnits="userSpaceOnUse">
      <stop stop-color="#00F0FF"/>
      <stop offset="1" stop-color="#1C1E51"/>
    </linearGradient>
    <linearGradient id="paint74_linear" x1="244.4" y1="315.2" x2="243.6" y2="398.5" gradientUnits="userSpaceOnUse">
      <stop stop-color="#1C1E51"/>
      <stop offset="1" stop-color="#0B14EC"/>
    </linearGradient>
    <linearGradient id="paint75_linear" x1="243.2" y1="399.8" x2="245" y2="313.9" gradientUnits="userSpaceOnUse">
      <stop stop-color="#1C1E51"/>
      <stop offset="1" stop-color="#0B14EC"/>
    </linearGradient>
    <filter id="filter0_di" x="214" y="338" width="32.9" height="32.9" filterUnits="userSpaceOnUse" color-interpolation-filters="sRGB">
      <feFlood flood-opacity="0" result="BackgroundImageFix"/>
      <feColorMatrix in="SourceAlpha" values="0 0 0 0 0 0 0 0 0 0 0 0 0 0 0 0 0 0 127 0" result="hardAlpha"/>
      <feOffset/>
      <feGaussianBlur stdDeviation="2"/>
      <feComposite in2="hardAlpha" operator="out"/>
      <feColorMatrix values="0 0 0 0 0 0 0 0 0 0.94 0 0 0 0 1 0 0 0 1 0"/>
      <feBlend in2="BackgroundImageFix" result="effect1_dropShadow"/>
      <feBlend in="SourceGraphic" in2="effect1_dropShadow" result="shape"/>
      <feColorMatrix in="SourceAlpha" values="0 0 0 0 0 0 0 0 0 0 0 0 0 0 0 0 0 0 127 0" result="hardAlpha"/>
      <feOffset/>
      <feGaussianBlur stdDeviation="2"/>
      <feComposite in2="hardAlpha" operator="arithmetic" k2="-1" k3="1"/>
      <feColorMatrix values="0 0 0 0 0 0 0 0 0 0 0 0 0 0 0 0 0 0 0.25 0"/>
      <feBlend in2="shape" result="effect2_innerShadow"/>
    </filter>
    <filter id="filter1_d" x="222.8" y="345.4" width="15.4" height="18.5" filterUnits="userSpaceOnUse" color-interpolation-filters="sRGB">
      <feFlood flood-opacity="0" result="BackgroundImageFix"/>
      <feColorMatrix in="SourceAlpha" values="0 0 0 0 0 0 0 0 0 0 0 0 0 0 0 0 0 0 127 0" result="hardAlpha"/>
      <feOffset/>
      <feGaussianBlur stdDeviation="2"/>
      <feComposite in2="hardAlpha" operator="out"/>
      <feColorMatrix values="0 0 0 0 0 0 0 0 0 0.94 0 0 0 0 1 0 0 0 1 0"/>
      <feBlend in2="BackgroundImageFix" result="effect1_dropShadow"/>
      <feBlend in="SourceGraphic" in2="effect1_dropShadow" result="shape"/>
    </filter>
    <filter id="filter2_di" x="214" y="338" width="32.9" height="32.9" filterUnits="userSpaceOnUse" color-interpolation-filters="sRGB">
      <feFlood flood-opacity="0" result="BackgroundImageFix"/>
      <feColorMatrix in="SourceAlpha" values="0 0 0 0 0 0 0 0 0 0 0 0 0 0 0 0 0 0 127 0" result="hardAlpha"/>
      <feOffset/>
      <feGaussianBlur stdDeviation="2"/>
      <feComposite in2="hardAlpha" operator="out"/>
      <feColorMatrix values="0 0 0 0 0 0 0 0 0 0.94 0 0 0 0 1 0 0 0 1 0"/>
      <feBlend in2="BackgroundImageFix" result="effect1_dropShadow"/>
      <feBlend in="SourceGraphic" in2="effect1_dropShadow" result="shape"/>
      <feColorMatrix in="SourceAlpha" values="0 0 0 0 0 0 0 0 0 0 0 0 0 0 0 0 0 0 127 0" result="hardAlpha"/>
      <feOffset/>
      <feGaussianBlur stdDeviation="2"/>
      <feComposite in2="hardAlpha" operator="arithmetic" k2="-1" k3="1"/>
      <feColorMatrix values="0 0 0 0 0 0 0 0 0 0 0 0 0 0 0 0 0 0 0.25 0"/>
      <feBlend in2="shape" result="effect2_innerShadow"/>
    </filter>
    <filter id="filter3_d" x="222.8" y="345.4" width="15.4" height="18.5" filterUnits="userSpaceOnUse" color-interpolation-filters="sRGB">
      <feFlood flood-opacity="0" result="BackgroundImageFix"/>
      <feColorMatrix in="SourceAlpha" values="0 0 0 0 0 0 0 0 0 0 0 0 0 0 0 0 0 0 127 0" result="hardAlpha"/>
      <feOffset/>
      <feGaussianBlur stdDeviation="2"/>
      <feComposite in2="hardAlpha" operator="out"/>
      <feColorMatrix values="0 0 0 0 0 0 0 0 0 0.94 0 0 0 0 1 0 0 0 1 0"/>
      <feBlend in2="BackgroundImageFix" result="effect1_dropShadow"/>
      <feBlend in="SourceGraphic" in2="effect1_dropShadow" result="shape"/>
    </filter>
    <filter id="filter4_di" x="214" y="338" width="32.9" height="32.9" filterUnits="userSpaceOnUse" color-interpolation-filters="sRGB">
      <feFlood flood-opacity="0" result="BackgroundImageFix"/>
      <feColorMatrix in="SourceAlpha" values="0 0 0 0 0 0 0 0 0 0 0 0 0 0 0 0 0 0 127 0" result="hardAlpha"/>
      <feOffset/>
      <feGaussianBlur stdDeviation="2"/>
      <feComposite in2="hardAlpha" operator="out"/>
      <feColorMatrix values="0 0 0 0 0 0 0 0 0 0.94 0 0 0 0 1 0 0 0 1 0"/>
      <feBlend in2="BackgroundImageFix" result="effect1_dropShadow"/>
      <feBlend in="SourceGraphic" in2="effect1_dropShadow" result="shape"/>
      <feColorMatrix in="SourceAlpha" values="0 0 0 0 0 0 0 0 0 0 0 0 0 0 0 0 0 0 127 0" result="hardAlpha"/>
      <feOffset/>
      <feGaussianBlur stdDeviation="2"/>
      <feComposite in2="hardAlpha" operator="arithmetic" k2="-1" k3="1"/>
      <feColorMatrix values="0 0 0 0 0 0 0 0 0 0 0 0 0 0 0 0 0 0 0.25 0"/>
      <feBlend in2="shape" result="effect2_innerShadow"/>
    </filter>
    <filter id="filter5_d" x="222.8" y="345.4" width="15.4" height="18.5" filterUnits="userSpaceOnUse" color-interpolation-filters="sRGB">
      <feFlood flood-opacity="0" result="BackgroundImageFix"/>
      <feColorMatrix in="SourceAlpha" values="0 0 0 0 0 0 0 0 0 0 0 0 0 0 0 0 0 0 127 0" result="hardAlpha"/>
      <feOffset/>
      <feGaussianBlur stdDeviation="2"/>
      <feComposite in2="hardAlpha" operator="out"/>
      <feColorMatrix values="0 0 0 0 0 0 0 0 0 0.94 0 0 0 0 1 0 0 0 1 0"/>
      <feBlend in2="BackgroundImageFix" result="effect1_dropShadow"/>
      <feBlend in="SourceGraphic" in2="effect1_dropShadow" result="shape"/>
    </filter>
    <filter id="filter6_di" x="214" y="338" width="32.9" height="32.9" filterUnits="userSpaceOnUse" color-interpolation-filters="sRGB">
      <feFlood flood-opacity="0" result="BackgroundImageFix"/>
      <feColorMatrix in="SourceAlpha" values="0 0 0 0 0 0 0 0 0 0 0 0 0 0 0 0 0 0 127 0" result="hardAlpha"/>
      <feOffset/>
      <feGaussianBlur stdDeviation="2"/>
      <feComposite in2="hardAlpha" operator="out"/>
      <feColorMatrix values="0 0 0 0 0 0 0 0 0 0.94 0 0 0 0 1 0 0 0 1 0"/>
      <feBlend in2="BackgroundImageFix" result="effect1_dropShadow"/>
      <feBlend in="SourceGraphic" in2="effect1_dropShadow" result="shape"/>
      <feColorMatrix in="SourceAlpha" values="0 0 0 0 0 0 0 0 0 0 0 0 0 0 0 0 0 0 127 0" result="hardAlpha"/>
      <feOffset/>
      <feGaussianBlur stdDeviation="2"/>
      <feComposite in2="hardAlpha" operator="arithmetic" k2="-1" k3="1"/>
      <feColorMatrix values="0 0 0 0 0 0 0 0 0 0 0 0 0 0 0 0 0 0 0.25 0"/>
      <feBlend in2="shape" result="effect2_innerShadow"/>
    </filter>
    <filter id="filter7_d" x="222.8" y="345.4" width="15.4" height="18.5" filterUnits="userSpaceOnUse" color-interpolation-filters="sRGB">
      <feFlood flood-opacity="0" result="BackgroundImageFix"/>
      <feColorMatrix in="SourceAlpha" values="0 0 0 0 0 0 0 0 0 0 0 0 0 0 0 0 0 0 127 0" result="hardAlpha"/>
      <feOffset/>
      <feGaussianBlur stdDeviation="2"/>
      <feComposite in2="hardAlpha" operator="out"/>
      <feColorMatrix values="0 0 0 0 0 0 0 0 0 0.94 0 0 0 0 1 0 0 0 1 0"/>
      <feBlend in2="BackgroundImageFix" result="effect1_dropShadow"/>
      <feBlend in="SourceGraphic" in2="effect1_dropShadow" result="shape"/>
    </filter>
    <filter id="filter8_di" x="214" y="338" width="32.9" height="32.9" filterUnits="userSpaceOnUse" color-interpolation-filters="sRGB">
      <feFlood flood-opacity="0" result="BackgroundImageFix"/>
      <feColorMatrix in="SourceAlpha" values="0 0 0 0 0 0 0 0 0 0 0 0 0 0 0 0 0 0 127 0" result="hardAlpha"/>
      <feOffset/>
      <feGaussianBlur stdDeviation="2"/>
      <feComposite in2="hardAlpha" operator="out"/>
      <feColorMatrix values="0 0 0 0 0 0 0 0 0 0.94 0 0 0 0 1 0 0 0 1 0"/>
      <feBlend in2="BackgroundImageFix" result="effect1_dropShadow"/>
      <feBlend in="SourceGraphic" in2="effect1_dropShadow" result="shape"/>
      <feColorMatrix in="SourceAlpha" values="0 0 0 0 0 0 0 0 0 0 0 0 0 0 0 0 0 0 127 0" result="hardAlpha"/>
      <feOffset/>
      <feGaussianBlur stdDeviation="2"/>
      <feComposite in2="hardAlpha" operator="arithmetic" k2="-1" k3="1"/>
      <feColorMatrix values="0 0 0 0 0 0 0 0 0 0 0 0 0 0 0 0 0 0 0.25 0"/>
      <feBlend in2="shape" result="effect2_innerShadow"/>
    </filter>
    <filter id="filter9_d" x="222.8" y="345.4" width="15.4" height="18.5" filterUnits="userSpaceOnUse" color-interpolation-filters="sRGB">
      <feFlood flood-opacity="0" result="BackgroundImageFix"/>
      <feColorMatrix in="SourceAlpha" values="0 0 0 0 0 0 0 0 0 0 0 0 0 0 0 0 0 0 127 0" result="hardAlpha"/>
      <feOffset/>
      <feGaussianBlur stdDeviation="2"/>
      <feComposite in2="hardAlpha" operator="out"/>
      <feColorMatrix values="0 0 0 0 0 0 0 0 0 0.94 0 0 0 0 1 0 0 0 1 0"/>
      <feBlend in2="BackgroundImageFix" result="effect1_dropShadow"/>
      <feBlend in="SourceGraphic" in2="effect1_dropShadow" result="shape"/>
    </filter>
    <filter id="filter10_di" x="214" y="338" width="32.9" height="32.9" filterUnits="userSpaceOnUse" color-interpolation-filters="sRGB">
      <feFlood flood-opacity="0" result="BackgroundImageFix"/>
      <feColorMatrix in="SourceAlpha" values="0 0 0 0 0 0 0 0 0 0 0 0 0 0 0 0 0 0 127 0" result="hardAlpha"/>
      <feOffset/>
      <feGaussianBlur stdDeviation="2"/>
      <feComposite in2="hardAlpha" operator="out"/>
      <feColorMatrix values="0 0 0 0 0 0 0 0 0 0.94 0 0 0 0 1 0 0 0 1 0"/>
      <feBlend in2="BackgroundImageFix" result="effect1_dropShadow"/>
      <feBlend in="SourceGraphic" in2="effect1_dropShadow" result="shape"/>
      <feColorMatrix in="SourceAlpha" values="0 0 0 0 0 0 0 0 0 0 0 0 0 0 0 0 0 0 127 0" result="hardAlpha"/>
      <feOffset/>
      <feGaussianBlur stdDeviation="2"/>
      <feComposite in2="hardAlpha" operator="arithmetic" k2="-1" k3="1"/>
      <feColorMatrix values="0 0 0 0 0 0 0 0 0 0 0 0 0 0 0 0 0 0 0.25 0"/>
      <feBlend in2="shape" result="effect2_innerShadow"/>
    </filter>
    <filter id="filter11_d" x="222.8" y="345.4" width="15.4" height="18.5" filterUnits="userSpaceOnUse" color-interpolation-filters="sRGB">
      <feFlood flood-opacity="0" result="BackgroundImageFix"/>
      <feColorMatrix in="SourceAlpha" values="0 0 0 0 0 0 0 0 0 0 0 0 0 0 0 0 0 0 127 0" result="hardAlpha"/>
      <feOffset/>
      <feGaussianBlur stdDeviation="2"/>
      <feComposite in2="hardAlpha" operator="out"/>
      <feColorMatrix values="0 0 0 0 0 0 0 0 0 0.94 0 0 0 0 1 0 0 0 1 0"/>
      <feBlend in2="BackgroundImageFix" result="effect1_dropShadow"/>
      <feBlend in="SourceGraphic" in2="effect1_dropShadow" result="shape"/>
    </filter>
    <filter id="filter12_di" x="214" y="338" width="32.9" height="32.9" filterUnits="userSpaceOnUse" color-interpolation-filters="sRGB">
      <feFlood flood-opacity="0" result="BackgroundImageFix"/>
      <feColorMatrix in="SourceAlpha" values="0 0 0 0 0 0 0 0 0 0 0 0 0 0 0 0 0 0 127 0" result="hardAlpha"/>
      <feOffset/>
      <feGaussianBlur stdDeviation="2"/>
      <feComposite in2="hardAlpha" operator="out"/>
      <feColorMatrix values="0 0 0 0 0 0 0 0 0 0.94 0 0 0 0 1 0 0 0 1 0"/>
      <feBlend in2="BackgroundImageFix" result="effect1_dropShadow"/>
      <feBlend in="SourceGraphic" in2="effect1_dropShadow" result="shape"/>
      <feColorMatrix in="SourceAlpha" values="0 0 0 0 0 0 0 0 0 0 0 0 0 0 0 0 0 0 127 0" result="hardAlpha"/>
      <feOffset/>
      <feGaussianBlur stdDeviation="2"/>
      <feComposite in2="hardAlpha" operator="arithmetic" k2="-1" k3="1"/>
      <feColorMatrix values="0 0 0 0 0 0 0 0 0 0 0 0 0 0 0 0 0 0 0.25 0"/>
      <feBlend in2="shape" result="effect2_innerShadow"/>
    </filter>
    <filter id="filter13_d" x="222.8" y="345.4" width="15.4" height="18.5" filterUnits="userSpaceOnUse" color-interpolation-filters="sRGB">
      <feFlood flood-opacity="0" result="BackgroundImageFix"/>
      <feColorMatrix in="SourceAlpha" values="0 0 0 0 0 0 0 0 0 0 0 0 0 0 0 0 0 0 127 0" result="hardAlpha"/>
      <feOffset/>
      <feGaussianBlur stdDeviation="2"/>
      <feComposite in2="hardAlpha" operator="out"/>
      <feColorMatrix values="0 0 0 0 0 0 0 0 0 0.94 0 0 0 0 1 0 0 0 1 0"/>
      <feBlend in2="BackgroundImageFix" result="effect1_dropShadow"/>
      <feBlend in="SourceGraphic" in2="effect1_dropShadow" result="shape"/>
    </filter>
    <filter id="filter14_di" x="214" y="338" width="32.9" height="32.9" filterUnits="userSpaceOnUse" color-interpolation-filters="sRGB">
      <feFlood flood-opacity="0" result="BackgroundImageFix"/>
      <feColorMatrix in="SourceAlpha" values="0 0 0 0 0 0 0 0 0 0 0 0 0 0 0 0 0 0 127 0" result="hardAlpha"/>
      <feOffset/>
      <feGaussianBlur stdDeviation="2"/>
      <feComposite in2="hardAlpha" operator="out"/>
      <feColorMatrix values="0 0 0 0 0 0 0 0 0 0.94 0 0 0 0 1 0 0 0 1 0"/>
      <feBlend in2="BackgroundImageFix" result="effect1_dropShadow"/>
      <feBlend in="SourceGraphic" in2="effect1_dropShadow" result="shape"/>
      <feColorMatrix in="SourceAlpha" values="0 0 0 0 0 0 0 0 0 0 0 0 0 0 0 0 0 0 127 0" result="hardAlpha"/>
      <feOffset/>
      <feGaussianBlur stdDeviation="2"/>
      <feComposite in2="hardAlpha" operator="arithmetic" k2="-1" k3="1"/>
      <feColorMatrix values="0 0 0 0 0 0 0 0 0 0 0 0 0 0 0 0 0 0 0.25 0"/>
      <feBlend in2="shape" result="effect2_innerShadow"/>
    </filter>
    <filter id="filter15_d" x="222.8" y="345.4" width="15.4" height="18.5" filterUnits="userSpaceOnUse" color-interpolation-filters="sRGB">
      <feFlood flood-opacity="0" result="BackgroundImageFix"/>
      <feColorMatrix in="SourceAlpha" values="0 0 0 0 0 0 0 0 0 0 0 0 0 0 0 0 0 0 127 0" result="hardAlpha"/>
      <feOffset/>
      <feGaussianBlur stdDeviation="2"/>
      <feComposite in2="hardAlpha" operator="out"/>
      <feColorMatrix values="0 0 0 0 0 0 0 0 0 0.94 0 0 0 0 1 0 0 0 1 0"/>
      <feBlend in2="BackgroundImageFix" result="effect1_dropShadow"/>
      <feBlend in="SourceGraphic" in2="effect1_dropShadow" result="shape"/>
    </filter>
    <filter id="filter16_di" x="214" y="338" width="32.9" height="32.9" filterUnits="userSpaceOnUse" color-interpolation-filters="sRGB">
      <feFlood flood-opacity="0" result="BackgroundImageFix"/>
      <feColorMatrix in="SourceAlpha" values="0 0 0 0 0 0 0 0 0 0 0 0 0 0 0 0 0 0 127 0" result="hardAlpha"/>
      <feOffset/>
      <feGaussianBlur stdDeviation="2"/>
      <feComposite in2="hardAlpha" operator="out"/>
      <feColorMatrix values="0 0 0 0 0 0 0 0 0 0.94 0 0 0 0 1 0 0 0 1 0"/>
      <feBlend in2="BackgroundImageFix" result="effect1_dropShadow"/>
      <feBlend in="SourceGraphic" in2="effect1_dropShadow" result="shape"/>
      <feColorMatrix in="SourceAlpha" values="0 0 0 0 0 0 0 0 0 0 0 0 0 0 0 0 0 0 127 0" result="hardAlpha"/>
      <feOffset/>
      <feGaussianBlur stdDeviation="2"/>
      <feComposite in2="hardAlpha" operator="arithmetic" k2="-1" k3="1"/>
      <feColorMatrix values="0 0 0 0 0 0 0 0 0 0 0 0 0 0 0 0 0 0 0.25 0"/>
      <feBlend in2="shape" result="effect2_innerShadow"/>
    </filter>
    <filter id="filter17_d" x="222.8" y="345.4" width="15.4" height="18.5" filterUnits="userSpaceOnUse" color-interpolation-filters="sRGB">
      <feFlood flood-opacity="0" result="BackgroundImageFix"/>
      <feColorMatrix in="SourceAlpha" values="0 0 0 0 0 0 0 0 0 0 0 0 0 0 0 0 0 0 127 0" result="hardAlpha"/>
      <feOffset/>
      <feGaussianBlur stdDeviation="2"/>
      <feComposite in2="hardAlpha" operator="out"/>
      <feColorMatrix values="0 0 0 0 0 0 0 0 0 0.94 0 0 0 0 1 0 0 0 1 0"/>
      <feBlend in2="BackgroundImageFix" result="effect1_dropShadow"/>
      <feBlend in="SourceGraphic" in2="effect1_dropShadow" result="shape"/>
    </filter>
    <filter id="filter18_di" x="214" y="338" width="32.9" height="32.9" filterUnits="userSpaceOnUse" color-interpolation-filters="sRGB">
      <feFlood flood-opacity="0" result="BackgroundImageFix"/>
      <feColorMatrix in="SourceAlpha" values="0 0 0 0 0 0 0 0 0 0 0 0 0 0 0 0 0 0 127 0" result="hardAlpha"/>
      <feOffset/>
      <feGaussianBlur stdDeviation="2"/>
      <feComposite in2="hardAlpha" operator="out"/>
      <feColorMatrix values="0 0 0 0 0 0 0 0 0 0.94 0 0 0 0 1 0 0 0 1 0"/>
      <feBlend in2="BackgroundImageFix" result="effect1_dropShadow"/>
      <feBlend in="SourceGraphic" in2="effect1_dropShadow" result="shape"/>
      <feColorMatrix in="SourceAlpha" values="0 0 0 0 0 0 0 0 0 0 0 0 0 0 0 0 0 0 127 0" result="hardAlpha"/>
      <feOffset/>
      <feGaussianBlur stdDeviation="2"/>
      <feComposite in2="hardAlpha" operator="arithmetic" k2="-1" k3="1"/>
      <feColorMatrix values="0 0 0 0 0 0 0 0 0 0 0 0 0 0 0 0 0 0 0.25 0"/>
      <feBlend in2="shape" result="effect2_innerShadow"/>
    </filter>
    <filter id="filter19_d" x="222.6" y="345.7" width="15.4" height="18.5" filterUnits="userSpaceOnUse" color-interpolation-filters="sRGB">
      <feFlood flood-opacity="0" result="BackgroundImageFix"/>
      <feColorMatrix in="SourceAlpha" values="0 0 0 0 0 0 0 0 0 0 0 0 0 0 0 0 0 0 127 0" result="hardAlpha"/>
      <feOffset/>
      <feGaussianBlur stdDeviation="2"/>
      <feComposite in2="hardAlpha" operator="out"/>
      <feColorMatrix values="0 0 0 0 0 0 0 0 0 0.94 0 0 0 0 1 0 0 0 1 0"/>
      <feBlend in2="BackgroundImageFix" result="effect1_dropShadow"/>
      <feBlend in="SourceGraphic" in2="effect1_dropShadow" result="shape"/>
    </filter>
    <radialGradient id="paint31_radial" cx="0" cy="0" r="1" gradientUnits="userSpaceOnUse" gradientTransform="matrix(107.14842 728.59038 -4619.20644 679.31268 281.2 -156.6)">
      <stop stop-color="#00F0FF"/>
      <stop offset=".5" stop-color="#0F7FA2"/>
      <stop offset=".8" stop-color="#1C1E51"/>
      <stop offset=".9" stop-color="#1C1E51"/>
    </radialGradient>
  </defs>
</svg>
