<svg width="487" height="249" viewBox="0 0 487 249" fill="none" xmlns="http://www.w3.org/2000/svg">
  <g class="upper-ring-wide">
    <path class="b5" d="M222.6 53c-1.6.8-2.2 2.5-1.7 4.3.2.7 1.4 2 2.2 2.1 1.3.4 2.6.1 3.5-.8l.5-.5h1.5c1.2 0 1.4 0 1.7.3.2.2.2.7.3 8.5v8.2l.4.7c.4.9 1.3 1.8 2 2.2l.6.3h-2.8c-2.1 0-2.9 0-3-.2-.1 0-.2-1.6-.2-4.2v-4.2l-.5-.7c-.5-1-1.3-1.6-2.3-2-.7-.3-1-.3-5.2-.3h-4.4l-.4-.5a3.5 3.5 0 1 0-4 5.6c1.3.6 2.6.3 3.8-.7l.7-.7h4c3.4 0 4 0 4.3.2.4.2.4.3.4 4.1 0 3.6 0 4 .3 4.7.3 1 1.2 1.8 2.1 2.3.7.4.8.4 4.8.4l4.1.1v.8c0 1.4.4 1.3-6 1.4-5.6 0-5.7.1-6.4.4-.8.4-1.9 1.4-2.3 2.2a7 7 0 0 0-.6 3.2c0 1 0 1-.4 1.4-.3.2-.6.7-.8 1.1-.3.7-.4 1-.3 1.7.2 3.2 4 4.5 6 2.1a3 3 0 0 0 .9-2.3 3 3 0 0 0-1-2.5c-.6-.6-.6-.6-.6-1.7 0-1.9-.4-1.8 5.2-1.8h5.7c1.7-.3 2.8-1 3.7-2.4l.4-.6v7c0 6.5 0 7-.3 7.6-.9 2-3.5 2.1-4.6.3-.3-.5-.3-.8-.3-1.8 0-1.1 0-1.2.4-1.5.3-.2.6-.7.8-1.1 1.2-2.6-1-5.5-3.9-5a3.5 3.5 0 0 0-1.6 6.1c.4.4.5.5.5 1.4 0 3 1.3 5.2 3.7 6.4.9.4 1.2.4 2.4.5 1 0 1.5 0 2-.2a6.3 6.3 0 0 0 3.7-2.8c.9-1.5.9-1.4.9-11v-8.5h2v8.2l.1 9c.4 2 1.8 3.9 3.6 4.8 1 .4 1 .4 2.7.4 1.5 0 1.8 0 2.5-.3a6.4 6.4 0 0 0 3.8-6.1v-1.3l.6-.6c1-1 1.3-2.2.9-3.5-.3-1-.8-1.6-1.7-2-.6-.4-.9-.5-1.6-.5a3.5 3.5 0 0 0-2.4 6c.5.5.5.6.5 1.5 0 1.2-.3 2-1 2.5-1.2 1.1-3 .8-3.9-.6l-.3-.6V85.3l.5.8c.2.4.8 1 1.1 1.2 1.3.8 1.4.8 7.2.9l5.6.1c.4.1.6.7.6 1.8 0 1 0 1-.5 1.5-.8.8-1.1 1.5-1.1 2.6 0 2 1.4 3.5 3.4 3.5s3.5-1.5 3.5-3.5c0-1-.3-1.6-1-2.5l-.6-.6v-1.6c-.1-1.3-.2-1.8-.4-2.3-.4-1-1.4-1.9-2.3-2.3l-.8-.4h-5.6l-5.6-.1-.3-.4c-.2-.2-.3-.5-.3-1v-.8h4c4-.1 4.1-.1 4.8-.4 1-.5 1.7-1.2 2.2-2.1l.4-.7v-4.1c0-3.7 0-4.2.3-4.3.2-.2 1.2-.2 4.4-.2h4l.4.4c.4.6 1.4 1.1 2.3 1.2 2 .3 3.8-1.3 3.8-3.4a3.4 3.4 0 0 0-5.8-2.6l-.7.7h-9.3l-.7.5c-.4.2-1 .6-1.3 1-1 1.1-1 1.5-1.1 5.9 0 2.1-.1 4-.2 4 0 .2-.7.2-3 .2h-2.9l.6-.3c.8-.4 1.7-1.3 2.1-2.2l.4-.8v-8.3c.2-8 .2-8.2.4-8.4.2-.2.7-.2 1.7-.2 1.3 0 1.4 0 1.7.3.5.6 1.5 1.1 2.4 1.2 1.7.1 3.1-.9 3.6-2.4.2-1 .2-1.2 0-2.1a3.3 3.3 0 0 0-3.3-2.4c-1.1 0-2 .3-2.6 1l-.4.5h-1.5c-2.7 0-4.2.8-5.2 2.8l-.5 1v8.2c-.1 7.9-.1 8.2-.4 8.4-.2.1-.8.2-2.7.2h-2.4v-3h.4c1 0 2.1-.7 2.6-1.6.3-.4.3-1.1.3-5.6v-6.2a7.1 7.1 0 0 0-5-5.5c-.7-.2-1.2-.3-2.3-.2-1.4 0-1.6.1-2.6.6a7 7 0 0 0-3.8 4.5c-.2.8-.2 1.7-.2 6.2 0 5.7 0 6 .6 6.8.4.5 1.5 1 2.2 1h.5v3h-2.5c-2.4 0-2.5 0-2.8-.3-.2-.3-.2-.7-.3-8.6v-8.2l-.4-.7c-.5-1-1.4-1.9-2.4-2.3-.7-.4-1-.4-2.6-.4-1.7-.1-1.8-.1-2-.4l-1-.8c-1-.6-2.3-.6-3.3 0Z" fill="url(#paint18_linear)" fill-opacity=".5"/>
    <path class="c5" d="M222.6 105.7c-1.6.8-2.2 2.5-1.7 4.2.2.8 1.4 2 2.2 2.2 1.3.4 2.6 0 3.5-.8l.5-.6h1.5c1.2 0 1.4 0 1.7.3.2.3.2.7.3 8.6v8.2l.4.7c.4.8 1.3 1.8 2 2.2l.6.3h-2.8c-2.1 0-2.9 0-3-.2-.1-.1-.2-1.7-.2-4.3v-4.1l-.5-.8c-.5-.9-1.3-1.6-2.3-2-.7-.2-1-.2-5.2-.2h-4.4l-.4-.5a3.5 3.5 0 1 0-4 5.5c1.3.6 2.6.4 3.8-.7l.7-.7h4c3.4 0 4 0 4.3.3.4.2.4.2.4 4 0 3.6 0 4 .3 4.7.3 1 1.2 1.9 2.1 2.4.7.3.8.3 4.8.4h4.1v.9c0 1.4.4 1.3-6 1.4-5.6 0-5.7 0-6.4.4-.8.3-1.9 1.4-2.3 2.2a7 7 0 0 0-.6 3.1c0 1 0 1.1-.4 1.4-.3.2-.6.7-.8 1.2-.3.6-.4.9-.3 1.7.2 3.1 4 4.4 6 2a3 3 0 0 0 .9-2.3 3 3 0 0 0-1-2.4c-.6-.6-.6-.6-.6-1.8 0-1.8-.4-1.7 5.2-1.7l5.7-.1c1.7-.2 2.8-1 3.7-2.3l.4-.6v7c0 6.5 0 7-.3 7.5-.9 2-3.5 2.2-4.6.3-.3-.5-.3-.7-.3-1.7 0-1.2 0-1.2.4-1.6.3-.2.6-.7.8-1 1.2-2.7-1-5.6-3.9-5a3.6 3.6 0 0 0-1.6 6c.4.4.5.5.5 1.4 0 3 1.3 5.3 3.7 6.4.9.4 1.2.5 2.4.5 1 0 1.5 0 2-.2a6.3 6.3 0 0 0 3.7-2.7c.9-1.6.9-1.4.9-11v-8.6h2v8.3l.1 9c.4 2 1.8 3.9 3.6 4.7 1 .5 1 .5 2.7.5 1.5 0 1.8 0 2.5-.4a6.4 6.4 0 0 0 3.8-6v-1.4l.6-.6c1-1 1.3-2.2.9-3.5-.3-.9-.8-1.5-1.7-2a3.5 3.5 0 0 0-4 5.6c.5.5.5.5.5 1.5 0 1.1-.3 2-1 2.5-1.2 1-3 .8-3.9-.7l-.3-.6V138l.5.7c.2.4.8 1 1.1 1.2 1.3.9 1.4.9 7.2 1h5.6c.4.2.6.7.6 1.9 0 1 0 1-.5 1.5-.8.7-1.1 1.5-1.1 2.5 0 2 1.4 3.5 3.4 3.5s3.5-1.5 3.5-3.5c0-1-.3-1.6-1-2.4l-.6-.6v-1.6c-.1-1.3-.2-1.8-.4-2.3-.4-1-1.4-2-2.3-2.4l-.8-.4h-11.2l-.3-.4c-.2-.3-.3-.6-.3-1.1v-.8h4c4 0 4.1 0 4.8-.4 1-.4 1.7-1.2 2.2-2l.4-.8v-4.1c0-3.7 0-4.1.3-4.3.2-.1 1.2-.2 4.4-.2h4l.4.5c.4.6 1.4 1 2.3 1.2 2 .2 3.8-1.4 3.8-3.4 0-1.1-.4-2-1.1-2.7a3.4 3.4 0 0 0-4.7.1l-.7.6h-4.6l-4.7.1-.7.4-1.3 1c-1 1.2-1 1.5-1.1 6l-.2 4c0 .1-.7.2-3 .2h-2.9l.6-.3c.8-.5 1.7-1.4 2.1-2.3l.4-.8v-8.2c.2-8 .2-8.3.4-8.5.2-.1.7-.2 1.7-.2 1.3 0 1.4 0 1.7.4.5.6 1.5 1 2.4 1.1 1.7.2 3.1-.8 3.6-2.4.2-.9.2-1.1 0-2a3.3 3.3 0 0 0-3.3-2.5c-1.1 0-2 .4-2.6 1.1l-.4.5h-1.5c-2.7 0-4.2.8-5.2 2.8l-.5 1v8.1c-.1 8-.1 8.2-.4 8.4-.2.2-.8.2-2.7.2h-2.4v-2.9h.4c1 0 2.1-.7 2.6-1.7.3-.3.3-1 .3-5.6v-6.1a7.1 7.1 0 0 0-5-5.5c-.7-.2-1.2-.3-2.3-.2-1.4 0-1.6 0-2.6.5a7 7 0 0 0-3.8 4.5c-.2.8-.2 1.7-.2 6.3 0 5.6 0 5.9.6 6.7.4.5 1.5 1 2.2 1h.5v3h-2.5c-2.4 0-2.5 0-2.8-.3-.2-.3-.2-.7-.3-8.5v-8.2l-.4-.8c-.5-.9-1.4-1.8-2.4-2.3-.7-.3-1-.3-2.6-.4-1.7 0-1.8 0-2-.4l-1-.8c-1-.5-2.3-.5-3.3 0Z" fill="url(#paint19_linear)" fill-opacity=".2"/>
    <path class="a5" d="M222.9.4c-1.5.8-2.2 2.5-1.7 4.2.2.8 1.4 2 2.2 2.2 1.3.4 2.6 0 3.5-.8l.5-.6h1.5c1.3 0 1.4 0 1.7.3.2.3.2.7.3 8.6v8.2l.4.7c.5.8 1.3 1.8 2.1 2.2l.6.3H231c-2.1 0-2.9 0-3-.2 0-.1-.2-1.7-.2-4.3v-4.1l-.4-.8c-.6-.9-1.3-1.6-2.3-2-.7-.2-1.1-.2-5.3-.2h-4.4l-.4-.5a3.5 3.5 0 1 0-4 5.5c1.3.6 2.6.4 3.8-.7l.8-.7h4c3.3 0 4 0 4.3.3.3.2.3.2.3 4 0 3.6 0 4 .3 4.7.3 1 1.2 1.9 2.1 2.4.7.3.9.3 4.9.4h4v.9c0 1.4.4 1.3-6 1.4-5.6 0-5.7 0-6.4.4-.8.3-1.9 1.4-2.3 2.2a7 7 0 0 0-.6 3.1c0 1 0 1.1-.4 1.4-.2.2-.6.7-.8 1.2-.3.6-.4.9-.3 1.7.2 3.1 4 4.4 6 2a3 3 0 0 0 .9-2.3 3 3 0 0 0-1-2.4c-.6-.6-.6-.6-.6-1.8 0-1.8-.3-1.7 5.2-1.7l5.8-.1c1.6-.2 2.7-1 3.6-2.3l.4-.6v7c0 6.5 0 7-.2 7.5-1 2-3.6 2.2-4.7.3-.3-.5-.3-.7-.3-1.7 0-1.2 0-1.2.4-1.6.3-.2.6-.7.8-1 1.2-2.7-1-5.6-3.9-5a3.5 3.5 0 0 0-1.6 6c.4.4.5.5.5 1.4 0 3 1.4 5.3 3.7 6.4.9.4 1.2.5 2.4.5 1 0 1.5 0 2.1-.2a6.3 6.3 0 0 0 3.6-2.7c1-1.6.9-1.4.9-11V30h2v8.3l.1 9c.4 2 1.8 3.9 3.7 4.7.9.5 1 .5 2.6.5 1.5 0 1.8 0 2.5-.4a6.4 6.4 0 0 0 3.8-6v-1.4l.6-.6c1-1 1.3-2.2 1-3.5-.4-.9-.9-1.5-1.8-2a3.5 3.5 0 0 0-4 5.6c.5.5.5.5.5 1.5 0 1.1-.3 2-1 2.5-1.2 1-3 .8-3.8-.7l-.4-.6V32.7l.5.7 1.1 1.2c1.3.9 1.4.9 7.2 1h5.6c.4.2.6.7.6 1.9 0 1 0 1-.5 1.5-.8.7-1.1 1.5-1.1 2.5 0 2 1.4 3.5 3.4 3.5s3.5-1.5 3.5-3.5c0-1-.3-1.6-1-2.4l-.6-.6v-1.6c-.1-1.3-.2-1.8-.4-2.3-.4-1-1.4-2-2.3-2.4l-.8-.4h-11.2l-.3-.4c-.2-.3-.3-.6-.3-1.1v-.8h4c4 0 4.2 0 4.8-.4 1-.4 1.7-1.2 2.2-2l.4-.8v-4.1c0-3.7.1-4.1.3-4.3.2-.1 1.2-.2 4.4-.2h4.1l.3.5c.4.6 1.4 1.1 2.3 1.2 2 .2 3.8-1.4 3.8-3.4a3.4 3.4 0 0 0-5.8-2.6l-.7.6h-4.6l-4.7.1-.7.4-1.3 1c-1 1.2-1 1.5-1.1 6l-.1 4c0 .1-.8.2-3 .2h-3l.6-.3c.8-.5 1.7-1.4 2.2-2.3l.3-.8.1-8.2c0-8 0-8.3.3-8.5.2-.1.7-.2 1.7-.2 1.4 0 1.4 0 1.7.4.5.6 1.5 1 2.4 1.1 1.7.2 3.1-.8 3.6-2.4.3-.9.3-1.1 0-2a3.3 3.3 0 0 0-3.3-2.5c-1.1 0-2 .4-2.6 1.1l-.4.5h-1.5c-2.7 0-4.2.8-5.2 2.8l-.4 1-.1 8.1c0 8-.1 8.2-.4 8.4-.2.2-.8.2-2.7.2h-2.4v-2.9h.5c1 0 2-.7 2.6-1.7.2-.3.2-1 .2-5.6V5.8a7.1 7.1 0 0 0-5-5.5c-.7-.2-1.2-.3-2.3-.2-1.3 0-1.6 0-2.5.5a7 7 0 0 0-3.9 4.5c-.2.8-.2 1.7-.2 6.3 0 5.6 0 5.9.6 6.7.4.5 1.5 1 2.2 1h.6v3h-2.6c-2.4 0-2.5 0-2.8-.3-.2-.3-.2-.7-.3-8.5V5l-.4-.8c-.5-.9-1.4-1.8-2.4-2.3-.7-.3-1-.3-2.6-.4-1.7 0-1.8 0-2-.4l-1-.8c-1-.5-2.2-.5-3.3 0Z" fill="url(#paint20_linear)"/>
    <path class="b4" d="M273.3 65.5c-1.5.8-2.2 2.5-1.7 4.2.2.8 1.4 2 2.2 2.2 1.3.4 2.6 0 3.5-.8l.6-.6h1.4c1.3 0 1.5 0 1.7.3.3.3.3.7.3 8.5l.1 8.3.4.7c.4.8 1.3 1.8 2 2.2l.6.3h-2.9c-2.1 0-2.8 0-3-.2l-.2-4.3v-4.1l-.4-.8c-.5-1-1.3-1.6-2.3-2-.7-.2-1.1-.3-5.2-.3h-4.5l-.4-.4a3.5 3.5 0 1 0-4 5.5c1.3.6 2.6.4 3.8-.7l.8-.7h4c3.4 0 4 0 4.3.3.3.2.3.2.3 4 0 3.6 0 4 .3 4.7.3 1 1.2 1.9 2.2 2.4.7.3.8.3 4.8.4h4v.9c0 1.4.4 1.3-6 1.4-5.5 0-5.7 0-6.4.4-.8.3-1.9 1.3-2.3 2.2a7 7 0 0 0-.6 3.1c0 1 0 1.1-.4 1.4-.2.2-.6.7-.8 1.2-.3.6-.4.9-.3 1.6.3 3.2 4 4.5 6 2.2a3 3 0 0 0 1-2.4 3 3 0 0 0-1-2.4c-.7-.6-.7-.7-.7-1.8 0-1.9-.3-1.7 5.2-1.7l5.8-.1c1.6-.2 2.7-1 3.6-2.3l.4-.6v7c0 6.5 0 7-.2 7.5-1 2-3.6 2.2-4.6.3-.3-.5-.4-.7-.4-1.7 0-1.2 0-1.2.4-1.6.3-.2.6-.7.8-1 1.2-2.7-1-5.6-3.8-5a3.6 3.6 0 0 0-1.6 6c.4.4.4.5.4 1.4 0 3 1.4 5.3 3.8 6.4.8.4 1.1.5 2.3.5 1 0 1.5 0 2.1-.2a6.3 6.3 0 0 0 3.6-2.7c1-1.6 1-1.4 1-11V95h1.9v8.3l.1 9c.4 2 1.8 3.8 3.7 4.7.9.5 1 .5 2.6.5s1.8 0 2.5-.4a6.4 6.4 0 0 0 3.8-6.1v-1.3l.7-.6c1-1 1.2-2.2.8-3.5-.2-.9-.8-1.5-1.6-2-.6-.3-1-.4-1.7-.4-3.1 0-4.6 3.8-2.4 6 .5.5.6.5.6 1.5 0 1.1-.4 2-1 2.5-1.3 1-3 .8-4-.7l-.3-.6V97.8l.5.7 1.1 1.2c1.3.9 1.4.9 7.2 1h5.6c.4.2.6.7.6 1.9 0 1 0 1-.5 1.5-.8.7-1.1 1.5-1.1 2.5 0 2 1.4 3.5 3.5 3.5 2 0 3.4-1.5 3.4-3.5 0-1-.2-1.6-1-2.4l-.6-.6V102c0-1.3-.1-1.8-.4-2.3-.4-1-1.3-2-2.3-2.4l-.8-.4H303l-.3-.4c-.2-.3-.3-.6-.3-1.1v-.8h4c4 0 4.2 0 4.9-.4.8-.4 1.6-1.2 2.1-2l.4-.8v-4.1c0-3.7.1-4.1.3-4.3.2-.1 1.2-.2 4.4-.2h4.1l.3.5c.5.6 1.5 1 2.3 1.2 2.1.2 3.9-1.4 3.9-3.4 0-1.1-.4-2-1.2-2.7a3.4 3.4 0 0 0-4.7.1l-.6.6h-4.7l-4.7.1-.7.4-1.3 1c-1 1.2-1 1.5-1.1 6l-.1 4c0 .1-.8.2-3 .2h-3l.6-.3c.8-.5 1.7-1.4 2.2-2.3l.4-.8v-8.2c.1-8 .1-8.3.4-8.5.2-.1.7-.2 1.6-.2 1.4 0 1.5 0 1.7.4.5.6 1.5 1 2.5 1.1 1.6.2 3-.8 3.5-2.4.3-.9.3-1.1 0-2a3.3 3.3 0 0 0-3.3-2.5c-1 0-2 .4-2.5 1l-.5.6h-1.5c-2.7 0-4.2.8-5.2 2.8l-.4 1v8.1c-.2 8-.2 8.2-.4 8.4-.2.2-.9.2-2.8.2H298v-3h.5c1 0 2-.6 2.6-1.6.2-.4.2-1 .3-5.6 0-3.4 0-5.5-.2-6.1a7.1 7.1 0 0 0-4.8-5.5c-.8-.3-1.3-.3-2.4-.3-1.3 0-1.6.1-2.5.6a7 7 0 0 0-3.9 4.5c-.2.8-.2 1.7-.2 6.3 0 5.6 0 5.8.6 6.7.4.5 1.5 1 2.3 1h.5v3h-2.5c-2.4 0-2.6 0-2.8-.3-.3-.3-.3-.7-.4-8.5V70l-.4-.7c-.5-1-1.4-1.8-2.4-2.3-.7-.3-1-.4-2.6-.4-1.7 0-1.8 0-2-.4l-1-.8c-1-.5-2.2-.6-3.3 0Z" fill="url(#paint21_linear)" fill-opacity=".5"/>
    <path class="c4" d="M273.3 118.1c-1.5.8-2.2 2.5-1.7 4.3.2.7 1.4 2 2.2 2.1 1.3.4 2.6.1 3.5-.8l.6-.5h1.4c1.3 0 1.5 0 1.7.2.3.3.3.7.3 8.6l.1 8.2.4.7c.4.9 1.3 1.8 2 2.2l.6.3h-2.9c-2.1 0-2.8 0-3-.2l-.2-4.2v-4.2l-.4-.7c-.5-1-1.3-1.7-2.3-2-.7-.3-1.1-.3-5.2-.3h-4.5l-.4-.5a3.5 3.5 0 0 0-4.2-.7 3.5 3.5 0 0 0 .2 6.3c1.3.6 2.6.3 3.8-.7l.8-.7h4c3.4 0 4 0 4.3.2.3.2.3.2.3 4.1 0 3.6 0 4 .3 4.7.3 1 1.2 1.8 2.2 2.3.7.4.8.4 4.8.4l4 .1v.8c0 1.4.4 1.3-6 1.4-5.5 0-5.7 0-6.4.4-.8.4-1.9 1.4-2.3 2.2a7 7 0 0 0-.6 3.2c0 1 0 1-.4 1.4l-.8 1.1c-.3.7-.4 1-.3 1.7.3 3.1 4 4.4 6 2.1a3 3 0 0 0 1-2.3 3 3 0 0 0-1-2.5c-.7-.6-.7-.6-.7-1.7 0-2-.3-1.8 5.2-1.8h5.8c1.6-.3 2.7-1 3.6-2.4l.4-.6v7c0 6.5 0 7-.2 7.6-1 2-3.6 2.1-4.6.3-.3-.5-.4-.8-.4-1.8 0-1.1 0-1.2.4-1.5.3-.2.6-.7.8-1.1 1.2-2.6-1-5.5-3.8-5a3.6 3.6 0 0 0-1.6 6c.4.5.4.6.4 1.5 0 2.9 1.4 5.2 3.8 6.4.8.4 1.1.4 2.3.5 1 0 1.5 0 2.1-.2a6.3 6.3 0 0 0 3.6-2.8c1-1.5 1-1.4 1-11v-8.5h1.9v8.2l.1 9c.4 2 1.8 3.9 3.7 4.8.9.4 1 .4 2.6.4s1.8 0 2.5-.3a6.4 6.4 0 0 0 3.8-6.1v-1.3l.7-.6c1-1 1.2-2.2.8-3.5-.2-1-.8-1.6-1.6-2-.6-.4-1-.5-1.7-.5-3.1 0-4.6 3.9-2.4 6 .5.5.6.5.6 1.5 0 1.2-.4 2-1 2.5-1.3 1.1-3 .8-4-.6l-.3-.6v-14.1l.5.7 1.1 1.1c1.3 1 1.4 1 7.2 1l5.6.1c.4.1.6.7.6 1.8 0 1 0 1-.5 1.5-.8.8-1.1 1.5-1.1 2.6 0 2 1.4 3.4 3.5 3.4 2 0 3.4-1.4 3.4-3.4 0-1-.2-1.6-1-2.5l-.6-.6v-1.6c0-1.3-.1-1.8-.4-2.3-.4-1-1.3-1.9-2.3-2.3l-.8-.4h-5.6l-5.6-.1-.3-.4c-.2-.2-.3-.6-.3-1v-.8h4c4-.1 4.2-.1 4.9-.5.8-.4 1.6-1.1 2.1-2l.4-.7v-4.2c0-3.6.1-4 .3-4.3l4.4-.1h4.1l.3.4c.5.6 1.5 1.1 2.3 1.2 2.1.3 3.9-1.3 3.9-3.4 0-1-.4-2-1.2-2.6a3.4 3.4 0 0 0-4.7 0l-.6.7h-9.4l-.7.4-1.3 1c-1 1.2-1 1.5-1.1 6l-.1 4c0 .2-.8.2-3 .2h-3l.6-.3c.8-.4 1.7-1.4 2.2-2.2l.4-.8v-8.3c.1-8 .1-8.3.4-8.5l1.6-.1c1.4 0 1.5 0 1.7.3.5.6 1.5 1.1 2.5 1.2 1.6.1 3-.9 3.5-2.5.3-.8.3-1 0-2a3.3 3.3 0 0 0-3.3-2.4c-1 0-2 .3-2.5 1l-.5.5h-1.5c-2.7 0-4.2.8-5.2 2.8l-.4 1v8.2c-.2 7.9-.2 8.2-.4 8.4-.2.1-.9.2-2.8.2H298v-3h.5c1 0 2-.7 2.6-1.6.2-.4.2-1.1.3-5.6 0-3.5 0-5.5-.2-6.2a7.1 7.1 0 0 0-4.8-5.5c-.8-.2-1.3-.3-2.4-.2-1.3 0-1.6 0-2.5.5a7 7 0 0 0-3.9 4.6c-.2.8-.2 1.7-.2 6.2 0 5.6 0 5.9.6 6.7.4.6 1.5 1.1 2.3 1.1h.5v3h-2.5c-2.4 0-2.6 0-2.8-.3-.3-.3-.3-.7-.4-8.6v-8.2l-.4-.7c-.5-1-1.4-1.9-2.4-2.3-.7-.4-1-.4-2.6-.4-1.7-.1-1.8-.1-2-.4l-1-.8c-1-.6-2.2-.6-3.3 0Z" fill="url(#paint22_linear)" fill-opacity=".2"/>
    <path class="a4" d="M273.3 12.8c-1.5.8-2.2 2.5-1.7 4.3.2.7 1.4 2 2.2 2.1 1.3.4 2.6.1 3.5-.8l.6-.5h1.4c1.3 0 1.5 0 1.7.3.3.2.3.6.3 8.5l.1 8.2.4.7c.4.9 1.3 1.8 2 2.2l.6.3h-2.9c-2.1 0-2.8 0-3-.2l-.2-4.2v-4.2l-.4-.7c-.5-1-1.3-1.7-2.3-2-.7-.3-1.1-.3-5.2-.3h-4.5l-.4-.5a3.5 3.5 0 1 0-4 5.6c1.3.6 2.6.3 3.8-.7l.8-.7h4c3.4 0 4 0 4.3.2.3.2.3.2.3 4.1 0 3.6 0 4 .3 4.7.3 1 1.2 1.8 2.2 2.3.7.4.8.4 4.8.4l4 .1v.8c0 1.4.4 1.3-6 1.4-5.5 0-5.7.1-6.4.4-.8.4-1.9 1.4-2.3 2.2a7 7 0 0 0-.6 3.2c0 1 0 1-.4 1.4l-.8 1.1c-.3.7-.4 1-.3 1.7.3 3.1 4 4.5 6 2.1a3 3 0 0 0 1-2.3 3 3 0 0 0-1-2.5c-.7-.6-.7-.6-.7-1.7 0-2-.3-1.8 5.2-1.8h5.8c1.6-.3 2.7-1 3.6-2.4l.4-.6v7c0 6.5 0 7-.2 7.6-1 2-3.6 2.1-4.6.3-.3-.5-.4-.8-.4-1.8 0-1.1 0-1.2.4-1.5.3-.2.6-.7.8-1.1 1.2-2.6-1-5.5-3.8-5a3.5 3.5 0 0 0-1.6 6.1c.4.4.4.5.4 1.4 0 2.9 1.4 5.2 3.8 6.4.8.4 1.1.4 2.3.5 1 0 1.5 0 2.1-.2a6.3 6.3 0 0 0 3.6-2.8c1-1.5 1-1.4 1-11v-8.5h1.9v8.2l.1 9c.4 2 1.8 3.9 3.7 4.8.9.4 1 .4 2.6.4s1.8 0 2.5-.3a6.4 6.4 0 0 0 3.8-6.1V57l.7-.6c1-1 1.2-2.2.8-3.5-.2-1-.8-1.6-1.6-2-.6-.4-1-.5-1.7-.5-3.1 0-4.6 3.9-2.4 6 .5.5.6.5.6 1.5 0 1.2-.4 2-1 2.5-1.3 1.1-3 .8-4-.6l-.3-.6V45.2l.5.7 1.1 1.1c1.3 1 1.4 1 7.2 1l5.6.1c.4.1.6.7.6 1.8 0 1 0 1-.5 1.5-.8.8-1.1 1.5-1.1 2.6 0 2 1.4 3.4 3.5 3.4 2 0 3.4-1.4 3.4-3.4 0-1-.2-1.6-1-2.5l-.6-.6v-1.6c0-1.3-.1-1.8-.4-2.3-.4-1-1.3-1.9-2.3-2.3l-.8-.4h-5.6l-5.6-.1-.3-.4c-.2-.2-.3-.6-.3-1V42h4c4-.1 4.2-.1 4.9-.5.8-.4 1.6-1.1 2.1-2l.4-.7v-4.2c0-3.6.1-4 .3-4.2.2-.2 1.2-.2 4.4-.2h4.1l.3.4c.5.6 1.5 1.1 2.3 1.2 2.1.3 3.9-1.3 3.9-3.4 0-1-.4-2-1.2-2.6a3.4 3.4 0 0 0-4.7 0l-.6.7h-9.4l-.7.4-1.3 1c-1 1.2-1 1.5-1.1 6l-.1 4c0 .2-.8.2-3 .2h-3l.6-.3c.8-.4 1.7-1.4 2.2-2.2l.4-.8v-8.3c.1-8 .1-8.3.4-8.4.2-.2.7-.2 1.6-.2 1.4 0 1.5 0 1.7.3.5.6 1.5 1.1 2.5 1.2 1.6.1 3-.9 3.5-2.5.3-.8.3-1 0-2a3.3 3.3 0 0 0-3.3-2.4c-1 0-2 .3-2.5 1l-.5.5h-1.5c-2.7 0-4.2.8-5.2 2.8l-.4 1V26c-.2 7.9-.2 8.2-.4 8.4-.2.1-.9.2-2.8.2H298v-3h.5c1 0 2-.7 2.6-1.6.2-.4.2-1.1.3-5.6 0-3.5 0-5.5-.2-6.2a7.1 7.1 0 0 0-4.8-5.5c-.8-.2-1.3-.3-2.4-.2-1.3 0-1.6.1-2.5.5a7 7 0 0 0-3.9 4.6c-.2.8-.2 1.7-.2 6.2 0 5.6 0 5.9.6 6.7.4.6 1.5 1.1 2.3 1.1h.5v3h-2.5c-2.4 0-2.6 0-2.8-.3-.3-.3-.3-.7-.4-8.6v-8.2l-.4-.7c-.5-1-1.4-1.9-2.4-2.3-.7-.4-1-.4-2.6-.4-1.7-.1-1.8-.1-2-.4l-1-.8c-1-.6-2.2-.6-3.3 0Z" fill="url(#paint23_linear)"/>
    <path class="b3" d="M326 92.3c-1.6.8-2.3 2.5-1.7 4.2.2.8 1.4 2 2.1 2.2 1.4.4 2.7 0 3.6-.8l.5-.6h1.4c1.3 0 1.5 0 1.7.3.3.3.3.7.4 8.5v8.3l.4.7c.4.8 1.3 1.8 2 2.2l.6.3h-2.8c-2.2 0-2.9 0-3-.2-.1-.1-.2-1.7-.2-4.3V109l-.5-.8c-.5-.9-1.3-1.6-2.3-2-.7-.2-1-.3-5.2-.3h-4.4l-.5-.4a3.5 3.5 0 0 0-4.2-.7 3.5 3.5 0 0 0 .3 6.2c1.3.6 2.6.4 3.7-.7l.8-.7h4c3.4 0 4 0 4.3.3.3.2.3.2.3 4 0 3.6 0 4 .3 4.7.4 1 1.2 1.9 2.2 2.4.7.3.8.3 4.8.4h4.1v.9c0 1.4.4 1.3-6.1 1.4-5.5 0-5.6 0-6.3.4-.9.3-2 1.3-2.3 2.2a7 7 0 0 0-.6 3.1c0 1 0 1.1-.4 1.4-.3.2-.6.7-.8 1.2-.4.6-.4.9-.3 1.7.2 3.1 4 4.4 6 2a3 3 0 0 0 .9-2.3 3 3 0 0 0-1-2.4c-.6-.6-.6-.6-.6-1.8 0-1.9-.4-1.7 5.2-1.7l5.7-.1c1.7-.2 2.8-1 3.7-2.3l.4-.6v7c0 6.5 0 7-.3 7.5-.9 2-3.5 2.2-4.6.3-.3-.5-.3-.7-.3-1.7 0-1.2 0-1.2.4-1.6.3-.2.6-.7.8-1 1.2-2.7-1.1-5.6-3.9-5a3.6 3.6 0 0 0-1.6 6c.4.4.4.5.4 1.4 0 3 1.4 5.3 3.8 6.4.8.4 1.2.5 2.4.5 1 0 1.5 0 2-.2a6.3 6.3 0 0 0 3.6-2.7c1-1.6 1-1.4 1-11v-8.6h2v17.3c.5 2 1.9 3.8 3.7 4.7 1 .5 1 .5 2.7.5 1.5 0 1.8 0 2.5-.4a6.4 6.4 0 0 0 3.8-6v-1.4l.6-.6c1-1 1.3-2.2.9-3.5-.3-.9-.8-1.5-1.7-2-.6-.3-1-.4-1.7-.4a3.5 3.5 0 0 0-2.3 6c.5.5.5.5.5 1.5 0 1.1-.3 2-1 2.5-1.2 1-3 .8-3.9-.7l-.3-.6v-14.1l.5.7c.2.4.7 1 1.1 1.2 1.3.9 1.3.9 7.1 1h5.6c.5.2.7.7.7 1.9 0 1 0 1-.5 1.5-.8.7-1.1 1.5-1.1 2.5 0 2 1.4 3.5 3.4 3.5s3.5-1.5 3.5-3.5c0-1-.3-1.6-1-2.4l-.6-.6v-1.6c-.1-1.3-.2-1.8-.4-2.3-.5-1-1.4-2-2.3-2.4l-.8-.4h-11.3l-.3-.4c-.2-.3-.2-.6-.2-1.1v-.8h4c4 0 4.1 0 4.8-.4.9-.4 1.7-1.2 2.2-2l.4-.8v-4.1c0-3.7 0-4.1.3-4.3.2-.1 1.2-.2 4.3-.2h4.2l.3.5c.4.6 1.4 1 2.3 1.2 2 .2 3.8-1.4 3.8-3.4 0-1.1-.4-2-1.1-2.7a3.4 3.4 0 0 0-4.7.1l-.7.6h-4.6l-4.7.1-.7.4-1.3 1c-1 1.2-1.1 1.5-1.2 6v4c-.1.1-.8.2-3 .2h-3l.6-.3c.8-.5 1.7-1.4 2.1-2.3l.4-.8V106c.1-8 .2-8.3.4-8.5.2-.1.7-.2 1.7-.2 1.3 0 1.4 0 1.7.4.5.6 1.4 1 2.4 1.1 1.7.2 3.1-.8 3.6-2.4.2-.9.2-1.1 0-2a3.3 3.3 0 0 0-3.4-2.5c-1 0-1.9.4-2.5 1.1l-.4.5h-1.5c-2.7 0-4.2.8-5.2 2.8l-.5 1v8.1c-.1 8-.1 8.2-.4 8.4-.2.2-.8.2-2.7.2h-2.5v-2.9h.5c1 0 2.1-.7 2.6-1.7a62 62 0 0 0 .2-11.7 7.1 7.1 0 0 0-4.9-5.5c-.7-.3-1.2-.3-2.4-.3-1.3 0-1.5.1-2.5.6a7 7 0 0 0-3.8 4.5c-.2.8-.3 1.7-.3 6.3 0 5.6 0 5.9.7 6.7.4.5 1.5 1 2.2 1h.5v3h-2.5c-2.4 0-2.5 0-2.8-.3-.2-.3-.3-.7-.3-8.5l-.1-8.2-.4-.8c-.4-1-1.4-1.8-2.3-2.3-.7-.3-1-.3-2.6-.4-1.7 0-1.8 0-2-.4l-1-.8c-1-.5-2.3-.5-3.3 0Z" fill="url(#paint24_linear)" fill-opacity=".5"/>
    <path class="c3" d="M326 145c-1.6.7-2.3 2.4-1.7 4.2.2.7 1.4 2 2.1 2.1 1.4.4 2.7.1 3.6-.8l.5-.5h1.4c1.3 0 1.5 0 1.7.3.3.2.3.6.4 8.5v8.2l.4.7c.4.9 1.3 1.8 2 2.2l.6.3h-2.8c-2.2 0-2.9 0-3-.2-.1 0-.2-1.6-.2-4.2v-4.2l-.5-.7c-.5-1-1.3-1.6-2.3-2-.7-.3-1-.3-5.2-.3h-4.4l-.5-.5a3.5 3.5 0 1 0-4 5.6c1.4.6 2.7.3 3.8-.7l.8-.7h4c3.4 0 4 0 4.3.2.3.2.3.3.3 4.1 0 3.6 0 4 .3 4.7.4 1 1.2 1.8 2.2 2.3.7.4.8.4 4.8.4l4.1.1v.8c0 1.4.4 1.3-6.1 1.4-5.5 0-5.6.1-6.3.4-.9.4-2 1.4-2.3 2.2a7 7 0 0 0-.6 3.2c0 1 0 1-.4 1.4-.3.2-.6.7-.8 1.1-.4.7-.4 1-.3 1.7.2 3.1 4 4.5 6 2.1a3 3 0 0 0 .9-2.3 3 3 0 0 0-1-2.5c-.6-.6-.6-.6-.6-1.7 0-1.9-.4-1.8 5.2-1.8h5.7c1.7-.3 2.8-1 3.7-2.4l.4-.6v7c0 6.5 0 7-.3 7.6-.9 2-3.5 2.1-4.6.3-.3-.5-.3-.8-.3-1.8 0-1.1 0-1.2.4-1.5.3-.2.6-.7.8-1.1 1.2-2.6-1.1-5.5-3.9-5a3.5 3.5 0 0 0-1.6 6.1c.4.4.4.5.4 1.4 0 3 1.4 5.2 3.8 6.4.8.4 1.2.4 2.4.5 1 0 1.5 0 2-.2a6.3 6.3 0 0 0 3.6-2.8c1-1.5 1-1.4 1-11v-8.5h2v17.2c.5 2 1.9 3.9 3.7 4.8 1 .4 1 .4 2.7.4 1.5 0 1.8 0 2.5-.3a6.4 6.4 0 0 0 3.8-6.1v-1.3l.6-.6c1-1 1.3-2.2.9-3.5-.3-1-.8-1.6-1.7-2-.6-.4-1-.5-1.7-.5-3.1 0-4.6 3.9-2.3 6 .5.5.5.6.5 1.5 0 1.2-.3 2-1 2.5-1.2 1.1-3 .8-3.9-.6l-.3-.6v-14.2l.5.8c.2.4.7 1 1.1 1.1 1.3 1 1.3 1 7.1 1l5.6.1c.5.1.7.7.7 1.8 0 1 0 1-.5 1.5-.8.8-1.1 1.5-1.1 2.6 0 2 1.4 3.4 3.4 3.4s3.5-1.4 3.5-3.4c0-1-.3-1.6-1-2.5l-.6-.6v-1.6c-.1-1.3-.2-1.8-.4-2.3-.5-1-1.4-1.9-2.3-2.3l-.8-.4h-5.6l-5.7-.1-.3-.4c-.2-.2-.2-.6-.2-1v-.8h4c4-.1 4.1-.1 4.8-.5.9-.4 1.7-1.1 2.2-2l.4-.7v-4.2c0-3.6 0-4 .3-4.2.2-.2 1.2-.2 4.3-.2h4.2l.3.4c.4.6 1.4 1.1 2.3 1.2 2 .3 3.8-1.3 3.8-3.4a3.4 3.4 0 0 0-5.8-2.6l-.7.7H366l-.7.5c-.4.2-1 .6-1.3 1-1 1.1-1.1 1.4-1.2 5.9v4c-.1.2-.8.2-3 .2h-3l.6-.3c.8-.4 1.7-1.4 2.1-2.2l.4-.8v-8.3c.1-8 .2-8.2.4-8.4.2-.2.7-.2 1.7-.2 1.3 0 1.4 0 1.7.3.5.6 1.4 1.1 2.4 1.2 1.7.1 3.1-.9 3.6-2.5.2-.8.2-1 0-2a3.3 3.3 0 0 0-3.4-2.4c-1 0-1.9.3-2.5 1l-.4.5h-1.5c-2.7 0-4.2.8-5.2 2.8l-.5 1v8.2c-.1 7.9-.1 8.2-.4 8.4-.2.1-.8.2-2.7.2h-2.5v-3h.5c1 0 2.1-.7 2.6-1.6a62 62 0 0 0 .2-11.7 7.1 7.1 0 0 0-4.9-5.6 6 6 0 0 0-2.4-.2c-1.3 0-1.5.1-2.5.6-1.9.9-3.3 2.5-3.8 4.5-.2.8-.3 1.7-.3 6.2 0 5.6 0 5.9.7 6.8.4.5 1.5 1 2.2 1h.5v3h-2.5c-2.4 0-2.5 0-2.8-.3-.2-.3-.3-.7-.3-8.6l-.1-8.2-.4-.7c-.4-1-1.4-1.9-2.3-2.3-.7-.4-1-.4-2.6-.4-1.7-.1-1.8-.1-2-.4l-1-.8c-1-.6-2.3-.6-3.3 0Z" fill="url(#paint25_linear)" fill-opacity=".2"/>
    <path class="a3" d="M326 38.6c-1.6.8-2.3 2.5-1.7 4.3.2.7 1.4 2 2.1 2.1 1.4.4 2.7.1 3.6-.8l.5-.5h1.4c1.3 0 1.5 0 1.7.3.3.2.3.6.4 8.5v8.2l.4.7c.4.9 1.3 1.8 2 2.2l.6.3h-2.8c-2.2 0-2.9 0-3-.2-.1 0-.2-1.6-.2-4.2v-4.2l-.5-.7c-.5-1-1.3-1.6-2.3-2-.7-.3-1-.3-5.2-.3h-4.4l-.5-.5a3.5 3.5 0 1 0-4 5.6c1.4.6 2.7.3 3.8-.7l.8-.7h4c3.4 0 4 0 4.3.2.3.2.3.3.3 4.1 0 3.6 0 4 .3 4.7.4 1 1.2 1.8 2.2 2.3.7.4.8.4 4.8.4l4.1.1v.8c0 1.4.4 1.3-6.1 1.4-5.5 0-5.6.1-6.3.4-.9.4-2 1.4-2.3 2.2a7 7 0 0 0-.6 3.2c0 1 0 1-.4 1.4-.3.2-.6.7-.8 1.1-.4.7-.4 1-.3 1.7.2 3.2 4 4.5 6 2.1a3 3 0 0 0 .9-2.3 3 3 0 0 0-1-2.5c-.6-.6-.6-.6-.6-1.7 0-1.9-.4-1.8 5.2-1.8h5.7c1.7-.3 2.8-1 3.7-2.4l.4-.6v7c0 6.5 0 7-.3 7.6-.9 2-3.5 2.1-4.6.3-.3-.5-.3-.8-.3-1.8 0-1.1 0-1.2.4-1.5.3-.2.6-.7.8-1.1 1.2-2.6-1.1-5.5-3.9-5a3.5 3.5 0 0 0-1.6 6.1c.4.4.4.5.4 1.4 0 3 1.4 5.2 3.8 6.4.8.4 1.2.4 2.4.5 1 0 1.5 0 2-.2a6.3 6.3 0 0 0 3.6-2.8c1-1.5 1-1.4 1-11v-8.5h2v17.2c.5 2 1.9 3.9 3.7 4.8 1 .4 1 .4 2.7.4 1.5 0 1.8 0 2.5-.3a6.4 6.4 0 0 0 3.8-6.1v-1.3l.6-.6c1-1 1.3-2.2.9-3.5-.3-1-.8-1.6-1.7-2-.6-.4-1-.5-1.7-.5a3.5 3.5 0 0 0-2.3 6c.5.5.5.6.5 1.5 0 1.2-.3 2-1 2.5-1.2 1.1-3 .8-3.9-.6l-.3-.6V70.9l.5.8c.2.4.7 1 1.1 1.1 1.3 1 1.3 1 7.1 1l5.6.1c.5.1.7.7.7 1.8 0 1 0 1-.5 1.5-.8.8-1.1 1.5-1.1 2.6 0 2 1.4 3.4 3.4 3.4s3.5-1.4 3.5-3.4c0-1-.3-1.6-1-2.5l-.6-.6v-1.6c-.1-1.3-.2-1.8-.4-2.3-.5-1-1.4-1.9-2.3-2.3l-.8-.4h-5.6l-5.7-.1-.3-.4c-.2-.2-.2-.5-.2-1v-.8h4c4-.1 4.1-.1 4.8-.5.9-.4 1.7-1.1 2.2-2l.4-.7v-4.2c0-3.6 0-4 .3-4.2.2-.2 1.2-.2 4.3-.2h4.2l.3.4c.4.6 1.4 1.1 2.3 1.2 2 .3 3.8-1.3 3.8-3.4a3.4 3.4 0 0 0-5.8-2.6l-.7.7H366l-.7.5c-.4.2-1 .6-1.3 1-1 1.1-1.1 1.4-1.2 5.9v4c-.1.2-.8.2-3 .2h-3l.6-.3c.8-.4 1.7-1.4 2.1-2.2l.4-.8v-8.3c.1-8 .2-8.2.4-8.4.2-.2.7-.2 1.7-.2 1.3 0 1.4 0 1.7.3.5.6 1.4 1.1 2.4 1.2 1.7.1 3.1-.9 3.6-2.5.2-.8.2-1 0-2a3.3 3.3 0 0 0-3.4-2.4c-1 0-1.9.3-2.5 1l-.4.5h-1.5c-2.7 0-4.2.8-5.2 2.8l-.5 1v8.2c-.1 7.9-.1 8.2-.4 8.4-.2.1-.8.2-2.7.2h-2.5v-3h.5c1 0 2.1-.7 2.6-1.6a62 62 0 0 0 .2-11.7 7.1 7.1 0 0 0-4.9-5.6c-.7-.2-1.2-.3-2.4-.2-1.3 0-1.5.1-2.5.6a7 7 0 0 0-3.8 4.5c-.2.8-.3 1.7-.3 6.2 0 5.6 0 5.9.7 6.8.4.5 1.5 1 2.2 1h.5v3h-2.5c-2.4 0-2.5 0-2.8-.3-.2-.3-.3-.7-.3-8.6l-.1-8.2-.4-.7c-.4-1-1.4-1.9-2.3-2.3-.7-.4-1-.4-2.6-.4-1.7-.1-1.8-.1-2-.4l-1-.8c-1-.6-2.3-.6-3.3 0Z" fill="url(#paint26_linear)"/>
    <path class="b2" d="M378.6 118c-1.5.9-2.2 2.6-1.7 4.3.2.8 1.4 2 2.2 2.2 1.3.4 2.6 0 3.5-.8l.6-.6h1.4c1.3 0 1.5 0 1.7.3.3.3.3.7.3 8.6l.1 8.2.4.7c.4.8 1.3 1.8 2 2.2l.6.3h-2.9c-2.1 0-2.8 0-3-.2l-.2-4.3v-4.1l-.4-.8c-.6-.9-1.3-1.6-2.3-2-.7-.2-1.1-.2-5.2-.2h-4.5l-.4-.5a3.5 3.5 0 1 0-4 5.5c1.3.6 2.6.4 3.8-.7l.8-.7h4c3.4 0 4 0 4.3.3.3.2.3.2.3 4 0 3.6 0 4 .3 4.7.3 1 1.2 1.9 2.2 2.4.7.3.8.3 4.8.4h4v.9c0 1.4.4 1.3-6 1.4-5.5 0-5.7 0-6.4.4-.8.3-1.9 1.4-2.3 2.2-.4.7-.6 1.8-.6 3.1 0 1 0 1.1-.4 1.4-.2.2-.6.7-.8 1.2-.3.6-.4.9-.3 1.7.3 3.1 4 4.4 6 2a3 3 0 0 0 .9-2.3 3 3 0 0 0-1-2.4c-.6-.6-.6-.6-.6-1.8 0-1.8-.3-1.7 5.2-1.7l5.8-.1c1.6-.2 2.7-1 3.6-2.3l.4-.6v7c0 6.5 0 7-.2 7.5-1 2-3.6 2.2-4.6.3-.3-.5-.4-.7-.4-1.7 0-1.2 0-1.2.4-1.6.3-.2.6-.7.8-1 1.2-2.7-1-5.6-3.8-5a3.5 3.5 0 0 0-1.6 6c.4.4.4.5.4 1.4 0 3 1.4 5.3 3.8 6.4.8.4 1.1.5 2.3.5 1 0 1.5 0 2.1-.2a6.3 6.3 0 0 0 3.6-2.7c1-1.6 1-1.4 1-11v-8.6h1.9v8.3l.1 9c.4 2 1.8 3.9 3.7 4.7.9.5 1 .5 2.6.5s1.8 0 2.5-.4a6.4 6.4 0 0 0 3.8-6v-1.4l.7-.6c1-1 1.2-2.2.8-3.5-.2-.9-.8-1.5-1.6-2-.6-.3-1-.4-1.7-.4a3.5 3.5 0 0 0-2.4 6c.5.5.6.5.6 1.5 0 1.1-.4 2-1 2.5-1.3 1-3 .8-4-.7l-.3-.6v-14.1l.5.7 1.1 1.2c1.3.9 1.4.9 7.2 1h5.6c.4.2.6.7.6 1.9 0 1 0 1-.5 1.5-.8.7-1.1 1.5-1.1 2.5 0 2 1.4 3.5 3.5 3.5 2 0 3.4-1.5 3.4-3.5 0-1-.2-1.6-1-2.4l-.6-.6v-1.6c0-1.3-.1-1.8-.4-2.3-.4-1-1.3-2-2.3-2.4l-.8-.4h-11.2l-.3-.4c-.2-.3-.3-.6-.3-1.1v-.8h4c4 0 4.2 0 4.9-.4.8-.4 1.6-1.2 2.1-2l.4-.8V140c0-3.7.1-4.1.3-4.3.2-.1 1.2-.2 4.4-.2h4.1l.3.5c.5.6 1.5 1.1 2.3 1.2 2.1.2 3.9-1.3 3.9-3.4 0-1.1-.4-2-1.2-2.7a3.4 3.4 0 0 0-4.7.1l-.6.6h-4.7l-4.7.1-.7.4-1.3 1c-1 1.2-1 1.5-1.1 6l-.1 4c0 .1-.8.2-3 .2h-3l.6-.3c.8-.5 1.7-1.4 2.2-2.3l.4-.8v-8.2c.1-8 .1-8.3.4-8.5.2-.1.7-.2 1.6-.2 1.4 0 1.5 0 1.7.4.5.6 1.5 1 2.4 1.1 1.7.2 3.1-.8 3.6-2.4.3-.9.3-1.1 0-2a3.3 3.3 0 0 0-3.3-2.5c-1 0-2 .4-2.5 1.1l-.5.5h-1.5c-2.7 0-4.2.8-5.2 2.8l-.4 1-.1 8.1c0 8 0 8.2-.3 8.4-.2.2-.9.2-2.8.2h-2.4V137h.5c1 0 2-.7 2.6-1.7.2-.3.2-1 .3-5.6 0-3.4 0-5.5-.2-6.1a7.1 7.1 0 0 0-4.8-5.5c-.8-.2-1.3-.3-2.4-.2-1.3 0-1.6 0-2.5.5a7 7 0 0 0-3.9 4.5c-.2.8-.2 1.7-.2 6.3 0 5.6 0 5.9.6 6.7.4.5 1.5 1 2.3 1h.5v3h-2.5c-2.4 0-2.6 0-2.8-.3-.3-.3-.3-.7-.4-8.5v-8.2l-.4-.8c-.5-.9-1.4-1.8-2.4-2.3-.7-.3-1-.3-2.6-.4-1.7 0-1.8 0-2-.4l-1-.8c-1-.5-2.2-.5-3.3 0Z" fill="url(#paint27_linear)" fill-opacity=".5"/>
    <path class="c2" d="M378.6 170.7c-1.5.8-2.2 2.5-1.7 4.3.2.7 1.4 2 2.2 2.1 1.3.4 2.6.1 3.5-.8l.6-.5h1.4c1.3 0 1.5 0 1.7.3.3.2.3.7.3 8.5l.1 8.2.4.7c.4.9 1.3 1.8 2 2.2l.6.3h-2.9c-2.1 0-2.8 0-3-.2l-.2-4.2v-4.2l-.4-.7c-.6-1-1.3-1.6-2.3-2-.7-.3-1.1-.3-5.2-.3h-4.5l-.4-.5a3.5 3.5 0 1 0-4 5.6c1.3.6 2.6.3 3.8-.7l.8-.7h4c3.4 0 4 0 4.3.2.3.2.3.3.3 4.1 0 3.6 0 4 .3 4.7.3 1 1.2 1.8 2.2 2.3.7.4.8.4 4.8.4l4 .1v.8c0 1.4.4 1.3-6 1.4-5.5 0-5.7.1-6.4.4-.8.4-1.9 1.4-2.3 2.2-.4.8-.6 1.9-.6 3.2 0 1 0 1-.4 1.4l-.8 1.1c-.3.7-.4 1-.3 1.7.3 3.2 4 4.5 6 2.1a3 3 0 0 0 .9-2.3 3 3 0 0 0-1-2.5c-.6-.6-.6-.6-.6-1.7 0-1.9-.3-1.8 5.2-1.8h5.8c1.6-.3 2.7-1 3.6-2.4l.4-.6v7c0 6.5 0 7-.2 7.6-1 2-3.6 2.1-4.6.3-.3-.5-.4-.8-.4-1.8 0-1.1 0-1.2.4-1.5.3-.2.6-.7.8-1.1 1.2-2.6-1-5.5-3.8-5a3.6 3.6 0 0 0-1.6 6.1c.4.4.4.5.4 1.4 0 3 1.4 5.2 3.8 6.4.8.4 1.1.4 2.3.5 1 0 1.5 0 2.1-.2a6.3 6.3 0 0 0 3.6-2.8c1-1.5 1-1.4 1-11v-8.5h1.9v8.3l.1 9c.4 2 1.8 3.8 3.7 4.7.9.4 1 .4 2.6.4s1.8 0 2.5-.3a6.4 6.4 0 0 0 3.8-6.1V215l.7-.6c1-1 1.2-2.2.8-3.5-.2-1-.8-1.6-1.6-2-.6-.4-1-.5-1.7-.5a3.5 3.5 0 0 0-2.4 6c.5.5.6.6.6 1.5 0 1.2-.4 2-1 2.5-1.3 1.1-3 .8-4-.6l-.3-.6V203l.5.8 1.1 1.2c1.3.8 1.4.8 7.2.9l5.6.1c.4.1.6.7.6 1.8 0 1 0 1-.5 1.5-.8.8-1.1 1.5-1.1 2.6 0 2 1.4 3.5 3.5 3.5 2 0 3.4-1.5 3.4-3.5 0-1-.2-1.6-1-2.5l-.6-.6v-1.6c0-1.3-.1-1.8-.4-2.3-.4-1-1.3-1.9-2.3-2.3l-.8-.4H414l-5.6-.1-.3-.4c-.2-.2-.3-.5-.3-1v-.8h4c4-.1 4.2-.1 4.9-.4.8-.5 1.6-1.2 2.1-2.1l.4-.7v-4.1c0-3.7.1-4.2.3-4.3.2-.2 1.2-.2 4.4-.2h4.1l.3.4c.5.6 1.5 1.1 2.3 1.2 2.1.3 3.9-1.3 3.9-3.4 0-1-.4-2-1.2-2.6a3.4 3.4 0 0 0-4.7 0l-.6.7h-9.4l-.7.5c-.4.2-1 .6-1.3 1-1 1.1-1 1.5-1.1 5.9l-.1 4c0 .2-.8.2-3 .2h-3l.6-.3c.8-.4 1.7-1.3 2.2-2.2l.4-.8v-8.3c.1-8 .1-8.2.4-8.4.2-.2.7-.2 1.6-.2 1.4 0 1.5 0 1.7.3.5.6 1.5 1.1 2.4 1.2 1.7.1 3.1-.9 3.6-2.4.3-1 .3-1.2 0-2.1a3.3 3.3 0 0 0-3.3-2.4c-1 0-2 .3-2.5 1l-.5.5h-1.5c-2.7 0-4.2.8-5.2 2.8l-.4 1-.1 8.2c0 7.9 0 8.2-.3 8.4-.2.1-.9.2-2.8.2h-2.4v-3h.5c1 0 2-.7 2.6-1.6.2-.4.2-1.1.3-5.6 0-3.5 0-5.5-.2-6.2a7.1 7.1 0 0 0-4.8-5.5c-.8-.2-1.3-.3-2.4-.2-1.3 0-1.6.1-2.5.6a7 7 0 0 0-3.9 4.5c-.2.8-.2 1.7-.2 6.2 0 5.7 0 6 .6 6.8.4.5 1.5 1 2.3 1h.5v3h-2.5c-2.4 0-2.6 0-2.8-.3-.3-.3-.3-.7-.4-8.6v-8.2l-.4-.7c-.5-1-1.4-1.9-2.4-2.3-.7-.4-1-.4-2.6-.4-1.7-.1-1.8-.1-2-.4l-1-.8c-1-.6-2.2-.6-3.3 0Z" fill="url(#paint28_linear)" fill-opacity=".2"/>
    <path class="a2" d="M378.6 64.4c-1.5.8-2.2 2.5-1.7 4.3.2.7 1.4 2 2.2 2.1 1.3.4 2.6.1 3.5-.8l.6-.5h1.4c1.3 0 1.5 0 1.7.3.3.2.3.7.3 8.5l.1 8.2.4.7c.4.9 1.3 1.8 2 2.2l.6.3h-2.9c-2.1 0-2.8 0-3-.2l-.2-4.2v-4.1l-.4-.8c-.6-1-1.3-1.6-2.3-2-.7-.3-1.1-.3-5.2-.3h-4.5l-.4-.5a3.5 3.5 0 1 0-4 5.6c1.3.6 2.6.3 3.8-.7l.8-.7h4c3.4 0 4 0 4.3.2.3.2.3.3.3 4.1 0 3.6 0 4 .3 4.7.3 1 1.2 1.8 2.2 2.3.7.4.8.4 4.8.4l4 .1v.8c0 1.4.4 1.3-6 1.4-5.5 0-5.7.1-6.4.4-.8.4-1.9 1.4-2.3 2.2-.4.8-.6 1.9-.6 3.2 0 1 0 1-.4 1.4l-.8 1.1c-.3.7-.4 1-.3 1.7.3 3.2 4 4.5 6 2.1a3 3 0 0 0 .9-2.3 3 3 0 0 0-1-2.5c-.6-.6-.6-.6-.6-1.7 0-1.9-.3-1.8 5.2-1.8h5.8c1.6-.3 2.7-1 3.6-2.4l.4-.6v7c0 6.5 0 7-.2 7.6-1 2-3.6 2.1-4.6.3-.3-.5-.4-.8-.4-1.8 0-1.1 0-1.2.4-1.5.3-.2.6-.7.8-1.1 1.2-2.6-1-5.5-3.8-5a3.6 3.6 0 0 0-1.6 6.1c.4.4.4.5.4 1.4 0 3 1.4 5.2 3.8 6.4.8.4 1.1.4 2.3.5 1 0 1.5 0 2.1-.2a6.3 6.3 0 0 0 3.6-2.8c1-1.5 1-1.4 1-11V94h1.9v8.3l.1 9c.4 2 1.8 3.8 3.7 4.7.9.4 1 .4 2.6.4s1.8 0 2.5-.3a6.4 6.4 0 0 0 3.8-6.1v-1.3l.7-.6c1-1 1.2-2.2.8-3.5-.2-1-.8-1.6-1.6-2-.6-.4-1-.5-1.7-.5a3.5 3.5 0 0 0-2.4 6c.5.5.6.6.6 1.5 0 1.2-.4 2-1 2.5-1.3 1.1-3 .8-4-.6l-.3-.6V96.7l.5.8 1.1 1.2c1.3.8 1.4.8 7.2.9l5.6.1c.4.1.6.7.6 1.8 0 1 0 1-.5 1.5-.8.8-1.1 1.5-1.1 2.6 0 2 1.4 3.5 3.5 3.5 2 0 3.4-1.5 3.4-3.5 0-1-.2-1.6-1-2.5l-.6-.6V101c0-1.3-.1-1.8-.4-2.3-.4-1-1.3-1.9-2.3-2.3l-.8-.4H414l-5.6-.1-.3-.4c-.2-.2-.3-.5-.3-1v-.8h4c4-.1 4.2-.1 4.9-.4.8-.5 1.6-1.2 2.1-2.1l.4-.7v-4.1c0-3.7.1-4.2.3-4.3.2-.2 1.2-.2 4.4-.2h4.1l.3.4c.5.6 1.5 1.1 2.3 1.2 2.1.3 3.9-1.3 3.9-3.4 0-1-.4-2-1.2-2.6a3.4 3.4 0 0 0-4.7 0l-.6.7h-9.4l-.7.5c-.4.2-1 .6-1.3 1-1 1.1-1 1.5-1.1 5.9l-.1 4c0 .2-.8.2-3 .2h-3l.6-.3c.8-.4 1.7-1.3 2.2-2.2l.4-.8V78c.1-8 .1-8.2.4-8.4.2-.2.7-.2 1.6-.2 1.4 0 1.5 0 1.7.3.5.6 1.5 1.1 2.4 1.2 1.7.1 3.1-.9 3.6-2.4.3-1 .3-1.2 0-2.1a3.3 3.3 0 0 0-3.3-2.4c-1 0-2 .3-2.5 1l-.5.5h-1.5c-2.7 0-4.2.8-5.2 2.8l-.4 1-.1 8.2c0 7.9 0 8.2-.3 8.4-.2.1-.9.2-2.8.2h-2.4v-3h.5c1 0 2-.7 2.6-1.6.2-.4.2-1.1.3-5.6 0-3.5 0-5.5-.2-6.2a7.1 7.1 0 0 0-4.8-5.5c-.8-.2-1.3-.3-2.4-.2-1.3 0-1.6.1-2.5.6a7 7 0 0 0-3.9 4.5c-.2.8-.2 1.7-.2 6.2 0 5.7 0 6 .6 6.8.4.5 1.5 1 2.3 1h.5v3h-2.5c-2.4 0-2.6 0-2.8-.3-.3-.3-.3-.7-.4-8.6v-8.2l-.4-.7c-.5-1-1.4-1.9-2.4-2.3-.7-.4-1-.4-2.6-.4-1.7 0-1.8-.1-2-.4l-1-.8c-1-.6-2.2-.6-3.3 0Z" fill="url(#paint29_linear)"/>
    <path class="b6" d="M171.8 66.5c-1.5.8-2.2 2.5-1.7 4.2.3.8 1.4 2 2.2 2.2 1.3.4 2.7 0 3.5-.8l.6-.6h1.4c1.3 0 1.5 0 1.7.3.3.3.3.7.4 8.5v8.3l.4.7c.4.8 1.3 1.8 2 2.2l.6.3h-2.8c-2.2 0-3 0-3-.2-.1-.1-.2-1.7-.2-4.3v-4.1l-.5-.8c-.5-1-1.3-1.6-2.3-2-.7-.2-1-.3-5.2-.3h-4.5l-.4-.4a3.5 3.5 0 1 0-4 5.5c1.3.6 2.6.4 3.8-.7l.8-.7h4c3.4 0 4 0 4.3.3.3.2.3.2.3 4 0 3.6 0 4 .3 4.7.4 1 1.2 1.9 2.2 2.4.7.3.8.3 4.8.4h4.1v.9c0 1.4.4 1.3-6.1 1.4-5.5 0-5.6 0-6.4.4-.8.3-1.8 1.3-2.3 2.2a7 7 0 0 0-.5 3.1c0 1 0 1.1-.5 1.4l-.8 1.2c-.3.6-.3.9-.3 1.6.3 3.2 4 4.5 6 2.2a3 3 0 0 0 1-2.4 3 3 0 0 0-1-2.4c-.6-.6-.6-.7-.6-1.8 0-1.9-.4-1.7 5.1-1.7l5.8-.1c1.7-.2 2.8-1 3.7-2.3l.4-.6v7c0 6.5 0 7-.3 7.5-.9 2-3.5 2.2-4.6.3-.3-.5-.4-.7-.4-1.7 0-1.2 0-1.2.5-1.6l.8-1c1.2-2.7-1.1-5.6-4-5a3.5 3.5 0 0 0-1.5 6c.4.4.4.5.4 1.4 0 3 1.4 5.3 3.8 6.4.8.4 1.2.5 2.3.5 1 0 1.6 0 2.2-.2a6.3 6.3 0 0 0 3.5-2.7c1-1.6 1-1.4 1-11V96h2v17.3c.4 2 1.9 3.8 3.7 4.7 1 .5 1 .5 2.7.5 1.5 0 1.7 0 2.4-.4a6.4 6.4 0 0 0 3.9-6.1v-1.3l.6-.6c1-1 1.3-2.2.9-3.5-.3-.9-.8-1.5-1.7-2-.6-.3-1-.4-1.7-.4a3.5 3.5 0 0 0-2.3 6c.5.5.5.5.5 1.5 0 1.1-.3 2-1 2.5-1.3 1-3 .8-3.9-.7l-.3-.6V98.8l.4.7c.3.4.8 1 1.2 1.2 1.3.9 1.3.9 7.1 1h5.6c.4.2.6.7.6 1.9 0 1 0 1-.5 1.5-.7.7-1 1.5-1 2.5 0 2 1.4 3.5 3.4 3.5s3.4-1.5 3.4-3.5c0-1-.2-1.6-1-2.4l-.6-.6V103c0-1.3-.1-1.8-.4-2.3-.4-1-1.3-2-2.3-2.4l-.7-.4h-11.3l-.3-.4c-.2-.3-.3-.6-.3-1.1v-.8h4.1c4 0 4.1 0 4.8-.4.9-.4 1.7-1.2 2.1-2l.4-.8v-4.1c.1-3.7.1-4.1.4-4.3.1-.1 1.2-.2 4.3-.2h4.2l.3.5c.4.6 1.4 1 2.3 1.2 2 .2 3.8-1.4 3.8-3.4 0-1.1-.4-2-1.2-2.7a3.4 3.4 0 0 0-4.7.1l-.6.6h-4.7l-4.6.1-.8.4-1.3 1c-1 1.2-1 1.5-1 6l-.2 4c0 .1-.8.2-3 .2h-3l.6-.3c.9-.5 1.8-1.4 2.2-2.3l.4-.8v-8.2c.1-8 .1-8.3.4-8.5.2-.1.7-.2 1.7-.2 1.3 0 1.4 0 1.7.4.4.6 1.4 1 2.4 1.1 1.6.2 3-.8 3.5-2.4.3-.9.3-1.1 0-2a3.3 3.3 0 0 0-3.3-2.5c-1 0-1.9.4-2.5 1l-.4.6h-1.5c-2.8 0-4.3.8-5.2 2.8l-.5 1v8.1c-.1 8-.2 8.2-.4 8.4-.2.2-.8.2-2.7.2h-2.5v-3h.5c1 0 2-.6 2.6-1.6.2-.4.2-1 .3-5.6l-.1-6.1a7.1 7.1 0 0 0-4.9-5.5c-.8-.3-1.2-.3-2.4-.3-1.3 0-1.5.1-2.5.6a7 7 0 0 0-3.8 4.5c-.2.8-.3 1.7-.3 6.3 0 5.6 0 5.8.7 6.7.4.5 1.5 1 2.2 1h.5v3h-2.5c-2.4 0-2.6 0-2.8-.3-.3-.3-.3-.7-.4-8.5V71l-.4-.7c-.4-1-1.4-1.8-2.4-2.3-.7-.3-1-.4-2.6-.4-1.7 0-1.8 0-2-.4 0-.2-.5-.5-1-.8-1-.5-2.2-.6-3.3 0Z" fill="url(#paint30_linear)" fill-opacity=".5"/>
    <path class="c6" d="M171.8 119.1c-1.5.8-2.2 2.5-1.7 4.3.3.7 1.4 2 2.2 2.1 1.3.4 2.7.1 3.5-.8l.6-.5h1.4c1.3 0 1.5 0 1.7.2.3.3.3.7.4 8.6v8.2l.4.7c.4.9 1.3 1.8 2 2.2l.6.3h-2.8c-2.2 0-3 0-3-.2-.1 0-.2-1.6-.2-4.2v-4.2l-.5-.7c-.5-1-1.3-1.7-2.3-2-.7-.3-1-.3-5.2-.3h-4.5l-.4-.5a3.5 3.5 0 1 0-4 5.6c1.3.6 2.6.3 3.8-.7l.8-.7h4c3.4 0 4 0 4.3.2.3.2.3.2.3 4.1 0 3.6 0 4 .3 4.7.4 1 1.2 1.8 2.2 2.3.7.4.8.4 4.8.4l4.1.1v.8c0 1.4.4 1.3-6.1 1.4-5.5 0-5.6 0-6.4.4-.8.4-1.8 1.4-2.3 2.2a7 7 0 0 0-.5 3.2c0 1 0 1-.5 1.4l-.8 1.1c-.3.7-.3 1-.3 1.7.3 3.1 4 4.4 6 2.1a3 3 0 0 0 1-2.3 3 3 0 0 0-1-2.5c-.6-.6-.6-.6-.6-1.7 0-2-.4-1.8 5.1-1.8h5.8c1.7-.3 2.8-1 3.7-2.4l.4-.6v7c0 6.5 0 7-.3 7.6-.9 2-3.5 2.1-4.6.3-.3-.5-.4-.8-.4-1.8 0-1.1 0-1.2.5-1.5l.8-1.1c1.2-2.6-1.1-5.5-4-5a3.6 3.6 0 0 0-1.5 6c.4.5.4.6.4 1.5 0 2.9 1.4 5.2 3.8 6.4.8.4 1.2.4 2.3.5 1 0 1.6 0 2.2-.2a6.3 6.3 0 0 0 3.5-2.8c1-1.5 1-1.4 1-11v-8.5h2v17.2c.4 2 1.9 3.9 3.7 4.8 1 .4 1 .4 2.7.4 1.5 0 1.7 0 2.4-.3a6.4 6.4 0 0 0 3.9-6.1v-1.3l.6-.6c1-1 1.3-2.2.9-3.5-.3-1-.8-1.6-1.7-2-.6-.4-1-.5-1.7-.5a3.5 3.5 0 0 0-2.3 6c.5.5.5.5.5 1.5 0 1.2-.3 2-1 2.5-1.3 1.1-3 .8-3.9-.6l-.3-.6v-14.1l.4.7c.3.4.8.9 1.2 1.1 1.3 1 1.3 1 7.1 1l5.6.1c.4.1.6.7.6 1.8 0 1 0 1-.5 1.5-.7.8-1 1.5-1 2.6 0 2 1.4 3.4 3.4 3.4s3.4-1.4 3.4-3.4c0-1-.2-1.6-1-2.5l-.6-.6v-1.6c0-1.3-.1-1.8-.4-2.3-.4-1-1.3-1.9-2.3-2.3l-.7-.4H207l-5.6-.1-.3-.4c-.2-.2-.3-.6-.3-1v-.8h4.1c4-.1 4.1-.1 4.8-.5.9-.4 1.7-1.1 2.1-2l.4-.7v-4.2c.1-3.6.1-4 .4-4.3l4.3-.1h4.2l.3.4c.4.6 1.4 1.1 2.3 1.2 2 .3 3.8-1.3 3.8-3.4 0-1-.4-2-1.2-2.6a3.4 3.4 0 0 0-4.7 0l-.6.7h-9.3l-.8.4-1.3 1c-1 1.2-1 1.5-1 6l-.2 4c0 .2-.8.2-3 .2h-3l.6-.3c.9-.4 1.8-1.4 2.2-2.2l.4-.8v-8.3c.1-8 .1-8.3.4-8.5l1.7-.1c1.3 0 1.4 0 1.7.3.4.6 1.4 1.1 2.4 1.2 1.6.1 3-.9 3.5-2.5.3-.8.3-1 0-2a3.3 3.3 0 0 0-3.3-2.4c-1 0-1.9.3-2.5 1l-.4.5h-1.5c-2.8 0-4.3.8-5.2 2.8l-.5 1v8.2c-.1 7.9-.2 8.2-.4 8.4-.2.1-.8.2-2.7.2h-2.5v-3h.5c1 0 2-.7 2.6-1.6.2-.4.2-1.1.3-5.6l-.1-6.2a7.1 7.1 0 0 0-4.9-5.5c-.8-.2-1.2-.3-2.4-.2-1.3 0-1.5 0-2.5.5a7 7 0 0 0-3.8 4.6c-.2.8-.3 1.7-.3 6.2 0 5.6 0 5.9.7 6.7.4.6 1.5 1.1 2.2 1.1h.5v3h-2.5c-2.4 0-2.6 0-2.8-.3-.3-.3-.3-.7-.4-8.6v-8.2l-.4-.7c-.4-1-1.4-1.9-2.4-2.3-.7-.4-1-.4-2.6-.4-1.7-.1-1.8-.1-2-.4 0-.2-.5-.6-1-.8-1-.6-2.2-.6-3.3 0Z" fill="url(#paint31_linear)" fill-opacity=".2"/>
    <path class="a6" d="M171.8 13.8c-1.5.8-2.2 2.5-1.7 4.3.3.7 1.4 2 2.2 2.1 1.3.4 2.7.1 3.5-.8l.6-.5h1.4c1.3 0 1.5 0 1.7.3.3.2.3.6.4 8.5v8.2l.4.7c.4.9 1.3 1.8 2 2.2l.6.3h-2.8c-2.2 0-3 0-3-.2-.1 0-.2-1.6-.2-4.2v-4.2l-.5-.7c-.5-1-1.3-1.7-2.3-2-.7-.3-1-.3-5.2-.3h-4.5l-.4-.5a3.5 3.5 0 1 0-4 5.6c1.3.6 2.6.3 3.8-.7l.8-.7h4c3.4 0 4 0 4.3.2.3.2.3.2.3 4.1 0 3.6 0 4 .3 4.7.4 1 1.2 1.8 2.2 2.3.7.4.8.4 4.8.4l4.1.1v.8c0 1.4.4 1.3-6.1 1.4-5.5 0-5.6.1-6.4.4-.8.4-1.8 1.4-2.3 2.2a7 7 0 0 0-.5 3.2c0 1 0 1-.5 1.4l-.8 1.1c-.3.7-.3 1-.3 1.7.3 3.1 4 4.5 6 2.1a3 3 0 0 0 1-2.3 3 3 0 0 0-1-2.5c-.6-.6-.6-.6-.6-1.7 0-2-.4-1.8 5.1-1.8h5.8c1.7-.3 2.8-1 3.7-2.4l.4-.6v7c0 6.5 0 7-.3 7.6-.9 2-3.5 2.1-4.6.3-.3-.5-.4-.8-.4-1.8 0-1.1 0-1.2.5-1.5l.8-1.1c1.2-2.6-1.1-5.5-4-5a3.5 3.5 0 0 0-1.5 6.1c.4.4.4.5.4 1.4 0 2.9 1.4 5.2 3.8 6.4.8.4 1.2.4 2.3.5 1 0 1.6 0 2.2-.2a6.3 6.3 0 0 0 3.5-2.8c1-1.5 1-1.4 1-11v-8.5h2v17.2c.4 2 1.9 3.9 3.7 4.8 1 .4 1 .4 2.7.4 1.5 0 1.7 0 2.4-.3a6.4 6.4 0 0 0 3.9-6.1V58l.6-.6c1-1 1.3-2.2.9-3.5-.3-1-.8-1.6-1.7-2-.6-.4-1-.5-1.7-.5a3.5 3.5 0 0 0-2.3 6c.5.5.5.5.5 1.5 0 1.2-.3 2-1 2.5-1.3 1.1-3 .8-3.9-.6l-.3-.6V46.2l.4.7c.3.4.8.9 1.2 1.1 1.3 1 1.3 1 7.1 1l5.6.1c.4.1.6.7.6 1.8 0 1 0 1-.5 1.5-.7.8-1 1.5-1 2.6 0 2 1.4 3.4 3.4 3.4s3.4-1.4 3.4-3.4c0-1-.2-1.6-1-2.5l-.6-.6v-1.6c0-1.3-.1-1.8-.4-2.3-.4-1-1.3-1.9-2.3-2.3l-.7-.4H207l-5.6-.1-.3-.4c-.2-.2-.3-.6-.3-1V43h4.1c4-.1 4.1-.1 4.8-.5.9-.4 1.7-1.1 2.1-2l.4-.7v-4.2c.1-3.6.1-4 .4-4.2.1-.2 1.2-.2 4.3-.2h4.2l.3.4c.4.6 1.4 1.1 2.3 1.2 2 .3 3.8-1.3 3.8-3.4 0-1-.4-2-1.2-2.6a3.4 3.4 0 0 0-4.7 0l-.6.7h-9.3l-.8.5c-.4.2-1 .6-1.3 1-1 1.1-1 1.4-1 5.9l-.2 4c0 .2-.8.2-3 .2h-3l.6-.3c.9-.4 1.8-1.4 2.2-2.2l.4-.8v-8.3c.1-8 .1-8.3.4-8.4.2-.2.7-.2 1.7-.2 1.3 0 1.4 0 1.7.3.4.6 1.4 1.1 2.4 1.2 1.6.1 3-.9 3.5-2.5.3-.8.3-1 0-2a3.3 3.3 0 0 0-3.3-2.4c-1 0-1.9.3-2.5 1l-.4.5h-1.5c-2.8 0-4.3.8-5.2 2.8l-.5 1V27c-.1 7.9-.2 8.2-.4 8.4-.2.1-.8.2-2.7.2h-2.5v-3h.5c1 0 2-.7 2.6-1.6.2-.4.2-1.1.3-5.6l-.1-6.2a7.1 7.1 0 0 0-4.9-5.5c-.8-.2-1.2-.3-2.4-.2-1.3 0-1.5.1-2.5.5a7 7 0 0 0-3.8 4.6c-.2.8-.3 1.7-.3 6.2 0 5.6 0 5.9.7 6.7.4.6 1.5 1.1 2.2 1.1h.5v3h-2.5c-2.4 0-2.6 0-2.8-.3-.3-.3-.3-.7-.4-8.6v-8.2l-.4-.7c-.4-1-1.4-1.9-2.4-2.3-.7-.4-1-.4-2.6-.4-1.7-.1-1.8-.1-2-.4 0-.2-.5-.6-1-.8-1-.6-2.2-.6-3.3 0Z" fill="url(#paint32_linear)"/>
    <path class="b7" d="M119.2 90.3c-1.5.8-2.2 2.5-1.7 4.2.2.8 1.4 2 2.2 2.2 1.3.4 2.6 0 3.5-.8l.5-.6h1.5c1.3 0 1.4 0 1.7.3.2.3.2.7.3 8.5v8.3l.4.7c.5.8 1.3 1.8 2.1 2.2l.6.3h-2.9c-2.1 0-2.9 0-3-.2 0-.1-.2-1.7-.2-4.3V107l-.4-.8c-.6-.9-1.3-1.6-2.3-2-.7-.2-1.1-.3-5.3-.3h-4.4l-.4-.4a3.5 3.5 0 1 0-4 5.5c1.3.6 2.6.4 3.8-.7l.8-.7h4c3.3 0 4 0 4.3.3.3.2.3.2.3 4 0 3.6 0 4 .3 4.7.3 1 1.2 1.9 2.1 2.4.7.3.9.3 4.9.4h4v.9c0 1.4.4 1.3-6 1.4-5.6 0-5.7 0-6.4.4-.8.3-1.9 1.3-2.3 2.2a7 7 0 0 0-.6 3.1c0 1 0 1.1-.4 1.4-.2.2-.6.7-.8 1.2-.3.6-.4.9-.3 1.7.2 3.1 4 4.4 6 2a3 3 0 0 0 .9-2.3 3 3 0 0 0-1-2.4c-.6-.6-.6-.6-.6-1.8 0-1.9-.3-1.7 5.2-1.7l5.7-.1c1.7-.2 2.8-1 3.7-2.3l.4-.6v7c0 6.5 0 7-.2 7.5-1 2-3.6 2.2-4.7.3-.3-.5-.3-.7-.3-1.7 0-1.2 0-1.2.4-1.6.3-.2.6-.7.8-1 1.2-2.7-1-5.6-3.9-5a3.6 3.6 0 0 0-1.6 6c.4.4.5.5.5 1.4 0 3 1.4 5.3 3.7 6.4.9.4 1.2.5 2.4.5 1 0 1.5 0 2.1-.2a6.3 6.3 0 0 0 3.6-2.7c1-1.6.9-1.4.9-11v-8.6h2v8.3l.1 9c.4 2 1.8 3.8 3.7 4.7.9.5 1 .5 2.6.5 1.5 0 1.8 0 2.5-.4a6.4 6.4 0 0 0 3.8-6v-1.4l.6-.6c1-1 1.3-2.2 1-3.5-.4-.9-.9-1.5-1.8-2-.6-.3-.9-.4-1.6-.4-3.2 0-4.7 3.8-2.4 6 .5.5.5.5.5 1.5 0 1.1-.3 2-1 2.5-1.2 1-3 .8-3.8-.7l-.4-.6v-14.1l.5.7 1.1 1.2c1.3.9 1.4.9 7.2 1h5.6c.4.2.6.7.6 1.9 0 1 0 1-.5 1.5-.8.7-1.1 1.5-1.1 2.5 0 2 1.4 3.5 3.4 3.5s3.5-1.5 3.5-3.5c0-1-.3-1.6-1-2.4l-.6-.6v-1.6c-.1-1.3-.2-1.8-.4-2.3-.4-1-1.4-2-2.3-2.4l-.8-.4H149l-.3-.4c-.2-.3-.3-.6-.3-1.1v-.8h4c4 0 4.2 0 4.8-.4 1-.4 1.7-1.2 2.2-2l.4-.8v-4.1c0-3.7.1-4.1.3-4.3.2-.1 1.2-.2 4.4-.2h4.1l.3.5c.4.6 1.4 1 2.3 1.2 2 .2 3.8-1.4 3.8-3.4a3.4 3.4 0 0 0-5.8-2.6l-.7.6h-4.6l-4.7.1-.7.4-1.3 1c-1 1.2-1 1.5-1.1 6l-.1 4c0 .1-.8.2-3 .2h-3l.6-.3c.8-.5 1.7-1.4 2.2-2.3l.3-.8.1-8.2c0-8 0-8.3.3-8.5.2-.1.7-.2 1.7-.2 1.4 0 1.4 0 1.7.4.5.6 1.5 1 2.4 1.1 1.7.2 3.1-.8 3.6-2.4.3-.9.3-1.1 0-2a3.3 3.3 0 0 0-3.3-2.5c-1.1 0-2 .4-2.6 1.1l-.4.5H155c-2.7 0-4.2.8-5.2 2.8l-.4 1-.1 8.1c0 8-.1 8.2-.4 8.4-.2.2-.8.2-2.7.2h-2.4v-2.9h.5c1 0 2-.7 2.6-1.7.2-.3.2-1 .2-5.6v-6.1a7.1 7.1 0 0 0-5-5.5c-.7-.3-1.2-.3-2.3-.3-1.3 0-1.6.1-2.5.6a7 7 0 0 0-3.9 4.5c-.2.8-.2 1.7-.2 6.3 0 5.6 0 5.9.6 6.7.4.5 1.5 1 2.2 1h.6v3H134c-2.4 0-2.5 0-2.8-.3-.2-.3-.2-.7-.3-8.5V95l-.4-.8c-.5-1-1.4-1.8-2.4-2.3-.7-.3-1-.3-2.6-.4-1.7 0-1.8 0-2-.4l-1-.8c-1-.5-2.2-.5-3.3 0Z" fill="url(#paint33_linear)" fill-opacity=".5"/>
    <path class="c7" d="M119.2 143c-1.5.7-2.2 2.4-1.7 4.2.2.7 1.4 2 2.2 2.1 1.3.4 2.6.1 3.5-.8l.5-.5h1.5c1.3 0 1.4 0 1.7.3.2.2.2.6.3 8.5v8.2l.4.7c.5.9 1.3 1.8 2.1 2.2l.6.3h-2.9c-2.1 0-2.9 0-3-.2 0 0-.2-1.6-.2-4.2v-4.2l-.4-.7c-.6-1-1.3-1.6-2.3-2-.7-.3-1.1-.3-5.3-.3h-4.4l-.4-.5a3.5 3.5 0 1 0-4 5.6c1.3.6 2.6.3 3.8-.7l.8-.7h4c3.3 0 4 0 4.3.2.3.2.3.3.3 4.1 0 3.6 0 4 .3 4.7.3 1 1.2 1.8 2.1 2.3.7.4.9.4 4.9.4l4 .1v.8c0 1.4.4 1.3-6 1.4-5.6 0-5.7.1-6.4.4-.8.4-1.9 1.4-2.3 2.2a7 7 0 0 0-.6 3.2c0 1 0 1-.4 1.4l-.8 1.1c-.3.7-.4 1-.3 1.7.2 3.1 4 4.5 6 2.1a3 3 0 0 0 .9-2.3 3 3 0 0 0-1-2.5c-.6-.6-.6-.6-.6-1.7 0-1.9-.3-1.8 5.2-1.8h5.7c1.7-.3 2.8-1 3.7-2.4l.4-.6v7c0 6.5 0 7-.2 7.6-1 2-3.6 2.1-4.7.3-.3-.5-.3-.8-.3-1.8 0-1.1 0-1.2.4-1.5.3-.2.6-.7.8-1.1 1.2-2.6-1-5.5-3.9-5a3.5 3.5 0 0 0-1.6 6.1c.4.4.5.5.5 1.4 0 3 1.4 5.2 3.7 6.4.9.4 1.2.4 2.4.5 1 0 1.5 0 2.1-.2a6.3 6.3 0 0 0 3.6-2.8c1-1.5.9-1.4.9-11v-8.5h2v8.2l.1 9c.4 2 1.8 3.9 3.7 4.8.9.4 1 .4 2.6.4 1.5 0 1.8 0 2.5-.3a6.4 6.4 0 0 0 3.8-6.1v-1.3l.6-.6c1-1 1.3-2.2 1-3.5-.4-1-.9-1.6-1.8-2-.6-.4-.9-.5-1.6-.5-3.2 0-4.7 3.9-2.4 6 .5.5.5.6.5 1.5 0 1.2-.3 2-1 2.5-1.2 1.1-3 .8-3.8-.6l-.4-.6v-14.2l.5.8c.3.4.8 1 1.1 1.1 1.3 1 1.4 1 7.2 1l5.6.1c.4.1.6.7.6 1.8 0 1 0 1-.5 1.5-.8.8-1.1 1.5-1.1 2.6 0 2 1.4 3.4 3.4 3.4s3.5-1.4 3.5-3.4c0-1-.3-1.6-1-2.5l-.6-.6v-1.6c-.1-1.3-.2-1.8-.4-2.3-.4-1-1.4-1.9-2.3-2.3l-.8-.4h-5.6l-5.6-.1-.3-.4c-.2-.2-.3-.6-.3-1v-.8h4c4-.1 4.2-.1 4.8-.5 1-.4 1.7-1.1 2.2-2l.4-.7v-4.2c0-3.6.1-4 .3-4.2.2-.2 1.2-.2 4.4-.2h4.1l.3.4c.4.6 1.4 1.1 2.3 1.2 2 .3 3.8-1.3 3.8-3.4 0-1-.3-2-1.1-2.6a3.4 3.4 0 0 0-4.7 0l-.7.7h-9.3l-.7.5c-.4.2-1 .6-1.3 1-1 1.1-1 1.4-1.1 5.9l-.1 4c0 .2-.8.2-3 .2h-3l.6-.3c.8-.4 1.7-1.4 2.2-2.2l.3-.8.1-8.3c0-8 0-8.2.3-8.4.2-.2.7-.2 1.7-.2 1.4 0 1.4 0 1.7.3.5.6 1.5 1.1 2.4 1.2 1.7.1 3.1-.9 3.6-2.5.3-.8.3-1 0-2a3.3 3.3 0 0 0-3.3-2.4c-1.1 0-2 .3-2.6 1l-.4.5H155c-2.7 0-4.2.8-5.2 2.8l-.4 1-.1 8.2c0 7.9-.1 8.2-.4 8.4-.2.1-.8.2-2.7.2h-2.4v-3h.5c1 0 2-.7 2.6-1.6.2-.4.2-1.1.2-5.6v-6.2a7.1 7.1 0 0 0-5-5.5c-.7-.2-1.2-.3-2.3-.2-1.3 0-1.6.1-2.5.6a7 7 0 0 0-3.9 4.5c-.2.8-.2 1.7-.2 6.2 0 5.6 0 5.9.6 6.8.4.5 1.5 1 2.2 1h.6v3H134c-2.4 0-2.5 0-2.8-.3-.2-.3-.2-.7-.3-8.6v-8.2l-.4-.7c-.5-1-1.4-1.9-2.4-2.3-.7-.4-1-.4-2.6-.4-1.7-.1-1.8-.1-2-.4l-1-.8c-1-.6-2.2-.6-3.3 0Z" fill="url(#paint34_linear)" fill-opacity=".2"/>
    <path class="a7" d="M119.2 37.6c-1.5.8-2.2 2.5-1.7 4.3.2.7 1.4 2 2.2 2.1 1.3.4 2.6.1 3.5-.8l.5-.5h1.5c1.3 0 1.4 0 1.7.3.2.2.2.6.3 8.5v8.2l.4.7c.5.9 1.3 1.8 2.1 2.2l.6.3h-2.9c-2.1 0-2.9 0-3-.2 0 0-.2-1.6-.2-4.2v-4.2l-.4-.7c-.6-1-1.3-1.6-2.3-2-.7-.3-1.1-.3-5.3-.3h-4.4l-.4-.5a3.5 3.5 0 1 0-4 5.6c1.3.6 2.6.3 3.8-.7l.8-.7h4c3.3 0 4 0 4.3.2.3.2.3.3.3 4.1 0 3.6 0 4 .3 4.7.3 1 1.2 1.8 2.1 2.3.7.4.9.4 4.9.4l4 .1v.8c0 1.4.4 1.3-6 1.4-5.6 0-5.7.1-6.4.4-.8.4-1.9 1.4-2.3 2.2a7 7 0 0 0-.6 3.2c0 1 0 1-.4 1.4l-.8 1.1c-.3.7-.4 1-.3 1.7.2 3.2 4 4.5 6 2.1a3 3 0 0 0 .9-2.3 3 3 0 0 0-1-2.5c-.6-.6-.6-.6-.6-1.7 0-1.9-.3-1.8 5.2-1.8h5.7c1.7-.3 2.8-1 3.7-2.4l.4-.6v7c0 6.5 0 7-.2 7.6-1 2-3.6 2.1-4.7.3-.3-.5-.3-.8-.3-1.8 0-1.1 0-1.2.4-1.5.3-.2.6-.7.8-1.1 1.2-2.6-1-5.5-3.9-5a3.5 3.5 0 0 0-1.6 6.1c.4.4.5.5.5 1.4 0 3 1.4 5.2 3.7 6.4.9.4 1.2.4 2.4.5 1 0 1.5 0 2.1-.2a6.3 6.3 0 0 0 3.6-2.8c1-1.5.9-1.4.9-11v-8.5h2v8.2l.1 9c.4 2 1.8 3.9 3.7 4.8.9.4 1 .4 2.6.4 1.5 0 1.8 0 2.5-.3a6.4 6.4 0 0 0 3.8-6.1v-1.3l.6-.6c1-1 1.3-2.2 1-3.5-.4-1-.9-1.6-1.8-2-.6-.4-.9-.5-1.6-.5-3.2 0-4.7 3.9-2.4 6 .5.5.5.6.5 1.5 0 1.2-.3 2-1 2.5-1.2 1.1-3 .8-3.8-.6l-.4-.6V69.9l.5.8c.3.4.8 1 1.1 1.1 1.3 1 1.4 1 7.2 1l5.6.1c.4.1.6.7.6 1.8 0 1 0 1-.5 1.5-.8.8-1.1 1.5-1.1 2.6 0 2 1.4 3.4 3.4 3.4s3.5-1.4 3.5-3.4c0-1-.3-1.6-1-2.5l-.6-.6v-1.6c-.1-1.3-.2-1.8-.4-2.3-.4-1-1.4-1.9-2.3-2.3l-.8-.4h-5.6l-5.6-.1-.3-.4c-.2-.2-.3-.5-.3-1v-.8h4c4-.1 4.2-.1 4.8-.5 1-.4 1.7-1.1 2.2-2l.4-.7v-4.2c0-3.6.1-4 .3-4.2.2-.2 1.2-.2 4.4-.2h4.1l.3.4c.4.6 1.4 1.1 2.3 1.2 2 .3 3.8-1.3 3.8-3.4 0-1-.3-2-1.1-2.6a3.4 3.4 0 0 0-4.7 0l-.7.7h-9.3l-.7.5c-.4.2-1 .6-1.3 1-1 1.1-1 1.4-1.1 5.9l-.1 4c0 .2-.8.2-3 .2h-3l.6-.3c.8-.4 1.7-1.4 2.2-2.2l.3-.8.1-8.3c0-8 0-8.2.3-8.4.2-.2.7-.2 1.7-.2 1.4 0 1.4 0 1.7.3.5.6 1.5 1.1 2.4 1.2 1.7.1 3.1-.9 3.6-2.5.3-.8.3-1 0-2a3.3 3.3 0 0 0-3.3-2.4c-1.1 0-2 .3-2.6 1l-.4.5H155c-2.7 0-4.2.8-5.2 2.8l-.4 1-.1 8.2c0 7.9-.1 8.2-.4 8.4-.2.1-.8.2-2.7.2h-2.4v-3h.5c1 0 2-.7 2.6-1.6.2-.4.2-1.1.2-5.6V43a7.1 7.1 0 0 0-5-5.5c-.7-.2-1.2-.3-2.3-.2-1.3 0-1.6.1-2.5.6a7 7 0 0 0-3.9 4.5c-.2.8-.2 1.7-.2 6.2 0 5.6 0 5.9.6 6.8.4.5 1.5 1 2.2 1h.6v3H134c-2.4 0-2.5 0-2.8-.3-.2-.3-.2-.7-.3-8.6v-8.2l-.4-.7c-.5-1-1.4-1.9-2.4-2.3-.7-.4-1-.4-2.6-.4-1.7-.1-1.8-.1-2-.4l-1-.8c-1-.6-2.2-.6-3.3 0Z" fill="url(#paint35_linear)"/>
    <path class="b8" d="M66.5 118c-1.5.9-2.2 2.6-1.7 4.3.3.8 1.4 2 2.2 2.2 1.3.4 2.7 0 3.5-.8l.6-.6h1.4c1.3 0 1.5 0 1.7.3.3.3.3.7.4 8.6v8.2l.4.7c.4.8 1.3 1.8 2 2.2l.6.3h-2.8c-2.2 0-3 0-3-.2-.1-.1-.2-1.7-.2-4.3v-4.1l-.5-.8c-.5-.9-1.3-1.6-2.3-2-.7-.2-1-.2-5.2-.2H59l-.4-.5a3.5 3.5 0 1 0-4 5.5c1.3.6 2.6.4 3.8-.7l.8-.7h4c3.4 0 4 0 4.3.3.3.2.3.2.3 4 0 3.6 0 4 .3 4.7.4 1 1.2 1.9 2.2 2.4.7.3.8.3 4.8.4h4.1v.9c0 1.4.4 1.3-6.1 1.4-5.5 0-5.6 0-6.4.4-.8.3-1.8 1.4-2.3 2.2a7 7 0 0 0-.5 3.1c0 1 0 1.1-.4 1.4-.3.2-.6.7-.9 1.2-.3.6-.3.9-.3 1.7.3 3.1 4 4.4 6 2a3 3 0 0 0 1-2.3 3 3 0 0 0-1-2.4c-.6-.6-.6-.6-.6-1.8 0-1.8-.4-1.7 5.1-1.7l5.8-.1c1.7-.2 2.8-1 3.7-2.3l.4-.6v7c0 6.5 0 7-.3 7.5-.9 2-3.5 2.2-4.6.3-.3-.5-.4-.7-.4-1.7 0-1.2 0-1.2.5-1.6l.8-1c1.2-2.7-1.1-5.6-4-5a3.6 3.6 0 0 0-1.5 6c.4.4.4.5.4 1.4 0 3 1.4 5.3 3.8 6.4.8.4 1.2.5 2.3.5 1 0 1.6 0 2.2-.2a6.3 6.3 0 0 0 3.5-2.7c1-1.6 1-1.4 1-11v-8.6h2V165c.4 2 1.9 3.9 3.7 4.7 1 .5 1 .5 2.7.5 1.5 0 1.7 0 2.4-.4a6.4 6.4 0 0 0 3.9-6v-1.4l.6-.6c1-1 1.3-2.2.9-3.5-.3-.9-.8-1.5-1.7-2-.6-.3-1-.4-1.7-.4a3.5 3.5 0 0 0-2.3 6c.5.5.5.5.5 1.5 0 1.1-.3 2-1 2.5-1.3 1-3 .8-3.9-.7l-.3-.6v-14.1l.4.7c.3.4.8 1 1.2 1.2 1.3.9 1.3.9 7.1 1h5.6c.4.2.6.7.6 1.9 0 1 0 1-.5 1.5-.7.7-1 1.5-1 2.5 0 2 1.4 3.5 3.4 3.5s3.4-1.5 3.4-3.5c0-1-.2-1.6-1-2.4l-.5-.6-.1-1.6c0-1.3-.1-1.8-.4-2.3-.4-1-1.3-2-2.3-2.4l-.7-.4H96.2l-.3-.4c-.2-.3-.3-.6-.3-1.1v-.8h4.1c4 0 4.1 0 4.8-.4.9-.4 1.7-1.2 2.2-2l.3-.8V140c.1-3.7.1-4.1.4-4.3.1-.1 1.2-.2 4.3-.2h4.2l.3.5c.4.6 1.4 1.1 2.3 1.2 2 .2 3.8-1.4 3.8-3.4 0-1.1-.4-2-1.1-2.7a3.4 3.4 0 0 0-4.8.1l-.6.6H111l-4.6.1-.8.4-1.3 1c-1 1.2-1 1.5-1 6l-.2 4c0 .1-.8.2-3 .2h-3l.6-.3c.9-.5 1.8-1.4 2.2-2.3l.4-.8v-8.2c.1-8 .1-8.3.4-8.5.2-.1.7-.2 1.7-.2 1.3 0 1.4 0 1.7.4.4.6 1.4 1 2.4 1.1 1.6.2 3-.8 3.5-2.4.3-.9.3-1.1 0-2a3.3 3.3 0 0 0-3.3-2.5c-1 0-1.9.4-2.5 1.1l-.4.5h-1.5c-2.8 0-4.3.8-5.2 2.8l-.5 1v8.1c-.1 8-.1 8.2-.4 8.4-.2.2-.8.2-2.7.2H91V137h.5c1 0 2-.7 2.6-1.7.2-.3.2-1 .3-5.6l-.1-6.1a7.1 7.1 0 0 0-4.9-5.5c-.8-.2-1.2-.3-2.4-.2-1.3 0-1.5 0-2.5.5a7 7 0 0 0-3.8 4.5c-.2.8-.3 1.7-.3 6.3 0 5.6 0 5.9.7 6.7.4.5 1.5 1 2.2 1h.5v3h-2.5c-2.4 0-2.6 0-2.8-.3-.3-.3-.3-.7-.4-8.5v-8.2l-.4-.8c-.4-.9-1.4-1.8-2.4-2.3-.7-.3-1-.3-2.6-.4-1.7 0-1.8 0-2-.4 0-.2-.5-.5-1-.8-1-.5-2.2-.5-3.3 0Z" fill="url(#paint36_linear)" fill-opacity=".5"/>
    <path class="c8" d="M66.5 170.7c-1.5.8-2.2 2.5-1.7 4.3.3.7 1.4 2 2.2 2.1 1.3.4 2.7.1 3.5-.8l.6-.5h1.4c1.3 0 1.5 0 1.7.3.3.2.3.7.4 8.5v8.2l.4.7c.4.9 1.3 1.8 2 2.2l.6.3h-2.8c-2.2 0-3 0-3-.2-.1 0-.2-1.6-.2-4.2v-4.2l-.5-.7c-.5-1-1.3-1.6-2.3-2-.7-.3-1-.3-5.2-.3H59l-.4-.5a3.5 3.5 0 1 0-4 5.6c1.3.6 2.6.3 3.8-.7l.8-.7h4c3.4 0 4 0 4.3.2.3.2.3.3.3 4.1 0 3.6 0 4 .3 4.7.4 1 1.2 1.8 2.2 2.3.7.4.8.4 4.8.4l4.1.1v.8c0 1.4.4 1.3-6.1 1.4-5.5 0-5.6.1-6.4.4-.8.4-1.8 1.4-2.3 2.2a7 7 0 0 0-.5 3.2c0 1 0 1-.4 1.4-.3.2-.6.7-.9 1.1-.3.7-.3 1-.3 1.7.3 3.2 4 4.5 6 2.1a3 3 0 0 0 1-2.3 3 3 0 0 0-1-2.5c-.6-.6-.6-.6-.6-1.7 0-1.9-.4-1.8 5.1-1.8h5.8c1.7-.3 2.8-1 3.7-2.4l.4-.6v7c0 6.5 0 7-.3 7.6-.9 2-3.5 2.1-4.6.3-.3-.5-.4-.8-.4-1.8 0-1.1 0-1.2.5-1.5l.8-1.1c1.2-2.6-1.1-5.5-4-5a3.6 3.6 0 0 0-1.5 6.1c.4.4.4.5.4 1.4 0 3 1.4 5.2 3.8 6.4.8.4 1.2.4 2.3.5 1 0 1.6 0 2.2-.2a6.3 6.3 0 0 0 3.5-2.8c1-1.5 1-1.4 1-11v-8.5h2v17.3c.4 2 1.9 3.8 3.7 4.7 1 .4 1 .4 2.7.4 1.5 0 1.7 0 2.4-.3a6.4 6.4 0 0 0 3.9-6.1V215l.6-.6c1-1 1.3-2.2.9-3.5-.3-1-.8-1.6-1.7-2-.6-.4-1-.5-1.7-.5a3.5 3.5 0 0 0-2.3 6c.5.5.5.6.5 1.5 0 1.2-.3 2-1 2.5-1.3 1.1-3 .8-3.9-.6l-.3-.6V203l.4.8c.3.4.8 1 1.2 1.2 1.3.8 1.3.8 7.1.9l5.6.1c.4.1.6.7.6 1.8 0 1 0 1-.5 1.5-.7.8-1 1.5-1 2.6 0 2 1.4 3.5 3.4 3.5s3.4-1.5 3.4-3.5c0-1-.2-1.6-1-2.5l-.5-.6-.1-1.6c0-1.3-.1-1.8-.4-2.3-.4-1-1.3-1.9-2.3-2.3l-.7-.4h-5.7l-5.6-.1-.3-.4c-.2-.2-.3-.5-.3-1v-.8h4.1c4-.1 4.1-.1 4.8-.4.9-.5 1.7-1.2 2.2-2.1l.3-.7v-4.1c.1-3.7.1-4.2.4-4.3.1-.2 1.2-.2 4.3-.2h4.2l.3.4c.4.6 1.4 1.1 2.3 1.2 2 .3 3.8-1.3 3.8-3.4a3.4 3.4 0 0 0-5.8-2.6l-.7.7h-9.3l-.8.5c-.4.2-1 .6-1.3 1-1 1.1-1 1.4-1 5.9l-.2 4c0 .2-.8.2-3 .2h-3l.6-.3c.9-.4 1.8-1.3 2.2-2.2l.4-.8v-8.3c.1-8 .1-8.2.4-8.4.2-.2.7-.2 1.7-.2 1.3 0 1.4 0 1.7.3.4.6 1.4 1.1 2.4 1.2 1.6.1 3-.9 3.5-2.4.3-1 .3-1.2 0-2.1a3.3 3.3 0 0 0-3.3-2.4c-1 0-1.9.3-2.5 1l-.4.5h-1.5c-2.8 0-4.3.8-5.2 2.8l-.5 1v8.2c-.1 7.9-.1 8.2-.4 8.4-.2.1-.8.2-2.7.2H91v-3h.5c1 0 2-.7 2.6-1.6.2-.4.2-1.1.3-5.6l-.1-6.2a7.1 7.1 0 0 0-4.9-5.5c-.8-.2-1.2-.3-2.4-.2-1.3 0-1.5.1-2.5.6a7 7 0 0 0-3.8 4.5c-.2.8-.3 1.7-.3 6.2 0 5.7 0 6 .7 6.8.4.5 1.5 1 2.2 1h.5v3h-2.5c-2.4 0-2.6 0-2.8-.3-.3-.3-.3-.7-.4-8.6v-8.2l-.4-.7c-.4-1-1.4-1.9-2.4-2.3-.7-.4-1-.4-2.6-.4-1.7-.1-1.8-.1-2-.4 0-.2-.5-.6-1-.8-1-.6-2.2-.6-3.3 0Z" fill="url(#paint37_linear)" fill-opacity=".2"/>
    <path class="a8" d="M66.5 65.4c-1.5.8-2.2 2.5-1.7 4.3.3.7 1.4 2 2.2 2.1 1.3.4 2.7.1 3.5-.8l.6-.5h1.4c1.3 0 1.5 0 1.7.3.3.2.3.7.4 8.5v8.2l.4.7c.4.9 1.3 1.8 2 2.2l.6.3h-2.8c-2.2 0-3 0-3-.2-.1 0-.2-1.6-.2-4.2v-4.1l-.5-.8c-.5-1-1.3-1.6-2.3-2-.7-.3-1-.3-5.2-.3H59l-.4-.5a3.5 3.5 0 1 0-4 5.6c1.3.6 2.6.3 3.8-.7l.8-.7h4c3.4 0 4 0 4.3.2.3.2.3.3.3 4.1 0 3.6 0 4 .3 4.7.4 1 1.2 1.8 2.2 2.3.7.4.8.4 4.8.4l4.1.1v.8c0 1.4.4 1.3-6.1 1.4-5.5 0-5.6.1-6.4.4-.8.4-1.8 1.4-2.3 2.2a7 7 0 0 0-.5 3.2c0 1 0 1-.4 1.4-.3.2-.6.7-.9 1.1-.3.7-.3 1-.3 1.7.3 3.2 4 4.5 6 2.1a3 3 0 0 0 1-2.3 3 3 0 0 0-1-2.5c-.6-.6-.6-.6-.6-1.7 0-1.9-.4-1.8 5.1-1.8h5.8c1.7-.3 2.8-1 3.7-2.4l.4-.6v7c0 6.5 0 7-.3 7.6-.9 2-3.5 2.1-4.6.3-.3-.5-.4-.8-.4-1.8 0-1.1 0-1.2.5-1.5l.8-1.1c1.2-2.6-1.1-5.5-4-5a3.5 3.5 0 0 0-1.5 6.1c.4.4.4.5.4 1.4 0 3 1.4 5.2 3.8 6.4.8.4 1.2.4 2.3.5 1 0 1.6 0 2.2-.2a6.3 6.3 0 0 0 3.5-2.8c1-1.5 1-1.4 1-11V95h2v17.3c.4 2 1.9 3.8 3.7 4.7 1 .4 1 .4 2.7.4 1.5 0 1.7 0 2.4-.3a6.4 6.4 0 0 0 3.9-6.1v-1.3l.6-.6c1-1 1.3-2.2.9-3.5-.3-1-.8-1.6-1.7-2-.6-.4-1-.5-1.7-.5-3.1 0-4.6 3.9-2.3 6 .5.5.5.6.5 1.5 0 1.2-.3 2-1 2.5-1.3 1.1-3 .8-3.9-.6l-.3-.6V97.7l.4.8c.3.4.8 1 1.2 1.2 1.3.8 1.3.8 7.1.9l5.6.1c.4.1.6.7.6 1.8 0 1 0 1-.5 1.5-.7.8-1 1.5-1 2.6 0 2 1.4 3.5 3.4 3.5s3.4-1.5 3.4-3.5c0-1-.2-1.6-1-2.5l-.5-.6-.1-1.6c0-1.3-.1-1.8-.4-2.3-.4-1-1.3-1.9-2.3-2.3l-.7-.4h-5.7l-5.6-.1-.3-.4c-.2-.2-.3-.5-.3-1v-.8h4.1c4-.1 4.1-.1 4.8-.4.9-.5 1.7-1.2 2.2-2.1l.3-.7v-4.1c.1-3.7.1-4.2.4-4.3.1-.2 1.2-.2 4.3-.2h4.2l.3.4c.4.6 1.4 1.1 2.3 1.2 2 .3 3.8-1.3 3.8-3.4a3.4 3.4 0 0 0-5.8-2.6l-.7.7h-9.3l-.8.5c-.4.2-1 .6-1.3 1-1 1.1-1 1.5-1 5.9l-.2 4c0 .2-.8.2-3 .2h-3l.6-.3c.9-.4 1.8-1.3 2.2-2.2l.4-.8V79c.1-8 .1-8.2.4-8.4.2-.2.7-.2 1.7-.2 1.3 0 1.4 0 1.7.3.4.6 1.4 1.1 2.4 1.2 1.6.1 3-.9 3.5-2.4.3-1 .3-1.2 0-2.1a3.3 3.3 0 0 0-3.3-2.4c-1 0-1.9.3-2.5 1l-.4.5h-1.5c-2.8 0-4.3.8-5.2 2.8l-.5 1v8.2c-.1 7.9-.1 8.2-.4 8.4-.2.1-.8.2-2.7.2H91v-3h.5c1 0 2-.7 2.6-1.6.2-.4.2-1.1.3-5.6l-.1-6.2a7.1 7.1 0 0 0-4.9-5.5c-.8-.2-1.2-.3-2.4-.2-1.3 0-1.5.1-2.5.6a7 7 0 0 0-3.8 4.5c-.2.8-.3 1.7-.3 6.2 0 5.7 0 6 .7 6.8.4.5 1.5 1 2.2 1h.5v3h-2.5c-2.4 0-2.6 0-2.8-.3-.3-.3-.3-.7-.4-8.6v-8.2l-.4-.7c-.4-1-1.4-1.9-2.4-2.3-.7-.4-1-.4-2.6-.4-1.7 0-1.8-.1-2-.4 0-.2-.5-.6-1-.8-1-.6-2.2-.6-3.3 0Z" fill="url(#paint38_linear)"/>
    <path class="b1" d="M431.3 143.9c-1.6.8-2.3 2.5-1.7 4.2.2.8 1.4 2 2.1 2.2 1.4.4 2.7 0 3.6-.8l.5-.6h1.4c1.3 0 1.5 0 1.7.3.3.3.3.7.4 8.6v8.2l.4.7c.4.8 1.3 1.8 2 2.2l.6.3h-2.8c-2.2 0-2.9 0-3-.2-.1-.1-.2-1.7-.2-4.3v-4.1l-.5-.8c-.5-.9-1.3-1.6-2.3-2-.7-.2-1-.2-5.2-.2H424l-.5-.5a3.5 3.5 0 1 0-4 5.5c1.4.6 2.7.4 3.8-.7l.8-.7h4c3.4 0 4 0 4.3.3.3.2.3.2.3 4 0 3.6 0 4 .3 4.7.4 1 1.2 1.9 2.2 2.4.7.3.8.3 4.8.4h4.1v.9c0 1.4.4 1.3-6.1 1.4-5.5 0-5.6 0-6.3.4-.9.3-2 1.4-2.3 2.2a7 7 0 0 0-.6 3.1c0 1 0 1.1-.4 1.4-.3.2-.6.7-.8 1.2-.4.6-.4.9-.3 1.7.2 3.1 4 4.4 6 2a3 3 0 0 0 .9-2.3 3 3 0 0 0-1-2.4c-.6-.6-.6-.6-.6-1.8 0-1.8-.4-1.7 5.2-1.7l5.7-.1c1.7-.2 2.8-1 3.7-2.3l.4-.6v7c0 6.5 0 7-.3 7.5-.9 2-3.5 2.2-4.6.3-.3-.5-.3-.7-.3-1.7 0-1.2 0-1.2.4-1.6.3-.2.6-.7.8-1 1.2-2.7-1.1-5.6-3.9-5a3.5 3.5 0 0 0-1.6 6c.4.5.4.6.4 1.4 0 3 1.4 5.3 3.8 6.4.8.4 1.2.5 2.4.5 1 0 1.5 0 2-.2a6.3 6.3 0 0 0 3.6-2.7c1-1.6 1-1.4 1-11v-8.6h2v17.3c.5 2 1.9 3.9 3.7 4.7 1 .5 1 .5 2.7.5 1.5 0 1.8 0 2.5-.4a6.4 6.4 0 0 0 3.8-6V188l.6-.6c1-1 1.3-2.2.9-3.5-.3-.9-.8-1.5-1.7-2-.6-.3-1-.4-1.7-.4-3.1 0-4.6 3.8-2.3 6 .5.5.5.5.5 1.5 0 1.1-.3 2-1 2.5-1.2 1-3 .8-3.9-.7l-.3-.6v-14.1l.5.7c.2.4.7 1 1.1 1.2 1.3.9 1.3.9 7.1 1h5.6c.5.2.7.7.7 1.9 0 1 0 1-.5 1.5-.8.7-1.1 1.5-1.1 2.5 0 2 1.4 3.5 3.4 3.5s3.5-1.5 3.5-3.5c0-1-.3-1.6-1-2.4l-.6-.6v-1.6c-.1-1.3-.2-1.8-.4-2.3-.5-1-1.4-2-2.3-2.4l-.8-.4h-11.3l-.3-.4c-.2-.3-.2-.6-.2-1.1v-.8h4c4 0 4.1 0 4.8-.4.9-.4 1.7-1.2 2.2-2l.4-.8v-4c0-3.8 0-4.2.3-4.4.2-.1 1.2-.2 4.3-.2h4.2l.3.5c.4.6 1.4 1.1 2.3 1.2 2 .2 3.8-1.3 3.8-3.4 0-1.1-.4-2-1.1-2.7a3.4 3.4 0 0 0-4.7.1l-.7.6H476l-4.7.1-.7.4-1.3 1c-1 1.2-1.1 1.5-1.2 6v4c-.1.1-.8.2-3 .2h-3l.6-.3c.8-.5 1.7-1.4 2.1-2.3l.4-.8v-8.2c.1-8 .2-8.3.4-8.5.2-.1.7-.2 1.7-.2 1.3 0 1.4 0 1.7.4.5.6 1.4 1 2.4 1.1 1.7.2 3.1-.8 3.6-2.4.2-.9.2-1.1 0-2a3.3 3.3 0 0 0-3.4-2.5c-1 0-1.9.4-2.5 1.1l-.4.5H467c-2.7 0-4.2.8-5.2 2.8l-.5 1v8.1c-.1 8-.1 8.2-.4 8.4-.2.2-.8.2-2.7.2h-2.5v-2.9h.5c1 0 2.1-.7 2.6-1.7a62.1 62.1 0 0 0 .2-11.7 7.1 7.1 0 0 0-4.9-5.5c-.7-.2-1.2-.3-2.4-.2-1.3 0-1.5 0-2.5.5a7 7 0 0 0-3.8 4.5c-.2.8-.3 1.7-.3 6.3 0 5.6 0 5.9.7 6.7.4.5 1.5 1 2.2 1h.5v3h-2.5c-2.4 0-2.5 0-2.8-.3-.2-.2-.3-.7-.3-8.5l-.1-8.2-.4-.8c-.4-.9-1.4-1.8-2.3-2.3-.7-.3-1-.3-2.6-.4-1.7 0-1.8 0-2-.4l-1-.7c-1-.6-2.3-.6-3.3-.1Z" fill="url(#paint39_linear)" fill-opacity=".5"/>
    <path class="c1" d="M431.3 196.5c-1.6.8-2.3 2.5-1.7 4.3.2.7 1.4 2 2.1 2.2 1.4.3 2.7 0 3.6-.9l.5-.5h1.4c1.3 0 1.5 0 1.7.3.3.2.3.7.4 8.5v8.2l.4.7c.4.9 1.3 1.8 2 2.2l.6.3h-2.8c-2.2 0-2.9 0-3-.2-.1 0-.2-1.6-.2-4.2v-4.1l-.5-.8c-.5-1-1.3-1.6-2.3-2-.7-.3-1-.3-5.2-.3H424l-.5-.5a3.5 3.5 0 1 0-4 5.6c1.4.6 2.7.3 3.8-.7l.8-.7h4c3.4 0 4 0 4.3.2.3.2.3.3.3 4.1 0 3.6 0 4 .3 4.7.4 1 1.2 1.8 2.2 2.3.7.4.8.4 4.8.5h4.1v.8c0 1.4.4 1.3-6.1 1.4-5.5 0-5.6.1-6.3.4-.9.4-2 1.4-2.3 2.2a7 7 0 0 0-.6 3.2c0 1 0 1-.4 1.4-.3.2-.6.7-.8 1.1-.4.7-.4 1-.3 1.7.2 3.2 4 4.5 6 2.1a3 3 0 0 0 .9-2.3 3 3 0 0 0-1-2.5c-.6-.6-.6-.6-.6-1.7 0-1.9-.4-1.8 5.2-1.8h5.7c1.7-.3 2.8-1 3.7-2.3l.4-.7v7c0 6.5 0 7-.3 7.6-.9 2-3.5 2.1-4.6.3-.3-.5-.3-.8-.3-1.8 0-1.1 0-1.2.4-1.5.3-.2.6-.7.8-1.1 1.2-2.6-1.1-5.5-3.9-5a3.6 3.6 0 0 0-1.6 6.1c.4.4.4.5.4 1.4 0 3 1.4 5.3 3.8 6.4.8.4 1.2.4 2.4.5 1 0 1.5 0 2-.2a6.3 6.3 0 0 0 3.6-2.8c1-1.5 1-1.4 1-11v-8.5h2v17.3c.5 2 1.9 3.8 3.7 4.7 1 .4 1 .4 2.7.4 1.5 0 1.8 0 2.5-.3a6.4 6.4 0 0 0 3.8-6.1v-1.3l.6-.6c1-1 1.3-2.2.9-3.5-.3-1-.8-1.6-1.7-2-.6-.4-1-.5-1.7-.5-3.1 0-4.6 3.9-2.3 6 .5.5.5.6.5 1.5 0 1.2-.3 2-1 2.5-1.2 1.1-3 .8-3.9-.6l-.3-.6v-14.2l.5.8c.2.4.7 1 1.1 1.2 1.3.8 1.3.8 7.1.9l5.6.1c.5.1.7.7.7 1.8 0 1 0 1-.5 1.5-.8.8-1.1 1.5-1.1 2.6 0 2 1.4 3.5 3.4 3.5s3.5-1.5 3.5-3.5c0-1-.3-1.6-1-2.5l-.6-.5V233c-.1-1.3-.2-1.8-.4-2.3-.5-1-1.4-1.9-2.3-2.3l-.8-.4h-11.3l-.3-.5c-.2-.2-.2-.5-.2-1v-.8h4c4-.1 4.1-.1 4.8-.4.9-.5 1.7-1.2 2.2-2.1l.4-.7v-4.1c0-3.7 0-4.2.3-4.3.2-.2 1.2-.2 4.3-.2h4.2l.3.4c.4.6 1.4 1.1 2.3 1.2 2 .3 3.8-1.3 3.8-3.4a3.4 3.4 0 0 0-5.8-2.6l-.7.7h-9.3l-.7.5c-.4.2-1 .6-1.3 1-1 1.1-1.1 1.5-1.2 5.9v4c-.1.2-.8.2-3 .2h-3l.6-.3c.8-.4 1.7-1.3 2.1-2.2l.4-.8v-8.3c.1-8 .2-8.2.4-8.4.2-.2.7-.2 1.7-.2 1.3 0 1.4 0 1.7.3.5.6 1.4 1.1 2.4 1.2 1.7.1 3.1-.9 3.6-2.4.2-1 .2-1.2 0-2.1a3.3 3.3 0 0 0-3.4-2.4c-1 0-1.9.3-2.5 1l-.4.5H467c-2.7 0-4.2.8-5.2 2.8l-.5 1v8.2c-.1 7.9-.1 8.2-.4 8.4-.2.1-.8.2-2.7.2h-2.5v-3h.5c1 0 2.1-.7 2.6-1.6a62.1 62.1 0 0 0 .2-11.7 7.1 7.1 0 0 0-4.9-5.6c-.7-.2-1.2-.3-2.4-.2-1.3 0-1.5.1-2.5.6a7 7 0 0 0-3.8 4.5c-.2.8-.3 1.7-.3 6.2 0 5.7 0 6 .7 6.8.4.5 1.5 1 2.2 1h.5v3h-2.5c-2.4 0-2.5 0-2.8-.3-.2-.3-.3-.7-.3-8.6l-.1-8.2-.4-.7c-.4-1-1.4-1.9-2.3-2.3-.7-.4-1-.4-2.6-.4-1.7 0-1.8-.1-2-.4l-1-.8c-1-.6-2.3-.6-3.3 0Z" fill="url(#paint40_linear)" fill-opacity=".2"/>
    <path class="a1" d="M431.3 91.2c-1.6.8-2.3 2.5-1.7 4.3.2.7 1.4 2 2.1 2.2 1.4.3 2.7 0 3.6-.9l.5-.5h1.4c1.3 0 1.5 0 1.7.3.3.2.3.7.4 8.5v8.2l.4.7c.4.9 1.3 1.8 2 2.2l.6.3h-2.8c-2.2 0-2.9 0-3-.2-.1 0-.2-1.6-.2-4.2V108l-.5-.8c-.5-1-1.3-1.6-2.3-2-.7-.3-1-.3-5.2-.3H424l-.5-.5a3.5 3.5 0 0 0-4.2-.7 3.5 3.5 0 0 0 .3 6.3c1.3.6 2.6.3 3.7-.7l.8-.7h4c3.4 0 4 0 4.3.2.3.2.3.3.3 4.1 0 3.6 0 4 .3 4.7.4 1 1.2 1.8 2.2 2.3.7.4.8.4 4.8.5h4.1v.8c0 1.4.4 1.3-6.1 1.4-5.5 0-5.6.1-6.3.4-.9.4-2 1.4-2.3 2.2a7 7 0 0 0-.6 3.2c0 1 0 1-.4 1.4-.3.2-.6.7-.8 1.1-.4.7-.4 1-.3 1.7.2 3.2 4 4.5 6 2.1a3 3 0 0 0 .9-2.3 3 3 0 0 0-1-2.5c-.6-.6-.6-.6-.6-1.7 0-1.9-.4-1.8 5.2-1.8h5.7c1.7-.3 2.8-1 3.7-2.3l.4-.7v7c0 6.5 0 7-.3 7.6-.9 2-3.5 2.1-4.6.3-.3-.5-.3-.8-.3-1.8 0-1.1 0-1.2.4-1.5.3-.2.6-.7.8-1.1 1.2-2.6-1.1-5.5-3.9-5a3.6 3.6 0 0 0-1.6 6.1c.4.4.4.5.4 1.4 0 3 1.4 5.3 3.8 6.4.8.4 1.2.4 2.4.5 1 0 1.5 0 2-.2a6.3 6.3 0 0 0 3.6-2.8c1-1.5 1-1.4 1-11v-8.5h2V138c.5 2 1.9 3.8 3.7 4.7 1 .4 1 .4 2.7.4 1.5 0 1.8 0 2.5-.3a6.4 6.4 0 0 0 3.8-6.1v-1.3l.6-.6c1-1 1.3-2.2.9-3.5-.3-1-.8-1.6-1.7-2-.6-.4-1-.5-1.7-.5-3.1 0-4.6 3.9-2.3 6 .5.5.5.6.5 1.5 0 1.2-.3 2-1 2.5-1.2 1.1-3 .8-3.9-.6l-.3-.6v-14.2l.5.8c.2.4.7 1 1.1 1.2 1.3.8 1.3.8 7.1.9l5.6.1c.5.1.7.7.7 1.8 0 1 0 1-.5 1.5-.8.8-1.1 1.5-1.1 2.6 0 2 1.4 3.5 3.4 3.5s3.5-1.5 3.5-3.5c0-1-.3-1.6-1-2.5l-.6-.5v-1.7c-.1-1.3-.2-1.7-.4-2.3-.5-1-1.4-1.9-2.3-2.3l-.8-.4h-11.3l-.3-.5c-.2-.2-.2-.5-.2-1v-.8h4c4-.1 4.1-.1 4.8-.4.9-.5 1.7-1.2 2.2-2.1l.4-.7V113c0-3.7 0-4.2.3-4.3.2-.2 1.2-.2 4.3-.2h4.2l.3.4c.4.6 1.4 1.2 2.3 1.2 2 .3 3.8-1.3 3.8-3.4a3.4 3.4 0 0 0-5.8-2.6l-.7.7h-9.3l-.7.5c-.4.2-1 .6-1.3 1-1 1.1-1.1 1.5-1.2 5.9v4c-.1.2-.8.2-3 .2h-3l.6-.3c.8-.4 1.7-1.3 2.1-2.2l.4-.8v-8.3c.1-8 .2-8.2.4-8.4.2-.2.7-.2 1.7-.2 1.3 0 1.4 0 1.7.3.5.6 1.4 1.1 2.4 1.2 1.7.1 3.1-.9 3.6-2.4.2-1 .2-1.2 0-2.1a3.3 3.3 0 0 0-3.4-2.4c-1 0-1.9.3-2.5 1l-.4.5H467c-2.7 0-4.2.8-5.2 2.8l-.5 1v8.2c-.1 7.9-.1 8.2-.4 8.4-.2.1-.8.2-2.7.2h-2.5v-3h.5c1 0 2.1-.7 2.6-1.6a62.1 62.1 0 0 0 .2-11.7 7.1 7.1 0 0 0-4.9-5.6c-.7-.2-1.2-.3-2.4-.2-1.3 0-1.5.1-2.5.6a7 7 0 0 0-3.8 4.5c-.2.8-.3 1.7-.3 6.2 0 5.7 0 6 .7 6.8.4.5 1.5 1 2.2 1h.5v3h-2.5c-2.4 0-2.5 0-2.8-.3-.2-.3-.3-.7-.3-8.6l-.1-8.2-.4-.7c-.4-1-1.4-1.9-2.3-2.3-.7-.4-1-.4-2.6-.4-1.7 0-1.8-.1-2-.4l-1-.8c-1-.6-2.3-.6-3.3 0Z" fill="url(#paint41_linear)"/>
    <path class="b9" d="M13.9 141.9c-1.5.8-2.2 2.5-1.7 4.2.2.8 1.4 2 2.2 2.2 1.3.4 2.6 0 3.5-.8l.5-.6H20c1.3 0 1.4 0 1.7.3.2.3.2.7.3 8.6v8.2l.4.7c.5.8 1.3 1.8 2.1 2.2l.6.3H22c-2.1 0-2.9 0-3-.2 0-.1-.2-1.7-.2-4.3v-4.1l-.4-.8c-.6-.9-1.3-1.6-2.3-2-.7-.2-1.1-.2-5.3-.2H6.5L6 155a3.5 3.5 0 1 0-4 5.5c1.3.6 2.6.4 3.8-.7l.8-.7h4c3.3 0 4 0 4.3.3.3.2.3.2.3 4 0 3.6 0 4 .3 4.7.3 1 1.2 1.9 2.1 2.4.7.3.9.3 4.9.4h4v.9c0 1.4.4 1.3-6 1.4-5.6 0-5.7 0-6.4.4-.8.3-1.9 1.4-2.3 2.2a7 7 0 0 0-.6 3.1c0 1 0 1.1-.4 1.4-.2.2-.6.7-.8 1.2-.3.6-.4.9-.3 1.7.2 3.1 4 4.4 6 2a3 3 0 0 0 .9-2.3 3 3 0 0 0-1-2.4c-.6-.6-.6-.6-.6-1.8 0-1.8-.3-1.7 5.2-1.7l5.8-.1c1.6-.2 2.7-1 3.6-2.3l.4-.6v7c0 6.5 0 7-.2 7.5-1 2-3.6 2.2-4.7.3-.3-.5-.3-.7-.3-1.7 0-1.2 0-1.2.4-1.6.3-.2.6-.7.8-1 1.2-2.7-1-5.6-3.9-5a3.5 3.5 0 0 0-1.6 6c.4.5.5.6.5 1.4 0 3 1.4 5.3 3.7 6.4.9.4 1.2.5 2.4.5 1 0 1.5 0 2.1-.2a6.3 6.3 0 0 0 3.6-2.7c1-1.6.9-1.4.9-11v-8.6h2v8.3l.1 9c.4 2 1.8 3.9 3.7 4.7.9.5 1 .5 2.6.5 1.5 0 1.8 0 2.5-.4a6.4 6.4 0 0 0 3.8-6V186l.6-.6c1-1 1.3-2.2 1-3.5-.4-.9-.9-1.5-1.8-2a3.5 3.5 0 0 0-4 5.6c.5.5.5.5.5 1.5 0 1.1-.3 2-1 2.5-1.2 1-3 .8-3.8-.7l-.4-.6v-14.1l.5.7 1.1 1.2c1.3.9 1.4.9 7.2 1H54c.4.2.6.7.6 1.9 0 1 0 1-.5 1.5-.8.7-1.1 1.5-1.1 2.5 0 2 1.4 3.5 3.4 3.5S60 185 60 183c0-1-.3-1.6-1-2.4l-.6-.6v-1.6c-.1-1.3-.2-1.8-.4-2.3-.4-1-1.4-2-2.3-2.4l-.8-.4H43.6l-.3-.4c-.2-.3-.3-.6-.3-1.1v-.8h4c4 0 4.2 0 4.8-.4 1-.4 1.7-1.2 2.2-2l.4-.8v-4c0-3.8.1-4.2.3-4.4.2-.1 1.2-.2 4.4-.2h4.1l.3.5c.4.6 1.4 1.1 2.3 1.2 2 .2 3.8-1.3 3.8-3.4a3.4 3.4 0 0 0-5.8-2.6l-.7.6h-4.6l-4.7.1-.7.4-1.3 1c-1 1.2-1 1.5-1.1 6l-.1 4c0 .1-.8.2-3 .2h-3l.6-.3c.8-.5 1.7-1.4 2.2-2.3l.3-.8.1-8.2c0-8 0-8.3.3-8.5.2-.1.7-.2 1.7-.2 1.4 0 1.4 0 1.7.4.5.6 1.5 1 2.4 1.1 1.7.2 3.1-.8 3.6-2.4.3-.9.3-1.1 0-2a3.3 3.3 0 0 0-3.3-2.5c-1.1 0-2 .4-2.6 1.1l-.4.5h-1.5c-2.7 0-4.2.8-5.2 2.8l-.4 1-.1 8.1c0 8-.1 8.2-.4 8.4-.2.2-.8.2-2.7.2h-2.4v-2.9h.5c1 0 2-.7 2.6-1.7.2-.3.2-1 .2-5.6v-6.1a7.1 7.1 0 0 0-5-5.5c-.7-.2-1.2-.3-2.3-.2-1.3 0-1.6 0-2.5.5a7 7 0 0 0-3.9 4.5c-.2.8-.2 1.7-.2 6.3 0 5.6 0 5.9.6 6.7.4.5 1.5 1 2.2 1h.6v3h-2.6c-2.4 0-2.5 0-2.8-.3-.2-.2-.2-.7-.3-8.5v-8.2l-.4-.8c-.5-.9-1.4-1.8-2.4-2.3-.7-.3-1-.3-2.6-.4-1.7 0-1.8 0-2-.4-.1-.2-.6-.5-1-.7-1-.6-2.2-.6-3.3-.1Z" fill="url(#paint42_linear)" fill-opacity=".5"/>
    <path class="c9" d="M13.9 194.5c-1.5.8-2.2 2.5-1.7 4.3.2.7 1.4 2 2.2 2.2 1.3.3 2.6 0 3.5-.9l.5-.5H20c1.3 0 1.4 0 1.7.3.2.2.2.7.3 8.5v8.2l.4.7c.5.9 1.3 1.8 2.1 2.2l.6.3H22c-2.1 0-2.9 0-3-.2 0 0-.2-1.6-.2-4.2v-4.1l-.4-.8c-.6-1-1.3-1.6-2.3-2-.7-.3-1.1-.3-5.3-.3H6.5l-.4-.5a3.5 3.5 0 1 0-4 5.6c1.3.6 2.6.3 3.8-.7l.8-.7h4c3.3 0 4 0 4.3.2.3.2.3.3.3 4.1 0 3.6 0 4 .3 4.7.3 1 1.2 1.8 2.1 2.3.7.4.9.4 4.9.5h4v.8c0 1.4.4 1.3-6 1.4-5.6 0-5.7.1-6.4.4-.8.4-1.9 1.4-2.3 2.2a7 7 0 0 0-.6 3.2c0 1 0 1-.4 1.4l-.8 1.1c-.3.7-.4 1-.3 1.7.2 3.2 4 4.5 6 2.1a3 3 0 0 0 .9-2.3 3 3 0 0 0-1-2.5c-.6-.6-.6-.6-.6-1.7 0-1.9-.3-1.8 5.2-1.8H26c1.6-.3 2.7-1 3.6-2.3l.4-.7v7c0 6.5 0 7-.2 7.6-1 2-3.6 2.1-4.7.3-.3-.5-.3-.8-.3-1.8 0-1.1 0-1.2.4-1.5.3-.2.6-.7.8-1.1 1.2-2.6-1-5.5-3.9-5a3.6 3.6 0 0 0-1.6 6.1c.4.4.5.5.5 1.4 0 3 1.4 5.3 3.7 6.4.9.4 1.2.4 2.4.5 1 0 1.5 0 2.1-.2a6.3 6.3 0 0 0 3.6-2.8c1-1.5.9-1.4.9-11v-8.5h2v8.3l.1 9c.4 2 1.8 3.8 3.7 4.7.9.4 1 .4 2.6.4 1.5 0 1.8 0 2.5-.3a6.4 6.4 0 0 0 3.8-6.1v-1.3l.6-.6c1-1 1.3-2.2 1-3.5-.4-1-.9-1.6-1.8-2-.6-.4-.9-.5-1.6-.5a3.5 3.5 0 0 0-2.4 6c.5.5.5.6.5 1.5 0 1.2-.3 2-1 2.5-1.2 1.1-3 .8-3.8-.6l-.4-.6v-14.2l.5.8 1.1 1.2c1.3.8 1.4.8 7.2.9l5.6.1c.4.1.6.7.6 1.8 0 1 0 1-.5 1.5-.8.8-1.1 1.5-1.1 2.6 0 2 1.4 3.5 3.4 3.5s3.5-1.5 3.5-3.5c0-1-.3-1.6-1-2.5l-.6-.5V231c-.1-1.3-.2-1.8-.4-2.3-.4-1-1.4-1.9-2.3-2.3l-.8-.4H43.6l-.3-.5c-.2-.2-.3-.5-.3-1v-.8h4c4-.1 4.2-.1 4.8-.4 1-.5 1.7-1.2 2.2-2.1l.4-.7v-4.1c0-3.7.1-4.2.3-4.3.2-.2 1.2-.2 4.4-.2h4.1l.3.4c.4.6 1.4 1.1 2.3 1.2 2 .3 3.8-1.3 3.8-3.4 0-1-.3-2-1.1-2.6a3.4 3.4 0 0 0-4.7 0l-.7.7h-9.3l-.7.5c-.4.2-1 .6-1.3 1-1 1.1-1 1.5-1.1 5.9l-.1 4c0 .2-.8.2-3 .2h-3l.6-.3c.8-.4 1.7-1.3 2.2-2.2l.3-.8.1-8.3c0-8 0-8.2.3-8.4.2-.2.7-.2 1.7-.2 1.4 0 1.4 0 1.7.3.5.6 1.5 1.1 2.4 1.2 1.7.1 3.1-.9 3.6-2.4.3-1 .3-1.2 0-2.1a3.3 3.3 0 0 0-3.3-2.4c-1.1 0-2 .3-2.6 1l-.4.5h-1.5c-2.7 0-4.2.8-5.2 2.8l-.4 1-.1 8.2c0 7.9-.1 8.2-.4 8.4-.2.1-.8.2-2.7.2h-2.4v-3h.5c1 0 2-.7 2.6-1.6.2-.4.2-1.1.2-5.6v-6.2a7.1 7.1 0 0 0-5-5.5c-.7-.2-1.2-.3-2.3-.2-1.3 0-1.6.1-2.5.6a7 7 0 0 0-3.9 4.5c-.2.8-.2 1.7-.2 6.2 0 5.7 0 6 .6 6.8.4.5 1.5 1 2.2 1h.6v3h-2.6c-2.4 0-2.5 0-2.8-.3-.2-.3-.2-.7-.3-8.6v-8.2l-.4-.7c-.5-1-1.4-1.9-2.4-2.3-.7-.4-1-.4-2.6-.4-1.7 0-1.8-.1-2-.4l-1-.8c-1-.6-2.2-.6-3.3 0Z" fill="url(#paint43_linear)" fill-opacity=".2"/>
    <path class="a9" d="M13.9 89.2c-1.5.8-2.2 2.5-1.7 4.3.2.7 1.4 2 2.2 2.2 1.3.3 2.6 0 3.5-.9l.5-.5H20c1.3 0 1.4 0 1.7.3.2.2.2.7.3 8.5v8.2l.4.7c.5.9 1.3 1.8 2.1 2.2l.6.3H22c-2.1 0-2.9 0-3-.2 0 0-.2-1.6-.2-4.2V106l-.4-.8c-.6-1-1.3-1.6-2.3-2-.7-.3-1.1-.3-5.3-.3H6.5l-.4-.5a3.5 3.5 0 1 0-4 5.6c1.3.6 2.6.3 3.8-.7l.8-.7h4c3.3 0 4 0 4.3.2.3.2.3.3.3 4.1 0 3.6 0 4 .3 4.7.3 1 1.2 1.8 2.1 2.3.7.4.9.4 4.9.5h4v.8c0 1.4.4 1.3-6 1.4-5.6 0-5.7.1-6.4.4-.8.4-1.9 1.4-2.3 2.2a7 7 0 0 0-.6 3.2c0 1 0 1-.4 1.4l-.8 1.1c-.3.7-.4 1-.3 1.7.2 3.2 4 4.5 6 2.1a3 3 0 0 0 .9-2.3 3 3 0 0 0-1-2.5c-.6-.6-.6-.6-.6-1.7 0-1.9-.3-1.8 5.2-1.8H26c1.6-.3 2.7-1 3.6-2.3l.4-.7v7c0 6.5 0 7-.2 7.6-1 2-3.6 2.1-4.7.3-.3-.5-.3-.8-.3-1.8 0-1.1 0-1.2.4-1.5.3-.2.6-.7.8-1.1 1.2-2.6-1-5.5-3.9-5a3.6 3.6 0 0 0-1.6 6.1c.4.4.5.5.5 1.4 0 3 1.4 5.3 3.7 6.4.9.4 1.2.4 2.4.5 1 0 1.5 0 2.1-.2a6.3 6.3 0 0 0 3.6-2.8c1-1.5.9-1.4.9-11v-8.5h2v8.3l.1 9c.4 2 1.8 3.8 3.7 4.7.9.4 1 .4 2.6.4 1.5 0 1.8 0 2.5-.3a6.4 6.4 0 0 0 3.8-6.1v-1.3l.6-.6c1-1 1.3-2.2 1-3.5-.4-1-.9-1.6-1.8-2-.6-.4-.9-.5-1.6-.5a3.5 3.5 0 0 0-2.4 6c.5.5.5.6.5 1.5 0 1.2-.3 2-1 2.5-1.2 1.1-3 .8-3.8-.6l-.4-.6v-14.2l.5.8 1.1 1.2c1.3.8 1.4.8 7.2.9l5.6.1c.4.1.6.7.6 1.8 0 1 0 1-.5 1.5-.8.8-1.1 1.5-1.1 2.6 0 2 1.4 3.5 3.4 3.5s3.5-1.5 3.5-3.5c0-1-.3-1.6-1-2.5l-.6-.5v-1.7c-.1-1.3-.2-1.8-.4-2.3-.4-1-1.4-1.9-2.3-2.3l-.8-.4H43.6l-.3-.5c-.2-.2-.3-.5-.3-1v-.8h4c4-.1 4.2-.1 4.8-.4 1-.5 1.7-1.2 2.2-2.1l.4-.7V111c0-3.7.1-4.2.3-4.3.2-.2 1.2-.2 4.4-.2h4.1l.3.4c.4.6 1.4 1.2 2.3 1.2 2 .3 3.8-1.3 3.8-3.4 0-1-.3-2-1.1-2.6a3.4 3.4 0 0 0-4.7 0l-.7.7h-9.3l-.7.5c-.4.2-1 .6-1.3 1-1 1.1-1 1.5-1.1 5.9l-.1 4c0 .2-.8.2-3 .2h-3l.6-.3c.8-.4 1.7-1.3 2.2-2.2l.3-.8.1-8.3c0-8 0-8.2.3-8.4.2-.2.7-.2 1.7-.2 1.4 0 1.4 0 1.7.3.5.6 1.5 1.1 2.4 1.2 1.7.1 3.1-.9 3.6-2.4.3-1 .3-1.2 0-2.1a3.3 3.3 0 0 0-3.3-2.4c-1.1 0-2 .3-2.6 1l-.4.5h-1.5c-2.7 0-4.2.8-5.2 2.8l-.4 1-.1 8.2c0 7.9-.1 8.2-.4 8.4-.2.1-.8.2-2.7.2h-2.4v-3h.5c1 0 2-.7 2.6-1.6.2-.4.2-1.1.2-5.6v-6.2a7.1 7.1 0 0 0-5-5.5c-.7-.2-1.2-.3-2.3-.2-1.3 0-1.6.1-2.5.6A7 7 0 0 0 28 94c-.2.8-.2 1.7-.2 6.2 0 5.7 0 6 .6 6.8.4.5 1.5 1 2.2 1h.6v3h-2.6c-2.4 0-2.5 0-2.8-.3-.2-.3-.2-.7-.3-8.6V94l-.4-.7c-.5-1-1.4-1.9-2.4-2.3-.7-.4-1-.4-2.6-.4-1.7 0-1.8-.1-2-.4l-1-.8c-1-.6-2.2-.6-3.3 0Z" fill="url(#paint44_linear)"/>
  </g>
  <defs>
    <linearGradient id="paint18_linear" x1="173.2" y1="52.6" x2="393.2" y2="52.6" gradientUnits="userSpaceOnUse">
      <stop stop-color="#0B14EC"/>
      <stop offset=".6" stop-color="#00F0FF"/>
    </linearGradient>
    <linearGradient id="paint19_linear" x1="173.2" y1="105.3" x2="393.2" y2="105.3" gradientUnits="userSpaceOnUse">
      <stop stop-color="#0B14EC"/>
      <stop offset=".6" stop-color="#00F0FF"/>
    </linearGradient>
    <linearGradient id="paint20_linear" x1="173.6" y1="0" x2="393.6" y2="0" gradientUnits="userSpaceOnUse">
      <stop stop-color="#0B14EC"/>
      <stop offset=".6" stop-color="#00F0FF"/>
    </linearGradient>
    <linearGradient id="paint21_linear" x1="224" y1="65.1" x2="444" y2="65.1" gradientUnits="userSpaceOnUse">
      <stop stop-color="#0B14EC"/>
      <stop offset=".6" stop-color="#00F0FF"/>
    </linearGradient>
    <linearGradient id="paint22_linear" x1="224" y1="117.7" x2="444" y2="117.7" gradientUnits="userSpaceOnUse">
      <stop stop-color="#0B14EC"/>
      <stop offset=".6" stop-color="#00F0FF"/>
    </linearGradient>
    <linearGradient id="paint23_linear" x1="224" y1="12.4" x2="444" y2="12.4" gradientUnits="userSpaceOnUse">
      <stop stop-color="#0B14EC"/>
      <stop offset=".6" stop-color="#00F0FF"/>
    </linearGradient>
    <linearGradient id="paint24_linear" x1="276.6" y1="91.9" x2="496.6" y2="91.9" gradientUnits="userSpaceOnUse">
      <stop stop-color="#0B14EC"/>
      <stop offset=".6" stop-color="#00F0FF"/>
    </linearGradient>
    <linearGradient id="paint25_linear" x1="276.6" y1="144.5" x2="496.6" y2="144.5" gradientUnits="userSpaceOnUse">
      <stop stop-color="#0B14EC"/>
      <stop offset=".6" stop-color="#00F0FF"/>
    </linearGradient>
    <linearGradient id="paint26_linear" x1="276.6" y1="38.2" x2="496.6" y2="38.2" gradientUnits="userSpaceOnUse">
      <stop stop-color="#0B14EC"/>
      <stop offset=".6" stop-color="#00F0FF"/>
    </linearGradient>
    <linearGradient id="paint27_linear" x1="329.3" y1="117.7" x2="549.3" y2="117.7" gradientUnits="userSpaceOnUse">
      <stop stop-color="#0B14EC"/>
      <stop offset=".6" stop-color="#00F0FF"/>
    </linearGradient>
    <linearGradient id="paint28_linear" x1="329.3" y1="170.4" x2="549.3" y2="170.4" gradientUnits="userSpaceOnUse">
      <stop stop-color="#0B14EC"/>
      <stop offset=".6" stop-color="#00F0FF"/>
    </linearGradient>
    <linearGradient id="paint29_linear" x1="329.3" y1="64.1" x2="549.3" y2="64.1" gradientUnits="userSpaceOnUse">
      <stop stop-color="#0B14EC"/>
      <stop offset=".6" stop-color="#00F0FF"/>
    </linearGradient>
    <linearGradient id="paint30_linear" x1="122.5" y1="66.1" x2="342.5" y2="66.1" gradientUnits="userSpaceOnUse">
      <stop stop-color="#0B14EC"/>
      <stop offset=".6" stop-color="#00F0FF"/>
    </linearGradient>
    <linearGradient id="paint31_linear" x1="122.5" y1="118.7" x2="342.5" y2="118.7" gradientUnits="userSpaceOnUse">
      <stop stop-color="#0B14EC"/>
      <stop offset=".6" stop-color="#00F0FF"/>
    </linearGradient>
    <linearGradient id="paint32_linear" x1="122.5" y1="13.4" x2="342.5" y2="13.4" gradientUnits="userSpaceOnUse">
      <stop stop-color="#0B14EC"/>
      <stop offset=".6" stop-color="#00F0FF"/>
    </linearGradient>
    <linearGradient id="paint33_linear" x1="69.9" y1="89.9" x2="289.9" y2="89.9" gradientUnits="userSpaceOnUse">
      <stop stop-color="#0B14EC"/>
      <stop offset=".6" stop-color="#00F0FF"/>
    </linearGradient>
    <linearGradient id="paint34_linear" x1="69.9" y1="142.5" x2="289.9" y2="142.5" gradientUnits="userSpaceOnUse">
      <stop stop-color="#0B14EC"/>
      <stop offset=".6" stop-color="#00F0FF"/>
    </linearGradient>
    <linearGradient id="paint35_linear" x1="69.9" y1="37.2" x2="289.9" y2="37.2" gradientUnits="userSpaceOnUse">
      <stop stop-color="#0B14EC"/>
      <stop offset=".6" stop-color="#00F0FF"/>
    </linearGradient>
    <linearGradient id="paint36_linear" x1="17.2" y1="117.7" x2="237.2" y2="117.7" gradientUnits="userSpaceOnUse">
      <stop stop-color="#0B14EC"/>
      <stop offset=".6" stop-color="#00F0FF"/>
    </linearGradient>
    <linearGradient id="paint37_linear" x1="17.2" y1="170.3" x2="237.2" y2="170.3" gradientUnits="userSpaceOnUse">
      <stop stop-color="#0B14EC"/>
      <stop offset=".6" stop-color="#00F0FF"/>
    </linearGradient>
    <linearGradient id="paint38_linear" x1="17.2" y1="65.1" x2="237.2" y2="65.1" gradientUnits="userSpaceOnUse">
      <stop stop-color="#0B14EC"/>
      <stop offset=".6" stop-color="#00F0FF"/>
    </linearGradient>
    <linearGradient id="paint39_linear" x1="381.9" y1="143.5" x2="601.9" y2="143.5" gradientUnits="userSpaceOnUse">
      <stop stop-color="#0B14EC"/>
      <stop offset=".6" stop-color="#00F0FF"/>
    </linearGradient>
    <linearGradient id="paint40_linear" x1="381.9" y1="196.2" x2="601.9" y2="196.2" gradientUnits="userSpaceOnUse">
      <stop stop-color="#0B14EC"/>
      <stop offset=".6" stop-color="#00F0FF"/>
    </linearGradient>
    <linearGradient id="paint41_linear" x1="381.9" y1="90.9" x2="601.9" y2="90.9" gradientUnits="userSpaceOnUse">
      <stop stop-color="#0B14EC"/>
      <stop offset=".6" stop-color="#00F0FF"/>
    </linearGradient>
    <linearGradient id="paint42_linear" x1="-35.4" y1="141.5" x2="184.6" y2="141.5" gradientUnits="userSpaceOnUse">
      <stop stop-color="#0B14EC"/>
      <stop offset=".6" stop-color="#00F0FF"/>
    </linearGradient>
    <linearGradient id="paint43_linear" x1="-35.4" y1="194.2" x2="184.6" y2="194.2" gradientUnits="userSpaceOnUse">
      <stop stop-color="#0B14EC"/>
      <stop offset=".6" stop-color="#00F0FF"/>
    </linearGradient>
    <linearGradient id="paint44_linear" x1="-35.4" y1="88.9" x2="184.6" y2="88.9" gradientUnits="userSpaceOnUse">
      <stop stop-color="#0B14EC"/>
      <stop offset=".6" stop-color="#00F0FF"/>
    </linearGradient>
  </defs>
</svg>
