<?xml version="1.0" standalone="no"?>
<!DOCTYPE svg PUBLIC "-//W3C//DTD SVG 20010904//EN"
 "http://www.w3.org/TR/2001/REC-SVG-20010904/DTD/svg10.dtd">
<svg version="1.0" xmlns="http://www.w3.org/2000/svg"
 width="704.000000pt" height="704.000000pt" viewBox="0 0 704.000000 704.000000"
 preserveAspectRatio="xMidYMid meet">
<metadata>
Created by potrace 1.14, written by Peter Selinger 2001-2017
</metadata>
<g transform="translate(0.000000,704.000000) scale(0.100000,-0.100000)"
fill="#000000" stroke="none">
<path d="M3547 6964 c-1 -1 -41 -5 -89 -8 -365 -25 -734 -131 -1017 -292 -45
-25 -245 -155 -251 -163 -3 -3 -25 -22 -50 -41 -212 -163 -447 -445 -595 -715
-38 -69 -118 -228 -117 -232 1 -2 -13 -33 -30 -70 -64 -142 -161 -432 -184
-553 -2 -14 -7 -32 -10 -40 -4 -8 -8 -24 -10 -35 -1 -11 -10 -51 -18 -90 -30
-141 -62 -343 -71 -450 -2 -22 -6 -61 -10 -88 -6 -51 -12 -121 -21 -282 -12
-204 -6 -754 10 -900 3 -22 7 -69 10 -105 11 -131 19 -200 30 -260 3 -14 8
-47 12 -75 3 -27 8 -59 9 -70 19 -109 38 -200 65 -305 17 -69 33 -132 34 -140
8 -33 106 -318 122 -355 10 -22 19 -46 20 -53 4 -24 164 -336 204 -401 22 -34
40 -65 40 -67 0 -3 73 -103 113 -155 95 -126 287 -314 396 -389 20 -14 38 -28
39 -32 2 -5 10 -8 17 -8 7 0 15 -3 17 -8 3 -8 135 -92 145 -92 2 0 17 -9 31
-19 15 -10 30 -19 34 -20 5 -1 41 -16 81 -35 174 -80 433 -155 632 -182 22 -3
54 -7 70 -10 59 -8 222 -17 330 -18 117 0 345 11 367 18 7 3 38 8 68 11 231
28 488 105 710 212 41 20 77 40 78 45 2 4 12 8 22 8 9 0 23 7 30 15 7 8 17 15
22 15 5 0 24 11 42 25 18 14 38 25 44 25 7 0 12 5 12 10 0 6 6 10 14 10 8 0
16 3 18 8 2 4 26 23 53 41 28 19 52 38 55 41 3 3 27 24 55 45 89 72 255 243
338 350 47 59 121 165 130 183 5 12 14 22 19 22 4 0 7 3 6 8 -1 4 11 27 27 52
50 78 160 300 209 423 48 120 105 284 112 321 2 12 8 32 13 46 9 22 38 134 46
178 2 9 4 17 5 17 2 0 3 6 24 105 8 41 18 91 21 110 3 19 10 58 15 85 5 28 12
72 15 98 4 27 8 58 10 69 4 20 16 127 20 188 2 19 6 64 9 100 24 263 25 847 2
1075 -4 45 -18 187 -21 225 -12 130 -69 458 -102 585 -8 33 -16 65 -17 70 -49
220 -209 619 -331 830 -150 257 -359 498 -570 658 -72 54 -105 77 -114 77 -5
0 -11 4 -13 8 -6 15 -170 102 -278 149 -146 63 -338 122 -475 147 -188 35
-324 48 -528 50 -82 1 -149 1 -150 0z m253 -1008 c14 -3 39 -8 55 -11 69 -13
206 -63 216 -78 3 -5 10 -9 15 -9 18 -1 41 -13 99 -51 135 -90 250 -205 346
-348 83 -122 236 -447 218 -462 -3 -4 -277 -202 -334 -243 -11 -8 -45 -32 -75
-54 -70 -51 -78 -57 -180 -129 -47 -34 -94 -68 -105 -76 -26 -20 -230 -167
-273 -197 -18 -13 -39 -28 -45 -33 -12 -11 -247 -180 -332 -240 -24 -16 -53
-38 -66 -48 -13 -9 -64 -47 -114 -82 -49 -36 -98 -72 -108 -80 -9 -8 -20 -15
-23 -15 -2 0 -10 -5 -17 -10 -7 -6 -43 -34 -82 -61 -38 -28 -97 -70 -130 -94
-33 -24 -116 -84 -185 -134 -69 -49 -130 -94 -135 -99 -6 -5 -24 -17 -40 -28
-17 -10 -36 -24 -43 -31 -7 -7 -26 -20 -42 -30 -17 -9 -30 -21 -30 -25 0 -4
-5 -8 -10 -8 -10 0 -22 -8 -55 -38 -8 -7 -15 -12 -16 -10 0 2 -3 14 -6 28 -8
38 -8 495 1 660 11 214 17 282 42 463 6 45 39 225 49 267 3 14 8 34 10 45 3
11 19 67 35 125 17 58 33 112 35 120 3 14 32 90 73 195 21 52 137 280 151 297
6 7 38 50 71 94 165 226 409 381 673 429 68 13 295 13 357 1z m1129 -2163 c10
-304 0 -617 -25 -833 -3 -25 -7 -64 -9 -86 -6 -63 -35 -244 -45 -284 -5 -19
-11 -46 -14 -60 -52 -280 -190 -625 -329 -823 -23 -33 -50 -71 -59 -85 -30
-45 -190 -195 -258 -241 -92 -63 -230 -125 -335 -152 -97 -24 -330 -35 -403
-18 -21 4 -53 11 -72 14 -34 5 -89 20 -120 32 -8 3 -20 7 -26 8 -24 6 -134 61
-194 99 -120 75 -230 183 -326 321 -56 79 -178 319 -188 368 -3 13 -12 38 -27
76 -5 13 -8 25 -7 26 2 2 35 26 73 54 39 28 79 58 90 66 11 9 32 24 48 33 15
9 27 20 27 24 0 4 4 8 10 8 5 0 40 23 77 51 37 27 77 57 88 64 19 14 248 179
290 209 157 114 268 194 285 206 12 8 29 21 38 28 39 29 162 118 183 132 12 8
34 25 49 38 15 12 31 22 34 22 4 0 12 5 19 11 7 5 46 35 87 64 41 30 80 58 85
63 6 4 42 30 80 57 39 27 75 54 81 60 6 5 21 17 33 25 12 8 164 117 337 243
173 125 319 227 324 227 4 0 10 4 12 9 3 9 67 58 78 60 3 1 7 -52 9 -116z"/>
</g>
</svg>
