<svg width="1213" height="424" fill="none" xmlns="http://www.w3.org/2000/svg">
  <mask id="a" fill="#fff">
    <path d="M818.6 142.3c-5.6 2.8-8 9-6.2 15.4.8 2.9 5.1 7.1 8 8 4.7 1.4 9.6.2 12.8-3l2-2h5.2c4.7 0 5.3 0 6.2 1 1 1 1 2.5 1.2 31.1l.3 30 1.3 2.6c1.5 3 4.7 6.4 7.5 8l2 1h-10.3c-7.9 0-10.5-.1-11-.6-.3-.5-.6-6-.7-15.6l-.1-15-1.6-2.8c-1.9-3.4-4.7-6-8.3-7.3-2.6-.9-4-1-19-1h-16.3l-1.5-1.8a12.7 12.7 0 1 0-14.4 20.3c4.6 2.1 9.4 1.2 13.7-2.6l2.9-2.5h14.5c12.3 0 14.7.1 15.7.8 1.1.8 1.1 1 1.1 15 0 13 .1 14.4 1.1 17 1.3 3.4 4.4 6.8 8 8.5 2.5 1.3 2.9 1.3 17.5 1.6l15 .2v3c-.1 5 1.2 4.7-22.4 5-20 .3-20.5.3-23 1.5-3 1.3-7 5-8.5 8a25.8 25.8 0 0 0-2.1 11.5c0 3.6-.1 4-1.5 5.1-.9.8-2.2 2.6-3 4.2a9.2 9.2 0 0 0-1 6.1c.9 11.5 14.5 16.2 22 7.7 2.3-2.7 3-4.8 3-8.5 0-3.8-.7-6-3.5-8.9-2-2.3-2-2.3-2-6.4 0-6.9-1.4-6.4 18.7-6.4 9.4 0 18.8-.1 21-.4 6-.7 10-3.2 13.3-8.3l1.5-2.3v25.6c0 23.6 0 25.6-1 27.5a9.4 9.4 0 0 1-16.7 1.1c-1.1-1.8-1.3-2.8-1.3-6.4 0-4.2 0-4.3 1.6-5.7.9-.7 2.1-2.5 2.8-4 4.4-9.4-4-20-14-17.8a13 13 0 0 0-6 22c1.6 1.4 1.7 1.7 1.7 5 0 10.6 5 19.1 13.7 23.3 3 1.4 4.2 1.6 8.5 1.8 3.7.1 5.6 0 7.7-.7a22.8 22.8 0 0 0 13-10c3.5-5.7 3.4-5.1 3.4-39.9v-31.4h7.2v30.2c0 17.8.2 31.2.6 32.8 1.3 7.3 6.5 14 13.2 17.2 3.4 1.6 3.8 1.6 9.7 1.6 5.6 0 6.4-.1 9-1.3 9-4.3 14-12 14-22.3v-4.6l2.2-2.3c3.5-3.5 4.6-8 3.2-12.7a12 12 0 0 0-6.1-7.4 10 10 0 0 0-6-1.5c-11.5 0-17 14-8.6 21.9 1.8 1.7 1.8 1.9 1.8 5.4 0 4.3-1.1 7.2-3.5 9.2a9.3 9.3 0 0 1-14.3-2.4l-1.2-2.2V260l1.8 2.7c1 1.5 2.8 3.4 4 4.2 4.7 3.2 5 3.2 26.1 3.5 10.6.1 19.8.3 20.4.4 1.6.4 2.3 2.4 2.3 6.6 0 3.6 0 3.8-1.8 5.5-3 2.7-4.1 5.4-4.1 9.3a12 12 0 0 0 12.6 12.6c7.2 0 12.5-5.3 12.5-12.6 0-3.8-.8-5.9-3.8-9l-2-2-.1-6c-.2-4.6-.4-6.4-1.3-8.4a18.8 18.8 0 0 0-8.4-8.5l-2.9-1.4-20.4-.2-20.5-.1-1-1.4c-.8-.9-1-2-1-4v-2.8l14.8-.1c14.1-.2 14.9-.2 17.3-1.4 3.3-1.5 6.2-4.3 8-7.6l1.3-2.5.2-15c.1-13.3.2-15 1-15.7.7-.4 4.4-.6 16-.6h15l1 1.6a13 13 0 0 0 8.4 4.5c7.6.7 14-5 14-12.5 0-4-1.4-7.2-4.2-9.6-5-4.5-12-4.4-17.1.3l-2.4 2.3-17 .1-17 .2-2.6 1.4c-1.4.7-3.6 2.4-4.7 3.7-3.6 4.2-3.9 5.3-4.1 21.4-.1 7.8-.3 14.5-.4 14.9-.2.5-2.8.6-11 .6h-10.7l2.1-1c3-1.7 6.3-5 7.9-8.3l1.4-2.8.2-30c.3-29.2.4-30.2 1.3-31 .7-.5 2.5-.7 6.1-.7 4.9 0 5.2 0 6.1 1.3 1.8 2.3 5.3 4 8.9 4.2 6 .6 11.2-3 13-8.8 1-3.2 1-4.1-.1-7.5a12.1 12.1 0 0 0-12-8.8c-4 0-7 1.3-9.3 4l-1.5 1.7H949c-9.9 0-15.4 3-19 10.2l-1.6 3.5-.3 29.8c-.2 28.8-.3 29.9-1.2 30.6-.8.6-3 .7-10 .7h-8.9v-10.8h1.8c3.6 0 7.6-2.5 9.5-6 .7-1.3.8-4 1-20.3.1-12.6 0-20-.4-22.4a25.9 25.9 0 0 0-17.7-20c-2.8-.9-4.5-1.1-8.7-.9a17 17 0 0 0-9.2 2c-7 3.4-12.1 9.4-14 16.4-.7 3-.9 6.2-.9 22.8 0 20.5 0 21.5 2.4 24.6 1.5 1.9 5.5 3.8 8.1 3.8h1.9v10.8h-9.2c-8.7 0-9.3 0-10.2-1-1-1-1-2.6-1.3-31.2l-.2-30-1.3-2.6a19.3 19.3 0 0 0-8.7-8.4c-2.5-1.2-3.7-1.4-9.4-1.5-6.3-.2-6.6-.3-7.4-1.5-.4-.6-2-1.9-3.5-2.8a12.7 12.7 0 0 0-12.1-.2Z"/>
  </mask>
  <path d="M818.6 142.3c-5.6 2.8-8 9-6.2 15.4.8 2.9 5.1 7.1 8 8 4.7 1.4 9.6.2 12.8-3l2-2h5.2c4.7 0 5.3 0 6.2 1 1 1 1 2.5 1.2 31.1l.3 30 1.3 2.6c1.5 3 4.7 6.4 7.5 8l2 1h-10.3c-7.9 0-10.5-.1-11-.6-.3-.5-.6-6-.7-15.6l-.1-15-1.6-2.8c-1.9-3.4-4.7-6-8.3-7.3-2.6-.9-4-1-19-1h-16.3l-1.5-1.8a12.7 12.7 0 1 0-14.4 20.3c4.6 2.1 9.4 1.2 13.7-2.6l2.9-2.5h14.5c12.3 0 14.7.1 15.7.8 1.1.8 1.1 1 1.1 15 0 13 .1 14.4 1.1 17 1.3 3.4 4.4 6.8 8 8.5 2.5 1.3 2.9 1.3 17.5 1.6l15 .2v3c-.1 5 1.2 4.7-22.4 5-20 .3-20.5.3-23 1.5-3 1.3-7 5-8.5 8a25.8 25.8 0 0 0-2.1 11.5c0 3.6-.1 4-1.5 5.1-.9.8-2.2 2.6-3 4.2a9.2 9.2 0 0 0-1 6.1c.9 11.5 14.5 16.2 22 7.7 2.3-2.7 3-4.8 3-8.5 0-3.8-.7-6-3.5-8.9-2-2.3-2-2.3-2-6.4 0-6.9-1.4-6.4 18.7-6.4 9.4 0 18.8-.1 21-.4 6-.7 10-3.2 13.3-8.3l1.5-2.3v25.6c0 23.6 0 25.6-1 27.5a9.4 9.4 0 0 1-16.7 1.1c-1.1-1.8-1.3-2.8-1.3-6.4 0-4.2 0-4.3 1.6-5.7.9-.7 2.1-2.5 2.8-4 4.4-9.4-4-20-14-17.8a13 13 0 0 0-6 22c1.6 1.4 1.7 1.7 1.7 5 0 10.6 5 19.1 13.7 23.3 3 1.4 4.2 1.6 8.5 1.8 3.7.1 5.6 0 7.7-.7a22.8 22.8 0 0 0 13-10c3.5-5.7 3.4-5.1 3.4-39.9v-31.4h7.2v30.2c0 17.8.2 31.2.6 32.8 1.3 7.3 6.5 14 13.2 17.2 3.4 1.6 3.8 1.6 9.7 1.6 5.6 0 6.4-.1 9-1.3 9-4.3 14-12 14-22.3v-4.6l2.2-2.3c3.5-3.5 4.6-8 3.2-12.7a12 12 0 0 0-6.1-7.4 10 10 0 0 0-6-1.5c-11.5 0-17 14-8.6 21.9 1.8 1.7 1.8 1.9 1.8 5.4 0 4.3-1.1 7.2-3.5 9.2a9.3 9.3 0 0 1-14.3-2.4l-1.2-2.2V260l1.8 2.7c1 1.5 2.8 3.4 4 4.2 4.7 3.2 5 3.2 26.1 3.5 10.6.1 19.8.3 20.4.4 1.6.4 2.3 2.4 2.3 6.6 0 3.6 0 3.8-1.8 5.5-3 2.7-4.1 5.4-4.1 9.3a12 12 0 0 0 12.6 12.6c7.2 0 12.5-5.3 12.5-12.6 0-3.8-.8-5.9-3.8-9l-2-2-.1-6c-.2-4.6-.4-6.4-1.3-8.4a18.8 18.8 0 0 0-8.4-8.5l-2.9-1.4-20.4-.2-20.5-.1-1-1.4c-.8-.9-1-2-1-4v-2.8l14.8-.1c14.1-.2 14.9-.2 17.3-1.4 3.3-1.5 6.2-4.3 8-7.6l1.3-2.5.2-15c.1-13.3.2-15 1-15.7.7-.4 4.4-.6 16-.6h15l1 1.6a13 13 0 0 0 8.4 4.5c7.6.7 14-5 14-12.5 0-4-1.4-7.2-4.2-9.6-5-4.5-12-4.4-17.1.3l-2.4 2.3-17 .1-17 .2-2.6 1.4c-1.4.7-3.6 2.4-4.7 3.7-3.6 4.2-3.9 5.3-4.1 21.4-.1 7.8-.3 14.5-.4 14.9-.2.5-2.8.6-11 .6h-10.7l2.1-1c3-1.7 6.3-5 7.9-8.3l1.4-2.8.2-30c.3-29.2.4-30.2 1.3-31 .7-.5 2.5-.7 6.1-.7 4.9 0 5.2 0 6.1 1.3 1.8 2.3 5.3 4 8.9 4.2 6 .6 11.2-3 13-8.8 1-3.2 1-4.1-.1-7.5a12.1 12.1 0 0 0-12-8.8c-4 0-7 1.3-9.3 4l-1.5 1.7H949c-9.9 0-15.4 3-19 10.2l-1.6 3.5-.3 29.8c-.2 28.8-.3 29.9-1.2 30.6-.8.6-3 .7-10 .7h-8.9v-10.8h1.8c3.6 0 7.6-2.5 9.5-6 .7-1.3.8-4 1-20.3.1-12.6 0-20-.4-22.4a25.9 25.9 0 0 0-17.7-20c-2.8-.9-4.5-1.1-8.7-.9a17 17 0 0 0-9.2 2c-7 3.4-12.1 9.4-14 16.4-.7 3-.9 6.2-.9 22.8 0 20.5 0 21.5 2.4 24.6 1.5 1.9 5.5 3.8 8.1 3.8h1.9v10.8h-9.2c-8.7 0-9.3 0-10.2-1-1-1-1-2.6-1.3-31.2l-.2-30-1.3-2.6a19.3 19.3 0 0 0-8.7-8.4c-2.5-1.2-3.7-1.4-9.4-1.5-6.3-.2-6.6-.3-7.4-1.5-.4-.6-2-1.9-3.5-2.8a12.7 12.7 0 0 0-12.1-.2Z" fill="#0B13CE" fill-opacity=".2" stroke="#0B14EC" stroke-width="6" mask="url(#a)"/>
  <mask id="b" fill="#fff">
    <path d="M966.4 1.4c-5.6 2.8-8 9-6.2 15.4.8 2.8 5.1 7.1 8 8 4.7 1.4 9.6.2 12.8-3l2-2.1h5.2c4.7 0 5.3.1 6.2 1 1 1.1 1 2.6 1.3 31.2l.2 30 1.3 2.6c1.5 3 4.7 6.4 7.5 8l2 1h-10.3c-7.9 0-10.5-.1-11-.7-.3-.4-.6-6-.7-15.5l-.1-15-1.6-2.8c-1.9-3.4-4.7-6-8.3-7.3-2.6-1-4-1-19-1h-16.3l-1.5-1.8a12.7 12.7 0 1 0-14.4 20.3c4.7 2.1 9.4 1.2 13.7-2.6l2.9-2.5h14.5c12.4 0 14.7.1 15.7.8 1.1.8 1.1 1 1.1 15 0 13 .1 14.4 1.1 17 1.3 3.4 4.4 6.7 8 8.5 2.5 1.2 2.9 1.3 17.5 1.5l15 .3v3c-.1 5 1.2 4.7-22.4 5-20 .3-20.5.3-23 1.5-3 1.3-7 5-8.5 8a25.8 25.8 0 0 0-2 11.5c0 3.6-.2 4-1.6 5.1-.9.7-2.2 2.6-3 4.2a9.2 9.2 0 0 0-1 6.1c.9 11.5 14.5 16.2 22 7.7 2.3-2.7 3-4.8 3-8.5 0-3.8-.7-6-3.5-9-2-2.2-2-2.2-2-6.4 0-6.8-1.4-6.4 18.7-6.3 9.4 0 18.8-.2 21-.4 6-.7 10.1-3.2 13.3-8.3l1.5-2.3v25.5c0 23.7 0 25.7-1 27.6a9.4 9.4 0 0 1-16.7 1c-1.1-1.8-1.3-2.7-1.3-6.4 0-4 0-4.2 1.6-5.6.9-.7 2.1-2.5 2.8-4 4.4-9.5-4-20-14-17.8a13 13 0 0 0-6 22c1.6 1.4 1.7 1.7 1.7 5 0 10.6 5 19.1 13.7 23.3 3 1.4 4.2 1.6 8.5 1.8 3.7.1 5.6 0 7.7-.7a22.8 22.8 0 0 0 13-10c3.5-5.8 3.4-5.1 3.4-40V109h7.2v30.1c0 17.9.3 31.3.6 33 1.3 7.1 6.5 13.9 13.2 17 3.4 1.7 3.8 1.7 9.7 1.7 5.6 0 6.4-.1 9-1.3 9-4.3 14-12.1 14-22.3v-4.6l2.2-2.3c3.5-3.5 4.6-8 3.2-12.7a12 12 0 0 0-6-7.4 10 10 0 0 0-6.2-1.5c-11.4 0-16.8 14-8.5 21.9 1.8 1.7 1.8 1.9 1.8 5.4 0 4.3-1.1 7.2-3.5 9.2a9.3 9.3 0 0 1-14.2-2.4l-1.3-2.2V119l1.8 2.6c1 1.5 2.8 3.5 4 4.3 4.7 3.2 5 3.2 26.1 3.5 10.6 0 19.8.3 20.4.4 1.6.4 2.3 2.4 2.3 6.6 0 3.6 0 3.8-1.8 5.5-3 2.7-4 5.4-4 9.3a12 12 0 0 0 12.5 12.6c7.2 0 12.6-5.3 12.6-12.6 0-3.8-1-6-3.9-9l-2-2-.1-6c-.2-4.7-.4-6.5-1.3-8.4a18.8 18.8 0 0 0-8.4-8.5l-2.8-1.4-20.5-.2-20.5-.1-1-1.4c-.8-1-1-2.1-1-4v-2.8l14.8-.2c14.1-.1 14.9-.2 17.3-1.3 3.3-1.5 6.2-4.3 8-7.6l1.3-2.6.2-15c.1-13.3.2-15 1-15.6.7-.4 4.4-.6 16-.6h15l1 1.6a13 13 0 0 0 8.4 4.4c7.6.8 14-4.9 14-12.4 0-4-1.4-7.2-4.2-9.6-5-4.5-12-4.4-17.1.3l-2.4 2.2-17 .2-17 .1-2.6 1.4c-1.4.8-3.6 2.5-4.7 3.8-3.6 4.1-3.9 5.3-4 21.4-.2 7.8-.3 14.5-.5 14.8-.2.6-2.8.7-11 .7h-10.6l2-1c3-1.7 6.3-5 7.9-8.3l1.4-2.8.3-30.1c.2-29 .3-30.2 1.2-30.9.7-.5 2.5-.7 6.1-.7 4.9 0 5.2 0 6.2 1.3 1.7 2.3 5.3 4 8.8 4.2 6 .5 11.2-3 13-8.8 1-3.2 1-4.1-.1-7.5a12.1 12.1 0 0 0-12-8.8c-4 0-7 1.3-9.3 4l-1.5 1.7h-5.4c-10 0-15.4 3-19 10.2l-1.7 3.4-.3 29.9c-.2 28.8-.3 29.9-1.2 30.6-.8.6-3 .7-10 .7h-8.9V69.8h1.8c3.7 0 7.6-2.5 9.5-6 .8-1.3.9-4 1-20.3.1-12.7 0-20-.4-22.4A25.9 25.9 0 0 0 1050 1c-2.8-1-4.5-1.1-8.7-1a17 17 0 0 0-9.2 2.1c-7 3.4-12.1 9.4-14 16.4-.7 3-.8 6.2-.8 22.8-.1 20.5 0 21.5 2.3 24.5 1.5 2 5.5 3.9 8.1 3.9h1.9v10.8h-9.2c-8.7 0-9.3 0-10.2-1-1-1.1-1-2.6-1.2-31.2l-.3-30-1.3-2.6a19.3 19.3 0 0 0-8.7-8.4c-2.5-1.2-3.7-1.4-9.4-1.5-6.3-.2-6.6-.3-7.4-1.5-.4-.6-2-1.9-3.5-2.8a12.7 12.7 0 0 0-12.1-.2Z"/>
  </mask>
  <path d="M966.4 1.4c-5.6 2.8-8 9-6.2 15.4.8 2.8 5.1 7.1 8 8 4.7 1.4 9.6.2 12.8-3l2-2.1h5.2c4.7 0 5.3.1 6.2 1 1 1.1 1 2.6 1.3 31.2l.2 30 1.3 2.6c1.5 3 4.7 6.4 7.5 8l2 1h-10.3c-7.9 0-10.5-.1-11-.7-.3-.4-.6-6-.7-15.5l-.1-15-1.6-2.8c-1.9-3.4-4.7-6-8.3-7.3-2.6-1-4-1-19-1h-16.3l-1.5-1.8a12.7 12.7 0 1 0-14.4 20.3c4.7 2.1 9.4 1.2 13.7-2.6l2.9-2.5h14.5c12.4 0 14.7.1 15.7.8 1.1.8 1.1 1 1.1 15 0 13 .1 14.4 1.1 17 1.3 3.4 4.4 6.7 8 8.5 2.5 1.2 2.9 1.3 17.5 1.5l15 .3v3c-.1 5 1.2 4.7-22.4 5-20 .3-20.5.3-23 1.5-3 1.3-7 5-8.5 8a25.8 25.8 0 0 0-2 11.5c0 3.6-.2 4-1.6 5.1-.9.7-2.2 2.6-3 4.2a9.2 9.2 0 0 0-1 6.1c.9 11.5 14.5 16.2 22 7.7 2.3-2.7 3-4.8 3-8.5 0-3.8-.7-6-3.5-9-2-2.2-2-2.2-2-6.4 0-6.8-1.4-6.4 18.7-6.3 9.4 0 18.8-.2 21-.4 6-.7 10.1-3.2 13.3-8.3l1.5-2.3v25.5c0 23.7 0 25.7-1 27.6a9.4 9.4 0 0 1-16.7 1c-1.1-1.8-1.3-2.7-1.3-6.4 0-4 0-4.2 1.6-5.6.9-.7 2.1-2.5 2.8-4 4.4-9.5-4-20-14-17.8a13 13 0 0 0-6 22c1.6 1.4 1.7 1.7 1.7 5 0 10.6 5 19.1 13.7 23.3 3 1.4 4.2 1.6 8.5 1.8 3.7.1 5.6 0 7.7-.7a22.8 22.8 0 0 0 13-10c3.5-5.8 3.4-5.1 3.4-40V109h7.2v30.1c0 17.9.3 31.3.6 33 1.3 7.1 6.5 13.9 13.2 17 3.4 1.7 3.8 1.7 9.7 1.7 5.6 0 6.4-.1 9-1.3 9-4.3 14-12.1 14-22.3v-4.6l2.2-2.3c3.5-3.5 4.6-8 3.2-12.7a12 12 0 0 0-6-7.4 10 10 0 0 0-6.2-1.5c-11.4 0-16.8 14-8.5 21.9 1.8 1.7 1.8 1.9 1.8 5.4 0 4.3-1.1 7.2-3.5 9.2a9.3 9.3 0 0 1-14.2-2.4l-1.3-2.2V119l1.8 2.6c1 1.5 2.8 3.5 4 4.3 4.7 3.2 5 3.2 26.1 3.5 10.6 0 19.8.3 20.4.4 1.6.4 2.3 2.4 2.3 6.6 0 3.6 0 3.8-1.8 5.5-3 2.7-4 5.4-4 9.3a12 12 0 0 0 12.5 12.6c7.2 0 12.6-5.3 12.6-12.6 0-3.8-1-6-3.9-9l-2-2-.1-6c-.2-4.7-.4-6.5-1.3-8.4a18.8 18.8 0 0 0-8.4-8.5l-2.8-1.4-20.5-.2-20.5-.1-1-1.4c-.8-1-1-2.1-1-4v-2.8l14.8-.2c14.1-.1 14.9-.2 17.3-1.3 3.3-1.5 6.2-4.3 8-7.6l1.3-2.6.2-15c.1-13.3.2-15 1-15.6.7-.4 4.4-.6 16-.6h15l1 1.6a13 13 0 0 0 8.4 4.4c7.6.8 14-4.9 14-12.4 0-4-1.4-7.2-4.2-9.6-5-4.5-12-4.4-17.1.3l-2.4 2.2-17 .2-17 .1-2.6 1.4c-1.4.8-3.6 2.5-4.7 3.8-3.6 4.1-3.9 5.3-4 21.4-.2 7.8-.3 14.5-.5 14.8-.2.6-2.8.7-11 .7h-10.6l2-1c3-1.7 6.3-5 7.9-8.3l1.4-2.8.3-30.1c.2-29 .3-30.2 1.2-30.9.7-.5 2.5-.7 6.1-.7 4.9 0 5.2 0 6.2 1.3 1.7 2.3 5.3 4 8.8 4.2 6 .5 11.2-3 13-8.8 1-3.2 1-4.1-.1-7.5a12.1 12.1 0 0 0-12-8.8c-4 0-7 1.3-9.3 4l-1.5 1.7h-5.4c-10 0-15.4 3-19 10.2l-1.7 3.4-.3 29.9c-.2 28.8-.3 29.9-1.2 30.6-.8.6-3 .7-10 .7h-8.9V69.8h1.8c3.7 0 7.6-2.5 9.5-6 .8-1.3.9-4 1-20.3.1-12.7 0-20-.4-22.4A25.9 25.9 0 0 0 1050 1c-2.8-1-4.5-1.1-8.7-1a17 17 0 0 0-9.2 2.1c-7 3.4-12.1 9.4-14 16.4-.7 3-.8 6.2-.8 22.8-.1 20.5 0 21.5 2.3 24.5 1.5 2 5.5 3.9 8.1 3.9h1.9v10.8h-9.2c-8.7 0-9.3 0-10.2-1-1-1.1-1-2.6-1.2-31.2l-.3-30-1.3-2.6a19.3 19.3 0 0 0-8.7-8.4c-2.5-1.2-3.7-1.4-9.4-1.5-6.3-.2-6.6-.3-7.4-1.5-.4-.6-2-1.9-3.5-2.8a12.7 12.7 0 0 0-12.1-.2Z" fill="#0400C6" fill-opacity=".2" stroke="#0B14EC" stroke-width="6" mask="url(#b)"/>
  <mask id="c" fill="#fff">
    <path d="M1009.6 234.4c-5.6 2.8-8 9-6.2 15.4.8 2.8 5.1 7.1 8 8 4.7 1.3 9.6.2 12.8-3l2-2.1h5.2c4.7 0 5.3 0 6.2 1 1 1.1 1 2.6 1.3 31.2l.2 30 1.3 2.6c1.5 3 4.7 6.4 7.5 8l2 1h-10.3c-7.8 0-10.5-.2-11-.7-.3-.4-.5-6-.7-15.6l-.1-15-1.6-2.7c-1.9-3.4-4.7-6-8.3-7.3-2.6-1-4-1-19-1h-16.3l-1.4-1.8a12.7 12.7 0 1 0-14.5 20.3c4.7 2.1 9.4 1.2 13.7-2.6l2.9-2.5h14.5c12.4 0 14.7 0 15.7.8 1.1.8 1.1.9 1.1 15 0 13 .1 14.3 1.1 17 1.3 3.4 4.4 6.7 8 8.5 2.5 1.2 2.9 1.3 17.5 1.5l15 .3v3c-.1 5 1.2 4.7-22.4 5-20 .2-20.5.3-23 1.4-3 1.4-7 5-8.5 8.1a25.8 25.8 0 0 0-2 11.5c0 3.6-.2 4-1.6 5.1-.8.7-2.1 2.6-3 4.1a9.2 9.2 0 0 0-1 6.2c.9 11.4 14.5 16.2 22 7.7 2.3-2.7 3.1-4.8 3.1-8.5 0-3.9-.8-6-3.5-9-2.2-2.2-2.2-2.2-2.2-6.4 0-6.8-1.3-6.4 18.8-6.3 9.4 0 18.8-.2 21-.4 6-.7 10.1-3.2 13.4-8.3l1.5-2.3V377c0 23.7-.1 25.7-1 27.6a9.4 9.4 0 0 1-16.8 1c-1.1-1.8-1.3-2.8-1.3-6.4 0-4.1 0-4.3 1.6-5.6 1-.7 2.2-2.5 2.8-4 4.4-9.5-3.9-20-14-17.8a13 13 0 0 0-6 21.9c1.6 1.4 1.7 1.8 1.7 5 0 10.7 5 19.2 13.7 23.3 3 1.4 4.3 1.7 8.5 1.8 3.7.2 5.6 0 7.8-.6a22.8 22.8 0 0 0 13-10c3.4-5.8 3.4-5.1 3.4-40V342h7.2V372c0 17.9.2 31.3.5 32.9 1.3 7.2 6.5 14 13.2 17.1 3.4 1.6 3.8 1.7 9.7 1.7 5.6 0 6.5-.2 9-1.4 9-4.2 14-12 14-22.2v-4.6l2.3-2.3c3.5-3.5 4.5-8 3.1-12.7a12 12 0 0 0-6-7.4 10 10 0 0 0-6.2-1.5c-11.4 0-16.8 14-8.5 21.8 1.8 1.8 1.8 2 1.8 5.5 0 4.2-1 7.1-3.5 9.2a9.3 9.3 0 0 1-14.2-2.4l-1.3-2.2V352l1.8 2.7c1 1.5 2.8 3.4 4.1 4.3 4.6 3.2 4.9 3.2 26 3.5 10.6 0 19.8.3 20.4.4 1.6.3 2.3 2.4 2.3 6.6 0 3.6 0 3.8-1.8 5.5-2.9 2.7-4 5.4-4 9.3a12 12 0 0 0 12.5 12.6c7.3 0 12.6-5.3 12.6-12.6 0-3.9-1-6-3.8-9l-2-2-.2-6c-.2-4.7-.4-6.5-1.3-8.4a18.8 18.8 0 0 0-8.3-8.5l-3-1.5-20.4-.1-20.4-.2-1.1-1.3c-.7-1-1-2.1-1-4v-2.8l14.8-.2c14.2-.1 14.9-.2 17.4-1.3 3.2-1.5 6-4.3 7.8-7.6l1.4-2.6.2-15c.1-13.3.2-15 1-15.6.7-.5 4.4-.6 16-.6h15l1 1.6a13 13 0 0 0 8.5 4.4c7.5.8 13.9-4.9 13.9-12.4 0-4-1.4-7.2-4.1-9.7-5-4.5-12.2-4.3-17.2.4l-2.4 2.2-17 .2-17 .1-2.6 1.4c-1.4.8-3.6 2.5-4.7 3.8-3.6 4.1-3.9 5.3-4 21.4a244 244 0 0 1-.5 14.8c-.1.5-2.8.7-11 .7h-10.6l2-1c3-1.7 6.3-5.1 8-8.3l1.3-2.8.3-30.1c.2-29 .3-30.2 1.2-30.9.7-.5 2.5-.7 6.1-.7 4.9 0 5.2 0 6.2 1.3 1.7 2.2 5.3 4 8.8 4.2 6 .5 11.3-3 13-8.8 1-3.2 1-4.2 0-7.5a12.1 12.1 0 0 0-12.1-8.8c-4 0-7 1.3-9.3 3.9l-1.5 1.7h-5.4c-10 0-15.4 3-19 10.3l-1.7 3.4-.2 29.9c-.3 28.8-.4 29.8-1.3 30.6-.8.5-3 .7-10 .7h-8.8v-10.9h1.8c3.6 0 7.5-2.4 9.4-5.9.8-1.3.9-4 1-20.3.1-12.7 0-20-.4-22.4a25.8 25.8 0 0 0-17.7-20.1c-2.8-.8-4.5-1-8.7-.8a17 17 0 0 0-9.1 2c-7 3.3-12.2 9.4-14 16.4-.8 3-1 6.2-1 22.8 0 20.5.1 21.4 2.4 24.5 1.5 2 5.5 3.8 8.1 3.8h1.9v10.9h-9.2c-8.7 0-9.3 0-10.2-1.1-1-1-1-2.5-1.2-31.1l-.3-30-1.3-2.6a19.2 19.2 0 0 0-8.6-8.4c-2.6-1.2-3.7-1.4-9.5-1.6-6.2-.2-6.6-.2-7.4-1.4-.4-.7-2-2-3.5-2.8a12.7 12.7 0 0 0-12.1-.2Z"/>
  </mask>
  <path d="M1009.6 234.4c-5.6 2.8-8 9-6.2 15.4.8 2.8 5.1 7.1 8 8 4.7 1.3 9.6.2 12.8-3l2-2.1h5.2c4.7 0 5.3 0 6.2 1 1 1.1 1 2.6 1.3 31.2l.2 30 1.3 2.6c1.5 3 4.7 6.4 7.5 8l2 1h-10.3c-7.8 0-10.5-.2-11-.7-.3-.4-.5-6-.7-15.6l-.1-15-1.6-2.7c-1.9-3.4-4.7-6-8.3-7.3-2.6-1-4-1-19-1h-16.3l-1.4-1.8a12.7 12.7 0 1 0-14.5 20.3c4.7 2.1 9.4 1.2 13.7-2.6l2.9-2.5h14.5c12.4 0 14.7 0 15.7.8 1.1.8 1.1.9 1.1 15 0 13 .1 14.3 1.1 17 1.3 3.4 4.4 6.7 8 8.5 2.5 1.2 2.9 1.3 17.5 1.5l15 .3v3c-.1 5 1.2 4.7-22.4 5-20 .2-20.5.3-23 1.4-3 1.4-7 5-8.5 8.1a25.8 25.8 0 0 0-2 11.5c0 3.6-.2 4-1.6 5.1-.8.7-2.1 2.6-3 4.1a9.2 9.2 0 0 0-1 6.2c.9 11.4 14.5 16.2 22 7.7 2.3-2.7 3.1-4.8 3.1-8.5 0-3.9-.8-6-3.5-9-2.2-2.2-2.2-2.2-2.2-6.4 0-6.8-1.3-6.4 18.8-6.3 9.4 0 18.8-.2 21-.4 6-.7 10.1-3.2 13.4-8.3l1.5-2.3V377c0 23.7-.1 25.7-1 27.6a9.4 9.4 0 0 1-16.8 1c-1.1-1.8-1.3-2.8-1.3-6.4 0-4.1 0-4.3 1.6-5.6 1-.7 2.2-2.5 2.8-4 4.4-9.5-3.9-20-14-17.8a13 13 0 0 0-6 21.9c1.6 1.4 1.7 1.8 1.7 5 0 10.7 5 19.2 13.7 23.3 3 1.4 4.3 1.7 8.5 1.8 3.7.2 5.6 0 7.8-.6a22.8 22.8 0 0 0 13-10c3.4-5.8 3.4-5.1 3.4-40V342h7.2V372c0 17.9.2 31.3.5 32.9 1.3 7.2 6.5 14 13.2 17.1 3.4 1.6 3.8 1.7 9.7 1.7 5.6 0 6.5-.2 9-1.4 9-4.2 14-12 14-22.2v-4.6l2.3-2.3c3.5-3.5 4.5-8 3.1-12.7a12 12 0 0 0-6-7.4 10 10 0 0 0-6.2-1.5c-11.4 0-16.8 14-8.5 21.8 1.8 1.8 1.8 2 1.8 5.5 0 4.2-1 7.1-3.5 9.2a9.3 9.3 0 0 1-14.2-2.4l-1.3-2.2V352l1.8 2.7c1 1.5 2.8 3.4 4.1 4.3 4.6 3.2 4.9 3.2 26 3.5 10.6 0 19.8.3 20.4.4 1.6.3 2.3 2.4 2.3 6.6 0 3.6 0 3.8-1.8 5.5-2.9 2.7-4 5.4-4 9.3a12 12 0 0 0 12.5 12.6c7.3 0 12.6-5.3 12.6-12.6 0-3.9-1-6-3.8-9l-2-2-.2-6c-.2-4.7-.4-6.5-1.3-8.4a18.8 18.8 0 0 0-8.3-8.5l-3-1.5-20.4-.1-20.4-.2-1.1-1.3c-.7-1-1-2.1-1-4v-2.8l14.8-.2c14.2-.1 14.9-.2 17.4-1.3 3.2-1.5 6-4.3 7.8-7.6l1.4-2.6.2-15c.1-13.3.2-15 1-15.6.7-.5 4.4-.6 16-.6h15l1 1.6a13 13 0 0 0 8.5 4.4c7.5.8 13.9-4.9 13.9-12.4 0-4-1.4-7.2-4.1-9.7-5-4.5-12.2-4.3-17.2.4l-2.4 2.2-17 .2-17 .1-2.6 1.4c-1.4.8-3.6 2.5-4.7 3.8-3.6 4.1-3.9 5.3-4 21.4a244 244 0 0 1-.5 14.8c-.1.5-2.8.7-11 .7h-10.6l2-1c3-1.7 6.3-5.1 8-8.3l1.3-2.8.3-30.1c.2-29 .3-30.2 1.2-30.9.7-.5 2.5-.7 6.1-.7 4.9 0 5.2 0 6.2 1.3 1.7 2.2 5.3 4 8.8 4.2 6 .5 11.3-3 13-8.8 1-3.2 1-4.2 0-7.5a12.1 12.1 0 0 0-12.1-8.8c-4 0-7 1.3-9.3 3.9l-1.5 1.7h-5.4c-10 0-15.4 3-19 10.3l-1.7 3.4-.2 29.9c-.3 28.8-.4 29.8-1.3 30.6-.8.5-3 .7-10 .7h-8.8v-10.9h1.8c3.6 0 7.5-2.4 9.4-5.9.8-1.3.9-4 1-20.3.1-12.7 0-20-.4-22.4a25.8 25.8 0 0 0-17.7-20.1c-2.8-.8-4.5-1-8.7-.8a17 17 0 0 0-9.1 2c-7 3.3-12.2 9.4-14 16.4-.8 3-1 6.2-1 22.8 0 20.5.1 21.4 2.4 24.5 1.5 2 5.5 3.8 8.1 3.8h1.9v10.9h-9.2c-8.7 0-9.3 0-10.2-1.1-1-1-1-2.5-1.2-31.1l-.3-30-1.3-2.6a19.2 19.2 0 0 0-8.6-8.4c-2.6-1.2-3.7-1.4-9.5-1.6-6.2-.2-6.6-.2-7.4-1.4-.4-.7-2-2-3.5-2.8a12.7 12.7 0 0 0-12.1-.2Z" fill="#0B14EC" fill-opacity=".2" stroke="#0B14EC" stroke-width="6" mask="url(#c)"/>
  <mask id="d" fill="#fff">
    <path d="M50.6 142.3c-5.6 2.8-8 9-6.2 15.4.8 2.9 5.1 7.1 8 8 4.7 1.4 9.6.2 12.8-3l2-2h5.2c4.7 0 5.3 0 6.2 1 1 1 1 2.5 1.2 31.1l.3 30 1.3 2.6c1.5 3 4.7 6.4 7.5 8l2 1H80.6c-7.9 0-10.5-.1-11-.6-.3-.5-.6-6-.7-15.6l-.1-15-1.6-2.8c-1.9-3.4-4.7-6-8.3-7.3-2.6-.9-4-1-19-1H23.6l-1.5-1.8a12.7 12.7 0 1 0-14.4 20.3c4.6 2.1 9.4 1.2 13.7-2.6l2.8-2.5h14.6c12.3 0 14.7.1 15.7.8 1.1.8 1.1 1 1.1 15 0 13 .1 14.4 1.1 17 1.3 3.4 4.4 6.8 8 8.5 2.5 1.3 2.9 1.3 17.5 1.6l15 .2v3c-.1 5 1.2 4.7-22.4 5-20 .3-20.5.3-23 1.5-3 1.3-7 5-8.5 8a25.8 25.8 0 0 0-2.1 11.5c0 3.6-.1 4-1.5 5.1-.9.8-2.2 2.6-3 4.2a9.2 9.2 0 0 0-1 6.1c.9 11.5 14.5 16.2 22 7.7 2.3-2.7 3-4.8 3-8.5 0-3.8-.7-6-3.5-8.9-2-2.3-2-2.3-2-6.4 0-6.9-1.4-6.4 18.7-6.4 9.4 0 18.8-.1 21-.4 6-.7 10-3.2 13.3-8.3l1.5-2.3v25.6c0 23.6 0 25.6-1 27.5a9.4 9.4 0 0 1-16.7 1.1c-1.1-1.8-1.3-2.8-1.3-6.4 0-4.2 0-4.3 1.6-5.7.9-.7 2.1-2.5 2.8-4 4.4-9.4-4-20-14-17.8a13 13 0 0 0-6 22c1.6 1.4 1.7 1.7 1.7 5 0 10.6 5 19.1 13.7 23.3 3 1.4 4.2 1.6 8.5 1.8 3.7.1 5.6 0 7.7-.7a22.8 22.8 0 0 0 13-10c3.5-5.7 3.4-5.1 3.4-39.9v-31.4h7.2v30.2c0 17.8.2 31.2.6 32.8 1.3 7.3 6.5 14 13.2 17.2 3.4 1.6 3.8 1.6 9.7 1.6 5.6 0 6.4-.1 9-1.3 9-4.3 14-12 14-22.3v-4.6l2.2-2.3c3.5-3.5 4.6-8 3.2-12.7a12 12 0 0 0-6.1-7.4 10 10 0 0 0-6-1.5c-11.5 0-17 14-8.6 21.9 1.8 1.7 1.8 1.9 1.8 5.4 0 4.3-1.1 7.2-3.5 9.2a9.3 9.3 0 0 1-14.3-2.4l-1.2-2.2V260l1.8 2.7c1 1.5 2.8 3.4 4 4.2 4.7 3.2 5 3.2 26.1 3.5 10.6.1 19.8.3 20.4.4 1.6.4 2.3 2.4 2.3 6.6 0 3.6 0 3.8-1.8 5.5-3 2.7-4.1 5.4-4.1 9.3a12 12 0 0 0 12.6 12.6c7.2 0 12.5-5.3 12.5-12.6 0-3.8-.8-5.9-3.8-9l-2-2-.1-6c-.2-4.6-.4-6.4-1.3-8.4a18.8 18.8 0 0 0-8.4-8.5l-2.9-1.4-20.4-.2-20.5-.1-1-1.4c-.8-.9-1-2-1-4v-2.8l14.8-.1c14.1-.2 14.9-.2 17.3-1.4 3.3-1.5 6.2-4.3 8-7.6l1.3-2.5.2-15c.1-13.3.2-15 1-15.7.7-.4 4.4-.6 16-.6h15l1 1.6a13 13 0 0 0 8.4 4.5c7.6.7 14-5 14-12.5 0-4-1.4-7.2-4.2-9.6-5-4.5-12-4.4-17.1.3l-2.4 2.3-17 .1-17 .2-2.6 1.4c-1.4.7-3.6 2.4-4.7 3.7-3.6 4.2-3.9 5.3-4.1 21.4-.1 7.8-.3 14.5-.4 14.9-.2.5-2.8.6-11 .6h-10.7l2.1-1c3-1.7 6.3-5 7.9-8.3l1.4-2.8.2-30c.3-29.2.4-30.2 1.3-31 .7-.5 2.5-.7 6.1-.7 4.9 0 5.2 0 6.1 1.3 1.8 2.3 5.3 4 8.9 4.2 6 .6 11.2-3 13-8.8 1-3.2 1-4.1-.1-7.5a12.1 12.1 0 0 0-12-8.8c-4 0-7 1.3-9.3 4l-1.5 1.7h-5.4c-10 0-15.5 3-19 10.2l-1.7 3.5-.3 29.8c-.2 28.8-.3 29.9-1.2 30.6-.8.6-3 .7-10 .7h-8.9v-10.8h1.8c3.6 0 7.6-2.5 9.5-6 .7-1.3.8-4 1-20.3.1-12.6 0-20-.4-22.4a25.9 25.9 0 0 0-17.7-20c-2.8-.9-4.5-1.1-8.7-.9a17 17 0 0 0-9.2 2c-7 3.4-12.1 9.4-14 16.4-.7 3-.9 6.2-.9 22.8 0 20.5 0 21.5 2.4 24.6 1.5 1.9 5.5 3.8 8.1 3.8h1.9v10.8h-9.2c-8.7 0-9.3 0-10.2-1-1-1-1-2.6-1.3-31.2l-.2-30-1.3-2.6a19.3 19.3 0 0 0-8.7-8.4c-2.5-1.2-3.7-1.4-9.4-1.5-6.3-.2-6.6-.3-7.4-1.5-.4-.6-2-1.9-3.5-2.8a12.7 12.7 0 0 0-12.1-.2Z"/>
  </mask>
  <path d="M50.6 142.3c-5.6 2.8-8 9-6.2 15.4.8 2.9 5.1 7.1 8 8 4.7 1.4 9.6.2 12.8-3l2-2h5.2c4.7 0 5.3 0 6.2 1 1 1 1 2.5 1.2 31.1l.3 30 1.3 2.6c1.5 3 4.7 6.4 7.5 8l2 1H80.6c-7.9 0-10.5-.1-11-.6-.3-.5-.6-6-.7-15.6l-.1-15-1.6-2.8c-1.9-3.4-4.7-6-8.3-7.3-2.6-.9-4-1-19-1H23.6l-1.5-1.8a12.7 12.7 0 1 0-14.4 20.3c4.6 2.1 9.4 1.2 13.7-2.6l2.8-2.5h14.6c12.3 0 14.7.1 15.7.8 1.1.8 1.1 1 1.1 15 0 13 .1 14.4 1.1 17 1.3 3.4 4.4 6.8 8 8.5 2.5 1.3 2.9 1.3 17.5 1.6l15 .2v3c-.1 5 1.2 4.7-22.4 5-20 .3-20.5.3-23 1.5-3 1.3-7 5-8.5 8a25.8 25.8 0 0 0-2.1 11.5c0 3.6-.1 4-1.5 5.1-.9.8-2.2 2.6-3 4.2a9.2 9.2 0 0 0-1 6.1c.9 11.5 14.5 16.2 22 7.7 2.3-2.7 3-4.8 3-8.5 0-3.8-.7-6-3.5-8.9-2-2.3-2-2.3-2-6.4 0-6.9-1.4-6.4 18.7-6.4 9.4 0 18.8-.1 21-.4 6-.7 10-3.2 13.3-8.3l1.5-2.3v25.6c0 23.6 0 25.6-1 27.5a9.4 9.4 0 0 1-16.7 1.1c-1.1-1.8-1.3-2.8-1.3-6.4 0-4.2 0-4.3 1.6-5.7.9-.7 2.1-2.5 2.8-4 4.4-9.4-4-20-14-17.8a13 13 0 0 0-6 22c1.6 1.4 1.7 1.7 1.7 5 0 10.6 5 19.1 13.7 23.3 3 1.4 4.2 1.6 8.5 1.8 3.7.1 5.6 0 7.7-.7a22.8 22.8 0 0 0 13-10c3.5-5.7 3.4-5.1 3.4-39.9v-31.4h7.2v30.2c0 17.8.2 31.2.6 32.8 1.3 7.3 6.5 14 13.2 17.2 3.4 1.6 3.8 1.6 9.7 1.6 5.6 0 6.4-.1 9-1.3 9-4.3 14-12 14-22.3v-4.6l2.2-2.3c3.5-3.5 4.6-8 3.2-12.7a12 12 0 0 0-6.1-7.4 10 10 0 0 0-6-1.5c-11.5 0-17 14-8.6 21.9 1.8 1.7 1.8 1.9 1.8 5.4 0 4.3-1.1 7.2-3.5 9.2a9.3 9.3 0 0 1-14.3-2.4l-1.2-2.2V260l1.8 2.7c1 1.5 2.8 3.4 4 4.2 4.7 3.2 5 3.2 26.1 3.5 10.6.1 19.8.3 20.4.4 1.6.4 2.3 2.4 2.3 6.6 0 3.6 0 3.8-1.8 5.5-3 2.7-4.1 5.4-4.1 9.3a12 12 0 0 0 12.6 12.6c7.2 0 12.5-5.3 12.5-12.6 0-3.8-.8-5.9-3.8-9l-2-2-.1-6c-.2-4.6-.4-6.4-1.3-8.4a18.8 18.8 0 0 0-8.4-8.5l-2.9-1.4-20.4-.2-20.5-.1-1-1.4c-.8-.9-1-2-1-4v-2.8l14.8-.1c14.1-.2 14.9-.2 17.3-1.4 3.3-1.5 6.2-4.3 8-7.6l1.3-2.5.2-15c.1-13.3.2-15 1-15.7.7-.4 4.4-.6 16-.6h15l1 1.6a13 13 0 0 0 8.4 4.5c7.6.7 14-5 14-12.5 0-4-1.4-7.2-4.2-9.6-5-4.5-12-4.4-17.1.3l-2.4 2.3-17 .1-17 .2-2.6 1.4c-1.4.7-3.6 2.4-4.7 3.7-3.6 4.2-3.9 5.3-4.1 21.4-.1 7.8-.3 14.5-.4 14.9-.2.5-2.8.6-11 .6h-10.7l2.1-1c3-1.7 6.3-5 7.9-8.3l1.4-2.8.2-30c.3-29.2.4-30.2 1.3-31 .7-.5 2.5-.7 6.1-.7 4.9 0 5.2 0 6.1 1.3 1.8 2.3 5.3 4 8.9 4.2 6 .6 11.2-3 13-8.8 1-3.2 1-4.1-.1-7.5a12.1 12.1 0 0 0-12-8.8c-4 0-7 1.3-9.3 4l-1.5 1.7h-5.4c-10 0-15.5 3-19 10.2l-1.7 3.5-.3 29.8c-.2 28.8-.3 29.9-1.2 30.6-.8.6-3 .7-10 .7h-8.9v-10.8h1.8c3.6 0 7.6-2.5 9.5-6 .7-1.3.8-4 1-20.3.1-12.6 0-20-.4-22.4a25.9 25.9 0 0 0-17.7-20c-2.8-.9-4.5-1.1-8.7-.9a17 17 0 0 0-9.2 2c-7 3.4-12.1 9.4-14 16.4-.7 3-.9 6.2-.9 22.8 0 20.5 0 21.5 2.4 24.6 1.5 1.9 5.5 3.8 8.1 3.8h1.9v10.8h-9.2c-8.7 0-9.3 0-10.2-1-1-1-1-2.6-1.3-31.2l-.2-30-1.3-2.6a19.3 19.3 0 0 0-8.7-8.4c-2.5-1.2-3.7-1.4-9.4-1.5-6.3-.2-6.6-.3-7.4-1.5-.4-.6-2-1.9-3.5-2.8a12.7 12.7 0 0 0-12.1-.2Z" fill="#0B13CE" fill-opacity=".2" stroke="#0B14EC" stroke-width="6" mask="url(#d)"/>
  <mask id="e" fill="#fff">
    <path d="M198.4 1.4c-5.6 2.8-8 9-6.2 15.4.8 2.8 5.1 7.1 8 8 4.7 1.4 9.6.2 12.8-3l2-2.1h5.2c4.7 0 5.3.1 6.2 1 1 1.1 1 2.6 1.3 31.2l.2 30 1.3 2.6c1.5 3 4.7 6.4 7.5 8l2 1h-10.3c-7.9 0-10.5-.1-11-.7-.3-.4-.6-6-.7-15.5l-.1-15-1.6-2.8c-1.9-3.4-4.7-6-8.3-7.3-2.6-1-4-1-19-1h-16.3l-1.5-1.8a12.7 12.7 0 1 0-14.4 20.3c4.7 2.1 9.4 1.2 13.7-2.6l2.9-2.5h14.5c12.4 0 14.7.1 15.7.8 1.1.8 1.1 1 1.1 15 0 13 .1 14.4 1.1 17 1.3 3.4 4.4 6.7 8 8.5 2.5 1.2 2.9 1.3 17.5 1.5l15 .3v3c-.1 5 1.2 4.7-22.4 5-20 .3-20.5.3-23 1.5-3 1.3-7 5-8.5 8a25.8 25.8 0 0 0-2 11.5c0 3.6-.2 4-1.6 5.1-.9.7-2.2 2.6-3 4.2a9.2 9.2 0 0 0-1 6.1c.9 11.5 14.5 16.2 22 7.7 2.3-2.7 3-4.8 3-8.5 0-3.8-.7-6-3.5-9-2-2.2-2-2.2-2-6.4 0-6.8-1.4-6.4 18.7-6.3 9.4 0 18.8-.2 21-.4 6-.7 10.1-3.2 13.3-8.3l1.5-2.3v25.5c0 23.7 0 25.7-1 27.6a9.4 9.4 0 0 1-16.7 1c-1.1-1.8-1.3-2.7-1.3-6.4 0-4 0-4.2 1.6-5.6.9-.7 2.1-2.5 2.8-4 4.4-9.5-4-20-14-17.8a13 13 0 0 0-6 22c1.6 1.4 1.7 1.7 1.7 5 0 10.6 5 19.1 13.7 23.3 3 1.4 4.2 1.6 8.5 1.8 3.7.1 5.6 0 7.8-.7a22.8 22.8 0 0 0 13-10c3.4-5.8 3.3-5.1 3.3-40V109h7.2v30.1c0 17.9.3 31.3.6 33 1.3 7.1 6.5 13.9 13.2 17 3.4 1.7 3.8 1.7 9.7 1.7 5.6 0 6.4-.1 9-1.3 9-4.3 14-12.1 14-22.3v-4.6l2.2-2.3c3.5-3.5 4.6-8 3.2-12.7a12 12 0 0 0-6-7.4 10 10 0 0 0-6.2-1.5c-11.4 0-16.8 14-8.5 21.9 1.8 1.7 1.8 1.9 1.8 5.4 0 4.3-1.1 7.2-3.5 9.2a9.3 9.3 0 0 1-14.2-2.4l-1.3-2.2V119l1.8 2.6c1 1.5 2.8 3.5 4 4.3 4.7 3.2 5 3.2 26.1 3.5 10.6 0 19.8.3 20.4.4 1.6.4 2.3 2.4 2.3 6.6 0 3.6 0 3.8-1.8 5.5-3 2.7-4 5.4-4 9.3a12 12 0 0 0 12.5 12.6c7.2 0 12.6-5.3 12.6-12.6 0-3.8-1-6-3.9-9l-2-2-.1-6c-.2-4.7-.4-6.5-1.3-8.4a18.8 18.8 0 0 0-8.4-8.5l-2.8-1.4-20.5-.2-20.5-.1-1-1.4c-.8-1-1-2.1-1-4v-2.8l14.8-.2c14.1-.1 14.9-.2 17.3-1.3 3.3-1.5 6.2-4.3 8-7.6l1.3-2.6.2-15c.1-13.3.2-15 1-15.6.7-.4 4.4-.6 16-.6h15l1 1.6a13 13 0 0 0 8.4 4.4c7.6.8 14-4.9 14-12.4 0-4-1.4-7.2-4.2-9.6-5-4.5-12-4.4-17.1.3l-2.4 2.2-17 .2-17 .1-2.6 1.4c-1.4.8-3.6 2.5-4.7 3.8-3.6 4.1-3.9 5.3-4 21.4l-.5 14.8c-.2.6-2.8.7-11 .7h-10.6l2-1c3-1.7 6.3-5 7.9-8.3l1.4-2.8.2-30.1c.3-29 .4-30.2 1.3-30.9.7-.5 2.5-.7 6.1-.7 4.9 0 5.2 0 6.1 1.3 1.8 2.3 5.4 4 8.9 4.2 6 .5 11.2-3 13-8.8 1-3.2 1-4.1-.1-7.5a12.1 12.1 0 0 0-12-8.8c-4 0-7 1.3-9.3 4l-1.5 1.7H329c-10 0-15.5 3-19 10.2l-1.7 3.4-.3 29.9c-.2 28.8-.3 29.9-1.2 30.6-.8.6-3 .7-10 .7H288V69.8h1.8c3.7 0 7.6-2.5 9.5-6 .7-1.3.8-4 1-20.3.1-12.7 0-20-.4-22.4A25.9 25.9 0 0 0 282 1c-2.8-1-4.5-1.1-8.7-1a17 17 0 0 0-9.2 2.1c-7 3.4-12.1 9.4-14 16.4-.7 3-.9 6.2-.9 22.8 0 20.5.1 21.5 2.4 24.5 1.5 2 5.5 3.9 8.1 3.9h1.9v10.8h-9.2c-8.7 0-9.3 0-10.2-1-1-1.1-1-2.6-1.3-31.2l-.2-30-1.3-2.6a19.3 19.3 0 0 0-8.7-8.4c-2.5-1.2-3.7-1.4-9.4-1.5-6.3-.2-6.6-.3-7.4-1.5-.4-.6-2-1.9-3.5-2.8a12.7 12.7 0 0 0-12.1-.2Z"/>
  </mask>
  <path d="M198.4 1.4c-5.6 2.8-8 9-6.2 15.4.8 2.8 5.1 7.1 8 8 4.7 1.4 9.6.2 12.8-3l2-2.1h5.2c4.7 0 5.3.1 6.2 1 1 1.1 1 2.6 1.3 31.2l.2 30 1.3 2.6c1.5 3 4.7 6.4 7.5 8l2 1h-10.3c-7.9 0-10.5-.1-11-.7-.3-.4-.6-6-.7-15.5l-.1-15-1.6-2.8c-1.9-3.4-4.7-6-8.3-7.3-2.6-1-4-1-19-1h-16.3l-1.5-1.8a12.7 12.7 0 1 0-14.4 20.3c4.7 2.1 9.4 1.2 13.7-2.6l2.9-2.5h14.5c12.4 0 14.7.1 15.7.8 1.1.8 1.1 1 1.1 15 0 13 .1 14.4 1.1 17 1.3 3.4 4.4 6.7 8 8.5 2.5 1.2 2.9 1.3 17.5 1.5l15 .3v3c-.1 5 1.2 4.7-22.4 5-20 .3-20.5.3-23 1.5-3 1.3-7 5-8.5 8a25.8 25.8 0 0 0-2 11.5c0 3.6-.2 4-1.6 5.1-.9.7-2.2 2.6-3 4.2a9.2 9.2 0 0 0-1 6.1c.9 11.5 14.5 16.2 22 7.7 2.3-2.7 3-4.8 3-8.5 0-3.8-.7-6-3.5-9-2-2.2-2-2.2-2-6.4 0-6.8-1.4-6.4 18.7-6.3 9.4 0 18.8-.2 21-.4 6-.7 10.1-3.2 13.3-8.3l1.5-2.3v25.5c0 23.7 0 25.7-1 27.6a9.4 9.4 0 0 1-16.7 1c-1.1-1.8-1.3-2.7-1.3-6.4 0-4 0-4.2 1.6-5.6.9-.7 2.1-2.5 2.8-4 4.4-9.5-4-20-14-17.8a13 13 0 0 0-6 22c1.6 1.4 1.7 1.7 1.7 5 0 10.6 5 19.1 13.7 23.3 3 1.4 4.2 1.6 8.5 1.8 3.7.1 5.6 0 7.8-.7a22.8 22.8 0 0 0 13-10c3.4-5.8 3.3-5.1 3.3-40V109h7.2v30.1c0 17.9.3 31.3.6 33 1.3 7.1 6.5 13.9 13.2 17 3.4 1.7 3.8 1.7 9.7 1.7 5.6 0 6.4-.1 9-1.3 9-4.3 14-12.1 14-22.3v-4.6l2.2-2.3c3.5-3.5 4.6-8 3.2-12.7a12 12 0 0 0-6-7.4 10 10 0 0 0-6.2-1.5c-11.4 0-16.8 14-8.5 21.9 1.8 1.7 1.8 1.9 1.8 5.4 0 4.3-1.1 7.2-3.5 9.2a9.3 9.3 0 0 1-14.2-2.4l-1.3-2.2V119l1.8 2.6c1 1.5 2.8 3.5 4 4.3 4.7 3.2 5 3.2 26.1 3.5 10.6 0 19.8.3 20.4.4 1.6.4 2.3 2.4 2.3 6.6 0 3.6 0 3.8-1.8 5.5-3 2.7-4 5.4-4 9.3a12 12 0 0 0 12.5 12.6c7.2 0 12.6-5.3 12.6-12.6 0-3.8-1-6-3.9-9l-2-2-.1-6c-.2-4.7-.4-6.5-1.3-8.4a18.8 18.8 0 0 0-8.4-8.5l-2.8-1.4-20.5-.2-20.5-.1-1-1.4c-.8-1-1-2.1-1-4v-2.8l14.8-.2c14.1-.1 14.9-.2 17.3-1.3 3.3-1.5 6.2-4.3 8-7.6l1.3-2.6.2-15c.1-13.3.2-15 1-15.6.7-.4 4.4-.6 16-.6h15l1 1.6a13 13 0 0 0 8.4 4.4c7.6.8 14-4.9 14-12.4 0-4-1.4-7.2-4.2-9.6-5-4.5-12-4.4-17.1.3l-2.4 2.2-17 .2-17 .1-2.6 1.4c-1.4.8-3.6 2.5-4.7 3.8-3.6 4.1-3.9 5.3-4 21.4l-.5 14.8c-.2.6-2.8.7-11 .7h-10.6l2-1c3-1.7 6.3-5 7.9-8.3l1.4-2.8.2-30.1c.3-29 .4-30.2 1.3-30.9.7-.5 2.5-.7 6.1-.7 4.9 0 5.2 0 6.1 1.3 1.8 2.3 5.4 4 8.9 4.2 6 .5 11.2-3 13-8.8 1-3.2 1-4.1-.1-7.5a12.1 12.1 0 0 0-12-8.8c-4 0-7 1.3-9.3 4l-1.5 1.7H329c-10 0-15.5 3-19 10.2l-1.7 3.4-.3 29.9c-.2 28.8-.3 29.9-1.2 30.6-.8.6-3 .7-10 .7H288V69.8h1.8c3.7 0 7.6-2.5 9.5-6 .7-1.3.8-4 1-20.3.1-12.7 0-20-.4-22.4A25.9 25.9 0 0 0 282 1c-2.8-1-4.5-1.1-8.7-1a17 17 0 0 0-9.2 2.1c-7 3.4-12.1 9.4-14 16.4-.7 3-.9 6.2-.9 22.8 0 20.5.1 21.5 2.4 24.5 1.5 2 5.5 3.9 8.1 3.9h1.9v10.8h-9.2c-8.7 0-9.3 0-10.2-1-1-1.1-1-2.6-1.3-31.2l-.2-30-1.3-2.6a19.3 19.3 0 0 0-8.7-8.4c-2.5-1.2-3.7-1.4-9.4-1.5-6.3-.2-6.6-.3-7.4-1.5-.4-.6-2-1.9-3.5-2.8a12.7 12.7 0 0 0-12.1-.2Z" fill="#0400C6" fill-opacity=".2" stroke="#0B14EC" stroke-width="6" mask="url(#e)"/>
  <mask id="f" fill="#fff">
    <path d="M241.6 234.4c-5.6 2.8-8 9-6.2 15.4.8 2.8 5.1 7.1 8 8 4.7 1.3 9.6.2 12.8-3l2-2.1h5.2c4.7 0 5.4 0 6.2 1 1 1.1 1 2.6 1.3 31.2l.2 30 1.3 2.6c1.5 3 4.8 6.4 7.5 8l2 1h-10.3c-7.8 0-10.5-.2-11-.7-.3-.4-.6-6-.7-15.6l-.1-15-1.6-2.7c-1.9-3.4-4.7-6-8.3-7.3-2.6-1-4-1-19-1h-16.3l-1.4-1.8a12.7 12.7 0 1 0-14.5 20.3c4.7 2.1 9.4 1.2 13.7-2.6l2.9-2.5h14.5c12.4 0 14.7 0 15.7.8 1.1.8 1.1.9 1.1 15 0 13 .2 14.3 1.1 17 1.3 3.4 4.4 6.7 8 8.5 2.5 1.2 2.9 1.3 17.5 1.5l15 .3v3c-.1 5 1.2 4.7-22.4 5-20 .2-20.5.3-23 1.4-3 1.4-7 5-8.5 8.1a25.8 25.8 0 0 0-2 11.5c0 3.6-.2 4-1.6 5.1-.8.7-2.1 2.6-3 4.1a9.2 9.2 0 0 0-1 6.2c.9 11.4 14.5 16.2 22 7.7 2.3-2.7 3.1-4.8 3.1-8.5 0-3.9-.8-6-3.6-9-2-2.2-2-2.2-2-6.4 0-6.8-1.4-6.4 18.7-6.3 9.4 0 18.8-.2 21-.4 6-.7 10.1-3.2 13.4-8.3l1.5-2.3V377c0 23.7-.2 25.7-1 27.6a9.4 9.4 0 0 1-16.8 1c-1.1-1.8-1.3-2.8-1.3-6.4 0-4.1 0-4.3 1.6-5.6 1-.7 2.1-2.5 2.8-4 4.5-9.5-3.9-20-14-17.8a13 13 0 0 0-6 21.9c1.6 1.4 1.7 1.8 1.7 5 0 10.7 5 19.2 13.7 23.3 3 1.4 4.3 1.7 8.5 1.8 3.7.2 5.7 0 7.8-.6a22.8 22.8 0 0 0 13-10c3.4-5.8 3.3-5.1 3.3-40V342h7.3V372c0 17.9.2 31.3.5 32.9 1.3 7.2 6.5 14 13.2 17.1 3.4 1.6 3.8 1.7 9.7 1.7 5.6 0 6.4-.2 9-1.4 9-4.2 14-12 14-22.2v-4.6l2.3-2.3c3.5-3.5 4.5-8 3.1-12.7a12 12 0 0 0-6-7.4 10 10 0 0 0-6.2-1.5c-11.4 0-16.8 14-8.5 21.8 1.8 1.8 1.8 2 1.8 5.5 0 4.2-1 7.1-3.5 9.2a9.3 9.3 0 0 1-14.2-2.4l-1.3-2.2V352l1.8 2.7c1 1.5 2.8 3.4 4.1 4.3 4.6 3.2 4.9 3.2 26 3.5 10.6 0 19.8.3 20.4.4 1.6.3 2.3 2.4 2.3 6.6 0 3.6 0 3.8-1.8 5.5-2.9 2.7-4 5.4-4 9.3a12 12 0 0 0 12.5 12.6c7.3 0 12.6-5.3 12.6-12.6 0-3.9-1-6-3.8-9l-2-2-.2-6c-.2-4.7-.4-6.5-1.3-8.4a18.8 18.8 0 0 0-8.3-8.5l-3-1.5-20.4-.1-20.4-.2-1.1-1.3c-.7-1-1-2.1-1-4v-2.8l14.8-.2c14.2-.1 14.9-.2 17.3-1.3 3.3-1.5 6.2-4.3 8-7.6l1.3-2.6.2-15c.1-13.3.2-15 1-15.6.7-.5 4.4-.6 16-.6h15l1 1.6a13 13 0 0 0 8.5 4.4c7.5.8 13.9-4.9 13.9-12.4 0-4-1.4-7.2-4.2-9.7-5-4.5-12-4.3-17.1.4l-2.4 2.2-17 .2-17 .1-2.6 1.4c-1.4.8-3.6 2.5-4.7 3.8-3.6 4.1-3.9 5.3-4 21.4-.2 7.8-.3 14.5-.5 14.8-.1.5-2.8.7-11 .7h-10.6l2-1c3-1.7 6.3-5.1 8-8.3l1.3-2.8.3-30.1c.2-29 .3-30.2 1.2-30.9.7-.5 2.5-.7 6.1-.7 4.9 0 5.2 0 6.2 1.3 1.7 2.2 5.3 4 8.8 4.2 6 .5 11.3-3 13-8.8 1-3.2 1-4.2 0-7.5a12.1 12.1 0 0 0-12.2-8.8c-3.9 0-7 1.3-9.2 3.9l-1.5 1.7h-5.4c-10 0-15.4 3-19 10.3l-1.7 3.4-.3 29.9c-.2 28.8-.3 29.8-1.2 30.6-.8.5-3 .7-10 .7h-8.8v-10.9h1.8c3.6 0 7.5-2.4 9.4-5.9.8-1.3.9-4 1-20.3.1-12.7 0-20-.4-22.4a25.9 25.9 0 0 0-17.7-20.1c-2.8-.8-4.5-1-8.7-.8a17 17 0 0 0-9.1 2c-7 3.3-12.2 9.4-14 16.4-.8 3-1 6.2-1 22.8 0 20.5.1 21.4 2.4 24.5 1.5 2 5.5 3.8 8.1 3.8h1.9v10.9h-9.2c-8.7 0-9.3 0-10.2-1.1-1-1-1-2.5-1.2-31.1l-.3-30-1.3-2.6a19.3 19.3 0 0 0-8.6-8.4c-2.6-1.2-3.7-1.4-9.5-1.6-6.3-.2-6.6-.2-7.4-1.4-.4-.7-2-2-3.5-2.8a12.7 12.7 0 0 0-12.1-.2Z"/>
  </mask>
  <path d="M241.6 234.4c-5.6 2.8-8 9-6.2 15.4.8 2.8 5.1 7.1 8 8 4.7 1.3 9.6.2 12.8-3l2-2.1h5.2c4.7 0 5.4 0 6.2 1 1 1.1 1 2.6 1.3 31.2l.2 30 1.3 2.6c1.5 3 4.8 6.4 7.5 8l2 1h-10.3c-7.8 0-10.5-.2-11-.7-.3-.4-.6-6-.7-15.6l-.1-15-1.6-2.7c-1.9-3.4-4.7-6-8.3-7.3-2.6-1-4-1-19-1h-16.3l-1.4-1.8a12.7 12.7 0 1 0-14.5 20.3c4.7 2.1 9.4 1.2 13.7-2.6l2.9-2.5h14.5c12.4 0 14.7 0 15.7.8 1.1.8 1.1.9 1.1 15 0 13 .2 14.3 1.1 17 1.3 3.4 4.4 6.7 8 8.5 2.5 1.2 2.9 1.3 17.5 1.5l15 .3v3c-.1 5 1.2 4.7-22.4 5-20 .2-20.5.3-23 1.4-3 1.4-7 5-8.5 8.1a25.8 25.8 0 0 0-2 11.5c0 3.6-.2 4-1.6 5.1-.8.7-2.1 2.6-3 4.1a9.2 9.2 0 0 0-1 6.2c.9 11.4 14.5 16.2 22 7.7 2.3-2.7 3.1-4.8 3.1-8.5 0-3.9-.8-6-3.6-9-2-2.2-2-2.2-2-6.4 0-6.8-1.4-6.4 18.7-6.3 9.4 0 18.8-.2 21-.4 6-.7 10.1-3.2 13.4-8.3l1.5-2.3V377c0 23.7-.2 25.7-1 27.6a9.4 9.4 0 0 1-16.8 1c-1.1-1.8-1.3-2.8-1.3-6.4 0-4.1 0-4.3 1.6-5.6 1-.7 2.1-2.5 2.8-4 4.5-9.5-3.9-20-14-17.8a13 13 0 0 0-6 21.9c1.6 1.4 1.7 1.8 1.7 5 0 10.7 5 19.2 13.7 23.3 3 1.4 4.3 1.7 8.5 1.8 3.7.2 5.7 0 7.8-.6a22.8 22.8 0 0 0 13-10c3.4-5.8 3.3-5.1 3.3-40V342h7.3V372c0 17.9.2 31.3.5 32.9 1.3 7.2 6.5 14 13.2 17.1 3.4 1.6 3.8 1.7 9.7 1.7 5.6 0 6.4-.2 9-1.4 9-4.2 14-12 14-22.2v-4.6l2.3-2.3c3.5-3.5 4.5-8 3.1-12.7a12 12 0 0 0-6-7.4 10 10 0 0 0-6.2-1.5c-11.4 0-16.8 14-8.5 21.8 1.8 1.8 1.8 2 1.8 5.5 0 4.2-1 7.1-3.5 9.2a9.3 9.3 0 0 1-14.2-2.4l-1.3-2.2V352l1.8 2.7c1 1.5 2.8 3.4 4.1 4.3 4.6 3.2 4.9 3.2 26 3.5 10.6 0 19.8.3 20.4.4 1.6.3 2.3 2.4 2.3 6.6 0 3.6 0 3.8-1.8 5.5-2.9 2.7-4 5.4-4 9.3a12 12 0 0 0 12.5 12.6c7.3 0 12.6-5.3 12.6-12.6 0-3.9-1-6-3.8-9l-2-2-.2-6c-.2-4.7-.4-6.5-1.3-8.4a18.8 18.8 0 0 0-8.3-8.5l-3-1.5-20.4-.1-20.4-.2-1.1-1.3c-.7-1-1-2.1-1-4v-2.8l14.8-.2c14.2-.1 14.9-.2 17.3-1.3 3.3-1.5 6.2-4.3 8-7.6l1.3-2.6.2-15c.1-13.3.2-15 1-15.6.7-.5 4.4-.6 16-.6h15l1 1.6a13 13 0 0 0 8.5 4.4c7.5.8 13.9-4.9 13.9-12.4 0-4-1.4-7.2-4.2-9.7-5-4.5-12-4.3-17.1.4l-2.4 2.2-17 .2-17 .1-2.6 1.4c-1.4.8-3.6 2.5-4.7 3.8-3.6 4.1-3.9 5.3-4 21.4-.2 7.8-.3 14.5-.5 14.8-.1.5-2.8.7-11 .7h-10.6l2-1c3-1.7 6.3-5.1 8-8.3l1.3-2.8.3-30.1c.2-29 .3-30.2 1.2-30.9.7-.5 2.5-.7 6.1-.7 4.9 0 5.2 0 6.2 1.3 1.7 2.2 5.3 4 8.8 4.2 6 .5 11.3-3 13-8.8 1-3.2 1-4.2 0-7.5a12.1 12.1 0 0 0-12.2-8.8c-3.9 0-7 1.3-9.2 3.9l-1.5 1.7h-5.4c-10 0-15.4 3-19 10.3l-1.7 3.4-.3 29.9c-.2 28.8-.3 29.8-1.2 30.6-.8.5-3 .7-10 .7h-8.8v-10.9h1.8c3.6 0 7.5-2.4 9.4-5.9.8-1.3.9-4 1-20.3.1-12.7 0-20-.4-22.4a25.9 25.9 0 0 0-17.7-20.1c-2.8-.8-4.5-1-8.7-.8a17 17 0 0 0-9.1 2c-7 3.3-12.2 9.4-14 16.4-.8 3-1 6.2-1 22.8 0 20.5.1 21.4 2.4 24.5 1.5 2 5.5 3.8 8.1 3.8h1.9v10.9h-9.2c-8.7 0-9.3 0-10.2-1.1-1-1-1-2.5-1.2-31.1l-.3-30-1.3-2.6a19.3 19.3 0 0 0-8.6-8.4c-2.6-1.2-3.7-1.4-9.5-1.6-6.3-.2-6.6-.2-7.4-1.4-.4-.7-2-2-3.5-2.8a12.7 12.7 0 0 0-12.1-.2Z" fill="#0B14EC" fill-opacity=".2" stroke="#0B14EC" stroke-width="6" mask="url(#f)"/>
  <mask id="g" fill="#fff">
    <path d="M435.6 142.3c-5.6 2.8-8 9-6.2 15.4.8 2.9 5.1 7.1 8 8 4.7 1.4 9.6.2 12.8-3l2-2h5.2c4.7 0 5.3 0 6.2 1 1 1 1 2.5 1.2 31.1l.3 30 1.3 2.6c1.5 3 4.7 6.4 7.5 8l2 1h-10.3c-7.9 0-10.5-.1-11-.6-.3-.5-.6-6-.7-15.6l-.1-15-1.6-2.8c-1.9-3.4-4.7-6-8.3-7.3-2.6-.9-4-1-19-1h-16.3l-1.5-1.8a12.7 12.7 0 1 0-14.4 20.3c4.6 2.1 9.4 1.2 13.7-2.6l2.9-2.5h14.5c12.3 0 14.7.1 15.7.8 1.1.8 1.1 1 1.1 15 0 13 .1 14.4 1.1 17 1.3 3.4 4.4 6.8 8 8.5 2.5 1.3 2.9 1.3 17.5 1.6l15 .2v3c-.1 5 1.2 4.7-22.4 5-20 .3-20.5.3-23 1.5-3 1.3-7 5-8.5 8a25.8 25.8 0 0 0-2.1 11.5c0 3.6-.1 4-1.5 5.1-.9.8-2.2 2.6-3 4.2a9.2 9.2 0 0 0-1 6.1c.9 11.5 14.5 16.2 22 7.7 2.3-2.7 3-4.8 3-8.5 0-3.8-.7-6-3.5-8.9-2-2.3-2-2.3-2-6.4 0-6.9-1.4-6.4 18.7-6.4 9.4 0 18.8-.1 21-.4 6-.7 10-3.2 13.3-8.3l1.5-2.3v25.6c0 23.6 0 25.6-1 27.5a9.4 9.4 0 0 1-16.7 1.1c-1.1-1.8-1.3-2.8-1.3-6.4 0-4.2 0-4.3 1.6-5.7.9-.7 2.1-2.5 2.8-4 4.4-9.4-4-20-14-17.8a13 13 0 0 0-6 22c1.6 1.4 1.7 1.7 1.7 5 0 10.6 5 19.1 13.7 23.3 3 1.4 4.2 1.6 8.5 1.8 3.7.1 5.6 0 7.7-.7a22.8 22.8 0 0 0 13-10c3.5-5.7 3.4-5.1 3.4-39.9v-31.4h7.2v30.2c0 17.8.2 31.2.6 32.8 1.3 7.3 6.5 14 13.2 17.2 3.4 1.6 3.8 1.6 9.7 1.6 5.6 0 6.4-.1 9-1.3 9-4.3 14-12 14-22.3v-4.6l2.2-2.3c3.5-3.5 4.6-8 3.2-12.7a12 12 0 0 0-6.1-7.4 10 10 0 0 0-6-1.5c-11.5 0-17 14-8.6 21.9 1.8 1.7 1.8 1.9 1.8 5.4 0 4.3-1.1 7.2-3.5 9.2a9.3 9.3 0 0 1-14.3-2.4l-1.2-2.2V260l1.8 2.7c1 1.5 2.8 3.4 4 4.2 4.7 3.2 5 3.2 26.1 3.5 10.6.1 19.8.3 20.4.4 1.6.4 2.3 2.4 2.3 6.6 0 3.6 0 3.8-1.8 5.5-3 2.7-4.1 5.4-4.1 9.3a12 12 0 0 0 12.6 12.6c7.2 0 12.5-5.3 12.5-12.6 0-3.8-.8-5.9-3.8-9l-2-2-.1-6c-.2-4.6-.4-6.4-1.3-8.4a18.8 18.8 0 0 0-8.4-8.5l-2.9-1.4-20.4-.2-20.5-.1-1-1.4c-.8-.9-1-2-1-4v-2.8l14.8-.1c14.1-.2 14.9-.2 17.3-1.4 3.3-1.5 6.2-4.3 8-7.6l1.3-2.5.2-15c.1-13.3.2-15 1-15.7.7-.4 4.4-.6 16-.6h15l1 1.6a13 13 0 0 0 8.4 4.5c7.6.7 14-5 14-12.5 0-4-1.4-7.2-4.2-9.6-5-4.5-12-4.4-17.1.3l-2.4 2.3-17 .1-17 .2-2.6 1.4c-1.4.7-3.6 2.4-4.7 3.7-3.6 4.2-3.9 5.3-4.1 21.4-.1 7.8-.3 14.5-.4 14.9-.2.5-2.8.6-11 .6h-10.7l2.1-1c3-1.7 6.3-5 7.9-8.3l1.4-2.8.2-30c.3-29.2.4-30.2 1.3-31 .7-.5 2.5-.7 6.1-.7 4.9 0 5.2 0 6.1 1.3 1.8 2.3 5.3 4 8.9 4.2 6 .6 11.2-3 13-8.8 1-3.2 1-4.1-.1-7.5a12.1 12.1 0 0 0-12-8.8c-4 0-7 1.3-9.3 4l-1.5 1.7H566c-9.9 0-15.4 3-19 10.2l-1.6 3.5-.3 29.8c-.2 28.8-.3 29.9-1.2 30.6-.8.6-3 .7-10 .7h-8.9v-10.8h1.8c3.6 0 7.6-2.5 9.5-6 .7-1.3.8-4 1-20.3.1-12.6 0-20-.4-22.4a25.9 25.9 0 0 0-17.7-20c-2.8-.9-4.5-1.1-8.7-.9a17 17 0 0 0-9.2 2c-7 3.4-12.1 9.4-14 16.4-.7 3-.9 6.2-.9 22.8 0 20.5 0 21.5 2.4 24.6 1.5 1.9 5.5 3.8 8.1 3.8h1.9v10.8h-9.2c-8.7 0-9.3 0-10.2-1-1-1-1-2.6-1.3-31.2l-.2-30-1.3-2.6a19.3 19.3 0 0 0-8.7-8.4c-2.5-1.2-3.7-1.4-9.4-1.5-6.3-.2-6.6-.3-7.4-1.5-.4-.6-2-1.9-3.5-2.8a12.7 12.7 0 0 0-12.1-.2Z"/>
  </mask>
  <path d="M435.6 142.3c-5.6 2.8-8 9-6.2 15.4.8 2.9 5.1 7.1 8 8 4.7 1.4 9.6.2 12.8-3l2-2h5.2c4.7 0 5.3 0 6.2 1 1 1 1 2.5 1.2 31.1l.3 30 1.3 2.6c1.5 3 4.7 6.4 7.5 8l2 1h-10.3c-7.9 0-10.5-.1-11-.6-.3-.5-.6-6-.7-15.6l-.1-15-1.6-2.8c-1.9-3.4-4.7-6-8.3-7.3-2.6-.9-4-1-19-1h-16.3l-1.5-1.8a12.7 12.7 0 1 0-14.4 20.3c4.6 2.1 9.4 1.2 13.7-2.6l2.9-2.5h14.5c12.3 0 14.7.1 15.7.8 1.1.8 1.1 1 1.1 15 0 13 .1 14.4 1.1 17 1.3 3.4 4.4 6.8 8 8.5 2.5 1.3 2.9 1.3 17.5 1.6l15 .2v3c-.1 5 1.2 4.7-22.4 5-20 .3-20.5.3-23 1.5-3 1.3-7 5-8.5 8a25.8 25.8 0 0 0-2.1 11.5c0 3.6-.1 4-1.5 5.1-.9.8-2.2 2.6-3 4.2a9.2 9.2 0 0 0-1 6.1c.9 11.5 14.5 16.2 22 7.7 2.3-2.7 3-4.8 3-8.5 0-3.8-.7-6-3.5-8.9-2-2.3-2-2.3-2-6.4 0-6.9-1.4-6.4 18.7-6.4 9.4 0 18.8-.1 21-.4 6-.7 10-3.2 13.3-8.3l1.5-2.3v25.6c0 23.6 0 25.6-1 27.5a9.4 9.4 0 0 1-16.7 1.1c-1.1-1.8-1.3-2.8-1.3-6.4 0-4.2 0-4.3 1.6-5.7.9-.7 2.1-2.5 2.8-4 4.4-9.4-4-20-14-17.8a13 13 0 0 0-6 22c1.6 1.4 1.7 1.7 1.7 5 0 10.6 5 19.1 13.7 23.3 3 1.4 4.2 1.6 8.5 1.8 3.7.1 5.6 0 7.7-.7a22.8 22.8 0 0 0 13-10c3.5-5.7 3.4-5.1 3.4-39.9v-31.4h7.2v30.2c0 17.8.2 31.2.6 32.8 1.3 7.3 6.5 14 13.2 17.2 3.4 1.6 3.8 1.6 9.7 1.6 5.6 0 6.4-.1 9-1.3 9-4.3 14-12 14-22.3v-4.6l2.2-2.3c3.5-3.5 4.6-8 3.2-12.7a12 12 0 0 0-6.1-7.4 10 10 0 0 0-6-1.5c-11.5 0-17 14-8.6 21.9 1.8 1.7 1.8 1.9 1.8 5.4 0 4.3-1.1 7.2-3.5 9.2a9.3 9.3 0 0 1-14.3-2.4l-1.2-2.2V260l1.8 2.7c1 1.5 2.8 3.4 4 4.2 4.7 3.2 5 3.2 26.1 3.5 10.6.1 19.8.3 20.4.4 1.6.4 2.3 2.4 2.3 6.6 0 3.6 0 3.8-1.8 5.5-3 2.7-4.1 5.4-4.1 9.3a12 12 0 0 0 12.6 12.6c7.2 0 12.5-5.3 12.5-12.6 0-3.8-.8-5.9-3.8-9l-2-2-.1-6c-.2-4.6-.4-6.4-1.3-8.4a18.8 18.8 0 0 0-8.4-8.5l-2.9-1.4-20.4-.2-20.5-.1-1-1.4c-.8-.9-1-2-1-4v-2.8l14.8-.1c14.1-.2 14.9-.2 17.3-1.4 3.3-1.5 6.2-4.3 8-7.6l1.3-2.5.2-15c.1-13.3.2-15 1-15.7.7-.4 4.4-.6 16-.6h15l1 1.6a13 13 0 0 0 8.4 4.5c7.6.7 14-5 14-12.5 0-4-1.4-7.2-4.2-9.6-5-4.5-12-4.4-17.1.3l-2.4 2.3-17 .1-17 .2-2.6 1.4c-1.4.7-3.6 2.4-4.7 3.7-3.6 4.2-3.9 5.3-4.1 21.4-.1 7.8-.3 14.5-.4 14.9-.2.5-2.8.6-11 .6h-10.7l2.1-1c3-1.7 6.3-5 7.9-8.3l1.4-2.8.2-30c.3-29.2.4-30.2 1.3-31 .7-.5 2.5-.7 6.1-.7 4.9 0 5.2 0 6.1 1.3 1.8 2.3 5.3 4 8.9 4.2 6 .6 11.2-3 13-8.8 1-3.2 1-4.1-.1-7.5a12.1 12.1 0 0 0-12-8.8c-4 0-7 1.3-9.3 4l-1.5 1.7H566c-9.9 0-15.4 3-19 10.2l-1.6 3.5-.3 29.8c-.2 28.8-.3 29.9-1.2 30.6-.8.6-3 .7-10 .7h-8.9v-10.8h1.8c3.6 0 7.6-2.5 9.5-6 .7-1.3.8-4 1-20.3.1-12.6 0-20-.4-22.4a25.9 25.9 0 0 0-17.7-20c-2.8-.9-4.5-1.1-8.7-.9a17 17 0 0 0-9.2 2c-7 3.4-12.1 9.4-14 16.4-.7 3-.9 6.2-.9 22.8 0 20.5 0 21.5 2.4 24.6 1.5 1.9 5.5 3.8 8.1 3.8h1.9v10.8h-9.2c-8.7 0-9.3 0-10.2-1-1-1-1-2.6-1.3-31.2l-.2-30-1.3-2.6a19.3 19.3 0 0 0-8.7-8.4c-2.5-1.2-3.7-1.4-9.4-1.5-6.3-.2-6.6-.3-7.4-1.5-.4-.6-2-1.9-3.5-2.8a12.7 12.7 0 0 0-12.1-.2Z" fill="#0B13CE" fill-opacity=".2" stroke="#0B14EC" stroke-width="6" mask="url(#g)"/>
  <mask id="h" fill="#fff">
    <path d="M583.4 1.4c-5.6 2.8-8 9-6.2 15.4.8 2.8 5.1 7.1 8 8 4.7 1.4 9.6.2 12.8-3l2-2.1h5.2c4.7 0 5.3.1 6.2 1 1 1.1 1 2.6 1.3 31.2l.2 30 1.3 2.6c1.5 3 4.7 6.4 7.5 8l2 1h-10.3c-7.9 0-10.5-.1-11-.7-.3-.4-.6-6-.7-15.5l-.1-15-1.6-2.8c-1.9-3.4-4.7-6-8.3-7.3-2.6-1-4-1-19-1h-16.3l-1.5-1.8a12.7 12.7 0 1 0-14.4 20.3c4.7 2.1 9.4 1.2 13.7-2.6l2.9-2.5h14.5c12.4 0 14.7.1 15.7.8 1.1.8 1.1 1 1.1 15 0 13 .1 14.4 1.1 17 1.3 3.4 4.4 6.7 8 8.5 2.5 1.2 2.9 1.3 17.5 1.5l15 .3v3c-.1 5 1.2 4.7-22.4 5-20 .3-20.5.3-23 1.5-3 1.3-7 5-8.5 8a25.8 25.8 0 0 0-2 11.5c0 3.6-.2 4-1.6 5.1-.9.7-2.2 2.6-3 4.2a9.2 9.2 0 0 0-1 6.1c.9 11.5 14.5 16.2 22 7.7 2.3-2.7 3-4.8 3-8.5 0-3.8-.7-6-3.5-9-2-2.2-2-2.2-2-6.4 0-6.8-1.4-6.4 18.7-6.3 9.4 0 18.8-.2 21-.4 6-.7 10.1-3.2 13.3-8.3l1.5-2.3v25.5c0 23.7 0 25.7-1 27.6a9.4 9.4 0 0 1-16.7 1c-1.1-1.8-1.3-2.7-1.3-6.4 0-4 0-4.2 1.6-5.6.9-.7 2.1-2.5 2.8-4 4.4-9.5-4-20-14-17.8a13 13 0 0 0-6 22c1.6 1.4 1.7 1.7 1.7 5 0 10.6 5 19.1 13.7 23.3 3 1.4 4.2 1.6 8.5 1.8 3.7.1 5.6 0 7.7-.7a22.8 22.8 0 0 0 13-10c3.5-5.8 3.4-5.1 3.4-40V109h7.2v30.1c0 17.9.3 31.3.6 33 1.3 7.1 6.5 13.9 13.2 17 3.4 1.7 3.8 1.7 9.7 1.7 5.6 0 6.4-.1 9-1.3 9-4.3 14-12.1 14-22.3v-4.6l2.2-2.3c3.5-3.5 4.6-8 3.2-12.7a12 12 0 0 0-6.1-7.4 10 10 0 0 0-6-1.5c-11.5 0-17 14-8.6 21.9 1.8 1.7 1.8 1.9 1.8 5.4 0 4.3-1.1 7.2-3.5 9.2a9.3 9.3 0 0 1-14.3-2.4l-1.2-2.2V119l1.8 2.6c1 1.5 2.8 3.5 4 4.3 4.7 3.2 5 3.2 26.1 3.5 10.6 0 19.8.3 20.4.4 1.6.4 2.3 2.4 2.3 6.6 0 3.6 0 3.8-1.8 5.5-3 2.7-4 5.4-4 9.3a12 12 0 0 0 12.5 12.6c7.2 0 12.6-5.3 12.6-12.6 0-3.8-1-6-3.9-9l-2-2-.1-6c-.2-4.7-.4-6.5-1.3-8.4a18.8 18.8 0 0 0-8.4-8.5l-2.8-1.4-20.5-.2-20.5-.1-1-1.4c-.8-1-1-2.1-1-4v-2.8l14.8-.2c14.1-.1 14.9-.2 17.3-1.3 3.3-1.5 6.2-4.3 8-7.6l1.3-2.6.2-15c.1-13.3.2-15 1-15.6.7-.4 4.4-.6 16-.6h15l1 1.6a13 13 0 0 0 8.4 4.4c7.6.8 14-4.9 14-12.4 0-4-1.4-7.2-4.2-9.6-5-4.5-12-4.4-17.1.3l-2.4 2.2-17 .2-17 .1-2.6 1.4c-1.4.8-3.6 2.5-4.7 3.8-3.6 4.1-3.9 5.3-4 21.4l-.5 14.8c-.2.6-2.8.7-11 .7h-10.6l2-1c3-1.7 6.3-5 7.9-8.3l1.4-2.8.2-30.1c.3-29 .4-30.2 1.3-30.9.7-.5 2.5-.7 6.1-.7 4.9 0 5.2 0 6.1 1.3 1.8 2.3 5.4 4 8.9 4.2 6 .5 11.2-3 13-8.8 1-3.2 1-4.1-.1-7.5a12.1 12.1 0 0 0-12-8.8c-4 0-7 1.3-9.3 4l-1.5 1.7H714c-10 0-15.5 3-19 10.2l-1.7 3.4-.3 29.9c-.2 28.8-.3 29.9-1.2 30.6-.8.6-3 .7-10 .7H673V69.8h1.8c3.6 0 7.6-2.5 9.5-6 .7-1.3.8-4 1-20.3.1-12.7 0-20-.4-22.4A25.9 25.9 0 0 0 667 1c-2.8-1-4.5-1.1-8.7-1a17 17 0 0 0-9.2 2.1c-7 3.4-12.1 9.4-14 16.4-.7 3-.9 6.2-.9 22.8 0 20.5.1 21.5 2.4 24.5 1.5 2 5.5 3.9 8.1 3.9h1.9v10.8h-9.2c-8.7 0-9.3 0-10.2-1-1-1.1-1-2.6-1.3-31.2l-.2-30-1.3-2.6a19.3 19.3 0 0 0-8.7-8.4c-2.5-1.2-3.7-1.4-9.4-1.5-6.3-.2-6.6-.3-7.4-1.5-.4-.6-2-1.9-3.5-2.8a12.7 12.7 0 0 0-12.1-.2Z"/>
  </mask>
  <path d="M583.4 1.4c-5.6 2.8-8 9-6.2 15.4.8 2.8 5.1 7.1 8 8 4.7 1.4 9.6.2 12.8-3l2-2.1h5.2c4.7 0 5.3.1 6.2 1 1 1.1 1 2.6 1.3 31.2l.2 30 1.3 2.6c1.5 3 4.7 6.4 7.5 8l2 1h-10.3c-7.9 0-10.5-.1-11-.7-.3-.4-.6-6-.7-15.5l-.1-15-1.6-2.8c-1.9-3.4-4.7-6-8.3-7.3-2.6-1-4-1-19-1h-16.3l-1.5-1.8a12.7 12.7 0 1 0-14.4 20.3c4.7 2.1 9.4 1.2 13.7-2.6l2.9-2.5h14.5c12.4 0 14.7.1 15.7.8 1.1.8 1.1 1 1.1 15 0 13 .1 14.4 1.1 17 1.3 3.4 4.4 6.7 8 8.5 2.5 1.2 2.9 1.3 17.5 1.5l15 .3v3c-.1 5 1.2 4.7-22.4 5-20 .3-20.5.3-23 1.5-3 1.3-7 5-8.5 8a25.8 25.8 0 0 0-2 11.5c0 3.6-.2 4-1.6 5.1-.9.7-2.2 2.6-3 4.2a9.2 9.2 0 0 0-1 6.1c.9 11.5 14.5 16.2 22 7.7 2.3-2.7 3-4.8 3-8.5 0-3.8-.7-6-3.5-9-2-2.2-2-2.2-2-6.4 0-6.8-1.4-6.4 18.7-6.3 9.4 0 18.8-.2 21-.4 6-.7 10.1-3.2 13.3-8.3l1.5-2.3v25.5c0 23.7 0 25.7-1 27.6a9.4 9.4 0 0 1-16.7 1c-1.1-1.8-1.3-2.7-1.3-6.4 0-4 0-4.2 1.6-5.6.9-.7 2.1-2.5 2.8-4 4.4-9.5-4-20-14-17.8a13 13 0 0 0-6 22c1.6 1.4 1.7 1.7 1.7 5 0 10.6 5 19.1 13.7 23.3 3 1.4 4.2 1.6 8.5 1.8 3.7.1 5.6 0 7.7-.7a22.8 22.8 0 0 0 13-10c3.5-5.8 3.4-5.1 3.4-40V109h7.2v30.1c0 17.9.3 31.3.6 33 1.3 7.1 6.5 13.9 13.2 17 3.4 1.7 3.8 1.7 9.7 1.7 5.6 0 6.4-.1 9-1.3 9-4.3 14-12.1 14-22.3v-4.6l2.2-2.3c3.5-3.5 4.6-8 3.2-12.7a12 12 0 0 0-6.1-7.4 10 10 0 0 0-6-1.5c-11.5 0-17 14-8.6 21.9 1.8 1.7 1.8 1.9 1.8 5.4 0 4.3-1.1 7.2-3.5 9.2a9.3 9.3 0 0 1-14.3-2.4l-1.2-2.2V119l1.8 2.6c1 1.5 2.8 3.5 4 4.3 4.7 3.2 5 3.2 26.1 3.5 10.6 0 19.8.3 20.4.4 1.6.4 2.3 2.4 2.3 6.6 0 3.6 0 3.8-1.8 5.5-3 2.7-4 5.4-4 9.3a12 12 0 0 0 12.5 12.6c7.2 0 12.6-5.3 12.6-12.6 0-3.8-1-6-3.9-9l-2-2-.1-6c-.2-4.7-.4-6.5-1.3-8.4a18.8 18.8 0 0 0-8.4-8.5l-2.8-1.4-20.5-.2-20.5-.1-1-1.4c-.8-1-1-2.1-1-4v-2.8l14.8-.2c14.1-.1 14.9-.2 17.3-1.3 3.3-1.5 6.2-4.3 8-7.6l1.3-2.6.2-15c.1-13.3.2-15 1-15.6.7-.4 4.4-.6 16-.6h15l1 1.6a13 13 0 0 0 8.4 4.4c7.6.8 14-4.9 14-12.4 0-4-1.4-7.2-4.2-9.6-5-4.5-12-4.4-17.1.3l-2.4 2.2-17 .2-17 .1-2.6 1.4c-1.4.8-3.6 2.5-4.7 3.8-3.6 4.1-3.9 5.3-4 21.4l-.5 14.8c-.2.6-2.8.7-11 .7h-10.6l2-1c3-1.7 6.3-5 7.9-8.3l1.4-2.8.2-30.1c.3-29 .4-30.2 1.3-30.9.7-.5 2.5-.7 6.1-.7 4.9 0 5.2 0 6.1 1.3 1.8 2.3 5.4 4 8.9 4.2 6 .5 11.2-3 13-8.8 1-3.2 1-4.1-.1-7.5a12.1 12.1 0 0 0-12-8.8c-4 0-7 1.3-9.3 4l-1.5 1.7H714c-10 0-15.5 3-19 10.2l-1.7 3.4-.3 29.9c-.2 28.8-.3 29.9-1.2 30.6-.8.6-3 .7-10 .7H673V69.8h1.8c3.6 0 7.6-2.5 9.5-6 .7-1.3.8-4 1-20.3.1-12.7 0-20-.4-22.4A25.9 25.9 0 0 0 667 1c-2.8-1-4.5-1.1-8.7-1a17 17 0 0 0-9.2 2.1c-7 3.4-12.1 9.4-14 16.4-.7 3-.9 6.2-.9 22.8 0 20.5.1 21.5 2.4 24.5 1.5 2 5.5 3.9 8.1 3.9h1.9v10.8h-9.2c-8.7 0-9.3 0-10.2-1-1-1.1-1-2.6-1.3-31.2l-.2-30-1.3-2.6a19.3 19.3 0 0 0-8.7-8.4c-2.5-1.2-3.7-1.4-9.4-1.5-6.3-.2-6.6-.3-7.4-1.5-.4-.6-2-1.9-3.5-2.8a12.7 12.7 0 0 0-12.1-.2Z" fill="#0400C6" fill-opacity=".2" stroke="#0B14EC" stroke-width="6" mask="url(#h)"/>
  <mask id="i" fill="#fff">
    <path d="M626.6 234.4c-5.6 2.8-8 9-6.2 15.4.8 2.8 5.1 7.1 8 8 4.7 1.3 9.6.2 12.8-3l2-2.1h5.2c4.7 0 5.4 0 6.2 1 1 1.1 1 2.6 1.3 31.2l.2 30 1.3 2.6c1.5 3 4.8 6.4 7.5 8l2 1h-10.3c-7.8 0-10.5-.2-11-.7-.3-.4-.6-6-.7-15.6l-.1-15-1.6-2.7c-1.9-3.4-4.7-6-8.3-7.3-2.6-1-4-1-19-1h-16.3l-1.4-1.8a12.7 12.7 0 1 0-14.5 20.3c4.7 2.1 9.4 1.2 13.7-2.6l2.9-2.5h14.5c12.4 0 14.7 0 15.7.8 1.1.8 1.1.9 1.1 15 0 13 .2 14.3 1.1 17 1.3 3.4 4.4 6.7 8 8.5 2.5 1.2 2.9 1.3 17.5 1.5l15 .3v3c-.1 5 1.2 4.7-22.4 5-20 .2-20.5.3-23 1.4-3 1.4-7 5-8.5 8.1a25.8 25.8 0 0 0-2 11.5c0 3.6-.2 4-1.6 5.1-.8.7-2.1 2.6-3 4.1a9.2 9.2 0 0 0-1 6.2c.9 11.4 14.5 16.2 22 7.7 2.3-2.7 3.1-4.8 3.1-8.5 0-3.9-.8-6-3.6-9-2-2.2-2-2.2-2-6.4 0-6.8-1.4-6.4 18.7-6.3 9.4 0 18.8-.2 21-.4 6-.7 10.1-3.2 13.4-8.3l1.5-2.3V377c0 23.7-.2 25.7-1 27.6a9.4 9.4 0 0 1-16.8 1c-1.1-1.8-1.3-2.8-1.3-6.4 0-4.1 0-4.3 1.6-5.6 1-.7 2.1-2.5 2.8-4 4.4-9.5-3.9-20-14-17.8a13 13 0 0 0-6 21.9c1.6 1.4 1.7 1.8 1.7 5 0 10.7 5 19.2 13.7 23.3 3 1.4 4.3 1.7 8.5 1.8 3.7.2 5.7 0 7.8-.6a22.8 22.8 0 0 0 13-10c3.4-5.8 3.3-5.1 3.3-40V342h7.3V372c0 17.9.2 31.3.5 32.9 1.3 7.2 6.5 14 13.2 17.1 3.4 1.6 3.8 1.7 9.7 1.7 5.6 0 6.4-.2 9-1.4 9-4.2 14-12 14-22.2v-4.6l2.3-2.3c3.5-3.5 4.5-8 3.1-12.7a12 12 0 0 0-6-7.4 10 10 0 0 0-6.2-1.5c-11.4 0-16.8 14-8.5 21.8 1.8 1.8 1.8 2 1.8 5.5 0 4.2-1 7.1-3.5 9.2a9.3 9.3 0 0 1-14.2-2.4l-1.3-2.2V352l1.8 2.7c1 1.5 2.8 3.4 4.1 4.3 4.6 3.2 4.9 3.2 26 3.5 10.6 0 19.8.3 20.4.4 1.6.3 2.3 2.4 2.3 6.6 0 3.6 0 3.8-1.8 5.5-2.9 2.7-4 5.4-4 9.3a12 12 0 0 0 12.5 12.6c7.3 0 12.6-5.3 12.6-12.6 0-3.9-1-6-3.8-9l-2-2-.2-6c-.2-4.7-.4-6.5-1.3-8.4a18.8 18.8 0 0 0-8.3-8.5l-3-1.5-20.4-.1-20.4-.2-1.1-1.3c-.7-1-1-2.1-1-4v-2.8l14.8-.2c14.2-.1 14.9-.2 17.3-1.3 3.3-1.5 6.2-4.3 8-7.6l1.3-2.6.2-15c.1-13.3.2-15 1-15.6.7-.5 4.4-.6 16-.6h15l1 1.6a13 13 0 0 0 8.5 4.4c7.5.8 13.9-4.9 13.9-12.4 0-4-1.4-7.2-4.2-9.7-5-4.5-12-4.3-17.1.4l-2.4 2.2-17 .2-17 .1-2.6 1.4c-1.4.8-3.6 2.5-4.7 3.8-3.6 4.1-3.9 5.3-4 21.4-.2 7.8-.3 14.5-.5 14.8-.1.5-2.8.7-11 .7h-10.6l2-1c3-1.7 6.3-5.1 8-8.3l1.3-2.8.3-30.1c.2-29 .3-30.2 1.2-30.9.7-.5 2.5-.7 6.1-.7 4.9 0 5.2 0 6.2 1.3 1.7 2.2 5.3 4 8.8 4.2 6 .5 11.3-3 13-8.8 1-3.2 1-4.2 0-7.5a12.1 12.1 0 0 0-12.2-8.8c-3.9 0-7 1.3-9.2 3.9l-1.5 1.7h-5.4c-10 0-15.4 3-19 10.3l-1.7 3.4-.3 29.9c-.2 28.8-.3 29.8-1.2 30.6-.8.5-3 .7-10 .7h-8.8v-10.9h1.8c3.6 0 7.5-2.4 9.4-5.9.8-1.3.9-4 1-20.3.1-12.7 0-20-.4-22.4a25.9 25.9 0 0 0-17.7-20.1c-2.8-.8-4.5-1-8.7-.8a17 17 0 0 0-9.1 2c-7 3.3-12.2 9.4-14 16.4-.8 3-1 6.2-1 22.8 0 20.5.1 21.4 2.4 24.5 1.5 2 5.5 3.8 8.1 3.8h1.9v10.9h-9.2c-8.7 0-9.3 0-10.2-1.1-1-1-1-2.5-1.2-31.1l-.3-30-1.3-2.6a19.3 19.3 0 0 0-8.6-8.4c-2.6-1.2-3.7-1.4-9.5-1.6-6.3-.2-6.6-.2-7.4-1.4-.4-.7-2-2-3.5-2.8a12.7 12.7 0 0 0-12.1-.2Z"/>
  </mask>
  <path d="M626.6 234.4c-5.6 2.8-8 9-6.2 15.4.8 2.8 5.1 7.1 8 8 4.7 1.3 9.6.2 12.8-3l2-2.1h5.2c4.7 0 5.4 0 6.2 1 1 1.1 1 2.6 1.3 31.2l.2 30 1.3 2.6c1.5 3 4.8 6.4 7.5 8l2 1h-10.3c-7.8 0-10.5-.2-11-.7-.3-.4-.6-6-.7-15.6l-.1-15-1.6-2.7c-1.9-3.4-4.7-6-8.3-7.3-2.6-1-4-1-19-1h-16.3l-1.4-1.8a12.7 12.7 0 1 0-14.5 20.3c4.7 2.1 9.4 1.2 13.7-2.6l2.9-2.5h14.5c12.4 0 14.7 0 15.7.8 1.1.8 1.1.9 1.1 15 0 13 .2 14.3 1.1 17 1.3 3.4 4.4 6.7 8 8.5 2.5 1.2 2.9 1.3 17.5 1.5l15 .3v3c-.1 5 1.2 4.7-22.4 5-20 .2-20.5.3-23 1.4-3 1.4-7 5-8.5 8.1a25.8 25.8 0 0 0-2 11.5c0 3.6-.2 4-1.6 5.1-.8.7-2.1 2.6-3 4.1a9.2 9.2 0 0 0-1 6.2c.9 11.4 14.5 16.2 22 7.7 2.3-2.7 3.1-4.8 3.1-8.5 0-3.9-.8-6-3.6-9-2-2.2-2-2.2-2-6.4 0-6.8-1.4-6.4 18.7-6.3 9.4 0 18.8-.2 21-.4 6-.7 10.1-3.2 13.4-8.3l1.5-2.3V377c0 23.7-.2 25.7-1 27.6a9.4 9.4 0 0 1-16.8 1c-1.1-1.8-1.3-2.8-1.3-6.4 0-4.1 0-4.3 1.6-5.6 1-.7 2.1-2.5 2.8-4 4.4-9.5-3.9-20-14-17.8a13 13 0 0 0-6 21.9c1.6 1.4 1.7 1.8 1.7 5 0 10.7 5 19.2 13.7 23.3 3 1.4 4.3 1.7 8.5 1.8 3.7.2 5.7 0 7.8-.6a22.8 22.8 0 0 0 13-10c3.4-5.8 3.3-5.1 3.3-40V342h7.3V372c0 17.9.2 31.3.5 32.9 1.3 7.2 6.5 14 13.2 17.1 3.4 1.6 3.8 1.7 9.7 1.7 5.6 0 6.4-.2 9-1.4 9-4.2 14-12 14-22.2v-4.6l2.3-2.3c3.5-3.5 4.5-8 3.1-12.7a12 12 0 0 0-6-7.4 10 10 0 0 0-6.2-1.5c-11.4 0-16.8 14-8.5 21.8 1.8 1.8 1.8 2 1.8 5.5 0 4.2-1 7.1-3.5 9.2a9.3 9.3 0 0 1-14.2-2.4l-1.3-2.2V352l1.8 2.7c1 1.5 2.8 3.4 4.1 4.3 4.6 3.2 4.9 3.2 26 3.5 10.6 0 19.8.3 20.4.4 1.6.3 2.3 2.4 2.3 6.6 0 3.6 0 3.8-1.8 5.5-2.9 2.7-4 5.4-4 9.3a12 12 0 0 0 12.5 12.6c7.3 0 12.6-5.3 12.6-12.6 0-3.9-1-6-3.8-9l-2-2-.2-6c-.2-4.7-.4-6.5-1.3-8.4a18.8 18.8 0 0 0-8.3-8.5l-3-1.5-20.4-.1-20.4-.2-1.1-1.3c-.7-1-1-2.1-1-4v-2.8l14.8-.2c14.2-.1 14.9-.2 17.3-1.3 3.3-1.5 6.2-4.3 8-7.6l1.3-2.6.2-15c.1-13.3.2-15 1-15.6.7-.5 4.4-.6 16-.6h15l1 1.6a13 13 0 0 0 8.5 4.4c7.5.8 13.9-4.9 13.9-12.4 0-4-1.4-7.2-4.2-9.7-5-4.5-12-4.3-17.1.4l-2.4 2.2-17 .2-17 .1-2.6 1.4c-1.4.8-3.6 2.5-4.7 3.8-3.6 4.1-3.9 5.3-4 21.4-.2 7.8-.3 14.5-.5 14.8-.1.5-2.8.7-11 .7h-10.6l2-1c3-1.7 6.3-5.1 8-8.3l1.3-2.8.3-30.1c.2-29 .3-30.2 1.2-30.9.7-.5 2.5-.7 6.1-.7 4.9 0 5.2 0 6.2 1.3 1.7 2.2 5.3 4 8.8 4.2 6 .5 11.3-3 13-8.8 1-3.2 1-4.2 0-7.5a12.1 12.1 0 0 0-12.2-8.8c-3.9 0-7 1.3-9.2 3.9l-1.5 1.7h-5.4c-10 0-15.4 3-19 10.3l-1.7 3.4-.3 29.9c-.2 28.8-.3 29.8-1.2 30.6-.8.5-3 .7-10 .7h-8.8v-10.9h1.8c3.6 0 7.5-2.4 9.4-5.9.8-1.3.9-4 1-20.3.1-12.7 0-20-.4-22.4a25.9 25.9 0 0 0-17.7-20.1c-2.8-.8-4.5-1-8.7-.8a17 17 0 0 0-9.1 2c-7 3.3-12.2 9.4-14 16.4-.8 3-1 6.2-1 22.8 0 20.5.1 21.4 2.4 24.5 1.5 2 5.5 3.8 8.1 3.8h1.9v10.9h-9.2c-8.7 0-9.3 0-10.2-1.1-1-1-1-2.5-1.2-31.1l-.3-30-1.3-2.6a19.3 19.3 0 0 0-8.6-8.4c-2.6-1.2-3.7-1.4-9.5-1.6-6.3-.2-6.6-.2-7.4-1.4-.4-.7-2-2-3.5-2.8a12.7 12.7 0 0 0-12.1-.2Z" fill="#0B14EC" fill-opacity=".2" stroke="#0B14EC" stroke-width="6" mask="url(#i)"/>
</svg>
