<svg class="hill-setup-desktop"viewBox="0 0 755 587" fill="none" xmlns="http://www.w3.org/2000/svg">
  <g id="hill-setup-desktop">
    <path id="mid-hill" d="M400.5 389.4c-136.5 82.5-134.1 85.7-263.6 0C7.5 303.6-169 583-169 583h826S537 306.8 400.5 389.4Z" fill="url(#paint0_linear_506_351)"/>
    <path id="back-hill" d="M498.5 392.4c-136.5 82.5-134.1 85.7-263.6 0C105.5 306.6-71 586-71 586h826S635 309.8 498.5 392.4Z" fill="url(#paint1_linear_506_351)" fill-opacity=".5"/>
    <g id="coins">
      <g class="coin-1">
      <use xlink:href="#coin-template-desktop">
      </g>
      <g class="coin-2">
      <use xlink:href="#coin-template-desktop">
      </g>
      <g class="coin-3">
      <use xlink:href="#coin-template-desktop">
      </g>
      <g class="coin-4">
      <use xlink:href="#coin-template-desktop">
      </g>
      <g class="coin-5">
      <use xlink:href="#coin-template-desktop">
      </g>
      <g class="coin-6">
      <use xlink:href="#coin-template-desktop">
      </g>
      <g class="coin-7">
      <use xlink:href="#coin-template-desktop">
      </g>
      <g class="coin-8">
      <use xlink:href="#coin-template-desktop">
      </g>
      <g class="coin-9">
      <use xlink:href="#coin-template-desktop">
      </g>
      <g class="coin-10">
      <use xlink:href="#coin-template-desktop">
      </g>
    </g>
    <g id="hill-clam">
      <path id="Vector 4" d="m322.2 493.9 32.4 13 7.5-3.6 12.3-2.6 12.8-3.6 6.5-10 1.7-8 26.8-19 8-11.6-1.9-16.6L430 417l1.8-14.9-13.3-11.3-4.1-13.9-14.3-7-9-3.9-15.4-9.2-19.3 2.5-11.7-2.7-9.6-.1-12.8 11H312l-10.7 6.3L296 387l-10.8 6.8-4.3 10 4.1 18.8-2.7 4.7-1.7 12.8 5.7 14 17 13.4 9.5 8 9.4 18.3Z" fill="url(#paint2_linear_506_351)"/>
      <path id="Vector" d="M340 355.4c-2.7.3-6.3 1.5-8.6 2.8a26.2 26.2 0 0 0-7.5 6.7l-1.3 1.9-3.4-.1c-4.3-.1-7.6.6-11.6 2.6-6 3-9.8 8.2-11 15.3l-.4 2.5-1.8.6a22 22 0 0 0-10.7 8.6c-1.8 3-2.5 5.8-2.6 10.1-.1 5.3.8 9.6 2.9 14.5l1 2.4-.7 1.2a29.5 29.5 0 0 0-2.6 23.7c1 3 1.8 4.8 3.8 7.4 1.6 2.3 3.4 3.8 7.3 6.4 3.2 2.1 9.8 6.9 12 8.8l5.4 4.6 4 3.4.3 2.4c.7 5 2.5 9.1 5.9 12.8a23 23 0 0 0 17.2 7.6h2.8l3 2.2c5 3.4 9.7 5.6 12.7 5.6s7.3-1.6 12.5-4.9l3.5-2.2h2.8a23 23 0 0 0 23.9-19.7l.4-2.6 3.3-2.6c5.4-4.3 12.2-9.2 16.8-12 6.2-4 7.4-4.9 9.3-7.2 2.1-2.6 3.7-5.7 4.7-9.2.7-2.2.8-3.3.9-7.7 0-4.6 0-5.4-.7-8-.5-1.5-1.4-3.8-2-5l-1.2-2.3 1-2c3-6.5 4.3-14 3.3-19.5-.2-1.2-.9-3.3-1.5-4.5-2-4.2-7-8.6-11.5-10.2-1-.3-1.1-.4-1.3-2.3-.4-4.3-2.4-9-5.3-12.3a24 24 0 0 0-18.3-7c-1.8 0-2 0-2.2-.6 0-.4-1-1.7-1.9-3a22.5 22.5 0 0 0-15.3-8.6 29 29 0 0 0-18.3 3.4 29 29 0 0 0-19-4Zm10.3 5.5c.9.2 2.6 1 3.8 1.5l2.2 1.2-1.1 61.6c-.6 34-1.2 61.5-1.3 61.4-.4-1-27.1-116-27.1-116.4 0-1.8 4.5-6.4 7.8-8a18 18 0 0 1 10.3-2c2 .1 4.4.4 5.4.7Zm28.2.3c4.5 1 9.4 4.6 11.7 8.4l1 1.5-16 57.4-16 57.8 1-61 1.3-61.4 1.3-.8c4.1-2.3 10.5-3 15.7-2Zm-56.7 10.6c.3.2 26.8 113.3 26.6 113.4a5178.7 5178.7 0 0 1-47.2-97.7c0-1.6 1.2-5.7 2.2-7.6 2-4 7-7.3 11.8-8a20 20 0 0 1 6.6-.1Zm81.3 1.7a16.3 16.3 0 0 1 12.2 13c.3 1.2.5 2.7.4 3.2a5944.5 5944.5 0 0 1-51 95.8l31-112.4a22 22 0 0 1 7.4.4Zm-85 60.8 23.4 48.1c1.6 3.4 2.7 5.9 2.4 5.5-.7-.6-51-62.1-53-64.8-3-3.8-5.1-11-5-16.7a14 14 0 0 1 6.6-12.3c1.9-1.2 4.6-2.3 5-2l20.5 42.2Zm104.9-38c2 1.1 4.3 3.7 5.3 5.9 2.4 5.4 1.5 13-2.7 21l-2 3.8-26.9 30.4a4288.8 4288.8 0 0 1-27.5 31c-.3.3 1-2.4 3-6l24.6-46 21.8-40.7.8-1.3 1.2.5 2.4 1.3Zm-104.9 68c32.1 39.3 30.1 36.8 29.5 36.4-2.7-1.6-10.4-8-22.2-18.7a243.8 243.8 0 0 0-31.4-25.4 17 17 0 0 1-7.8-10.5c-.8-2.2-.8-2.9-.7-7.3 0-5 .3-6.4 1.9-9.8.6-1.4.6-1.4 1.2-.8l29.5 36ZM428.3 434c1.7 6 .8 14-2.1 18.9a21.8 21.8 0 0 1-7.9 7 315.3 315.3 0 0 0-33.4 25.4c-5.4 4.5-11.1 9.2-12.8 10.4-3.3 2.6-6.9 5-6.7 4.6l30.8-35c28.9-32.6 30.7-34.6 31.1-34l1 2.7ZM393 485.8a18.8 18.8 0 0 1-13.1 11.2l-1.3.2 1.3-1c9.1-7.8 13.3-11.2 13.3-11.2l-.2.8Zm-59.7 10c.9 1-1.4.2-4.3-1.2a18.3 18.3 0 0 1-8.8-10.2c0-.2 12 10.3 13.1 11.5Z" fill="url(#paint3_linear_506_351)"/>
    </g>
    <path id="front-hill" d="M492 461.3c-137.4 51.9-135 53.9-265.2 0S-81 583-81 583h831S629.3 409.4 492 461.3Z" fill="url(#paint4_radial_506_351)"/>
    <path id="octo-9" d="M-62.1 71.4c-3.7 2-5.3 6.1-4 10.4.6 1.9 3.5 4.7 5.5 5.2 3.2 1 6.4 0 8.5-2.1l1.3-1.4 3.5-.1c3.2 0 3.6 0 4.2.7.6.6.7 1.6 1.2 20.8l.6 20 .9 1.8c1 2 3.2 4.3 5 5.2l1.4.7-6.9.2c-5.2 0-7 0-7.3-.4-.3-.2-.5-4-.7-10.4l-.3-10-1-1.9c-1.4-2.2-3.3-3.9-5.7-4.7-1.8-.6-2.7-.7-12.8-.5l-10.8.2-1-1.2a8.5 8.5 0 1 0-9.5 13.8c3.1 1.4 6.3.7 9.2-2l1.8-1.6 9.8-.2c8.2-.2 9.8-.1 10.5.4.8.5.8.5 1 10 .1 8.7.2 9.6.9 11.3.9 2.3 3 4.5 5.4 5.6 1.7.8 2 .9 11.7.9h10l.1 2c0 3.3 1 3.1-14.9 3.6-13.4.4-13.7.5-15.4 1.2a14 14 0 0 0-5.6 5.6c-.9 1.8-1.3 4.5-1.2 7.7 0 2.4 0 2.6-1 3.4-.6.5-1.4 1.8-1.9 2.8a6.2 6.2 0 0 0-.7 4.2c.8 7.6 10 10.6 14.9 4.8 1.5-1.8 2-3.2 2-5.7 0-2.6-.7-4-2.5-6-1.5-1.4-1.5-1.4-1.5-4.2-.1-4.6-1-4.3 12.5-4.5 6.3 0 12.6-.3 14-.5 4.1-.5 6.8-2.3 8.9-5.7l1-1.6.3 17.1c.3 15.9.2 17.2-.4 18.5a6.3 6.3 0 0 1-11.2 1c-.7-1.3-.9-2-1-4.4 0-2.7 0-2.8 1-3.8.7-.5 1.5-1.7 2-2.7a8.5 8.5 0 0 0-9.7-11.8 8.7 8.7 0 0 0-3.7 14.8c1 1 1.1 1.2 1.1 3.3.2 7.2 3.7 12.9 9.5 15.5 2 1 2.9 1 5.8 1.1 2.4 0 3.7 0 5.1-.5 3.8-1.3 6.7-3.6 8.6-6.9 2.2-3.9 2.2-3.5 1.8-26.8l-.4-21h4.8l.4 20.1c.2 12 .5 21 .8 22 1 4.9 4.5 9.3 9 11.4 2.3 1 2.6 1 6.5 1 3.8-.1 4.4-.2 6-1 6-3 9.2-8.3 9.1-15.1v-3.1l1.5-1.6c2.3-2.4 3-5.4 2-8.5a8 8 0 0 0-4.2-5c-1.5-.7-2.3-1-4.1-.8-7.7.1-11.1 9.5-5.5 14.7 1.2 1.1 1.3 1.3 1.3 3.6 0 2.9-.6 4.8-2.2 6.2-3 2.7-7.5 2-9.6-1.4l-.9-1.5-.3-17.2-.3-17.3 1.2 1.8c.7 1 2 2.2 2.8 2.8 3.2 2 3.4 2 17.5 2h13.7c1 .2 1.5 1.6 1.6 4.4 0 2.4 0 2.6-1.2 3.7a7.8 7.8 0 0 0-2.6 6.3 8 8 0 0 0 8.6 8.3c4.9 0 8.4-3.7 8.3-8.6 0-2.6-.7-4-2.7-6l-1.3-1.4-.2-4c-.2-3-.4-4.2-1-5.5-1-2.3-3.4-4.6-5.7-5.6l-2-1-13.7.2-13.7.1-.7-.8c-.5-.7-.7-1.5-.7-2.8v-1.8l9.9-.3c9.5-.3 10-.3 11.6-1 2.1-1.1 4-3 5.2-5.3l.9-1.7-.1-10c0-9 0-10.1.5-10.5.4-.4 3-.5 10.7-.6l10-.2.8 1a8.7 8.7 0 0 0 5.7 2.9c5 .4 9.2-3.5 9.1-8.5 0-2.7-1-4.8-2.9-6.4a8.3 8.3 0 0 0-11.4.4l-1.6 1.5-11.4.4-11.3.3-1.8 1c-1 .5-2.4 1.6-3.1 2.5-2.4 2.8-2.5 3.6-2.5 14.4v10c-.2.3-2 .4-7.4.5l-7.2.2 1.4-.8c2-1.1 4.1-3.4 5.2-5.6l.9-2-.2-20c-.2-19.5-.2-20.3.4-20.8.5-.3 1.7-.5 4.1-.5 3.3 0 3.5 0 4.2.8a8.6 8.6 0 0 0 6 2.7c4 .3 7.4-2.2 8.5-6 .6-2.2.6-2.9-.1-5a8.1 8.1 0 0 0-8.2-5.9c-2.6 0-4.7 1-6.1 2.8l-1 1.2h-3.7c-6.6.2-10.3 2.2-12.6 7.1l-1 2.4.1 20c.2 19.2.2 20-.4 20.5-.5.4-2 .5-6.7.6h-6v-7.2h1.1c2.4 0 5-1.8 6.3-4 .5-1 .5-2.8.4-13.7 0-8.5-.3-13.4-.5-15C4.9 77 0 71.9-6 70c-2-.5-3-.6-5.9-.4-3.2.1-3.7.3-6 1.4-4.7 2.4-8.1 6.5-9.3 11.2a75 75 0 0 0-.3 15.3c.2 13.7.3 14.4 2 16.4.9 1.3 3.6 2.5 5.4 2.5h1.2v3.6l.2 3.6-6.2.1c-5.8.1-6.2 0-6.8-.6-.7-.7-.7-1.7-1.2-20.8l-.6-20.1-.9-1.7a12.9 12.9 0 0 0-5.9-5.6c-1.7-.8-2.5-.8-6.4-.9-4.1 0-4.4 0-4.9-.9a8.6 8.6 0 0 0-2.4-1.8 8.5 8.5 0 0 0-8.1 0Z" fill="url(#paint5_linear_506_351)"/>
    <path id="octo-8" d="M68.9 132.4c-3.7 2-5.3 6.1-4 10.4.6 1.9 3.5 4.7 5.5 5.2 3.2 1 6.4 0 8.5-2.1l1.3-1.4 3.5-.1c3.2 0 3.6 0 4.2.7.6.6.7 1.6 1.2 20.8l.6 20 .9 1.8c1 2 3.2 4.3 5 5.2l1.4.7-6.9.2c-5.2 0-7 0-7.3-.4-.3-.2-.5-4-.7-10.4l-.3-10-1-1.9c-1.4-2.2-3.3-3.9-5.7-4.7-1.8-.6-2.7-.7-12.8-.5l-10.8.2-1-1.2a8.5 8.5 0 1 0-9.5 13.8c3.1 1.4 6.3.7 9.2-2l1.8-1.6 9.8-.2c8.2-.2 9.8-.1 10.5.4.8.5.8.5 1 10 .1 8.7.2 9.6.9 11.3.9 2.3 3 4.5 5.4 5.6 1.7.8 2 .9 11.7.9h10l.1 2c0 3.3 1 3.1-14.9 3.6-13.4.4-13.7.5-15.4 1.2a14 14 0 0 0-5.6 5.6c-.9 1.8-1.3 4.5-1.2 7.7 0 2.4 0 2.6-1 3.4-.6.5-1.4 1.8-1.9 2.8a6.2 6.2 0 0 0-.7 4.2c.8 7.6 10 10.6 14.9 4.8 1.5-1.8 2-3.2 2-5.7 0-2.6-.7-4-2.5-6-1.5-1.4-1.5-1.4-1.5-4.2-.1-4.6-1-4.3 12.5-4.5 6.3 0 12.6-.3 14-.5 4.1-.5 6.8-2.3 8.9-5.7l1-1.6.3 17.1c.3 15.9.2 17.2-.4 18.5a6.3 6.3 0 0 1-11.2 1c-.7-1.3-.9-2-1-4.4 0-2.7 0-2.8 1-3.8.7-.5 1.5-1.7 2-2.7a8.5 8.5 0 0 0-9.7-11.8 8.7 8.7 0 0 0-3.7 14.8c1 1 1.1 1.2 1.1 3.3.2 7.2 3.7 12.9 9.5 15.5 2 1 2.9 1 5.8 1.1 2.4 0 3.7 0 5.1-.5 3.8-1.3 6.7-3.6 8.6-6.9 2.2-3.9 2.2-3.5 1.8-26.8l-.4-21h4.8l.4 20.1c.2 12 .5 21 .8 22 1 4.9 4.5 9.3 9 11.4 2.3 1 2.6 1 6.5 1 3.8-.1 4.4-.2 6-1 6-3 9.2-8.3 9.1-15.1v-3.1l1.5-1.6c2.3-2.4 3-5.4 2-8.5a8 8 0 0 0-4.2-5c-1.5-.7-2.3-1-4.1-.8-7.7.1-11.1 9.5-5.5 14.7 1.2 1.1 1.3 1.3 1.3 3.6 0 2.9-.6 4.8-2.2 6.2-3 2.7-7.5 2-9.6-1.4l-.9-1.5-.3-17.2-.3-17.3 1.2 1.8c.7 1 2 2.2 2.8 2.8 3.2 2 3.4 2 17.5 2h13.7c1 .2 1.5 1.6 1.6 4.4 0 2.4 0 2.6-1.2 3.7a7.8 7.8 0 0 0-2.6 6.3 8 8 0 0 0 8.6 8.3c4.9 0 8.4-3.7 8.3-8.6 0-2.6-.7-4-2.7-6l-1.3-1.4-.2-4c-.2-3-.4-4.2-1-5.5-1-2.3-3.4-4.6-5.7-5.6l-2-1-13.7.2-13.7.1-.7-.8c-.5-.7-.7-1.5-.7-2.8v-1.8l9.9-.3c9.5-.3 10-.3 11.6-1 2.1-1.1 4-3 5.2-5.3l.9-1.7-.1-10c0-9 0-10.1.5-10.5.4-.4 3-.5 10.7-.6l10-.2.8 1a8.7 8.7 0 0 0 5.7 2.9c5 .4 9.2-3.5 9.1-8.5 0-2.7-1-4.8-2.9-6.4a8.3 8.3 0 0 0-11.4.4l-1.6 1.5-11.4.4-11.3.3-1.8 1c-1 .5-2.4 1.6-3.1 2.5-2.4 2.8-2.5 3.6-2.5 14.4v10c-.2.3-2 .4-7.4.5l-7.2.2 1.4-.8c2-1.1 4.1-3.4 5.2-5.6l.9-2-.2-20c-.2-19.5-.2-20.3.4-20.8.5-.3 1.7-.5 4.1-.5 3.3 0 3.5 0 4.2.8a8.6 8.6 0 0 0 6 2.7c4 .3 7.4-2.2 8.5-6 .6-2.2.6-2.9-.1-5a8.1 8.1 0 0 0-8.2-5.9c-2.6 0-4.7 1-6.1 2.8l-1 1.2h-3.7c-6.6.2-10.3 2.2-12.6 7.1l-1 2.4.1 20c.2 19.2.2 20-.4 20.5-.5.4-2 .5-6.7.6h-6v-7.2h1.1c2.4 0 5-1.8 6.3-4 .5-1 .5-2.8.4-13.7 0-8.5-.3-13.4-.5-15-1.2-6.3-6-11.5-12.1-13.3-2-.5-3-.6-5.9-.4-3.2.1-3.7.3-6 1.4-4.7 2.4-8.1 6.5-9.3 11.2a75 75 0 0 0-.3 15.3c.2 13.7.3 14.4 2 16.4.9 1.3 3.6 2.5 5.4 2.5h1.2v3.6l.2 3.6-6.2.1c-5.8.1-6.2 0-6.8-.6-.7-.7-.7-1.7-1.2-20.8l-.6-20.1-.9-1.7a12.9 12.9 0 0 0-5.9-5.6c-1.7-.8-2.5-.8-6.4-.9-4.1 0-4.4 0-4.9-.9a8.6 8.6 0 0 0-2.4-1.8 8.5 8.5 0 0 0-8.1 0Z" fill="url(#paint6_linear_506_351)"/>
    <path id="octo-7" d="M168.9 38.4c-3.7 2-5.3 6.1-4 10.4.6 1.9 3.5 4.7 5.5 5.2 3.2 1 6.4 0 8.5-2.1l1.3-1.4 3.5-.1c3.2 0 3.6 0 4.2.7.6.6.7 1.6 1.2 20.8l.6 20 .9 1.8c1 2 3.2 4.3 5 5.2l1.4.7-6.9.2c-5.2 0-7 0-7.3-.4-.3-.2-.5-4-.7-10.4l-.3-10-1-1.9c-1.4-2.2-3.3-3.9-5.7-4.7-1.8-.6-2.7-.7-12.8-.5l-10.8.2-1-1.2a8.5 8.5 0 1 0-9.5 13.8c3.1 1.4 6.3.7 9.2-2l1.8-1.6 9.8-.2c8.2-.2 9.8-.1 10.5.4.8.5.8.5 1 10 .1 8.7.2 9.6.9 11.3.9 2.3 3 4.5 5.4 5.6 1.7.8 2 .9 11.8.9h10v2c0 3.3 1 3.1-14.9 3.6-13.4.4-13.7.5-15.4 1.2a14 14 0 0 0-5.6 5.6c-.9 1.8-1.3 4.5-1.2 7.7 0 2.4 0 2.6-1 3.4-.6.5-1.4 1.8-1.9 2.8a6.2 6.2 0 0 0-.7 4.2c.8 7.6 10 10.6 14.9 4.8 1.5-1.8 2-3.2 2-5.7 0-2.6-.7-4-2.5-6-1.5-1.4-1.5-1.4-1.5-4.2-.1-4.6-1-4.3 12.5-4.5 6.3 0 12.6-.3 14-.5 4.1-.5 6.8-2.3 8.9-5.7l1-1.6.3 17.1c.3 15.9.2 17.2-.4 18.5a6.3 6.3 0 0 1-11.2 1c-.7-1.3-.9-2-1-4.4 0-2.7 0-2.8 1-3.8.7-.5 1.5-1.7 2-2.7a8.5 8.5 0 0 0-9.7-11.8 8.7 8.7 0 0 0-3.7 14.8c1 1 1.1 1.2 1.1 3.3.2 7.2 3.7 12.9 9.5 15.5 2 1 2.9 1 5.8 1.1 2.4 0 3.7 0 5.1-.5 3.8-1.3 6.7-3.6 8.6-6.9 2.2-3.9 2.2-3.5 1.8-26.8l-.4-21h4.8l.4 20.1c.2 12 .5 21 .8 22 1 4.9 4.5 9.3 9 11.4 2.3 1 2.6 1 6.5 1 3.8-.1 4.4-.2 6-1 6-3 9.2-8.3 9.1-15.1v-3.1l1.5-1.6c2.3-2.4 3-5.4 2-8.5a8 8 0 0 0-4.2-5c-1.5-.7-2.3-1-4.1-.8-7.7.1-11.1 9.5-5.5 14.7 1.2 1.1 1.3 1.3 1.3 3.6 0 2.9-.6 4.8-2.2 6.2-3 2.7-7.5 2-9.6-1.4l-.9-1.5-.3-17.2-.3-17.3 1.2 1.8c.7 1 2 2.2 2.8 2.8 3.2 2 3.4 2 17.5 2h13.7c1 .2 1.5 1.6 1.6 4.4 0 2.4 0 2.6-1.2 3.7a7.8 7.8 0 0 0-2.6 6.3 8 8 0 0 0 8.6 8.3c4.9 0 8.4-3.7 8.3-8.6 0-2.6-.7-4-2.7-6l-1.3-1.4-.2-4c-.2-3-.4-4.2-1-5.5-1-2.3-3.4-4.6-5.7-5.6l-2-1-13.7.2-13.7.1-.7-.8c-.5-.7-.7-1.5-.7-2.8v-1.8l9.9-.3c9.5-.3 10-.3 11.6-1 2.1-1.1 4-3 5.2-5.3l.9-1.7-.1-10c0-9 0-10.1.5-10.5.4-.4 3-.5 10.7-.6l10-.2.8 1a8.7 8.7 0 0 0 5.7 2.9c5 .4 9.2-3.5 9.1-8.5 0-2.7-1-4.8-2.9-6.4a8.3 8.3 0 0 0-11.4.4l-1.6 1.5-11.4.4-11.3.3-1.8 1c-1 .5-2.4 1.6-3.1 2.5-2.4 2.8-2.5 3.6-2.5 14.4v10c-.2.3-2 .4-7.4.5l-7.2.2 1.4-.8c2-1.1 4.1-3.4 5.2-5.6l.9-2-.2-20c-.2-19.5-.2-20.3.4-20.8.5-.3 1.7-.5 4.1-.5 3.3 0 3.5 0 4.2.8a8.6 8.6 0 0 0 6 2.7c4 .3 7.4-2.2 8.5-6 .6-2.2.6-2.9-.1-5a8.1 8.1 0 0 0-8.2-5.9c-2.6 0-4.7 1-6.1 2.8l-1 1.2h-3.7c-6.6.2-10.3 2.2-12.6 7.1l-1 2.4.1 20c.2 19.2.2 20-.4 20.5-.5.4-2 .5-6.7.6h-6v-7.2h1.1c2.4 0 5-1.8 6.3-4 .5-1 .5-2.8.4-13.7 0-8.5-.3-13.4-.5-15-1.2-6.3-6-11.5-12.1-13.3-2-.5-3-.6-5.9-.4-3.2.1-3.7.3-6 1.4-4.7 2.4-8.1 6.5-9.3 11.2a75 75 0 0 0-.3 15.3c.2 13.7.3 14.4 2 16.4.9 1.3 3.6 2.5 5.4 2.5h1.2V87l.2 3.6-6.2.1c-5.8.1-6.2 0-6.8-.6-.7-.7-.7-1.7-1.2-20.8l-.6-20.1-.9-1.7a12.9 12.9 0 0 0-5.9-5.6c-1.7-.8-2.5-.8-6.3-.9-4.2 0-4.5 0-5-.9a8.6 8.6 0 0 0-2.4-1.8 8.5 8.5 0 0 0-8.1 0Z" fill="url(#paint7_linear_506_351)"/>
    <path id="octo-6" d="M298.9 97.4c-3.7 2-5.3 6.1-4 10.4.6 1.9 3.6 4.7 5.5 5.2 3.2 1 6.4 0 8.5-2.1l1.3-1.4 3.5-.1c3.2 0 3.6 0 4.2.7.6.6.7 1.6 1.2 20.8l.6 20 .9 1.8c1 2 3.2 4.3 5 5.2l1.4.7-6.9.2c-5.2 0-7 0-7.3-.4-.3-.2-.5-4-.7-10.4l-.3-10-1-1.9c-1.4-2.2-3.3-3.9-5.7-4.7-1.8-.6-2.7-.7-12.8-.5l-10.8.2-1-1.2a8.5 8.5 0 1 0-9.5 13.8c3.1 1.4 6.3.7 9.2-2l1.8-1.6 9.8-.2c8.2-.2 9.8-.1 10.5.4.8.5.8.5 1 10 .1 8.7.2 9.6.9 11.3.9 2.3 3 4.5 5.4 5.6 1.7.8 2 .9 11.8.9h10v2c0 3.3 1 3.1-14.9 3.6-13.4.4-13.7.5-15.4 1.2a14 14 0 0 0-5.6 5.6c-.9 1.8-1.3 4.5-1.2 7.7 0 2.4 0 2.6-1 3.4-.6.5-1.4 1.8-1.9 2.8a6.2 6.2 0 0 0-.7 4.2c.8 7.6 10 10.6 14.9 4.8 1.5-1.8 2-3.2 2-5.7 0-2.6-.7-4-2.5-6-1.5-1.4-1.5-1.4-1.5-4.2-.1-4.6-1-4.3 12.5-4.5 6.3 0 12.6-.3 14-.5 4.1-.5 6.8-2.3 8.9-5.7l1-1.6.3 17.1c.3 15.9.2 17.2-.4 18.5a6.3 6.3 0 0 1-11.2 1c-.7-1.3-.9-2-1-4.4 0-2.7 0-2.8 1-3.8.7-.5 1.5-1.7 2-2.7a8.5 8.5 0 0 0-9.7-11.8 8.7 8.7 0 0 0-3.7 14.8c1 1 1.1 1.2 1.1 3.3.2 7.2 3.7 12.9 9.5 15.5 2 1 2.9 1 5.8 1.1 2.4 0 3.7 0 5.1-.5 3.8-1.3 6.7-3.6 8.6-6.9 2.2-3.9 2.2-3.5 1.8-26.8l-.4-21h4.8l.4 20.1c.2 12 .5 21 .8 22 1 4.9 4.5 9.3 9 11.4 2.3 1 2.6 1 6.5 1 3.8-.1 4.4-.2 6-1 6-3 9.2-8.3 9.1-15.1v-3.1l1.5-1.6c2.3-2.4 3-5.4 2-8.5a8 8 0 0 0-4.2-5c-1.5-.7-2.3-1-4.1-.8-7.7.1-11.1 9.5-5.5 14.7 1.2 1.1 1.3 1.3 1.3 3.6 0 2.9-.6 4.8-2.2 6.2-3 2.7-7.5 2-9.6-1.4l-.9-1.5-.3-17.2-.3-17.3 1.2 1.8c.7 1 2 2.2 2.8 2.8 3.2 2 3.4 2 17.5 2h13.7c1 .2 1.5 1.6 1.6 4.4 0 2.4 0 2.6-1.2 3.7a7.8 7.8 0 0 0-2.6 6.3 8 8 0 0 0 8.6 8.3c4.9 0 8.4-3.7 8.3-8.6 0-2.6-.7-4-2.7-6l-1.3-1.4-.2-4c-.2-3-.4-4.2-1-5.5-1-2.3-3.4-4.6-5.7-5.6l-2-1-13.7.2-13.7.1-.7-.8c-.5-.7-.7-1.5-.7-2.8v-1.8l9.9-.3c9.5-.3 10-.3 11.6-1 2.1-1.1 4-3 5.2-5.3l.9-1.7-.1-10c0-9 0-10.1.5-10.5.4-.4 3-.5 10.7-.6l10-.2.8 1a8.7 8.7 0 0 0 5.7 2.9c5 .4 9.2-3.5 9.1-8.5 0-2.7-1-4.8-2.9-6.4a8.3 8.3 0 0 0-11.4.4l-1.6 1.5-11.4.4-11.3.3-1.8 1c-1 .5-2.4 1.6-3.1 2.5-2.4 2.8-2.5 3.6-2.5 14.4v10c-.2.3-2 .4-7.4.5l-7.2.2 1.4-.8c2-1.1 4.1-3.4 5.2-5.6l.9-2-.2-20c-.2-19.5-.2-20.3.4-20.8.5-.3 1.7-.5 4.1-.5 3.3 0 3.5 0 4.2.8a8.6 8.6 0 0 0 6 2.7c4 .3 7.4-2.2 8.5-6 .6-2.2.6-2.9-.1-5a8.1 8.1 0 0 0-8.2-5.9c-2.6 0-4.7 1-6.1 2.8l-1 1.2h-3.7c-6.6.2-10.3 2.2-12.6 7.1l-1 2.4.1 20c.2 19.2.2 20-.4 20.5-.5.4-2 .5-6.7.6h-6v-7.2h1.1c2.4 0 5-1.8 6.3-4 .5-1 .5-2.8.4-13.7 0-8.5-.3-13.4-.5-15-1.2-6.3-6-11.5-12.1-13.3-2-.5-3-.6-5.9-.4-3.2.1-3.7.3-6 1.4-4.7 2.4-8.1 6.5-9.3 11.2a75 75 0 0 0-.3 15.3c.2 13.7.3 14.4 2 16.4.9 1.3 3.6 2.5 5.4 2.5h1.2v3.6l.2 3.6-6.2.1c-5.8.1-6.2 0-6.8-.6-.7-.7-.7-1.7-1.2-20.8l-.6-20.1-.9-1.7a12.9 12.9 0 0 0-5.9-5.6c-1.7-.8-2.5-.8-6.3-.9-4.2 0-4.5 0-5-.9a8.6 8.6 0 0 0-2.4-1.8 8.5 8.5 0 0 0-8.1 0Z" fill="url(#paint8_linear_506_351)"/>
    <path id="octo-5" d="M395.9 3.4c-3.7 2-5.3 6.1-4 10.4.6 1.9 3.6 4.7 5.5 5.2 3.2 1 6.4 0 8.5-2.1l1.3-1.4 3.5-.1c3.2 0 3.6 0 4.2.7.6.6.7 1.6 1.2 20.8l.6 20 .9 1.8c1 2 3.2 4.3 5 5.2l1.4.7-6.9.2c-5.2 0-7 0-7.3-.4-.3-.2-.5-4-.7-10.4l-.3-10-1-1.9c-1.4-2.2-3.3-3.9-5.7-4.7-1.8-.6-2.7-.7-12.8-.5l-10.8.2-1-1.2a8.5 8.5 0 1 0-9.5 13.8c3.1 1.4 6.3.7 9.2-2l1.8-1.6 9.8-.2c8.2-.2 9.8-.1 10.5.4.8.5.8.5 1 10 .1 8.7.2 9.6.9 11.3.9 2.3 3 4.5 5.4 5.6 1.7.8 2 .9 11.8.9h10v2c0 3.3 1 3.1-14.9 3.6-13.4.4-13.7.5-15.4 1.2a14 14 0 0 0-5.6 5.6c-.9 1.8-1.3 4.5-1.2 7.7 0 2.4 0 2.6-1 3.4-.6.5-1.4 1.8-1.9 2.8a6.2 6.2 0 0 0-.7 4.2c.8 7.6 10 10.6 14.9 4.8 1.5-1.8 2-3.2 2-5.7 0-2.6-.7-4-2.5-6-1.5-1.4-1.5-1.4-1.5-4.2-.1-4.6-1-4.3 12.5-4.5 6.3 0 12.6-.3 14-.5 4.1-.5 6.8-2.3 8.9-5.7l1-1.6.3 17.1c.3 15.9.2 17.2-.4 18.5a6.3 6.3 0 0 1-11.2 1c-.7-1.3-.9-2-1-4.4 0-2.7 0-2.8 1-3.8.7-.5 1.5-1.7 2-2.7a8.5 8.5 0 0 0-9.7-11.8 8.7 8.7 0 0 0-3.7 14.8c1 1 1.1 1.2 1.1 3.3.2 7.2 3.7 12.9 9.5 15.5 2 1 2.9 1 5.8 1.1 2.4 0 3.7 0 5.1-.5 3.8-1.3 6.7-3.6 8.6-6.9 2.2-3.9 2.2-3.5 1.8-26.8l-.4-21h4.8l.4 20.1c.2 12 .5 21 .8 22 1 4.9 4.5 9.3 9 11.4 2.3 1 2.6 1 6.5 1 3.8-.1 4.4-.2 6-1 6-3 9.2-8.3 9.1-15.1v-3.1l1.5-1.6c2.3-2.4 3-5.4 2-8.5a8 8 0 0 0-4.2-5c-1.5-.7-2.3-1-4.1-.8-7.7.1-11.1 9.5-5.5 14.7 1.2 1.1 1.3 1.3 1.3 3.6 0 2.9-.6 4.8-2.2 6.2-3 2.7-7.5 2-9.6-1.4l-.9-1.5-.3-17.2-.3-17.3 1.2 1.8c.7 1 2 2.2 2.8 2.8 3.2 2 3.4 2 17.5 2h13.7c1 .2 1.5 1.6 1.6 4.4 0 2.4 0 2.6-1.2 3.7a7.8 7.8 0 0 0-2.6 6.3 8 8 0 0 0 8.6 8.3c4.9 0 8.4-3.7 8.3-8.6 0-2.6-.7-4-2.7-6l-1.3-1.4-.2-4c-.2-3-.4-4.2-1-5.5-1-2.3-3.4-4.6-5.7-5.6l-2-1-13.7.2-13.7.1-.7-.8c-.5-.7-.7-1.5-.7-2.8v-1.8l9.9-.3c9.5-.3 10-.3 11.6-1 2.1-1.1 4-3 5.2-5.3l.9-1.7-.1-10c0-9 0-10.1.5-10.5.4-.4 3-.5 10.7-.6l10-.2.8 1a8.7 8.7 0 0 0 5.7 2.9c5 .4 9.2-3.5 9.1-8.5 0-2.7-1-4.8-2.9-6.4a8.3 8.3 0 0 0-11.4.4l-1.6 1.5-11.4.4-11.3.3-1.8 1c-1 .5-2.4 1.6-3.1 2.5-2.4 2.8-2.5 3.6-2.5 14.4v10c-.2.3-2 .4-7.4.5l-7.2.2 1.4-.8c2-1.1 4.1-3.4 5.2-5.6l.9-2-.2-20c-.2-19.5-.2-20.3.4-20.8.5-.3 1.7-.5 4.1-.5 3.3 0 3.5 0 4.2.8a8.6 8.6 0 0 0 6 2.7c4 .3 7.4-2.2 8.5-6 .6-2.2.6-2.9-.1-5a8.1 8.1 0 0 0-8.2-5.9c-2.6 0-4.7 1-6.1 2.8l-1 1.2h-3.7c-6.6.2-10.3 2.2-12.6 7.1l-1 2.4.1 20c.2 19.2.2 20-.4 20.5-.5.4-2 .5-6.7.6h-6v-7.2h1.1c2.4 0 5-1.8 6.3-4 .5-1 .5-2.8.4-13.7 0-8.5-.3-13.4-.5-15C462.9 9 458 3.9 452 2c-2-.5-3-.6-5.9-.4-3.2.1-3.7.3-6 1.4-4.7 2.4-8.1 6.5-9.3 11.2a75 75 0 0 0-.3 15.3c.2 13.7.3 14.4 2 16.4.9 1.3 3.6 2.5 5.4 2.5h1.2V52l.2 3.6-6.2.1c-5.8.1-6.2 0-6.8-.6-.7-.7-.7-1.7-1.2-20.8l-.6-20.1-.9-1.7a12.9 12.9 0 0 0-5.9-5.6c-1.7-.8-2.5-.8-6.3-.9-4.2 0-4.5 0-5-.9a8.6 8.6 0 0 0-2.4-1.8 8.5 8.5 0 0 0-8.1 0Z" fill="url(#paint9_linear_506_351)"/>
    <path id="octo-4" d="M423.9 125.4c-3.7 2-5.3 6.1-4 10.4.6 1.9 3.6 4.7 5.5 5.2 3.2 1 6.4 0 8.5-2.1l1.3-1.4 3.5-.1c3.2 0 3.6 0 4.2.7.6.6.7 1.6 1.2 20.8l.6 20 .9 1.8c1 2 3.2 4.3 5 5.2l1.4.7-6.9.2c-5.2 0-7 0-7.3-.4-.3-.2-.5-4-.7-10.4l-.3-10-1-1.9c-1.4-2.2-3.3-3.9-5.7-4.7-1.8-.6-2.7-.7-12.8-.5l-10.8.2-1-1.2a8.5 8.5 0 1 0-9.5 13.8c3.1 1.4 6.3.7 9.2-2l1.8-1.6 9.8-.2c8.2-.2 9.8-.1 10.5.4.8.5.8.5 1 10 .1 8.7.2 9.6.9 11.3.9 2.3 3 4.5 5.4 5.6 1.7.8 2 .9 11.8.9h10v2c0 3.3 1 3.1-14.9 3.6-13.4.4-13.7.5-15.4 1.2a14 14 0 0 0-5.6 5.6c-.9 1.8-1.3 4.5-1.2 7.7 0 2.4 0 2.6-1 3.4-.6.5-1.4 1.8-1.9 2.8a6.2 6.2 0 0 0-.7 4.2c.8 7.6 10 10.6 14.9 4.8 1.5-1.8 2-3.2 2-5.7 0-2.6-.7-4-2.5-6-1.5-1.4-1.5-1.4-1.5-4.2-.1-4.6-1-4.3 12.5-4.5 6.3 0 12.6-.3 14-.5 4.1-.5 6.8-2.3 8.9-5.7l1-1.6.3 17.1c.3 15.9.2 17.2-.4 18.5a6.3 6.3 0 0 1-11.2 1c-.7-1.3-.9-2-1-4.4 0-2.7 0-2.8 1-3.8.7-.5 1.5-1.7 2-2.7a8.5 8.5 0 0 0-9.7-11.8 8.7 8.7 0 0 0-3.7 14.8c1 1 1.1 1.2 1.1 3.3.2 7.2 3.7 12.9 9.5 15.5 2 1 2.9 1 5.8 1.1 2.4 0 3.7 0 5.1-.5 3.8-1.3 6.7-3.6 8.6-6.9 2.2-3.9 2.2-3.5 1.8-26.8l-.4-21h4.8l.4 20.1c.2 12 .5 21 .8 22 1 4.9 4.5 9.3 9 11.4 2.3 1 2.6 1 6.5 1 3.8-.1 4.4-.2 6-1 6-3 9.2-8.3 9.1-15.1v-3.1l1.5-1.6c2.3-2.4 3-5.4 2-8.5a8 8 0 0 0-4.2-5c-1.5-.7-2.3-1-4.1-.8-7.7.1-11.1 9.5-5.5 14.7 1.2 1.1 1.3 1.3 1.3 3.6 0 2.9-.6 4.8-2.2 6.2-3 2.7-7.5 2-9.6-1.4l-.9-1.5-.3-17.2-.3-17.3 1.2 1.8c.7 1 2 2.2 2.8 2.8 3.2 2 3.4 2 17.5 2h13.7c1 .2 1.5 1.6 1.6 4.4 0 2.4 0 2.6-1.2 3.7a7.8 7.8 0 0 0-2.6 6.3 8 8 0 0 0 8.6 8.3c4.9 0 8.4-3.7 8.3-8.6 0-2.6-.7-4-2.7-6l-1.3-1.4-.2-4c-.2-3-.4-4.2-1-5.5-1-2.3-3.4-4.6-5.7-5.6l-2-1-13.7.2-13.7.1-.7-.8c-.5-.7-.7-1.5-.7-2.8v-1.8l9.9-.3c9.5-.3 10-.3 11.6-1 2.1-1.1 4-3 5.2-5.3l.9-1.7-.1-10c0-9 0-10.1.5-10.5.4-.4 3-.5 10.7-.6l10-.2.8 1a8.7 8.7 0 0 0 5.7 2.9c5 .4 9.2-3.5 9.1-8.5 0-2.7-1-4.8-2.9-6.4a8.3 8.3 0 0 0-11.4.4l-1.6 1.5-11.4.4-11.3.3-1.8 1c-1 .5-2.4 1.6-3.1 2.5-2.4 2.8-2.5 3.6-2.5 14.4v10c-.2.3-2 .4-7.4.5l-7.2.2 1.4-.8c2-1.1 4.1-3.4 5.2-5.6l.9-2-.2-20c-.2-19.5-.2-20.3.4-20.8.5-.3 1.7-.5 4.1-.5 3.3 0 3.5 0 4.2.8a8.6 8.6 0 0 0 6 2.7c4 .3 7.4-2.2 8.5-6 .6-2.2.6-2.9-.1-5a8.1 8.1 0 0 0-8.2-5.9c-2.6 0-4.7 1-6.1 2.8l-1 1.2h-3.7c-6.6.2-10.3 2.2-12.6 7.1l-1 2.4.1 20c.2 19.2.2 20-.4 20.5-.5.4-2 .5-6.7.6h-6v-7.2h1.1c2.4 0 5-1.8 6.3-4 .5-1 .5-2.8.4-13.7 0-8.5-.3-13.4-.5-15-1.2-6.3-6-11.5-12.1-13.3-2-.5-3-.6-5.9-.4-3.2.1-3.7.3-6 1.4-4.7 2.4-8.1 6.5-9.3 11.2a75 75 0 0 0-.3 15.3c.2 13.7.3 14.4 2 16.4.9 1.3 3.6 2.5 5.4 2.5h1.2v3.6l.2 3.6-6.2.1c-5.8.1-6.2 0-6.8-.6-.7-.7-.7-1.7-1.2-20.8l-.6-20.1-.9-1.7a12.9 12.9 0 0 0-5.9-5.6c-1.7-.8-2.5-.8-6.3-.9-4.2 0-4.5 0-5-.9a8.6 8.6 0 0 0-2.4-1.8 8.5 8.5 0 0 0-8.1 0Z" fill="url(#paint10_linear_506_351)"/>
    <path id="octo-3" d="M554.9 186.4c-3.7 2-5.3 6.1-4 10.4.6 1.9 3.6 4.7 5.5 5.2 3.2 1 6.4 0 8.5-2.1l1.3-1.4 3.5-.1c3.2 0 3.6 0 4.2.7.6.6.7 1.6 1.2 20.8l.6 20 .9 1.8c1 2 3.2 4.3 5 5.2l1.4.7-6.9.2c-5.2 0-7 0-7.3-.4-.3-.2-.5-4-.7-10.4l-.3-10-1-1.9c-1.4-2.2-3.3-3.9-5.7-4.7-1.8-.6-2.7-.7-12.8-.5l-10.8.2-1-1.2a8.5 8.5 0 1 0-9.5 13.8c3.1 1.4 6.3.7 9.2-2l1.8-1.6 9.8-.2c8.2-.2 9.8-.1 10.5.4.8.5.8.5 1 10 .1 8.7.2 9.6.9 11.3.9 2.3 3 4.5 5.4 5.6 1.7.8 2 .9 11.8.9h10v2c0 3.3 1 3.1-14.9 3.6-13.4.4-13.7.5-15.4 1.2a14 14 0 0 0-5.6 5.6c-.9 1.8-1.3 4.5-1.2 7.7 0 2.4 0 2.6-1 3.4-.6.5-1.4 1.8-1.9 2.8a6.2 6.2 0 0 0-.7 4.2c.8 7.6 10 10.6 14.9 4.8 1.5-1.8 2-3.2 2-5.7 0-2.6-.7-4-2.5-6-1.5-1.4-1.5-1.4-1.5-4.2-.1-4.6-1-4.3 12.5-4.5 6.3 0 12.6-.3 14-.5 4.1-.5 6.8-2.3 8.9-5.7l1-1.6.3 17.1c.3 15.9.2 17.2-.4 18.5a6.3 6.3 0 0 1-11.2 1c-.7-1.3-.9-2-1-4.4 0-2.7 0-2.8 1-3.8.7-.5 1.5-1.7 2-2.7a8.5 8.5 0 0 0-9.7-11.8 8.7 8.7 0 0 0-3.7 14.8c1 1 1.1 1.2 1.1 3.4.2 7.1 3.7 12.8 9.5 15.4 2 1 2.9 1 5.8 1.1 2.4 0 3.7 0 5.1-.5 3.8-1.3 6.7-3.6 8.6-6.9 2.2-3.9 2.2-3.5 1.8-26.8l-.4-21h4.8l.4 20.1c.2 12 .5 21 .8 22 1 4.9 4.5 9.3 9 11.4 2.3 1 2.6 1 6.5 1 3.8-.1 4.4-.2 6-1 6-3 9.2-8.3 9.1-15.1v-3.1l1.5-1.6c2.3-2.4 3-5.4 2-8.5a8 8 0 0 0-4.2-5c-1.5-.7-2.3-1-4.1-.8-7.7.1-11.1 9.5-5.5 14.7 1.2 1.1 1.3 1.3 1.3 3.6 0 2.9-.6 4.8-2.2 6.2-3 2.7-7.5 2-9.6-1.4l-.9-1.5-.3-17.2-.3-17.3 1.2 1.8c.7 1 2 2.2 2.8 2.8 3.2 2 3.4 2 17.5 2h13.7c1 .2 1.5 1.6 1.6 4.4 0 2.4 0 2.6-1.2 3.7a7.8 7.8 0 0 0-2.6 6.3 8 8 0 0 0 8.6 8.3c4.9 0 8.4-3.7 8.3-8.6 0-2.6-.7-4-2.7-6l-1.3-1.4-.2-4c-.2-3-.4-4.2-1-5.5-1-2.3-3.4-4.6-5.7-5.6l-2-1-13.7.2-13.7.1-.7-.8c-.5-.7-.7-1.5-.7-2.8v-1.8l9.9-.3c9.5-.3 10-.3 11.6-1 2.1-1.1 4-3 5.2-5.3l.9-1.7-.1-10c0-9 0-10.1.5-10.5.4-.4 3-.5 10.7-.6l10-.2.8 1a8.7 8.7 0 0 0 5.7 2.9c5 .4 9.2-3.5 9.1-8.5 0-2.7-1-4.8-2.9-6.4a8.3 8.3 0 0 0-11.4.4l-1.6 1.5-11.4.4-11.3.3-1.8 1c-1 .5-2.4 1.6-3.1 2.5-2.4 2.8-2.5 3.6-2.5 14.4v10c-.2.3-2 .4-7.4.5l-7.2.2 1.4-.8c2-1.1 4.1-3.4 5.2-5.6l.9-2-.2-20c-.2-19.5-.2-20.3.4-20.8.5-.3 1.7-.5 4.1-.5 3.3 0 3.5 0 4.2.8a8.6 8.6 0 0 0 6 2.7c4 .3 7.4-2.2 8.5-6 .6-2.2.6-2.9-.1-5a8.1 8.1 0 0 0-8.2-5.9c-2.6 0-4.7 1-6.1 2.8l-1 1.2h-3.7c-6.6.2-10.3 2.2-12.6 7.1l-1 2.4.1 20c.2 19.2.2 20-.4 20.5-.5.4-2 .5-6.7.6h-6v-7.2h1.1c2.4 0 5-1.8 6.3-4 .5-1 .5-2.8.4-13.7 0-8.5-.3-13.4-.5-15-1.2-6.3-6-11.5-12.1-13.3-2-.5-3-.6-5.9-.4-3.2.1-3.7.3-6 1.4-4.7 2.4-8.1 6.5-9.3 11.2a75 75 0 0 0-.3 15.3c.2 13.7.3 14.4 2 16.4.9 1.3 3.6 2.5 5.4 2.5h1.2v3.6l.2 3.6-6.2.1c-5.8.1-6.2 0-6.8-.6-.7-.7-.7-1.7-1.2-20.8l-.6-20.1-.9-1.7a12.9 12.9 0 0 0-5.9-5.6c-1.7-.8-2.5-.8-6.4-.9-4.1 0-4.4 0-4.9-.9a8.6 8.6 0 0 0-2.4-1.8 8.5 8.5 0 0 0-8.1 0Z" fill="url(#paint11_linear_506_351)"/>
    <path id="octo-2" d="M196.9 194.4c-3.7 2-5.3 6.1-4 10.4.6 1.9 3.5 4.7 5.5 5.2 3.2 1 6.4 0 8.5-2.1l1.3-1.4 3.5-.1c3.2 0 3.6 0 4.2.7.6.6.7 1.6 1.2 20.8l.6 20 .9 1.8c1 2 3.2 4.3 5 5.2l1.4.7-6.9.2c-5.2 0-7 0-7.3-.4-.3-.2-.5-4-.7-10.4l-.3-10-1-1.9c-1.4-2.2-3.3-3.9-5.7-4.7-1.8-.6-2.7-.7-12.8-.5l-10.8.2-1-1.2a8.5 8.5 0 1 0-9.5 13.8c3.1 1.4 6.3.7 9.2-2l1.8-1.6 9.8-.2c8.2-.2 9.8-.1 10.5.4.8.5.8.5 1 10 .1 8.7.2 9.6.9 11.3.9 2.3 3 4.5 5.4 5.6 1.7.8 2 .9 11.8.9h10v2c0 3.3 1 3.1-14.9 3.6-13.4.4-13.7.5-15.4 1.2a14 14 0 0 0-5.6 5.6c-.9 1.8-1.3 4.5-1.2 7.7 0 2.4 0 2.6-1 3.4-.6.5-1.4 1.8-1.9 2.8a6.2 6.2 0 0 0-.7 4.2c.8 7.6 10 10.6 14.9 4.8 1.5-1.8 2-3.2 2-5.7 0-2.6-.7-4-2.5-6-1.5-1.4-1.5-1.4-1.5-4.2-.1-4.6-1-4.3 12.5-4.5 6.3 0 12.6-.3 14-.5 4.1-.5 6.8-2.3 8.9-5.7l1-1.6.3 17.1c.3 15.9.2 17.2-.4 18.5a6.3 6.3 0 0 1-11.2 1c-.7-1.3-.9-2-1-4.4 0-2.7 0-2.8 1-3.8.7-.5 1.5-1.7 2-2.7a8.5 8.5 0 0 0-9.7-11.8 8.7 8.7 0 0 0-3.7 14.8c1 1 1.1 1.2 1.1 3.4.2 7.1 3.7 12.8 9.5 15.4 2 1 2.9 1 5.8 1.1 2.4 0 3.7 0 5.1-.5 3.8-1.3 6.7-3.6 8.6-6.9 2.2-3.9 2.2-3.5 1.8-26.8l-.4-21h4.8l.4 20.1c.2 12 .5 21 .8 22 1 4.9 4.5 9.3 9 11.4 2.3 1 2.6 1 6.5 1 3.8-.1 4.4-.2 6-1 6-3 9.2-8.3 9.1-15.1v-3.1l1.5-1.6c2.3-2.4 3-5.4 2-8.5a8 8 0 0 0-4.2-5c-1.5-.7-2.3-1-4.1-.8-7.7.1-11.1 9.5-5.5 14.7 1.2 1.1 1.3 1.3 1.3 3.6 0 2.9-.6 4.8-2.2 6.2-3 2.7-7.5 2-9.6-1.4l-.9-1.5-.3-17.2-.3-17.3 1.2 1.8c.7 1 2 2.2 2.8 2.8 3.2 2 3.4 2 17.5 2h13.7c1 .2 1.5 1.6 1.6 4.4 0 2.4 0 2.6-1.2 3.7a7.8 7.8 0 0 0-2.6 6.3 8 8 0 0 0 8.6 8.3c4.9 0 8.4-3.7 8.3-8.6 0-2.6-.7-4-2.7-6l-1.3-1.4-.2-4c-.2-3-.4-4.2-1-5.5-1-2.3-3.4-4.6-5.7-5.6l-2-1-13.7.2-13.7.1-.7-.8c-.5-.7-.7-1.5-.7-2.8v-1.8l9.9-.3c9.5-.3 10-.3 11.6-1 2.1-1.1 4-3 5.2-5.3l.9-1.7-.1-10c0-9 0-10.1.5-10.5.4-.4 3-.5 10.7-.6l10-.2.8 1a8.7 8.7 0 0 0 5.7 2.9c5 .4 9.2-3.5 9.1-8.5 0-2.7-1-4.8-2.9-6.4a8.3 8.3 0 0 0-11.4.4l-1.6 1.5-11.4.4-11.3.3-1.8 1c-1 .5-2.4 1.6-3.1 2.5-2.4 2.8-2.5 3.6-2.5 14.4v10c-.2.3-2 .4-7.4.5l-7.2.2 1.4-.8c2-1.1 4.1-3.4 5.2-5.6l.9-2-.2-20c-.2-19.5-.2-20.3.4-20.8.5-.3 1.7-.5 4.1-.5 3.3 0 3.5 0 4.2.8a8.6 8.6 0 0 0 6 2.7c4 .3 7.4-2.2 8.5-6 .6-2.2.6-2.9-.1-5a8.1 8.1 0 0 0-8.2-5.9c-2.6 0-4.7 1-6.1 2.8l-1 1.2h-3.7c-6.6.2-10.3 2.2-12.6 7.1l-1 2.4.1 20c.2 19.2.2 20-.4 20.5-.5.4-2 .5-6.7.6h-6v-7.2h1.1c2.4 0 5-1.8 6.3-4 .5-1 .5-2.8.4-13.7 0-8.5-.3-13.4-.5-15-1.2-6.3-6-11.5-12.1-13.3-2-.5-3-.6-5.9-.4-3.2.1-3.7.3-6 1.4-4.7 2.4-8.1 6.5-9.3 11.2a75 75 0 0 0-.3 15.3c.2 13.7.3 14.4 2 16.4.9 1.3 3.6 2.5 5.4 2.5h1.2v3.6l.2 3.6-6.2.1c-5.8.1-6.2 0-6.8-.6-.7-.7-.7-1.7-1.2-20.8l-.6-20.1-.9-1.7a12.9 12.9 0 0 0-5.9-5.6c-1.7-.8-2.5-.8-6.3-.9-4.2 0-4.5 0-5-.9a8.6 8.6 0 0 0-2.4-1.8 8.5 8.5 0 0 0-8.1 0Z" fill="url(#paint12_linear_506_351)"/>
    <path id="octo-1" d="M321.9 221.4c-3.7 2-5.3 6.1-4 10.4.6 1.9 3.6 4.7 5.5 5.2 3.2 1 6.4 0 8.5-2.1l1.3-1.4 3.5-.1c3.2 0 3.6 0 4.2.7.6.6.7 1.6 1.2 20.8l.6 20 .9 1.8c1 2 3.2 4.3 5 5.2l1.4.7-6.9.2c-5.2 0-7 0-7.3-.4-.3-.2-.5-4-.7-10.4l-.3-10-1-1.9c-1.4-2.2-3.3-3.9-5.7-4.7-1.8-.6-2.7-.7-12.8-.5l-10.8.2-1-1.2a8.5 8.5 0 1 0-9.5 13.8c3.1 1.4 6.3.7 9.2-2l1.8-1.6 9.8-.2c8.2-.2 9.8-.1 10.5.4.8.5.8.5 1 10 .1 8.7.2 9.6.9 11.3.9 2.3 3 4.5 5.4 5.6 1.7.8 2 .9 11.8.9h10v2c0 3.3 1 3.1-14.9 3.6-13.4.4-13.7.5-15.4 1.2a14 14 0 0 0-5.6 5.6c-.9 1.8-1.3 4.5-1.2 7.7 0 2.4 0 2.6-1 3.4-.6.5-1.4 1.8-1.9 2.8a6.2 6.2 0 0 0-.7 4.2c.8 7.6 10 10.6 14.9 4.8 1.5-1.8 2-3.2 2-5.7 0-2.6-.7-4-2.5-6-1.5-1.4-1.5-1.4-1.5-4.2-.1-4.6-1-4.3 12.5-4.5 6.3 0 12.6-.3 14-.5 4.1-.5 6.8-2.3 8.9-5.7l1-1.6.3 17.1c.3 15.9.2 17.2-.4 18.5a6.3 6.3 0 0 1-11.2 1c-.7-1.3-.9-2-1-4.4 0-2.7 0-2.8 1-3.8.7-.5 1.5-1.7 2-2.7a8.5 8.5 0 0 0-9.7-11.8 8.7 8.7 0 0 0-3.7 14.8c1 1 1.1 1.2 1.1 3.4.2 7.1 3.7 12.8 9.5 15.4 2 1 2.9 1 5.8 1.1 2.4 0 3.7 0 5.1-.5 3.8-1.3 6.7-3.6 8.6-6.9 2.2-3.9 2.2-3.5 1.8-26.8l-.4-21h4.8l.4 20.1c.2 12 .5 21 .8 22 1 4.9 4.5 9.3 9 11.4 2.3 1 2.6 1 6.5 1 3.8-.1 4.4-.2 6-1 6-3 9.2-8.3 9.1-15.1v-3.1l1.5-1.6c2.3-2.4 3-5.4 2-8.5a8 8 0 0 0-4.2-5c-1.5-.7-2.3-1-4.1-.8-7.7.1-11.1 9.5-5.5 14.7 1.2 1.1 1.3 1.3 1.3 3.6 0 2.9-.6 4.8-2.2 6.2-3 2.7-7.5 2-9.6-1.4l-.9-1.5-.3-17.2-.3-17.3 1.2 1.8c.7 1 2 2.2 2.8 2.8 3.2 2 3.4 2 17.5 2h13.7c1 .2 1.5 1.6 1.6 4.4 0 2.4 0 2.6-1.2 3.7a7.8 7.8 0 0 0-2.6 6.3 8 8 0 0 0 8.6 8.3c4.9 0 8.4-3.7 8.3-8.6 0-2.6-.7-4-2.7-6l-1.3-1.4-.2-4c-.2-3-.4-4.2-1-5.5-1-2.3-3.4-4.6-5.7-5.6l-2-1-13.7.2-13.7.1-.7-.8c-.5-.7-.7-1.5-.7-2.8v-1.8l9.9-.3c9.5-.3 10-.3 11.6-1 2.1-1.1 4-3 5.2-5.3l.9-1.7-.1-10c0-9 0-10.1.5-10.5.4-.4 3-.5 10.7-.6l10-.2.8 1a8.7 8.7 0 0 0 5.7 2.9c5 .4 9.2-3.5 9.1-8.5 0-2.7-1-4.8-2.9-6.4a8.3 8.3 0 0 0-11.4.4l-1.6 1.5-11.4.4-11.3.3-1.8 1c-1 .5-2.4 1.6-3.1 2.5-2.4 2.8-2.5 3.6-2.5 14.4v10c-.2.3-2 .4-7.4.5l-7.2.2 1.4-.8c2-1.1 4.1-3.4 5.2-5.6l.9-2-.2-20c-.2-19.5-.2-20.3.4-20.8.5-.3 1.7-.5 4.1-.5 3.3 0 3.5 0 4.2.8a8.6 8.6 0 0 0 6 2.7c4 .3 7.4-2.2 8.5-6 .6-2.2.6-2.9-.1-5a8.1 8.1 0 0 0-8.2-5.9c-2.6 0-4.7 1-6.1 2.8l-1 1.2h-3.7c-6.6.2-10.3 2.2-12.6 7.1l-1 2.4.1 20c.2 19.2.2 20-.4 20.5-.5.4-2 .5-6.7.6h-6v-7.2h1.1c2.4 0 5-1.8 6.3-4 .5-1 .5-2.8.4-13.7 0-8.5-.3-13.4-.5-15-1.2-6.3-6-11.5-12.1-13.3-2-.5-3-.6-5.9-.4-3.2.1-3.7.3-6 1.4-4.7 2.4-8.1 6.5-9.3 11.2a75 75 0 0 0-.3 15.3c.2 13.7.3 14.4 2 16.4.9 1.3 3.6 2.5 5.4 2.5h1.2v3.6l.2 3.6-6.2.1c-5.8.1-6.2 0-6.8-.6-.7-.7-.7-1.7-1.2-20.8l-.6-20.1-.9-1.7a12.9 12.9 0 0 0-5.9-5.6c-1.7-.8-2.5-.8-6.3-.9-4.2 0-4.5 0-5-.9a8.6 8.6 0 0 0-2.4-1.8 8.5 8.5 0 0 0-8.1 0Z" fill="url(#paint13_linear_506_351)"/>
  </g>
  <defs>
  <symbol id="coin-template-desktop">
     <g filter="url(#ring-filter)" shape-rendering="crispEdges">
          <circle cx="358" cy="452" r="21" fill="#00F0FF" fill-opacity=".2"/>
          <circle cx="358" cy="452" r="20" stroke="#00F0FF" stroke-width="2"/>
        </g>
        <g filter="url(#zero-filter)">
          <path d="M365.5 452c0 1.6-.2 3-.5 4.3a10 10 0 0 1-1.4 3.3c-.7 1-1.4 1.7-2.4 2.2a7 7 0 0 1-3.3.7c-1.1 0-2.1-.2-3-.6a6 6 0 0 1-2.3-1.9c-.6-.8-1.1-2-1.5-3.3a18.9 18.9 0 0 1 0-9c.3-1.2.8-2.3 1.4-3.2a6.6 6.6 0 0 1 5.7-3c1.1 0 2 .3 3 .7.9.4 1.6 1 2.3 1.9.6.8 1.1 2 1.5 3.2.3 1.4.5 3 .5 4.7Zm-2.8.1v-1l-.1-1-8.6 6.4.5 1.5 1 1.2c.3.3.6.6 1 .7l1.5.3c.8 0 1.4-.2 2-.5.6-.4 1-.9 1.5-1.5.4-.7.7-1.6.9-2.6.2-1 .3-2.1.3-3.5Zm-9.3-.1v1.9l8.7-6.4-.6-1.5c-.3-.4-.5-.8-.9-1.1a3.6 3.6 0 0 0-2.6-1 3.7 3.7 0 0 0-3.4 2c-.4.7-.7 1.6-.9 2.6-.2 1-.3 2.1-.3 3.5Z" fill="#00F0FF"/>
        </g>
  </symbol>
   <filter id="ring-filter" x="333" y="427" width="50" height="50" filterUnits="userSpaceOnUse" color-interpolation-filters="sRGB">
      <feFlood flood-opacity="0" result="BackgroundImageFix"/>
      <feColorMatrix in="SourceAlpha" values="0 0 0 0 0 0 0 0 0 0 0 0 0 0 0 0 0 0 127 0" result="hardAlpha"/>
      <feOffset/>
      <feGaussianBlur stdDeviation="2"/>
      <feComposite in2="hardAlpha" operator="out"/>
      <feColorMatrix values="0 0 0 0 0 0 0 0 0 0.94 0 0 0 0 1 0 0 0 1 0"/>
      <feBlend in2="BackgroundImageFix" result="effect1_dropShadow_506_351"/>
      <feBlend in="SourceGraphic" in2="effect1_dropShadow_506_351" result="shape"/>
      <feColorMatrix in="SourceAlpha" values="0 0 0 0 0 0 0 0 0 0 0 0 0 0 0 0 0 0 127 0" result="hardAlpha"/>
      <feOffset/>
      <feGaussianBlur stdDeviation="2"/>
      <feComposite in2="hardAlpha" operator="arithmetic" k2="-1" k3="1"/>
      <feColorMatrix values="0 0 0 0 0 0 0 0 0 0 0 0 0 0 0 0 0 0 0.25 0"/>
      <feBlend in2="shape" result="effect2_innerShadow_506_351"/>
    </filter>
    <filter id="zero-filter" x="346.6" y="437.5" width="22.8" height="29" filterUnits="userSpaceOnUse" color-interpolation-filters="sRGB">
      <feFlood flood-opacity="0" result="BackgroundImageFix"/>
      <feColorMatrix in="SourceAlpha" values="0 0 0 0 0 0 0 0 0 0 0 0 0 0 0 0 0 0 127 0" result="hardAlpha"/>
      <feOffset/>
      <feGaussianBlur stdDeviation="2"/>
      <feComposite in2="hardAlpha" operator="out"/>
      <feColorMatrix values="0 0 0 0 0 0 0 0 0 0.94 0 0 0 0 1 0 0 0 1 0"/>
      <feBlend in2="BackgroundImageFix" result="effect1_dropShadow_506_351"/>
      <feBlend in="SourceGraphic" in2="effect1_dropShadow_506_351" result="shape"/>
    </filter>
    <linearGradient id="paint0_linear_506_351" x1="244" y1="373" x2="244" y2="583" gradientUnits="userSpaceOnUse">
      <stop stop-color="#00F0FF"/>
      <stop offset="1" stop-color="#1C1E51"/>
    </linearGradient>
    <linearGradient id="paint1_linear_506_351" x1="342" y1="376" x2="342" y2="586" gradientUnits="userSpaceOnUse">
      <stop stop-color="#00F0FF"/>
      <stop offset="1" stop-color="#1C1E51"/>
    </linearGradient>
    <linearGradient id="paint2_linear_506_351" x1="356.7" y1="356.7" x2="355.4" y2="507" gradientUnits="userSpaceOnUse">
      <stop stop-color="#1C1E51"/>
      <stop offset="0" stop-color="#1C1E51"/>
      <stop offset="1" stop-color="#0B14EC"/>
    </linearGradient>
    <linearGradient id="paint3_linear_506_351" x1="356" y1="509.4" x2="358.9" y2="355.4" gradientUnits="userSpaceOnUse">
      <stop stop-color="#1C1E51"/>
      <stop offset="0" stop-color="#1C1E51"/>
      <stop offset="1" stop-color="#0B14EC"/>
    </linearGradient>
    <linearGradient id="paint5_linear_506_351" x1="-182.5" y1="72.7" x2="354.4" y2="62.9" gradientUnits="userSpaceOnUse">
      <stop stop-color="#0B14EC"/>
      <stop offset=".6" stop-color="#00F0FF"/>
    </linearGradient>
    <linearGradient id="paint6_linear_506_351" x1="-51.5" y1="133.7" x2="485.4" y2="123.9" gradientUnits="userSpaceOnUse">
      <stop stop-color="#0B14EC"/>
      <stop offset=".6" stop-color="#00F0FF"/>
    </linearGradient>
    <linearGradient id="paint7_linear_506_351" x1="48.5" y1="39.7" x2="585.4" y2="29.9" gradientUnits="userSpaceOnUse">
      <stop stop-color="#0B14EC"/>
      <stop offset=".6" stop-color="#00F0FF"/>
    </linearGradient>
    <linearGradient id="paint8_linear_506_351" x1="178.5" y1="98.7" x2="715.4" y2="88.9" gradientUnits="userSpaceOnUse">
      <stop stop-color="#0B14EC"/>
      <stop offset=".6" stop-color="#00F0FF"/>
    </linearGradient>
    <linearGradient id="paint9_linear_506_351" x1="275.5" y1="4.7" x2="812.4" y2="-5.1" gradientUnits="userSpaceOnUse">
      <stop stop-color="#0B14EC"/>
      <stop offset=".6" stop-color="#00F0FF"/>
    </linearGradient>
    <linearGradient id="paint10_linear_506_351" x1="303.5" y1="126.7" x2="840.4" y2="116.9" gradientUnits="userSpaceOnUse">
      <stop stop-color="#0B14EC"/>
      <stop offset=".6" stop-color="#00F0FF"/>
    </linearGradient>
    <linearGradient id="paint11_linear_506_351" x1="434.5" y1="187.7" x2="971.4" y2="177.9" gradientUnits="userSpaceOnUse">
      <stop stop-color="#0B14EC"/>
      <stop offset=".6" stop-color="#00F0FF"/>
    </linearGradient>
    <linearGradient id="paint12_linear_506_351" x1="76.5" y1="195.7" x2="613.4" y2="185.9" gradientUnits="userSpaceOnUse">
      <stop stop-color="#0B14EC"/>
      <stop offset=".6" stop-color="#00F0FF"/>
    </linearGradient>
    <linearGradient id="paint13_linear_506_351" x1="201.5" y1="222.7" x2="738.4" y2="212.9" gradientUnits="userSpaceOnUse">
      <stop stop-color="#0B14EC"/>
      <stop offset=".6" stop-color="#00F0FF"/>
    </linearGradient>
    <radialGradient id="paint4_radial_506_351" cx="0" cy="0" r="1" gradientUnits="userSpaceOnUse" gradientTransform="rotate(81.7 273 180.3) scale(830.713 5229.72)">
      <stop stop-color="#00F0FF"/>
      <stop offset=".5" stop-color="#0F7FA2"/>
      <stop offset=".8" stop-color="#1C1E51"/>
      <stop offset=".9" stop-color="#1C1E51"/>
    </radialGradient>
  </defs>
</svg>
