<svg viewBox="0 0 450 462" fill="none" xmlns="http://www.w3.org/2000/svg">
  <g class="lower-ring-setup-wide">
    <path class="back-hill" fill-rule="evenodd" clip-rule="evenodd" d="M37 461h375V279a86.2 86.2 0 0 0-72.9 9.6l-9.7 5.8c-112 67.8-113.1 68.4-225.4-5.8a87 87 0 0 0-67-12.7V461Z" fill="url(#paint0_)" fill-opacity=".5"/>
    <path class="mid-hill" fill-rule="evenodd" clip-rule="evenodd" d="M37 461h375V347c-42-52.2-99-95.1-159.9-58.4l-9.7 5.8c-105 63.5-112.5 68-205.4 7.3V461Z" fill="url(#paint1_)"/>
    <g class="lower-ring">
      <path class="a4" d="M172.7 78.7c-1.5.7-2.2 2.4-1.7 4.2.2.8 1.4 2 2.2 2.2 1.3.3 2.6 0 3.5-.9l.5-.5h1.5c1.2 0 1.4 0 1.7.3.2.2.2.7.3 8.5v8.2l.4.7c.4.9 1.3 1.8 2 2.2l.6.3H181c-2.1 0-2.9 0-3-.2-.1 0-.2-1.6-.2-4.2v-4.2l-.5-.7c-.5-1-1.3-1.6-2.3-2-.7-.3-1-.3-5.2-.3h-4.4l-.4-.5a3.5 3.5 0 1 0-4 5.6c1.3.6 2.6.3 3.8-.7l.8-.7h4c3.3 0 4 0 4.3.2.3.2.3.3.3 4.1 0 3.6 0 4 .3 4.7.3 1 1.2 1.8 2.1 2.3.7.3.8.4 4.8.4l4.1.1v.8c0 1.4.4 1.3-6 1.4-5.6 0-5.7 0-6.4.4-.8.4-1.9 1.4-2.3 2.2a7 7 0 0 0-.6 3.2c0 1 0 1-.4 1.4l-.8 1c-.3.8-.4 1-.3 1.8.2 3.1 4 4.4 6 2a3 3 0 0 0 .9-2.2 3 3 0 0 0-1-2.5c-.6-.6-.6-.6-.6-1.8 0-1.8-.3-1.7 5.2-1.7l5.7-.1c1.7-.2 2.8-.9 3.7-2.3l.4-.6v7c0 6.5 0 7-.3 7.6-.9 2-3.5 2-4.6.3-.3-.6-.3-.8-.3-1.8 0-1.2 0-1.2.4-1.6.3-.2.6-.7.8-1 1.2-2.7-1-5.6-3.9-5a3.5 3.5 0 0 0-1.6 6c.4.5.5.6.5 1.4 0 3 1.3 5.3 3.7 6.4.8.4 1.2.5 2.4.5 1 0 1.5 0 2-.2a6.3 6.3 0 0 0 3.6-2.7c1-1.6 1-1.4 1-11v-8.5h2v17.2c.5 2 1.9 3.9 3.7 4.7 1 .5 1 .5 2.7.5 1.5 0 1.7 0 2.4-.4a6.4 6.4 0 0 0 3.9-6v-1.4l.6-.6c1-1 1.3-2.2.9-3.5-.3-.9-.8-1.5-1.7-2-.6-.3-1-.4-1.7-.4-3.1 0-4.6 3.8-2.3 6 .5.5.5.5.5 1.5 0 1.2-.3 2-1 2.5-1.2 1-3 .8-3.9-.6l-.3-.7v-14l.5.7c.2.4.7.9 1 1.1 1.4.9 1.4.9 7.2 1h5.6c.4.2.6.8.6 1.9 0 1 0 1-.5 1.5-.7.8-1 1.5-1 2.6 0 2 1.4 3.4 3.4 3.4s3.4-1.4 3.4-3.4c0-1.1-.2-1.7-1-2.5l-.6-.6v-1.6c0-1.3-.1-1.8-.4-2.3-.4-1-1.3-1.9-2.3-2.3l-.8-.4H208l-5.6-.1-.3-.4c-.2-.2-.2-.6-.2-1.1v-.8h4c4 0 4.1 0 4.8-.4.9-.4 1.7-1.1 2.1-2l.4-.8v-4c.1-3.7.1-4.2.3-4.3.2-.2 1.3-.2 4.4-.2h4.1l.3.4c.5.6 1.5 1.1 2.3 1.2 2.1.3 3.9-1.3 3.9-3.4 0-1-.4-2-1.2-2.6a3.4 3.4 0 0 0-4.7 0l-.6.7h-9.3l-.8.5c-.4.2-1 .6-1.3 1-1 1.1-1 1.4-1 5.9l-.2 4c0 .2-.8.2-3 .2h-3l.6-.3c.9-.4 1.8-1.4 2.2-2.2l.4-.8v-8.3c.1-8 .1-8.2.4-8.4.2-.2.7-.2 1.7-.2 1.3 0 1.4 0 1.7.3.4.6 1.4 1.1 2.4 1.2 1.6.1 3-.9 3.5-2.4.3-1 .3-1.2 0-2a3.3 3.3 0 0 0-3.3-2.5c-1 0-1.9.3-2.5 1l-.4.5h-1.5c-2.8 0-4.2.9-5.2 2.9l-.5.9v8.2c-.1 7.9-.1 8.2-.4 8.4-.2.1-.8.2-2.7.2h-2.5v-3h.5c1 0 2-.7 2.6-1.6a61.8 61.8 0 0 0 .2-11.7 7 7 0 0 0-4.9-5.6 6 6 0 0 0-2.4-.2c-1.3 0-1.5.1-2.5.6a7 7 0 0 0-3.8 4.5c-.2.8-.3 1.7-.3 6.2 0 5.6 0 5.9.7 6.8.4.5 1.5 1 2.2 1h.5v3h-2.5c-2.4 0-2.5 0-2.8-.3-.2-.3-.3-.7-.3-8.6l-.1-8.2-.4-.7c-.4-1-1.3-1.8-2.3-2.3-.7-.3-1-.4-2.6-.4-1.7 0-1.8 0-2-.4l-1-.8c-1-.6-2.3-.6-3.3 0Z" fill="url(#paint2_)" fill-opacity=".2"/>
      <path class="a5" d="M119.8 52.5c-1.6.8-2.2 2.5-1.7 4.2.2.8 1.4 2 2.2 2.2 1.3.4 2.6 0 3.5-.8l.5-.6h1.4c1.3 0 1.5 0 1.8.3.2.3.2.7.3 8.6v8.2l.4.7c.4.8 1.3 1.8 2 2.2l.6.3H128c-2.2 0-2.9 0-3-.2-.1-.1-.2-1.7-.2-4.3v-4l-.5-.9c-.5-.9-1.3-1.6-2.3-2-.7-.2-1-.2-5.2-.2h-4.4l-.4-.5a3.5 3.5 0 1 0-4 5.6c1.3.5 2.6.3 3.8-.8l.8-.6h4c3.3 0 4 0 4.2.2.4.2.4.2.4 4 0 3.6 0 4 .3 4.7.3 1 1.2 1.9 2.1 2.4.7.3.8.3 4.8.4h4.1v.9c0 1.4.4 1.3-6 1.4-5.6 0-5.7 0-6.4.4-.8.3-1.9 1.3-2.3 2.2a7 7 0 0 0-.6 3.1c0 1 0 1.1-.4 1.4-.2.2-.6.7-.8 1.2-.3.6-.4.8-.3 1.6.2 3.2 4 4.5 6 2.2a3 3 0 0 0 .9-2.4 3 3 0 0 0-1-2.4c-.6-.6-.6-.7-.6-1.8 0-1.9-.4-1.7 5.2-1.7l5.7-.1c1.7-.2 2.8-1 3.7-2.3l.4-.6v7c0 6.4 0 7-.3 7.5-.9 2-3.5 2.2-4.6.3-.3-.5-.3-.8-.3-1.8s0-1.1.4-1.5c.3-.2.6-.7.8-1 1.2-2.7-1-5.6-3.9-5a3.5 3.5 0 0 0-1.6 6c.4.4.4.5.4 1.4 0 3 1.4 5.3 3.8 6.4.8.4 1.2.5 2.4.5 1 0 1.5 0 2-.2a6.3 6.3 0 0 0 3.6-2.7c1-1.6 1-1.4 1-11V82h2v17.3c.5 2 1.9 3.8 3.7 4.7 1 .4 1 .5 2.7.5 1.5 0 1.7 0 2.4-.4a6.4 6.4 0 0 0 3.9-6.1v-1.3l.6-.6c1-1 1.3-2.2.9-3.5-.3-.9-.8-1.5-1.7-2-.6-.4-1-.4-1.7-.4a3.5 3.5 0 0 0-2.3 6c.5.4.5.5.5 1.4 0 1.2-.3 2-1 2.6-1.2 1-3 .7-3.9-.7l-.3-.6V84.8l.5.7c.2.4.7 1 1 1.2 1.4.9 1.4.9 7.2 1h5.6c.4.2.6.7.6 1.9 0 1 0 1-.5 1.5-.8.7-1 1.5-1 2.5 0 2 1.3 3.5 3.4 3.5 2 0 3.4-1.5 3.4-3.5 0-1-.2-1.6-1-2.4l-.6-.6V89c0-1.3-.1-1.8-.4-2.3-.4-1-1.3-2-2.3-2.4l-.8-.4h-11.2l-.3-.4c-.2-.3-.3-.6-.3-1.1v-.8h4.1c3.9 0 4.1 0 4.8-.4.9-.4 1.7-1.2 2.1-2l.4-.8v-4c.1-3.7.1-4.2.3-4.4l4.4-.1h4.1l.3.4c.5.6 1.5 1.1 2.3 1.2 2.1.2 3.9-1.3 3.9-3.4 0-1.1-.4-2-1.2-2.7a3.4 3.4 0 0 0-4.7.1l-.6.7h-9.3l-.8.4-1.3 1c-1 1.2-1 1.5-1 6l-.2 4c0 .1-.8.2-3 .2h-3l.6-.3c.9-.5 1.8-1.4 2.2-2.3l.4-.7v-8.3c.1-8 .1-8.3.4-8.5.2-.1.7-.2 1.7-.2 1.3 0 1.4 0 1.7.4.4.6 1.4 1 2.4 1.2 1.6 0 3-.9 3.5-2.5.3-.8.3-1.1 0-2a3.3 3.3 0 0 0-3.3-2.4c-1 0-1.9.3-2.5 1l-.4.5h-1.5c-2.8 0-4.3.8-5.2 2.8l-.5 1v8.1c-.1 8-.1 8.2-.4 8.4-.2.2-.8.2-2.7.2h-2.5v-2.9h.5c1 0 2-.7 2.6-1.7.2-.3.2-1 .3-5.5l-.1-6.2a7 7 0 0 0-4.9-5.5c-.7-.2-1.2-.3-2.4-.2-1.3 0-1.5 0-2.5.5a7 7 0 0 0-3.8 4.5c-.2.8-.3 1.7-.3 6.3 0 5.6 0 5.9.7 6.7.4.5 1.5 1 2.2 1h.5v3h-2.5c-2.4 0-2.5 0-2.8-.3-.2-.2-.3-.7-.3-8.5l-.1-8.2-.4-.7c-.4-1-1.4-1.9-2.3-2.3-.7-.4-1-.4-2.6-.5-1.7 0-1.8 0-2-.4l-1-.7c-1-.6-2.3-.6-3.3 0Z" fill="url(#paint3_)" fill-opacity=".2"/>
      <path class="a3" d="M235.1 78.7c-1.5.7-2.2 2.4-1.7 4.2.3.8 1.4 2 2.2 2.2 1.3.3 2.7 0 3.5-.9l.6-.5h1.4c1.3 0 1.5 0 1.7.3.3.2.3.7.4 8.5v8.2l.4.7c.4.9 1.3 1.8 2 2.2l.6.3h-2.8c-2.2 0-3 0-3-.2-.1 0-.2-1.6-.2-4.2v-4.2l-.5-.7c-.5-1-1.3-1.6-2.3-2-.7-.3-1-.3-5.2-.3h-4.4l-.5-.5a3.5 3.5 0 1 0-4 5.6c1.4.6 2.7.3 3.8-.7l.8-.7h4c3.4 0 4 0 4.3.2.3.2.3.3.3 4.1 0 3.6 0 4 .3 4.7.4 1 1.2 1.8 2.2 2.3.7.3.8.4 4.8.4l4.1.1v.8c0 1.4.4 1.3-6.1 1.4-5.5 0-5.6 0-6.3.4-.9.4-2 1.4-2.4 2.2a7 7 0 0 0-.5 3.2c0 1 0 1-.4 1.4-.3.2-.6.7-.8 1-.4.8-.4 1-.4 1.8.3 3.1 4 4.4 6 2a3 3 0 0 0 1-2.2 3 3 0 0 0-1-2.5c-.6-.6-.6-.6-.6-1.8 0-1.8-.4-1.7 5.1-1.7l5.8-.1c1.7-.2 2.8-.9 3.6-2.3l.5-.6v7c0 6.5 0 7-.3 7.6-.9 2-3.5 2-4.6.3-.3-.6-.4-.8-.4-1.8 0-1.2 0-1.2.5-1.6l.7-1c1.3-2.7-1-5.6-3.8-5a3.5 3.5 0 0 0-1.6 6c.4.5.4.6.4 1.4 0 3 1.4 5.3 3.8 6.4.8.4 1.1.5 2.3.5 1 0 1.6 0 2.1-.2a6.3 6.3 0 0 0 3.6-2.7c1-1.6 1-1.4 1-11v-8.5h2v17.2c.4 2 1.8 3.9 3.7 4.7.9.5 1 .5 2.6.5s1.8 0 2.5-.4a6.4 6.4 0 0 0 3.8-6v-1.4l.7-.6c1-1 1.2-2.2.8-3.5-.2-.9-.8-1.5-1.6-2-.7-.3-1-.4-1.7-.4-3.1 0-4.6 3.8-2.4 6 .5.5.6.5.6 1.5 0 1.2-.4 2-1 2.5-1.3 1-3 .8-4-.6l-.3-.7v-14l.5.7 1.1 1.1c1.3.9 1.4.9 7.2 1h5.6c.4.2.6.8.6 1.9 0 1 0 1-.5 1.5-.8.8-1.1 1.5-1.1 2.6 0 2 1.4 3.4 3.4 3.4s3.5-1.4 3.5-3.4c0-1.1-.3-1.7-1-2.5l-.6-.6v-1.6c-.1-1.3-.2-1.8-.4-2.3-.4-1-1.3-1.9-2.3-2.3l-.8-.4h-5.6l-5.6-.1-.3-.4c-.2-.2-.3-.6-.3-1.1v-.8h4c4 0 4.2 0 4.8-.4 1-.4 1.7-1.1 2.2-2l.4-.8v-4c0-3.7.1-4.2.3-4.3.2-.2 1.2-.2 4.4-.2h4.1l.3.4c.4.6 1.4 1.1 2.3 1.2 2 .3 3.8-1.3 3.8-3.4 0-1-.3-2-1.1-2.6a3.4 3.4 0 0 0-4.7 0l-.7.7H275l-.7.5c-.4.2-1 .6-1.3 1-1 1.1-1 1.4-1.1 5.9l-.1 4c0 .2-.8.2-3 .2h-3l.6-.3c.8-.4 1.7-1.4 2.2-2.2l.3-.8.1-8.3c0-8 .1-8.2.4-8.4.2-.2.7-.2 1.6-.2 1.4 0 1.5 0 1.7.3.5.6 1.5 1.1 2.4 1.2 1.7.1 3.1-.9 3.6-2.4.3-1 .3-1.2 0-2a3.3 3.3 0 0 0-3.3-2.5c-1.1 0-2 .3-2.6 1l-.4.5H271c-2.7 0-4.2.9-5.2 2.9l-.4.9-.1 8.2c0 7.9 0 8.2-.3 8.4-.2.1-.9.2-2.8.2h-2.4v-3h.5c1 0 2-.7 2.6-1.6.2-.4.2-1.1.3-5.6 0-3.5 0-5.5-.2-6.1a7 7 0 0 0-4.8-5.6c-.8-.2-1.2-.2-2.4-.2-1.3 0-1.5.1-2.5.6a7 7 0 0 0-3.8 4.5c-.2.8-.3 1.7-.3 6.2 0 5.6 0 5.9.7 6.8.4.5 1.5 1 2.2 1h.5v3H250c-2.4 0-2.6 0-2.8-.3-.3-.3-.3-.7-.4-8.6v-8.2l-.4-.7c-.5-1-1.4-1.8-2.4-2.3-.7-.3-1-.4-2.6-.4-1.7 0-1.8 0-2-.4 0-.2-.5-.5-1-.8-1-.6-2.2-.6-3.3 0Z" fill="url(#paint4_)" fill-opacity=".2"/>
      <path class="a2" d="M288 52.5c-1.5.8-2.2 2.5-1.7 4.2.3.8 1.4 2 2.2 2.2 1.3.4 2.7 0 3.5-.8l.6-.6h1.4c1.3 0 1.5 0 1.7.3.3.3.3.7.4 8.6v8.2l.4.7c.4.8 1.3 1.8 2 2.2l.6.3h-2.8c-2.2 0-3 0-3-.2-.1-.1-.2-1.7-.2-4.3v-4l-.5-.9c-.5-.9-1.3-1.6-2.3-2-.7-.2-1-.2-5.2-.2h-4.4l-.5-.5a3.5 3.5 0 1 0-4 5.6c1.4.5 2.7.3 3.8-.8l.8-.6h4c3.4 0 4 0 4.3.2.3.2.3.2.3 4 0 3.6 0 4 .3 4.7.4 1 1.2 1.9 2.2 2.4.7.3.8.3 4.8.4h4.1v.9c0 1.4.4 1.3-6.1 1.4-5.5 0-5.6 0-6.3.4-.9.3-2 1.3-2.3 2.2a7 7 0 0 0-.6 3.1c0 1 0 1.1-.4 1.4-.3.2-.6.7-.8 1.2-.4.6-.4.8-.4 1.6.3 3.2 4 4.5 6 2.2a3 3 0 0 0 1-2.4 3 3 0 0 0-1-2.4c-.6-.6-.6-.7-.6-1.8 0-1.9-.4-1.7 5.1-1.7l5.8-.1c1.7-.2 2.8-1 3.7-2.3l.4-.6v7c0 6.4 0 7-.3 7.5-.9 2-3.5 2.2-4.6.3-.3-.5-.4-.8-.4-1.8s0-1.1.5-1.5l.8-1c1.2-2.7-1.1-5.6-4-5a3.5 3.5 0 0 0-1.5 6c.4.4.4.5.4 1.4 0 3 1.4 5.3 3.8 6.4.8.4 1.2.5 2.3.5 1 0 1.6 0 2.1-.2a6.3 6.3 0 0 0 3.6-2.7c1-1.6 1-1.4 1-11V82h2v17.3c.4 2 1.9 3.8 3.7 4.7 1 .4 1 .5 2.6.5s1.8 0 2.5-.4a6.4 6.4 0 0 0 3.8-6.1v-1.3l.7-.6c1-1 1.2-2.2.8-3.5-.2-.9-.8-1.5-1.6-2-.6-.4-1-.4-1.7-.4a3.5 3.5 0 0 0-2.4 6c.5.4.6.5.6 1.4 0 1.2-.4 2-1 2.6-1.3 1-3 .7-4-.7l-.3-.6V84.8l.5.7c.3.4.8 1 1.2 1.2 1.2.9 1.3.9 7 1h5.7c.4.2.6.7.6 1.9 0 1 0 1-.5 1.5-.8.7-1.1 1.5-1.1 2.5 0 2 1.4 3.5 3.4 3.5s3.5-1.5 3.5-3.5c0-1-.3-1.6-1-2.4l-.6-.6V89c0-1.3-.2-1.8-.4-2.3-.4-1-1.3-2-2.3-2.4l-.8-.4h-11.2l-.3-.4c-.2-.3-.3-.6-.3-1.1v-.8h4c4 0 4.2 0 4.8-.4 1-.4 1.7-1.2 2.2-2l.4-.8v-4c0-3.7.1-4.2.3-4.4l4.4-.1h4.1l.3.4c.4.6 1.4 1.1 2.3 1.2 2 .2 3.8-1.3 3.8-3.4a3.4 3.4 0 0 0-5.8-2.5l-.7.6H328l-.7.4-1.3 1c-1 1.2-1 1.5-1.1 6l-.1 4c0 .1-.8.2-3 .2h-3l.6-.3c.8-.5 1.7-1.4 2.2-2.3l.4-.7v-8.3c0-8 .1-8.3.4-8.5.2-.1.7-.2 1.6-.2 1.4 0 1.5 0 1.7.4.5.6 1.5 1 2.4 1.2 1.7 0 3.1-.9 3.6-2.5.3-.8.3-1.1 0-2a3.3 3.3 0 0 0-3.3-2.4c-1 0-2 .3-2.5 1l-.5.5h-1.5c-2.7 0-4.2.8-5.2 2.8l-.4 1v8.1c-.2 8-.2 8.2-.4 8.4-.2.2-.9.2-2.8.2h-2.4v-2.9h.5c1 0 2-.7 2.6-1.7.2-.3.2-1 .3-5.5 0-3.5 0-5.5-.2-6.2a7 7 0 0 0-4.8-5.5 6 6 0 0 0-2.4-.2c-1.3 0-1.5 0-2.5.5a7 7 0 0 0-3.8 4.5c-.2.8-.3 1.7-.3 6.3 0 5.6 0 5.9.7 6.7.4.5 1.5 1 2.2 1h.5v3h-2.5c-2.4 0-2.6 0-2.8-.3-.3-.2-.3-.7-.4-8.5v-8.2l-.4-.7c-.4-1-1.4-1.9-2.4-2.3-.7-.4-1-.4-2.6-.5-1.7 0-1.8 0-2-.4 0-.1-.5-.5-1-.7-1-.6-2.2-.6-3.3 0Z" fill="url(#paint5_)" fill-opacity=".2"/>
      <path class="a1" d="M341 26.4c-1.6.8-2.3 2.5-1.7 4.2.2.8 1.4 2 2.1 2.2 1.3.4 2.7 0 3.5-.8l.6-.6h1.4c1.3 0 1.5 0 1.7.3.3.3.3.7.4 8.5v8.3l.4.7c.4.8 1.3 1.7 2 2.1l.6.3h-2.8l-3-.1c-.1-.2-.2-1.7-.2-4.3V43l-.5-.8c-.5-1-1.3-1.6-2.3-2-.7-.2-1-.3-5.2-.3h-4.4l-.5-.4a3.5 3.5 0 1 0-4 5.5c1.4.6 2.7.3 3.9-.7l.7-.7h4c3.4 0 4 0 4.3.2.3.3.3.3.3 4.1 0 3.6 0 4 .3 4.7.4 1 1.2 1.9 2.2 2.3.7.4.8.4 4.8.5h4.1v.8c0 1.4.4 1.3-6.1 1.4-5.5.1-5.6.1-6.3.4-.9.4-2 1.4-2.3 2.2a7 7 0 0 0-.6 3.2c0 1 0 1-.4 1.4-.3.2-.6.7-.8 1.1-.4.7-.4 1-.3 1.7.2 3.2 4 4.5 6 2.1a3 3 0 0 0 .8-2.3 3 3 0 0 0-1-2.5c-.5-.6-.5-.6-.5-1.7 0-1.9-.4-1.8 5.1-1.8h5.8c1.7-.3 2.8-1 3.7-2.3l.4-.7v7c0 6.5 0 7-.3 7.6-.9 2-3.5 2.1-4.6.3-.3-.5-.4-.8-.4-1.8 0-1.1 0-1.2.5-1.5l.8-1.1c1.2-2.6-1.1-5.5-3.9-5a3.5 3.5 0 0 0-1.6 6.1c.4.4.4.5.4 1.4 0 2.9 1.4 5.2 3.8 6.4.8.4 1.2.4 2.3.5 1 0 1.6 0 2.1-.2a6.3 6.3 0 0 0 3.6-2.8c1-1.5 1-1.4 1-10.9v-8.6h2v17.3c.4 2 1.9 3.8 3.7 4.7 1 .4 1 .4 2.6.4s1.8 0 2.5-.3a6.4 6.4 0 0 0 3.8-6.1v-1.3l.7-.6c1-1 1.2-2.2.8-3.5-.2-1-.8-1.6-1.6-2-.6-.4-1-.5-1.7-.5a3.5 3.5 0 0 0-2.3 6c.4.5.5.6.5 1.5 0 1.2-.4 2-1 2.5-1.3 1.1-3 .8-4-.6l-.3-.6V58.7l.5.7c.3.4.8 1 1.2 1.2 1.2.8 1.3.8 7 1h5.7c.4.1.6.7.6 1.8 0 1 0 1-.5 1.5-.8.8-1.1 1.5-1.1 2.6 0 2 1.4 3.5 3.4 3.5s3.5-1.5 3.5-3.5c0-1-.2-1.6-1-2.5l-.6-.5v-1.7c0-1.2-.2-1.7-.4-2.3-.4-.9-1.3-1.8-2.3-2.3l-.8-.4h-11.2l-.3-.5c-.2-.2-.3-.5-.3-1v-.8h4c4-.1 4.2-.1 4.9-.4.8-.4 1.6-1.2 2.1-2.1l.4-.7v-4.1c0-3.7.1-4.1.3-4.3.2-.1 1.2-.2 4.4-.2h4.1l.3.5c.4.6 1.4 1 2.3 1.2 2 .2 3.8-1.4 3.8-3.4a3.4 3.4 0 0 0-5.8-2.5l-.7.5h-4.6l-4.7.1-.7.4-1.3 1c-1 1.2-1 1.5-1.1 5.9l-.1 4c0 .2-.8.2-3 .2h-3l.6-.3c.8-.4 1.7-1.3 2.2-2.2l.4-.8v-8.2c.1-8 .1-8.3.4-8.5.2-.1.7-.2 1.6-.2 1.4 0 1.5 0 1.7.4.5.6 1.5 1 2.4 1.1 1.7.2 3.1-.8 3.6-2.4.3-.9.3-1.1 0-2a3.3 3.3 0 0 0-3.3-2.5c-1 0-2 .4-2.5 1.1l-.5.5h-1.5c-2.7 0-4.2.8-5.2 2.8l-.4 1v8.1c-.2 8-.2 8.2-.4 8.4-.2.2-.9.2-2.8.2h-2.4v-3h.5c1 0 2-.6 2.6-1.6.2-.4.2-1 .3-5.6l-.1-6.1a7 7 0 0 0-4.9-5.5 6 6 0 0 0-2.4-.2c-1.3 0-1.5 0-2.5.5a7 7 0 0 0-3.8 4.5c-.2.8-.3 1.7-.3 6.3 0 5.6 0 5.8.7 6.7.4.5 1.5 1 2.2 1h.5v3h-2.5c-2.4 0-2.6 0-2.8-.3-.3-.3-.3-.7-.4-8.5V31l-.4-.8c-.4-1-1.4-1.8-2.4-2.3-.7-.3-1-.3-2.6-.4-1.7 0-1.8 0-2-.4 0-.2-.5-.5-1-.7-1-.6-2.2-.6-3.3-.1Z" fill="url(#paint6_)" fill-opacity=".2"/>
      <path class="a6" d="M66.9 26.4c-1.6.8-2.2 2.5-1.7 4.2.2.8 1.4 2 2.1 2.2 1.4.4 2.7 0 3.6-.8l.5-.6h1.4c1.3 0 1.5 0 1.8.3.2.3.2.7.3 8.5v8.3l.4.7c.4.8 1.3 1.7 2 2.1l.6.3h-2.8l-3-.1c-.1-.2-.2-1.7-.2-4.3V43l-.5-.8c-.5-1-1.3-1.6-2.3-2-.7-.2-1-.3-5.2-.3h-4.4l-.4-.4a3.5 3.5 0 1 0-4 5.5c1.3.6 2.6.3 3.8-.7l.7-.7h4c3.4 0 4 0 4.3.2.4.3.4.3.4 4.1 0 3.6 0 4 .3 4.7.3 1 1.2 1.9 2.1 2.3.7.4.8.4 4.8.5h4.1v.8c0 1.4.4 1.3-6 1.4-5.6.1-5.7.1-6.4.4-.8.4-1.9 1.4-2.3 2.2a7 7 0 0 0-.6 3.2c0 1 0 1-.4 1.4-.3.2-.6.7-.8 1.1-.3.7-.4 1-.3 1.7.2 3.2 4 4.5 6 2.1a3 3 0 0 0 .9-2.3 3 3 0 0 0-1-2.5c-.6-.6-.6-.6-.6-1.7 0-1.9-.4-1.8 5.2-1.8H79c1.7-.3 2.8-1 3.7-2.3l.4-.7v7c0 6.5 0 7-.3 7.6-.9 2-3.5 2.1-4.6.3-.3-.5-.3-.8-.3-1.8 0-1.1 0-1.2.4-1.5.3-.2.6-.7.8-1.1 1.2-2.6-1.1-5.5-3.9-5a3.5 3.5 0 0 0-1.6 6.1c.4.4.4.5.4 1.4 0 2.9 1.4 5.2 3.8 6.4.8.4 1.2.4 2.3.5 1 0 1.6 0 2.2-.2a6.3 6.3 0 0 0 3.5-2.8c1-1.5 1-1.4 1-10.9v-8.6h2v17.3c.4 2 1.9 3.8 3.7 4.7 1 .4 1 .4 2.7.4 1.5 0 1.7 0 2.4-.3a6.4 6.4 0 0 0 3.9-6.1v-1.3l.6-.6c1-1 1.2-2.2.9-3.5-.3-1-.9-1.6-1.7-2-.6-.4-1-.5-1.7-.5a3.5 3.5 0 0 0-2.3 6c.5.5.5.6.5 1.5 0 1.2-.3 2-1 2.5-1.3 1.1-3 .8-3.9-.6l-.3-.6V58.7l.4.7c.3.4.8 1 1.2 1.2 1.3.8 1.3.8 7.1 1h5.6c.4.1.6.7.6 1.8 0 1 0 1-.5 1.5-.8.8-1 1.5-1 2.6 0 2 1.3 3.4 3.4 3.4 2 0 3.4-1.4 3.4-3.4 0-1-.2-1.6-1-2.5l-.6-.5v-1.7c0-1.2-.1-1.7-.4-2.3-.4-.9-1.3-1.9-2.3-2.3l-.8-.4H96.5l-.3-.5c-.2-.2-.3-.5-.3-1v-.8h4.1c3.9-.1 4.1-.1 4.8-.4.9-.4 1.7-1.2 2.1-2.1l.4-.7v-4.1c.1-3.7.1-4.1.3-4.3.2-.1 1.3-.2 4.4-.2h4.1l.3.5c.5.6 1.5 1 2.3 1.2 2.1.2 3.8-1.4 3.8-3.4 0-1.1-.3-2-1-2.7a3.4 3.4 0 0 0-4.8.1l-.6.6h-4.7l-4.6.1-.8.4-1.3 1c-1 1.2-1 1.5-1 5.9l-.2 4c0 .2-.8.2-3 .2h-3l.6-.3c.9-.4 1.8-1.3 2.2-2.2l.4-.8v-8.2c.1-8 .1-8.3.4-8.5.2-.1.7-.2 1.7-.2 1.3 0 1.4 0 1.7.4.4.6 1.4 1 2.4 1.1 1.6.2 3-.8 3.5-2.4.3-.9.3-1.1 0-2a3.3 3.3 0 0 0-3.3-2.5c-1 0-1.9.4-2.5 1.1l-.4.5h-1.5c-2.8 0-4.3.8-5.2 2.8l-.5 1v8.1c-.1 8-.2 8.2-.4 8.4-.2.2-.8.2-2.7.2h-2.5v-3h.5c1 0 2-.6 2.6-1.6.2-.4.2-1 .3-5.6l-.1-6.1a7 7 0 0 0-4.9-5.5c-.7-.2-1.2-.3-2.4-.2-1.3 0-1.5 0-2.5.5a7 7 0 0 0-3.8 4.5c-.2.8-.3 1.7-.3 6.3 0 5.6 0 5.8.7 6.7.4.5 1.5 1 2.2 1h.5v3h-2.5c-2.4 0-2.5 0-2.8-.3-.2-.3-.3-.7-.3-8.5l-.1-8.3-.4-.7c-.4-1-1.4-1.8-2.3-2.3-.7-.3-1-.3-2.6-.4-1.7 0-1.8 0-2-.4l-1-.8c-1-.5-2.3-.5-3.3 0Z" fill="url(#paint7_)" fill-opacity=".2"/>
      <path class="b5" d="M119.8 104.8c-1.6.8-2.2 2.5-1.7 4.2.2.8 1.4 2 2.2 2.2 1.3.4 2.6 0 3.5-.8l.5-.6h1.4c1.3 0 1.5 0 1.8.3.2.3.2.7.3 8.5v8.3l.4.7c.4.8 1.3 1.7 2 2.1l.6.3H128l-3-.1c-.1-.2-.2-1.7-.2-4.3v-4.1l-.5-.8c-.5-1-1.3-1.6-2.3-2-.7-.2-1-.3-5.2-.3h-4.4l-.4-.4a3.5 3.5 0 1 0-4 5.5c1.3.6 2.6.3 3.8-.7l.8-.7h4c3.3 0 4 0 4.2.2.4.3.4.3.4 4.1 0 3.6 0 4 .3 4.7.3 1 1.2 1.9 2.1 2.3.7.4.8.4 4.8.5h4.1v.8c0 1.4.4 1.3-6 1.4-5.6.1-5.7.1-6.4.4-.8.4-1.9 1.4-2.3 2.2a7 7 0 0 0-.6 3.2c0 1 0 1-.4 1.4l-.8 1.1c-.3.7-.4 1-.3 1.7.2 3.2 4 4.5 6 2.1a3 3 0 0 0 .9-2.3 3 3 0 0 0-1-2.5c-.6-.6-.6-.6-.6-1.7 0-1.9-.4-1.8 5.2-1.8h5.7c1.7-.3 2.8-1 3.7-2.3l.4-.7v7c0 6.5 0 7-.3 7.6-.9 2-3.5 2.1-4.6.3-.3-.5-.3-.8-.3-1.8 0-1.1 0-1.2.4-1.5.3-.2.6-.7.8-1.1 1.2-2.6-1-5.5-3.9-5a3.5 3.5 0 0 0-1.6 6.1c.4.4.4.5.4 1.4 0 2.9 1.4 5.2 3.8 6.4.8.4 1.2.4 2.4.5 1 0 1.5 0 2-.2a6.3 6.3 0 0 0 3.6-2.8c1-1.5 1-1.4 1-11v-8.5h2v17.3c.5 2 1.9 3.8 3.7 4.7 1 .4 1 .4 2.7.4 1.5 0 1.7 0 2.4-.3a6.4 6.4 0 0 0 3.9-6.1V149l.6-.6c1-1 1.3-2.2.9-3.5-.3-1-.8-1.6-1.7-2-.6-.4-1-.5-1.7-.5a3.5 3.5 0 0 0-2.3 6c.5.5.5.6.5 1.5 0 1.2-.3 2-1 2.5-1.2 1.1-3 .8-3.9-.6l-.3-.6V137l.5.8c.2.4.7 1 1 1.2 1.4.8 1.4.8 7.2 1h5.6c.4.1.6.7.6 1.8 0 1 0 1-.5 1.5-.8.8-1 1.5-1 2.6 0 2 1.3 3.4 3.4 3.4 2 0 3.4-1.4 3.4-3.4 0-1-.2-1.6-1-2.5l-.6-.5v-1.7c0-1.2-.1-1.7-.4-2.3-.4-.9-1.3-1.9-2.3-2.3l-.8-.4h-11.2l-.3-.5c-.2-.2-.3-.5-.3-1v-.8h4.1c3.9-.1 4.1-.1 4.8-.4.9-.4 1.7-1.2 2.1-2.1l.4-.7v-4.1c.1-3.7.1-4.1.3-4.3.2-.1 1.3-.2 4.4-.2h4.1l.3.5c.5.6 1.5 1 2.3 1.2 2.1.2 3.9-1.4 3.9-3.4 0-1.1-.4-2-1.2-2.7a3.4 3.4 0 0 0-4.7.1l-.6.6h-4.7l-4.6.1-.8.4-1.3 1c-1 1.2-1 1.5-1 5.9l-.2 4c0 .2-.8.2-3 .2h-3l.6-.3c.9-.4 1.8-1.3 2.2-2.2l.4-.8v-8.2c.1-8 .1-8.3.4-8.5.2-.1.7-.2 1.7-.2 1.3 0 1.4 0 1.7.4.4.6 1.4 1 2.4 1.1 1.6.2 3-.8 3.5-2.4.3-.9.3-1.1 0-2a3.3 3.3 0 0 0-3.3-2.5c-1 0-1.9.4-2.5 1.1l-.4.5h-1.5c-2.8 0-4.3.8-5.2 2.8l-.5 1v8.1c-.1 8-.1 8.2-.4 8.4-.2.2-.8.2-2.7.2h-2.5v-3h.5c1 0 2-.6 2.6-1.6.2-.4.2-1 .3-5.6l-.1-6.1a7 7 0 0 0-4.9-5.5c-.7-.2-1.2-.3-2.4-.2-1.3 0-1.5 0-2.5.5a7 7 0 0 0-3.8 4.5c-.2.8-.3 1.7-.3 6.3 0 5.6 0 5.8.7 6.7.4.5 1.5 1 2.2 1h.5v3h-2.5c-2.4 0-2.5 0-2.8-.3-.2-.3-.3-.7-.3-8.5l-.1-8.3-.4-.7c-.4-1-1.4-1.8-2.3-2.3-.7-.3-1-.3-2.6-.4-1.7 0-1.8 0-2-.4l-1-.8c-1-.5-2.3-.5-3.3 0Z" fill="url(#paint8_)" fill-opacity=".5"/>
      <path class="b4" d="M172.7 131c-1.5.7-2.2 2.4-1.7 4.1.2.8 1.4 2 2.2 2.2 1.3.4 2.6 0 3.5-.8l.5-.6h1.5c1.2 0 1.4 0 1.7.3.2.3.2.7.3 8.6v8.2l.4.7c.4.8 1.3 1.8 2 2.2l.6.3H181c-2.1 0-2.9 0-3-.2-.1-.1-.2-1.7-.2-4.3v-4l-.5-.9c-.5-.9-1.3-1.6-2.3-2-.7-.2-1-.2-5.2-.2h-4.4l-.4-.5a3.5 3.5 0 1 0-4 5.6c1.3.5 2.6.3 3.8-.8l.8-.7h4c3.3 0 4 0 4.3.3.3.2.3.2.3 4 0 3.6 0 4 .3 4.7.3 1 1.2 1.9 2.1 2.4.7.3.8.3 4.8.4h4.1v.9c0 1.4.4 1.3-6 1.4-5.6 0-5.7 0-6.4.4-.8.3-1.9 1.3-2.3 2.2a7 7 0 0 0-.6 3.1c0 1 0 1.1-.4 1.4-.2.2-.6.7-.8 1.2-.3.6-.4.8-.3 1.6.2 3.2 4 4.5 6 2.2a3 3 0 0 0 .9-2.4 3 3 0 0 0-1-2.4c-.6-.6-.6-.7-.6-1.8 0-1.9-.3-1.7 5.2-1.7l5.7-.1c1.7-.2 2.8-1 3.7-2.3l.4-.6v7c0 6.4 0 7-.3 7.5-.9 2-3.5 2.2-4.6.3-.3-.5-.3-.8-.3-1.8s0-1.1.4-1.5c.3-.2.6-.7.8-1 1.2-2.7-1-5.6-3.9-5a3.5 3.5 0 0 0-1.6 6c.4.4.5.5.5 1.4 0 3 1.3 5.3 3.7 6.4.8.4 1.2.5 2.4.5 1 0 1.5 0 2-.2a6.3 6.3 0 0 0 3.6-2.7c1-1.6 1-1.4 1-11v-8.6h2v17.3c.5 2 1.9 3.8 3.7 4.7 1 .4 1 .5 2.7.5 1.5 0 1.7 0 2.4-.4a6.4 6.4 0 0 0 3.9-6.1V175l.6-.6c1-1 1.3-2.2.9-3.5-.3-.9-.8-1.5-1.7-2-.6-.4-1-.4-1.7-.4a3.5 3.5 0 0 0-2.3 6c.5.4.5.5.5 1.4 0 1.2-.3 2-1 2.6-1.2 1-3 .7-3.9-.7l-.3-.6v-14.1l.5.7c.2.4.7 1 1 1.2 1.4.9 1.4.9 7.2 1h5.6c.4.2.6.7.6 1.9 0 1 0 1-.5 1.5-.7.7-1 1.5-1 2.5 0 2 1.4 3.5 3.4 3.5s3.4-1.5 3.4-3.5c0-1-.2-1.6-1-2.4l-.6-.6v-1.6c0-1.3-.1-1.8-.4-2.3-.4-1-1.3-2-2.3-2.4l-.8-.4h-11.2l-.3-.4c-.2-.3-.2-.6-.2-1.1v-.8h4c4 0 4.1 0 4.8-.4.9-.4 1.7-1.2 2.1-2l.4-.8v-4c.1-3.7.1-4.2.3-4.4.2-.1 1.3-.2 4.4-.2h4.1l.3.5c.5.6 1.5 1.1 2.3 1.2 2.1.2 3.9-1.3 3.9-3.4 0-1.1-.4-2-1.2-2.7a3.4 3.4 0 0 0-4.7.1l-.6.7h-9.3l-.8.4-1.3 1c-1 1.2-1 1.5-1 6l-.2 4c0 .1-.8.2-3 .2h-3l.6-.3c.9-.5 1.8-1.4 2.2-2.3l.4-.8v-8.2c.1-8 .1-8.3.4-8.5.2-.1.7-.2 1.7-.2 1.3 0 1.4 0 1.7.4.4.6 1.4 1 2.4 1.2 1.6 0 3-.9 3.5-2.5.3-.8.3-1.1 0-2a3.3 3.3 0 0 0-3.3-2.4c-1 0-1.9.3-2.5 1l-.4.5h-1.5c-2.8 0-4.2.8-5.2 2.8l-.5 1v8.1c-.1 8-.1 8.2-.4 8.4-.2.2-.8.2-2.7.2h-2.5v-2.9h.5c1 0 2-.7 2.6-1.7a61.8 61.8 0 0 0 .2-11.7 7 7 0 0 0-4.9-5.5c-.7-.2-1.2-.3-2.4-.2-1.3 0-1.5 0-2.5.5a7 7 0 0 0-3.8 4.5c-.2.8-.3 1.7-.3 6.3 0 5.6 0 5.9.7 6.7.4.5 1.5 1 2.2 1h.5v3h-2.5c-2.4 0-2.5 0-2.8-.3-.2-.2-.3-.7-.3-8.5l-.1-8.2-.4-.7c-.4-1-1.3-1.9-2.3-2.3-.7-.4-1-.4-2.6-.5-1.7 0-1.8 0-2-.4l-1-.7c-1-.6-2.3-.6-3.3 0Z" fill="url(#paint9_)" fill-opacity=".5"/>
      <path class="b3" d="M235.1 131c-1.5.7-2.2 2.4-1.7 4.1.3.8 1.4 2 2.2 2.2 1.3.4 2.7 0 3.5-.8l.6-.6h1.4c1.3 0 1.5 0 1.7.3.3.3.3.7.4 8.6v8.2l.4.7c.4.8 1.3 1.8 2 2.2l.6.3h-2.8c-2.2 0-3 0-3-.2-.1-.1-.2-1.7-.2-4.3v-4l-.5-.9c-.5-.9-1.3-1.6-2.3-2-.7-.2-1-.2-5.2-.2h-4.4l-.5-.5a3.5 3.5 0 1 0-4 5.6c1.4.5 2.7.3 3.8-.8l.8-.7h4c3.4 0 4 0 4.3.3.3.2.3.2.3 4 0 3.6 0 4 .3 4.7.4 1 1.2 1.9 2.2 2.4.7.3.8.3 4.8.4h4.1v.9c0 1.4.4 1.3-6.1 1.4-5.5 0-5.6 0-6.3.4-.9.3-2 1.3-2.4 2.2a7 7 0 0 0-.5 3.1c0 1 0 1.1-.4 1.4-.3.2-.6.7-.8 1.2-.4.6-.4.8-.4 1.6.3 3.2 4 4.5 6 2.2a3 3 0 0 0 1-2.4 3 3 0 0 0-1-2.4c-.6-.6-.6-.7-.6-1.8 0-1.9-.4-1.7 5.1-1.7l5.8-.1c1.7-.2 2.8-1 3.6-2.3l.5-.6v7c0 6.4 0 7-.3 7.5-.9 2-3.5 2.2-4.6.3-.3-.5-.4-.8-.4-1.8s0-1.1.5-1.5l.7-1c1.3-2.7-1-5.6-3.8-5a3.5 3.5 0 0 0-1.6 6c.4.4.4.5.4 1.4 0 3 1.4 5.3 3.8 6.4.8.4 1.1.5 2.3.5 1 0 1.6 0 2.1-.2a6.3 6.3 0 0 0 3.6-2.7c1-1.6 1-1.4 1-11v-8.6h2v17.3c.4 2 1.8 3.8 3.7 4.7.9.4 1 .5 2.6.5s1.8 0 2.5-.4a6.4 6.4 0 0 0 3.8-6.1V175l.7-.6c1-1 1.2-2.2.8-3.5-.2-.9-.8-1.5-1.6-2-.7-.4-1-.4-1.7-.4a3.5 3.5 0 0 0-2.4 6c.5.4.6.5.6 1.4 0 1.2-.4 2-1 2.6-1.3 1-3 .7-4-.7l-.3-.6v-14.1l.5.7 1.1 1.2c1.3.9 1.4.9 7.2 1h5.6c.4.2.6.7.6 1.9 0 1 0 1-.5 1.5-.8.7-1.1 1.5-1.1 2.5 0 2 1.4 3.5 3.4 3.5s3.5-1.5 3.5-3.5c0-1-.3-1.6-1-2.4l-.6-.6v-1.6c-.1-1.3-.2-1.8-.4-2.3-.4-1-1.3-2-2.3-2.4l-.8-.4h-11.2l-.3-.4c-.2-.3-.3-.6-.3-1.1v-.8h4c4 0 4.2 0 4.8-.4 1-.4 1.7-1.2 2.2-2l.4-.8v-4c0-3.7.1-4.2.3-4.4.2-.1 1.2-.2 4.4-.2h4.1l.3.5c.4.6 1.4 1.1 2.3 1.2 2 .2 3.8-1.3 3.8-3.4a3.4 3.4 0 0 0-5.8-2.5l-.7.6H275l-.7.4-1.3 1c-1 1.2-1 1.5-1.1 6l-.1 4c0 .1-.8.2-3 .2h-3l.6-.3c.8-.5 1.7-1.4 2.2-2.3l.3-.8.1-8.2c0-8 .1-8.3.4-8.5.2-.1.7-.2 1.6-.2 1.4 0 1.5 0 1.7.4.5.6 1.5 1 2.4 1.2 1.7 0 3.1-.9 3.6-2.5.3-.8.3-1.1 0-2a3.3 3.3 0 0 0-3.3-2.4c-1.1 0-2 .3-2.6 1l-.4.5H271c-2.7 0-4.2.8-5.2 2.8l-.4 1-.1 8.1c0 8 0 8.2-.3 8.4-.2.2-.9.2-2.8.2h-2.4v-2.9h.5c1 0 2-.7 2.6-1.7.2-.3.2-1 .3-5.5 0-3.5 0-5.5-.2-6.2a7 7 0 0 0-4.8-5.5c-.8-.2-1.2-.3-2.4-.2-1.3 0-1.5 0-2.5.5a7 7 0 0 0-3.8 4.5c-.2.8-.3 1.7-.3 6.3 0 5.6 0 5.9.7 6.7.4.5 1.5 1 2.2 1h.5v3H250c-2.4 0-2.6 0-2.8-.3-.3-.2-.3-.7-.4-8.5v-8.2l-.4-.7c-.5-1-1.4-1.9-2.4-2.3-.7-.4-1-.4-2.6-.5-1.7 0-1.8 0-2-.4 0-.1-.5-.5-1-.7-1-.6-2.2-.6-3.3 0Z" fill="url(#paint10_)" fill-opacity=".5"/>
      <path class="b2" d="M288 104.8c-1.5.8-2.2 2.5-1.7 4.2.3.8 1.4 2 2.2 2.2 1.3.4 2.7 0 3.5-.8l.6-.6h1.4c1.3 0 1.5 0 1.7.3.3.3.3.7.4 8.5v8.3l.4.7c.4.8 1.3 1.7 2 2.1l.6.3h-2.8l-3-.1c-.1-.2-.2-1.7-.2-4.3v-4.1l-.5-.8c-.5-1-1.3-1.6-2.3-2-.7-.2-1-.3-5.2-.3h-4.4l-.5-.4a3.5 3.5 0 1 0-4 5.5c1.4.6 2.7.3 3.8-.7l.8-.7h4c3.4 0 4 0 4.3.2.3.3.3.3.3 4.1 0 3.6 0 4 .3 4.7.4 1 1.2 1.9 2.2 2.3.7.4.8.4 4.8.5h4.1v.8c0 1.4.4 1.3-6.1 1.4-5.5.1-5.6.1-6.3.4-.9.4-2 1.4-2.3 2.2a7 7 0 0 0-.6 3.2c0 1 0 1-.4 1.4-.3.2-.6.7-.8 1.1-.4.7-.4 1-.4 1.7.3 3.2 4 4.5 6 2.1a3 3 0 0 0 1-2.3 3 3 0 0 0-1-2.5c-.6-.6-.6-.6-.6-1.7 0-1.9-.4-1.8 5.1-1.8h5.8c1.7-.3 2.8-1 3.7-2.3l.4-.7v7c0 6.5 0 7-.3 7.6-.9 2-3.5 2.1-4.6.3-.3-.5-.4-.8-.4-1.8 0-1.1 0-1.2.5-1.5l.8-1.1c1.2-2.6-1.1-5.5-4-5a3.5 3.5 0 0 0-1.5 6.1c.4.4.4.5.4 1.4 0 2.9 1.4 5.2 3.8 6.4.8.4 1.2.4 2.3.5 1 0 1.6 0 2.1-.2a6.3 6.3 0 0 0 3.6-2.8c1-1.5 1-1.4 1-11v-8.5h2v17.3c.4 2 1.9 3.8 3.7 4.7 1 .4 1 .4 2.6.4s1.8 0 2.5-.3a6.4 6.4 0 0 0 3.8-6.1V149l.7-.6c1-1 1.2-2.2.8-3.5-.2-1-.8-1.6-1.6-2-.6-.4-1-.5-1.7-.5a3.5 3.5 0 0 0-2.4 6c.5.5.6.6.6 1.5 0 1.2-.4 2-1 2.5-1.3 1.1-3 .8-4-.6l-.3-.6V137l.5.8c.3.4.8 1 1.2 1.2 1.2.8 1.3.8 7 1h5.7c.4.1.6.7.6 1.8 0 1 0 1-.5 1.5-.8.8-1.1 1.5-1.1 2.6 0 2 1.4 3.4 3.4 3.4s3.5-1.4 3.5-3.4c0-1-.3-1.6-1-2.5l-.6-.5v-1.7c0-1.2-.2-1.7-.4-2.3-.4-.9-1.3-1.9-2.3-2.3l-.8-.4h-11.2l-.3-.5c-.2-.2-.3-.5-.3-1v-.8h4c4-.1 4.2-.1 4.8-.4 1-.4 1.7-1.2 2.2-2.1l.4-.7v-4.1c0-3.7.1-4.1.3-4.3.2-.1 1.2-.2 4.4-.2h4.1l.3.5c.4.6 1.4 1 2.3 1.2 2 .2 3.8-1.4 3.8-3.4a3.4 3.4 0 0 0-5.8-2.5l-.7.5h-4.6l-4.7.1-.7.4-1.3 1c-1 1.2-1 1.5-1.1 5.9l-.1 4c0 .2-.8.2-3 .2h-3l.6-.3c.8-.4 1.7-1.3 2.2-2.2l.4-.8v-8.2c0-8 .1-8.3.4-8.5.2-.1.7-.2 1.6-.2 1.4 0 1.5 0 1.7.4.5.6 1.5 1 2.4 1.1 1.7.2 3.1-.8 3.6-2.4.3-.9.3-1.1 0-2a3.3 3.3 0 0 0-3.3-2.5c-1 0-2 .4-2.5 1.1l-.5.5h-1.5c-2.7 0-4.2.8-5.2 2.8l-.4 1v8.1c-.2 8-.2 8.2-.4 8.4-.2.2-.9.2-2.8.2h-2.4v-3h.5c1 0 2-.6 2.6-1.6.2-.4.2-1 .3-5.6 0-3.4 0-5.5-.2-6.1a7 7 0 0 0-4.8-5.5c-.8-.2-1.2-.3-2.4-.2-1.3 0-1.5 0-2.5.5a7 7 0 0 0-3.8 4.5c-.2.8-.3 1.7-.3 6.3 0 5.6 0 5.8.7 6.7.4.5 1.5 1 2.2 1h.5v3h-2.5c-2.4 0-2.6 0-2.8-.3-.3-.3-.3-.7-.4-8.5v-8.3l-.4-.7c-.4-1-1.4-1.8-2.4-2.3-.7-.3-1-.3-2.6-.4-1.7 0-1.8 0-2-.4 0-.2-.5-.5-1-.8-1-.5-2.2-.5-3.3 0Z" fill="url(#paint11_)" fill-opacity=".5"/>
      <path class="b1" d="M341 78.7c-1.6.7-2.3 2.4-1.7 4.2.2.8 1.4 2 2.1 2.2 1.3.3 2.7 0 3.5-.9l.6-.5h1.4c1.3 0 1.5 0 1.7.3.3.3.3.7.4 8.5v8.2l.4.7c.4.9 1.3 1.8 2 2.2l.6.3h-2.8c-2.2 0-3 0-3-.2-.1 0-.2-1.6-.2-4.2v-4.2l-.5-.7c-.5-1-1.3-1.6-2.3-2-.7-.3-1-.3-5.2-.3h-4.4l-.5-.5a3.5 3.5 0 1 0-4 5.6c1.4.6 2.7.3 3.9-.7l.7-.7h4c3.4 0 4 0 4.3.2.3.2.3.3.3 4.1 0 3.6 0 4 .3 4.7.4 1 1.2 1.8 2.2 2.3.7.3.8.4 4.8.4l4.1.1v.8c0 1.4.4 1.3-6.1 1.4-5.5 0-5.6 0-6.3.4-.9.4-2 1.4-2.3 2.2a7 7 0 0 0-.6 3.2c0 1 0 1-.4 1.4-.3.2-.6.7-.8 1-.4.8-.4 1-.3 1.8.2 3.1 4 4.4 6 2a3 3 0 0 0 .8-2.2 3 3 0 0 0-1-2.5c-.5-.6-.5-.6-.5-1.8 0-1.8-.4-1.7 5.1-1.7l5.8-.1c1.7-.2 2.8-.9 3.7-2.3l.4-.6v7c0 6.5 0 7-.3 7.6-.9 2-3.5 2-4.6.3-.3-.6-.4-.8-.4-1.8 0-1.2 0-1.2.5-1.6l.8-1c1.2-2.7-1.1-5.6-3.9-5a3.5 3.5 0 0 0-1.6 6c.4.5.4.6.4 1.4 0 3 1.4 5.3 3.8 6.4.8.4 1.2.5 2.3.5 1 0 1.6 0 2.1-.2a6.3 6.3 0 0 0 3.6-2.7c1-1.6 1-1.4 1-11v-8.5h2v17.2c.4 2 1.9 3.9 3.7 4.7 1 .5 1 .5 2.6.5s1.8 0 2.5-.4a6.4 6.4 0 0 0 3.8-6v-1.4l.7-.6c1-1 1.2-2.2.8-3.5-.2-.9-.8-1.5-1.6-2-.6-.3-1-.4-1.7-.4a3.5 3.5 0 0 0-2.3 6c.4.5.5.5.5 1.5 0 1.2-.4 2-1 2.5-1.3 1-3 .8-4-.6l-.3-.7v-14l.5.7c.3.4.8.9 1.2 1.1 1.2 1 1.3 1 7 1h5.7c.4.2.6.8.6 1.9 0 1 0 1-.5 1.5-.8.8-1.1 1.5-1.1 2.6 0 2 1.4 3.4 3.4 3.4s3.5-1.4 3.5-3.4c0-1.1-.2-1.7-1-2.5l-.6-.6v-1.6c0-1.3-.2-1.8-.4-2.3-.4-1-1.3-1.9-2.3-2.3l-.8-.4h-5.6l-5.6-.1-.3-.4c-.2-.2-.3-.6-.3-1.1v-.8h4c4 0 4.2 0 4.9-.4.8-.4 1.6-1.1 2.1-2l.4-.8v-4c0-3.7.1-4.2.3-4.3.2-.2 1.2-.2 4.4-.2h4.1l.3.4c.4.6 1.4 1.1 2.3 1.2 2 .3 3.8-1.3 3.8-3.4 0-1-.3-2-1.1-2.6a3.4 3.4 0 0 0-4.7 0l-.7.7h-9.3l-.7.5c-.4.2-1 .6-1.3 1-1 1.1-1 1.4-1.1 5.9l-.1 4c0 .2-.8.2-3 .2h-3l.6-.3c.8-.4 1.7-1.4 2.2-2.2l.4-.8v-8.3c.1-8 .1-8.2.4-8.4.2-.2.7-.2 1.6-.2 1.4 0 1.5 0 1.7.3.5.6 1.5 1.1 2.4 1.2 1.7.1 3.1-.9 3.6-2.4.3-1 .3-1.2 0-2a3.3 3.3 0 0 0-3.3-2.5c-1 0-2 .3-2.5 1l-.5.5h-1.5c-2.7 0-4.2.9-5.2 2.9l-.4.9v8.2c-.2 7.9-.2 8.2-.4 8.4-.2.1-.9.2-2.8.2h-2.4v-3h.5c1 0 2-.7 2.6-1.6.2-.4.2-1.1.3-5.6l-.1-6.1a7 7 0 0 0-4.9-5.6c-.8-.2-1.2-.2-2.4-.2-1.3 0-1.5.1-2.5.6a7 7 0 0 0-3.8 4.5c-.2.8-.3 1.7-.3 6.2 0 5.6 0 5.9.7 6.8.4.5 1.5 1 2.2 1h.5v3h-2.5c-2.4 0-2.6 0-2.8-.3-.3-.3-.3-.7-.4-8.6v-8.2l-.4-.7c-.4-1-1.4-1.8-2.4-2.3-.7-.3-1-.4-2.6-.4-1.7 0-1.8 0-2-.4 0-.2-.5-.5-1-.8-1-.6-2.2-.6-3.3 0Z" fill="url(#paint12_)" fill-opacity=".5"/>
      <path class="b6" d="M66.9 79.3c-1.6.8-2.2 2.5-1.7 4.2.2.8 1.4 2 2.1 2.2 1.4.4 2.7 0 3.6-.8l.5-.6h1.4c1.3 0 1.5 0 1.8.3.2.3.2.7.3 8.5v8.3l.4.7c.4.8 1.3 1.7 2 2.2l.6.2h-2.8l-3-.1c-.1-.2-.2-1.7-.2-4.3V96l-.5-.8c-.5-1-1.3-1.6-2.3-2-.7-.2-1-.3-5.2-.3h-4.4l-.4-.4a3.5 3.5 0 1 0-4 5.5c1.3.6 2.6.3 3.8-.7l.7-.7h4c3.4 0 4 0 4.3.2.4.3.4.3.4 4.1 0 3.6 0 4 .3 4.7.3 1 1.2 1.9 2.1 2.3.7.4.8.4 4.8.5h4.1v.8c0 1.4.4 1.3-6 1.4-5.6.1-5.7.1-6.4.4-.8.4-1.9 1.4-2.3 2.3a7 7 0 0 0-.6 3c0 1 0 1.2-.4 1.5-.3.2-.6.7-.8 1.1-.3.7-.4 1-.3 1.7.2 3.2 4 4.5 6 2.1a3 3 0 0 0 .9-2.3 3 3 0 0 0-1-2.4c-.6-.7-.6-.7-.6-1.8 0-1.9-.4-1.8 5.2-1.8H79c1.7-.3 2.8-1 3.7-2.3l.4-.7v7c0 6.5 0 7-.3 7.6-.9 2-3.5 2.1-4.6.3-.3-.5-.3-.8-.3-1.8 0-1.1 0-1.2.4-1.5.3-.2.6-.7.8-1.1 1.2-2.6-1.1-5.5-3.9-5a3.5 3.5 0 0 0-1.6 6.1c.4.4.4.5.4 1.4 0 3 1.4 5.2 3.8 6.4.8.4 1.2.4 2.3.5 1 0 1.6 0 2.2-.2a6.3 6.3 0 0 0 3.5-2.8c1-1.5 1-1.4 1-10.9v-8.6h2V126c.4 2 1.9 3.8 3.7 4.7 1 .4 1 .4 2.7.4 1.5 0 1.7 0 2.4-.3a6.4 6.4 0 0 0 3.9-6.1v-1.3l.6-.6c1-1 1.2-2.2.9-3.5-.3-1-.9-1.6-1.7-2-.6-.4-1-.5-1.7-.5a3.5 3.5 0 0 0-2.3 6c.5.5.5.6.5 1.5 0 1.2-.3 2-1 2.5-1.3 1.1-3 .8-3.9-.6l-.3-.6v-14.1l.4.7c.3.4.8 1 1.2 1.2 1.3.8 1.3.8 7.1 1h5.6c.4.1.6.7.6 1.8 0 1 0 1-.5 1.5-.8.8-1 1.5-1 2.6 0 2 1.3 3.5 3.4 3.5 2 0 3.4-1.5 3.4-3.5 0-1-.2-1.6-1-2.5l-.6-.5v-1.7c0-1.2-.1-1.7-.4-2.3-.4-.9-1.3-1.8-2.3-2.3l-.8-.4H96.5l-.3-.4c-.2-.3-.3-.6-.3-1.2v-.7h4.1c3.9-.1 4.1-.1 4.8-.4.9-.4 1.7-1.2 2.1-2.1l.4-.7V101c.1-3.7.1-4.1.3-4.3.2-.1 1.3-.2 4.4-.2h4.1l.3.5c.5.6 1.5 1 2.3 1.2 2.1.2 3.8-1.4 3.8-3.4 0-1.1-.3-2-1-2.7a3.4 3.4 0 0 0-4.8.1l-.6.6h-4.7l-4.6.1-.8.4-1.3 1c-1 1.2-1 1.5-1 5.9l-.2 4c0 .2-.8.2-3 .2h-3l.6-.3c.9-.4 1.8-1.3 2.2-2.2l.4-.8V93c.1-8 .1-8.3.4-8.5.2-.1.7-.2 1.7-.2 1.3 0 1.4 0 1.7.4.4.6 1.4 1 2.4 1.1 1.6.2 3-.8 3.5-2.4.3-.9.3-1.1 0-2a3.3 3.3 0 0 0-3.3-2.5c-1 0-1.9.4-2.5 1.1l-.4.5h-1.5c-2.8 0-4.3.8-5.2 2.8l-.5 1v8.1c-.1 8-.2 8.2-.4 8.4-.2.2-.8.2-2.7.2h-2.5v-3h.5c1 0 2-.6 2.6-1.6.2-.4.2-1 .3-5.6l-.1-6.1a7 7 0 0 0-4.9-5.5c-.7-.2-1.2-.3-2.4-.2-1.3 0-1.5 0-2.5.5a7 7 0 0 0-3.8 4.5c-.2.8-.3 1.7-.3 6.3 0 5.6 0 5.8.7 6.7.4.5 1.5 1 2.2 1h.5v3h-2.5c-2.4 0-2.5 0-2.8-.3-.2-.3-.3-.7-.3-8.5l-.1-8.2-.4-.8c-.4-.9-1.4-1.8-2.3-2.3-.7-.3-1-.3-2.6-.4-1.7 0-1.8 0-2-.4l-1-.7c-1-.6-2.3-.6-3.3-.1Z" fill="url(#paint13_)" fill-opacity=".5"/>
      <path class="c4" d="M172.7 183.2c-1.5.8-2.2 2.5-1.7 4.2.2.8 1.4 2 2.2 2.2 1.3.4 2.6 0 3.5-.8l.5-.6h1.5c1.2 0 1.4 0 1.7.3.2.3.2.7.3 8.5v8.3l.4.7c.4.8 1.3 1.7 2 2.1l.6.3H181l-3-.1c-.1-.2-.2-1.7-.2-4.3v-4.1l-.5-.8c-.5-1-1.3-1.6-2.3-2-.7-.2-1-.3-5.2-.3h-4.4l-.4-.4a3.5 3.5 0 1 0-4 5.5c1.3.6 2.6.3 3.8-.7l.8-.7h4c3.3 0 4 0 4.3.2.3.3.3.3.3 4.1 0 3.6 0 4 .3 4.7.3 1 1.2 1.9 2.1 2.3.7.4.8.4 4.8.5h4.1v.8c0 1.4.4 1.3-6 1.4-5.6.1-5.7.1-6.4.4-.8.4-1.9 1.4-2.3 2.2a7 7 0 0 0-.6 3.2c0 1 0 1-.4 1.4l-.8 1.1c-.3.7-.4 1-.3 1.7.2 3.1 4 4.5 6 2.1a3 3 0 0 0 .9-2.3 3 3 0 0 0-1-2.5c-.6-.6-.6-.6-.6-1.7 0-1.9-.3-1.8 5.2-1.8h5.7c1.7-.3 2.8-1 3.7-2.3l.4-.7v7c0 6.5 0 7-.3 7.6-.9 2-3.5 2.1-4.6.3-.3-.5-.3-.8-.3-1.8 0-1.1 0-1.2.4-1.5.3-.2.6-.7.8-1.1 1.2-2.6-1-5.5-3.9-5a3.5 3.5 0 0 0-1.6 6.1c.4.4.5.5.5 1.4 0 2.9 1.3 5.2 3.7 6.4.8.4 1.2.4 2.4.5 1 0 1.5 0 2-.2a6.3 6.3 0 0 0 3.6-2.8c1-1.5 1-1.4 1-11v-8.5h2V230c.5 2 1.9 3.8 3.7 4.7 1 .4 1 .4 2.7.4 1.5 0 1.7 0 2.4-.3a6.4 6.4 0 0 0 3.9-6.1v-1.3l.6-.6c1-1 1.3-2.2.9-3.5-.3-1-.8-1.6-1.7-2-.6-.4-1-.5-1.7-.5a3.5 3.5 0 0 0-2.3 6c.5.5.5.6.5 1.5 0 1.2-.3 2-1 2.5-1.2 1.1-3 .8-3.9-.6l-.3-.6v-14.2l.5.8c.2.4.7 1 1 1.2 1.4.8 1.4.8 7.2 1h5.6c.4.1.6.7.6 1.8 0 1 0 1-.5 1.5-.7.8-1 1.5-1 2.6 0 2 1.4 3.4 3.4 3.4s3.4-1.4 3.4-3.4c0-1-.2-1.6-1-2.5l-.6-.5v-1.7c0-1.3-.1-1.7-.4-2.3-.4-.9-1.3-1.9-2.3-2.3l-.8-.4h-11.2l-.3-.5c-.2-.2-.2-.5-.2-1v-.8h4c4-.1 4.1-.1 4.8-.4.9-.4 1.7-1.2 2.1-2.1l.4-.7V205c.1-3.7.1-4.1.3-4.3.2-.1 1.3-.2 4.4-.2h4.1l.3.5c.5.6 1.5 1 2.3 1.2 2.1.2 3.9-1.4 3.9-3.4 0-1.1-.4-2-1.2-2.7a3.4 3.4 0 0 0-4.7.1l-.6.6h-4.7l-4.6.1-.8.4-1.3 1c-1 1.2-1 1.5-1 5.9l-.2 4c0 .2-.8.2-3 .2h-3l.6-.3c.9-.4 1.8-1.3 2.2-2.2l.4-.8V197c.1-8 .1-8.3.4-8.5.2-.1.7-.2 1.7-.2 1.3 0 1.4 0 1.7.4.4.6 1.4 1 2.4 1.1 1.6.2 3-.8 3.5-2.4.3-.9.3-1.1 0-2a3.3 3.3 0 0 0-3.3-2.5c-1 0-1.9.4-2.5 1.1l-.4.5h-1.5c-2.8 0-4.2.8-5.2 2.8l-.5 1v8.1c-.1 8-.1 8.2-.4 8.4-.2.2-.8.2-2.7.2h-2.5v-3h.5c1 0 2-.6 2.6-1.6a61.8 61.8 0 0 0 .2-11.7 7 7 0 0 0-4.9-5.5c-.7-.2-1.2-.3-2.4-.2-1.3 0-1.5 0-2.5.5a7 7 0 0 0-3.8 4.5c-.2.8-.3 1.7-.3 6.3 0 5.6 0 5.8.7 6.7.4.5 1.5 1 2.2 1h.5v3h-2.5c-2.4 0-2.5 0-2.8-.3-.2-.3-.3-.7-.3-8.5l-.1-8.3-.4-.7c-.4-1-1.3-1.8-2.3-2.3-.7-.3-1-.3-2.6-.4-1.7 0-1.8 0-2-.4l-1-.8c-1-.5-2.3-.5-3.3 0Z" fill="url(#paint14_)"/>
      <path class="c5" d="M119.8 157c-1.6.8-2.2 2.5-1.7 4.3.2.8 1.4 2 2.2 2.2 1.3.3 2.6 0 3.5-.9l.5-.5h1.4c1.3 0 1.5 0 1.8.3.2.2.2.7.3 8.5v8.2l.4.7c.4.9 1.3 1.8 2 2.2l.6.3H128c-2.2 0-2.9 0-3-.2-.1 0-.2-1.6-.2-4.2v-4.2l-.5-.7c-.5-1-1.3-1.6-2.3-2-.7-.3-1-.3-5.2-.3h-4.4l-.4-.5a3.5 3.5 0 1 0-4 5.6c1.3.6 2.6.3 3.8-.7l.8-.7h4c3.3 0 4 0 4.2.2.4.2.4.3.4 4.1 0 3.6 0 4 .3 4.7.3 1 1.2 1.8 2.1 2.3.7.3.8.4 4.8.4l4.1.1v.8c0 1.4.4 1.3-6 1.4-5.6 0-5.7 0-6.4.4-.8.4-1.9 1.4-2.3 2.2a7 7 0 0 0-.6 3.2c0 1 0 1-.4 1.4l-.8 1c-.3.8-.4 1-.3 1.8.2 3.1 4 4.4 6 2a3 3 0 0 0 .9-2.2 3 3 0 0 0-1-2.5c-.6-.6-.6-.6-.6-1.8 0-1.8-.4-1.7 5.2-1.7l5.7-.1c1.7-.2 2.8-.9 3.7-2.3l.4-.6v7c0 6.5 0 7-.3 7.6-.9 2-3.5 2-4.6.3-.3-.6-.3-.8-.3-1.8 0-1.2 0-1.2.4-1.6.3-.2.6-.7.8-1 1.2-2.7-1-5.6-3.9-5a3.5 3.5 0 0 0-1.6 6c.4.5.4.6.4 1.4 0 3 1.4 5.3 3.8 6.4.8.4 1.2.5 2.4.5 1 0 1.5 0 2-.2a6.3 6.3 0 0 0 3.6-2.7c1-1.6 1-1.4 1-11v-8.5h2v17.2c.5 2 1.9 3.9 3.7 4.7 1 .5 1 .5 2.7.5 1.5 0 1.7 0 2.4-.4a6.4 6.4 0 0 0 3.9-6v-1.4l.6-.6c1-1 1.3-2.2.9-3.5-.3-.9-.8-1.5-1.7-2-.6-.3-1-.4-1.7-.4a3.5 3.5 0 0 0-2.3 6c.5.5.5.5.5 1.5 0 1.2-.3 2-1 2.5-1.2 1-3 .8-3.9-.6l-.3-.7v-14l.5.7c.2.4.7.9 1 1.1 1.4.9 1.4.9 7.2 1h5.6c.4.2.6.8.6 1.9 0 1 0 1-.5 1.5-.8.8-1 1.5-1 2.6 0 2 1.3 3.4 3.4 3.4 2 0 3.4-1.4 3.4-3.4 0-1.1-.2-1.7-1-2.5l-.6-.6v-1.6c0-1.3-.1-1.8-.4-2.3-.4-1-1.3-1.9-2.3-2.3l-.8-.4H155l-5.6-.1-.3-.4c-.2-.2-.3-.6-.3-1.1v-.8h4.1c3.9 0 4.1 0 4.8-.4.9-.4 1.7-1.1 2.1-2l.4-.8v-4c.1-3.7.1-4.2.3-4.3.2-.2 1.3-.2 4.4-.2h4.1l.3.4c.5.6 1.5 1.1 2.3 1.2 2.1.3 3.9-1.3 3.9-3.4 0-1-.4-2-1.2-2.6a3.4 3.4 0 0 0-4.7 0l-.6.7h-9.3l-.8.5c-.4.2-1 .6-1.3 1-1 1.1-1 1.4-1 5.9l-.2 4c0 .2-.8.2-3 .2h-3l.6-.3c.9-.4 1.8-1.4 2.2-2.2l.4-.8v-8.3c.1-8 .1-8.2.4-8.4.2-.2.7-.2 1.7-.2 1.3 0 1.4 0 1.7.3.4.6 1.4 1.1 2.4 1.2 1.6.1 3-.9 3.5-2.4.3-1 .3-1.2 0-2a3.3 3.3 0 0 0-3.3-2.5c-1 0-1.9.3-2.5 1l-.4.5h-1.5c-2.8 0-4.3.9-5.2 2.9l-.5.9v8.2c-.1 7.9-.1 8.2-.4 8.4-.2.1-.8.2-2.7.2h-2.5v-3h.5c1 0 2-.7 2.6-1.6.2-.4.2-1.1.3-5.6l-.1-6.1a7 7 0 0 0-4.9-5.6c-.7-.2-1.2-.2-2.4-.2-1.3 0-1.5.1-2.5.6a7 7 0 0 0-3.8 4.5c-.2.8-.3 1.7-.3 6.2 0 5.6 0 5.9.7 6.8.4.5 1.5 1 2.2 1h.5v3h-2.5c-2.4 0-2.5 0-2.8-.3-.2-.3-.3-.7-.3-8.6l-.1-8.2-.4-.7c-.4-1-1.4-1.8-2.3-2.3-.7-.3-1-.4-2.6-.4-1.7 0-1.8 0-2-.4l-1-.8c-1-.6-2.3-.6-3.3 0Z" fill="url(#paint15_)"/>
      <path class="c3" d="M235.1 183.2c-1.5.8-2.2 2.5-1.7 4.2.3.8 1.4 2 2.2 2.2 1.3.4 2.7 0 3.5-.8l.6-.6h1.4c1.3 0 1.5 0 1.7.3.3.3.3.7.4 8.5v8.3l.4.7c.4.8 1.3 1.7 2 2.1l.6.3h-2.8l-3-.1c-.1-.2-.2-1.7-.2-4.3v-4.1l-.5-.8c-.5-1-1.3-1.6-2.3-2-.7-.2-1-.3-5.2-.3h-4.4l-.5-.4a3.5 3.5 0 1 0-4 5.5c1.4.6 2.7.3 3.8-.7l.8-.7h4c3.4 0 4 0 4.3.2.3.3.3.3.3 4.1 0 3.6 0 4 .3 4.7.4 1 1.2 1.9 2.2 2.3.7.4.8.4 4.8.5h4.1v.8c0 1.4.4 1.3-6.1 1.4-5.5.1-5.6.1-6.3.4-.9.4-2 1.4-2.4 2.2a7 7 0 0 0-.5 3.2c0 1 0 1-.4 1.4-.3.2-.6.7-.8 1.1-.4.7-.4 1-.4 1.7.3 3.1 4 4.5 6 2.1a3 3 0 0 0 1-2.3 3 3 0 0 0-1-2.5c-.6-.6-.6-.6-.6-1.7 0-1.9-.4-1.8 5.1-1.8h5.8c1.7-.3 2.8-1 3.6-2.3l.5-.7v7c0 6.5 0 7-.3 7.6-.9 2-3.5 2.1-4.6.3-.3-.5-.4-.8-.4-1.8 0-1.1 0-1.2.5-1.5.2-.2.6-.7.7-1.1 1.3-2.6-1-5.5-3.8-5a3.5 3.5 0 0 0-1.6 6.1c.4.4.4.5.4 1.4 0 2.9 1.4 5.2 3.8 6.4.8.4 1.1.4 2.3.5 1 0 1.6 0 2.1-.2a6.3 6.3 0 0 0 3.6-2.8c1-1.5 1-1.4 1-11v-8.5h2V230c.4 2 1.8 3.8 3.7 4.7.9.4 1 .4 2.6.4s1.8 0 2.5-.3a6.4 6.4 0 0 0 3.8-6.1v-1.3l.7-.6c1-1 1.2-2.2.8-3.5-.2-1-.8-1.6-1.6-2-.7-.4-1-.5-1.7-.5a3.5 3.5 0 0 0-2.4 6c.5.5.6.6.6 1.5 0 1.2-.4 2-1 2.5-1.3 1.1-3 .8-4-.6l-.3-.6v-14.2l.5.8 1.1 1.2c1.3.8 1.4.8 7.2 1h5.6c.4.1.6.7.6 1.8 0 1 0 1-.5 1.5-.8.8-1.1 1.5-1.1 2.6 0 2 1.4 3.4 3.4 3.4s3.5-1.4 3.5-3.4c0-1-.3-1.6-1-2.5l-.6-.5v-1.7c-.1-1.3-.2-1.7-.4-2.3-.4-.9-1.3-1.9-2.3-2.3l-.8-.4h-11.2l-.3-.5c-.2-.2-.3-.5-.3-1v-.8h4c4-.1 4.2-.1 4.8-.4 1-.4 1.7-1.2 2.2-2.1l.4-.7V205c0-3.7.1-4.1.3-4.3.2-.1 1.2-.2 4.4-.2h4.1l.3.5c.4.6 1.4 1 2.3 1.2 2 .2 3.8-1.4 3.8-3.4a3.4 3.4 0 0 0-5.8-2.5l-.7.5h-4.6l-4.7.1-.7.4-1.3 1c-1 1.2-1 1.5-1.1 5.9l-.1 4c0 .2-.8.2-3 .2h-3l.6-.3c.8-.4 1.7-1.3 2.2-2.2l.3-.8.1-8.2c0-8 .1-8.3.4-8.5.2-.1.7-.2 1.6-.2 1.4 0 1.5 0 1.7.4.5.6 1.5 1 2.4 1.1 1.7.2 3.1-.8 3.6-2.4.3-.9.3-1.1 0-2a3.3 3.3 0 0 0-3.3-2.5c-1.1 0-2 .4-2.6 1.1l-.4.5H271c-2.7 0-4.2.8-5.2 2.8l-.4 1-.1 8.1c0 8 0 8.2-.3 8.4-.2.2-.9.2-2.8.2h-2.4v-3h.5c1 0 2-.6 2.6-1.6.2-.4.2-1 .3-5.6 0-3.4 0-5.5-.2-6.1a7 7 0 0 0-4.8-5.5c-.8-.2-1.2-.3-2.4-.2-1.3 0-1.5 0-2.5.5a7 7 0 0 0-3.8 4.5c-.2.8-.3 1.7-.3 6.3 0 5.6 0 5.8.7 6.7.4.5 1.5 1 2.2 1h.5v3H250c-2.4 0-2.6 0-2.8-.3-.3-.3-.3-.7-.4-8.5v-8.3l-.4-.7c-.5-1-1.4-1.8-2.4-2.3-.7-.3-1-.3-2.6-.4-1.7 0-1.8 0-2-.4 0-.2-.5-.5-1-.8-1-.5-2.2-.5-3.3 0Z" fill="url(#paint16_)"/>
      <path class="c2" d="M288 157c-1.5.8-2.2 2.5-1.7 4.3.3.8 1.4 2 2.2 2.2 1.3.3 2.7 0 3.5-.9l.6-.5h1.4c1.3 0 1.5 0 1.7.3.3.2.3.7.4 8.5v8.2l.4.7c.4.9 1.3 1.8 2 2.2l.6.3h-2.8c-2.2 0-3 0-3-.2-.1 0-.2-1.6-.2-4.2v-4.2l-.5-.7c-.5-1-1.3-1.6-2.3-2-.7-.3-1-.3-5.2-.3h-4.4l-.5-.5a3.5 3.5 0 1 0-4 5.6c1.4.6 2.7.3 3.8-.7l.8-.7h4c3.4 0 4 0 4.3.2.3.2.3.3.3 4.1 0 3.6 0 4 .3 4.7.4 1 1.2 1.8 2.2 2.3.7.3.8.4 4.8.4l4.1.1v.8c0 1.4.4 1.3-6.1 1.4-5.5 0-5.6 0-6.3.4-.9.4-2 1.4-2.3 2.2a7 7 0 0 0-.6 3.2c0 1 0 1-.4 1.4-.3.2-.6.7-.8 1-.4.8-.4 1-.4 1.8.3 3.1 4 4.4 6 2a3 3 0 0 0 1-2.2 3 3 0 0 0-1-2.5c-.6-.6-.6-.6-.6-1.8 0-1.8-.4-1.7 5.1-1.7l5.8-.1c1.7-.2 2.8-.9 3.7-2.3l.4-.6v7c0 6.5 0 7-.3 7.6-.9 2-3.5 2-4.6.3-.3-.6-.4-.8-.4-1.8 0-1.2 0-1.2.5-1.6l.8-1c1.2-2.7-1.1-5.6-4-5a3.5 3.5 0 0 0-1.5 6c.4.5.4.6.4 1.4 0 3 1.4 5.3 3.8 6.4.8.4 1.2.5 2.3.5 1 0 1.6 0 2.1-.2a6.3 6.3 0 0 0 3.6-2.7c1-1.6 1-1.4 1-11v-8.5h2v17.2c.4 2 1.9 3.9 3.7 4.7 1 .5 1 .5 2.6.5s1.8 0 2.5-.4a6.4 6.4 0 0 0 3.8-6v-1.4l.7-.6c1-1 1.2-2.2.8-3.5-.2-.9-.8-1.5-1.6-2-.6-.3-1-.4-1.7-.4a3.5 3.5 0 0 0-2.4 6c.5.5.6.5.6 1.5 0 1.2-.4 2-1 2.5-1.3 1-3 .8-4-.6l-.3-.7v-14l.5.7c.3.4.8.9 1.2 1.1 1.2.9 1.3.9 7 1h5.7c.4.2.6.8.6 1.9 0 1 0 1-.5 1.5-.8.8-1.1 1.5-1.1 2.6 0 2 1.4 3.4 3.4 3.4s3.5-1.4 3.5-3.4c0-1.1-.3-1.7-1-2.5l-.6-.6v-1.6c0-1.3-.2-1.8-.4-2.3-.4-1-1.3-1.9-2.3-2.3l-.8-.4h-5.6l-5.6-.1-.3-.4c-.2-.2-.3-.6-.3-1.1v-.8h4c4 0 4.2 0 4.8-.4 1-.4 1.7-1.1 2.2-2l.4-.8v-4c0-3.7.1-4.2.3-4.3.2-.2 1.2-.2 4.4-.2h4.1l.3.4c.4.6 1.4 1.1 2.3 1.2 2 .3 3.8-1.3 3.8-3.4 0-1-.3-2-1.1-2.6a3.4 3.4 0 0 0-4.7 0l-.7.7H328l-.7.5c-.4.2-1 .6-1.3 1-1 1.1-1 1.4-1.1 5.9l-.1 4c0 .2-.8.2-3 .2h-3l.6-.3c.8-.4 1.7-1.4 2.2-2.2l.4-.8v-8.3c0-8 .1-8.2.4-8.4.2-.2.7-.2 1.6-.2 1.4 0 1.5 0 1.7.3.5.6 1.5 1.1 2.4 1.2 1.7.1 3.1-.9 3.6-2.4.3-1 .3-1.2 0-2a3.3 3.3 0 0 0-3.3-2.5c-1 0-2 .3-2.5 1l-.5.5h-1.5c-2.7 0-4.2.9-5.2 2.9l-.4.9v8.2c-.2 7.9-.2 8.2-.4 8.4-.2.1-.9.2-2.8.2h-2.4v-3h.5c1 0 2-.7 2.6-1.6.2-.4.2-1.1.3-5.6 0-3.5 0-5.5-.2-6.1a7 7 0 0 0-4.8-5.6 6 6 0 0 0-2.4-.2c-1.3 0-1.5.1-2.5.6a7 7 0 0 0-3.8 4.5c-.2.8-.3 1.7-.3 6.2 0 5.6 0 5.9.7 6.8.4.5 1.5 1 2.2 1h.5v3h-2.5c-2.4 0-2.6 0-2.8-.3-.3-.3-.3-.7-.4-8.6v-8.2l-.4-.7c-.4-1-1.4-1.8-2.4-2.3-.7-.3-1-.4-2.6-.4-1.7 0-1.8 0-2-.4 0-.2-.5-.5-1-.8-1-.6-2.2-.6-3.3 0Z" fill="url(#paint17_)"/>
      <path class="c1" d="M341 131c-1.6.7-2.3 2.4-1.7 4.1.2.8 1.4 2 2.1 2.2 1.3.4 2.7.1 3.5-.8l.6-.6h1.4c1.3 0 1.5 0 1.7.3.3.3.3.7.4 8.6v8.2l.4.7c.4.8 1.3 1.8 2 2.2l.6.3h-2.8c-2.2 0-3 0-3-.2-.1-.1-.2-1.7-.2-4.3v-4l-.5-.8c-.5-1-1.3-1.7-2.3-2-.7-.3-1-.3-5.2-.3h-4.4l-.5-.5a3.5 3.5 0 1 0-4 5.6c1.4.5 2.7.3 3.9-.8l.7-.6h4c3.4 0 4 0 4.3.2.3.2.3.2.3 4 0 3.6 0 4 .3 4.7.4 1 1.2 1.9 2.2 2.4.7.3.8.3 4.8.4h4.1v.9c0 1.4.4 1.3-6.1 1.4-5.5 0-5.6 0-6.3.4-.9.3-2 1.3-2.3 2.2a7 7 0 0 0-.6 3.1c0 1 0 1.1-.4 1.4-.3.2-.6.7-.8 1.2-.4.6-.4.8-.3 1.6.2 3.2 4 4.5 6 2.2a3 3 0 0 0 .8-2.4 3 3 0 0 0-1-2.4c-.5-.6-.5-.7-.5-1.8 0-1.9-.4-1.7 5.1-1.7l5.8-.1c1.7-.2 2.8-1 3.7-2.3l.4-.6v7c0 6.4 0 7-.3 7.5-.9 2-3.5 2.2-4.6.3-.3-.5-.4-.8-.4-1.8s0-1.1.5-1.5l.8-1c1.2-2.7-1.1-5.6-3.9-5a3.5 3.5 0 0 0-1.6 6c.4.4.4.5.4 1.4 0 3 1.4 5.3 3.8 6.4.8.4 1.2.5 2.3.5 1 0 1.6 0 2.1-.2a6.3 6.3 0 0 0 3.6-2.7c1-1.6 1-1.4 1-11v-8.6h2v17.3c.4 2 1.9 3.8 3.7 4.7 1 .4 1 .5 2.6.5s1.8 0 2.5-.4a6.4 6.4 0 0 0 3.8-6.1V175l.7-.6c1-1 1.2-2.2.8-3.5-.2-.9-.8-1.5-1.6-2-.6-.4-1-.4-1.7-.4a3.5 3.5 0 0 0-2.3 6c.4.4.5.5.5 1.5 0 1.1-.4 2-1 2.5-1.3 1-3 .7-4-.7l-.3-.6v-14.1l.5.7c.3.4.8 1 1.2 1.2 1.2.9 1.3.9 7 1h5.7c.4.2.6.7.6 1.9 0 1 0 1-.5 1.5-.8.7-1.1 1.5-1.1 2.5 0 2 1.4 3.5 3.4 3.5s3.5-1.5 3.5-3.5c0-1-.2-1.6-1-2.4l-.6-.6v-1.6c0-1.3-.2-1.8-.4-2.3-.4-1-1.3-2-2.3-2.4l-.8-.4h-11.2l-.3-.4c-.2-.3-.3-.6-.3-1.1v-.8h4c4 0 4.2 0 4.9-.4.8-.4 1.6-1.2 2.1-2l.4-.8v-4c0-3.7.1-4.2.3-4.4l4.4-.1h4.1l.3.4c.4.6 1.4 1.1 2.3 1.2 2 .2 3.8-1.3 3.8-3.4a3.4 3.4 0 0 0-5.8-2.5l-.7.6h-9.3l-.7.4-1.3 1c-1 1.2-1 1.5-1.1 6l-.1 4c0 .1-.8.2-3 .2h-3l.6-.3c.8-.5 1.7-1.4 2.2-2.3l.4-.7v-8.3c.1-8 .1-8.3.4-8.5.2-.1.7-.2 1.6-.2 1.4 0 1.5 0 1.7.4.5.6 1.5 1 2.4 1.2 1.7 0 3.1-.9 3.6-2.5.3-.8.3-1.1 0-2a3.3 3.3 0 0 0-3.3-2.4c-1 0-2 .3-2.5 1l-.5.5h-1.5c-2.7 0-4.2.8-5.2 2.8l-.4 1v8.1c-.2 8-.2 8.2-.4 8.4-.2.2-.9.2-2.8.2h-2.4v-2.9h.5c1 0 2-.7 2.6-1.7.2-.3.2-1 .3-5.5l-.1-6.2a7 7 0 0 0-4.9-5.5c-.8-.2-1.2-.3-2.4-.2-1.3 0-1.5 0-2.5.5a7 7 0 0 0-3.8 4.5c-.2.8-.3 1.7-.3 6.3 0 5.6 0 5.9.7 6.7.4.5 1.5 1 2.2 1h.5v3h-2.5c-2.4 0-2.6 0-2.8-.3-.3-.2-.3-.7-.4-8.5v-8.2l-.4-.7c-.4-1-1.4-1.9-2.4-2.3-.7-.4-1-.4-2.6-.5-1.7 0-1.8 0-2-.4 0-.1-.5-.5-1-.7-1-.6-2.2-.6-3.3 0Z" fill="url(#paint18_)"/>
      <path class="a1_2" d="M393.9.4c-1.6.8-2.2 2.5-1.7 4.2.2.8 1.4 2 2.1 2.2 1.4.4 2.7 0 3.6-.8l.5-.6h1.4c1.3 0 1.5 0 1.8.3.2.3.2.7.3 8.5v8.3l.4.7c.4.8 1.3 1.7 2 2.1l.6.3h-2.8l-3-.1c-.1-.2-.2-1.7-.2-4.3V17l-.5-.8c-.5-1-1.3-1.6-2.3-2-.7-.2-1-.3-5.2-.3h-4.4l-.4-.4a3.5 3.5 0 1 0-4 5.5c1.3.6 2.6.3 3.8-.7l.7-.7h4c3.4 0 4 0 4.3.2.4.3.4.3.4 4.1 0 3.6 0 4 .3 4.7.3 1 1.2 1.9 2.1 2.3.7.4.8.4 4.8.5h4.1v.8c0 1.4.4 1.3-6 1.4-5.6.1-5.7.1-6.4.4-.8.4-1.9 1.4-2.3 2.2a7 7 0 0 0-.6 3.2c0 1 0 1-.4 1.4-.3.2-.6.7-.8 1.1-.3.7-.4 1-.3 1.7.2 3.1 4 4.5 6 2.1a3 3 0 0 0 .9-2.3 3 3 0 0 0-1-2.5c-.6-.6-.6-.6-.6-1.7 0-1.9-.4-1.8 5.2-1.8h5.7c1.7-.3 2.8-1 3.7-2.3l.4-.7v7c0 6.5 0 7-.3 7.6-.9 2-3.5 2.1-4.6.3-.3-.5-.3-.8-.3-1.8 0-1.1 0-1.2.4-1.5.3-.2.6-.7.8-1.1 1.2-2.6-1.1-5.5-3.9-5a3.5 3.5 0 0 0-1.6 6.1c.4.4.4.5.4 1.4 0 2.9 1.4 5.2 3.8 6.4.8.4 1.2.4 2.3.5 1 0 1.6 0 2.2-.2a6.3 6.3 0 0 0 3.5-2.8c1-1.5 1-1.4 1-11V30h2v17.3c.4 2 1.9 3.8 3.7 4.7 1 .4 1 .4 2.7.4 1.5 0 1.7 0 2.4-.3a6.4 6.4 0 0 0 3.9-6.1v-1.3l.6-.6c1-1 1.2-2.2.9-3.5-.3-1-.9-1.6-1.7-2-.6-.4-1-.5-1.7-.5a3.5 3.5 0 0 0-2.3 6c.5.5.5.6.5 1.5 0 1.2-.3 2-1 2.5-1.3 1.1-3 .8-3.9-.6l-.3-.6V32.6l.4.8c.3.4.8 1 1.2 1.2 1.3.8 1.3.8 7.1 1h5.6c.4.1.6.7.6 1.8 0 1 0 1-.5 1.5-.8.8-1 1.5-1 2.6 0 2 1.3 3.4 3.4 3.4 2 0 3.4-1.4 3.4-3.4 0-1-.2-1.6-1-2.5l-.6-.5v-1.7c0-1.3-.1-1.7-.4-2.3-.4-.9-1.3-1.9-2.3-2.3l-.8-.4h-11.2l-.3-.5c-.2-.2-.3-.5-.3-1v-.8h4.1c3.9-.1 4.1-.1 4.8-.4.9-.4 1.7-1.2 2.1-2.1l.4-.7v-4.1c.1-3.7.1-4.1.3-4.3.2-.1 1.3-.2 4.4-.2h4.1l.3.5c.5.6 1.5 1 2.3 1.2 2.1.2 3.8-1.4 3.8-3.4 0-1.1-.3-2-1-2.7a3.4 3.4 0 0 0-4.8.1l-.6.6h-4.7l-4.6.1-.8.4-1.3 1c-1 1.2-1 1.5-1 5.9l-.2 4c0 .2-.8.2-3 .2h-3l.6-.3c.9-.4 1.8-1.3 2.2-2.2l.4-.8v-8.2c.1-8 .1-8.3.4-8.5.2-.1.7-.2 1.7-.2 1.3 0 1.4 0 1.6.4.5.6 1.5 1 2.5 1.1 1.6.2 3-.8 3.5-2.4.3-.9.3-1.1 0-2a3.3 3.3 0 0 0-3.3-2.5c-1 0-1.9.4-2.5 1.1l-.4.5h-1.5c-2.8 0-4.3.8-5.2 2.8l-.5 1v8.1c-.1 8-.2 8.2-.4 8.4-.2.2-.8.2-2.7.2h-2.5v-3h.5c1 0 2-.6 2.6-1.6.2-.4.2-1 .3-5.6l-.1-6.1a7 7 0 0 0-4.9-5.5c-.8-.2-1.2-.3-2.4-.2-1.3 0-1.5 0-2.5.5a7 7 0 0 0-3.8 4.5c-.2.8-.3 1.7-.3 6.3 0 5.6 0 5.8.7 6.7.4.5 1.5 1 2.2 1h.5v3h-2.5c-2.4 0-2.5 0-2.8-.3-.2-.3-.3-.7-.3-8.5l-.1-8.3-.4-.7c-.4-1-1.4-1.8-2.3-2.3-.7-.3-1-.3-2.6-.4-1.7 0-1.8 0-2-.4l-1-.8c-1-.5-2.3-.5-3.3 0Z" fill="url(#paint19_)" fill-opacity=".2"/>
      <path class="b1_2" d="M393.9 52.7c-1.6.7-2.2 2.4-1.7 4.2.2.8 1.4 2 2.1 2.2 1.4.3 2.7 0 3.6-.9l.5-.5h1.4c1.3 0 1.5 0 1.8.3.2.2.2.7.3 8.5v8.2l.4.7c.4.9 1.3 1.8 2 2.2l.6.3h-2.8c-2.2 0-2.9 0-3-.2-.1 0-.2-1.6-.2-4.3v-4l-.5-.8c-.5-1-1.3-1.6-2.3-2-.7-.3-1-.3-5.2-.3h-4.4l-.4-.5a3.5 3.5 0 1 0-4 5.6c1.3.6 2.6.3 3.8-.7l.7-.7h4c3.4 0 4 0 4.3.2.4.2.4.2.4 4.1 0 3.6 0 4 .3 4.7.3.9 1.2 1.8 2.1 2.3.7.3.8.4 4.8.4l4.1.1v.8c0 1.4.4 1.3-6 1.4-5.6 0-5.7 0-6.4.4-.8.4-1.9 1.4-2.3 2.2a7 7 0 0 0-.6 3.2c0 1 0 1-.4 1.4-.3.2-.6.7-.8 1-.3.8-.4 1-.3 1.8.2 3.1 4 4.4 6 2a3 3 0 0 0 .9-2.2 3 3 0 0 0-1-2.5c-.6-.6-.6-.6-.6-1.8 0-1.8-.4-1.7 5.2-1.7l5.7-.1c1.7-.2 2.8-.9 3.7-2.3l.4-.6v7c0 6.5 0 7-.3 7.6-.9 2-3.5 2-4.6.2-.3-.5-.3-.7-.3-1.7 0-1.2 0-1.2.4-1.6.3-.2.6-.7.8-1 1.2-2.7-1.1-5.6-3.9-5a3.5 3.5 0 0 0-1.6 6c.4.5.4.6.4 1.4 0 3 1.4 5.3 3.8 6.4.8.4 1.2.5 2.3.5 1 0 1.6 0 2.2-.2a6.3 6.3 0 0 0 3.5-2.7c1-1.6 1-1.4 1-11v-8.5h2v17.2c.4 2 1.9 3.9 3.7 4.7 1 .5 1 .5 2.7.5 1.5 0 1.7 0 2.4-.4a6.4 6.4 0 0 0 3.9-6v-1.4l.6-.6c1-1 1.2-2.2.9-3.5-.3-.9-.9-1.5-1.7-2-.6-.3-1-.4-1.7-.4a3.5 3.5 0 0 0-2.3 6c.5.5.5.5.5 1.5 0 1.2-.3 2-1 2.5-1.3 1-3 .8-3.9-.7l-.3-.6V85l.4.7c.3.4.8.9 1.2 1.1 1.3.9 1.3.9 7.1 1h5.6c.4.2.6.8.6 1.9 0 1 0 1-.5 1.5-.8.7-1 1.5-1 2.6 0 2 1.3 3.4 3.4 3.4 2 0 3.4-1.4 3.4-3.4 0-1.1-.2-1.7-1-2.5l-.6-.6v-1.6c0-1.3-.1-1.8-.4-2.3-.4-1-1.3-1.9-2.3-2.3l-.8-.4h-5.6l-5.6-.1-.3-.4c-.2-.2-.3-.6-.3-1.1v-.8h4.1c3.9 0 4.1 0 4.8-.4.9-.4 1.7-1.1 2.1-2l.4-.8v-4c.1-3.7.1-4.2.3-4.3.2-.2 1.3-.2 4.4-.2h4.1l.3.4c.5.6 1.5 1.1 2.3 1.2 2.1.3 3.8-1.3 3.8-3.4 0-1-.3-2-1-2.6a3.4 3.4 0 0 0-4.8 0l-.6.7h-9.3l-.8.5c-.4.2-1 .6-1.3 1-1 1.1-1 1.4-1 5.9l-.2 4c0 .2-.8.2-3 .2h-3l.6-.3c.9-.4 1.8-1.4 2.2-2.2l.4-.8v-8.3c.1-8 .1-8.2.4-8.4.2-.2.7-.2 1.7-.2 1.3 0 1.4 0 1.6.3.5.6 1.5 1.1 2.5 1.2 1.6.1 3-.9 3.5-2.4.3-1 .3-1.2 0-2a3.3 3.3 0 0 0-3.3-2.5c-1 0-1.9.3-2.5 1l-.4.5h-1.5c-2.8 0-4.3.9-5.2 2.8l-.5 1v8.2c-.1 7.9-.2 8.2-.4 8.4-.2.1-.8.2-2.7.2h-2.5v-3h.5c1 0 2-.7 2.6-1.6.2-.4.2-1.1.3-5.6l-.1-6.1a7 7 0 0 0-4.9-5.6 6 6 0 0 0-2.4-.2c-1.3 0-1.5.1-2.5.6a7 7 0 0 0-3.8 4.5c-.2.8-.3 1.7-.3 6.2 0 5.6 0 5.9.7 6.8.4.5 1.5 1 2.2 1h.5v3h-2.5c-2.4 0-2.5 0-2.8-.3-.2-.3-.3-.7-.3-8.6l-.1-8.2-.4-.7c-.4-1-1.4-1.8-2.3-2.3-.7-.3-1-.4-2.6-.4-1.7 0-1.8-.1-2-.4l-1-.8c-1-.6-2.3-.6-3.3 0Z" fill="url(#paint20_)" fill-opacity=".5"/>
      <path class="c1_2" d="M393.9 105c-1.6.7-2.2 2.4-1.7 4.1.2.8 1.4 2 2.1 2.2 1.4.4 2.7 0 3.6-.8l.5-.6h1.4c1.3 0 1.5 0 1.8.3.2.3.2.7.3 8.6v8.2l.4.7c.4.8 1.3 1.8 2 2.2l.6.3h-2.8c-2.2 0-2.9 0-3-.2-.1-.1-.2-1.7-.2-4.3v-4l-.5-.9c-.5-.9-1.3-1.6-2.3-2-.7-.2-1-.2-5.2-.2h-4.4l-.4-.5a3.5 3.5 0 1 0-4 5.6c1.3.5 2.6.3 3.8-.8l.7-.7h4c3.4 0 4 0 4.3.3.4.2.4.2.4 4 0 3.6 0 4 .3 4.7.3 1 1.2 1.9 2.1 2.4.7.3.8.3 4.8.4h4.1v.9c0 1.4.4 1.3-6 1.4-5.6 0-5.7 0-6.4.4-.8.3-1.9 1.3-2.3 2.2a7 7 0 0 0-.6 3.1c0 1 0 1.1-.4 1.4-.3.2-.6.7-.8 1.2-.3.6-.4.8-.3 1.6.2 3.2 4 4.5 6 2.1a3 3 0 0 0 .9-2.3 3 3 0 0 0-1-2.4c-.6-.6-.6-.7-.6-1.8 0-1.9-.4-1.7 5.2-1.7l5.7-.1c1.7-.2 2.8-1 3.7-2.3l.4-.6v7c0 6.4 0 7-.3 7.5-.9 2-3.5 2.2-4.6.3-.3-.5-.3-.8-.3-1.8s0-1.1.4-1.5c.3-.2.6-.7.8-1 1.2-2.7-1.1-5.6-3.9-5a3.5 3.5 0 0 0-1.6 6c.4.4.4.5.4 1.4 0 3 1.4 5.3 3.8 6.4.8.4 1.2.5 2.3.5 1 0 1.6 0 2.2-.2a6.3 6.3 0 0 0 3.5-2.7c1-1.6 1-1.4 1-11v-8.6h2v17.3c.4 2 1.9 3.8 3.7 4.7 1 .4 1 .5 2.7.5 1.5 0 1.7 0 2.4-.4a6.4 6.4 0 0 0 3.9-6.1V149l.6-.6c1-1 1.2-2.2.9-3.5-.3-.9-.9-1.5-1.7-2-.6-.4-1-.4-1.7-.4a3.5 3.5 0 0 0-2.3 6c.5.4.5.5.5 1.4 0 1.2-.3 2-1 2.6-1.3 1-3 .7-3.9-.7l-.3-.6v-14.1l.4.7c.3.4.8 1 1.2 1.2 1.3.9 1.3.9 7.1 1h5.6c.4.2.6.7.6 1.9 0 1 0 1-.5 1.5-.8.7-1 1.5-1 2.5 0 2 1.3 3.5 3.4 3.5 2 0 3.4-1.5 3.4-3.5 0-1-.2-1.6-1-2.4l-.6-.6v-1.6c0-1.3-.1-1.8-.4-2.3-.4-1-1.3-2-2.3-2.4l-.8-.4h-11.2l-.3-.4c-.2-.3-.3-.6-.3-1.1v-.8h4.1c3.9 0 4.1 0 4.8-.4.9-.4 1.7-1.2 2.1-2l.4-.8v-4c.1-3.7.1-4.2.3-4.4.2-.1 1.3-.2 4.4-.2h4.1l.3.5c.5.6 1.5 1.1 2.3 1.2 2.1.2 3.8-1.3 3.8-3.4 0-1.1-.3-2-1-2.7a3.4 3.4 0 0 0-4.8.1l-.6.7h-9.3l-.8.4-1.3 1c-1 1.2-1 1.5-1 6l-.2 4c0 .1-.8.2-3 .2h-3l.6-.3c.9-.5 1.8-1.4 2.2-2.3l.4-.8v-8.2c.1-8 .1-8.3.4-8.5.2-.1.7-.2 1.7-.2 1.3 0 1.4 0 1.6.4.5.6 1.5 1 2.5 1.2 1.6 0 3-.9 3.5-2.5.3-.8.3-1.1 0-2a3.3 3.3 0 0 0-3.3-2.4c-1 0-1.9.3-2.5 1l-.4.5h-1.5c-2.8 0-4.3.8-5.2 2.8l-.5 1v8.1c-.1 8-.2 8.2-.4 8.4-.2.2-.8.2-2.7.2h-2.5v-2.9h.5c1 0 2-.7 2.6-1.7.2-.3.2-1 .3-5.5l-.1-6.2a7 7 0 0 0-4.9-5.5c-.8-.2-1.2-.3-2.4-.2-1.3 0-1.5 0-2.5.5a7 7 0 0 0-3.8 4.5c-.2.8-.3 1.7-.3 6.3 0 5.6 0 5.9.7 6.7.4.5 1.5 1 2.2 1h.5v3h-2.5c-2.4 0-2.5 0-2.8-.3-.2-.2-.3-.7-.3-8.5l-.1-8.2-.4-.7c-.4-1-1.4-1.9-2.3-2.3-.7-.4-1-.4-2.6-.5-1.7 0-1.8 0-2-.4l-1-.7c-1-.6-2.3-.6-3.3 0Z" fill="url(#paint21_)"/>
      <path class="c6" d="M66.9 131.6c-1.6.7-2.2 2.4-1.7 4.2.2.8 1.4 2 2.1 2.2 1.4.3 2.7 0 3.6-.9l.5-.5h1.4c1.3 0 1.5 0 1.8.3.2.3.2.7.3 8.5v8.2l.4.7c.4.9 1.3 1.8 2 2.2l.6.3h-2.8c-2.2 0-2.9 0-3-.2-.1 0-.2-1.6-.2-4.2v-4.1l-.5-.8c-.5-1-1.3-1.6-2.3-2-.7-.3-1-.3-5.2-.3h-4.4l-.4-.5a3.5 3.5 0 1 0-4 5.6c1.3.6 2.6.3 3.8-.7l.7-.7h4c3.4 0 4 0 4.3.2.4.2.4.3.4 4.1 0 3.6 0 4 .3 4.7.3 1 1.2 1.8 2.1 2.3.7.4.8.4 4.8.4l4.1.1v.8c0 1.4.4 1.3-6 1.4-5.6 0-5.7 0-6.4.4-.8.4-1.9 1.4-2.3 2.2a7 7 0 0 0-.6 3.2c0 1 0 1-.4 1.4-.3.2-.6.7-.8 1.1-.3.7-.4.9-.3 1.7.2 3.1 4 4.4 6 2a3 3 0 0 0 .9-2.2 3 3 0 0 0-1-2.5c-.6-.6-.6-.6-.6-1.8 0-1.8-.4-1.7 5.2-1.7l5.7-.1c1.7-.2 2.8-.9 3.7-2.3l.4-.6v7c0 6.5 0 7-.3 7.6-.9 2-3.5 2.1-4.6.3-.3-.6-.3-.8-.3-1.8 0-1.1 0-1.2.4-1.6.3-.2.6-.6.8-1 1.2-2.6-1.1-5.6-3.9-5a3.5 3.5 0 0 0-1.6 6c.4.5.4.6.4 1.4 0 3 1.4 5.3 3.8 6.4.8.4 1.2.5 2.3.5l2.2-.1a6.3 6.3 0 0 0 3.5-2.8c1-1.6 1-1.4 1-11v-8.5h2v17.2c.4 2 1.9 3.9 3.7 4.7 1 .5 1 .5 2.7.5 1.5 0 1.7 0 2.4-.4a6.4 6.4 0 0 0 3.9-6v-1.3l.6-.7c1-1 1.2-2.1.9-3.5-.3-.9-.9-1.5-1.7-2-.6-.3-1-.4-1.7-.4a3.5 3.5 0 0 0-2.3 6c.5.5.5.5.5 1.5 0 1.2-.3 2-1 2.5-1.3 1-3 .8-3.9-.6l-.3-.7v-14l.4.7c.3.4.8.9 1.2 1.1 1.3 1 1.3 1 7.1 1h5.6c.4.2.6.8.6 2 0 .9 0 1-.5 1.4-.8.8-1 1.5-1 2.6 0 2 1.3 3.4 3.4 3.4 2 0 3.4-1.4 3.4-3.4 0-1-.2-1.7-1-2.5l-.6-.6V168c0-1.3-.1-1.8-.4-2.3-.4-1-1.3-1.9-2.3-2.3l-.8-.4h-5.6l-5.6-.1-.3-.4c-.2-.2-.3-.6-.3-1.1v-.7h4.1c3.9-.1 4.1-.1 4.8-.5.9-.4 1.7-1.1 2.1-2l.4-.7v-4.2c.1-3.6.1-4 .3-4.2.2-.2 1.3-.2 4.4-.2h4.1l.3.4c.5.6 1.5 1.1 2.3 1.2 2.1.3 3.8-1.3 3.8-3.4 0-1-.3-2-1-2.6a3.4 3.4 0 0 0-4.8 0l-.6.7h-9.3l-.8.5c-.4.2-1 .6-1.3 1-1 1.1-1 1.5-1 5.9l-.2 4c0 .2-.8.2-3 .2h-3l.6-.3c.9-.4 1.8-1.4 2.2-2.2l.4-.8v-8.3c.1-8 .1-8.2.4-8.4.2-.2.7-.2 1.7-.2 1.3 0 1.4 0 1.7.3.4.7 1.4 1.1 2.4 1.2 1.6.1 3-.9 3.5-2.4.3-1 .3-1.2 0-2a3.3 3.3 0 0 0-3.3-2.5c-1 0-1.9.4-2.5 1l-.4.6h-1.5c-2.8 0-4.3.8-5.2 2.8l-.5.9v8.2c-.1 7.9-.2 8.2-.4 8.4-.2.1-.8.2-2.7.2h-2.5v-3h.5c1 0 2-.7 2.6-1.6.2-.4.2-1.1.3-5.6l-.1-6.1a7 7 0 0 0-4.9-5.5c-.7-.3-1.2-.3-2.4-.3-1.3 0-1.5.1-2.5.6a7 7 0 0 0-3.8 4.5c-.2.8-.3 1.7-.3 6.2 0 5.7 0 6 .7 6.8.4.5 1.5 1 2.2 1h.5v3h-2.5c-2.4 0-2.5 0-2.8-.3-.2-.3-.3-.7-.3-8.6l-.1-8.2-.4-.7c-.4-1-1.4-1.8-2.3-2.3-.7-.3-1-.4-2.6-.4-1.7 0-1.8 0-2-.4l-1-.8c-1-.6-2.3-.6-3.3 0Z" fill="url(#paint22_)"/>
      <path class="a6_2" d="M13.9.4c-1.6.8-2.2 2.5-1.7 4.2.2.8 1.4 2 2.1 2.2 1.4.4 2.7 0 3.6-.8l.5-.6h1.4c1.3 0 1.5 0 1.8.3.2.3.2.7.3 8.5v8.3l.4.7c.4.8 1.3 1.7 2 2.1l.6.3h-2.8l-3-.1c-.1-.2-.2-1.7-.2-4.3V17l-.5-.8c-.5-1-1.3-1.6-2.3-2-.7-.2-1-.3-5.2-.3H6.5l-.4-.4A3.5 3.5 0 1 0 2 19c1.3.6 2.6.3 3.8-.7l.7-.7h4c3.4 0 4 0 4.3.2.4.3.4.3.4 4.1 0 3.6 0 4 .3 4.7.3 1 1.2 1.9 2.1 2.3.7.4.8.4 4.8.5h4.1v.8c0 1.4.4 1.3-6 1.4-5.6.1-5.7.1-6.4.4-.8.4-1.9 1.4-2.3 2.2a7 7 0 0 0-.6 3.2c0 1 0 1-.4 1.4-.3.2-.6.7-.8 1.1-.3.7-.4 1-.3 1.7.2 3.1 4 4.5 6 2.1a3 3 0 0 0 .9-2.3 3 3 0 0 0-1-2.5c-.6-.6-.6-.6-.6-1.7 0-1.9-.4-1.8 5.2-1.8H26c1.7-.3 2.8-1 3.7-2.3l.4-.7v7c0 6.5 0 7-.3 7.6-.9 2-3.5 2.1-4.6.3-.3-.5-.3-.8-.3-1.8 0-1.1 0-1.2.4-1.5.3-.2.6-.7.8-1.1 1.2-2.6-1.1-5.5-3.9-5a3.5 3.5 0 0 0-1.6 6.1c.4.4.4.5.4 1.4 0 2.9 1.4 5.2 3.8 6.4.8.4 1.2.4 2.3.5 1 0 1.6 0 2.2-.2a6.3 6.3 0 0 0 3.5-2.8c1-1.5 1-1.4 1-11V30h2v17.3c.4 2 1.9 3.8 3.7 4.7 1 .4 1 .4 2.7.4 1.5 0 1.7 0 2.4-.3a6.4 6.4 0 0 0 3.9-6.1v-1.3l.6-.6c1-1 1.2-2.2.9-3.5-.3-1-.9-1.6-1.7-2-.6-.4-1-.5-1.7-.5-3.1 0-4.6 3.9-2.3 6 .5.5.5.6.5 1.5 0 1.2-.3 2-1 2.5-1.3 1.1-3 .8-3.9-.6l-.3-.6V32.6l.4.8c.3.4.8 1 1.2 1.2 1.3.8 1.3.8 7.1 1H54c.4.1.6.7.6 1.8 0 1 0 1-.5 1.5-.8.8-1 1.5-1 2.6 0 2 1.3 3.4 3.4 3.4 2 0 3.4-1.4 3.4-3.4 0-1-.2-1.6-1-2.5l-.6-.5v-1.7c0-1.3-.1-1.7-.4-2.3-.4-.9-1.3-1.9-2.3-2.3l-.8-.4H43.5l-.3-.5c-.2-.2-.3-.5-.3-1v-.8H47c3.9-.1 4.1-.1 4.8-.4.9-.4 1.7-1.2 2.1-2.1l.4-.7v-4.1c.1-3.7.1-4.1.3-4.3.2-.1 1.3-.2 4.4-.2h4.1l.3.5c.5.6 1.5 1 2.3 1.2 2.1.2 3.8-1.4 3.8-3.4 0-1.1-.3-2-1-2.7a3.4 3.4 0 0 0-4.8.1l-.6.6h-4.7l-4.6.1-.8.4-1.3 1c-1 1.2-1 1.5-1 5.9l-.2 4c0 .2-.8.2-3 .2h-3l.6-.3c.9-.4 1.8-1.3 2.2-2.2l.4-.8v-8.2c.1-8 .1-8.3.4-8.5.2-.1.7-.2 1.7-.2 1.3 0 1.4 0 1.7.4.4.6 1.4 1 2.4 1.1 1.6.2 3-.8 3.5-2.4.3-.9.3-1.1 0-2A3.3 3.3 0 0 0 54.1 0c-1 0-1.9.4-2.5 1.1l-.4.5h-1.5c-2.8 0-4.3.8-5.2 2.8l-.5 1v8.1c-.1 8-.2 8.2-.4 8.4-.2.2-.8.2-2.7.2h-2.5v-3h.5c1 0 2-.6 2.6-1.6.2-.4.2-1 .3-5.6l-.1-6.1A7 7 0 0 0 36.8.3a6 6 0 0 0-2.4-.2C33.1 0 33 0 32 .6a7 7 0 0 0-3.8 4.5c-.2.8-.3 1.7-.3 6.3 0 5.6 0 5.8.7 6.7.4.5 1.5 1 2.2 1h.5v3h-2.5c-2.4 0-2.5 0-2.8-.3-.2-.3-.3-.7-.3-8.5L25.5 5l-.4-.7c-.4-1-1.4-1.8-2.3-2.3-.7-.3-1-.3-2.6-.4-1.7 0-1.8 0-2-.4l-1-.8c-1-.5-2.3-.5-3.3 0Z" fill="url(#paint23_)" fill-opacity=".2"/>
      <path class="b6_2" d="M13.9 53.3c-1.6.8-2.2 2.5-1.7 4.2.2.8 1.4 2 2.1 2.2 1.4.4 2.7 0 3.6-.8l.5-.6h1.4c1.3 0 1.5 0 1.8.3.2.3.2.7.3 8.5v8.3l.4.7c.4.8 1.3 1.7 2 2.1l.6.3h-2.8l-3-.1c-.1-.2-.2-1.7-.2-4.3V70l-.5-.8c-.5-1-1.3-1.6-2.3-2-.7-.2-1-.3-5.2-.3H6.5l-.4-.4A3.5 3.5 0 1 0 2 72c1.3.6 2.6.3 3.8-.7l.7-.7h4c3.4 0 4 0 4.3.2.4.3.4.3.4 4.1 0 3.6 0 4 .3 4.7.3 1 1.2 1.9 2.1 2.3.7.4.8.4 4.8.5h4.1v.8c0 1.4.4 1.3-6 1.4-5.6.1-5.7.1-6.4.4-.8.4-1.9 1.4-2.3 2.3a7 7 0 0 0-.6 3c0 1 0 1.2-.4 1.5-.3.2-.6.7-.8 1.1-.3.7-.4 1-.3 1.7.2 3.2 4 4.5 6 2.1a3 3 0 0 0 .9-2.3 3 3 0 0 0-1-2.5c-.6-.6-.6-.6-.6-1.7 0-1.9-.4-1.8 5.2-1.8H26c1.7-.3 2.8-1 3.7-2.3l.4-.7v7c0 6.5 0 7-.3 7.6-.9 2-3.5 2.1-4.6.3-.3-.5-.3-.8-.3-1.8 0-1.1 0-1.2.4-1.5.3-.2.6-.7.8-1.1 1.2-2.6-1.1-5.5-3.9-5a3.5 3.5 0 0 0-1.6 6.1c.4.4.4.5.4 1.4 0 3 1.4 5.2 3.8 6.4.8.4 1.2.4 2.3.5 1 0 1.6 0 2.2-.2a6.3 6.3 0 0 0 3.5-2.8c1-1.5 1-1.4 1-10.9v-8.6h2V100c.4 2 1.9 3.8 3.7 4.7 1 .4 1 .4 2.7.4 1.5 0 1.7 0 2.4-.3a6.4 6.4 0 0 0 3.9-6.1v-1.3l.6-.6c1-1 1.2-2.2.9-3.5-.3-1-.9-1.6-1.7-2-.6-.4-1-.5-1.7-.5a3.5 3.5 0 0 0-2.3 6c.5.5.5.6.5 1.5 0 1.2-.3 2-1 2.5-1.3 1.1-3 .8-3.9-.6l-.3-.6V85.6l.4.7c.3.4.8 1 1.2 1.2 1.3.8 1.3.8 7.1 1H54c.4.1.6.7.6 1.8 0 1 0 1-.5 1.5-.8.8-1 1.5-1 2.6 0 2 1.3 3.5 3.4 3.5 2 0 3.4-1.5 3.4-3.5 0-1-.2-1.6-1-2.5l-.6-.5v-1.7c0-1.2-.1-1.7-.4-2.3-.4-.9-1.3-1.8-2.3-2.3l-.8-.4H43.5l-.3-.5c-.2-.2-.3-.5-.3-1v-.8H47c3.9-.1 4.1-.1 4.8-.4.9-.4 1.7-1.2 2.1-2.1l.4-.7V75c.1-3.7.1-4.1.3-4.3.2-.1 1.3-.2 4.4-.2h4.1l.3.5c.5.6 1.5 1 2.3 1.2 2.1.2 3.8-1.4 3.8-3.4 0-1.1-.3-2-1-2.7a3.4 3.4 0 0 0-4.8.1l-.6.6h-4.7l-4.6.1-.8.4-1.3 1c-1 1.2-1 1.5-1 5.9l-.2 4c0 .2-.8.2-3 .2h-3l.6-.3c.9-.4 1.8-1.3 2.2-2.2l.4-.8V67c.1-8 .1-8.3.4-8.5.2-.1.7-.2 1.7-.2 1.3 0 1.4 0 1.7.4.4.6 1.4 1 2.4 1.1 1.6.2 3-.8 3.5-2.4.3-.9.3-1.1 0-2a3.3 3.3 0 0 0-3.3-2.5c-1 0-1.9.4-2.5 1.1l-.4.5h-1.5c-2.8 0-4.3.8-5.2 2.8l-.5 1v8.1c-.1 8-.2 8.2-.4 8.4-.2.2-.8.2-2.7.2h-2.5v-3h.5c1 0 2-.6 2.6-1.6.2-.4.2-1 .3-5.6l-.1-6.1a7 7 0 0 0-4.9-5.5 6 6 0 0 0-2.4-.2c-1.3 0-1.5 0-2.5.5a7 7 0 0 0-3.8 4.5c-.2.8-.3 1.7-.3 6.3 0 5.6 0 5.8.7 6.7.4.5 1.5 1 2.2 1h.5v3h-2.5c-2.4 0-2.5 0-2.8-.3-.2-.3-.3-.7-.3-8.5l-.1-8.2-.4-.8c-.4-.9-1.4-1.8-2.3-2.3-.7-.3-1-.3-2.6-.4-1.7 0-1.8 0-2-.4l-1-.7c-1-.6-2.3-.6-3.3-.1Z" fill="url(#paint24_)" fill-opacity=".5"/>
      <path class="c6_2" d="M13.9 105.6c-1.6.7-2.2 2.4-1.7 4.2.2.8 1.4 2 2.1 2.2 1.4.3 2.7 0 3.6-.9l.5-.5h1.4c1.3 0 1.5 0 1.8.3.2.3.2.7.3 8.5v8.2l.4.7c.4.9 1.3 1.8 2 2.2l.6.3h-2.8c-2.2 0-2.9 0-3-.2-.1 0-.2-1.6-.2-4.2v-4.1l-.5-.8c-.5-1-1.3-1.6-2.3-2-.7-.3-1-.3-5.2-.3H6.5l-.4-.5a3.5 3.5 0 1 0-4 5.6c1.3.6 2.6.3 3.8-.7l.7-.7h4c3.4 0 4 0 4.3.2.4.2.4.3.4 4.1 0 3.6 0 4 .3 4.7.3 1 1.2 1.8 2.1 2.3.7.4.8.4 4.8.4l4.1.1v.8c0 1.4.4 1.3-6 1.4-5.6 0-5.7 0-6.4.4-.8.4-1.9 1.4-2.3 2.2a7 7 0 0 0-.6 3.2c0 1 0 1-.4 1.4-.3.2-.6.7-.8 1-.3.8-.4 1-.3 1.8.2 3.1 4 4.4 6 2a3 3 0 0 0 .9-2.2 3 3 0 0 0-1-2.5c-.6-.6-.6-.6-.6-1.8 0-1.8-.4-1.7 5.2-1.7l5.7-.1c1.7-.2 2.8-.9 3.7-2.3l.4-.6v7c0 6.5 0 7-.3 7.6-.9 2-3.5 2-4.6.3-.3-.6-.3-.8-.3-1.8 0-1.1 0-1.2.4-1.6.3-.2.6-.7.8-1 1.2-2.7-1.1-5.6-3.9-5a3.5 3.5 0 0 0-1.6 6c.4.5.4.6.4 1.4 0 3 1.4 5.3 3.8 6.4.8.4 1.2.5 2.3.5l2.2-.1a6.3 6.3 0 0 0 3.5-2.8c1-1.6 1-1.4 1-11v-8.5h2v17.2c.4 2 1.9 3.9 3.7 4.7 1 .5 1 .5 2.7.5 1.5 0 1.7 0 2.4-.4a6.4 6.4 0 0 0 3.9-6v-1.3l.6-.7c1-1 1.2-2.2.9-3.5-.3-.9-.9-1.5-1.7-2-.6-.3-1-.4-1.7-.4a3.5 3.5 0 0 0-2.3 6c.5.5.5.5.5 1.5 0 1.2-.3 2-1 2.5-1.3 1-3 .8-3.9-.6l-.3-.7v-14l.4.7c.3.4.8.9 1.2 1.1 1.3 1 1.3 1 7.1 1H54c.4.2.6.8.6 1.9 0 1 0 1-.5 1.5-.8.8-1 1.5-1 2.6 0 2 1.3 3.4 3.4 3.4 2 0 3.4-1.4 3.4-3.4 0-1-.2-1.7-1-2.5l-.6-.6V142c0-1.3-.1-1.8-.4-2.3-.4-1-1.3-1.9-2.3-2.3l-.8-.4h-5.6l-5.6-.1-.3-.4c-.2-.2-.3-.6-.3-1.1v-.8H47c3.9 0 4.1 0 4.8-.4.9-.4 1.7-1.1 2.1-2l.4-.7v-4.2c.1-3.6.1-4 .3-4.2.2-.2 1.3-.2 4.4-.2h4.1l.3.4c.5.6 1.5 1.1 2.3 1.2 2.1.3 3.8-1.3 3.8-3.4 0-1-.3-2-1-2.6a3.4 3.4 0 0 0-4.8 0l-.6.7h-9.3l-.8.5c-.4.2-1 .6-1.3 1-1 1.1-1 1.5-1 5.9l-.2 4c0 .2-.8.2-3 .2h-3l.6-.3c.9-.4 1.8-1.4 2.2-2.2l.4-.8v-8.3c.1-8 .1-8.2.4-8.4.2-.2.7-.2 1.7-.2 1.3 0 1.4 0 1.7.3.4.6 1.4 1.1 2.4 1.2 1.6.1 3-.9 3.5-2.4.3-1 .3-1.2 0-2a3.3 3.3 0 0 0-3.3-2.5c-1 0-1.9.3-2.5 1l-.4.6h-1.5c-2.8 0-4.3.8-5.2 2.8l-.5.9v8.2c-.1 7.9-.2 8.2-.4 8.4-.2.1-.8.2-2.7.2h-2.5v-3h.5c1 0 2-.7 2.6-1.6.2-.4.2-1.1.3-5.6l-.1-6.1a7 7 0 0 0-4.9-5.5c-.7-.3-1.2-.3-2.4-.3-1.3 0-1.5.1-2.5.6a7 7 0 0 0-3.8 4.5c-.2.8-.3 1.7-.3 6.2 0 5.7 0 6 .7 6.8.4.5 1.5 1 2.2 1h.5v3h-2.5c-2.4 0-2.5 0-2.8-.3-.2-.3-.3-.7-.3-8.6l-.1-8.2-.4-.7c-.4-1-1.4-1.8-2.3-2.3-.7-.3-1-.4-2.6-.4-1.7 0-1.8 0-2-.4l-1-.8c-1-.6-2.3-.6-3.3 0Z" fill="url(#paint25_)"/>
    </g>
    <g class="coins">
      <g class="coin-10">
        <g class="Ellipse 2" filter="url(#Filter0_di)">
          <circle cx="224.4" cy="352.4" r="12.4" fill="#00F0FF" fill-opacity=".2"/>
          <circle cx="224.4" cy="352.4" r="11.7" stroke="#00F0FF" stroke-width="1.5"/>
        </g>
        <g class="0" filter="url(#Filter1_d)">
          <path d="M228.3 352.7a9 9 0 0 1-.3 2 5 5 0 0 1-.7 1.7c-.3.5-.7.9-1.2 1.1-.5.3-1 .4-1.6.4-.6 0-1-.1-1.5-.3a3 3 0 0 1-1.2-1c-.3-.4-.5-1-.7-1.6a9.4 9.4 0 0 1 0-4.5c.1-.6.4-1.2.7-1.6a3.3 3.3 0 0 1 2.8-1.5c.6 0 1 .1 1.5.3.5.2.8.5 1.2 1 .3.4.5 1 .7 1.6.2.7.3 1.4.3 2.4Zm-1.4 0v-1l-4.4 3.2.3.7.4.6.6.4.7.1c.4 0 .7 0 1-.2l.7-.8.5-1.3.2-1.7Zm-4.7-.1v1l4.4-3.2-.3-.8-.5-.5a1.8 1.8 0 0 0-1.3-.5 1.9 1.9 0 0 0-1.7 1c-.2.3-.3.8-.4 1.3l-.2 1.7Z" fill="#00F0FF"/>
        </g>
      </g>
      <g class="coin-9">
        <g class="Ellipse 2_2" filter="url(#Filter2_di)">
          <circle cx="224.4" cy="352.4" r="12.4" fill="#00F0FF" fill-opacity=".2"/>
          <circle cx="224.4" cy="352.4" r="11.7" stroke="#00F0FF" stroke-width="1.5"/>
        </g>
        <g class="0_2" filter="url(#Filter3_d)">
          <path d="M228.3 352.7a9 9 0 0 1-.3 2 5 5 0 0 1-.7 1.7c-.3.5-.7.9-1.2 1.1-.5.3-1 .4-1.6.4-.6 0-1-.1-1.5-.3a3 3 0 0 1-1.2-1c-.3-.4-.5-1-.7-1.6a9.4 9.4 0 0 1 0-4.5c.1-.6.4-1.2.7-1.6a3.3 3.3 0 0 1 2.8-1.5c.6 0 1 .1 1.5.3.5.2.8.5 1.2 1 .3.4.5 1 .7 1.6.2.7.3 1.4.3 2.4Zm-1.4 0v-1l-4.4 3.2.3.7.4.6.6.4.7.1c.4 0 .7 0 1-.2l.7-.8.5-1.3.2-1.7Zm-4.7-.1v1l4.4-3.2-.3-.8-.5-.5a1.8 1.8 0 0 0-1.3-.5 1.9 1.9 0 0 0-1.7 1c-.2.3-.3.8-.4 1.3l-.2 1.7Z" fill="#00F0FF"/>
        </g>
      </g>
      <g class="coin-8">
        <g class="Ellipse 2_3" filter="url(#Filter4_di)">
          <circle cx="224.4" cy="352.4" r="12.4" fill="#00F0FF" fill-opacity=".2"/>
          <circle cx="224.4" cy="352.4" r="11.7" stroke="#00F0FF" stroke-width="1.5"/>
        </g>
        <g class="0_3" filter="url(#Filter5_d)">
          <path d="M228.3 352.7a9 9 0 0 1-.3 2 5 5 0 0 1-.7 1.7c-.3.5-.7.9-1.2 1.1-.5.3-1 .4-1.6.4-.6 0-1-.1-1.5-.3a3 3 0 0 1-1.2-1c-.3-.4-.5-1-.7-1.6a9.4 9.4 0 0 1 0-4.5c.1-.6.4-1.2.7-1.6a3.3 3.3 0 0 1 2.8-1.5c.6 0 1 .1 1.5.3.5.2.8.5 1.2 1 .3.4.5 1 .7 1.6.2.7.3 1.4.3 2.4Zm-1.4 0v-1l-4.4 3.2.3.7.4.6.6.4.7.1c.4 0 .7 0 1-.2l.7-.8.5-1.3.2-1.7Zm-4.7-.1v1l4.4-3.2-.3-.8-.5-.5a1.8 1.8 0 0 0-1.3-.5 1.9 1.9 0 0 0-1.7 1c-.2.3-.3.8-.4 1.3l-.2 1.7Z" fill="#00F0FF"/>
        </g>
      </g>
      <g class="coin-7">
        <g class="Ellipse 2_4" filter="url(#Filter6_di)">
          <circle cx="224.4" cy="352.4" r="12.4" fill="#00F0FF" fill-opacity=".2"/>
          <circle cx="224.4" cy="352.4" r="11.7" stroke="#00F0FF" stroke-width="1.5"/>
        </g>
        <g class="0_4" filter="url(#Filter7_d)">
          <path d="M228.3 352.7a9 9 0 0 1-.3 2 5 5 0 0 1-.7 1.7c-.3.5-.7.9-1.2 1.1-.5.3-1 .4-1.6.4-.6 0-1-.1-1.5-.3a3 3 0 0 1-1.2-1c-.3-.4-.5-1-.7-1.6a9.4 9.4 0 0 1 0-4.5c.1-.6.4-1.2.7-1.6a3.3 3.3 0 0 1 2.8-1.5c.6 0 1 .1 1.5.3.5.2.8.5 1.2 1 .3.4.5 1 .7 1.6.2.7.3 1.4.3 2.4Zm-1.4 0v-1l-4.4 3.2.3.7.4.6.6.4.7.1c.4 0 .7 0 1-.2l.7-.8.5-1.3.2-1.7Zm-4.7-.1v1l4.4-3.2-.3-.8-.5-.5a1.8 1.8 0 0 0-1.3-.5 1.9 1.9 0 0 0-1.7 1c-.2.3-.3.8-.4 1.3l-.2 1.7Z" fill="#00F0FF"/>
        </g>
      </g>
      <g class="coin-6">
        <g class="Ellipse 2_5" filter="url(#Filter8_di)">
          <circle cx="224.4" cy="352.4" r="12.4" fill="#00F0FF" fill-opacity=".2"/>
          <circle cx="224.4" cy="352.4" r="11.7" stroke="#00F0FF" stroke-width="1.5"/>
        </g>
        <g class="0_5" filter="url(#Filter9_d)">
          <path d="M228.3 352.7a9 9 0 0 1-.3 2 5 5 0 0 1-.7 1.7c-.3.5-.7.9-1.2 1.1-.5.3-1 .4-1.6.4-.6 0-1-.1-1.5-.3a3 3 0 0 1-1.2-1c-.3-.4-.5-1-.7-1.6a9.4 9.4 0 0 1 0-4.5c.1-.6.4-1.2.7-1.6a3.3 3.3 0 0 1 2.8-1.5c.6 0 1 .1 1.5.3.5.2.8.5 1.2 1 .3.4.5 1 .7 1.6.2.7.3 1.4.3 2.4Zm-1.4 0v-1l-4.4 3.2.3.7.4.6.6.4.7.1c.4 0 .7 0 1-.2l.7-.8.5-1.3.2-1.7Zm-4.7-.1v1l4.4-3.2-.3-.8-.5-.5a1.8 1.8 0 0 0-1.3-.5 1.9 1.9 0 0 0-1.7 1c-.2.3-.3.8-.4 1.3l-.2 1.7Z" fill="#00F0FF"/>
        </g>
      </g>
      <g class="coin-5">
        <g class="Ellipse 2_6" filter="url(#Filter10_di)">
          <circle cx="224.4" cy="352.4" r="12.4" fill="#00F0FF" fill-opacity=".2"/>
          <circle cx="224.4" cy="352.4" r="11.7" stroke="#00F0FF" stroke-width="1.5"/>
        </g>
        <g class="0_6" filter="url(#Filter11_d)">
          <path d="M228.3 352.7a9 9 0 0 1-.3 2 5 5 0 0 1-.7 1.7c-.3.5-.7.9-1.2 1.1-.5.3-1 .4-1.6.4-.6 0-1-.1-1.5-.3a3 3 0 0 1-1.2-1c-.3-.4-.5-1-.7-1.6a9.4 9.4 0 0 1 0-4.5c.1-.6.4-1.2.7-1.6a3.3 3.3 0 0 1 2.8-1.5c.6 0 1 .1 1.5.3.5.2.8.5 1.2 1 .3.4.5 1 .7 1.6.2.7.3 1.4.3 2.4Zm-1.4 0v-1l-4.4 3.2.3.7.4.6.6.4.7.1c.4 0 .7 0 1-.2l.7-.8.5-1.3.2-1.7Zm-4.7-.1v1l4.4-3.2-.3-.8-.5-.5a1.8 1.8 0 0 0-1.3-.5 1.9 1.9 0 0 0-1.7 1c-.2.3-.3.8-.4 1.3l-.2 1.7Z" fill="#00F0FF"/>
        </g>
      </g>
      <g class="coin-4">
        <g class="Ellipse 2_7" filter="url(#Filter12_di)">
          <circle cx="224.4" cy="352.4" r="12.4" fill="#00F0FF" fill-opacity=".2"/>
          <circle cx="224.4" cy="352.4" r="11.7" stroke="#00F0FF" stroke-width="1.5"/>
        </g>
        <g class="0_7" filter="url(#Filter13_d)">
          <path d="M228.3 352.7a9 9 0 0 1-.3 2 5 5 0 0 1-.7 1.7c-.3.5-.7.9-1.2 1.1-.5.3-1 .4-1.6.4-.6 0-1-.1-1.5-.3a3 3 0 0 1-1.2-1c-.3-.4-.5-1-.7-1.6a9.4 9.4 0 0 1 0-4.5c.1-.6.4-1.2.7-1.6a3.3 3.3 0 0 1 2.8-1.5c.6 0 1 .1 1.5.3.5.2.8.5 1.2 1 .3.4.5 1 .7 1.6.2.7.3 1.4.3 2.4Zm-1.4 0v-1l-4.4 3.2.3.7.4.6.6.4.7.1c.4 0 .7 0 1-.2l.7-.8.5-1.3.2-1.7Zm-4.7-.1v1l4.4-3.2-.3-.8-.5-.5a1.8 1.8 0 0 0-1.3-.5 1.9 1.9 0 0 0-1.7 1c-.2.3-.3.8-.4 1.3l-.2 1.7Z" fill="#00F0FF"/>
        </g>
      </g>
      <g class="coin-3">
        <g class="Ellipse 2_8" filter="url(#Filter14_di)">
          <circle cx="224.4" cy="352.4" r="12.4" fill="#00F0FF" fill-opacity=".2"/>
          <circle cx="224.4" cy="352.4" r="11.7" stroke="#00F0FF" stroke-width="1.5"/>
        </g>
        <g class="0_8" filter="url(#Filter15_d)">
          <path d="M228.3 352.7a9 9 0 0 1-.3 2 5 5 0 0 1-.7 1.7c-.3.5-.7.9-1.2 1.1-.5.3-1 .4-1.6.4-.6 0-1-.1-1.5-.3a3 3 0 0 1-1.2-1c-.3-.4-.5-1-.7-1.6a9.4 9.4 0 0 1 0-4.5c.1-.6.4-1.2.7-1.6a3.3 3.3 0 0 1 2.8-1.5c.6 0 1 .1 1.5.3.5.2.8.5 1.2 1 .3.4.5 1 .7 1.6.2.7.3 1.4.3 2.4Zm-1.4 0v-1l-4.4 3.2.3.7.4.6.6.4.7.1c.4 0 .7 0 1-.2l.7-.8.5-1.3.2-1.7Zm-4.7-.1v1l4.4-3.2-.3-.8-.5-.5a1.8 1.8 0 0 0-1.3-.5 1.9 1.9 0 0 0-1.7 1c-.2.3-.3.8-.4 1.3l-.2 1.7Z" fill="#00F0FF"/>
        </g>
      </g>
      <g class="coin-2">
        <g class="Ellipse 2_9" filter="url(#Filter16_di)">
          <circle cx="224.4" cy="352.4" r="12.4" fill="#00F0FF" fill-opacity=".2"/>
          <circle cx="224.4" cy="352.4" r="11.7" stroke="#00F0FF" stroke-width="1.5"/>
        </g>
        <g class="0_9" filter="url(#Filter17_d)">
          <path d="M228.3 352.7a9 9 0 0 1-.3 2 5 5 0 0 1-.7 1.7c-.3.5-.7.9-1.2 1.1-.5.3-1 .4-1.6.4-.6 0-1-.1-1.5-.3a3 3 0 0 1-1.2-1c-.3-.4-.5-1-.7-1.6a9.4 9.4 0 0 1 0-4.5c.1-.6.4-1.2.7-1.6a3.3 3.3 0 0 1 2.8-1.5c.6 0 1 .1 1.5.3.5.2.8.5 1.2 1 .3.4.5 1 .7 1.6.2.7.3 1.4.3 2.4Zm-1.4 0v-1l-4.4 3.2.3.7.4.6.6.4.7.1c.4 0 .7 0 1-.2l.7-.8.5-1.3.2-1.7Zm-4.7-.1v1l4.4-3.2-.3-.8-.5-.5a1.8 1.8 0 0 0-1.3-.5 1.9 1.9 0 0 0-1.7 1c-.2.3-.3.8-.4 1.3l-.2 1.7Z" fill="#00F0FF"/>
        </g>
      </g>
      <g class="coin-1">
        <g class="Ellipse 2_10" filter="url(#Filter18_di)">
          <circle cx="224.4" cy="352.4" r="12.4" fill="#00F0FF" fill-opacity=".2"/>
          <circle cx="224.4" cy="352.4" r="11.7" stroke="#00F0FF" stroke-width="1.5"/>
        </g>
        <g class="0_10" filter="url(#Filter19_d)">
          <path d="M228 353c0 .7 0 1.4-.2 2a5 5 0 0 1-.7 1.7c-.3.5-.7.8-1.2 1-.5.3-1 .5-1.7.5l-1.5-.3a3 3 0 0 1-1.1-1c-.3-.4-.6-1-.7-1.6a9.4 9.4 0 0 1 0-4.5c0-.7.3-1.2.6-1.7a3.3 3.3 0 0 1 2.9-1.4c.5 0 1 0 1.5.3.4.2.8.5 1.1 1l.8 1.6.2 2.3Zm-1.4 0a6 6 0 0 0 0-1l-4.3 3.1c0 .3.1.6.3.8 0 .2.2.4.4.6l.6.4.7.1c.4 0 .7 0 1-.3.3-.1.5-.4.7-.7l.5-1.3.1-1.7Zm-4.6-.1v.9l4.3-3.2-.3-.7c0-.2-.2-.4-.4-.6a1.8 1.8 0 0 0-1.3-.5 1.9 1.9 0 0 0-1.7 1l-.5 1.3-.1 1.8Z" fill="#00F0FF"/>
        </g>
      </g>
    </g>
    <g class="hill-clam">
      <path class="Vector 4" d="m206.3 386.2 17.9 7.3 4.1-2 6.8-1.5 7.1-2 3.6-5.6 1-4.4 14.7-10.5 4.5-6.4-1.1-9.2 1-8.3 1-8.3-7.4-6.2-2.3-7.7-7.9-4-5-2-8.5-5.1-10.6 1.3-6.5-1.5h-5.3l-7 6.1h-5.7l-5.9 3.4-3 7.4-6 3.8-2.3 5.6 2.2 10.4-1.5 2.6-1 7 3.3 7.8 9.3 7.5 5.3 4.4 5.2 10.1Z" fill="url(#paint26_)"/>
      <path class="Vector" d="M215 308.8c-1.5.2-3.6.9-4.9 1.6-1.4.8-3.2 2.4-4.1 3.7l-.7 1h-2a13 13 0 0 0-6.4 1.5 11 11 0 0 0-6.1 8.5l-.2 1.4-1 .3c-2.3.8-4.8 2.8-6 4.8-1 1.7-1.4 3.2-1.4 5.7 0 2.9.5 5.3 1.6 8l.6 1.4-.4.6a16.4 16.4 0 0 0-1.4 13.2c.6 1.8 1 2.7 2.1 4.2 1 1.3 2 2.1 4.1 3.5l6.8 5 3 2.6 2.3 1.9.1 1.3c.4 2.8 1.4 5.1 3.3 7.2 2.5 2.7 5.7 4.1 9.6 4.2h1.6l1.7 1.2c2.7 2 5.4 3.2 7 3.2 1.8 0 4.1-.9 7-2.7l2-1.3h1.6a12.8 12.8 0 0 0 13.2-11l.2-1.3 1.9-1.5c3-2.4 6.7-5.1 9.3-6.7 3.4-2.2 4.1-2.7 5.2-4 1.2-1.5 2-3.2 2.6-5.1.4-1.3.4-1.8.5-4.3 0-2.6 0-3-.5-4.4-.2-1-.7-2.2-1-2.9l-.7-1.3.5-1.1c1.7-3.6 2.4-7.8 1.8-10.9l-.8-2.5c-1.1-2.3-4-4.8-6.4-5.6-.7-.3-.7-.3-.8-1.3-.2-2.5-1.3-5-3-6.9a13.5 13.5 0 0 0-10.2-4c-1 0-1 0-1.2-.3 0-.2-.6-1-1-1.6-2.2-2.8-5-4.3-8.7-4.9a16.2 16.2 0 0 0-10.1 2l-1-.6a16.2 16.2 0 0 0-9.7-1.8Zm5.7 3.1c.5.1 1.5.5 2.1.9l1.3.6-.5 34.4-.6 34.2-15.4-65c0-.9 2.5-3.5 4.4-4.4a10 10 0 0 1 5.7-1c1.1 0 2.5.2 3 .3Zm15.7.2c2.5.6 5.3 2.6 6.6 4.7l.5.8-8.7 32.1-8.8 32.2.4-34 .5-34.3.8-.4c2.3-1.3 5.8-1.7 8.7-1ZM205 318s15.1 63.2 15 63.3a2967.2 2967.2 0 0 1-26.5-54.6c0-.9.7-3.1 1.2-4.2 1.1-2.2 3.9-4 6.6-4.5 1.2-.2 3.5-.2 3.7 0Zm45.3 1c3.6 1 6 3.6 6.8 7.3l.3 1.8a3275.6 3275.6 0 0 1-28.2 53.4c-.1 0 16.8-62.5 17-62.7.1-.3 3 0 4.1.2Zm-47.3 33.8 13.2 27c.9 1.8 1.5 3.2 1.3 3a7661 7661 0 0 1-29.7-36.2c-1.7-2.2-2.9-6.1-2.8-9.4 0-3 1.2-5.3 3.6-6.8 1-.7 2.6-1.3 2.8-1.1l11.6 23.5Zm58.4-21c1.1.6 2.4 2 3 3.2 1.4 3 .8 7.3-1.5 11.7l-1 2.2-15 17-15.3 17.2 1.6-3.4 13.7-25.6 12.1-22.7.4-.7.7.3 1.3.7ZM203 369.5c18 22 16.8 20.5 16.5 20.3-1.5-.9-5.8-4.5-12.4-10.4-9-8-11.7-10.3-17.6-14.3a9.6 9.6 0 0 1-4.4-5.8 10 10 0 0 1-.4-4c0-2.9.2-3.6 1-5.6.4-.7.4-.7.7-.4l16.6 20.2Zm61.4-16.8c1 3.3.5 7.9-1.2 10.5a12 12 0 0 1-4.4 3.9c-4.7 3-9.2 6.4-18.5 14.2a375 375 0 0 1-7.1 5.8 21.6 21.6 0 0 1-3.8 2.5 2422.5 2422.5 0 0 1 34.4-38.4l.6 1.5Zm-19.6 28.9a10.4 10.4 0 0 1-7.3 6.2l-.7.1.7-.6 7.4-6.2-.1.5Zm-33.3 5.5c.5.5-.8.1-2.4-.7a10.3 10.3 0 0 1-5-5.7l7.4 6.4Z" fill="url(#paint27_)"/>
    </g>
    <path class="front-hill" fill-rule="evenodd" clip-rule="evenodd" d="M37 461h375V345.2a141 141 0 0 0-61.9 8l-10 3.6c-116.5 42.4-117.6 42.8-234.4-3.7a141.5 141.5 0 0 0-68.7-8V461Z" fill="url(#paint28_radial)"/>
  </g>
  <defs>
    <linearGradient id="paint0_" x1="199.5" y1="274" x2="199.5" y2="461" gradientUnits="userSpaceOnUse">
      <stop stop-color="#00F0FF"/>
      <stop offset="1" stop-color="#1C1E51"/>
    </linearGradient>
    <linearGradient id="paint1_" x1="112.5" y1="274" x2="112.5" y2="461" gradientUnits="userSpaceOnUse">
      <stop stop-color="#00F0FF"/>
      <stop offset="1" stop-color="#1C1E51"/>
    </linearGradient>
    <linearGradient id="paint2_" x1="123.4" y1="78.3" x2="343.2" y2="78.3" gradientUnits="userSpaceOnUse">
      <stop stop-color="#0B14EC"/>
      <stop offset=".6" stop-color="#00F0FF"/>
    </linearGradient>
    <linearGradient id="paint3_" x1="70.5" y1="52.1" x2="290.2" y2="52.1" gradientUnits="userSpaceOnUse">
      <stop stop-color="#0B14EC"/>
      <stop offset=".6" stop-color="#00F0FF"/>
    </linearGradient>
    <linearGradient id="paint4_" x1="185.9" y1="78.3" x2="405.6" y2="78.3" gradientUnits="userSpaceOnUse">
      <stop stop-color="#0B14EC"/>
      <stop offset=".6" stop-color="#00F0FF"/>
    </linearGradient>
    <linearGradient id="paint5_" x1="238.8" y1="52.1" x2="458.5" y2="52.1" gradientUnits="userSpaceOnUse">
      <stop stop-color="#0B14EC"/>
      <stop offset=".6" stop-color="#00F0FF"/>
    </linearGradient>
    <linearGradient id="paint6_" x1="291.7" y1="26" x2="511.4" y2="26" gradientUnits="userSpaceOnUse">
      <stop stop-color="#0B14EC"/>
      <stop offset=".6" stop-color="#00F0FF"/>
    </linearGradient>
    <linearGradient id="paint7_" x1="17.6" y1="26" x2="237.3" y2="26" gradientUnits="userSpaceOnUse">
      <stop stop-color="#0B14EC"/>
      <stop offset=".6" stop-color="#00F0FF"/>
    </linearGradient>
    <linearGradient id="paint8_" x1="70.5" y1="104.4" x2="290.2" y2="104.4" gradientUnits="userSpaceOnUse">
      <stop stop-color="#0B14EC"/>
      <stop offset=".6" stop-color="#00F0FF"/>
    </linearGradient>
    <linearGradient id="paint9_" x1="123.4" y1="130.5" x2="343.2" y2="130.5" gradientUnits="userSpaceOnUse">
      <stop stop-color="#0B14EC"/>
      <stop offset=".6" stop-color="#00F0FF"/>
    </linearGradient>
    <linearGradient id="paint10_" x1="185.9" y1="130.5" x2="405.6" y2="130.5" gradientUnits="userSpaceOnUse">
      <stop stop-color="#0B14EC"/>
      <stop offset=".6" stop-color="#00F0FF"/>
    </linearGradient>
    <linearGradient id="paint11_" x1="238.8" y1="104.4" x2="458.5" y2="104.4" gradientUnits="userSpaceOnUse">
      <stop stop-color="#0B14EC"/>
      <stop offset=".6" stop-color="#00F0FF"/>
    </linearGradient>
    <linearGradient id="paint12_" x1="291.7" y1="78.3" x2="511.4" y2="78.3" gradientUnits="userSpaceOnUse">
      <stop stop-color="#0B14EC"/>
      <stop offset=".6" stop-color="#00F0FF"/>
    </linearGradient>
    <linearGradient id="paint13_" x1="17.6" y1="78.9" x2="237.3" y2="78.9" gradientUnits="userSpaceOnUse">
      <stop stop-color="#0B14EC"/>
      <stop offset=".6" stop-color="#00F0FF"/>
    </linearGradient>
    <linearGradient id="paint14_" x1="123.4" y1="182.8" x2="343.2" y2="182.8" gradientUnits="userSpaceOnUse">
      <stop stop-color="#0B14EC"/>
      <stop offset=".6" stop-color="#00F0FF"/>
    </linearGradient>
    <linearGradient id="paint15_" x1="70.5" y1="156.7" x2="290.2" y2="156.7" gradientUnits="userSpaceOnUse">
      <stop stop-color="#0B14EC"/>
      <stop offset=".6" stop-color="#00F0FF"/>
    </linearGradient>
    <linearGradient id="paint16_" x1="185.9" y1="182.8" x2="405.6" y2="182.8" gradientUnits="userSpaceOnUse">
      <stop stop-color="#0B14EC"/>
      <stop offset=".6" stop-color="#00F0FF"/>
    </linearGradient>
    <linearGradient id="paint17_" x1="238.8" y1="156.7" x2="458.5" y2="156.7" gradientUnits="userSpaceOnUse">
      <stop stop-color="#0B14EC"/>
      <stop offset=".6" stop-color="#00F0FF"/>
    </linearGradient>
    <linearGradient id="paint18_" x1="291.7" y1="130.5" x2="511.4" y2="130.5" gradientUnits="userSpaceOnUse">
      <stop stop-color="#0B14EC"/>
      <stop offset=".6" stop-color="#00F0FF"/>
    </linearGradient>
    <linearGradient id="paint19_" x1="344.6" y1="0" x2="564.3" y2="0" gradientUnits="userSpaceOnUse">
      <stop stop-color="#0B14EC"/>
      <stop offset=".6" stop-color="#00F0FF"/>
    </linearGradient>
    <linearGradient id="paint20_" x1="344.6" y1="52.3" x2="564.3" y2="52.3" gradientUnits="userSpaceOnUse">
      <stop stop-color="#0B14EC"/>
      <stop offset=".6" stop-color="#00F0FF"/>
    </linearGradient>
    <linearGradient id="paint21_" x1="344.6" y1="104.5" x2="564.3" y2="104.5" gradientUnits="userSpaceOnUse">
      <stop stop-color="#0B14EC"/>
      <stop offset=".6" stop-color="#00F0FF"/>
    </linearGradient>
    <linearGradient id="paint22_" x1="17.6" y1="131.2" x2="237.3" y2="131.2" gradientUnits="userSpaceOnUse">
      <stop stop-color="#0B14EC"/>
      <stop offset=".6" stop-color="#00F0FF"/>
    </linearGradient>
    <linearGradient id="paint23_" x1="-35.4" y1="0" x2="184.3" y2="0" gradientUnits="userSpaceOnUse">
      <stop stop-color="#0B14EC"/>
      <stop offset=".6" stop-color="#00F0FF"/>
    </linearGradient>
    <linearGradient id="paint24_" x1="-35.4" y1="52.9" x2="184.3" y2="52.9" gradientUnits="userSpaceOnUse">
      <stop stop-color="#0B14EC"/>
      <stop offset=".6" stop-color="#00F0FF"/>
    </linearGradient>
    <linearGradient id="paint25_" x1="-35.4" y1="105.2" x2="184.3" y2="105.2" gradientUnits="userSpaceOnUse">
      <stop stop-color="#0B14EC"/>
      <stop offset=".6" stop-color="#00F0FF"/>
    </linearGradient>
    <linearGradient id="paint26_" x1="225.4" y1="310.2" x2="224.6" y2="393.5" gradientUnits="userSpaceOnUse">
      <stop stop-color="#1C1E51"/>
      <stop offset="1" stop-color="#0B14EC"/>
    </linearGradient>
    <linearGradient id="paint27_" x1="224.2" y1="394.8" x2="226" y2="308.9" gradientUnits="userSpaceOnUse">
      <stop stop-color="#1C1E51"/>
      <stop offset="1" stop-color="#0B14EC"/>
    </linearGradient>
    <filter id="Filter0_di" x="208" y="336" width="32.9" height="32.9" filterUnits="userSpaceOnUse" color-interpolation-filters="sRGB">
      <feFlood flood-opacity="0" result="BackgroundImageFix"/>
      <feColorMatrix in="SourceAlpha" values="0 0 0 0 0 0 0 0 0 0 0 0 0 0 0 0 0 0 127 0" result="hardAlpha"/>
      <feOffset/>
      <feGaussianBlur stdDeviation="2"/>
      <feComposite in2="hardAlpha" operator="out"/>
      <feColorMatrix values="0 0 0 0 0 0 0 0 0 0.94 0 0 0 0 1 0 0 0 1 0"/>
      <feBlend in2="BackgroundImageFix" result="effect1_dropShadow"/>
      <feBlend in="SourceGraphic" in2="effect1_dropShadow" result="shape"/>
      <feColorMatrix in="SourceAlpha" values="0 0 0 0 0 0 0 0 0 0 0 0 0 0 0 0 0 0 127 0" result="hardAlpha"/>
      <feOffset/>
      <feGaussianBlur stdDeviation="2"/>
      <feComposite in2="hardAlpha" operator="arithmetic" k2="-1" k3="1"/>
      <feColorMatrix values="0 0 0 0 0 0 0 0 0 0 0 0 0 0 0 0 0 0 0.25 0"/>
      <feBlend in2="shape" result="effect2_innerShadow"/>
    </filter>
    <filter id="Filter1_d" x="216.8" y="343.4" width="15.4" height="18.5" filterUnits="userSpaceOnUse" color-interpolation-filters="sRGB">
      <feFlood flood-opacity="0" result="BackgroundImageFix"/>
      <feColorMatrix in="SourceAlpha" values="0 0 0 0 0 0 0 0 0 0 0 0 0 0 0 0 0 0 127 0" result="hardAlpha"/>
      <feOffset/>
      <feGaussianBlur stdDeviation="2"/>
      <feComposite in2="hardAlpha" operator="out"/>
      <feColorMatrix values="0 0 0 0 0 0 0 0 0 0.94 0 0 0 0 1 0 0 0 1 0"/>
      <feBlend in2="BackgroundImageFix" result="effect1_dropShadow"/>
      <feBlend in="SourceGraphic" in2="effect1_dropShadow" result="shape"/>
    </filter>
    <filter id="Filter2_di" x="208" y="336" width="32.9" height="32.9" filterUnits="userSpaceOnUse" color-interpolation-filters="sRGB">
      <feFlood flood-opacity="0" result="BackgroundImageFix"/>
      <feColorMatrix in="SourceAlpha" values="0 0 0 0 0 0 0 0 0 0 0 0 0 0 0 0 0 0 127 0" result="hardAlpha"/>
      <feOffset/>
      <feGaussianBlur stdDeviation="2"/>
      <feComposite in2="hardAlpha" operator="out"/>
      <feColorMatrix values="0 0 0 0 0 0 0 0 0 0.94 0 0 0 0 1 0 0 0 1 0"/>
      <feBlend in2="BackgroundImageFix" result="effect1_dropShadow"/>
      <feBlend in="SourceGraphic" in2="effect1_dropShadow" result="shape"/>
      <feColorMatrix in="SourceAlpha" values="0 0 0 0 0 0 0 0 0 0 0 0 0 0 0 0 0 0 127 0" result="hardAlpha"/>
      <feOffset/>
      <feGaussianBlur stdDeviation="2"/>
      <feComposite in2="hardAlpha" operator="arithmetic" k2="-1" k3="1"/>
      <feColorMatrix values="0 0 0 0 0 0 0 0 0 0 0 0 0 0 0 0 0 0 0.25 0"/>
      <feBlend in2="shape" result="effect2_innerShadow"/>
    </filter>
    <filter id="Filter3_d" x="216.8" y="343.4" width="15.4" height="18.5" filterUnits="userSpaceOnUse" color-interpolation-filters="sRGB">
      <feFlood flood-opacity="0" result="BackgroundImageFix"/>
      <feColorMatrix in="SourceAlpha" values="0 0 0 0 0 0 0 0 0 0 0 0 0 0 0 0 0 0 127 0" result="hardAlpha"/>
      <feOffset/>
      <feGaussianBlur stdDeviation="2"/>
      <feComposite in2="hardAlpha" operator="out"/>
      <feColorMatrix values="0 0 0 0 0 0 0 0 0 0.94 0 0 0 0 1 0 0 0 1 0"/>
      <feBlend in2="BackgroundImageFix" result="effect1_dropShadow"/>
      <feBlend in="SourceGraphic" in2="effect1_dropShadow" result="shape"/>
    </filter>
    <filter id="Filter4_di" x="208" y="336" width="32.9" height="32.9" filterUnits="userSpaceOnUse" color-interpolation-filters="sRGB">
      <feFlood flood-opacity="0" result="BackgroundImageFix"/>
      <feColorMatrix in="SourceAlpha" values="0 0 0 0 0 0 0 0 0 0 0 0 0 0 0 0 0 0 127 0" result="hardAlpha"/>
      <feOffset/>
      <feGaussianBlur stdDeviation="2"/>
      <feComposite in2="hardAlpha" operator="out"/>
      <feColorMatrix values="0 0 0 0 0 0 0 0 0 0.94 0 0 0 0 1 0 0 0 1 0"/>
      <feBlend in2="BackgroundImageFix" result="effect1_dropShadow"/>
      <feBlend in="SourceGraphic" in2="effect1_dropShadow" result="shape"/>
      <feColorMatrix in="SourceAlpha" values="0 0 0 0 0 0 0 0 0 0 0 0 0 0 0 0 0 0 127 0" result="hardAlpha"/>
      <feOffset/>
      <feGaussianBlur stdDeviation="2"/>
      <feComposite in2="hardAlpha" operator="arithmetic" k2="-1" k3="1"/>
      <feColorMatrix values="0 0 0 0 0 0 0 0 0 0 0 0 0 0 0 0 0 0 0.25 0"/>
      <feBlend in2="shape" result="effect2_innerShadow"/>
    </filter>
    <filter id="Filter5_d" x="216.8" y="343.4" width="15.4" height="18.5" filterUnits="userSpaceOnUse" color-interpolation-filters="sRGB">
      <feFlood flood-opacity="0" result="BackgroundImageFix"/>
      <feColorMatrix in="SourceAlpha" values="0 0 0 0 0 0 0 0 0 0 0 0 0 0 0 0 0 0 127 0" result="hardAlpha"/>
      <feOffset/>
      <feGaussianBlur stdDeviation="2"/>
      <feComposite in2="hardAlpha" operator="out"/>
      <feColorMatrix values="0 0 0 0 0 0 0 0 0 0.94 0 0 0 0 1 0 0 0 1 0"/>
      <feBlend in2="BackgroundImageFix" result="effect1_dropShadow"/>
      <feBlend in="SourceGraphic" in2="effect1_dropShadow" result="shape"/>
    </filter>
    <filter id="Filter6_di" x="208" y="336" width="32.9" height="32.9" filterUnits="userSpaceOnUse" color-interpolation-filters="sRGB">
      <feFlood flood-opacity="0" result="BackgroundImageFix"/>
      <feColorMatrix in="SourceAlpha" values="0 0 0 0 0 0 0 0 0 0 0 0 0 0 0 0 0 0 127 0" result="hardAlpha"/>
      <feOffset/>
      <feGaussianBlur stdDeviation="2"/>
      <feComposite in2="hardAlpha" operator="out"/>
      <feColorMatrix values="0 0 0 0 0 0 0 0 0 0.94 0 0 0 0 1 0 0 0 1 0"/>
      <feBlend in2="BackgroundImageFix" result="effect1_dropShadow"/>
      <feBlend in="SourceGraphic" in2="effect1_dropShadow" result="shape"/>
      <feColorMatrix in="SourceAlpha" values="0 0 0 0 0 0 0 0 0 0 0 0 0 0 0 0 0 0 127 0" result="hardAlpha"/>
      <feOffset/>
      <feGaussianBlur stdDeviation="2"/>
      <feComposite in2="hardAlpha" operator="arithmetic" k2="-1" k3="1"/>
      <feColorMatrix values="0 0 0 0 0 0 0 0 0 0 0 0 0 0 0 0 0 0 0.25 0"/>
      <feBlend in2="shape" result="effect2_innerShadow"/>
    </filter>
    <filter id="Filter7_d" x="216.8" y="343.4" width="15.4" height="18.5" filterUnits="userSpaceOnUse" color-interpolation-filters="sRGB">
      <feFlood flood-opacity="0" result="BackgroundImageFix"/>
      <feColorMatrix in="SourceAlpha" values="0 0 0 0 0 0 0 0 0 0 0 0 0 0 0 0 0 0 127 0" result="hardAlpha"/>
      <feOffset/>
      <feGaussianBlur stdDeviation="2"/>
      <feComposite in2="hardAlpha" operator="out"/>
      <feColorMatrix values="0 0 0 0 0 0 0 0 0 0.94 0 0 0 0 1 0 0 0 1 0"/>
      <feBlend in2="BackgroundImageFix" result="effect1_dropShadow"/>
      <feBlend in="SourceGraphic" in2="effect1_dropShadow" result="shape"/>
    </filter>
    <filter id="Filter8_di" x="208" y="336" width="32.9" height="32.9" filterUnits="userSpaceOnUse" color-interpolation-filters="sRGB">
      <feFlood flood-opacity="0" result="BackgroundImageFix"/>
      <feColorMatrix in="SourceAlpha" values="0 0 0 0 0 0 0 0 0 0 0 0 0 0 0 0 0 0 127 0" result="hardAlpha"/>
      <feOffset/>
      <feGaussianBlur stdDeviation="2"/>
      <feComposite in2="hardAlpha" operator="out"/>
      <feColorMatrix values="0 0 0 0 0 0 0 0 0 0.94 0 0 0 0 1 0 0 0 1 0"/>
      <feBlend in2="BackgroundImageFix" result="effect1_dropShadow"/>
      <feBlend in="SourceGraphic" in2="effect1_dropShadow" result="shape"/>
      <feColorMatrix in="SourceAlpha" values="0 0 0 0 0 0 0 0 0 0 0 0 0 0 0 0 0 0 127 0" result="hardAlpha"/>
      <feOffset/>
      <feGaussianBlur stdDeviation="2"/>
      <feComposite in2="hardAlpha" operator="arithmetic" k2="-1" k3="1"/>
      <feColorMatrix values="0 0 0 0 0 0 0 0 0 0 0 0 0 0 0 0 0 0 0.25 0"/>
      <feBlend in2="shape" result="effect2_innerShadow"/>
    </filter>
    <filter id="Filter9_d" x="216.8" y="343.4" width="15.4" height="18.5" filterUnits="userSpaceOnUse" color-interpolation-filters="sRGB">
      <feFlood flood-opacity="0" result="BackgroundImageFix"/>
      <feColorMatrix in="SourceAlpha" values="0 0 0 0 0 0 0 0 0 0 0 0 0 0 0 0 0 0 127 0" result="hardAlpha"/>
      <feOffset/>
      <feGaussianBlur stdDeviation="2"/>
      <feComposite in2="hardAlpha" operator="out"/>
      <feColorMatrix values="0 0 0 0 0 0 0 0 0 0.94 0 0 0 0 1 0 0 0 1 0"/>
      <feBlend in2="BackgroundImageFix" result="effect1_dropShadow"/>
      <feBlend in="SourceGraphic" in2="effect1_dropShadow" result="shape"/>
    </filter>
    <filter id="Filter10_di" x="208" y="336" width="32.9" height="32.9" filterUnits="userSpaceOnUse" color-interpolation-filters="sRGB">
      <feFlood flood-opacity="0" result="BackgroundImageFix"/>
      <feColorMatrix in="SourceAlpha" values="0 0 0 0 0 0 0 0 0 0 0 0 0 0 0 0 0 0 127 0" result="hardAlpha"/>
      <feOffset/>
      <feGaussianBlur stdDeviation="2"/>
      <feComposite in2="hardAlpha" operator="out"/>
      <feColorMatrix values="0 0 0 0 0 0 0 0 0 0.94 0 0 0 0 1 0 0 0 1 0"/>
      <feBlend in2="BackgroundImageFix" result="effect1_dropShadow"/>
      <feBlend in="SourceGraphic" in2="effect1_dropShadow" result="shape"/>
      <feColorMatrix in="SourceAlpha" values="0 0 0 0 0 0 0 0 0 0 0 0 0 0 0 0 0 0 127 0" result="hardAlpha"/>
      <feOffset/>
      <feGaussianBlur stdDeviation="2"/>
      <feComposite in2="hardAlpha" operator="arithmetic" k2="-1" k3="1"/>
      <feColorMatrix values="0 0 0 0 0 0 0 0 0 0 0 0 0 0 0 0 0 0 0.25 0"/>
      <feBlend in2="shape" result="effect2_innerShadow"/>
    </filter>
    <filter id="Filter11_d" x="216.8" y="343.4" width="15.4" height="18.5" filterUnits="userSpaceOnUse" color-interpolation-filters="sRGB">
      <feFlood flood-opacity="0" result="BackgroundImageFix"/>
      <feColorMatrix in="SourceAlpha" values="0 0 0 0 0 0 0 0 0 0 0 0 0 0 0 0 0 0 127 0" result="hardAlpha"/>
      <feOffset/>
      <feGaussianBlur stdDeviation="2"/>
      <feComposite in2="hardAlpha" operator="out"/>
      <feColorMatrix values="0 0 0 0 0 0 0 0 0 0.94 0 0 0 0 1 0 0 0 1 0"/>
      <feBlend in2="BackgroundImageFix" result="effect1_dropShadow"/>
      <feBlend in="SourceGraphic" in2="effect1_dropShadow" result="shape"/>
    </filter>
    <filter id="Filter12_di" x="208" y="336" width="32.9" height="32.9" filterUnits="userSpaceOnUse" color-interpolation-filters="sRGB">
      <feFlood flood-opacity="0" result="BackgroundImageFix"/>
      <feColorMatrix in="SourceAlpha" values="0 0 0 0 0 0 0 0 0 0 0 0 0 0 0 0 0 0 127 0" result="hardAlpha"/>
      <feOffset/>
      <feGaussianBlur stdDeviation="2"/>
      <feComposite in2="hardAlpha" operator="out"/>
      <feColorMatrix values="0 0 0 0 0 0 0 0 0 0.94 0 0 0 0 1 0 0 0 1 0"/>
      <feBlend in2="BackgroundImageFix" result="effect1_dropShadow"/>
      <feBlend in="SourceGraphic" in2="effect1_dropShadow" result="shape"/>
      <feColorMatrix in="SourceAlpha" values="0 0 0 0 0 0 0 0 0 0 0 0 0 0 0 0 0 0 127 0" result="hardAlpha"/>
      <feOffset/>
      <feGaussianBlur stdDeviation="2"/>
      <feComposite in2="hardAlpha" operator="arithmetic" k2="-1" k3="1"/>
      <feColorMatrix values="0 0 0 0 0 0 0 0 0 0 0 0 0 0 0 0 0 0 0.25 0"/>
      <feBlend in2="shape" result="effect2_innerShadow"/>
    </filter>
    <filter id="Filter13_d" x="216.8" y="343.4" width="15.4" height="18.5" filterUnits="userSpaceOnUse" color-interpolation-filters="sRGB">
      <feFlood flood-opacity="0" result="BackgroundImageFix"/>
      <feColorMatrix in="SourceAlpha" values="0 0 0 0 0 0 0 0 0 0 0 0 0 0 0 0 0 0 127 0" result="hardAlpha"/>
      <feOffset/>
      <feGaussianBlur stdDeviation="2"/>
      <feComposite in2="hardAlpha" operator="out"/>
      <feColorMatrix values="0 0 0 0 0 0 0 0 0 0.94 0 0 0 0 1 0 0 0 1 0"/>
      <feBlend in2="BackgroundImageFix" result="effect1_dropShadow"/>
      <feBlend in="SourceGraphic" in2="effect1_dropShadow" result="shape"/>
    </filter>
    <filter id="Filter14_di" x="208" y="336" width="32.9" height="32.9" filterUnits="userSpaceOnUse" color-interpolation-filters="sRGB">
      <feFlood flood-opacity="0" result="BackgroundImageFix"/>
      <feColorMatrix in="SourceAlpha" values="0 0 0 0 0 0 0 0 0 0 0 0 0 0 0 0 0 0 127 0" result="hardAlpha"/>
      <feOffset/>
      <feGaussianBlur stdDeviation="2"/>
      <feComposite in2="hardAlpha" operator="out"/>
      <feColorMatrix values="0 0 0 0 0 0 0 0 0 0.94 0 0 0 0 1 0 0 0 1 0"/>
      <feBlend in2="BackgroundImageFix" result="effect1_dropShadow"/>
      <feBlend in="SourceGraphic" in2="effect1_dropShadow" result="shape"/>
      <feColorMatrix in="SourceAlpha" values="0 0 0 0 0 0 0 0 0 0 0 0 0 0 0 0 0 0 127 0" result="hardAlpha"/>
      <feOffset/>
      <feGaussianBlur stdDeviation="2"/>
      <feComposite in2="hardAlpha" operator="arithmetic" k2="-1" k3="1"/>
      <feColorMatrix values="0 0 0 0 0 0 0 0 0 0 0 0 0 0 0 0 0 0 0.25 0"/>
      <feBlend in2="shape" result="effect2_innerShadow"/>
    </filter>
    <filter id="Filter15_d" x="216.8" y="343.4" width="15.4" height="18.5" filterUnits="userSpaceOnUse" color-interpolation-filters="sRGB">
      <feFlood flood-opacity="0" result="BackgroundImageFix"/>
      <feColorMatrix in="SourceAlpha" values="0 0 0 0 0 0 0 0 0 0 0 0 0 0 0 0 0 0 127 0" result="hardAlpha"/>
      <feOffset/>
      <feGaussianBlur stdDeviation="2"/>
      <feComposite in2="hardAlpha" operator="out"/>
      <feColorMatrix values="0 0 0 0 0 0 0 0 0 0.94 0 0 0 0 1 0 0 0 1 0"/>
      <feBlend in2="BackgroundImageFix" result="effect1_dropShadow"/>
      <feBlend in="SourceGraphic" in2="effect1_dropShadow" result="shape"/>
    </filter>
    <filter id="Filter16_di" x="208" y="336" width="32.9" height="32.9" filterUnits="userSpaceOnUse" color-interpolation-filters="sRGB">
      <feFlood flood-opacity="0" result="BackgroundImageFix"/>
      <feColorMatrix in="SourceAlpha" values="0 0 0 0 0 0 0 0 0 0 0 0 0 0 0 0 0 0 127 0" result="hardAlpha"/>
      <feOffset/>
      <feGaussianBlur stdDeviation="2"/>
      <feComposite in2="hardAlpha" operator="out"/>
      <feColorMatrix values="0 0 0 0 0 0 0 0 0 0.94 0 0 0 0 1 0 0 0 1 0"/>
      <feBlend in2="BackgroundImageFix" result="effect1_dropShadow"/>
      <feBlend in="SourceGraphic" in2="effect1_dropShadow" result="shape"/>
      <feColorMatrix in="SourceAlpha" values="0 0 0 0 0 0 0 0 0 0 0 0 0 0 0 0 0 0 127 0" result="hardAlpha"/>
      <feOffset/>
      <feGaussianBlur stdDeviation="2"/>
      <feComposite in2="hardAlpha" operator="arithmetic" k2="-1" k3="1"/>
      <feColorMatrix values="0 0 0 0 0 0 0 0 0 0 0 0 0 0 0 0 0 0 0.25 0"/>
      <feBlend in2="shape" result="effect2_innerShadow"/>
    </filter>
    <filter id="Filter17_d" x="216.8" y="343.4" width="15.4" height="18.5" filterUnits="userSpaceOnUse" color-interpolation-filters="sRGB">
      <feFlood flood-opacity="0" result="BackgroundImageFix"/>
      <feColorMatrix in="SourceAlpha" values="0 0 0 0 0 0 0 0 0 0 0 0 0 0 0 0 0 0 127 0" result="hardAlpha"/>
      <feOffset/>
      <feGaussianBlur stdDeviation="2"/>
      <feComposite in2="hardAlpha" operator="out"/>
      <feColorMatrix values="0 0 0 0 0 0 0 0 0 0.94 0 0 0 0 1 0 0 0 1 0"/>
      <feBlend in2="BackgroundImageFix" result="effect1_dropShadow"/>
      <feBlend in="SourceGraphic" in2="effect1_dropShadow" result="shape"/>
    </filter>
    <filter id="Filter18_di" x="208" y="336" width="32.9" height="32.9" filterUnits="userSpaceOnUse" color-interpolation-filters="sRGB">
      <feFlood flood-opacity="0" result="BackgroundImageFix"/>
      <feColorMatrix in="SourceAlpha" values="0 0 0 0 0 0 0 0 0 0 0 0 0 0 0 0 0 0 127 0" result="hardAlpha"/>
      <feOffset/>
      <feGaussianBlur stdDeviation="2"/>
      <feComposite in2="hardAlpha" operator="out"/>
      <feColorMatrix values="0 0 0 0 0 0 0 0 0 0.94 0 0 0 0 1 0 0 0 1 0"/>
      <feBlend in2="BackgroundImageFix" result="effect1_dropShadow"/>
      <feBlend in="SourceGraphic" in2="effect1_dropShadow" result="shape"/>
      <feColorMatrix in="SourceAlpha" values="0 0 0 0 0 0 0 0 0 0 0 0 0 0 0 0 0 0 127 0" result="hardAlpha"/>
      <feOffset/>
      <feGaussianBlur stdDeviation="2"/>
      <feComposite in2="hardAlpha" operator="arithmetic" k2="-1" k3="1"/>
      <feColorMatrix values="0 0 0 0 0 0 0 0 0 0 0 0 0 0 0 0 0 0 0.25 0"/>
      <feBlend in2="shape" result="effect2_innerShadow"/>
    </filter>
    <filter id="Filter19_d" x="216.6" y="343.7" width="15.4" height="18.5" filterUnits="userSpaceOnUse" color-interpolation-filters="sRGB">
      <feFlood flood-opacity="0" result="BackgroundImageFix"/>
      <feColorMatrix in="SourceAlpha" values="0 0 0 0 0 0 0 0 0 0 0 0 0 0 0 0 0 0 127 0" result="hardAlpha"/>
      <feOffset/>
      <feGaussianBlur stdDeviation="2"/>
      <feComposite in2="hardAlpha" operator="out"/>
      <feColorMatrix values="0 0 0 0 0 0 0 0 0 0.94 0 0 0 0 1 0 0 0 1 0"/>
      <feBlend in2="BackgroundImageFix" result="effect1_dropShadow"/>
      <feBlend in="SourceGraphic" in2="effect1_dropShadow" result="shape"/>
    </filter>
    <radialGradient id="paint28_radial" cx="0" cy="0" r="1" gradientUnits="userSpaceOnUse" gradientTransform="matrix(107.14842 728.59038 -4619.20644 679.31268 262.2 -158.6)">
      <stop stop-color="#00F0FF"/>
      <stop offset=".5" stop-color="#0F7FA2"/>
      <stop offset=".8" stop-color="#1C1E51"/>
      <stop offset=".9" stop-color="#1C1E51"/>
    </radialGradient>
  </defs>
</svg>
