<svg width="662" height="663" viewBox="0 0 662 663" fill="none" xmlns="http://www.w3.org/2000/svg">
  <g class="octopus-ring-setup">
    <g class="central-clam" fill-opacity=".8">
      <path class="segment-8" d="M338.5 421.6a18 18 0 0 0 5.8-1.6c1.8-.8 4-2.6 5.2-4l1-1.2 2.2.2c2.9.2 5.1-.2 7.8-1.3 4.2-1.7 6.9-5 7.9-9.6l.3-1.6 1.3-.4c2.7-.7 5.8-3 7.4-5.2 1.3-1.9 1.8-3.7 2-6.5.2-3.4-.3-6.3-1.6-9.6l-.6-1.6.5-.7a18.8 18.8 0 0 0 .1-20.4c-1-1.6-2.2-2.6-4.7-4.4l-7.9-6.3-3.5-3.2-2.6-2.3v-1.7a15.8 15.8 0 0 0-14.9-14.2h-2l-1.9-1.6c-3.2-2.4-6.4-4-8.4-4.1-2-.2-4.9.8-8.5 2.7l-2.4 1.4-1.9-.2c-4.6-.3-8.7 1-12 4-2.4 2.1-3.8 4.7-4.5 8l-.4 1.7-2.3 1.6c-3.7 2.6-8.4 5.5-11.6 7.3a20 20 0 0 0-6.4 4.3 16.4 16.4 0 0 0-3.4 5.8c-.5 1.4-.6 2.1-.8 5-.1 3-.1 3.5.3 5.2.2 1 .8 2.6 1.2 3.4l.7 1.6-.7 1.3c-2.3 4-3.3 9-2.8 12.6.1.8.5 2.1.9 3 1.2 2.8 4.4 5.8 7.4 7 .7.3.8.3.8 1.6.2 2.8 1.4 6 3.2 8.2 2.6 3.1 7.8 5.4 12.1 5.3 1.2 0 1.3 0 1.5.5a15.4 15.4 0 0 0 11.3 8.2 19.8 19.8 0 0 0 12.2-1.6l1.2.7a20 20 0 0 0 11.5 2.7Zm-6.8-4c-.6-.2-1.7-.7-2.5-1.2l-1.4-.8 2.4-40.2a5091 5091 0 0 1 2.6-40l15 77c-.1 1.1-3.3 4-5.5 5-2.3 1-4 1.1-7 .8-1.3-.1-3-.4-3.6-.6Zm-18.9-1.3c-3-.8-6.2-3.3-7.6-5.9l-.6-1 12.3-37 12.3-37.2-2.4 40-2.5 40-1 .5a16.3 16.3 0 0 1-10.5.6Zm38.3-4.8c-.1-.1-14.8-75-14.7-75.1a3410.6 3410.6 0 0 1 29 65.6c-.1 1-1 3.7-1.8 5a11.4 11.4 0 0 1-8 4.7c-1.5.2-4.3 0-4.5-.2Zm-54.5-4a11 11 0 0 1-7.7-9 13 13 0 0 1-.3-2.2 3782.8 3782.8 0 0 1 36.8-60.7c.2 0-23.6 72-23.8 72.3-.2.3-3.7 0-5-.5Zm58.8-36.7L341 338.5l-1.5-3.7c.5.4 32.5 42.5 33.8 44.3 1.9 2.6 3 7.4 2.8 11.1a9 9 0 0 1-4.7 7.8c-1.3.7-3.2 1.4-3.4 1.2l-12.6-28.4Zm-71.4 21c-1.3-.9-2.8-2.7-3.4-4-1.5-3.7-.6-8.7 2.4-13.7l1.4-2.4 18.9-19 19.3-19.2c.2-.2-.7 1.6-2.1 3.9l-17.8 29.1-15.8 25.8-.6.8-.7-.4a14 14 0 0 1-1.6-1Zm72.2-40.6c-20.5-26.9-19.2-25.2-18.8-25 1.8 1.2 6.7 5.7 14.4 13.2 10.3 10 13.4 12.7 20.3 17.7 2.9 2.2 4 3.9 5 7.1.4 1.6.4 2 .2 4.8-.1 3.3-.4 4.2-1.5 6.4-.5.9-.5.9-.8.5l-18.8-24.7Zm-74.7 15.7c-1-4-.2-9.2 2-12.3 1-1.5 2.4-2.6 5.4-4.2 5.9-3.2 11.4-7 23-15.4 3.8-2.7 7.8-5.6 9-6.3 2.2-1.6 4.7-3 4.6-2.8a2805 2805 0 0 1-43.4 42.8l-.6-1.8Zm25-32.5a12.2 12.2 0 0 1 9.2-7h.8l-.9.7-9.2 6.8s0-.3.2-.5Zm40.3-4.4c-.5-.6 1 0 2.9 1a12.4 12.4 0 0 1 5.6 7s-7.8-7.2-8.5-8Z" fill="url(#paint98_linear)"/>
      <path class="segment-7" d="M324.9 241.2c-1.8.2-4.3.8-5.9 1.6-1.7.9-4 2.7-5.2 4.2l-1 1.2-2.2-.2c-2.9-.3-5.1.1-7.8 1.2a13 13 0 0 0-8 9.9l-.3 1.6-1.2.4c-2.8.7-6 3-7.5 5.3-1.3 2-1.9 3.8-2 6.7-.3 3.5.2 6.4 1.4 9.8l.6 1.7-.5.7a19.8 19.8 0 0 0-.2 21c1 1.5 2.1 2.6 4.6 4.5 2.1 1.6 6.4 5 7.9 6.5l3.4 3.2 2.6 2.5v1.6c.4 3.4 1.5 6.2 3.6 8.8 2.8 3.5 6.6 5.5 11.2 5.9l2 .1 1.9 1.5c3.2 2.6 6.3 4.2 8.3 4.3 2 .2 5-.7 8.5-2.7l2.5-1.4 1.9.2A15.3 15.3 0 0 0 360 329l.4-1.7 2.3-1.6c3.7-2.7 8.4-5.7 11.6-7.4a20 20 0 0 0 6.5-4.5 17 17 0 0 0 3.4-5.9c.6-1.5.7-2.2.9-5.1.2-3.2.2-3.7-.3-5.4l-1-3.5-.8-1.6.7-1.3c2.3-4.2 3.4-9.2 2.9-13-.1-.7-.5-2.1-.9-3-1.1-3-4.3-6-7.3-7.3-.8-.3-.8-.3-.8-1.6-.2-3-1.3-6.1-3.2-8.5a16.3 16.3 0 0 0-12-5.5c-1.2 0-1.3 0-1.5-.4 0-.3-.6-1.2-1.2-2a15.3 15.3 0 0 0-10-6.5 19.4 19.4 0 0 0-12.3 1.5l-1.1-.7c-2.5-1.8-7.4-3-11.5-2.8Zm6.7 4.1c.6.2 1.8.8 2.5 1.3l1.5.8-2.8 41.3-2.9 41.1c-.2-.7-14.4-78.8-14.3-79.2 0-1.1 3.2-4 5.5-5 2.2-1 4-1.2 7-1l3.5.7Zm18.9 1.4c3 .9 6.2 3.5 7.6 6.1l.6 1-12.6 38-12.6 38c0 .2 1.1-18.2 2.7-40.8l2.8-41.2 1-.5c2.8-1.3 7-1.6 10.5-.6Zm-38.3 4.8c.1.2 14.2 77.1 14 77.2a3554.6 3554.6 0 0 1-28.3-67.5c0-1 1-3.8 1.7-5 1.5-2.6 5-4.6 8.2-5 1.4-.1 4.2 0 4.4.3Zm54.4 4.5c4.3 1.4 7 4.7 7.7 9.2.2.9.3 1.8.2 2.2a3888.5 3888.5 0 0 1-37.3 62.2c0-.1 24.3-74 24.5-74.2.2-.3 3.7.2 5 .6Zm-59 37.3 14.1 33.2c1 2.4 1.6 4 1.4 3.8l-33.4-45.7a20 20 0 0 1-2.7-11.4 9.3 9.3 0 0 1 4.8-8c1.3-.6 3.2-1.3 3.4-1l12.4 29Zm71.6-21.2c1.3.8 2.7 2.7 3.3 4.2 1.5 3.7.6 8.8-2.5 14l-1.4 2.4-19 19.3a2815.4 2815.4 0 0 1-19.5 19.7c-.3.2.7-1.6 2.1-4l18-29.8 16-26.3.6-.9.8.4 1.6 1Zm-72.6 41.3c20.3 27.7 19 26 18.6 25.7-1.8-1.2-6.7-5.9-14.3-13.5a166.6 166.6 0 0 0-20.1-18.4c-3-2.2-4.1-4-5-7.3a12 12 0 0 1-.2-5c.2-3.3.4-4.2 1.6-6.5.5-.8.5-.8.8-.4l18.6 25.4Zm74.9-15.8c1 4 0 9.5-2 12.6-1.2 1.5-2.6 2.7-5.6 4.3-5.9 3.3-11.5 7-23.2 15.7l-8.9 6.5a25.9 25.9 0 0 1-4.7 2.8 2880.8 2880.8 0 0 1 43.8-43.7l.6 1.8ZM356 331a12.4 12.4 0 0 1-9.2 7h-.8l.9-.6 9.3-7-.2.6Zm-40.3 4.3c.5.6-1 0-2.8-1a12.5 12.5 0 0 1-5.6-7.2l8.4 8.2Z" fill="url(#paint99_linear)"/>
      <path class="segment-6" d="M400.3 390.3a18 18 0 0 0 3-5.2c.7-1.8 1-4.7.8-6.6l-.1-1.4 1.7-1.5c2.2-1.9 3.5-3.7 4.7-6.5 1.7-4.1 1.3-8.3-1.3-12.3l-.9-1.4.7-1c1.4-2.6 2-6.3 1.5-9-.4-2.3-1.3-4-3.2-6a21.3 21.3 0 0 0-7.9-5.7l-1.6-.7-.1-.9a18.8 18.8 0 0 0-14.4-14.5c-1.8-.3-3.4-.3-6.4.2l-10 1.2-4.7.2-3.5.1-1.3-1a15.8 15.8 0 0 0-20.5.5l-1.4 1.2-2.5.3c-4 .6-7.3 1.7-8.8 3-1.6 1.4-3 4-4 8l-.9 2.6-1.4 1.3c-3.5 3-5.5 6.8-5.7 11.2-.1 3.3.7 6.2 2.5 9l1 1.4-.6 2.7c-.8 4.5-2 9.9-3 13.4a20 20 0 0 0-1.5 7.6c0 2.2.6 4.3 1.7 6.5.7 1.4 1 2 3 4.1 2 2.3 2.4 2.6 3.9 3.5.9.6 2.3 1.3 3.2 1.6l1.6.6.4 1.4c1.3 4.5 4 8.7 7 10.8a15 15 0 0 0 2.7 1.5c2.9 1.2 7.3 1 10.2-.2.8-.3.8-.3 1.7.5 2.2 2 5.2 3.3 8.1 3.5 4 .5 9.3-1.6 12.3-4.7.9-.9 1-1 1.3-.7l2.3.5c4 .7 7.8-.2 11.5-2.7a19.8 19.8 0 0 0 7.6-9.8l1.3-.3a20 20 0 0 0 10-6.3Zm-7.5 2-2.7 1-1.6.4-26.7-30.2a5117.1 5117.1 0 0 1-26.5-30.1c.6.3 64.9 43.6 65.1 43.9.8.8.5 5-.4 7.4-.9 2.2-2 3.7-4.2 5.5-1.1.9-2.5 1.8-3 2.1Zm-14.3 12.5c-2.7 1.5-6.7 2-9.6 1.2l-1-.3-17.6-34.8a21429 21429 0 0 1-17.6-35c0-.2 12 13.3 26.6 29.9l26.5 30-.3 1c-1 3-3.9 6.2-7 8Zm23.6-30.5c-.2 0-63.5-42.6-63.5-42.7a3423.3 3423.3 0 0 1 67 25.9c.6.8 1.8 3.3 2.2 4.7.7 2.8-.3 6.6-2.4 9.1-.9 1.2-3 3-3.3 3Zm-41.4 35.6a11 11 0 0 1-11.8-.8 13 13 0 0 1-1.7-1.4 3772.7 3772.7 0 0 1-16.9-69l34.3 68c0 .4-2.7 2.6-3.9 3.2Zm15.7-67.4-33-12.7c-2.4-.9-4-1.6-3.7-1.6l55.3 7.5c3.1.5 7.3 3 9.8 5.8a9 9 0 0 1 2.2 9c-.5 1.3-1.3 3.1-1.6 3l-29-11Zm-35.7 65.3c-1.5.3-3.8.1-5.2-.5-3.6-1.5-6.6-5.6-8-11.3l-.7-2.7v-54c0-.3.6 1.6 1.2 4.2l8 33.2 7.1 29.4.2 1-.8.2-1.8.5Zm22.4-79.7c-33.5-4.6-31.4-4.3-30.9-4.4 2-.4 8.7-.7 19.4-1 14.3-.2 18.5-.4 27-1.7 3.5-.5 5.5-.2 8.5 1.5 1.3.8 1.7 1 3.6 3.2 2.2 2.4 2.6 3.2 3.4 5.6.3 1 .3 1-.3 1l-30.7-4.2ZM321.4 392c-3.5-2-6.7-6.4-7.3-10-.4-1.9-.1-3.7.8-7 2-6.4 3.2-12.9 5.5-27.1L322 337c.6-2.7 1.3-5.5 1.4-5.2a2830.9 2830.9 0 0 1-.5 61c-.2-.2-1-.5-1.6-1Zm-5.3-40.8a12.2 12.2 0 0 1 1.6-11.3l.5-.6-.1 1a573 573 0 0 1-1.8 11.4l-.2-.5Zm25.4-31.5c-.8 0 .6-.8 2.7-1.3a12.4 12.4 0 0 1 9 .9l-11.7.4Z" fill="url(#paint100_linear)"/>
      <path class="segment-5" d="M263.2 272.4a17.7 17.7 0 0 0-3 5.3c-.7 1.8-1 4.7-.8 6.6l.2 1.5-1.7 1.5a15.5 15.5 0 0 0-4.7 6.4 13 13 0 0 0 1.4 12.6l.9 1.4-.6 1.1c-1.5 2.5-2 6.3-1.5 9 .4 2.3 1.3 4 3.2 6.2 2.3 2.7 4.8 4.4 8 6l1.6.7.2.9a19.8 19.8 0 0 0 14.6 15c1.9.4 3.4.3 6.5-.1 2.6-.4 8-1 10.1-1l4.8-.1 3.5-.1 1.3 1c2.6 2.3 5.3 3.5 8.7 3.8 4.4.5 8.5-.8 12-3.8l1.5-1.2 2.5-.3c4-.5 7.4-1.6 9-2.9 1.5-1.3 2.8-4 4-8l.7-2.7 1.5-1.2a15.3 15.3 0 0 0 3-20.4l-.9-1.5.5-2.8c.8-4.5 2-10 3-13.5a20 20 0 0 0 1.4-7.6 17 17 0 0 0-1.7-6.7c-.7-1.4-1-2-3-4.2-2.1-2.3-2.5-2.7-4-3.6-1-.6-2.4-1.4-3.3-1.7l-1.6-.6-.5-1.5c-1.3-4.5-4-8.9-7-11.1l-2.8-1.6a14.8 14.8 0 0 0-10.4 0c-.7.4-.8.4-1.7-.5-2.2-2-5.2-3.4-8.2-3.8-4-.4-9.4 1.5-12.4 4.6-.9.9-1 1-1.3.7l-2.3-.6c-4.1-.7-8 .1-11.7 2.5a19.4 19.4 0 0 0-7.6 9.9l-1.3.3c-3 .4-7.4 3-10 6.1Zm7.7-1.8c.5-.3 1.7-.7 2.6-1l1.6-.4 27.3 31.2a5420 5420 0 0 1 27 31.1c-.7-.3-66-45.6-66.2-45.8-.7-1-.5-5.2.4-7.5a12 12 0 0 1 4.3-5.5c1-.9 2.4-1.8 3-2.1Zm14.3-12.4c2.7-1.5 6.8-2 9.7-1l1.1.3 18 35.6 18 36s-12.2-13.8-27-31l-27.2-31 .4-1c1-3 3.9-6.2 7-7.9Zm-23.7 30.5c.2 0 64.5 44.5 64.5 44.6a3515.8 3515.8 0 0 1-67.8-27.7 17 17 0 0 1-2.3-4.7c-.7-2.9.2-6.7 2.3-9.3.9-1.1 3-3 3.3-3Zm41.6-35.4c4.1-2 8.4-1.6 12 1.1.7.5 1.5 1.1 1.7 1.4a3898 3898 0 0 1 17.5 70.4s-35-69.5-35-69.8c-.1-.3 2.7-2.5 3.8-3Zm-15.3 68.2 33.5 13.5c2.3 1 4 1.7 3.6 1.7L269 328a20 20 0 0 1-10-6.1 9.2 9.2 0 0 1-2.2-9c.4-1.5 1.3-3.3 1.6-3.3l29.4 11.9Zm35.6-65.7c1.5-.3 3.9 0 5.3.6 3.7 1.6 6.6 5.9 8.1 11.7l.8 2.8.2 27 .1 27.7c0 .3-.6-1.6-1.2-4.3l-8.4-33.8c-4-16-7.2-29.4-7.3-30l-.2-1 .8-.2a14 14 0 0 1 1.8-.5Zm-22 80.6c33.8 5.2 31.7 4.9 31.2 5-2 .4-8.9.6-19.6.5-14.5 0-18.8.2-27.2 1.3-3.7.5-5.7.1-8.7-1.7a12 12 0 0 1-3.7-3.3 12.7 12.7 0 0 1-3.4-5.8c-.4-.9-.3-1 .2-.9l31.1 4.9Zm41.7-64c3.5 2 6.7 6.5 7.4 10.2.4 1.9.2 3.7-.8 7-1.9 6.5-3.1 13-5.3 27.5a454 454 0 0 1-1.7 10.8c-.5 2.8-1.2 5.6-1.3 5.4a2912.9 2912.9 0 0 1 0-62l1.7 1Zm5.6 41.4a12.4 12.4 0 0 1-1.5 11.4l-.6.6.2-1a593 593 0 0 1 1.6-11.6l.3.6Zm-25.4 31.5c.7 0-.7.8-2.8 1.3a12.5 12.5 0 0 1-9-1.2c-.1 0 10.7-.2 11.8 0Z" fill="url(#paint101_linear)"/>
      <path class="segment-4" d="M272.7 400a18 18 0 0 0 5.2 3c1.8.6 4.7 1 6.5.7l1.5-.1 1.5 1.7c1.9 2.2 3.7 3.5 6.4 4.7 4.2 1.7 8.4 1.3 12.4-1.3l1.3-.9 1.1.6c2.5 1.5 6.3 2.1 9 1.6 2.2-.5 3.9-1.3 6-3.2 2.6-2.3 4.3-4.6 5.7-7.9l.7-1.6.8-.1a18.8 18.8 0 0 0 14.6-14.4c.3-1.8.3-3.4-.3-6.4-.4-2.6-1-8-1.1-10l-.2-4.7-.2-3.5 1-1.3c2.2-2.5 3.3-5.2 3.6-8.5.4-4.4-1-8.5-4-12L343 335l-.4-2.5c-.5-4-1.6-7.3-3-8.8-1.3-1.6-4-3-8-4l-2.6-.9-1.2-1.4c-3-3.5-6.9-5.5-11.2-5.7-3.3-.1-6.2.6-9 2.5l-1.4 1-2.8-.6c-4.4-.8-9.8-2-13.3-3a20 20 0 0 0-7.6-1.5c-2.2 0-4.4.6-6.5 1.7-1.4.6-2 1-4.1 3-2.3 2-2.6 2.4-3.5 3.9-.6.9-1.3 2.3-1.6 3.2l-.6 1.6-1.4.4c-4.5 1.3-8.7 4-10.9 7a15 15 0 0 0-1.5 2.7c-1.1 2.8-1 7.3.3 10.2.3.8.3.8-.5 1.7-2 2.1-3.3 5.2-3.6 8.1-.4 4 1.7 9.3 4.8 12.3.9.9 1 1 .7 1.3l-.6 2.3c-.6 4 .3 7.8 2.7 11.5a19.8 19.8 0 0 0 9.9 7.6l.3 1.3a20 20 0 0 0 6.3 10Zm-2-7.6c-.3-.6-.8-1.8-1-2.7l-.4-1.6 30.2-26.7 30.1-26.5c-.3.6-43.7 64.9-44 65.1-.8.7-5 .5-7.3-.4-2.2-.9-3.7-2-5.5-4.3-.9-1-1.8-2.4-2.1-3ZM258.2 378c-1.5-2.7-2-6.7-1.2-9.6l.3-1.1 34.8-17.5 35-17.6c.1 0-13.3 12-29.9 26.5l-30 26.6-1-.3c-3-1-6.2-3.9-8-7Zm30.5 23.6c0-.2 42.6-63.5 42.7-63.5a3410.6 3410.6 0 0 1-26 67c-.7.6-3.2 1.8-4.6 2.2-2.8.7-6.6-.3-9.2-2.4-1-.9-3-3-3-3.3ZM253 360.3c-2-4-1.8-8.2.8-11.8l1.4-1.7a3773.2 3773.2 0 0 1 69-16.9l-68 34.3c-.4 0-2.6-2.7-3.2-3.9Zm67.4 15.7c6-15.9 11.8-30.8 12.7-33 .9-2.4 1.6-4 1.6-3.7l-7.5 55.2c-.5 3.2-3 7.4-5.9 9.9a9 9 0 0 1-8.8 2.1c-1.4-.4-3.2-1.2-3.2-1.5l11.1-29Zm-65.3-35.7c-.3-1.5-.1-3.8.5-5.2 1.5-3.7 5.6-6.6 11.2-8l2.8-.7h54c.3 0-1.6.6-4.2 1.2l-33.2 8-29.4 7.1-1 .2-.3-.8a14 14 0 0 1-.4-1.8Zm79.7 22.4c4.6-33.5 4.3-31.4 4.4-31 .4 2.1.7 8.8.9 19.5a166 166 0 0 0 1.8 27c.5 3.5.2 5.5-1.5 8.5-.8 1.3-1 1.7-3.2 3.6a12 12 0 0 1-5.7 3.4c-.9.3-.9.3-.8-.3l4.1-30.7ZM271 320.9c2-3.4 6.4-6.6 10-7.2 1.9-.4 3.6-.1 7 .8 6.4 1.9 12.9 3.2 27.1 5.4l10.7 1.8a26 26 0 0 1 5.3 1.3 2814 2814 0 0 1-61-.4l1-1.7Zm40.8-5.2a12.2 12.2 0 0 1 11.2 1.6l.7.5-1.1-.1a575 575 0 0 1-11.4-1.8l.6-.2Zm31.5 25.3c0-.7.8.7 1.3 2.8a12.4 12.4 0 0 1-1 9l-.3-11.8Z" fill="url(#paint102_linear)"/>
      <path class="segment-3" d="M390.5 262.8a17.7 17.7 0 0 0-5.2-3c-1.9-.7-4.8-1-6.6-.8l-1.5.2-1.5-1.7a15.5 15.5 0 0 0-6.5-4.7 13 13 0 0 0-12.5 1.4l-1.4.9-1.1-.7c-2.5-1.4-6.3-2-9-1.4-2.4.4-4 1.3-6.3 3.2a22.4 22.4 0 0 0-5.8 8l-.8 1.6-.9.2a19.8 19.8 0 0 0-15 14.6c-.4 1.8-.4 3.4.1 6.5.4 2.6 1 8 1 10.1v4.8l.2 3.5-1.1 1.3a15.3 15.3 0 0 0-3.8 8.7c-.4 4.4.9 8.5 3.9 12l1.2 1.5.3 2.4c.5 4 1.6 7.5 2.9 9 1.3 1.6 4 3 8 4l2.6.8 1.3 1.5a15.3 15.3 0 0 0 20.4 3l1.4-.9 2.8.5c4.6.8 10 2 13.5 3a20 20 0 0 0 7.7 1.4 17 17 0 0 0 6.6-1.7c1.5-.7 2-1.1 4.3-3 2.3-2.1 2.7-2.5 3.6-4l1.7-3.3.6-1.6 1.4-.5c4.6-1.3 9-4 11.2-7l1.6-2.9c1.2-2.8 1.2-7.3 0-10.3-.4-.7-.4-.8.5-1.7 2-2.2 3.4-5.2 3.7-8.2.5-4-1.4-9.4-4.6-12.4-.8-.9-.9-1-.7-1.4a15.3 15.3 0 0 0-2-14 19.4 19.4 0 0 0-9.7-7.5l-.3-1.3c-.4-3-3.1-7.4-6.2-10Zm1.9 7.7c.3.5.7 1.7 1 2.6l.3 1.6-31.2 27.2c-17.1 15-31 27.2-31 27l45.8-66c.9-.8 5.2-.6 7.5.3 2.3.9 3.7 2 5.5 4.2.9 1.1 1.8 2.5 2.1 3Zm12.4 14.3c1.5 2.7 1.9 6.8 1 9.7l-.3 1.1-35.7 18-35.9 18s13.8-12.2 30.9-27l31-27.2 1 .4c3 1 6.3 3.9 8 7ZM374.3 261c0 .2-44.5 64.5-44.6 64.5a3579.1 3579.1 0 0 1 27.6-67.8c.8-.7 3.4-2 4.8-2.3 2.9-.7 6.7.2 9.3 2.3 1 .9 3 3 3 3.3Zm35.3 41.6c2 4 1.7 8.4-1 12l-1.5 1.7a3945.3 3945.3 0 0 1-70.4 17.6c0-.2 69.5-35.1 69.8-35.2.4 0 2.5 2.7 3.1 4Zm-68-15.3L328 320.9c-1 2.3-1.7 4-1.7 3.6l8.7-55.9a20 20 0 0 1 6.1-10 9.2 9.2 0 0 1 9-2.2c1.5.4 3.3 1.3 3.3 1.6l-11.9 29.4ZM407 323c.3 1.5 0 3.9-.6 5.3-1.6 3.7-5.8 6.6-11.6 8.1l-2.8.8-27 .2h-27.8l4.3-1.1 33.9-8.4c16-4 29.4-7.2 30-7.3l1-.2.2.8.4 1.8Zm-80.5-22c-5.3 33.8-5 31.7-5 31.2-.4-2-.6-8.9-.6-19.6 0-14.5-.1-18.8-1.2-27.3-.5-3.6-.1-5.6 1.6-8.6a12 12 0 0 1 3.4-3.7c2.5-2.2 3.3-2.7 5.7-3.5 1-.3 1-.3 1 .3l-4.9 31.1Zm64 41.7a17.2 17.2 0 0 1-10.2 7.4c-2 .4-3.7.1-7-.8a208 208 0 0 0-27.5-5.3l-10.9-1.7a26 26 0 0 1-5.3-1.3 2864.7 2864.7 0 0 1 61.9 0l-1 1.7Zm-41.4 5.6a12.4 12.4 0 0 1-11.4-1.5l-.7-.6 1.1.2c8 1 11.5 1.6 11.5 1.6l-.5.3Zm-31.5-25.5c0 .8-.8-.6-1.3-2.7a12.5 12.5 0 0 1 1.1-9c.1-.1.2 10.6.2 11.7Z" fill="url(#paint103_linear)"/>
      <path class="segment-2" d="M422 324.5a18 18 0 0 0-1.6-5.8c-.8-1.8-2.6-4-4-5.2l-1.2-1 .2-2.2c.2-3-.2-5.2-1.3-7.9-1.7-4.1-5-6.8-9.6-7.8l-1.6-.4-.4-1.2c-.7-2.7-3-5.9-5.2-7.4a11.8 11.8 0 0 0-6.5-2c-3.4-.2-6.3.3-9.6 1.6l-1.6.6-.7-.5a18.8 18.8 0 0 0-20.4-.1c-1.6 1-2.6 2.2-4.4 4.7l-6.3 7.9-3.2 3.4-2.3 2.6-1.7.2c-3.3.3-6 1.4-8.5 3.5a15.8 15.8 0 0 0-5.6 11.3l-.2 2-1.5 1.9c-2.4 3.2-4 6.3-4.1 8.4-.2 2 .8 4.9 2.7 8.4l1.4 2.5-.2 1.9c-.3 4.6 1 8.7 4 11.9 2.2 2.5 4.7 4 8 4.6l1.7.3 1.6 2.3c2.6 3.8 5.5 8.4 7.3 11.6a20 20 0 0 0 4.3 6.5c1.6 1.4 3.5 2.6 5.8 3.4 1.5.5 2.1.6 5 .7 3 .2 3.6.2 5.2-.2 1-.3 2.6-.8 3.4-1.2l1.6-.7 1.3.7c4 2.2 9 3.3 12.6 2.8a15 15 0 0 0 3-1c2.8-1.1 5.8-4.3 7-7.3.3-.8.3-.8 1.6-.8 2.9-.2 6-1.4 8.2-3.3 3.1-2.5 5.4-7.7 5.3-12 0-1.3 0-1.4.5-1.5.2 0 1.1-.6 2-1.2 3.3-2.3 5.3-5.7 6.2-10a19.8 19.8 0 0 0-1.6-12.3l.7-1.2a20 20 0 0 0 2.7-11.5Zm-4 6.7c-.2.7-.7 1.8-1.2 2.6l-.8 1.4-40.2-2.5-40-2.5 77-15c1.1.1 4 3.2 5 5.5 1 2.2 1.1 4 .8 7-.1 1.3-.4 3-.6 3.5Zm-1.3 19c-.8 3-3.3 6.1-5.9 7.6l-1 .5-37-12.2-37.1-12.3 39.9 2.4 40 2.4.5 1c1.3 2.8 1.6 7.1.6 10.5Zm-4.8-38.3c-.1.1-75 14.8-75.1 14.7a3444.3 3444.3 0 0 1 65.6-29c1 0 3.7 1 5 1.7 2.4 1.5 4.4 4.9 4.8 8.2.1 1.4 0 4.2-.3 4.4Zm-4 54.4a11 11 0 0 1-9 7.8c-.9.2-1.8.3-2.2.2a3814.7 3814.7 0 0 1-60.7-36.8l72.3 23.9c.3.2 0 3.7-.5 5Zm-36.7-58.7L338.9 322c-2.3 1-4 1.6-3.7 1.4l44.3-33.7c2.6-1.9 7.4-3.1 11.1-2.9a9 9 0 0 1 7.8 4.8c.7 1.3 1.4 3.2 1.2 3.3l-28.4 12.7Zm21 71.4c-.9 1.3-2.7 2.8-4 3.4-3.7 1.5-8.7.6-13.7-2.4l-2.4-1.4-18.9-18.9-19.3-19.3c-.2-.2 1.6.7 3.9 2.1l29.1 17.8a5129 5129 0 0 1 25.8 15.8l.8.6-.4.7a14 14 0 0 1-1 1.6Zm-40.6-72.2c-26.9 20.5-25.2 19.2-25 18.8 1.2-1.8 5.8-6.7 13.2-14.4a166 166 0 0 0 17.7-20.3c2.2-3 3.9-4.1 7.1-5 1.6-.4 2-.4 4.9-.3 3.2.2 4.1.4 6.3 1.6.9.4.9.5.5.8l-24.7 18.8Zm15.7 74.7c-4 1-9.2.2-12.2-2-1.6-1-2.7-2.4-4.3-5.4-3.2-5.9-7-11.4-15.4-23a446 446 0 0 1-6.3-9 26 26 0 0 1-2.8-4.6A2807 2807 0 0 1 369 381l-1.8.6Zm-32.5-25a12.2 12.2 0 0 1-7-9.2v-.8l.7.8 6.8 9.3-.5-.2Zm-4.4-40.3c-.6.5 0-1 1-2.9a12.4 12.4 0 0 1 7-5.6l-8 8.5Z" fill="url(#paint104_linear)"/>
      <path class="segment-1" d="M241.7 338c0 1.9.7 4.3 1.5 6 .9 1.7 2.7 4 4.2 5.2l1.2.9-.2 2.3c-.3 2.9.1 5.1 1.3 7.8a13 13 0 0 0 9.8 8l1.6.3.4 1.2c.7 2.8 3 6 5.3 7.5 2 1.3 3.8 1.8 6.7 2 3.5.3 6.4-.2 9.8-1.4l1.7-.7.7.6a19.8 19.8 0 0 0 21 .2c1.5-1 2.7-2.1 4.5-4.6 1.6-2.1 5-6.4 6.5-7.9l3.2-3.4 2.5-2.6 1.6-.1c3.4-.3 6.2-1.4 8.8-3.5 3.5-2.8 5.5-6.6 5.9-11.3l.1-1.9 1.5-1.9c2.6-3.2 4.2-6.3 4.4-8.3.1-2-.8-5-2.8-8.6l-1.4-2.4.2-1.9a15.3 15.3 0 0 0-12.3-16.6l-1.7-.4-1.6-2.3c-2.7-3.7-5.7-8.4-7.4-11.7-2.4-4.2-3-5-4.5-6.4a17 17 0 0 0-5.9-3.5c-1.5-.5-2.2-.6-5.1-.8-3.1-.2-3.7-.2-5.4.2l-3.5 1.2-1.6.7-1.3-.7a22.6 22.6 0 0 0-13-2.9c-.7.1-2.1.5-3 .9-3 1.1-6 4.3-7.3 7.3-.3.7-.3.8-1.6.8-3 .1-6.1 1.3-8.4 3.2a16.3 16.3 0 0 0-5.6 12c0 1.2 0 1.3-.4 1.4-.3 0-1.2.6-2 1.2a15.3 15.3 0 0 0-6.5 10 19.4 19.4 0 0 0 1.6 12.3l-.8 1.2c-1.8 2.5-3 7.4-2.7 11.5Zm4-6.6 1.3-2.6.8-1.4 41.3 2.8c22.8 1.5 41.2 2.8 41.1 2.9L251 347.4c-1.1 0-4-3.2-5-5.5a12 12 0 0 1-.9-7l.7-3.5Zm1.4-19c1-2.9 3.5-6 6.2-7.5l1-.6 37.9 12.6 38.1 12.6-41-2.7-41-2.8-.5-1a16 16 0 0 1-.7-10.5Zm4.8 38.4c.2-.2 77.1-14.2 77.2-14.1a3517.5 3517.5 0 0 1-67.5 28.4c-1 0-3.7-1-5-1.7a11.4 11.4 0 0 1-5-8.2c0-1.4 0-4.2.3-4.4Zm4.5-54.4c1.4-4.3 4.7-7 9.2-7.8l2.2-.2a3912 3912 0 0 1 62.2 37.3c-.1.2-74-24.2-74.2-24.4-.2-.2.2-3.7.6-5Zm37.3 59 33.2-14.1c2.4-1 4-1.7 3.8-1.4l-45.6 33.4a20 20 0 0 1-11.4 2.7 9.2 9.2 0 0 1-8-4.8c-.7-1.3-1.4-3.2-1.2-3.4l29.2-12.4Zm-21.2-71.6c.8-1.3 2.7-2.7 4.2-3.3 3.7-1.5 8.8-.6 14 2.4l2.4 1.5 19.3 19a2814 2814 0 0 1 19.7 19.5c.2.2-1.6-.7-4-2.2l-29.8-18-26.3-16-.9-.6.4-.7 1-1.6Zm41.3 72.5c27.7-20.2 26-19 25.7-18.5-1.2 1.7-5.9 6.7-13.5 14.3a166.5 166.5 0 0 0-18.4 20.1c-2.2 3-3.9 4-7.3 5-1.5.3-2 .4-5 .2-3.3-.2-4.2-.5-6.5-1.6-.8-.5-.8-.5-.4-.9l25.4-18.6Zm-15.7-74.8c4-1 9.4 0 12.5 2 1.6 1.1 2.7 2.5 4.3 5.6 3.3 5.9 7 11.4 15.7 23.2l6.5 8.9c1.6 2.3 3.1 4.8 2.8 4.6a2894.2 2894.2 0 0 1-43.7-43.7l1.9-.6Zm33.2 25.4a12.4 12.4 0 0 1 7 9.1v.9l-.6-1a595 595 0 0 1-7-9.2l.6.2Zm4.3 40.3c.6-.6 0 1-1 2.8a12.5 12.5 0 0 1-7.2 5.6l8.2-8.4Z" fill="url(#paint105_linear)"/>
    </g>
    <g class="octopus-ring" stroke="#0B13CE">
      <path class="vector" d="M9.3 393.1c2.4 5.4 8.2 7.9 14.3 6.3 2.7-.7 6.8-4.6 7.7-7.2 1.4-4.5.5-9-2.5-12.2l-1.9-2 .2-4.8c.1-4.4.3-5 1.2-5.9 1-.8 2.4-.8 29.3-.2l28.2.6 2.5-1.1c3-1.3 6.2-4.3 7.7-6.9l1-1.8-.2 9.7c-.3 7.4-.5 10-1 10.3-.4.3-5.7.4-14.7.2l-14-.3-2.7 1.4a14.9 14.9 0 0 0-7.1 7.6c-1 2.4-1 3.8-1.5 17.9l-.5 15.2-1.7 1.4a12 12 0 1 0 18.7 14.2c2-4.3 1.4-8.8-2.1-13l-2.3-2.7.5-13.7c.3-11.6.5-13.9 1.2-14.8.8-1 .9-1 14-.6 12.3.4 13.6.3 16-.5 3.4-1.1 6.6-4 8.4-7.2 1.2-2.4 1.3-2.8 2-16.5l.6-14h2.8c4.7.3 4.5-1 4 21.2-.3 18.8-.2 19.3.8 21.8 1.1 2.8 4.5 6.6 7.3 8.1 2.5 1.4 6.2 2.2 10.8 2.3 3.4.1 3.7.2 4.7 1.6.7.8 2.4 2 3.8 2.9 2.3 1.1 3 1.3 5.8 1.2 10.8-.5 15.6-13.2 7.8-20.5-2.4-2.3-4.4-3-7.8-3.2-3.7 0-5.7.6-8.5 3.1-2.2 2-2.3 2-6.2 1.8-6.4-.2-6 1-5.4-17.9.3-8.8.4-17.7.2-19.7-.4-5.7-2.7-9.6-7.3-12.8l-2.2-1.5 24 .8c22.3.7 24.2.8 26 1.7 6.7 3.3 7 12.3.5 15.8-1.8 1-2.7 1.2-6.1 1-4 0-4-.1-5.3-1.6a12 12 0 0 0-3.6-2.8 12 12 0 0 0-17.2 12.7c1.8 9.4 13.7 13 20.4 6.2 1.4-1.4 1.8-1.5 4.8-1.4 10 .3 18.2-4.2 22.3-12.2 1.4-2.8 1.7-4 2-8 .2-3.5.1-5.3-.4-7.3a21.5 21.5 0 0 0-9-12.5c-5.4-3.4-4.8-3.3-37.5-4.3l-29.5-1v-3.3l.2-3.4 28.4.8c16.8.6 29.3.8 30.9.5 6.8-1 13.3-5.7 16.5-12 1.6-3 1.7-3.5 1.8-9 .2-5.2 0-6-1-8.5a22 22 0 0 0-20.5-13.8h-4.4l-2-2.3a11.4 11.4 0 0 0-11.9-3.4c-3.1.9-5.4 2.6-7.1 5.5a9.5 9.5 0 0 0-1.6 5.7 11.9 11.9 0 0 0 20.3 8.7c1.7-1.6 1.9-1.7 5.2-1.6 4 .1 6.7 1.3 8.5 3.6a8.7 8.7 0 0 1-2.6 13.3L171 310l-24.2-.8-24.2-.7 2.5-1.6a17 17 0 0 0 4.2-3.8c3.1-4.3 3.1-4.5 4-24.4.4-10 .9-18.6 1-19.2.4-1.4 2.3-2 6.3-1.9 3.4.1 3.6.2 5 1.9 2.6 2.8 5 4 8.7 4 7 .3 12-4.5 12.3-11.4.2-6.8-4.7-12-11.5-12.2-3.7-.1-5.6.7-8.6 3.3l-2 1.8H139c-4.4 0-6.1.2-8 1a17.7 17.7 0 0 0-8.2 7.6l-1.4 2.7-.8 19.2-.7 19.3-1.3 1c-.9.6-2 .8-3.9.8l-2.5-.1.2-14c.3-13.3.3-14-.7-16.3a16.5 16.5 0 0 0-7-7.7l-2.3-1.4-14-.5c-12.6-.6-14.2-.7-14.8-1.5a67 67 0 0 1 0-15L74 226l1.5-1c2.1-1.4 4-4.8 4.4-7.8 1-7-4.2-13.2-11.3-13.4-3.8-.1-6.8 1-9.2 3.6a11.7 11.7 0 0 0-.1 16.1l2 2.3-.4 16-.3 16 1.2 2.5c.7 1.4 2.2 3.5 3.4 4.6 3.8 3.5 4.9 3.8 20 4.4 7.4.3 13.7.7 14 .8.4.2.5 2.7.3 10.3l-.3 10.1-1-2c-1.4-2.9-4.5-6-7.5-7.6l-2.6-1.4-28.3-1.1c-27.3-1.1-28.4-1.2-29-2-.5-.8-.6-2.5-.5-5.9.1-4.5.2-4.8 1.4-5.7a12 12 0 0 0 4.2-8.2c.7-5.6-2.6-10.7-7.9-12.4-3-1-3.9-1-7-.2a11.4 11.4 0 0 0-8.7 11c-.1 3.8 1 6.7 3.4 8.9l1.6 1.5-.1 5c-.3 9.4 2.3 14.6 9 18.2l3.2 1.7 28 1.1c27.2 1 28.2 1.2 28.8 2 .6.8.6 3 .4 9.4l-.2 8.4-5.1-.1-5.1-.2v-1.7c.1-3.4-2-7.1-5.3-9-1.2-.8-3.7-1-19-1.6-12-.5-19-.5-21.2-.3a24.3 24.3 0 0 0-19.4 16 21 21 0 0 0-1 8.3c0 4.5.2 5.3 1.6 8.6 3 6.7 8.5 11.7 15 13.7 2.8.8 5.9 1 21.5 1.5 19.3.6 20.1.6 23.1-1.5 1.9-1.3 3.8-5 3.9-7.5v-1.8l5.1.2 5.1.1-.3 8.7c-.2 8.2-.3 8.7-1.3 9.5-1 .9-2.4.9-29.3.3l-28.2-.6-2.5 1a18.1 18.1 0 0 0-8.1 8c-1.3 2.4-1.5 3.4-1.8 8.9-.4 5.8-.4 6.2-1.6 6.8a12 12 0 0 0-2.7 3.3 12 12 0 0 0-.5 11.3Z" fill="url(#paint106_linear)"/>
      <path class="vector_2" d="M268.6 9.5c-5.4 2.4-7.9 8.2-6.3 14.3.7 2.7 4.6 6.8 7.2 7.7a12 12 0 0 0 12.2-2.5l2-1.8 4.8.1c4.4.1 5 .3 5.9 1.2.8 1 .8 2.4.2 29.3L294 86l1.1 2.5c1.3 3 4.3 6.2 6.9 7.7l1.8 1-9.7-.2c-7.4-.3-10-.5-10.3-1a91 91 0 0 1-.2-14.7l.3-14-1.4-2.7a14.9 14.9 0 0 0-7.6-7.1c-2.4-1-3.8-1-17.9-1.5l-15.2-.5-1.4-1.7a12 12 0 1 0-14.2 18.7c4.3 2 8.8 1.4 13-2.1L242 68l13.7.5c11.6.3 13.9.5 14.8 1.2 1 .8 1 .9.6 14-.4 12.3-.3 13.6.5 16 1.1 3.4 4 6.6 7.2 8.4 2.4 1.2 2.8 1.3 16.5 2l14 .6v2.8c-.3 4.7 1 4.5-21.2 4-18.8-.3-19.3-.2-21.8.8a19.6 19.6 0 0 0-8 7.4 24.3 24.3 0 0 0-2.4 10.7c-.1 3.4-.2 3.7-1.6 4.7-.8.7-2 2.4-2.9 3.8a8.7 8.7 0 0 0-1.2 5.8c.5 10.8 13.2 15.6 20.5 7.9 2.3-2.5 3-4.5 3.2-8 0-3.6-.6-5.6-3.1-8.4-2-2.2-2-2.3-1.8-6.2.2-6.4-1-6 17.9-5.4 8.8.3 17.7.4 19.7.2 5.7-.4 9.6-2.7 12.8-7.3l1.5-2.2-.8 24c-.7 22.3-.8 24.2-1.7 26a8.8 8.8 0 0 1-15.8.5c-1-1.8-1.2-2.7-1-6.1 0-3.9.1-4 1.6-5.3a12 12 0 0 0 2.8-3.6 12 12 0 0 0-12.7-17.2A12.2 12.2 0 0 0 287 160c1.4 1.4 1.5 1.8 1.4 4.8-.3 10 4.2 18.2 12.2 22.3 2.8 1.4 4 1.7 8 2 3.5.2 5.3.2 7.3-.4 5.4-1.6 9.6-4.6 12.5-9 3.4-5.3 3.3-4.8 4.3-37.5l1-29.5h3.4l3.3.2-.8 28.4c-.6 16.8-.8 29.3-.5 30.9 1 6.8 5.7 13.3 12 16.5 3 1.6 3.5 1.7 9 1.8 5.2.2 6 0 8.5-1a22 22 0 0 0 13.8-20.5l.1-4.3 2.2-2.1c3.4-3.2 4.6-7.4 3.4-11.9-.9-3.1-2.6-5.4-5.5-7.1a9.5 9.5 0 0 0-5.7-1.6c-10.8-.3-16.3 12.6-8.7 20.3 1.7 1.7 1.7 1.9 1.6 5.2-.1 4-1.3 6.7-3.6 8.5a8.7 8.7 0 0 1-13.3-2.6l-1.2-2.2.8-24.2.7-24.2 1.7 2.5c.8 1.5 2.5 3.3 3.7 4.2 4.3 3.1 4.5 3.2 24.4 4 10 .4 18.6.9 19.2 1 1.4.4 2 2.3 1.9 6.3-.1 3.4-.2 3.6-1.9 5a11 11 0 0 0-4 8.7c-.3 7 4.5 12 11.4 12.3 6.8.2 12-4.7 12.2-11.5.1-3.7-.7-5.6-3.3-8.6l-1.8-2v-5.6c0-4.4-.2-6.1-1-8a17.7 17.7 0 0 0-7.6-8.2l-2.7-1.4-19.2-.8-19.2-.7-1-1.3c-.7-.9-1-2-.9-3.9l.1-2.5 14 .2c13.3.3 14 .3 16.3-.7 3.1-1.3 6-3.9 7.7-7l1.4-2.3.5-14c.6-12.6.7-14.2 1.5-14.8a67 67 0 0 1 15 0l14.1.4 1 1.5c1.4 2.1 4.8 4 7.8 4.4 7 1 13.2-4.2 13.4-11.3.1-3.8-1-6.8-3.6-9.2a11.7 11.7 0 0 0-16.1-.1l-2.3 2-16-.4-16-.3-2.5 1.2c-1.4.7-3.5 2.2-4.6 3.4-3.5 3.8-3.8 4.9-4.4 20-.3 7.4-.7 13.7-.8 14-.2.5-2.7.5-10.3.3l-10.1-.3 2-1c2.9-1.4 6-4.5 7.6-7.5l1.4-2.6 1.1-28.3c1.1-27.3 1.2-28.4 2-29 .8-.5 2.5-.6 5.9-.5 4.5.1 4.8.2 5.7 1.4a12 12 0 0 0 8.2 4.2c5.6.7 10.7-2.6 12.4-7.9 1-3 1-3.9.2-7a11.4 11.4 0 0 0-11-8.7c-3.8-.1-6.7 1-8.9 3.4l-1.5 1.6-5-.1c-9.4-.3-14.6 2.3-18.2 9l-1.7 3.2-1.1 28c-1 27.2-1.2 28.2-2 28.8-.8.6-3 .6-9.4.4l-8.4-.2.1-5.1.2-5.1h1.7c3.4.1 7.1-2 9-5.3.8-1.2 1-3.7 1.6-19 .5-12 .5-19 .3-21.2a24.3 24.3 0 0 0-16-19.4 21 21 0 0 0-8.3-1 16 16 0 0 0-8.6 1.6c-6.7 3-11.7 8.5-13.7 15-.8 2.8-1 5.9-1.5 21.5-.6 19.3-.6 20.1 1.5 23.1 1.3 1.9 5 3.8 7.5 3.9h1.8l-.2 5.1-.1 5.1-8.7-.3c-8.2-.2-8.7-.3-9.5-1.3-.9-1-.9-2.4-.3-29.3l.6-28.2-1-2.5a18.1 18.1 0 0 0-8-8.1c-2.4-1.3-3.4-1.5-8.9-1.8-5.8-.4-6.2-.4-6.8-1.5a12 12 0 0 0-3.3-2.8 12 12 0 0 0-11.3-.5Z" fill="url(#paint107_linear)"/>
      <path class="vector_3" d="M652.5 269.5c-2.5-5.3-8.2-7.8-14.3-6.2-2.7.7-6.8 4.6-7.7 7.2a12 12 0 0 0 2.5 12.2c1.2 1.2 1.8 2.9 1.8 4.6l-.1 2.2c-.2 4.4-.3 5-1.2 5.8-1 .9-2.4.9-29.3.3l-25.5-.6c-1.8 0-3.6.4-5.2 1.1-3 1.3-6.2 4.3-7.7 6.8-.3.5-1 .3-1-.2l.2-7.6c.2-7.4.5-10 1-10.3a91 91 0 0 1 14.6-.2l11.1.2c2 0 4-.4 5.7-1.3 3.3-1.7 5.7-4.3 7-7.6 1-2.4 1.2-3.8 1.6-17.9l.4-13c0-1.5.7-2.7 1.8-3.6a12 12 0 1 0-18.7-14.2c-2.1 4.3-1.4 8.8 2.1 13 1.4 1.8 2.2 4 2.1 6.3l-.3 10.1c-.3 11.6-.5 13.9-1.2 14.8-.8 1-.9 1-14 .6-12.3-.4-13.6-.3-16 .5-3.4 1.1-6.6 4-8.4 7.2-1.2 2.4-1.3 2.8-2 16.5l-.5 11.2c0 1.6-1.4 2.8-2.9 2.7-4.7-.2-4.5 1-4.1-21.1.3-18.8.3-19.3-.7-21.8a19.6 19.6 0 0 0-7.4-8.1 24.3 24.3 0 0 0-10.7-2.3c-3.4-.1-3.7-.2-4.7-1.6-.7-.8-2.4-2-3.8-2.9a8.7 8.7 0 0 0-5.8-1.2c-10.8.5-15.7 13.2-7.9 20.5 2.5 2.3 4.5 3 8 3.2 3.5 0 5.6-.6 8.4-3.1 2.2-2 2.3-2 6.1-1.8 6.5.2 6.1-1 5.5 17.9-.4 8.8-.4 17.7-.3 19.7.5 5.7 2.8 9.6 7.4 12.8.6.4.3 1.4-.4 1.4l-21.5-.7c-22.2-.7-24.1-.8-25.9-1.7a8.8 8.8 0 0 1-.5-15.8c1.8-1 2.7-1.2 6.1-1 3.9 0 4 .1 5.3 1.6a12 12 0 0 0 3.6 2.8 12 12 0 0 0 17.2-12.7A12.2 12.2 0 0 0 502 288c-1.4 1.4-1.8 1.5-4.8 1.4-10-.3-18.2 4.2-22.4 12.2-1.3 2.8-1.6 4-1.9 8-.3 3.5-.2 5.3.4 7.3 1.6 5.4 4.6 9.6 9 12.5 5.3 3.4 4.8 3.3 37.5 4.3l26.1.8c1.9.1 3.4 1.7 3.3 3.5 0 2-1.6 3.4-3.5 3.3l-25-.8c-16.8-.5-29.3-.7-31-.4-6.7 1-13.2 5.7-16.4 12-1.6 3-1.7 3.5-1.9 9-.1 5.2 0 6 1 8.5a22 22 0 0 0 20.6 13.8h1.3c2 0 3.8.9 5.1 2.3 3.2 3.4 7.3 4.6 11.9 3.4 3-.9 5.4-2.6 7.1-5.5 1.2-2 1.5-3.1 1.6-5.7.3-10.8-12.7-16.3-20.3-8.7-1.7 1.6-1.9 1.7-5.2 1.6-4-.1-6.7-1.3-8.5-3.6a8.7 8.7 0 0 1 2.6-13.3 9 9 0 0 1 4.6-1.1l21.8.7 21.2.6a1 1 0 0 1 .4 1.7c-1.4 1-3.2 2.6-4.1 3.8-3.2 4.3-3.2 4.5-4 24.4-.4 10-.9 18.6-1 19.1-.4 1.5-2.4 2.1-6.3 2-3.4-.1-3.6-.2-5-1.9a11 11 0 0 0-8.8-4c-6.9-.3-12 4.5-12.2 11.4-.2 6.8 4.7 12 11.5 12.2 3.7 0 5.6-.7 8.6-3.3a7 7 0 0 1 4.7-1.8h3c4.3 0 6-.2 7.8-1 3.3-1.4 6.6-4.4 8.3-7.6a13 13 0 0 0 1.5-5.7l.7-16.2.6-17.6c0-1 .6-2 1.4-2.6.9-.7 2-1 3.9-.9 1.4 0 2.5 1.2 2.5 2.7l-.3 11.4c-.2 13.3-.2 14 .8 16.3 1.3 3.1 3.9 6 7 7.7 1.5.9 3.2 1.4 5 1.5l11.4.4c12.5.6 14 .7 14.7 1.5.4.6.4 4.1 0 15l-.4 12.3c0 1.1-.6 2.2-1.5 2.8-2.1 1.4-4 4.7-4.4 7.7-1 7.1 4.2 13.3 11.3 13.5 3.8.1 6.8-1 9.2-3.6 4.3-4.6 4.4-11.3.1-16.2a7.8 7.8 0 0 1-2-5.3l.4-12.9.3-13.2c0-1.8-.4-3.7-1.2-5.3-.7-1.4-2.2-3.5-3.4-4.6-3.8-3.5-5-3.8-20-4.4l-3.6-.2c-7-.3-11-4-10.7-11l.2-7.8c0-.6.8-.8 1-.3 1.5 3 4.6 6.1 7.6 7.7a13 13 0 0 0 5.6 1.5l25.3 1c27.3 1.1 28.3 1.2 29 2 .5.8.6 2.5.5 5.9-.1 4.5-.2 4.8-1.4 5.7a12 12 0 0 0-4.2 8.2 11.5 11.5 0 0 0 7.9 12.4c3 1 3.8 1 7 .2 5.2-1.3 8.5-5.6 8.7-11 .1-3.8-1-6.7-3.4-8.9-1-1-1.6-2.3-1.6-3.7l.1-2.9c.3-9.3-2.3-14.5-9-18.1a16 16 0 0 0-6.9-1.8l-24.4-1c-27-1.1-28.1-1.2-28.8-2-.5-.8-.6-3-.4-9.4l.2-3.3c0-2.8 2.4-5 5.2-5l3.4.1c1 0 1.7.8 1.7 1.8-.2 3.4 2 7.1 5.3 9 1.2.8 3.7 1 19 1.6 12 .5 18.9.5 21.1.3a24.3 24.3 0 0 0 19.5-16 21 21 0 0 0 1-8.3 16 16 0 0 0-1.6-8.6c-3-6.7-8.5-11.7-15-13.7-2.8-.8-5.9-1-21.5-1.5-19.3-.6-20.2-.6-23.1 1.5-1.9 1.3-3.8 5-3.9 7.5 0 1-.8 1.7-1.8 1.7h-3.3c-2.8-.2-5-2.5-5-5.3l.1-3.6c.3-8.2.4-8.7 1.4-9.5 1-.9 2.4-.9 29.3-.3l25.5.6c1.8 0 3.5-.4 5.2-1.1 3.3-1.5 6.5-4.6 8.1-7.9 1.3-2.4 1.4-3.4 1.8-8.9.3-5.8.4-6.2 1.5-6.9a12 12 0 0 0 2.8-3.2 12 12 0 0 0 .5-11.4Z" fill="url(#paint108_linear)"/>
      <path class="vector_4" d="M146.7 602.7c5.5 2 11.3-.3 14.5-5.7 1.4-2.4 1.6-8 .3-10.5a12 12 0 0 0-10.3-6.9h-2.7l-3.3-3.6c-3-3.2-3.4-3.8-3.3-5 0-1.3 1-2.3 20.5-20.9l20.4-19.5 1-2.5c1-3 1.3-7.5.6-10.3l-.6-2 6.7 7c5 5.4 6.7 7.3 6.6 8 0 .4-3.8 4.2-10.3 10.5l-10.1 9.7-1 2.9c-1 3.5-1 7 .5 10.4 1 2.4 1.8 3.4 11.5 13.7l10.5 11.1-.3 2.2a12 12 0 1 0 23.2-3.2c-1.5-4.5-5.2-7.2-10.6-7.7l-3.5-.4-9.4-10c-8-8.4-9.4-10-9.6-11.2-.2-1.3 0-1.4 9.5-10.4 9-8.4 9.9-9.4 11-11.7 1.5-3.1 1.8-7.4.8-11-.8-2.5-1-2.8-10.3-13l-9.4-10.4 2-1.9c3.5-3.2 2.4-4 17.8 12 13.1 13.6 13.5 14 15.9 15 2.9 1.1 7.9 1.4 11 .5 2.7-.8 5.9-2.9 9.2-6 2.5-2.3 2.8-2.4 4.5-2.2 1 .1 3.1-.2 4.7-.7 2.4-.7 3-1.1 5-3.2 7.2-8 1.6-20.4-9-20-3.3.1-5.3 1-7.8 3.3a10.6 10.6 0 0 0-3.8 8.2c-.2 3-.3 3-3.1 5.6-4.7 4.4-3.5 5-16.5-8.8-6-6.5-12.2-12.8-13.8-14.1a15.7 15.7 0 0 0-14.2-3.8l-2.6.4 17.5-16.4c16.2-15.3 17.7-16.5 19.6-17.1a8.8 8.8 0 0 1 11.5 10.8c-.5 2-1 2.7-3.6 5-2.8 2.7-3 2.8-4.9 2.6-1-.2-3 .1-4.5.6a12 12 0 0 0-3.2 21.1c8 5.4 18.9-.5 18.8-10 0-2 .3-2.3 2.4-4.4 7.4-6.9 10-15.8 7.2-24.5-1-3-1.6-4-4.3-7a19.4 19.4 0 0 0-5.4-4.8c-5-2.8-10-3.6-15.2-2.5-6.2 1.3-5.7 1-29.6 23.4l-21.5 20.2-2.3-2.4-2.4-2.5 20.7-19.4a519.2 519.2 0 0 0 22.2-21.6c4.1-5.6 5.4-13.5 3.2-20.1-1-3.3-1.3-3.7-5-7.7-3.6-3.8-4.3-4.3-6.8-5.3a22 22 0 0 0-24.2 4.8l-3.2 3-3-.2c-4.7-.1-8.5 2-10.8 6-1.6 2.9-2 5.7-1.2 9a9.5 9.5 0 0 0 3 5.1c7.3 7.9 20.4 2.6 20.4-8.2 0-2.4.2-2.5 2.6-4.8 3-2.7 5.6-3.8 8.5-3.5 5.7.7 9.2 6 7.6 11.3l-.7 2.4-17.7 16.6-17.6 16.6.7-3c.3-1.6.5-4.1.2-5.6-.8-5.2-1-5.4-14.4-20a559.3 559.3 0 0 1-12.8-14.3c-.8-1.3.2-3.1 3-5.8 2.5-2.4 2.7-2.5 5-2.3a11 11 0 0 0 9-3.3c5-4.7 5.3-11.6.5-16.7-4.7-5-11.7-5.2-16.7-.5-2.7 2.5-3.5 4.4-3.8 8.4l-.1 2.7-4 4a19 19 0 0 0-4.9 6.2 17.7 17.7 0 0 0-.4 11.3l.9 2.9 13 14 13.1 14.2-.2 1.6c-.2 1.1-.8 2.1-2.1 3.4l-2 1.7-9.6-10c-9.2-9.7-9.7-10.1-12.1-11a16.5 16.5 0 0 0-10.3-.6l-2.7.7-10.3 9.5c-9.3 8.5-10.5 9.5-11.4 9.4a67 67 0 0 1-10.7-10.5l-9.7-10.4.4-1.7c.5-2.5-.6-6.2-2.4-8.6a11.7 11.7 0 0 0-17.5-1.5 11.7 11.7 0 0 0 7.3 20.6l3.1.1 11 11.6 11.1 11.5 2.7 1c1.4.4 4 .8 5.6.8 5.2-.2 6.2-.8 17.3-11 5.4-5 10.1-9.2 10.5-9.3.4-.3 2.2 1.5 7.5 7l6.9 7.4-2.1-.7c-3-1-7.5-1.1-10.7-.2l-2.9 1-20.8 19.1c-20 18.6-20.8 19.3-22 19-.7 0-2-1.2-4.4-3.7-3.1-3.3-3.3-3.5-3-5a12 12 0 0 0-2.8-8.8 11.5 11.5 0 0 0-14.4-3.2c-2.9 1.4-3.5 2-5.1 4.9-2.7 4.6-2 10 1.7 14 2.5 2.6 5.3 3.9 8.6 3.7H62l3.5 3.7c6.4 6.8 12 8.6 19.2 6.4l3.5-1 20.6-19.1c20-18.4 20.7-19 21.8-18.9.9.2 2.5 1.6 7 6.4l5.7 6-3.8 3.6-3.7 3.5-1.1-1.3a10.8 10.8 0 0 0-10.2-2.6c-1.4.3-3.3 2-14.6 12.4a213 213 0 0 0-15 14.7c-5.5 7.1-6.4 17-2.5 25a21 21 0 0 0 5.1 6.6 16 16 0 0 0 7.3 5 24.3 24.3 0 0 0 20.3-1c2.4-1.4 4.8-3.4 16.2-14.1 14-13.2 14.6-13.9 15.3-17.4.3-2.3-1-6.3-2.6-8l-1.2-1.3 3.7-3.5 3.7-3.5 6 6.3c5.5 6 5.8 6.4 5.7 7.7 0 1.3-1 2.3-20.5 20.9L131 562.7l-1 2.5a18.1 18.1 0 0 0-.1 11.4c.8 2.6 1.4 3.4 5 7.5 3.9 4.4 4 4.7 3.8 6a12 12 0 0 0 8 12.6Z" fill="url(#paint109_linear)"/>
      <path class="vector_5" d="M59.2 147.6c-2 5.5.3 11.3 5.7 14.5 2.4 1.4 8 1.6 10.5.3a12 12 0 0 0 6.9-10.3v-2.7L86 146c3.2-3 3.7-3.3 5-3.2 1.3 0 2.3 1 20.9 20.5l19.5 20.4 2.5 1c3 1 7.4 1.3 10.3.6l2-.6-7 6.7c-5.4 5-7.3 6.7-8 6.6a91 91 0 0 1-10.5-10.3l-9.7-10.1-2.9-1c-3.5-1-7-1-10.4.4-2.4 1-3.4 2-13.7 11.6L72.8 199l-2.2-.2a12 12 0 1 0 3.2 23.2c4.5-1.5 7.2-5.2 7.7-10.6l.3-3.5 10-9.4c8.5-8 10.2-9.4 11.3-9.6 1.3-.2 1.4-.1 10.4 9.5 8.4 9 9.4 9.8 11.7 11 3.1 1.5 7.4 1.8 11 .7 2.5-.7 2.8-1 13-10.2l10.4-9.4 1.9 2c3.2 3.5 4 2.4-12 17.8-13.6 13-14 13.5-15 15.9a19.6 19.6 0 0 0-.5 11c.8 2.7 2.9 5.9 6 9.2 2.3 2.5 2.4 2.7 2.2 4.4-.1 1.1.2 3.2.7 4.8.7 2.4 1.1 3 3.1 5 8 7.2 20.5 1.6 20.1-9-.1-3.4-1-5.3-3.3-7.8a10.6 10.6 0 0 0-8.2-3.9c-3-.1-3-.2-5.6-3-4.4-4.7-5-3.5 8.8-16.5 6.5-6 12.8-12.2 14.1-13.8 3.7-4.4 4.9-8.7 3.8-14.3l-.4-2.5 16.4 17.5c15.3 16.2 16.5 17.7 17.1 19.5a8.8 8.8 0 0 1-10.8 11.6c-2-.6-2.7-1.1-5-3.6-2.7-2.8-2.8-3-2.6-4.9.2-1-.1-3-.6-4.5a12 12 0 0 0-21.1-3.2c-5.4 8 .5 18.9 10 18.8 2 0 2.3.2 4.4 2.4 6.9 7.4 15.8 10 24.5 7.2 3-1 4-1.6 7-4.3 2.6-2.3 3.8-3.6 4.8-5.4 2.7-5 3.6-10.1 2.5-15.2-1.4-6.2-1-5.7-23.4-29.6l-20.2-21.5 2.4-2.4 2.5-2.3 19.4 20.7a520.3 520.3 0 0 0 21.6 22.2c5.6 4.1 13.5 5.4 20.1 3.2 3.3-1 3.7-1.3 7.7-5 3.8-3.7 4.3-4.3 5.3-6.8a22 22 0 0 0-4.8-24.2l-3-3.2.2-3c.1-4.7-2-8.5-6-10.8-2.9-1.6-5.7-2-9-1.2a9.5 9.5 0 0 0-5.1 3c-7.9 7.3-2.6 20.4 8.2 20.4 2.4 0 2.5.1 4.8 2.6 2.7 2.9 3.8 5.6 3.5 8.5-.7 5.7-6 9.2-11.3 7.6l-2.4-.7-16.6-17.7-16.6-17.6 3 .6c1.6.4 4.1.6 5.6.3 5.2-.8 5.4-1 20-14.4a557 557 0 0 1 14.3-12.8c1.3-.8 3.1.2 5.8 3 2.4 2.5 2.5 2.7 2.3 5a11 11 0 0 0 3.3 9c4.7 5 11.6 5.3 16.7.5 5-4.7 5.2-11.7.5-16.7-2.5-2.7-4.4-3.5-8.4-3.8l-2.7-.1-4-4a19 19 0 0 0-6.3-4.9 17.7 17.7 0 0 0-11.2-.4l-2.9.8-14.1 13.1-14.1 13-1.6-.1c-1.1-.2-2.1-.8-3.4-2.2l-1.7-1.8 10-9.7c9.7-9.2 10.1-9.7 11-12.1 1.3-3.1 1.5-7 .6-10.3l-.7-2.7-9.5-10.3c-8.5-9.3-9.6-10.5-9.4-11.4a67 67 0 0 1 10.5-10.7L223 75l1.8.4c2.5.5 6.2-.6 8.6-2.4a11.7 11.7 0 0 0 1.5-17.5 11.7 11.7 0 0 0-20.6 7.3l-.1 3.1-11.6 11-11.5 11.1-1 2.7c-.4 1.4-.8 4-.8 5.6.2 5.2.8 6.1 11 17.3 5 5.4 9.2 10.1 9.3 10.4.2.5-1.5 2.3-7 7.5l-7.4 7 .7-2.1c1-3 1.1-7.5.1-10.7l-.8-2.9-19.2-20.8c-18.6-20-19.3-20.8-19-22 0-.8 1.2-2 3.6-4.4 3.4-3.1 3.6-3.3 5-3a12 12 0 0 0 8.9-2.8c4.4-3.6 5.7-9.4 3.2-14.5-1.4-2.8-2-3.4-4.9-5-4.6-2.7-10-2-14 1.7-2.6 2.5-3.9 5.3-3.7 8.6v2.2l-3.7 3.5c-6.8 6.4-8.7 12-6.4 19.2l1 3.5 19.1 20.6c18.4 20 19 20.7 18.9 21.8-.2.9-1.6 2.5-6.4 6.9l-6 5.7-3.6-3.7-3.5-3.7 1.3-1.1c2.4-2.4 3.5-6.6 2.6-10.2-.3-1.4-2-3.3-12.4-14.6a213 213 0 0 0-14.7-15.1c-7.1-5.4-17-6.3-25-2.4a21 21 0 0 0-6.6 5 16 16 0 0 0-5 7.3 24.3 24.3 0 0 0 1 20.3c1.4 2.5 3.4 4.9 14.1 16.2 13.2 14.1 13.9 14.7 17.4 15.3 2.3.4 6.2-.9 8-2.6l1.3-1.2 3.5 3.8 3.5 3.7-6.3 5.9c-6 5.6-6.4 6-7.7 5.8-1.3 0-2.3-1-20.9-20.5l-19.5-20.4-2.5-1a18.1 18.1 0 0 0-11.4-.2c-2.6.9-3.4 1.5-7.5 5-4.4 4-4.7 4.2-6 3.8a12 12 0 0 0-4.2.4 12 12 0 0 0-8.4 7.7Z" fill="url(#paint110_linear)"/>
      <path class="vector_6" d="M601.7 515.3c2-5.5-.3-11.3-5.7-14.5-2.3-1.4-8-1.6-10.5-.4a12 12 0 0 0-6.9 10.4v2.7l-3.6 3.3c-3.2 3-3.7 3.4-5 3.3-1.3-.1-2.3-1.1-20.9-20.5l-19.5-20.4-2.5-1c-3-1.1-7.4-1.4-10.3-.6l-2 .6 7-6.7c5.4-5 7.3-6.7 8-6.6.4 0 4.2 3.8 10.5 10.2l9.7 10.2 2.9 1c3.5 1 7 1 10.4-.5 2.4-1 3.4-1.9 13.7-11.5l11.1-10.5 2.2.3a12 12 0 1 0-3.2-23.2c-4.5 1.5-7.2 5.2-7.7 10.6l-.3 3.5-10 9.4c-8.5 8-10.2 9.4-11.3 9.5-1.3.2-1.4.2-10.4-9.5-8.4-8.9-9.4-9.8-11.7-10.9a15.7 15.7 0 0 0-11-.8c-2.5.8-2.8 1-13 10.3l-10.4 9.4-1.9-2c-3.2-3.5-4-2.4 12-17.8 13.6-13.1 14-13.5 15-16 1.1-2.8 1.4-7.8.5-10.9-.8-2.7-2.8-6-6-9.2-2.3-2.5-2.4-2.8-2.2-4.5.1-1-.2-3.1-.7-4.7-.7-2.4-1.1-3-3.1-5-8-7.2-20.5-1.7-20.1 9 .1 3.3 1 5.3 3.3 7.8 2.5 2.6 4.4 3.6 8.2 3.8 3 .2 3 .3 5.6 3 4.4 4.8 5 3.6-8.8 16.6-6.5 6-12.8 12.2-14.1 13.8a15.7 15.7 0 0 0-3.8 14.2l.4 2.6-16.4-17.5c-15.3-16.3-16.5-17.7-17.1-19.6a8.8 8.8 0 0 1 10.8-11.5c2 .5 2.7 1 5 3.6 2.7 2.8 2.8 3 2.6 4.8-.2 1.1.1 3.2.6 4.6a12 12 0 0 0 21.1 3.2c5.4-8-.4-18.9-10-18.9-2 0-2.3-.2-4.4-2.4-6.9-7.3-15.8-9.9-24.5-7-2.9.9-4 1.5-7 4.1a19.4 19.4 0 0 0-4.8 5.5c-2.7 5-3.6 10-2.5 15.2 1.4 6.2 1 5.7 23.4 29.6l20.2 21.5-2.4 2.3-2.5 2.3-19.4-20.6a520.3 520.3 0 0 0-21.6-22.2c-5.6-4.1-13.4-5.4-20.1-3.3-3.3 1.1-3.7 1.4-7.7 5.2-3.8 3.5-4.3 4.2-5.3 6.7a22 22 0 0 0 4.8 24.2l3 3.2-.2 3c-.1 4.7 2 8.4 6 10.8 2.9 1.6 5.7 2 9 1.2a9.5 9.5 0 0 0 5.1-3c7.9-7.3 2.6-20.4-8.2-20.5-2.3 0-2.5 0-4.7-2.5-2.8-3-3.9-5.6-3.6-8.5.7-5.7 6-9.2 11.4-7.6l2.3.7 16.6 17.6 16.6 17.7-3-.7c-1.6-.4-4.1-.5-5.6-.2-5.2.7-5.4 1-20 14.3a560.2 560.2 0 0 1-14.3 13c-1.3.7-3.1-.3-5.8-3.2-2.4-2.4-2.5-2.6-2.3-4.9a11 11 0 0 0-3.3-9c-4.7-5-11.6-5.3-16.7-.5-5 4.6-5.2 11.7-.5 16.7 2.5 2.7 4.4 3.5 8.4 3.7l2.7.2 4 4a19 19 0 0 0 6.3 4.8c3.2 1.4 7.7 1.6 11.2.5l2.9-.9 14.1-13 14.1-13.1 1.6.2c1.1.2 2.1.8 3.4 2.1l1.7 2-10 9.6c-9.7 9.2-10.1 9.7-11 12a16.5 16.5 0 0 0-.6 10.4l.7 2.6 9.6 10.4c8.4 9.2 9.5 10.5 9.3 11.4a67 67 0 0 1-10.5 10.7l-10.3 9.6-1.8-.3c-2.5-.5-6.2.5-8.6 2.4a11.7 11.7 0 0 0-1.5 17.4c2.6 2.8 5.5 4.1 9 4 6.3-.1 11.1-4.8 11.6-11.3l.2-3 11.5-11 11.5-11.1 1-2.7c.4-1.5.8-4 .8-5.6-.2-5.2-.8-6.2-11-17.3-5-5.5-9.2-10.2-9.3-10.5-.2-.4 1.5-2.3 7-7.5l7.4-6.9-.7 2.1c-1 3-1.1 7.5-.1 10.7l.8 2.8 19.3 20.9c18.5 20 19.2 20.8 19 22-.2.7-1.3 2-3.7 4.4-3.4 3-3.6 3.3-5 3a12 12 0 0 0-8.8 2.8 11.5 11.5 0 0 0-3.3 14.4c1.4 2.9 2 3.5 4.9 5.1 4.6 2.7 10 2 14-1.7 2.6-2.5 3.9-5.4 3.8-8.6l-.1-2.2 3.7-3.5c6.8-6.4 8.7-12 6.4-19.2l-1-3.5-19.1-20.6c-18.4-20-19-20.7-18.9-21.8.2-1 1.6-2.5 6.4-7l6-5.7 3.6 3.7 3.5 3.8-1.3 1.1a10.8 10.8 0 0 0-2.6 10.2c.3 1.4 2 3.3 12.4 14.6 8 8.7 13 13.7 14.7 15 7.1 5.5 17 6.4 25 2.5a21 21 0 0 0 6.6-5.1 16 16 0 0 0 5-7.3 24.3 24.3 0 0 0-1-20.3c-1.4-2.4-3.4-4.8-14.1-16.2-13.2-14-13.8-14.6-17.4-15.3-2.3-.3-6.2 1-8 2.6l-1.3 1.2-3.5-3.7-3.5-3.7 6.3-6c6-5.5 6.4-5.9 7.7-5.7 1.3 0 2.3 1 20.9 20.5l19.5 20.4 2.5 1c3.4 1.2 7.9 1.3 11.4.1 2.6-.8 3.4-1.4 7.5-5 4.4-3.9 4.7-4 6-3.8a12 12 0 0 0 12.6-8Z" fill="url(#paint111_linear)"/>
      <path class="vector_7" d="M514.3 60c-5.5-2-11.3.3-14.5 5.7-1.4 2.4-1.6 8.1-.3 10.6a12 12 0 0 0 10.3 6.9h2.7l3.4 3.6c3 3.2 3.3 3.7 3.2 5 0 1.2-1 2.2-20.5 20.9l-20.4 19.5-1 2.5c-1 3-1.3 7.4-.6 10.3l.6 2-6.7-7c-5-5.4-6.7-7.3-6.6-8 0-.5 3.8-4.3 10.3-10.5l10.1-9.8 1-2.8c1-3.5 1-7-.4-10.4-1-2.4-2-3.4-11.6-13.7l-10.5-11.2.3-2.1a12 12 0 1 0-23.2 3.2c1.5 4.5 5.2 7.2 10.6 7.7l3.5.3 9.4 10c8 8.5 9.4 10.1 9.6 11.3.2 1.3.1 1.3-9.5 10.4-9 8.4-9.8 9.3-11 11.7a15.7 15.7 0 0 0-.7 11c.7 2.5 1 2.8 10.2 13l9.4 10.4-2 1.8c-3.5 3.3-2.4 4-17.8-12-13-13.5-13.5-13.9-15.9-14.9a19.6 19.6 0 0 0-11-.5c-2.7.8-5.9 2.8-9.2 6-2.5 2.2-2.7 2.4-4.5 2.2-1-.2-3.1.2-4.7.6-2.4.8-3 1.2-5 3.2-7.2 8-1.6 20.5 9 20 3.3 0 5.3-.9 7.8-3.2 2.7-2.5 3.6-4.5 3.8-8.2.2-3 .3-3 3.1-5.6 4.7-4.4 3.5-5 16.5 8.8 6 6.4 12.2 12.8 13.8 14 4.4 3.8 8.7 5 14.2 3.9l2.6-.5-17.5 16.5c-16.2 15.2-17.7 16.5-19.6 17a8.8 8.8 0 0 1-11.5-10.7c.6-2 1-2.7 3.6-5 2.8-2.7 3-2.8 4.9-2.6 1 .2 3-.1 4.5-.6a12 12 0 0 0 3.2-21.2c-8-5.3-18.9.5-18.8 10.1 0 2-.2 2.3-2.4 4.4-7.4 6.8-10 15.8-7.2 24.4 1 3 1.6 4 4.3 7 2.3 2.7 3.6 3.9 5.4 4.9 5 2.7 10 3.6 15.2 2.4 6.2-1.3 5.7-1 29.6-23.3l21.5-20.3 2.3 2.5 2.4 2.5-20.7 19.4a521.7 521.7 0 0 0-22.2 21.5c-4.1 5.6-5.4 13.5-3.2 20.2 1 3.3 1.3 3.7 5 7.7 3.7 3.8 4.3 4.3 6.8 5.3a22 22 0 0 0 24.2-4.8l3.2-3 3 .1c4.7.2 8.5-2 10.8-6 1.6-2.8 2-5.7 1.2-9a9.5 9.5 0 0 0-3-5c-7.3-7.9-20.4-2.6-20.4 8.2 0 2.3-.2 2.5-2.6 4.7-2.9 2.8-5.6 3.9-8.5 3.5-5.7-.6-9.2-5.9-7.6-11.3l.7-2.3 17.7-16.6 17.6-16.6-.6 3c-.4 1.6-.6 4.1-.3 5.6.8 5.2 1 5.4 14.4 20 6.7 7.4 12.5 13.8 12.8 14.3.8 1.3-.2 3.1-3 5.8-2.5 2.3-2.7 2.4-5 2.3a11 11 0 0 0-9 3.2c-5 4.8-5.3 11.7-.5 16.8 4.7 5 11.7 5.2 16.7.5 2.7-2.5 3.5-4.5 3.8-8.5l.1-2.6 4-4a19 19 0 0 0 4.9-6.3c1.3-3.2 1.5-7.8.4-11.2l-.8-3-13.1-14-13.1-14.2.2-1.6c.2-1 .8-2 2.2-3.3l1.8-1.8 9.7 10.1c9.2 9.6 9.7 10 12.1 11 3.1 1.3 6.9 1.5 10.3.6l2.7-.7 10.3-9.6c9.3-8.5 10.5-9.5 11.4-9.4a67 67 0 0 1 10.7 10.6l9.7 10.3-.4 1.8c-.5 2.5.6 6.1 2.4 8.6a11.7 11.7 0 0 0 17.5 1.5 11.7 11.7 0 0 0-7.3-20.6l-3.1-.2-11-11.5-11.1-11.6-2.7-.9c-1.4-.5-4-.8-5.6-.8-5.2.2-6.1.8-17.3 11a227 227 0 0 1-10.5 9.3c-.4.2-2.2-1.5-7.5-7l-6.9-7.4 2.1.7c3 1 7.5 1 10.7.1l2.9-.9 20.8-19.2c20-18.5 20.8-19.2 22-19 .8.1 2 1.2 4.4 3.7 3.1 3.3 3.3 3.6 3 5a12 12 0 0 0 2.8 8.8c3.6 4.5 9.4 5.8 14.4 3.2 2.9-1.4 3.5-2 5.1-4.8 2.7-4.6 2-10-1.7-14-2.5-2.7-5.3-4-8.6-3.8H599l-3.5-3.6c-6.4-6.8-12-8.7-19.2-6.4l-3.5 1-20.6 19c-20 18.5-20.7 19.1-21.8 19-.9-.2-2.5-1.7-7-6.4l-5.7-6.1 3.8-3.5 3.7-3.5 1.1 1.2c2.4 2.5 6.6 3.6 10.2 2.7 1.4-.4 3.3-2 14.6-12.4 8.7-8.1 13.7-13 15.1-14.7 5.4-7.2 6.3-17 2.4-25.1a21 21 0 0 0-5.1-6.5 16 16 0 0 0-7.3-5 24.3 24.3 0 0 0-20.2 1c-2.5 1.4-4.9 3.4-16.3 14-14 13.2-14.6 14-15.2 17.5-.4 2.2.9 6.2 2.6 8l1.1 1.3-3.7 3.5-3.7 3.5-5.9-6.3c-5.6-6-6-6.4-5.8-7.7 0-1.3 1-2.3 20.5-21l20.4-19.4 1-2.6c1.2-3.4 1.3-7.8.2-11.3-.9-2.6-1.5-3.5-5.1-7.5-3.9-4.4-4-4.7-3.8-6a12 12 0 0 0-8-12.6Z" fill="url(#paint112_linear)"/>
      <path class="vector_8" d="M392.4 653.5c5.4-2.5 7.9-8.2 6.3-14.3-.7-2.7-4.6-6.8-7.2-7.7a12 12 0 0 0-12.2 2.4l-2 2-4.8-.2c-4.4-.2-5-.3-5.9-1.2-.8-1-.8-2.4-.2-29.3l.6-28.3-1.1-2.4c-1.3-3-4.3-6.2-6.9-7.7l-1.8-1 9.7.2c7.4.2 10 .5 10.3 1 .3.3.4 5.6.2 14.6l-.3 14.1 1.4 2.7c1.7 3.2 4.3 5.7 7.6 7 2.4 1 3.8 1.2 17.9 1.6l15.2.5 1.4 1.7a12 12 0 1 0 14.2-18.7c-4.3-2.1-8.8-1.4-13 2l-2.7 2.3-13.7-.4c-11.6-.4-13.9-.5-14.8-1.2-1-.8-1-.9-.6-14 .4-12.3.3-13.6-.5-16.1-1.1-3.3-4-6.5-7.2-8.3-2.4-1.2-2.8-1.3-16.5-2l-14-.6v-2.8c.3-4.8-1-4.5 21.2-4.1 18.8.3 19.3.3 21.8-.7 2.8-1.2 6.5-4.6 8-7.4 1.5-2.5 2.3-6.2 2.4-10.7.1-3.4.2-3.7 1.6-4.8.8-.6 2-2.3 2.9-3.8 1.1-2.2 1.3-3 1.2-5.7-.5-10.8-13.2-15.7-20.5-7.9-2.3 2.5-3 4.4-3.2 7.9 0 3.6.6 5.7 3.1 8.5 2 2.2 2 2.2 1.8 6.1-.2 6.4 1 6-17.9 5.5a286 286 0 0 0-19.7-.3c-5.7.5-9.6 2.7-12.8 7.4l-1.5 2.1.8-24c.7-22.2.8-24.1 1.7-25.9a8.8 8.8 0 0 1 15.8-.5c1 1.8 1.2 2.7 1 6 0 4-.1 4.1-1.6 5.3a12 12 0 0 0-2.8 3.7 12 12 0 0 0 12.7 17.2c9.4-1.8 13-13.7 6.2-20.5-1.4-1.4-1.5-1.7-1.4-4.7.3-10-4.2-18.2-12.2-22.4-2.8-1.4-4-1.6-8-2-3.5-.2-5.3 0-7.3.5a21.5 21.5 0 0 0-12.5 9c-3.4 5.3-3.3 4.7-4.3 37.5l-1 29.5-3.4-.1-3.3-.1.8-28.4c.6-16.8.8-29.4.5-31-1-6.8-5.7-13.2-12-16.4-3-1.6-3.5-1.7-9-1.9-5.2-.1-6 0-8.5 1a22 22 0 0 0-13.8 20.6l-.1 4.3-2.2 2a11.4 11.4 0 0 0-3.4 12c.9 3 2.6 5.4 5.5 7.1 2 1.2 3.1 1.5 5.7 1.6 10.8.3 16.3-12.7 8.7-20.3-1.7-1.7-1.7-1.9-1.6-5.2.1-4 1.3-6.7 3.6-8.5a8.7 8.7 0 0 1 13.3 2.6l1.2 2.1-.8 24.3-.7 24.2-1.7-2.6a17 17 0 0 0-3.7-4.1c-4.3-3.2-4.5-3.2-24.4-4-10-.4-18.6-.9-19.2-1-1.4-.4-2-2.4-1.9-6.3.1-3.4.2-3.6 1.9-5.1 2.8-2.5 4-5 4-8.7.3-7-4.5-12-11.4-12.2-6.8-.2-12 4.7-12.2 11.5-.1 3.6.7 5.6 3.3 8.6l1.8 2v5.6c0 4.4.2 6 1 7.9 1.4 3.3 4.4 6.6 7.6 8.3l2.7 1.4 19.2.7 19.2.8 1 1.3c.7.9 1 2 .9 3.8l-.1 2.6-14-.3c-13.3-.2-14-.2-16.3.8a16.5 16.5 0 0 0-7.7 6.9l-1.4 2.4-.5 14c-.6 12.6-.7 14.2-1.5 14.7-.6.5-4.2.5-15 .2l-14.1-.5-1-1.5c-1.4-2.2-4.8-4-7.8-4.4-7-1-13.2 4.2-13.4 11.3-.1 3.7 1 6.7 3.6 9.2a11.7 11.7 0 0 0 16.1.1l2.3-2 16 .3 16 .4 2.5-1.2c1.4-.7 3.5-2.3 4.6-3.4 3.5-3.8 3.8-5 4.4-20 .3-7.4.7-13.7.8-14 .2-.5 2.7-.5 10.3-.3l10.1.3-2 1c-2.9 1.4-6 4.5-7.6 7.5l-1.4 2.6-1.1 28.3c-1.1 27.3-1.2 28.3-2 29-.8.4-2.5.6-5.9.5-4.5-.2-4.8-.2-5.7-1.4a12 12 0 0 0-8.2-4.2 11.5 11.5 0 0 0-12.4 7.9c-1 3-1 3.8-.2 7 1.3 5.2 5.6 8.5 11 8.7 3.8 0 6.7-1 8.9-3.4l1.5-1.7 5 .2c9.4.3 14.6-2.3 18.2-9l1.7-3.3 1.1-28c1-27.1 1.2-28.1 2-28.8.8-.5 3-.6 9.4-.4l8.4.3-.1 5.1-.2 5.1h-1.7c-3.4-.2-7.1 2-9 5.3-.8 1.2-1 3.7-1.6 19-.5 12-.5 18.9-.3 21.1a24.3 24.3 0 0 0 16 19.4 21 21 0 0 0 8.3 1 16 16 0 0 0 8.6-1.6c6.7-3 11.7-8.4 13.7-15 .8-2.7 1-5.8 1.5-21.4.6-19.3.6-20.2-1.5-23.2-1.3-1.8-5-3.7-7.5-3.8h-1.8l.2-5.1.1-5.1 8.7.2c8.2.3 8.7.4 9.5 1.4.9 1 .9 2.4.3 29.3l-.6 28.2 1 2.4c1.6 3.4 4.7 6.6 8 8.2 2.4 1.3 3.4 1.4 8.9 1.8 5.8.3 6.2.4 6.8 1.5a12 12 0 0 0 3.3 2.7 12 12 0 0 0 11.3.6Z" fill="url(#paint113_linear)"/>
    </g>
  </g>
  <defs>
    <linearGradient id="paint98_linear" x1="332" y1="320.3" x2="324.6" y2="420.7" gradientUnits="userSpaceOnUse">
      <stop stop-color="#1C1E51"/>
      <stop offset="1" stop-color="#0B14EC"/>
    </linearGradient>
    <linearGradient id="paint99_linear" x1="330.5" y1="345.2" x2="338.8" y2="242.2" gradientUnits="userSpaceOnUse">
      <stop stop-color="#1C1E51"/>
      <stop offset="1" stop-color="#0B14EC"/>
    </linearGradient>
    <linearGradient id="paint100_linear" x1="324.1" y1="323.3" x2="389.9" y2="399.5" gradientUnits="userSpaceOnUse">
      <stop stop-color="#1C1E51"/>
      <stop offset="1" stop-color="#0B14EC"/>
    </linearGradient>
    <linearGradient id="paint101_linear" x1="340.7" y1="342" x2="273.7" y2="263.3" gradientUnits="userSpaceOnUse">
      <stop stop-color="#1C1E51"/>
      <stop offset="1" stop-color="#0B14EC"/>
    </linearGradient>
    <linearGradient id="paint102_linear" x1="339.7" y1="323.7" x2="263.4" y2="389.5" gradientUnits="userSpaceOnUse">
      <stop stop-color="#1C1E51"/>
      <stop offset="1" stop-color="#0B14EC"/>
    </linearGradient>
    <linearGradient id="paint103_linear" x1="321" y1="340.3" x2="399.7" y2="273.3" gradientUnits="userSpaceOnUse">
      <stop stop-color="#1C1E51"/>
      <stop offset="1" stop-color="#0B14EC"/>
    </linearGradient>
    <linearGradient id="paint104_linear" x1="320.7" y1="331" x2="421.1" y2="338.4" gradientUnits="userSpaceOnUse">
      <stop stop-color="#1C1E51"/>
      <stop offset="1" stop-color="#0B14EC"/>
    </linearGradient>
    <linearGradient id="paint105_linear" x1="345.6" y1="332.4" x2="242.6" y2="324.2" gradientUnits="userSpaceOnUse">
      <stop stop-color="#1C1E51"/>
      <stop offset="1" stop-color="#0B14EC"/>
    </linearGradient>
    <linearGradient id="paint106_linear" x1="189.8" y1="327" x2="10.2" y2="321.4" gradientUnits="userSpaceOnUse">
      <stop stop-color="#0B14EC"/>
      <stop offset="1" stop-color="#0B14EC" stop-opacity="0"/>
    </linearGradient>
    <linearGradient id="paint107_linear" x1="334.7" y1="190.1" x2="340.3" y2="10.4" gradientUnits="userSpaceOnUse">
      <stop stop-color="#0B14EC"/>
      <stop offset="1" stop-color="#0B14EC" stop-opacity="0"/>
    </linearGradient>
    <linearGradient id="paint108_linear" x1="471.9" y1="335.7" x2="651.6" y2="341.3" gradientUnits="userSpaceOnUse">
      <stop stop-color="#0B14EC"/>
      <stop offset="1" stop-color="#0B14EC" stop-opacity="0"/>
    </linearGradient>
    <linearGradient id="paint109_linear" x1="227.6" y1="428.2" x2="96.6" y2="551.3" gradientUnits="userSpaceOnUse">
      <stop stop-color="#0B14EC"/>
      <stop offset="1" stop-color="#0B14EC" stop-opacity="0"/>
    </linearGradient>
    <linearGradient id="paint110_linear" x1="233.7" y1="228.4" x2="110.5" y2="97.4" gradientUnits="userSpaceOnUse">
      <stop stop-color="#0B14EC"/>
      <stop offset="1" stop-color="#0B14EC" stop-opacity="0"/>
    </linearGradient>
    <linearGradient id="paint111_linear" x1="427.2" y1="434.4" x2="550.4" y2="565.4" gradientUnits="userSpaceOnUse">
      <stop stop-color="#0B14EC"/>
      <stop offset="1" stop-color="#0B14EC" stop-opacity="0"/>
    </linearGradient>
    <linearGradient id="paint112_linear" x1="433.4" y1="234.5" x2="564.5" y2="111.4" gradientUnits="userSpaceOnUse">
      <stop stop-color="#0B14EC"/>
      <stop offset="1" stop-color="#0B14EC" stop-opacity="0"/>
    </linearGradient>
    <linearGradient id="paint113_linear" x1="326.3" y1="472.9" x2="320.7" y2="652.6" gradientUnits="userSpaceOnUse">
      <stop stop-color="#0B14EC"/>
      <stop offset="1" stop-color="#0B14EC" stop-opacity="0"/>
    </linearGradient>
  </defs>
</svg>
