<svg viewBox="0 0 731 628" fill="none" xmlns="http://www.w3.org/2000/svg">
  <g id="octo-group-desktop">
    <path id="octo-12" d="M444.7 1.3c-5.3 2.7-7.6 8.5-5.9 14.5.8 2.7 4.8 6.8 7.5 7.5a12 12 0 0 0 12.1-2.8l1.9-2h4.9c4.4 0 5 .2 5.9 1 .8 1 .9 2.5 1.1 29.4l.3 28.3 1.2 2.4c1.4 2.9 4.5 6 7 7.5l2 1h-9.8c-7.4 0-9.9-.1-10.3-.6a91 91 0 0 1-.7-14.7l-.1-14.1-1.5-2.6a14.9 14.9 0 0 0-7.8-6.9c-2.5-.9-3.8-1-18-1h-15.2l-1.4-1.6a12 12 0 1 0-13.6 19c4.3 2 8.8 1.2 12.9-2.4l2.6-2.3h13.7c11.7 0 14 0 14.8.8 1.1.7 1.1.8 1.1 14 0 12.3.1 13.6 1 16 1.3 3.3 4.2 6.4 7.5 8 2.4 1.3 2.8 1.3 16.5 1.5l14.1.3v2.8c0 4.7 1.2 4.4-21 4.7-18.9.3-19.3.3-21.8 1.4a19.6 19.6 0 0 0-7.9 7.6c-1.3 2.6-2 6.3-2 10.8 0 3.4 0 3.7-1.4 4.8-.8.7-2 2.5-2.8 4a8.7 8.7 0 0 0-1 5.7c.9 10.8 13.7 15.3 20.8 7.3 2.1-2.6 2.9-4.6 2.9-8 0-3.7-.8-5.6-3.4-8.4-2-2.2-2-2.2-2-6.1 0-6.4-1.2-6 17.8-6 8.8 0 17.7-.1 19.7-.4 5.7-.6 9.5-3 12.6-7.8l1.4-2.1v24c0 22.3-.1 24.2-1 26a8.8 8.8 0 0 1-15.8 1c-1-1.7-1.2-2.6-1.2-6 0-4 0-4 1.5-5.4 1-.6 2-2.3 2.7-3.7a12 12 0 0 0-13.2-16.8 12.2 12.2 0 0 0-5.6 20.6c1.4 1.4 1.5 1.7 1.5 4.8 0 10 4.8 18 13 22 2.8 1.3 4 1.5 8 1.6 3.5.2 5.3 0 7.3-.6 5.4-1.7 9.5-4.9 12.2-9.4 3.3-5.4 3.2-4.8 3.2-37.6v-29.6h6.8v28.4c0 16.8.2 29.4.5 31a23.2 23.2 0 0 0 12.5 16.1c3.1 1.6 3.6 1.6 9.1 1.6 5.3 0 6-.1 8.5-1.3a22 22 0 0 0 13.1-21v-4.3l2.2-2.1c3.3-3.4 4.3-7.5 3-12-1-3.1-2.8-5.4-5.8-7a9.5 9.5 0 0 0-5.7-1.4c-10.8 0-15.9 13.2-8 20.6 1.6 1.7 1.7 1.8 1.7 5.1 0 4-1 6.8-3.3 8.7a8.8 8.8 0 0 1-13.5-2.3l-1.2-2v-48.6l1.7 2.5c1 1.4 2.7 3.2 4 4 4.3 3 4.5 3 24.4 3.3 10 .1 18.7.3 19.3.4 1.4.3 2 2.3 2 6.2 0 3.4 0 3.6-1.6 5.2a11 11 0 0 0-3.8 8.8c0 7 4.9 11.9 11.8 11.9 6.8 0 11.8-5 11.8-12 0-3.6-.8-5.5-3.5-8.4l-1.9-2-.2-5.6a19 19 0 0 0-1.2-7.8 17.7 17.7 0 0 0-7.9-8l-2.7-1.4-19.3-.2-19.2-.1-1-1.3c-.7-.9-1-2-1-3.8v-2.6l14-.1c13.3-.2 14-.2 16.3-1.3 3-1.4 5.8-4 7.5-7.2l1.3-2.4.1-14.1c.2-12.5.3-14.2 1-14.7.6-.5 4.2-.6 15-.6H614l1 1.5c1.5 2 4.9 3.8 7.9 4.2 7.1.7 13.1-4.7 13.1-11.8 0-3.7-1.3-6.7-3.9-9-4.7-4.3-11.4-4.1-16.2.3l-2.2 2-16 .2-16 .2-2.5 1.3c-1.3.7-3.4 2.3-4.4 3.5-3.4 4-3.7 5-3.9 20.2 0 7.4-.2 13.7-.3 14-.2.5-2.7.6-10.3.6h-10.1l1.9-1c2.9-1.5 6-4.7 7.4-7.7l1.3-2.7.3-28.4c.2-27.4.3-28.4 1.1-29 .7-.5 2.4-.7 5.8-.7 4.6 0 4.9 0 5.8 1.2a12 12 0 0 0 8.3 4c5.7.5 10.6-3 12.2-8.3 1-3 1-4 0-7.1A11.4 11.4 0 0 0 582.9.1c-3.7 0-6.5 1.2-8.7 3.7l-1.4 1.6h-5.1c-9.4 0-14.5 2.8-17.9 9.7l-1.6 3.2-.2 28.1c-.3 27.2-.3 28.2-1.2 28.9-.7.5-2.9.7-9.4.7H529V65.7h1.7c3.4 0 7.1-2.3 9-5.6.7-1.2.8-3.7.9-19.1 0-12 0-18.9-.4-21.1a24.4 24.4 0 0 0-16.6-19c-2.7-.7-4.3-1-8.3-.7a16 16 0 0 0-8.6 1.9 24.3 24.3 0 0 0-13.2 15.4c-.7 2.8-.8 5.9-.8 21.5 0 19.4 0 20.2 2.2 23.1 1.4 1.8 5.2 3.6 7.6 3.6h1.8V76h-8.7c-8.2 0-8.7 0-9.6-1-.8-1-.9-2.3-1.1-29.3l-.3-28.3-1.2-2.4a18.1 18.1 0 0 0-8.2-8c-2.4-1-3.4-1.2-8.9-1.4-5.9-.2-6.2-.2-7-1.3a12 12 0 0 0-3.2-2.7 12 12 0 0 0-11.4-.2Z" fill="url(#paint0_linear_509_72)"/>
    <path id="octo-11" d="M512.7 269.3c-5.3 2.7-7.6 8.5-5.9 14.5.8 2.7 4.8 6.8 7.5 7.5a12 12 0 0 0 12.1-2.8l1.9-2h4.9c4.4 0 5 .2 5.9 1 .8 1 .9 2.5 1.1 29.4l.3 28.3 1.2 2.4c1.4 2.9 4.5 6 7 7.5l2 1h-9.8c-7.4 0-9.9-.1-10.3-.6a91 91 0 0 1-.7-14.7l-.1-14.1-1.5-2.6a14.9 14.9 0 0 0-7.8-6.9c-2.5-.9-3.8-1-18-1h-15.2l-1.4-1.6a12 12 0 1 0-13.6 19c4.3 2 8.8 1.2 12.9-2.4l2.6-2.3h13.7c11.7 0 14 0 14.8.8 1.1.7 1.1.8 1.1 14 0 12.3.1 13.6 1 16 1.3 3.3 4.2 6.4 7.5 8 2.4 1.3 2.8 1.3 16.5 1.6l14.1.2v2.8c0 4.7 1.2 4.4-21 4.7-18.9.3-19.3.3-21.8 1.4a19.6 19.6 0 0 0-7.9 7.6c-1.3 2.6-2 6.3-2 10.8 0 3.4 0 3.7-1.4 4.8-.8.7-2 2.5-2.8 4a8.7 8.7 0 0 0-1 5.7c.9 10.8 13.7 15.3 20.8 7.3 2.1-2.6 2.9-4.6 2.9-8 0-3.7-.8-5.6-3.4-8.4-2-2.2-2-2.2-2-6.1 0-6.4-1.2-6 17.8-6 8.8 0 17.7-.1 19.7-.4 5.7-.6 9.5-3 12.6-7.8l1.4-2.1v24c0 22.3-.1 24.2-1 26a8.8 8.8 0 0 1-15.8 1c-1-1.7-1.2-2.6-1.2-6 0-4 0-4 1.5-5.4 1-.6 2-2.3 2.7-3.7a12 12 0 0 0-13.2-16.8 12.2 12.2 0 0 0-5.6 20.6c1.4 1.4 1.5 1.7 1.5 4.8 0 10 4.8 18 13 22 2.8 1.3 4 1.5 8 1.6 3.5.2 5.3 0 7.3-.6 5.4-1.7 9.5-4.9 12.2-9.4 3.3-5.4 3.2-4.8 3.2-37.6v-29.6h6.8v28.4c0 16.8.2 29.4.5 31a23.2 23.2 0 0 0 12.5 16.1c3.1 1.6 3.6 1.6 9.1 1.6 5.3 0 6-.1 8.5-1.3a22 22 0 0 0 13.1-21v-4.3l2.2-2.1c3.3-3.4 4.3-7.5 3-12-1-3.1-2.8-5.4-5.8-7a9.5 9.5 0 0 0-5.7-1.4c-10.8 0-15.9 13.2-8 20.6 1.6 1.7 1.7 1.8 1.7 5.1 0 4-1 6.8-3.3 8.7a8.8 8.8 0 0 1-13.5-2.3l-1.2-2v-48.6l1.7 2.5c1 1.4 2.7 3.2 4 4 4.3 3 4.5 3 24.4 3.3 10 .1 18.7.3 19.3.4 1.4.3 2 2.3 2 6.2 0 3.4 0 3.6-1.6 5.2a11 11 0 0 0-3.8 8.8c0 7 4.9 11.9 11.8 11.9 6.8 0 11.8-5 11.8-12 0-3.6-.8-5.5-3.5-8.4l-1.9-2-.2-5.6a19 19 0 0 0-1.2-7.8 17.7 17.7 0 0 0-7.9-8l-2.7-1.4-19.3-.2-19.2-.1-1-1.3c-.7-.9-1-2-1-3.8v-2.6l14-.1c13.3-.2 14-.2 16.3-1.3 3-1.4 5.8-4 7.5-7.2l1.3-2.4.1-14.1c.2-12.5.3-14.2 1-14.7a67 67 0 0 1 15-.6H682l1 1.5c1.5 2 4.9 3.8 7.9 4.2 7.1.7 13.1-4.7 13.1-11.8 0-3.7-1.3-6.7-3.9-9-4.7-4.3-11.4-4.1-16.2.3l-2.2 2-16 .2-16 .2-2.5 1.3c-1.3.7-3.4 2.3-4.4 3.5-3.4 4-3.7 5-3.9 20.2 0 7.4-.2 13.7-.3 14-.2.5-2.7.6-10.3.6h-10.1l1.9-1c2.9-1.5 6-4.7 7.4-7.7l1.3-2.7.3-28.4c.2-27.4.3-28.4 1.1-29 .7-.5 2.4-.7 5.8-.7 4.6 0 4.9 0 5.8 1.2a12 12 0 0 0 8.3 4c5.7.5 10.6-3 12.2-8.4 1-3 1-3.8 0-7a11.4 11.4 0 0 0-11.4-8.3c-3.7 0-6.5 1.2-8.7 3.7l-1.4 1.6h-5.1c-9.4 0-14.5 2.8-17.9 9.7l-1.6 3.2-.2 28.1c-.3 27.2-.3 28.2-1.2 28.9-.7.5-2.9.7-9.4.7H597v-10.3h1.7c3.4 0 7.1-2.3 9-5.6.7-1.2.8-3.7.9-19.1 0-12 0-18.9-.4-21.1a24.4 24.4 0 0 0-16.6-19 21 21 0 0 0-8.3-.7 16 16 0 0 0-8.6 1.9 24.3 24.3 0 0 0-13.2 15.4c-.7 2.8-.8 5.9-.8 21.5 0 19.4 0 20.2 2.2 23.1 1.4 1.8 5.2 3.6 7.6 3.6h1.8V344h-8.7c-8.2 0-8.7 0-9.6-1-.8-1-.9-2.3-1.1-29.3l-.3-28.3-1.2-2.4a18.1 18.1 0 0 0-8.2-8c-2.4-1-3.4-1.2-8.9-1.4-5.9-.2-6.2-.2-7-1.3a12 12 0 0 0-3.2-2.7 12 12 0 0 0-11.4-.2Z" fill="url(#paint1_linear_509_72)"/>
    <path id="octo-10" d="M229.7 1.3c-5.3 2.7-7.6 8.5-5.9 14.5.8 2.7 4.8 6.8 7.5 7.5a12 12 0 0 0 12.1-2.8l1.9-2h4.9c4.4 0 5 .2 5.9 1 .8 1 .9 2.5 1.1 29.4l.3 28.3 1.2 2.4c1.4 2.9 4.5 6 7 7.5l2 1h-9.8c-7.4 0-9.9-.1-10.3-.6a91 91 0 0 1-.7-14.7l-.1-14.1-1.5-2.6a14.9 14.9 0 0 0-7.8-6.9c-2.5-.9-3.8-1-18-1h-15.2l-1.4-1.6a12 12 0 1 0-13.6 19c4.3 2 8.8 1.2 12.9-2.4l2.6-2.3h13.7c11.7 0 14 0 14.8.8 1.1.7 1.1.8 1.1 14 0 12.3.1 13.6 1 16 1.3 3.3 4.2 6.4 7.5 8 2.4 1.3 2.8 1.3 16.5 1.5l14.1.3v2.8c0 4.7 1.2 4.4-21 4.7-18.9.3-19.3.3-21.8 1.4a19.6 19.6 0 0 0-7.9 7.6c-1.3 2.6-2 6.3-2 10.8 0 3.4 0 3.7-1.4 4.8-.8.7-2 2.5-2.8 4a8.7 8.7 0 0 0-1 5.7c.9 10.8 13.7 15.3 20.8 7.3 2.1-2.6 2.9-4.6 2.9-8 0-3.7-.8-5.6-3.4-8.4-2-2.2-2-2.2-2-6.1 0-6.4-1.2-6 17.8-6 8.8 0 17.7-.1 19.7-.4 5.7-.6 9.5-3 12.6-7.8l1.4-2.1v24c0 22.3-.1 24.2-1 26a8.8 8.8 0 0 1-15.8 1c-1-1.7-1.2-2.6-1.2-6 0-4 0-4 1.5-5.4 1-.6 2-2.3 2.7-3.7a12 12 0 0 0-13.2-16.8 12.2 12.2 0 0 0-5.6 20.6c1.4 1.4 1.5 1.7 1.5 4.8 0 10 4.8 18 13 22 2.8 1.3 4 1.5 8 1.6 3.5.2 5.3 0 7.3-.6 5.4-1.7 9.5-4.9 12.2-9.4 3.3-5.4 3.2-4.8 3.2-37.6v-29.6h6.8v28.4c0 16.8.2 29.4.5 31a23.2 23.2 0 0 0 12.5 16.1c3.1 1.6 3.6 1.6 9.1 1.6 5.3 0 6-.1 8.5-1.3a22 22 0 0 0 13.1-21v-4.3l2.2-2.1c3.3-3.4 4.3-7.5 3-12-1-3.1-2.8-5.4-5.8-7a9.5 9.5 0 0 0-5.7-1.4c-10.8 0-15.9 13.2-8 20.6 1.6 1.7 1.7 1.8 1.7 5.1 0 4-1 6.8-3.3 8.7a8.8 8.8 0 0 1-13.5-2.3l-1.2-2v-48.6l1.7 2.5c1 1.4 2.7 3.2 4 4 4.3 3 4.5 3 24.4 3.3 10 .1 18.7.3 19.3.4 1.4.3 2 2.3 2 6.2 0 3.4 0 3.6-1.6 5.2a11 11 0 0 0-3.8 8.8c0 7 4.9 11.9 11.8 11.9 6.8 0 11.8-5 11.8-12 0-3.6-.8-5.5-3.5-8.4l-1.9-2-.2-5.6a19 19 0 0 0-1.2-7.8 17.7 17.7 0 0 0-7.9-8l-2.7-1.4-19.3-.2-19.2-.1-1-1.3c-.7-.9-1-2-1-3.8v-2.6l14-.1c13.3-.2 14-.2 16.3-1.3 3-1.4 5.8-4 7.5-7.2l1.3-2.4.1-14.1c.2-12.5.3-14.2 1-14.7.6-.5 4.2-.6 15-.6H399l1 1.5c1.5 2 4.9 3.8 7.9 4.2 7.1.7 13.1-4.7 13.1-11.8 0-3.7-1.3-6.7-3.9-9-4.7-4.3-11.4-4.1-16.2.3l-2.2 2-16 .2-16 .2-2.5 1.3c-1.3.7-3.4 2.3-4.4 3.5-3.4 4-3.7 5-3.9 20.2 0 7.4-.2 13.7-.3 14-.2.5-2.7.6-10.3.6h-10.1l1.9-1c2.9-1.5 6-4.7 7.4-7.7l1.3-2.7.3-28.4c.2-27.4.3-28.4 1.1-29 .7-.5 2.4-.7 5.8-.7 4.6 0 4.9 0 5.8 1.2a12 12 0 0 0 8.3 4c5.7.5 10.6-3 12.2-8.3 1-3 1-4 0-7.1A11.4 11.4 0 0 0 367.9.1c-3.7 0-6.5 1.2-8.7 3.7l-1.4 1.6h-5.1c-9.4 0-14.5 2.8-17.9 9.7l-1.6 3.2-.2 28.1c-.3 27.2-.3 28.2-1.2 28.9-.7.5-2.9.7-9.4.7H314V65.7h1.7c3.4 0 7.1-2.3 9-5.6.7-1.2.8-3.7.9-19.1 0-12 0-18.9-.4-21.1a24.4 24.4 0 0 0-16.6-19 21 21 0 0 0-8.3-.7 16 16 0 0 0-8.6 1.9 24.3 24.3 0 0 0-13.2 15.4c-.7 2.8-.8 5.9-.8 21.5 0 19.4 0 20.2 2.2 23.1 1.4 1.8 5.2 3.6 7.6 3.6h1.8V76h-8.7c-8.2 0-8.7 0-9.6-1-.8-1-.9-2.3-1.1-29.3l-.3-28.3-1.2-2.4a18.1 18.1 0 0 0-8.2-8c-2.4-1-3.4-1.2-8.9-1.4-5.9-.2-6.2-.2-7-1.3a12 12 0 0 0-3.2-2.7 12 12 0 0 0-11.4-.2Z" fill="url(#paint2_linear_509_72)"/>
    <path id="octo-9" d="M657.7 1.3c-5.3 2.7-7.6 8.5-5.9 14.5.8 2.7 4.8 6.8 7.5 7.5a12 12 0 0 0 12.1-2.8l1.9-2h4.9c4.4 0 5 .2 5.9 1 .8 1 .9 2.5 1.1 29.4l.3 28.3 1.2 2.4c1.4 2.9 4.5 6 7 7.5l2 1h-9.8c-7.4 0-9.9-.1-10.3-.6a91 91 0 0 1-.7-14.7l-.1-14.1-1.5-2.6a14.9 14.9 0 0 0-7.8-6.9c-2.5-.9-3.8-1-18-1h-15.2l-1.4-1.6a12 12 0 1 0-13.6 19c4.3 2 8.8 1.2 12.9-2.4l2.6-2.3h13.7c11.7 0 14 0 14.8.8 1.1.7 1.1.8 1.1 14 0 12.3.1 13.6 1 16 1.3 3.3 4.2 6.4 7.5 8 2.4 1.3 2.8 1.3 16.5 1.5l14.1.3v2.8c0 4.7 1.2 4.4-21 4.7-18.9.3-19.3.3-21.8 1.4a19.6 19.6 0 0 0-7.9 7.6c-1.3 2.6-2 6.3-2 10.8 0 3.4 0 3.7-1.4 4.8-.8.7-2 2.5-2.8 4a8.7 8.7 0 0 0-1 5.7c.9 10.8 13.7 15.3 20.8 7.3 2.1-2.6 2.9-4.6 2.9-8 0-3.7-.8-5.6-3.4-8.4-2-2.2-2-2.2-2-6.1 0-6.4-1.2-6 17.8-6 8.8 0 17.7-.1 19.7-.4 5.7-.6 9.5-3 12.6-7.8l1.4-2.1v24c0 22.3-.1 24.2-1 26a8.8 8.8 0 0 1-15.8 1c-1-1.7-1.2-2.6-1.2-6 0-4 0-4 1.5-5.4 1-.6 2-2.3 2.7-3.7a12 12 0 0 0-13.2-16.8 12.2 12.2 0 0 0-5.6 20.6c1.4 1.4 1.5 1.7 1.5 4.8 0 10 4.8 18 13 22 2.8 1.3 4 1.5 8 1.6 3.5.2 5.3 0 7.3-.6 5.4-1.7 9.5-4.9 12.2-9.4 3.3-5.4 3.2-4.8 3.2-37.6v-29.6h6.8v28.4c0 16.8.2 29.4.5 31a23.2 23.2 0 0 0 12.5 16.1c3.1 1.6 3.6 1.6 9.1 1.6 5.3 0 6-.1 8.5-1.3a22 22 0 0 0 13.1-21v-4.3l2.2-2.1c3.3-3.4 4.3-7.5 3-12-1-3.1-2.8-5.4-5.8-7a9.5 9.5 0 0 0-5.7-1.4c-10.8 0-15.9 13.2-8 20.6 1.6 1.7 1.7 1.8 1.7 5.1 0 4-1 6.8-3.3 8.7a8.8 8.8 0 0 1-13.5-2.3l-1.2-2v-48.6l1.7 2.5c1 1.4 2.7 3.2 4 4 4.3 3 4.5 3 24.4 3.3 10 .1 18.7.3 19.3.4 1.4.3 2 2.3 2 6.2 0 3.4 0 3.6-1.6 5.2a11 11 0 0 0-3.8 8.8c0 7 4.9 11.9 11.8 11.9 6.8 0 11.8-5 11.8-12 0-3.6-.8-5.5-3.5-8.4l-1.9-2-.2-5.6a19 19 0 0 0-1.2-7.8 17.7 17.7 0 0 0-7.9-8l-2.7-1.4-19.3-.2-19.2-.1-1-1.3c-.7-.9-1-2-1-3.8v-2.6l14-.1c13.3-.2 14-.2 16.3-1.3 3-1.4 5.8-4 7.5-7.2l1.3-2.4.1-14.1c.2-12.5.3-14.2 1-14.7.6-.5 4.2-.6 15-.6H827l1 1.5c1.5 2 4.9 3.8 7.9 4.2 7.1.7 13.1-4.7 13.1-11.8 0-3.7-1.3-6.7-3.9-9-4.7-4.3-11.4-4.1-16.2.3l-2.2 2-16 .2-16 .2-2.5 1.3c-1.3.7-3.4 2.3-4.4 3.5-3.4 4-3.7 5-3.9 20.2 0 7.4-.2 13.7-.3 14-.2.5-2.7.6-10.3.6h-10.1l1.9-1c2.9-1.5 6-4.7 7.4-7.7l1.3-2.7.3-28.4c.2-27.4.3-28.4 1.1-29 .7-.5 2.4-.7 5.8-.7 4.6 0 4.9 0 5.8 1.2a12 12 0 0 0 8.3 4c5.7.5 10.6-3 12.2-8.3 1-3 1-4 0-7.1A11.4 11.4 0 0 0 795.9.1c-3.7 0-6.5 1.2-8.7 3.7l-1.4 1.6h-5.1c-9.4 0-14.5 2.8-17.9 9.7l-1.6 3.2-.2 28.1c-.3 27.2-.3 28.2-1.2 28.9-.7.5-2.9.7-9.4.7H742V65.7h1.7c3.4 0 7.1-2.3 9-5.6.7-1.2.8-3.7.9-19.1 0-12 0-18.9-.4-21.1a24.4 24.4 0 0 0-16.6-19c-2.7-.7-4.3-1-8.3-.7a16 16 0 0 0-8.6 1.9 24.3 24.3 0 0 0-13.2 15.4c-.7 2.8-.8 5.9-.8 21.5 0 19.4 0 20.2 2.2 23.1 1.4 1.8 5.2 3.6 7.6 3.6h1.8V76h-8.7c-8.2 0-8.7 0-9.6-1-.8-1-.9-2.3-1.1-29.3l-.3-28.3-1.2-2.4a18.1 18.1 0 0 0-8.2-8c-2.4-1-3.4-1.2-8.9-1.4-5.9-.2-6.2-.2-7-1.3a12 12 0 0 0-3.2-2.7 12 12 0 0 0-11.4-.2Z" fill="url(#paint3_linear_509_72)" fill-opacity=".2"/>
    <path id="octo-8" d="M47.7 359.3c-5.3 2.7-7.6 8.5-5.9 14.5.8 2.7 4.8 6.8 7.5 7.5a12 12 0 0 0 12.1-2.8l1.9-2h4.9c4.4 0 5 .2 5.9 1 .8 1 .9 2.5 1.1 29.4l.3 28.3 1.2 2.4c1.4 2.9 4.5 6 7 7.5l2 1h-9.8c-7.4 0-9.9-.1-10.3-.6-.3-.4-.6-5.7-.7-14.7l-.1-14.1-1.5-2.6a14.9 14.9 0 0 0-7.8-6.9c-2.5-.9-3.8-1-18-1H22.4l-1.4-1.6a12 12 0 1 0-13.6 19c4.3 2 8.8 1.2 12.9-2.4l2.6-2.3h13.7c11.7 0 14 0 14.8.8 1.1.7 1.1.8 1.1 14 0 12.3.1 13.6 1 16 1.3 3.3 4.2 6.4 7.5 8 2.4 1.3 2.8 1.3 16.5 1.6l14.1.2v2.8c0 4.7 1.2 4.4-21 4.7-18.9.3-19.3.3-21.8 1.4a19.6 19.6 0 0 0-7.9 7.6c-1.3 2.6-2 6.3-2 10.8 0 3.4 0 3.7-1.4 4.8-.8.7-2 2.5-2.8 4a8.7 8.7 0 0 0-1 5.7c.9 10.8 13.7 15.3 20.8 7.3 2.1-2.6 2.9-4.6 2.9-8 0-3.7-.8-5.6-3.4-8.4-2-2.2-2-2.2-2-6.1 0-6.4-1.2-6 17.8-6 8.8 0 17.7-.1 19.7-.4 5.7-.6 9.5-3 12.6-7.8l1.4-2.1v24c0 22.3-.1 24.2-1 26a8.8 8.8 0 0 1-15.8 1c-1-1.7-1.2-2.6-1.2-6 0-4 0-4 1.5-5.4 1-.6 2-2.3 2.7-3.7a12 12 0 0 0-13.2-16.8 12.2 12.2 0 0 0-5.6 20.6c1.4 1.4 1.5 1.7 1.5 4.8 0 10 4.8 18 13 22 2.8 1.3 4 1.5 8 1.6 3.5.2 5.3 0 7.3-.6 5.4-1.7 9.5-4.9 12.2-9.4 3.3-5.4 3.2-4.8 3.2-37.6v-29.6h6.8v28.4c0 16.8.2 29.4.5 31a23.2 23.2 0 0 0 12.5 16.1c3.1 1.6 3.6 1.6 9.1 1.6 5.3 0 6-.1 8.5-1.3a22 22 0 0 0 13.1-21v-4.3l2.2-2.1c3.3-3.4 4.3-7.5 3-12-1-3.1-2.8-5.4-5.8-7a9.5 9.5 0 0 0-5.7-1.4c-10.8 0-15.9 13.2-8 20.6 1.6 1.7 1.7 1.8 1.7 5.1 0 4-1 6.8-3.3 8.7a8.8 8.8 0 0 1-13.5-2.3l-1.2-2v-48.6l1.7 2.5c1 1.4 2.7 3.2 4 4 4.3 3 4.5 3 24.4 3.3 10 .1 18.7.3 19.3.4 1.4.3 2 2.3 2 6.2 0 3.4 0 3.6-1.6 5.2a11 11 0 0 0-3.8 8.8c0 7 4.9 11.9 11.8 11.9 6.8 0 11.8-5 11.8-12 0-3.6-.8-5.5-3.5-8.4l-1.9-2-.2-5.6a19 19 0 0 0-1.2-7.8 17.7 17.7 0 0 0-7.9-8l-2.7-1.4-19.3-.2-19.2-.1-1-1.3c-.7-.9-1-2-1-3.8v-2.6l14-.1c13.3-.2 14-.2 16.3-1.3 3-1.4 5.8-4 7.5-7.2l1.3-2.4.1-14.1c.2-12.5.3-14.2 1-14.7a67 67 0 0 1 15-.6H217l1 1.5c1.5 2 4.9 3.8 7.9 4.2 7.1.7 13.1-4.7 13.1-11.8 0-3.7-1.3-6.7-3.9-9-4.7-4.3-11.4-4.1-16.2.3l-2.2 2-16 .2-16 .2-2.5 1.3c-1.3.7-3.4 2.3-4.4 3.5-3.4 4-3.7 5-3.9 20.2 0 7.4-.2 13.7-.3 14-.2.5-2.7.6-10.3.6h-10.1l1.9-1c2.9-1.5 6-4.7 7.4-7.7l1.3-2.7.3-28.4c.2-27.4.3-28.4 1.2-29 .6-.5 2.3-.7 5.7-.7 4.6 0 4.9 0 5.8 1.2a12 12 0 0 0 8.3 4c5.7.5 10.6-3 12.2-8.4 1-3 1-3.8 0-7a11.4 11.4 0 0 0-11.4-8.3c-3.7 0-6.5 1.2-8.7 3.7l-1.4 1.6h-5.1c-9.4 0-14.5 2.8-17.9 9.7l-1.6 3.2-.2 28.1c-.3 27.2-.3 28.2-1.2 28.9-.7.5-2.9.7-9.4.7H132v-10.3h1.7c3.4 0 7.1-2.3 9-5.6.7-1.2.8-3.7.9-19.1 0-12 0-18.9-.4-21.1a24.4 24.4 0 0 0-16.6-19c-2.7-.7-4.3-1-8.3-.7a16 16 0 0 0-8.6 1.9 24.3 24.3 0 0 0-13.2 15.4c-.7 2.8-.8 5.9-.8 21.5 0 19.4 0 20.2 2.2 23.1 1.4 1.8 5.2 3.6 7.6 3.6h1.8V434h-8.7c-8.2 0-8.7 0-9.6-1-.8-1-.9-2.3-1.1-29.3l-.3-28.3-1.2-2.4a18.1 18.1 0 0 0-8.2-8c-2.4-1-3.4-1.2-8.9-1.4-5.9-.2-6.2-.2-7-1.3a12 12 0 0 0-3.2-2.7 12 12 0 0 0-11.4-.2Z" fill="url(#paint4_linear_509_72)" fill-opacity=".8"/>
    <path id="octo-7" d="M189.7 223.3c-5.3 2.7-7.6 8.5-5.9 14.5.8 2.7 4.8 6.8 7.5 7.5a12 12 0 0 0 12.1-2.8l1.9-2h4.9c4.4 0 5 .2 5.9 1 .8 1 .9 2.5 1.1 29.4l.3 28.3 1.2 2.4c1.4 2.9 4.5 6 7 7.5l2 1h-9.8c-7.4 0-9.9-.1-10.3-.6a91 91 0 0 1-.7-14.7l-.1-14.1-1.5-2.6a14.9 14.9 0 0 0-7.8-6.9c-2.5-.9-3.8-1-18-1h-15.2l-1.4-1.6a12 12 0 1 0-13.6 19c4.3 2 8.8 1.2 12.9-2.4l2.6-2.3h13.7c11.7 0 14 0 14.8.8 1.1.7 1.1.8 1.1 14 0 12.3.1 13.6 1 16 1.3 3.3 4.2 6.4 7.5 8 2.4 1.3 2.8 1.3 16.5 1.6l14.1.2v2.8c0 4.7 1.2 4.4-21 4.7-18.9.3-19.3.3-21.8 1.4a19.6 19.6 0 0 0-7.9 7.6c-1.3 2.6-2 6.3-2 10.8 0 3.4 0 3.7-1.4 4.8-.8.7-2 2.5-2.8 4a8.7 8.7 0 0 0-1 5.7c.9 10.8 13.7 15.3 20.8 7.3 2.1-2.6 2.9-4.6 2.9-8 0-3.7-.8-5.6-3.4-8.4-2-2.2-2-2.2-2-6.1 0-6.4-1.2-6 17.8-6 8.8 0 17.7-.1 19.7-.4 5.7-.6 9.5-3 12.6-7.8l1.4-2.1v24c0 22.3-.1 24.2-1 26a8.8 8.8 0 0 1-15.8 1c-1-1.7-1.2-2.6-1.2-6 0-4 0-4 1.5-5.4 1-.6 2-2.3 2.7-3.7a12 12 0 0 0-13.2-16.8 12.2 12.2 0 0 0-5.6 20.6c1.4 1.4 1.5 1.7 1.5 4.8 0 10 4.8 18 13 22 2.8 1.3 4 1.5 8 1.6 3.5.2 5.3 0 7.3-.6 5.4-1.7 9.5-4.9 12.2-9.4 3.3-5.4 3.2-4.8 3.2-37.6v-29.6h6.8v28.4c0 16.8.2 29.4.5 31a23.2 23.2 0 0 0 12.5 16.1c3.1 1.6 3.6 1.6 9.1 1.6 5.3 0 6-.1 8.5-1.3a22 22 0 0 0 13.1-21v-4.3l2.2-2.1c3.3-3.4 4.3-7.5 3-12-1-3.1-2.8-5.4-5.8-7a9.5 9.5 0 0 0-5.7-1.4c-10.8 0-15.9 13.2-8 20.6 1.6 1.7 1.7 1.8 1.7 5.1 0 4-1 6.8-3.3 8.7a8.8 8.8 0 0 1-13.5-2.3l-1.2-2v-48.6l1.7 2.5c1 1.4 2.7 3.2 4 4 4.3 3 4.5 3 24.4 3.3 10 .1 18.7.3 19.3.4 1.4.3 2 2.3 2 6.2 0 3.4 0 3.6-1.6 5.2a11 11 0 0 0-3.8 8.8c0 7 4.9 11.9 11.8 11.9 6.8 0 11.8-5 11.8-12 0-3.6-.8-5.5-3.5-8.4l-1.9-2-.2-5.6a19 19 0 0 0-1.2-7.8 17.7 17.7 0 0 0-7.9-8l-2.7-1.4-19.3-.2-19.2-.1-1-1.3c-.7-.9-1-2-1-3.8v-2.6l14-.1c13.3-.2 14-.2 16.3-1.3 3-1.4 5.8-4 7.5-7.2l1.3-2.4.1-14.1c.2-12.5.3-14.2 1-14.7a67 67 0 0 1 15-.6H359l1 1.5c1.5 2 4.9 3.8 7.9 4.2 7.1.7 13.1-4.7 13.1-11.8 0-3.7-1.3-6.7-3.9-9-4.7-4.3-11.4-4.1-16.2.3l-2.2 2-16 .2-16 .2-2.5 1.3c-1.3.7-3.4 2.3-4.4 3.5-3.4 4-3.7 5-3.9 20.2 0 7.4-.2 13.7-.3 14-.2.5-2.7.6-10.3.6h-10.1l1.9-1c2.9-1.5 6-4.7 7.4-7.7l1.3-2.7.3-28.4c.2-27.4.3-28.4 1.1-29 .7-.5 2.4-.7 5.8-.7 4.6 0 4.9 0 5.8 1.2a12 12 0 0 0 8.3 4c5.7.5 10.6-3 12.2-8.4 1-3 1-3.8 0-7a11.4 11.4 0 0 0-11.4-8.3c-3.7 0-6.5 1.2-8.7 3.7l-1.4 1.6h-5.1c-9.4 0-14.5 2.8-17.9 9.7l-1.6 3.2-.2 28.1c-.3 27.2-.3 28.2-1.2 28.9-.7.5-2.9.7-9.4.7H274v-10.3h1.7c3.4 0 7.1-2.3 9-5.6.7-1.2.8-3.7.9-19.1 0-12 0-18.9-.4-21.1a24.4 24.4 0 0 0-16.6-19c-2.7-.7-4.3-1-8.3-.7a16 16 0 0 0-8.6 1.9 24.3 24.3 0 0 0-13.2 15.4c-.7 2.8-.8 5.9-.8 21.5 0 19.4 0 20.2 2.2 23.1 1.4 1.8 5.2 3.6 7.6 3.6h1.8V298h-8.7c-8.2 0-8.7 0-9.6-1-.8-1-.9-2.3-1.1-29.3l-.3-28.3-1.2-2.4a18.1 18.1 0 0 0-8.2-8c-2.4-1-3.4-1.2-8.9-1.4-5.9-.2-6.2-.2-7-1.3a12 12 0 0 0-3.2-2.7 12 12 0 0 0-11.4-.2Z" fill="url(#paint5_linear_509_72)"/>
    <path id="octo-6" d="M696.7 359.3c-5.3 2.7-7.6 8.5-5.9 14.5.8 2.7 4.8 6.8 7.5 7.5a12 12 0 0 0 12.1-2.8l1.9-2h4.9c4.4 0 5 .2 5.9 1 .8 1 .9 2.5 1.1 29.4l.3 28.3 1.2 2.4c1.4 2.9 4.5 6 7 7.5l2 1h-9.8c-7.4 0-9.9-.1-10.3-.6a91 91 0 0 1-.7-14.7l-.1-14.1-1.5-2.6a14.9 14.9 0 0 0-7.8-6.9c-2.5-.9-3.8-1-18-1h-15.2l-1.4-1.6a12 12 0 1 0-13.6 19c4.3 2 8.8 1.2 12.9-2.4l2.6-2.3h13.7c11.7 0 14 0 14.8.8 1.1.7 1.1.8 1.1 14 0 12.3.1 13.6 1 16 1.3 3.3 4.2 6.4 7.5 8 2.4 1.3 2.8 1.3 16.5 1.6l14.1.2v2.8c0 4.7 1.2 4.4-21 4.7-18.9.3-19.3.3-21.8 1.4a19.6 19.6 0 0 0-7.9 7.6c-1.3 2.6-2 6.3-2 10.8 0 3.4 0 3.7-1.4 4.8-.8.7-2 2.5-2.8 4a8.7 8.7 0 0 0-1 5.7c.9 10.8 13.7 15.3 20.8 7.3 2.1-2.6 2.9-4.6 2.9-8 0-3.7-.8-5.6-3.4-8.4-2-2.2-2-2.2-2-6.1 0-6.4-1.2-6 17.8-6 8.8 0 17.7-.1 19.7-.4 5.7-.6 9.5-3 12.6-7.8l1.4-2.1v24c0 22.3-.1 24.2-1 26a8.8 8.8 0 0 1-15.8 1c-1-1.7-1.2-2.6-1.2-6 0-4 0-4 1.5-5.4 1-.6 2-2.3 2.7-3.7a12 12 0 0 0-13.2-16.8 12.2 12.2 0 0 0-5.6 20.6c1.4 1.4 1.5 1.7 1.5 4.8 0 10 4.8 18 13 22 2.8 1.3 4 1.5 8 1.6 3.5.2 5.3 0 7.3-.6 5.4-1.7 9.5-4.9 12.2-9.4 3.3-5.4 3.2-4.8 3.2-37.6v-29.6h6.8v28.4c0 16.8.2 29.4.5 31a23.2 23.2 0 0 0 12.5 16.1c3.1 1.6 3.6 1.6 9.1 1.6 5.3 0 6-.1 8.5-1.3a22 22 0 0 0 13.1-21v-4.3l2.2-2.1c3.3-3.4 4.3-7.5 3-12-1-3.1-2.8-5.4-5.8-7a9.5 9.5 0 0 0-5.7-1.4c-10.8 0-15.9 13.2-8 20.6 1.6 1.7 1.7 1.8 1.7 5.1 0 4-1 6.8-3.3 8.7a8.8 8.8 0 0 1-13.5-2.3l-1.2-2v-48.6l1.7 2.5c1 1.4 2.7 3.2 4 4 4.3 3 4.5 3 24.4 3.3 10 .1 18.7.3 19.3.4 1.4.3 2 2.3 2 6.2 0 3.4 0 3.6-1.6 5.2a11 11 0 0 0-3.8 8.8c0 7 4.9 11.9 11.8 11.9 6.8 0 11.8-5 11.8-12 0-3.6-.8-5.5-3.5-8.4l-1.9-2-.2-5.6a19 19 0 0 0-1.2-7.8 17.7 17.7 0 0 0-7.9-8l-2.7-1.4-19.3-.2-19.2-.1-1-1.3c-.7-.9-1-2-1-3.8v-2.6l14-.1c13.3-.2 14-.2 16.3-1.3 3-1.4 5.8-4 7.5-7.2l1.3-2.4.1-14.1c.2-12.5.3-14.2 1-14.7a67 67 0 0 1 15-.6H866l1 1.5c1.5 2 4.9 3.8 7.9 4.2 7.1.7 13.1-4.7 13.1-11.8 0-3.7-1.3-6.7-3.9-9-4.7-4.3-11.4-4.1-16.2.3l-2.2 2-16 .2-16 .2-2.5 1.3c-1.3.7-3.4 2.3-4.4 3.5-3.4 4-3.7 5-3.9 20.2 0 7.4-.2 13.7-.3 14-.2.5-2.7.6-10.3.6h-10.1l1.9-1c2.9-1.5 6-4.7 7.4-7.7l1.3-2.7.3-28.4c.2-27.4.3-28.4 1.1-29 .7-.5 2.4-.7 5.8-.7 4.6 0 4.9 0 5.8 1.2a12 12 0 0 0 8.3 4c5.7.5 10.6-3 12.2-8.4 1-3 1-3.8 0-7a11.4 11.4 0 0 0-11.4-8.3c-3.7 0-6.5 1.2-8.7 3.7l-1.4 1.6h-5.1c-9.4 0-14.5 2.8-17.9 9.7l-1.6 3.2-.2 28.1c-.3 27.2-.3 28.2-1.2 28.9-.7.5-2.9.7-9.4.7H781v-10.3h1.7c3.4 0 7.1-2.3 9-5.6.7-1.2.8-3.7.9-19.1 0-12 0-18.9-.4-21.1a24.4 24.4 0 0 0-16.6-19 21 21 0 0 0-8.3-.7 16 16 0 0 0-8.6 1.9 24.3 24.3 0 0 0-13.2 15.4c-.7 2.8-.8 5.9-.8 21.5 0 19.4 0 20.2 2.2 23.1 1.4 1.8 5.2 3.6 7.6 3.6h1.8V434h-8.7c-8.2 0-8.7 0-9.6-1-.8-1-.9-2.3-1.1-29.3l-.3-28.3-1.2-2.4a18.1 18.1 0 0 0-8.2-8c-2.4-1-3.4-1.2-8.9-1.4-5.9-.2-6.2-.2-7-1.3a12 12 0 0 0-3.2-2.7 12 12 0 0 0-11.4-.2Z" fill="url(#paint6_linear_509_72)"/>
    <path id="octo-5" d="M371.7 313.3c-5.3 2.7-7.6 8.5-5.9 14.5.8 2.7 4.8 6.8 7.5 7.5a12 12 0 0 0 12.1-2.8l1.9-2h4.9c4.4 0 5 .2 5.9 1 .8 1 .9 2.5 1.1 29.4l.3 28.3 1.2 2.4c1.4 2.9 4.5 6 7 7.5l2 1h-9.8c-7.4 0-9.9-.1-10.3-.6a91 91 0 0 1-.7-14.7l-.1-14.1-1.5-2.6a14.9 14.9 0 0 0-7.8-6.9c-2.5-.9-3.8-1-18-1h-15.2l-1.4-1.6a12 12 0 1 0-13.6 19c4.3 2 8.8 1.2 12.9-2.4l2.6-2.3h13.7c11.7 0 14 0 14.8.8 1.1.7 1.1.8 1.1 14 0 12.3.1 13.6 1 16 1.3 3.3 4.2 6.4 7.5 8 2.4 1.3 2.8 1.3 16.5 1.6l14.1.2v2.8c0 4.7 1.2 4.4-21 4.7-18.9.3-19.3.3-21.8 1.4a19.6 19.6 0 0 0-7.9 7.6c-1.3 2.6-2 6.3-2 10.8 0 3.4 0 3.7-1.4 4.8-.8.7-2 2.5-2.8 4a8.7 8.7 0 0 0-1 5.7c.9 10.8 13.7 15.3 20.8 7.3 2.1-2.6 2.9-4.6 2.9-8 0-3.7-.8-5.6-3.4-8.4-2-2.2-2-2.2-2-6.1 0-6.4-1.2-6 17.8-6 8.8 0 17.7-.1 19.7-.4 5.7-.6 9.5-3 12.6-7.8l1.4-2.1v24c0 22.3-.1 24.2-1 26a8.8 8.8 0 0 1-15.8 1c-1-1.7-1.2-2.6-1.2-6 0-4 0-4 1.5-5.4 1-.6 2-2.3 2.7-3.7a12 12 0 0 0-13.2-16.8 12.2 12.2 0 0 0-5.6 20.6c1.4 1.4 1.5 1.7 1.5 4.8 0 10 4.8 18 13 22 2.8 1.3 4 1.5 8 1.6 3.5.2 5.3 0 7.3-.6 5.4-1.7 9.5-4.9 12.2-9.4 3.3-5.4 3.2-4.8 3.2-37.6v-29.6h6.8v28.4c0 16.8.2 29.4.5 31a23.2 23.2 0 0 0 12.5 16.1c3.1 1.6 3.6 1.6 9.1 1.6 5.3 0 6-.1 8.5-1.3a22 22 0 0 0 13.1-21v-4.3l2.2-2.1c3.3-3.4 4.3-7.5 3-12-1-3.1-2.8-5.4-5.8-7a9.5 9.5 0 0 0-5.7-1.4c-10.8 0-15.9 13.2-8 20.6 1.6 1.7 1.7 1.8 1.7 5.1 0 4-1 6.8-3.3 8.7a8.8 8.8 0 0 1-13.5-2.3l-1.2-2v-48.6l1.7 2.5c1 1.4 2.7 3.2 4 4 4.3 3 4.5 3 24.4 3.3 10 .1 18.7.3 19.3.4 1.4.3 2 2.3 2 6.2 0 3.4 0 3.6-1.6 5.2a11 11 0 0 0-3.8 8.8c0 7 4.9 11.9 11.8 11.9 6.8 0 11.8-5 11.8-12 0-3.6-.8-5.5-3.5-8.4l-1.9-2-.2-5.6a19 19 0 0 0-1.2-7.8 17.7 17.7 0 0 0-7.9-8l-2.7-1.4-19.3-.2-19.2-.1-1-1.3c-.7-.9-1-2-1-3.8v-2.6l14-.1c13.3-.2 14-.2 16.3-1.3 3-1.4 5.8-4 7.5-7.2l1.3-2.4.1-14.1c.2-12.5.3-14.2 1-14.7a67 67 0 0 1 15-.6H541l1 1.5c1.5 2 4.9 3.8 7.9 4.2 7.1.7 13.1-4.7 13.1-11.8 0-3.7-1.3-6.7-3.9-9-4.7-4.3-11.4-4.1-16.2.3l-2.2 2-16 .2-16 .2-2.5 1.3c-1.3.7-3.4 2.3-4.4 3.5-3.4 4-3.7 5-3.9 20.2 0 7.4-.2 13.7-.3 14-.2.5-2.7.6-10.3.6h-10.1l1.9-1c2.9-1.5 6-4.7 7.4-7.7l1.3-2.7.3-28.4c.2-27.4.3-28.4 1.1-29 .7-.5 2.4-.7 5.8-.7 4.6 0 4.9 0 5.8 1.2a12 12 0 0 0 8.3 4c5.7.5 10.6-3 12.2-8.4 1-3 1-3.8 0-7a11.4 11.4 0 0 0-11.4-8.3c-3.7 0-6.5 1.2-8.7 3.7l-1.4 1.6h-5.1c-9.4 0-14.5 2.8-17.9 9.7l-1.6 3.2-.2 28.1c-.3 27.2-.3 28.2-1.2 28.9-.7.5-2.9.7-9.4.7H456v-10.3h1.7c3.4 0 7.1-2.3 9-5.6.7-1.2.8-3.7.9-19.1 0-12 0-18.9-.4-21.1a24.4 24.4 0 0 0-16.6-19c-2.7-.7-4.3-1-8.3-.7a16 16 0 0 0-8.6 1.9 24.3 24.3 0 0 0-13.2 15.4c-.7 2.8-.8 5.9-.8 21.5 0 19.4 0 20.2 2.2 23.1 1.4 1.8 5.2 3.6 7.6 3.6h1.8V388h-8.7c-8.2 0-8.7 0-9.6-1-.8-1-.9-2.3-1.1-29.3l-.3-28.3-1.2-2.4a18.1 18.1 0 0 0-8.2-8c-2.4-1-3.4-1.2-8.9-1.4-5.9-.2-6.2-.2-7-1.3a12 12 0 0 0-3.2-2.7 12 12 0 0 0-11.4-.2Z" fill="url(#paint7_linear_509_72)" fill-opacity=".3"/>
    <path id="octo-4" d="M229.7 449.3c-5.3 2.7-7.6 8.5-5.9 14.5.8 2.7 4.8 6.8 7.5 7.5a12 12 0 0 0 12.1-2.8l1.9-2h4.9c4.4 0 5 .2 5.9 1 .8 1 .9 2.5 1.1 29.4l.3 28.3 1.2 2.4c1.4 2.9 4.5 6 7 7.5l2 1h-9.8c-7.4 0-9.9-.1-10.3-.6a91 91 0 0 1-.7-14.7l-.1-14.1-1.5-2.6a14.9 14.9 0 0 0-7.8-6.9c-2.5-.9-3.8-1-18-1h-15.2l-1.4-1.6a12 12 0 1 0-13.6 19.1c4.3 2 8.8 1.1 12.9-2.5l2.6-2.3h13.7c11.7 0 14 0 14.8.8 1.1.7 1.1.8 1.1 14 0 12.3.1 13.6 1 16 1.3 3.3 4.2 6.4 7.5 8 2.4 1.3 2.8 1.3 16.5 1.5l14.1.3v2.8c0 4.7 1.2 4.4-21 4.7-18.9.3-19.3.3-21.8 1.4a19.6 19.6 0 0 0-7.9 7.6c-1.3 2.6-2 6.3-2 10.8 0 3.4 0 3.7-1.4 4.8-.8.7-2 2.5-2.8 4a8.7 8.7 0 0 0-1 5.7c.9 10.8 13.7 15.3 20.8 7.3 2.1-2.6 2.9-4.6 2.9-8 0-3.7-.8-5.6-3.4-8.4-2-2.2-2-2.2-2-6.1 0-6.4-1.2-6 17.8-6 8.8 0 17.7-.1 19.7-.4 5.7-.6 9.5-3 12.6-7.8l1.4-2.1v24c0 22.3-.1 24.2-1 26a8.8 8.8 0 0 1-15.8 1c-1-1.7-1.2-2.6-1.2-6 0-4 0-4 1.5-5.4 1-.6 2-2.3 2.7-3.7a12 12 0 0 0-13.2-16.8 12.2 12.2 0 0 0-5.6 20.6c1.4 1.4 1.5 1.7 1.5 4.8 0 10 4.8 18 13 22 2.8 1.3 4 1.5 8 1.6 3.5.2 5.3 0 7.3-.6 5.4-1.7 9.5-4.9 12.2-9.4 3.3-5.4 3.2-4.8 3.2-37.6v-29.6h6.8v28.4c0 16.8.2 29.4.5 31a23.2 23.2 0 0 0 12.5 16.1c3.1 1.6 3.6 1.6 9.1 1.6 5.3 0 6-.1 8.5-1.3a22 22 0 0 0 13.1-21v-4.3l2.2-2.1c3.3-3.4 4.3-7.5 3-12-1-3.1-2.8-5.4-5.8-7a9.5 9.5 0 0 0-5.7-1.4c-10.8 0-15.9 13.2-8 20.6 1.6 1.7 1.7 1.8 1.7 5.1 0 4-1 6.8-3.3 8.7a8.8 8.8 0 0 1-13.5-2.3l-1.2-2v-48.6l1.7 2.5c1 1.4 2.7 3.2 4 4 4.3 3 4.5 3 24.4 3.3 10 .1 18.7.3 19.3.4 1.4.3 2 2.3 2 6.2 0 3.4 0 3.6-1.6 5.2a11 11 0 0 0-3.8 8.8c0 7 4.9 11.9 11.8 11.9 6.8 0 11.8-5 11.8-12 0-3.6-.8-5.5-3.5-8.4l-1.9-2-.2-5.6a19 19 0 0 0-1.2-7.8 17.7 17.7 0 0 0-7.9-8l-2.7-1.4-19.3-.2-19.2-.1-1-1.3c-.7-.9-1-2-1-3.8v-2.6l14-.1c13.3-.2 14-.2 16.3-1.3 3-1.4 5.8-4 7.5-7.2l1.3-2.4.1-14.1c.2-12.5.3-14.2 1-14.7a67 67 0 0 1 15-.6H399l1 1.5c1.5 2 4.9 3.8 7.9 4.2 7.1.7 13.1-4.7 13.1-11.8 0-3.7-1.3-6.7-3.9-9-4.7-4.3-11.4-4.1-16.2.3l-2.2 2-16 .2-16 .2-2.5 1.3c-1.3.7-3.4 2.3-4.4 3.5-3.4 4-3.7 5-3.9 20.2 0 7.4-.2 13.7-.3 14-.2.5-2.7.6-10.3.6h-10.1l1.9-1c2.9-1.5 6-4.7 7.4-7.7l1.3-2.7.3-28.4c.2-27.4.3-28.4 1.1-29 .7-.5 2.4-.7 5.8-.7 4.6 0 4.9 0 5.8 1.2a12 12 0 0 0 8.3 4c5.7.5 10.6-3 12.2-8.4 1-3 1-3.8 0-7a11.4 11.4 0 0 0-11.4-8.3c-3.7 0-6.5 1.2-8.7 3.7l-1.4 1.6h-5.1c-9.4 0-14.5 2.8-17.9 9.7l-1.6 3.2-.2 28.1c-.3 27.2-.3 28.2-1.2 28.9-.7.5-2.9.7-9.4.7H314v-10.3h1.7c3.4 0 7.1-2.3 9-5.6.7-1.2.8-3.7.9-19.1 0-12 0-18.9-.4-21.1a24.4 24.4 0 0 0-16.6-19c-2.7-.7-4.3-1-8.3-.7a16 16 0 0 0-8.6 1.9 24.3 24.3 0 0 0-13.2 15.4c-.7 2.8-.8 5.9-.8 21.5 0 19.4 0 20.2 2.2 23.1 1.4 1.8 5.2 3.6 7.6 3.6h1.8V524h-8.7c-8.2 0-8.7 0-9.6-1-.8-1-.9-2.4-1.1-29.4l-.3-28.3-1.2-2.4a18.1 18.1 0 0 0-8.2-8c-2.4-1-3.4-1.2-8.9-1.4-5.9-.2-6.2-.2-7-1.3a12 12 0 0 0-3.2-2.7 12 12 0 0 0-11.4-.2Z" fill="url(#paint8_linear_509_72)" fill-opacity=".3"/>
    <path id="octo-3" d="M543.7 179.3c-5.3 2.7-7.6 8.5-5.9 14.5.8 2.7 4.8 6.8 7.5 7.5a12 12 0 0 0 12.1-2.8l1.9-2h4.9c4.4 0 5 .2 5.9 1 .8 1 .9 2.5 1.1 29.4l.3 28.3 1.2 2.4c1.4 2.9 4.5 6 7 7.5l2 1h-9.8c-7.4 0-9.9-.1-10.3-.6a91 91 0 0 1-.7-14.7l-.1-14.1-1.5-2.6a14.9 14.9 0 0 0-7.8-6.9c-2.5-.9-3.8-1-18-1h-15.2l-1.4-1.6a12 12 0 1 0-13.6 19c4.3 2 8.8 1.2 12.9-2.4l2.6-2.3h13.7c11.7 0 14 0 14.8.8 1.1.7 1.1.8 1.1 14 0 12.3.1 13.6 1 16 1.3 3.3 4.2 6.4 7.5 8 2.4 1.3 2.8 1.3 16.5 1.6l14.1.2v2.8c0 4.7 1.2 4.4-21 4.7-18.9.3-19.3.3-21.8 1.4a19.6 19.6 0 0 0-7.9 7.6c-1.3 2.6-2 6.3-2 10.8 0 3.4 0 3.7-1.4 4.8-.8.7-2 2.5-2.8 4a8.7 8.7 0 0 0-1 5.7c.9 10.8 13.7 15.3 20.8 7.3 2.1-2.6 2.9-4.6 2.9-8 0-3.7-.8-5.6-3.4-8.4-2-2.2-2-2.2-2-6.1 0-6.4-1.2-6 17.8-6 8.8 0 17.7-.1 19.7-.4 5.7-.6 9.5-3 12.6-7.8l1.4-2.1v24c0 22.3-.1 24.2-1 26a8.8 8.8 0 0 1-15.8 1c-1-1.7-1.2-2.6-1.2-6 0-4 0-4 1.5-5.4 1-.6 2-2.3 2.7-3.7a12 12 0 0 0-13.2-16.8 12.2 12.2 0 0 0-5.6 20.6c1.4 1.4 1.5 1.7 1.5 4.8 0 10 4.8 18 13 22 2.8 1.3 4 1.5 8 1.6 3.5.2 5.3 0 7.3-.6 5.4-1.7 9.5-4.9 12.2-9.4 3.3-5.4 3.2-4.8 3.2-37.6v-29.6h6.8v28.4c0 16.8.2 29.4.5 31a23.2 23.2 0 0 0 12.5 16.1c3.1 1.6 3.6 1.6 9.1 1.6 5.3 0 6-.1 8.5-1.3a22 22 0 0 0 13.1-21v-4.3l2.2-2.1c3.3-3.4 4.3-7.5 3-12-1-3.1-2.8-5.4-5.8-7a9.5 9.5 0 0 0-5.7-1.4c-10.8 0-15.9 13.2-8 20.6 1.6 1.7 1.7 1.8 1.7 5.1 0 4-1 6.8-3.3 8.7a8.8 8.8 0 0 1-13.5-2.3l-1.2-2v-48.6l1.7 2.5c1 1.4 2.7 3.2 4 4 4.3 3 4.5 3 24.4 3.3 10 .1 18.7.3 19.3.4 1.4.3 2 2.3 2 6.2 0 3.4 0 3.6-1.6 5.2a11 11 0 0 0-3.8 8.8c0 7 4.9 11.9 11.8 11.9 6.8 0 11.8-5 11.8-12 0-3.6-.8-5.5-3.5-8.4l-1.9-2-.2-5.6a19 19 0 0 0-1.2-7.8 17.7 17.7 0 0 0-7.9-8l-2.7-1.4-19.3-.2-19.2-.1-1-1.3c-.7-.9-1-2-1-3.8v-2.6l14-.1c13.3-.2 14-.2 16.3-1.3 3-1.4 5.8-4 7.5-7.2l1.3-2.4.1-14.1c.2-12.5.3-14.2 1-14.7a67 67 0 0 1 15-.6H713l1 1.5c1.5 2 4.9 3.8 7.9 4.2 7.1.7 13.1-4.7 13.1-11.8 0-3.7-1.3-6.7-3.9-9-4.7-4.3-11.4-4.1-16.2.3l-2.2 2-16 .2-16 .2-2.5 1.3c-1.3.7-3.4 2.3-4.4 3.5-3.4 4-3.7 5-3.9 20.2 0 7.4-.2 13.7-.3 14-.2.5-2.7.6-10.3.6h-10.1l1.9-1c2.9-1.5 6-4.7 7.4-7.7l1.3-2.7.3-28.4c.2-27.4.3-28.4 1.1-29 .7-.5 2.4-.7 5.8-.7 4.6 0 4.9 0 5.8 1.2a12 12 0 0 0 8.3 4c5.7.5 10.6-3 12.2-8.4 1-3 1-3.8 0-7a11.4 11.4 0 0 0-11.4-8.3c-3.7 0-6.5 1.2-8.7 3.7l-1.4 1.6h-5.1c-9.4 0-14.5 2.8-17.9 9.7l-1.6 3.2-.2 28.1c-.3 27.2-.3 28.2-1.2 28.9-.7.5-2.9.7-9.4.7H628v-10.2h1.7c3.4 0 7.1-2.4 9-5.7.7-1.2.8-3.7.9-19.1 0-12 0-18.9-.4-21.1a24.4 24.4 0 0 0-16.6-19 21 21 0 0 0-8.3-.7 16 16 0 0 0-8.6 1.9 24.3 24.3 0 0 0-13.2 15.4c-.7 2.8-.8 5.9-.8 21.5 0 19.3 0 20.2 2.2 23.1 1.4 1.8 5.2 3.6 7.6 3.6h1.8V254h-8.7c-8.2 0-8.7 0-9.6-1-.8-1-.9-2.3-1.1-29.3l-.3-28.3-1.2-2.4a18.1 18.1 0 0 0-8.2-8c-2.4-1-3.4-1.2-8.9-1.4-5.9-.2-6.2-.2-7-1.3a12 12 0 0 0-3.2-2.7 12 12 0 0 0-11.4-.2Z" fill="url(#paint9_linear_509_72)" fill-opacity=".5"/>
    <path id="octo-2" opacity=".7" d="M371.7 133.3c-5.3 2.7-7.6 8.5-5.9 14.5.8 2.7 4.8 6.8 7.5 7.5a12 12 0 0 0 12.1-2.8l1.9-2h4.9c4.4 0 5 .2 5.9 1 .8 1 .9 2.5 1.1 29.4l.3 28.3 1.2 2.4c1.4 2.9 4.5 6 7 7.5l2 1h-9.8c-7.4 0-9.9-.1-10.3-.6a91 91 0 0 1-.7-14.7l-.1-14.1-1.5-2.6a14.9 14.9 0 0 0-7.8-6.9c-2.5-.9-3.8-1-18-1h-15.2l-1.4-1.6a12 12 0 1 0-13.6 19c4.3 2 8.8 1.2 12.9-2.4l2.6-2.3h13.7c11.7 0 14 0 14.8.8 1.1.7 1.1.8 1.1 14 0 12.3.1 13.6 1 16 1.3 3.3 4.2 6.4 7.5 8 2.4 1.3 2.8 1.3 16.5 1.6l14.1.2v2.8c0 4.7 1.2 4.4-21 4.7-18.9.3-19.3.3-21.8 1.4a19.6 19.6 0 0 0-7.9 7.6c-1.3 2.6-2 6.3-2 10.8 0 3.4 0 3.7-1.4 4.8-.8.7-2 2.5-2.8 4a8.7 8.7 0 0 0-1 5.7c.9 10.8 13.7 15.3 20.8 7.3 2.1-2.6 2.9-4.6 2.9-8 0-3.7-.8-5.6-3.4-8.4-2-2.2-2-2.2-2-6.1 0-6.4-1.2-6 17.8-6 8.8 0 17.7-.1 19.7-.4 5.7-.6 9.5-3 12.6-7.8l1.4-2.1v24c0 22.3-.1 24.2-1 26a8.8 8.8 0 0 1-15.8 1c-1-1.7-1.2-2.6-1.2-6 0-4 0-4 1.5-5.4 1-.6 2-2.3 2.7-3.7a12 12 0 0 0-13.2-16.8 12.2 12.2 0 0 0-5.6 20.6c1.4 1.4 1.5 1.7 1.5 4.8 0 10 4.8 18 13 22 2.8 1.3 4 1.5 8 1.6 3.5.2 5.3 0 7.3-.6 5.4-1.7 9.5-4.9 12.2-9.4 3.3-5.4 3.2-4.8 3.2-37.6v-29.6h6.8v28.4c0 16.8.2 29.4.5 31a23.2 23.2 0 0 0 12.5 16.1c3.1 1.6 3.6 1.6 9.1 1.6 5.3 0 6-.1 8.5-1.3a22 22 0 0 0 13.1-21v-4.3l2.2-2.1c3.3-3.4 4.3-7.5 3-12-1-3.1-2.8-5.4-5.8-7a9.5 9.5 0 0 0-5.7-1.4c-10.8 0-15.9 13.2-8 20.6 1.6 1.7 1.7 1.8 1.7 5.1 0 4-1 6.8-3.3 8.7a8.8 8.8 0 0 1-13.5-2.3l-1.2-2v-48.6l1.7 2.5c1 1.4 2.7 3.2 4 4 4.3 3 4.5 3 24.4 3.3 10 .1 18.7.3 19.3.4 1.4.3 2 2.3 2 6.2 0 3.4 0 3.6-1.6 5.2a11 11 0 0 0-3.8 8.8c0 7 4.9 11.9 11.8 11.9 6.8 0 11.8-5 11.8-12 0-3.6-.8-5.5-3.5-8.4l-1.9-2-.2-5.6a19 19 0 0 0-1.2-7.8 17.7 17.7 0 0 0-7.9-8l-2.7-1.4-19.3-.2-19.2-.1-1-1.3c-.7-.9-1-2-1-3.8v-2.6l14-.1c13.3-.2 14-.2 16.3-1.3 3-1.4 5.8-4 7.5-7.2l1.3-2.4.1-14.1c.2-12.5.3-14.2 1-14.7a67 67 0 0 1 15-.6H541l1 1.5c1.5 2 4.9 3.8 7.9 4.2 7.1.7 13.1-4.7 13.1-11.8 0-3.7-1.3-6.7-3.9-9-4.7-4.3-11.4-4.1-16.2.3l-2.2 2-16 .2-16 .2-2.5 1.3c-1.3.7-3.4 2.3-4.4 3.5-3.4 4-3.7 5-3.9 20.2 0 7.4-.2 13.7-.3 14-.2.5-2.7.6-10.3.6h-10.1l1.9-1c2.9-1.5 6-4.7 7.4-7.7l1.3-2.7.3-28.4c.2-27.4.3-28.4 1.1-29 .7-.5 2.4-.7 5.8-.7 4.6 0 4.9 0 5.8 1.2a12 12 0 0 0 8.3 4c5.7.5 10.6-3 12.2-8.4 1-3 1-3.8 0-7a11.4 11.4 0 0 0-11.4-8.3c-3.7 0-6.5 1.2-8.7 3.7l-1.4 1.6h-5.1c-9.4 0-14.5 2.8-17.9 9.7l-1.6 3.2-.2 28.1c-.3 27.2-.3 28.2-1.2 28.9-.7.5-2.9.7-9.4.7H456v-10.2h1.7c3.4 0 7.1-2.4 9-5.7.7-1.2.8-3.7.9-19.1 0-12 0-18.9-.4-21.1a24.4 24.4 0 0 0-16.6-19c-2.7-.7-4.3-1-8.3-.7a16 16 0 0 0-8.6 1.9 24.3 24.3 0 0 0-13.2 15.4c-.7 2.8-.8 5.9-.8 21.5 0 19.3 0 20.2 2.2 23.1 1.4 1.8 5.2 3.6 7.6 3.6h1.8V208h-8.7c-8.2 0-8.7 0-9.6-1-.8-1-.9-2.3-1.1-29.3l-.3-28.3-1.2-2.4a18.1 18.1 0 0 0-8.2-8c-2.4-1-3.4-1.2-8.9-1.4-5.9-.2-6.2-.2-7-1.3a12 12 0 0 0-3.2-2.7 12 12 0 0 0-11.4-.2Z" fill="url(#paint10_linear_509_72)"/>
    <path id="octo-1" d="M47.7 89.3c-5.3 2.7-7.6 8.5-5.9 14.5.8 2.7 4.8 6.8 7.5 7.5a12 12 0 0 0 12.1-2.8l1.9-2h4.9c4.4 0 5 .2 5.9 1 .8 1 .9 2.5 1.1 29.4l.3 28.3 1.2 2.4c1.4 2.9 4.5 6 7 7.5l2 1h-9.8c-7.4 0-9.9-.1-10.3-.6-.3-.4-.6-5.7-.7-14.7l-.1-14.1-1.5-2.6a14.9 14.9 0 0 0-7.8-6.9c-2.5-.9-3.8-1-18-1H22.4l-1.4-1.6a12 12 0 1 0-13.6 19c4.3 2 8.8 1.2 12.9-2.4l2.6-2.3h13.7c11.7 0 14 0 14.8.8 1.1.7 1.1.8 1.1 14 0 12.3.1 13.6 1 16 1.3 3.3 4.2 6.4 7.5 8 2.4 1.3 2.8 1.3 16.5 1.6l14.1.2v2.8c0 4.7 1.2 4.4-21 4.7-18.9.3-19.3.3-21.8 1.4a19.6 19.6 0 0 0-7.9 7.6c-1.3 2.6-2 6.3-2 10.8 0 3.4 0 3.7-1.4 4.8-.8.7-2 2.5-2.8 4a8.7 8.7 0 0 0-1 5.7c.9 10.8 13.7 15.3 20.8 7.3 2.1-2.6 2.9-4.6 2.9-8 0-3.7-.8-5.6-3.4-8.4-2-2.2-2-2.2-2-6.1 0-6.4-1.2-6 17.8-6 8.8 0 17.7-.1 19.7-.4 5.7-.6 9.5-3 12.6-7.8l1.4-2.1v24c0 22.3-.1 24.2-1 26a8.8 8.8 0 0 1-15.8 1c-1-1.7-1.2-2.6-1.2-6 0-4 0-4 1.5-5.4 1-.6 2-2.3 2.7-3.7a12 12 0 0 0-13.2-16.8 12.2 12.2 0 0 0-5.6 20.6c1.4 1.4 1.5 1.7 1.5 4.8 0 10 4.8 18 13 22 2.8 1.3 4 1.5 8 1.6 3.5.2 5.3 0 7.3-.6 5.4-1.7 9.5-4.9 12.2-9.4 3.3-5.4 3.2-4.8 3.2-37.6v-29.6h6.8v28.4c0 16.8.2 29.4.5 31a23.2 23.2 0 0 0 12.5 16.1c3.1 1.6 3.6 1.6 9.1 1.6 5.3 0 6-.1 8.5-1.3a22 22 0 0 0 13.1-21v-4.3l2.2-2.1c3.3-3.4 4.3-7.5 3-12-1-3.1-2.8-5.4-5.8-7a9.5 9.5 0 0 0-5.7-1.4c-10.8 0-15.9 13.2-8 20.6 1.6 1.7 1.7 1.8 1.7 5.1 0 4-1 6.8-3.3 8.7a8.8 8.8 0 0 1-13.5-2.3l-1.2-2v-48.6l1.7 2.5c1 1.4 2.7 3.2 4 4 4.3 3 4.5 3 24.4 3.3 10 .1 18.7.3 19.3.4 1.4.3 2 2.3 2 6.2 0 3.4 0 3.6-1.6 5.2a11 11 0 0 0-3.8 8.8c0 7 4.9 11.9 11.8 11.9 6.8 0 11.8-5 11.8-12 0-3.6-.8-5.5-3.5-8.4l-1.9-2-.2-5.6a19 19 0 0 0-1.2-7.8 17.7 17.7 0 0 0-7.9-8l-2.7-1.4-19.3-.2-19.2-.1-1-1.3c-.7-.9-1-2-1-3.8v-2.6l14-.1c13.3-.2 14-.2 16.3-1.3 3-1.4 5.8-4 7.5-7.2l1.3-2.4.1-14.1c.2-12.5.3-14.2 1-14.7a67 67 0 0 1 15-.6H217l1 1.5c1.5 2 4.9 3.8 7.9 4.2 7.1.7 13.1-4.7 13.1-11.8 0-3.7-1.3-6.7-3.9-9-4.7-4.3-11.4-4.1-16.2.3l-2.2 2-16 .2-16 .2-2.5 1.3c-1.3.7-3.4 2.3-4.4 3.5-3.4 4-3.7 5-3.9 20.2 0 7.4-.2 13.7-.3 14-.2.5-2.7.6-10.3.6h-10.1l1.9-1c2.9-1.5 6-4.7 7.4-7.7l1.3-2.7.3-28.4c.2-27.4.3-28.4 1.2-29 .6-.5 2.3-.7 5.7-.7 4.6 0 4.9 0 5.8 1.2a12 12 0 0 0 8.3 4c5.7.5 10.6-3 12.2-8.3 1-3 1-4 0-7.1a11.4 11.4 0 0 0-11.4-8.3c-3.7 0-6.5 1.2-8.7 3.7l-1.4 1.6h-5.1c-9.4 0-14.5 2.8-17.9 9.7l-1.6 3.2-.2 28.1c-.3 27.2-.3 28.2-1.2 28.9-.7.5-2.9.7-9.4.7H132v-10.2h1.7c3.4 0 7.1-2.4 9-5.7.7-1.2.8-3.7.9-19.1 0-12 0-18.9-.4-21.1a24.4 24.4 0 0 0-16.6-19c-2.7-.7-4.3-1-8.3-.7a16 16 0 0 0-8.6 1.9 24.3 24.3 0 0 0-13.2 15.4c-.7 2.8-.8 5.9-.8 21.5 0 19.3 0 20.2 2.2 23.1 1.4 1.8 5.2 3.6 7.6 3.6h1.8V164h-8.7c-8.2 0-8.7 0-9.6-1-.8-1-.9-2.3-1.1-29.3l-.3-28.3-1.2-2.4a18.1 18.1 0 0 0-8.2-8c-2.4-1-3.4-1.2-8.9-1.4-5.9-.2-6.2-.2-7-1.3a12 12 0 0 0-3.2-2.7 12 12 0 0 0-11.4-.2Z" fill="url(#paint11_linear_509_72)" fill-opacity=".8"/>
  </g>
  <defs>
    <linearGradient id="paint0_linear_509_72" x1="275.4" y1="0" x2="1030.5" y2="0" gradientUnits="userSpaceOnUse">
      <stop stop-color="#0B14EC"/>
      <stop offset=".6" stop-color="#00F0FF"/>
    </linearGradient>
    <linearGradient id="paint1_linear_509_72" x1="343.4" y1="268" x2="1098.5" y2="268" gradientUnits="userSpaceOnUse">
      <stop stop-color="#0B14EC"/>
      <stop offset=".6" stop-color="#00F0FF"/>
    </linearGradient>
    <linearGradient id="paint2_linear_509_72" x1="60.4" y1="0" x2="815.5" y2="0" gradientUnits="userSpaceOnUse">
      <stop stop-color="#0B14EC"/>
      <stop offset=".6" stop-color="#00F0FF"/>
    </linearGradient>
    <linearGradient id="paint3_linear_509_72" x1="488.4" y1="0" x2="1243.5" y2="0" gradientUnits="userSpaceOnUse">
      <stop stop-color="#0B14EC"/>
      <stop offset=".6" stop-color="#00F0FF"/>
    </linearGradient>
    <linearGradient id="paint4_linear_509_72" x1="-121.6" y1="358" x2="633.5" y2="358" gradientUnits="userSpaceOnUse">
      <stop stop-color="#0B14EC"/>
      <stop offset=".6" stop-color="#00F0FF"/>
    </linearGradient>
    <linearGradient id="paint5_linear_509_72" x1="20.4" y1="222" x2="775.5" y2="222" gradientUnits="userSpaceOnUse">
      <stop stop-color="#0B14EC"/>
      <stop offset=".6" stop-color="#00F0FF"/>
    </linearGradient>
    <linearGradient id="paint6_linear_509_72" x1="527.4" y1="358" x2="1282.5" y2="358" gradientUnits="userSpaceOnUse">
      <stop stop-color="#0B14EC"/>
      <stop offset=".6" stop-color="#00F0FF"/>
    </linearGradient>
    <linearGradient id="paint7_linear_509_72" x1="202.4" y1="312" x2="957.5" y2="312" gradientUnits="userSpaceOnUse">
      <stop stop-color="#0B14EC"/>
      <stop offset=".6" stop-color="#00F0FF"/>
    </linearGradient>
    <linearGradient id="paint8_linear_509_72" x1="60.4" y1="448" x2="815.5" y2="448" gradientUnits="userSpaceOnUse">
      <stop stop-color="#0B14EC"/>
      <stop offset=".6" stop-color="#00F0FF"/>
    </linearGradient>
    <linearGradient id="paint9_linear_509_72" x1="374.4" y1="178" x2="1129.5" y2="178" gradientUnits="userSpaceOnUse">
      <stop stop-color="#0B14EC"/>
      <stop offset=".6" stop-color="#00F0FF"/>
    </linearGradient>
    <linearGradient id="paint10_linear_509_72" x1="202.4" y1="132" x2="957.5" y2="132" gradientUnits="userSpaceOnUse">
      <stop stop-color="#0B14EC"/>
      <stop offset=".6" stop-color="#00F0FF"/>
    </linearGradient>
    <linearGradient id="paint11_linear_509_72" x1="-121.6" y1="88" x2="633.5" y2="88" gradientUnits="userSpaceOnUse">
      <stop stop-color="#0B14EC"/>
      <stop offset=".6" stop-color="#00F0FF"/>
    </linearGradient>
  </defs>
</svg>
