<svg viewBox="0 0 1280 1170" fill="none" xmlns="http://www.w3.org/2000/svg">
  <g class="octopi-group-desktop">
    <g class="octopi">
      <path class="_20" d="M296.9 722.4c-3.7 2-5.3 6.1-4 10.4.6 1.9 3.6 4.7 5.5 5.2 3.2 1 6.4 0 8.5-2.1l1.3-1.4 3.5-.1c3.2 0 3.6 0 4.2.7.6.6.7 1.6 1.2 20.8l.6 20 .9 1.8c1 2 3.2 4.3 5 5.2l1.4.7-6.9.2c-5.2 0-7 0-7.3-.4-.3-.2-.5-4-.7-10.4l-.3-10-1-1.9c-1.4-2.2-3.3-3.9-5.7-4.7-1.8-.6-2.7-.7-12.8-.5l-10.8.2-1-1.2a8.5 8.5 0 1 0-9.5 13.8c3.1 1.4 6.3.7 9.2-2l1.8-1.6 9.8-.2c8.2-.2 9.8-.1 10.5.4.8.5.8.5 1 10 .1 8.7.2 9.6.9 11.3.9 2.3 3 4.5 5.4 5.6 1.7.8 2 .9 11.8.9h10v2c0 3.3 1 3.1-14.9 3.6-13.4.4-13.7.5-15.4 1.2a14 14 0 0 0-5.6 5.6c-.9 1.8-1.3 4.5-1.2 7.7 0 2.4 0 2.6-1 3.4-.6.5-1.4 1.8-1.9 2.8a6.2 6.2 0 0 0-.7 4.2c.8 7.6 10 10.6 14.9 4.8 1.5-1.8 2-3.2 2-5.7 0-2.6-.7-4-2.5-6-1.5-1.4-1.5-1.4-1.5-4.2-.1-4.6-1-4.3 12.5-4.5 6.3 0 12.6-.3 14-.5 4.1-.5 6.8-2.3 8.9-5.7l1-1.6.3 17.1c.3 15.9.2 17.2-.4 18.5a6.3 6.3 0 0 1-11.2 1c-.7-1.3-.9-2-1-4.4 0-2.7 0-2.8 1-3.8.7-.5 1.5-1.7 2-2.7a8.5 8.5 0 0 0-9.7-11.8 8.7 8.7 0 0 0-3.7 14.8c1 1 1.1 1.2 1.1 3.4.2 7.1 3.7 12.8 9.5 15.4 2 1 2.9 1 5.8 1.1 2.4 0 3.7 0 5.1-.5 3.8-1.3 6.7-3.6 8.6-6.9 2.2-3.9 2.2-3.5 1.8-26.8l-.4-21h4.8l.4 20.1c.2 12 .5 21 .8 22 1 4.9 4.5 9.3 9 11.4 2.3 1 2.6 1 6.5 1 3.8-.1 4.4-.2 6-1 6-3 9.2-8.3 9.1-15.1v-3.1l1.5-1.6c2.3-2.4 3-5.4 2-8.5a8 8 0 0 0-4.2-5c-1.5-.7-2.3-1-4.1-.8a8.4 8.4 0 0 0-5.5 14.7c1.2 1.1 1.3 1.2 1.3 3.6 0 2.9-.6 4.8-2.2 6.2-3 2.7-7.5 2-9.6-1.4l-.9-1.5-.3-17.2-.3-17.3 1.2 1.8c.7 1 2 2.2 2.8 2.8 3.2 2 3.4 2 17.5 2h13.7c1 .2 1.5 1.6 1.6 4.4 0 2.4 0 2.6-1.2 3.7a7.8 7.8 0 0 0-2.6 6.3 8 8 0 0 0 8.6 8.3c4.9 0 8.4-3.7 8.3-8.6 0-2.6-.7-4-2.7-6l-1.3-1.4-.2-4c-.2-3-.4-4.2-1-5.5-1-2.3-3.4-4.6-5.7-5.6l-2-1-13.7.2-13.7.1-.7-.8c-.5-.7-.7-1.5-.7-2.8v-1.8l9.9-.3c9.5-.3 10-.3 11.6-1 2.1-1.1 4-3 5.2-5.3l.9-1.7-.1-10c0-9 0-10.1.5-10.5.4-.4 3-.5 10.7-.6l10-.2.8 1a8.7 8.7 0 0 0 5.7 2.9c5 .4 9.2-3.5 9.1-8.5 0-2.7-1-4.8-2.9-6.4a8.3 8.3 0 0 0-11.4.4l-1.6 1.5-11.4.4-11.3.3-1.8 1c-1 .5-2.4 1.6-3.1 2.5-2.4 2.8-2.5 3.6-2.5 14.4v10c-.2.3-2 .4-7.4.5l-7.2.2 1.4-.8c2-1.1 4.1-3.4 5.2-5.6l.9-2-.2-20c-.2-19.5-.2-20.3.4-20.8.5-.3 1.7-.5 4.1-.5 3.3 0 3.5 0 4.2.8a8.6 8.6 0 0 0 6 2.7c4 .3 7.4-2.2 8.5-6 .6-2.2.6-2.9-.1-5a8.1 8.1 0 0 0-8.2-5.9c-2.6 0-4.7 1-6.1 2.8l-1 1.2h-3.7c-6.6.2-10.3 2.2-12.6 7.1l-1 2.4.1 20c.2 19.2.2 20-.4 20.5-.5.4-2 .5-6.7.6h-6v-7.2h1.1c2.4 0 5-1.8 6.3-4 .5-1 .5-2.8.4-13.7 0-8.5-.3-13.4-.5-15-1.2-6.3-6-11.5-12.1-13.3-2-.5-3-.6-5.9-.4-3.2.1-3.7.3-6 1.4-4.7 2.4-8.1 6.5-9.3 11.2a75 75 0 0 0-.3 15.3c.2 13.7.3 14.4 2 16.4.9 1.3 3.6 2.5 5.4 2.5h1.2v3.6l.2 3.6-6.2.1c-5.8.1-6.2 0-6.8-.6-.7-.7-.7-1.7-1.2-20.8l-.6-20.1-.9-1.7a12.9 12.9 0 0 0-5.9-5.6c-1.7-.8-2.5-.8-6.3-.9-4.2 0-4.5 0-5-.9a8.6 8.6 0 0 0-2.4-1.8 8.5 8.5 0 0 0-8.1 0Z" fill="url(#paint0_linear)"/>
      <path class="_19" d="M173.5 669.9c-3.5 1.7-5 5.6-3.8 9.6a9.5 9.5 0 0 0 4.9 5c3 .8 6 0 8-2l1.2-1.2h3.3c2.9 0 3.3 0 3.9.6.5.7.6 1.6.7 19.4l.2 18.7.8 1.6c1 2 3 4 4.7 5l1.2.6h-6.4c-4.9 0-6.6 0-6.8-.4-.2-.2-.4-3.7-.5-9.7v-9.3l-1-1.7a9.8 9.8 0 0 0-5.2-4.6c-1.6-.5-2.5-.6-11.9-.6h-10l-1-1.1a8 8 0 1 0-9 12.6c2.9 1.4 5.8.8 8.5-1.6l1.8-1.6h9c7.8 0 9.2.1 9.8.6.8.4.8.5.8 9.3 0 8 0 9 .6 10.5.8 2.2 2.8 4.3 5 5.4 1.5.7 1.8.8 10.9 1l9.3.1v1.8c0 3.2.8 3-14 3.2-12.4.1-12.7.2-14.3.9a13 13 0 0 0-5.2 5 16 16 0 0 0-1.3 7.2c0 2.2-.1 2.4-1 3.2-.5.4-1.3 1.6-1.8 2.5-.7 1.5-.8 2-.7 3.9.6 7 9 10 13.7 4.7a7 7 0 0 0 2-5.2 7 7 0 0 0-2.3-5.6c-1.3-1.4-1.3-1.4-1.3-4 0-4.3-.8-4 11.7-4 5.9 0 11.8 0 13.1-.2 3.8-.4 6.3-2 8.3-5.2l1-1.4v15.9c0 14.7-.1 16-.7 17.2-2 4.5-8 4.8-10.4.6-.7-1.1-.8-1.7-.8-4 0-2.5 0-2.6 1-3.5.6-.4 1.3-1.6 1.7-2.5a8 8 0 0 0-8.7-11 8 8 0 0 0-3.7 13.6c1 .9 1 1.1 1 3.1 0 6.7 3.2 12 8.6 14.5 1.8 1 2.6 1 5.3 1.2 2.3 0 3.5 0 4.8-.5 3.6-1.1 6.3-3.2 8-6.2 2.2-3.6 2.2-3.2 2.2-24.8v-19.6h4.5v18.8c0 11.1.1 19.4.3 20.5.8 4.5 4 8.6 8.3 10.6 2 1 2.3 1 6 1 3.5 0 4 0 5.6-.8 5.6-2.6 8.7-7.5 8.7-13.8v-3l1.4-1.3c2.2-2.2 2.9-5 2-8-.6-2-1.8-3.5-3.8-4.6-1.4-.7-2-1-3.8-.9-7.1 0-10.5 8.7-5.3 13.6 1.1 1.1 1.1 1.2 1.1 3.4 0 2.7-.7 4.5-2.1 5.7a5.8 5.8 0 0 1-9-1.5l-.7-1.3v-32.1l1 1.6c.7 1 1.8 2.2 2.7 2.7 2.8 2 3 2 16.2 2.2 6.6 0 12.3.2 12.7.2 1 .3 1.4 1.5 1.4 4.1 0 2.3 0 2.4-1.1 3.5a7.3 7.3 0 0 0-2.6 5.8c0 4.6 3.3 7.8 7.9 7.8 4.5 0 7.8-3.3 7.8-7.8 0-2.4-.6-3.7-2.4-5.7l-1.2-1.2-.1-3.7c-.1-3-.3-4-.8-5.3-1-2-3-4.2-5.2-5.3l-1.8-.9h-12.8L241 741l-.7-.8c-.4-.6-.6-1.3-.6-2.5V736l9.2-.1c8.8-.1 9.3-.2 10.8-.9 2-.9 3.8-2.6 5-4.7l.8-1.6.1-9.3c0-8.3.2-9.4.6-9.8.5-.3 2.8-.4 10-.4h9.3l.7 1c1 1.4 3.2 2.6 5.2 2.8 4.8.5 8.7-3 8.7-7.7 0-2.5-.8-4.5-2.6-6a7.7 7.7 0 0 0-10.7.2l-1.4 1.4h-10.6l-10.6.1-1.6 1c-1 .4-2.3 1.5-3 2.3-2.2 2.5-2.4 3.3-2.5 13.3 0 4.9-.2 9-.3 9.2 0 .4-1.7.5-6.8.5h-6.6l1.2-.7c2-1 4-3.1 5-5.1l.8-1.8.2-18.7c.1-18.2.2-18.8.7-19.3.5-.3 1.6-.4 3.9-.4 3 0 3.2 0 3.8.8a8 8 0 0 0 5.5 2.6c3.7.3 7-2 8-5.5.7-2 .7-2.6 0-4.6a7.6 7.6 0 0 0-7.5-5.5c-2.4 0-4.3.8-5.7 2.4l-1 1h-3.4c-6.2 0-9.6 2-11.8 6.5l-1 2.1-.2 18.6c-.2 18-.2 18.6-.8 19-.4.4-1.9.5-6.2.5h-5.5V712.5h1.1c2.3 0 4.7-1.6 5.9-3.7.5-.9.5-2.5.6-12.7 0-7.9 0-12.5-.2-14-1-5.8-5.4-10.7-11-12.5-1.8-.5-2.9-.6-5.5-.5-3 .1-3.5.2-5.7 1.3a16 16 0 0 0-8.7 10.2c-.5 1.8-.6 3.9-.6 14.2 0 12.8 0 13.4 1.5 15.3a7.7 7.7 0 0 0 5 2.4h1.2V719.2h-5.7c-5.4 0-5.8 0-6.3-.7-.6-.6-.7-1.5-.8-19.3l-.2-18.7-.8-1.6a12 12 0 0 0-5.4-5.3c-1.6-.8-2.3-.8-5.9-1-3.9 0-4-.1-4.6-.8a8 8 0 0 0-2.2-1.8 8 8 0 0 0-7.5-.1Z" fill="url(#paint1_linear)"/>
      <path class="_18" d="M345.5 576c-3.8 1.9-5.5 6-4.2 10.4.5 2 3.5 4.9 5.4 5.4 3.3 1 6.6.2 8.7-2l1.4-1.4h3.6c3.2 0 3.6 0 4.2.7.6.7.7 1.8.9 21.2l.1 20.4 1 1.8c1 2 3.1 4.4 5 5.4l1.4.7h-7c-5.4 0-7.2 0-7.5-.4-.2-.3-.4-4.1-.5-10.6l-.1-10.2-1-2c-1.4-2.2-3.3-4-5.7-4.9-1.8-.6-2.8-.7-13-.7h-11l-1.1-1.2a8.7 8.7 0 0 0-10.5-1.7 8.6 8.6 0 0 0 .7 15.5c3.1 1.5 6.4.9 9.3-1.7l2-1.7h9.8c8.5 0 10.1 0 10.8.5.7.6.7.6.7 10.2 0 8.8.1 9.8.8 11.5.9 2.4 3 4.7 5.4 5.9 1.7.8 2 .8 12 1l10.1.2v2c0 3.4 1 3.2-15.2 3.4-13.6.2-14 .3-15.7 1-2 1-4.7 3.5-5.8 5.5-1 1.9-1.4 4.6-1.4 7.8 0 2.5 0 2.7-1 3.5-.6.5-1.5 1.8-2 2.8-.8 1.7-1 2.2-.8 4.2.6 7.8 10 11 15 5.2a7.6 7.6 0 0 0 2.2-5.7c0-2.7-.6-4-2.5-6-1.4-1.6-1.4-1.7-1.4-4.5 0-4.6-1-4.3 12.8-4.3 6.4 0 12.8-.1 14.3-.3 4.2-.4 7-2.2 9.1-5.6l1-1.6v17.4c0 16 0 17.5-.6 18.8a6.4 6.4 0 0 1-11.5.7c-.7-1.3-.9-2-.9-4.4 0-2.8 0-3 1.1-3.8a8.7 8.7 0 0 0-7.7-14.9 8.8 8.8 0 0 0-4 15c1 1 1.2 1.2 1.2 3.4 0 7.2 3.4 13 9.3 15.8 2 1 3 1.2 5.8 1.3 2.6 0 3.9 0 5.3-.5 4-1.3 6.9-3.5 8.9-6.8 2.3-4 2.3-3.5 2.3-27.2v-21.3h4.9v20.5c0 12.1.1 21.2.4 22.4.9 4.9 4.4 9.5 9 11.6 2.3 1.1 2.6 1.2 6.6 1.2 3.8 0 4.4-.1 6.1-1 6.2-2.9 9.5-8.2 9.5-15.1v-3.2l1.6-1.5a8.3 8.3 0 0 0 2.2-8.6c-.7-2.3-2-4-4.2-5.1-1.5-.8-2.3-1-4.1-1a8.6 8.6 0 0 0-5.9 14.9c1.3 1.2 1.3 1.3 1.3 3.7 0 2.9-.8 4.8-2.4 6.2a6.3 6.3 0 0 1-9.7-1.6l-1-1.5V656l1.3 1.9c.7 1 2 2.3 2.8 2.9 3.2 2.1 3.4 2.1 17.8 2.3l13.9.3c1 .3 1.5 1.7 1.5 4.5 0 2.5 0 2.6-1.2 3.7a8 8 0 0 0-2.8 6.4c0 5 3.6 8.6 8.6 8.6s8.6-3.7 8.6-8.6c0-2.7-.6-4-2.6-6.2l-1.3-1.4-.2-4c-.1-3.2-.3-4.4-.9-5.7-1-2.3-3.3-4.7-5.7-5.8l-2-1h-13.9l-14-.2-.7-.9c-.5-.6-.7-1.4-.7-2.8v-1.8l10.1-.1c9.7-.2 10.2-.2 11.9-1 2.2-1 4.2-2.9 5.4-5.1l1-1.8V630c.1-9 .2-10.2.7-10.6.5-.3 3-.4 10.9-.4H468l.8 1c1 1.6 3.5 2.8 5.7 3 5.2.6 9.5-3.3 9.5-8.4 0-2.7-1-4.9-2.8-6.6-3.4-3-8.3-3-11.7.3l-1.6 1.5-11.6.1-11.6.1-1.8 1a14 14 0 0 0-3.2 2.5c-2.5 2.8-2.7 3.6-2.8 14.6 0 5.3-.2 9.9-.3 10 0 .4-2 .5-7.4.5h-7.3l1.4-.7c2-1 4.3-3.4 5.3-5.6l1-2 .2-20.4c.1-19.8.2-20.5.8-21 .5-.4 1.7-.5 4.2-.5 3.3 0 3.5 0 4.2.9a8.8 8.8 0 0 0 6 2.9c4.1.3 7.7-2.1 8.8-6 .7-2.2.7-2.9 0-5.1-1-3.7-4.2-6-8.2-6-2.7 0-4.8.8-6.3 2.6l-1 1.2h-3.7c-6.8 0-10.6 2-13 7l-1.1 2.3-.2 20.3c-.2 19.6-.2 20.4-.9 20.9-.5.4-2 .5-6.7.5h-6.1v-7.4h1.2c2.5 0 5.1-1.7 6.4-4 .6-1 .6-2.8.7-13.9.1-8.6 0-13.6-.2-15.2-1.1-6.4-6-11.8-12-13.7-2-.6-3.2-.7-6-.6-3.3.1-3.9.3-6.3 1.4a17.6 17.6 0 0 0-9.5 11.2 76 76 0 0 0-.6 15.5c0 14 0 14.6 1.6 16.7 1 1.3 3.7 2.6 5.5 2.6h1.3v7.4h-6.3c-6 0-6.3 0-7-.8-.6-.7-.6-1.7-.8-21.2l-.2-20.4-.9-1.7a13.1 13.1 0 0 0-5.9-5.8c-1.7-.8-2.5-.9-6.4-1-4.3-.1-4.5-.2-5-1a8.7 8.7 0 0 0-2.4-1.9 8.7 8.7 0 0 0-8.3-.1Z" fill="url(#paint2_linear)" fill-opacity=".8"/>
      <path class="_17" d="M777.7 449.3c-5.3 2.7-7.6 8.5-5.9 14.5.8 2.7 4.8 6.8 7.5 7.5a12 12 0 0 0 12.1-2.8l1.9-2h4.9c4.4 0 5 .2 5.9 1 .8 1 .9 2.5 1.1 29.4l.3 28.3 1.2 2.4c1.4 2.9 4.5 6 7 7.5l2 1h-9.8c-7.4 0-9.9-.1-10.3-.6a91 91 0 0 1-.7-14.7l-.1-14.1-1.5-2.6a14.9 14.9 0 0 0-7.8-6.9c-2.5-.9-3.8-1-18-1h-15.2l-1.4-1.6a12 12 0 1 0-13.6 19.1c4.3 2 8.8 1.1 12.9-2.5l2.6-2.3h13.7c11.7 0 14 0 14.8.8 1.1.7 1.1.8 1.1 14 0 12.3.1 13.6 1 16 1.3 3.3 4.2 6.4 7.5 8 2.4 1.3 2.8 1.3 16.5 1.5l14.1.3v2.8c0 4.7 1.2 4.4-21 4.7-18.9.3-19.3.3-21.8 1.4a19.6 19.6 0 0 0-7.9 7.6c-1.3 2.6-2 6.3-2 10.8 0 3.4 0 3.7-1.4 4.8-.8.7-2 2.5-2.8 4a8.7 8.7 0 0 0-1 5.7c.9 10.8 13.7 15.3 20.8 7.3 2.1-2.6 2.9-4.6 2.9-8 0-3.7-.8-5.6-3.4-8.4-2-2.2-2-2.2-2-6.1 0-6.4-1.2-6 17.8-6 8.8 0 17.7-.1 19.7-.4 5.7-.6 9.5-3 12.6-7.8l1.4-2.1v24c0 22.3-.1 24.2-1 26a8.8 8.8 0 0 1-15.8 1c-1-1.7-1.2-2.6-1.2-6 0-4 0-4 1.5-5.4 1-.6 2-2.3 2.7-3.7a12 12 0 0 0-13.2-16.8 12.2 12.2 0 0 0-5.6 20.6c1.4 1.4 1.5 1.7 1.5 4.8 0 10 4.8 18 13 22 2.8 1.3 4 1.5 8 1.6 3.5.2 5.3 0 7.3-.6 5.4-1.7 9.5-4.9 12.2-9.4 3.3-5.4 3.2-4.8 3.2-37.6v-29.6h6.8v28.4c0 16.8.2 29.4.5 31a23.2 23.2 0 0 0 12.5 16.1c3.1 1.6 3.6 1.6 9.1 1.6 5.3 0 6-.1 8.5-1.3a22 22 0 0 0 13.1-21v-4.3l2.2-2.1c3.3-3.4 4.3-7.5 3-12-1-3.1-2.8-5.4-5.8-7a9.5 9.5 0 0 0-5.7-1.4c-10.8 0-15.9 13.2-8 20.6 1.6 1.7 1.7 1.8 1.7 5.1 0 4-1 6.8-3.3 8.7a8.8 8.8 0 0 1-13.5-2.3l-1.2-2v-48.6l1.7 2.5c1 1.4 2.7 3.2 4 4 4.3 3 4.5 3 24.4 3.3 10 .1 18.7.3 19.3.4 1.4.3 2 2.3 2 6.2 0 3.4 0 3.6-1.6 5.2a11 11 0 0 0-3.8 8.8c0 7 4.9 11.9 11.8 11.9 6.8 0 11.8-5 11.8-12 0-3.6-.8-5.5-3.5-8.4l-1.9-2-.2-5.6a19 19 0 0 0-1.2-7.8 17.7 17.7 0 0 0-7.9-8l-2.7-1.4-19.3-.2-19.2-.1-1-1.3c-.7-.9-1-2-1-3.8v-2.6l14-.1c13.3-.2 14-.2 16.3-1.3 3-1.4 5.8-4 7.5-7.2l1.3-2.4.1-14.1c.2-12.5.3-14.2 1-14.7a67 67 0 0 1 15-.6H947l1 1.5c1.5 2 4.9 3.8 7.9 4.2 7.1.7 13.1-4.7 13.1-11.8 0-3.7-1.3-6.7-3.9-9-4.7-4.3-11.4-4.1-16.2.3l-2.2 2-16 .2-16 .2-2.5 1.3c-1.3.7-3.4 2.3-4.4 3.5-3.4 4-3.7 5-3.9 20.2 0 7.4-.2 13.7-.3 14-.2.5-2.7.6-10.3.6h-10.1l1.9-1c2.9-1.5 6-4.7 7.4-7.7l1.3-2.7.3-28.4c.2-27.4.3-28.4 1.1-29 .7-.5 2.4-.7 5.8-.7 4.6 0 4.9 0 5.8 1.2a12 12 0 0 0 8.3 4c5.7.5 10.6-3 12.2-8.4 1-3 1-3.8 0-7a11.4 11.4 0 0 0-11.4-8.3c-3.7 0-6.5 1.2-8.7 3.7l-1.4 1.6h-5.1c-9.4 0-14.5 2.8-17.9 9.7l-1.6 3.2-.2 28.1c-.3 27.2-.3 28.2-1.2 28.9-.7.5-2.9.7-9.4.7H862v-10.3h1.7c3.4 0 7.1-2.3 9-5.6.7-1.2.8-3.7.9-19.1 0-12 0-18.9-.4-21.1a24.4 24.4 0 0 0-16.6-19 21 21 0 0 0-8.3-.7 16 16 0 0 0-8.6 1.9 24.3 24.3 0 0 0-13.2 15.4c-.7 2.8-.8 5.9-.8 21.5 0 19.4 0 20.2 2.2 23.1 1.4 1.8 5.2 3.6 7.6 3.6h1.8V524h-8.7c-8.2 0-8.7 0-9.6-1-.8-1-.9-2.4-1.1-29.4l-.3-28.3-1.2-2.4a18.1 18.1 0 0 0-8.2-8c-2.4-1-3.4-1.2-8.9-1.4-5.9-.2-6.2-.2-7-1.3a12 12 0 0 0-3.2-2.7 12 12 0 0 0-11.4-.2Z" fill="url(#paint3_linear)" fill-opacity=".3"/>
      <path class="_16" d="M919.7 313.3c-5.3 2.7-7.6 8.5-5.9 14.5.8 2.7 4.8 6.8 7.5 7.5a12 12 0 0 0 12.1-2.8l1.9-2h4.9c4.4 0 5 .2 5.9 1 .8 1 .9 2.5 1.1 29.4l.3 28.3 1.2 2.4c1.4 2.9 4.5 6 7 7.5l2 1h-9.8c-7.4 0-9.9-.1-10.3-.6a91 91 0 0 1-.7-14.7l-.1-14.1-1.5-2.6a14.9 14.9 0 0 0-7.8-6.9c-2.5-.9-3.8-1-18-1h-15.2l-1.4-1.6a12 12 0 1 0-13.6 19c4.3 2 8.8 1.2 12.9-2.4l2.6-2.3h13.7c11.7 0 14 0 14.8.8 1.1.7 1.1.8 1.1 14 0 12.3.1 13.6 1 16 1.3 3.3 4.2 6.4 7.5 8 2.4 1.3 2.8 1.3 16.5 1.6l14.1.2v2.8c0 4.7 1.2 4.4-21 4.7-18.9.3-19.3.3-21.8 1.4a19.6 19.6 0 0 0-7.9 7.6c-1.3 2.6-2 6.3-2 10.8 0 3.4 0 3.7-1.4 4.8-.8.7-2 2.5-2.8 4a8.7 8.7 0 0 0-1 5.7c.9 10.8 13.7 15.3 20.8 7.3 2.1-2.6 2.9-4.6 2.9-8 0-3.7-.8-5.6-3.4-8.4-2-2.2-2-2.2-2-6.1 0-6.4-1.2-6 17.8-6 8.8 0 17.7-.1 19.7-.4 5.7-.6 9.5-3 12.6-7.8l1.4-2.1v24c0 22.3-.1 24.2-1 26a8.8 8.8 0 0 1-15.8 1c-1-1.7-1.2-2.6-1.2-6 0-4 0-4 1.5-5.4 1-.6 2-2.3 2.7-3.7a12 12 0 0 0-13.2-16.8 12.2 12.2 0 0 0-5.6 20.6c1.4 1.4 1.5 1.7 1.5 4.8 0 10 4.8 18 13 22 2.8 1.3 4 1.5 8 1.6 3.5.2 5.3 0 7.3-.6 5.4-1.7 9.5-4.9 12.2-9.4 3.3-5.4 3.2-4.8 3.2-37.6v-29.6h6.8v28.4c0 16.8.2 29.4.5 31a23.2 23.2 0 0 0 12.5 16.1c3.1 1.6 3.6 1.6 9.1 1.6 5.3 0 6-.1 8.5-1.3a22 22 0 0 0 13.1-21v-4.3l2.2-2.1c3.3-3.4 4.3-7.5 3-12-1-3.1-2.8-5.4-5.8-7a9.5 9.5 0 0 0-5.7-1.4 11.9 11.9 0 0 0-8 20.6c1.6 1.7 1.7 1.8 1.7 5.1 0 4-1 6.8-3.3 8.7a8.8 8.8 0 0 1-13.5-2.3l-1.2-2v-48.6l1.7 2.5c1 1.4 2.7 3.2 4 4 4.3 3 4.5 3 24.4 3.3 10 .1 18.7.3 19.3.4 1.4.3 2 2.3 2 6.2 0 3.4 0 3.6-1.6 5.2a11 11 0 0 0-3.9 8.8c0 7 5 11.9 11.9 11.9 6.8 0 11.8-5 11.8-12 0-3.6-.8-5.5-3.5-8.4l-1.9-2-.2-5.6a19 19 0 0 0-1.2-7.8 17.7 17.7 0 0 0-7.9-8l-2.7-1.4-19.3-.2-19.2-.1-1-1.3c-.7-.9-1-2-1-3.8v-2.6l14-.1c13.3-.2 14-.2 16.3-1.3 3-1.4 5.8-4 7.4-7.2l1.4-2.4.1-14.1c.2-12.5.3-14.2 1-14.7a67 67 0 0 1 15-.6h14.2l1 1.5c1.5 2 4.9 3.8 7.9 4.2 7.1.7 13.1-4.7 13.1-11.8 0-3.7-1.3-6.7-3.9-9-4.7-4.3-11.4-4.1-16.1.3l-2.3 2-16 .2-16 .2-2.5 1.3c-1.3.7-3.4 2.3-4.4 3.5-3.4 4-3.7 5-3.9 20.2 0 7.4-.2 13.7-.4 14 0 .5-2.6.6-10.2.6h-10.1l1.9-1c2.9-1.5 6-4.7 7.4-7.7l1.3-2.7.3-28.4c.2-27.4.3-28.4 1.2-29 .6-.5 2.3-.7 5.7-.7 4.6 0 4.9 0 5.8 1.2a12 12 0 0 0 8.3 4c5.7.5 10.6-3 12.2-8.4 1-3 1-3.8 0-7a11.4 11.4 0 0 0-11.4-8.3c-3.7 0-6.5 1.2-8.7 3.7l-1.4 1.6h-5.1c-9.4 0-14.5 2.8-17.9 9.7l-1.6 3.2-.2 28.1c-.3 27.2-.3 28.2-1.2 28.9-.7.5-2.8.7-9.4.7h-8.4v-10.3h1.7c3.4 0 7.1-2.3 9-5.6.6-1.2.8-3.7.9-19.1 0-12 0-18.9-.4-21.1a24.4 24.4 0 0 0-16.6-19 21 21 0 0 0-8.3-.7 16 16 0 0 0-8.6 1.9 24.3 24.3 0 0 0-13.2 15.4c-.7 2.8-.8 5.9-.8 21.5 0 19.4 0 20.2 2.2 23.1 1.4 1.8 5.2 3.6 7.6 3.6h1.8V388h-8.7c-8.2 0-8.7 0-9.6-1-.8-1-.9-2.3-1.1-29.3l-.3-28.3-1.2-2.4a18.1 18.1 0 0 0-8.2-8c-2.4-1-3.4-1.2-8.9-1.4-5.9-.2-6.2-.2-7-1.3a12 12 0 0 0-3.2-2.7 12 12 0 0 0-11.4-.2Z" fill="url(#paint4_linear)" fill-opacity=".3"/>
      <path class="_15" d="M1060.7 269.3c-5.3 2.7-7.6 8.5-5.9 14.5.8 2.7 4.8 6.8 7.5 7.5a12 12 0 0 0 12.1-2.8l1.9-2h4.9c4.4 0 5 .2 5.9 1 .8 1 .9 2.5 1.1 29.4l.3 28.3 1.2 2.4c1.4 2.9 4.5 6 7 7.5l2 1h-9.8c-7.4 0-9.9-.1-10.3-.6-.3-.4-.6-5.7-.7-14.7l-.1-14.1-1.5-2.6a15 15 0 0 0-7.8-6.9c-2.5-.9-3.8-1-18-1h-15.2l-1.4-1.6a12 12 0 1 0-13.6 19c4.3 2 8.8 1.2 12.9-2.4l2.6-2.3h13.7c11.7 0 14 0 14.8.8 1.1.7 1.1.8 1.1 14 0 12.3.1 13.6 1 16 1.3 3.3 4.2 6.4 7.5 8 2.4 1.3 2.8 1.3 16.5 1.6l14.1.2v2.8c0 4.7 1.2 4.4-21 4.7-18.9.3-19.3.3-21.8 1.4a19.6 19.6 0 0 0-7.9 7.6c-1.3 2.6-2 6.3-2 10.8 0 3.4 0 3.7-1.4 4.8-.8.7-2 2.5-2.8 4a8.6 8.6 0 0 0-1 5.7c.9 10.8 13.7 15.3 20.8 7.3 2.1-2.6 2.9-4.6 2.9-8 0-3.7-.8-5.6-3.4-8.4-2-2.2-2-2.2-2-6.1 0-6.4-1.2-6 17.8-6 8.8 0 17.7-.1 19.7-.4 5.7-.6 9.5-3 12.6-7.8l1.4-2.1v24c0 22.3-.1 24.2-1 26a8.8 8.8 0 0 1-15.8 1c-1-1.7-1.2-2.6-1.2-6 0-4 0-4 1.5-5.4 1-.6 2-2.3 2.7-3.7a12 12 0 0 0-13.3-16.8 12.2 12.2 0 0 0-5.5 20.6c1.4 1.4 1.5 1.7 1.5 4.8 0 10 4.8 18 13 22 2.8 1.3 4 1.5 8 1.6 3.5.2 5.3 0 7.3-.6 5.4-1.7 9.5-4.9 12.2-9.4 3.3-5.4 3.2-4.8 3.2-37.6v-29.6h6.8v28.4c0 16.8.2 29.4.5 31a23.2 23.2 0 0 0 12.5 16.1c3.1 1.6 3.6 1.6 9.1 1.6 5.3 0 6-.1 8.5-1.3a22 22 0 0 0 13.1-21v-4.3l2.2-2.1c3.3-3.4 4.3-7.5 3-12-1-3.1-2.8-5.4-5.8-7a9.5 9.5 0 0 0-5.7-1.4 11.9 11.9 0 0 0-8 20.6c1.6 1.7 1.7 1.8 1.7 5.1 0 4-1 6.8-3.3 8.7a8.8 8.8 0 0 1-13.5-2.3l-1.2-2v-48.6l1.7 2.5c1 1.4 2.7 3.2 4 4 4.3 3 4.5 3 24.4 3.3 10 .1 18.7.3 19.3.4 1.4.3 2 2.3 2 6.2 0 3.4 0 3.6-1.6 5.2a11 11 0 0 0-3.9 8.8c0 7 5 11.9 11.9 11.9 6.8 0 11.8-5 11.8-12 0-3.6-.8-5.5-3.5-8.4l-1.9-2-.2-5.6a19 19 0 0 0-1.2-7.8 17.7 17.7 0 0 0-7.9-8l-2.7-1.4-19.3-.2-19.2-.1-1-1.3c-.7-.9-1-2-1-3.8v-2.6l14-.1c13.3-.2 14-.2 16.3-1.3 3-1.4 5.8-4 7.4-7.2l1.4-2.4.1-14.1c.2-12.5.3-14.2 1-14.7a67 67 0 0 1 15-.6h14.2l1 1.5c1.5 2 4.9 3.8 7.9 4.2 7.1.7 13.1-4.7 13.1-11.8 0-3.7-1.3-6.7-3.9-9-4.7-4.3-11.4-4.1-16.1.3l-2.3 2-16 .2-16 .2-2.5 1.3c-1.3.7-3.4 2.3-4.4 3.5-3.4 4-3.7 5-3.9 20.2 0 7.4-.2 13.7-.4 14 0 .5-2.6.6-10.2.6h-10.1l1.9-1c2.9-1.5 6-4.7 7.4-7.7l1.3-2.7.3-28.4c.2-27.4.3-28.4 1.2-29 .6-.5 2.3-.7 5.7-.7 4.6 0 4.9 0 5.8 1.2a12 12 0 0 0 8.3 4c5.7.5 10.6-3 12.2-8.4 1-3 1-3.8 0-7a11.4 11.4 0 0 0-11.4-8.3c-3.7 0-6.5 1.2-8.7 3.7l-1.4 1.6h-5.1c-9.4 0-14.5 2.8-17.9 9.7l-1.6 3.2-.2 28.1c-.3 27.2-.3 28.2-1.2 28.9-.7.5-2.8.7-9.4.7h-8.4v-10.3h1.7c3.4 0 7.1-2.3 9-5.6.6-1.2.8-3.7.9-19.1 0-12 0-18.9-.4-21.1a24.4 24.4 0 0 0-16.7-19c-2.6-.7-4.2-1-8.2-.7a16 16 0 0 0-8.6 1.9 24.3 24.3 0 0 0-13.2 15.4c-.7 2.8-.8 5.9-.8 21.5 0 19.4 0 20.2 2.2 23.1 1.4 1.8 5.2 3.6 7.6 3.6h1.8V344h-8.7c-8.2 0-8.7 0-9.6-1-.8-1-.9-2.3-1.1-29.3l-.3-28.3-1.2-2.4a18.1 18.1 0 0 0-8.2-8c-2.4-1-3.5-1.2-8.9-1.4-5.9-.2-6.2-.2-7-1.3a12 12 0 0 0-3.2-2.7 12 12 0 0 0-11.4-.2Z" fill="url(#paint5_linear)"/>
      <path class="_14" d="M1244.7 359.3c-5.3 2.7-7.6 8.5-5.9 14.5.8 2.7 4.8 6.8 7.5 7.5a12 12 0 0 0 12.1-2.8l1.9-2h4.9c4.4 0 5 .2 5.9 1 .8 1 .9 2.5 1.1 29.4l.3 28.3 1.2 2.4c1.4 2.9 4.5 6 7 7.5l2 1h-9.8c-7.4 0-9.9-.1-10.3-.6-.3-.4-.6-5.7-.7-14.7l-.1-14.1-1.5-2.6a15 15 0 0 0-7.8-6.9c-2.5-.9-3.8-1-18-1h-15.2l-1.4-1.6a12 12 0 1 0-13.6 19c4.3 2 8.8 1.2 12.9-2.4l2.6-2.3h13.7c11.7 0 14 0 14.8.8 1.1.7 1.1.8 1.1 14 0 12.3.1 13.6 1 16 1.3 3.3 4.2 6.4 7.5 8 2.4 1.3 2.8 1.3 16.5 1.6l14.1.2v2.8c0 4.7 1.2 4.4-21 4.7-18.9.3-19.3.3-21.8 1.4a19.6 19.6 0 0 0-7.9 7.6c-1.3 2.6-2 6.3-2 10.8 0 3.4 0 3.7-1.4 4.8-.8.7-2 2.5-2.8 4a8.6 8.6 0 0 0-1 5.7c.9 10.8 13.7 15.3 20.8 7.3 2.1-2.6 2.9-4.6 2.9-8 0-3.7-.8-5.6-3.4-8.4-2-2.2-2-2.2-2-6.1 0-6.4-1.2-6 17.8-6 8.8 0 17.7-.1 19.7-.4 5.7-.6 9.5-3 12.6-7.8l1.4-2.1v24c0 22.3-.1 24.2-1 26a8.8 8.8 0 0 1-15.8 1c-1-1.7-1.2-2.6-1.2-6 0-4 0-4 1.5-5.4 1-.6 2-2.3 2.7-3.7a12 12 0 0 0-13.3-16.8 12.2 12.2 0 0 0-5.5 20.6c1.4 1.4 1.5 1.7 1.5 4.8 0 10 4.8 18 13 22 2.8 1.3 4 1.5 8 1.6 3.5.2 5.3 0 7.3-.6 5.4-1.7 9.5-4.9 12.2-9.4 3.3-5.4 3.2-4.8 3.2-37.6v-29.6h6.8v28.4c0 16.8.2 29.4.5 31a23.2 23.2 0 0 0 12.5 16.1c3.1 1.6 3.6 1.6 9.1 1.6 5.3 0 6-.1 8.5-1.3a22 22 0 0 0 13.1-21v-4.3l2.2-2.1c3.3-3.4 4.3-7.5 3-12-1-3.1-2.8-5.4-5.8-7a9.5 9.5 0 0 0-5.7-1.4 11.9 11.9 0 0 0-8 20.6c1.6 1.7 1.7 1.8 1.7 5.1 0 4-1 6.8-3.3 8.7a8.8 8.8 0 0 1-13.5-2.3l-1.2-2v-48.6l1.7 2.5c1 1.4 2.7 3.2 4 4 4.3 3 4.5 3 24.4 3.3 10 .1 18.7.3 19.3.4 1.4.3 2 2.3 2 6.2 0 3.4 0 3.6-1.6 5.2a11 11 0 0 0-3.9 8.8c0 7 5 11.9 11.9 11.9 6.8 0 11.8-5 11.8-12 0-3.6-.8-5.5-3.5-8.4l-1.9-2-.2-5.6a19 19 0 0 0-1.2-7.8 17.7 17.7 0 0 0-7.9-8l-2.7-1.4-19.3-.2-19.2-.1-1-1.3c-.7-.9-1-2-1-3.8v-2.6l14-.1c13.3-.2 14-.2 16.3-1.3 3-1.4 5.8-4 7.4-7.2l1.4-2.4.1-14.1c.2-12.5.3-14.2 1-14.7a67 67 0 0 1 15-.6h14.2l1 1.5c1.5 2 4.9 3.8 7.9 4.2 7.1.7 13.1-4.7 13.1-11.8 0-3.7-1.3-6.7-3.9-9-4.7-4.3-11.4-4.1-16.1.3l-2.3 2-16 .2-16 .2-2.5 1.3c-1.3.7-3.4 2.3-4.4 3.5-3.4 4-3.7 5-3.9 20.2 0 7.4-.2 13.7-.4 14 0 .5-2.6.6-10.2.6h-10.1l1.9-1c2.9-1.5 6-4.7 7.4-7.7l1.3-2.7.3-28.4c.2-27.4.3-28.4 1.2-29 .6-.5 2.3-.7 5.7-.7 4.6 0 4.9 0 5.8 1.2a12 12 0 0 0 8.3 4c5.7.5 10.6-3 12.2-8.4 1-3 1-3.8 0-7a11.4 11.4 0 0 0-11.4-8.3c-3.7 0-6.5 1.2-8.7 3.7l-1.4 1.6h-5.1c-9.4 0-14.5 2.8-17.9 9.7l-1.6 3.2-.2 28.1c-.3 27.2-.3 28.2-1.2 28.9-.7.5-2.8.7-9.4.7h-8.4v-10.3h1.7c3.4 0 7.1-2.3 9-5.6.6-1.2.8-3.7.9-19.1 0-12 0-18.9-.4-21.1a24.4 24.4 0 0 0-16.7-19c-2.6-.7-4.2-1-8.2-.7a16 16 0 0 0-8.6 1.9 24.3 24.3 0 0 0-13.2 15.4c-.7 2.8-.8 5.9-.8 21.5 0 19.4 0 20.2 2.2 23.1 1.4 1.8 5.2 3.6 7.6 3.6h1.8V434h-8.7c-8.2 0-8.7 0-9.6-1-.8-1-.9-2.3-1.1-29.3l-.3-28.3-1.2-2.4a18.1 18.1 0 0 0-8.2-8c-2.4-1-3.5-1.2-8.9-1.4-5.9-.2-6.2-.2-7-1.3a12 12 0 0 0-3.2-2.7 12 12 0 0 0-11.4-.2Z" fill="url(#paint6_linear)"/>
      <path class="_13" d="M-72.5 570.9c-3.5 1.7-5 5.6-3.8 9.6a9.5 9.5 0 0 0 4.9 5c3 .8 6 0 8-2l1.2-1.2h3.3c2.9 0 3.3 0 3.9.6.5.7.6 1.6.7 19.4l.2 18.7.8 1.6c1 2 3 4 4.7 5l1.2.6h-6.4c-4.9 0-6.6 0-6.8-.4-.2-.2-.4-3.7-.5-9.7v-9.3l-1-1.7a9.8 9.8 0 0 0-5.2-4.6c-1.6-.5-2.5-.6-11.9-.6h-10l-1-1.1a8 8 0 1 0-9 12.6c2.9 1.4 5.8.8 8.5-1.6l1.8-1.6h9c7.8 0 9.2.1 9.8.6.8.4.8.5.8 9.3 0 8 0 9 .6 10.5.8 2.2 2.8 4.3 5 5.4 1.5.7 1.8.8 10.9 1l9.3.1v1.8c0 3.2.8 3-14 3.2-12.4.1-12.7.2-14.3.9a13 13 0 0 0-5.2 5 16 16 0 0 0-1.3 7.2c0 2.2-.1 2.4-1 3.2-.5.4-1.3 1.6-1.8 2.5-.7 1.5-.8 2-.7 3.9.6 7 9 10 13.7 4.7a7 7 0 0 0 2-5.2 7 7 0 0 0-2.3-5.6c-1.3-1.4-1.3-1.4-1.3-4 0-4.3-.8-4 11.7-4 5.9 0 11.8 0 13.1-.2 3.8-.4 6.3-2 8.3-5.2l1-1.4v15.9c0 14.7-.1 16-.7 17.2-2 4.5-8 4.8-10.4.6-.7-1.1-.8-1.7-.8-4 0-2.5 0-2.6 1-3.5.6-.4 1.3-1.6 1.7-2.5a8 8 0 0 0-8.7-11 8 8 0 0 0-3.7 13.6c1 .9 1 1.1 1 3.1 0 6.7 3.2 12 8.6 14.5 1.8 1 2.6 1 5.3 1.2 2.3 0 3.5 0 4.8-.5 3.6-1.1 6.3-3.2 8-6.2 2.2-3.6 2.2-3.2 2.2-24.8v-19.6h4.5v18.8c0 11.1.1 19.4.3 20.5.8 4.5 4 8.6 8.3 10.6 2 1 2.3 1 6 1 3.5 0 4 0 5.6-.8 5.6-2.6 8.7-7.5 8.7-13.8v-3l1.4-1.3c2.2-2.2 2.9-5 2-8-.6-2-1.8-3.5-3.8-4.6-1.4-.7-2-1-3.8-.9-7.1 0-10.5 8.7-5.3 13.6 1.1 1.1 1.1 1.2 1.1 3.4 0 2.7-.7 4.5-2.1 5.7a5.8 5.8 0 0 1-9-1.5l-.7-1.3v-32.1l1 1.6c.7 1 1.8 2.2 2.6 2.7 3 2 3.1 2 16.3 2.2 6.6 0 12.3.2 12.7.2 1 .3 1.4 1.5 1.4 4.1 0 2.3 0 2.4-1.1 3.5a7.3 7.3 0 0 0-2.6 5.8c0 4.6 3.3 7.8 7.9 7.8 4.5 0 7.8-3.3 7.8-7.8 0-2.4-.6-3.7-2.4-5.7l-1.2-1.2-.1-3.7c-.1-3-.3-4-.8-5.3-1-2-3-4.2-5.2-5.3l-1.8-.9H7.6L-5 642l-.7-.8c-.4-.6-.6-1.3-.6-2.5V637l9.2-.1c8.8-.1 9.3-.2 10.8-.9 2-.9 3.8-2.6 5-4.7l.8-1.6.1-9.3c0-8.3.2-9.4.6-9.8.5-.3 2.8-.4 10-.4h9.3l.7 1c1 1.4 3.2 2.6 5.2 2.8 4.8.5 8.7-3 8.7-7.7 0-2.5-.8-4.5-2.6-6a7.7 7.7 0 0 0-10.7.2l-1.4 1.4H28.7l-10.6.1-1.6 1c-1 .4-2.3 1.5-3 2.3-2.2 2.5-2.4 3.3-2.5 13.3 0 4.9-.2 9-.3 9.2 0 .4-1.7.5-6.8.5h-6.6l1.2-.7c2-1 4-3.1 5-5.1l.8-1.8.2-18.7c.1-18.2.2-18.8.7-19.3.5-.3 1.6-.4 3.9-.4 3 0 3.2 0 3.8.8a8 8 0 0 0 5.5 2.6c3.7.3 7-2 8-5.5.7-2 .7-2.6 0-4.6A7.6 7.6 0 0 0 19 570c-2.4 0-4.3.8-5.7 2.4l-1 1H8.8c-6.2 0-9.6 2-11.8 6.5l-1 2.1-.2 18.6c-.2 18-.2 18.6-.8 19-.4.4-1.9.5-6.2.5h-5.5V613.5h1.1c2.3 0 4.7-1.6 5.9-3.7.5-.9.5-2.5.6-12.7 0-7.9 0-12.5-.2-14-1-5.8-5.4-10.7-11-12.5-1.8-.5-2.9-.6-5.5-.5-3 .1-3.5.2-5.7 1.3a16 16 0 0 0-8.7 10.2c-.5 1.8-.5 3.9-.5 14.2 0 12.8 0 13.4 1.4 15.3a7.7 7.7 0 0 0 5 2.4h1.2V620.2h-5.7c-5.4 0-5.8 0-6.3-.7-.6-.6-.7-1.5-.8-19.3l-.2-18.7-.8-1.6a12 12 0 0 0-5.4-5.3c-1.6-.8-2.3-.8-5.9-1-3.9 0-4-.1-4.6-.8A8 8 0 0 0-65 571a8 8 0 0 0-7.5-.1Z" fill="url(#paint7_linear)"/>
      <path class="_12" d="M48.5 609.9c-3.5 1.7-5 5.6-3.8 9.6a9.5 9.5 0 0 0 4.9 5c3 .8 6 0 8-2l1.2-1.2h3.3c2.9 0 3.3 0 3.9.6.5.7.6 1.6.7 19.4L67 660l.8 1.6c1 2 3 4 4.7 5l1.2.6h-6.4c-4.9 0-6.6 0-6.8-.4-.2-.2-.4-3.7-.5-9.7v-9.3l-1-1.7a9.8 9.8 0 0 0-5.2-4.6c-1.6-.5-2.5-.6-11.9-.6h-10l-1-1.1a8 8 0 1 0-9 12.6c2.9 1.4 5.8.8 8.5-1.6l1.8-1.6h9c7.8 0 9.2.1 9.8.6.8.4.8.5.8 9.3 0 8 0 9 .6 10.5.8 2.2 2.8 4.3 5 5.4 1.5.7 1.8.8 10.9 1l9.3.1v1.8c0 3.2.8 3-14 3.2-12.4.1-12.7.2-14.3.9a13 13 0 0 0-5.2 5 16 16 0 0 0-1.3 7.2c0 2.2-.1 2.4-1 3.2-.5.4-1.3 1.6-1.8 2.5-.7 1.5-.8 2-.7 3.9.6 7 9 10 13.7 4.7a7 7 0 0 0 2-5.2 7 7 0 0 0-2.3-5.6c-1.3-1.4-1.3-1.4-1.3-4 0-4.3-.8-4 11.7-4 5.9 0 11.8 0 13.1-.2 3.8-.4 6.3-2 8.3-5.2l1-1.4v15.9c0 14.7-.1 16-.7 17.2-2 4.5-8 4.8-10.4.6-.7-1.1-.8-1.7-.8-4 0-2.5 0-2.6 1-3.5.6-.4 1.3-1.6 1.7-2.5a8 8 0 0 0-8.7-11 8 8 0 0 0-3.7 13.6c1 .9 1 1.1 1 3.1 0 6.7 3.2 12 8.6 14.5 1.8 1 2.6 1 5.3 1.2 2.3 0 3.5 0 4.8-.5 3.6-1.1 6.3-3.2 8-6.2 2.2-3.6 2.2-3.2 2.2-24.8v-19.6h4.5v18.8c0 11.1.1 19.4.3 20.5.8 4.5 4 8.6 8.3 10.6 2 1 2.3 1 6 1 3.5 0 4 0 5.6-.8 5.6-2.6 8.7-7.5 8.7-13.8v-3l1.4-1.3c2.2-2.2 2.9-5 2-8-.6-2-1.8-3.5-3.8-4.6-1.4-.7-2-1-3.8-.9-7.1 0-10.5 8.7-5.3 13.6 1.1 1.1 1.1 1.2 1.1 3.4 0 2.7-.7 4.5-2.1 5.7a5.8 5.8 0 0 1-9-1.5l-.7-1.3v-32.1l1 1.6c.7 1 1.8 2.2 2.6 2.7 3 2 3.1 2 16.3 2.2 6.6 0 12.3.2 12.7.2 1 .3 1.4 1.5 1.4 4.1 0 2.3 0 2.4-1.1 3.5a7.3 7.3 0 0 0-2.6 5.8c0 4.6 3.3 7.8 7.9 7.8 4.5 0 7.8-3.3 7.8-7.8 0-2.4-.6-3.7-2.4-5.7l-1.2-1.2-.1-3.7c-.1-3-.3-4-.8-5.3-1-2-3-4.2-5.2-5.3l-1.8-.9h-12.8L116 681l-.7-.8c-.4-.6-.6-1.3-.6-2.5V676l9.2-.1c8.8-.1 9.3-.2 10.8-.9 2-.9 3.8-2.6 5-4.7l.8-1.6.1-9.3c0-8.3.2-9.4.6-9.8.5-.3 2.8-.4 10-.4h9.3l.7 1c1 1.4 3.2 2.6 5.2 2.8 4.8.5 8.7-3 8.7-7.7 0-2.5-.8-4.5-2.6-6a7.7 7.7 0 0 0-10.7.2l-1.4 1.4h-10.6l-10.6.1-1.6 1c-1 .4-2.3 1.5-3 2.3-2.2 2.5-2.4 3.3-2.5 13.3 0 4.9-.2 9-.3 9.2 0 .4-1.7.5-6.8.5h-6.6l1.2-.7c2-1 4-3.1 5-5.1l.8-1.8.2-18.7c.1-18.2.2-18.8.7-19.3.5-.3 1.6-.4 3.9-.4 3 0 3.2 0 3.8.8a8 8 0 0 0 5.5 2.6c3.7.3 7-2 8-5.5.7-2 .7-2.6 0-4.6a7.6 7.6 0 0 0-7.5-5.5c-2.4 0-4.3.8-5.7 2.4l-1 1h-3.4c-6.2 0-9.6 2-11.8 6.5l-1 2.1-.2 18.6c-.2 18-.2 18.6-.8 19-.4.4-1.9.5-6.2.5h-5.5V652.5h1.1c2.3 0 4.7-1.6 5.9-3.7.5-.9.5-2.5.6-12.7 0-7.9 0-12.5-.2-14-1-5.8-5.4-10.7-11-12.5-1.8-.5-2.9-.6-5.5-.5-3 .1-3.5.2-5.7 1.3a16 16 0 0 0-8.7 10.2c-.5 1.8-.5 3.9-.5 14.2 0 12.8 0 13.4 1.4 15.3a7.7 7.7 0 0 0 5 2.4H88V659.2h-5.7c-5.4 0-5.8 0-6.3-.7-.6-.6-.7-1.5-.8-19.3l-.2-18.7-.8-1.6a12 12 0 0 0-5.4-5.3c-1.6-.8-2.3-.8-5.9-1-3.9 0-4-.1-4.6-.8A8 8 0 0 0 56 610a8 8 0 0 0-7.5-.1Z" fill="url(#paint8_linear)"/>
      <path class="_11" d="M162.5 549.9c-3.5 1.7-5 5.6-3.8 9.6a9.5 9.5 0 0 0 4.9 5c3 .8 6 0 8-2l1.2-1.2h3.3c2.9 0 3.3 0 3.9.6.5.7.6 1.6.7 19.4l.2 18.7.8 1.6c1 2 3 4 4.7 5l1.2.6h-6.4c-4.9 0-6.6 0-6.8-.4-.2-.2-.4-3.7-.5-9.7v-9.3l-1-1.7a9.8 9.8 0 0 0-5.2-4.6c-1.6-.5-2.5-.6-11.9-.6h-10l-1-1.1a8 8 0 1 0-9 12.6c2.9 1.4 5.8.8 8.5-1.6l1.8-1.6h9c7.8 0 9.2.1 9.8.6.8.4.8.5.8 9.3 0 8 0 9 .6 10.5.8 2.2 2.8 4.3 5 5.4 1.5.7 1.8.8 10.9 1l9.3.1v1.8c0 3.2.8 3-14 3.2-12.4.1-12.7.2-14.3.9a13 13 0 0 0-5.2 5 16 16 0 0 0-1.3 7.2c0 2.2-.1 2.4-1 3.2-.5.4-1.3 1.6-1.8 2.5-.7 1.5-.8 2-.7 3.9.6 7 9 10 13.7 4.7a7 7 0 0 0 2-5.2 7 7 0 0 0-2.3-5.6c-1.3-1.4-1.3-1.4-1.3-4 0-4.3-.8-4 11.7-4 5.9 0 11.8 0 13.1-.2 3.8-.4 6.3-2 8.3-5.2l1-1.4v15.9c0 14.7-.1 16-.7 17.2-2 4.5-8 4.8-10.4.6-.7-1.1-.8-1.7-.8-4 0-2.5 0-2.6 1-3.5.6-.4 1.3-1.6 1.7-2.5a8 8 0 0 0-8.7-11 8 8 0 0 0-3.7 13.6c1 .9 1 1.1 1 3.1 0 6.7 3.2 12 8.6 14.5 1.8 1 2.6 1 5.3 1.2 2.3 0 3.5 0 4.8-.5 3.6-1.1 6.3-3.2 8-6.2 2.2-3.6 2.2-3.2 2.2-24.8v-19.6h4.5v18.8c0 11.1.1 19.4.3 20.5.8 4.5 4 8.6 8.3 10.6 2 1 2.3 1 6 1 3.5 0 4 0 5.6-.8 5.6-2.6 8.7-7.5 8.7-13.8v-3l1.4-1.3c2.2-2.2 2.9-5 2-8-.6-2-1.8-3.5-3.8-4.6-1.4-.7-2-1-3.8-.9-7.1 0-10.5 8.7-5.3 13.6 1.1 1.1 1.1 1.2 1.1 3.4 0 2.7-.7 4.5-2.1 5.7a5.8 5.8 0 0 1-9-1.5l-.7-1.3v-32.1l1 1.6c.7 1 1.8 2.2 2.7 2.7 2.8 2 3 2 16.2 2.2 6.6 0 12.3.2 12.7.2 1 .3 1.4 1.5 1.4 4.1 0 2.3 0 2.4-1.1 3.5a7.3 7.3 0 0 0-2.6 5.8c0 4.6 3.3 7.8 7.9 7.8 4.5 0 7.8-3.3 7.8-7.8 0-2.4-.6-3.7-2.4-5.7l-1.2-1.2-.1-3.7c-.1-3-.3-4-.8-5.3-1-2-3-4.2-5.2-5.3l-1.8-.9h-12.8L230 621l-.7-.8c-.4-.6-.6-1.3-.6-2.5V616l9.2-.1c8.8-.1 9.3-.2 10.8-.9 2-.9 3.8-2.6 5-4.7l.8-1.6.1-9.3c0-8.3.2-9.4.6-9.8.5-.3 2.8-.4 10-.4h9.3l.7 1c1 1.4 3.2 2.6 5.2 2.8 4.8.5 8.7-3 8.7-7.7 0-2.5-.8-4.5-2.6-6a7.7 7.7 0 0 0-10.7.2l-1.4 1.4h-10.6l-10.6.1-1.6 1c-1 .4-2.3 1.5-3 2.3-2.2 2.5-2.4 3.3-2.5 13.3 0 4.9-.2 9-.3 9.2 0 .4-1.7.5-6.8.5h-6.6l1.2-.7c2-1 4-3.1 5-5.1l.8-1.8.2-18.7c.1-18.2.2-18.8.7-19.3.5-.3 1.6-.4 3.9-.4 3 0 3.2 0 3.8.8a8 8 0 0 0 5.5 2.6c3.7.3 7-2 8-5.5.7-2 .7-2.6 0-4.6a7.6 7.6 0 0 0-7.5-5.5c-2.4 0-4.3.8-5.7 2.4l-1 1h-3.4c-6.2 0-9.6 2-11.8 6.5l-1 2.1-.2 18.6c-.2 18-.2 18.6-.8 19-.4.4-1.9.5-6.2.5h-5.5V592.5h1.1c2.3 0 4.7-1.6 5.9-3.7.5-.9.5-2.5.6-12.7 0-7.9 0-12.5-.2-14-1-5.8-5.4-10.7-11-12.5-1.8-.5-2.9-.6-5.5-.5-3 .1-3.5.2-5.7 1.3a16 16 0 0 0-8.7 10.2c-.5 1.8-.6 3.9-.6 14.2 0 12.8 0 13.4 1.5 15.3a7.7 7.7 0 0 0 5 2.4h1.2V599.2h-5.7c-5.4 0-5.8 0-6.3-.7-.6-.6-.7-1.5-.8-19.3l-.2-18.7-.8-1.6a12 12 0 0 0-5.4-5.3c-1.6-.8-2.3-.8-5.9-1-3.9 0-4-.1-4.6-.8a8 8 0 0 0-2.2-1.8 8 8 0 0 0-7.5-.1Z" fill="url(#paint9_linear)"/>
      <path class="_10" d="M286.5 474c-3.8 1.9-5.5 6-4.2 10.4.5 2 3.5 4.9 5.4 5.4 3.3 1 6.6.2 8.7-2l1.4-1.4h3.6c3.2 0 3.6 0 4.2.7.6.7.7 1.8.9 21.2l.1 20.4 1 1.8c1 2 3.1 4.4 5 5.4l1.4.7h-7c-5.4 0-7.2 0-7.5-.4-.2-.3-.4-4.1-.5-10.6l-.1-10.2-1-2c-1.4-2.2-3.3-4-5.7-4.9-1.8-.6-2.8-.7-13-.7h-11l-1.1-1.2a8.7 8.7 0 0 0-10.5-1.7 8.6 8.6 0 0 0 .7 15.5c3.1 1.5 6.4.9 9.3-1.7l2-1.7h9.8c8.5 0 10.1 0 10.8.5.7.6.7.6.7 10.2 0 8.8.1 9.8.8 11.5.9 2.4 3 4.7 5.4 5.9 1.7.8 2 .8 12 1l10.1.2v2c0 3.4 1 3.2-15.2 3.4-13.6.2-14 .3-15.7 1-2 1-4.7 3.5-5.8 5.5-1 1.9-1.4 4.6-1.4 7.8 0 2.5 0 2.7-1 3.5-.6.5-1.5 1.8-2 2.8-.8 1.7-1 2.2-.8 4.2.6 7.8 10 11 15 5.2a7.6 7.6 0 0 0 2.2-5.7c0-2.7-.6-4-2.5-6-1.4-1.6-1.4-1.7-1.4-4.5 0-4.6-1-4.3 12.8-4.3 6.4 0 12.8-.1 14.3-.3 4.2-.4 7-2.2 9.1-5.6l1-1.6v17.4c0 16 0 17.5-.6 18.8a6.4 6.4 0 0 1-11.5.7c-.7-1.3-.9-2-.9-4.4 0-2.8 0-3 1.1-3.8a8.7 8.7 0 0 0-7.7-14.9 8.8 8.8 0 0 0-4 15c1 1 1.2 1.2 1.2 3.4 0 7.2 3.4 13 9.3 15.8 2 1 3 1.2 5.8 1.3 2.6 0 3.9 0 5.3-.5 4-1.3 6.9-3.5 8.9-6.8 2.3-4 2.3-3.5 2.3-27.2v-21.3h4.9v20.5c0 12.1.1 21.2.4 22.4.9 4.9 4.4 9.5 9 11.6 2.3 1.1 2.6 1.2 6.6 1.2 3.8 0 4.4-.1 6.1-1 6.2-2.9 9.5-8.2 9.5-15.1v-3.2l1.6-1.5a8.3 8.3 0 0 0 2.2-8.6c-.7-2.3-2-4-4.2-5.1-1.5-.8-2.3-1-4.1-1a8.6 8.6 0 0 0-5.9 14.9c1.3 1.2 1.3 1.3 1.3 3.7 0 2.9-.8 4.8-2.4 6.2a6.3 6.3 0 0 1-9.7-1.6l-1-1.5V554l1.3 1.9c.7 1 2 2.3 2.8 2.9 3.2 2.1 3.4 2.1 17.8 2.3l13.9.3c1 .3 1.5 1.7 1.5 4.5 0 2.5 0 2.6-1.2 3.7a8 8 0 0 0-2.8 6.4c0 5 3.6 8.6 8.6 8.6s8.6-3.7 8.6-8.6c0-2.7-.6-4-2.6-6.2l-1.3-1.4-.2-4c-.1-3.2-.3-4.4-.9-5.7-1-2.3-3.3-4.7-5.7-5.8l-2-1h-13.9l-14-.2-.7-.9c-.5-.6-.7-1.4-.7-2.8v-1.8l10.1-.1c9.7-.2 10.2-.2 11.9-1 2.2-1 4.2-2.9 5.4-5.1l1-1.8V528c.1-9 .2-10.2.7-10.6.5-.3 3-.4 10.9-.4H409l.8 1c1 1.6 3.5 2.8 5.7 3 5.2.6 9.5-3.3 9.5-8.4 0-2.7-1-4.9-2.8-6.6-3.4-3-8.3-3-11.7.3l-1.6 1.5-11.6.1-11.6.1-1.8 1a14 14 0 0 0-3.2 2.5c-2.5 2.8-2.7 3.6-2.8 14.6 0 5.3-.2 9.9-.3 10 0 .4-2 .5-7.4.5h-7.3l1.4-.7c2-1 4.3-3.4 5.3-5.6l1-2 .2-20.4c.1-19.8.2-20.5.8-21 .5-.4 1.7-.5 4.2-.5 3.3 0 3.5 0 4.2.9a8.8 8.8 0 0 0 6 2.9c4.1.3 7.7-2.1 8.8-6 .7-2.2.7-2.9 0-5.1-1-3.7-4.2-6-8.2-6-2.7 0-4.8.8-6.3 2.6l-1 1.2h-3.7c-6.8 0-10.6 2-13 7l-1.1 2.3-.2 20.3c-.2 19.6-.2 20.4-.9 20.9-.5.4-2 .5-6.7.5h-6.1v-7.4h1.2c2.5 0 5.1-1.7 6.4-4 .6-1 .6-2.8.7-13.9.1-8.6 0-13.6-.2-15.2-1.1-6.4-6-11.8-12-13.7-2-.6-3.2-.7-6-.6-3.3.1-3.9.3-6.3 1.4a17.6 17.6 0 0 0-9.5 11.2 76 76 0 0 0-.6 15.5c0 14 0 14.6 1.6 16.7 1 1.3 3.7 2.6 5.5 2.6h1.3v7.4h-6.3c-6 0-6.3 0-7-.8-.6-.7-.6-1.7-.8-21.2l-.2-20.4-.9-1.7a13.1 13.1 0 0 0-5.9-5.8c-1.7-.8-2.5-.9-6.4-1-4.3-.1-4.5-.2-5-1a8.7 8.7 0 0 0-2.4-1.9 8.7 8.7 0 0 0-8.3-.1Z" fill="url(#paint10_linear)" fill-opacity=".8"/>
      <path class="_9" d="M446.3 463.1c-4.5 2.3-6.4 7.2-5 12.3.7 2.2 4.1 5.6 6.4 6.3 3.8 1.1 7.6.2 10.2-2.4l1.6-1.6h4.1c3.8 0 4.3 0 5 .8.7.9.8 2 1 24.8l.2 23.9 1 2c1.2 2.4 3.8 5.2 6 6.3l1.6.9h-8.2c-6.3 0-8.4-.1-8.7-.5-.3-.4-.5-4.8-.6-12.4l-.1-12-1.3-2.2a12.6 12.6 0 0 0-6.6-5.7c-2-.8-3.2-.9-15.2-.9h-12.9l-1.2-1.4a10.1 10.1 0 1 0-11.5 16.2c3.7 1.7 7.5 1 11-2.1l2.2-2H437c9.8 0 11.7 0 12.5.7.9.6.9.7.9 11.8 0 10.4 0 11.5.9 13.6 1 2.7 3.5 5.4 6.3 6.8 2 1 2.3 1 14 1.2l11.8.2v2.3c0 4 1 3.8-17.7 4-16 .3-16.4.3-18.4 1.2-2.4 1-5.5 4-6.7 6.5a20.5 20.5 0 0 0-1.7 9c0 3 0 3.2-1.2 4.2-.7.5-1.7 2-2.3 3.2-1 2-1 2.6-1 5 .8 9 11.7 12.8 17.6 6a9 9 0 0 0 2.5-6.7 9 9 0 0 0-2.8-7c-1.7-1.9-1.7-2-1.7-5.2 0-5.4-1-5.1 15-5 7.4 0 15-.2 16.7-.4 4.8-.5 8-2.6 10.6-6.6l1.2-1.8v20.3c0 18.8 0 20.4-.8 22a7.5 7.5 0 0 1-13.4.8c-.8-1.5-1-2.3-1-5.1 0-3.3 0-3.4 1.3-4.5.7-.6 1.7-2 2.2-3.2 3.6-7.5-3-16-11.2-14.2A10.3 10.3 0 0 0 466 590c1.1 1.1 1.2 1.4 1.2 4 0 8.5 4 15.2 11 18.5 2.4 1.1 3.3 1.3 6.8 1.5 3 0 4.4 0 6.1-.6 4.6-1.5 8-4.1 10.4-8 2.7-4.5 2.7-4 2.7-31.7v-25H509.8v24c0 14.2.2 24.9.4 26.2 1 5.7 5.2 11 10.6 13.6 2.6 1.3 3 1.3 7.7 1.3 4.4 0 5.1 0 7.2-1 7.1-3.4 11-9.6 11-17.7v-3.7l1.9-1.8a9.7 9.7 0 0 0 2.5-10.1 9.6 9.6 0 0 0-4.9-6 8 8 0 0 0-4.8-1.1 10 10 0 0 0-6.8 17.4c1.4 1.4 1.5 1.5 1.5 4.3 0 3.4-1 5.7-2.8 7.3a7.4 7.4 0 0 1-11.4-1.9l-1-1.8v-41l1.4 2.2c.8 1.2 2.3 2.7 3.3 3.4 3.7 2.5 3.9 2.5 20.7 2.7 8.5.1 15.8.3 16.3.4 1.2.3 1.8 1.9 1.8 5.2 0 2.9 0 3-1.5 4.4a9.3 9.3 0 0 0-3.2 7.4c0 5.9 4.1 10 10 10 5.8 0 10-4.2 10-10 0-3-.7-4.7-3-7.2l-1.6-1.6-.1-4.7c-.2-3.7-.4-5.2-1-6.7a15 15 0 0 0-6.7-6.8l-2.3-1.1-16.3-.1-16.3-.2-.8-1c-.6-.8-.9-1.7-.9-3.3v-2.2h11.8c11.3-.2 12-.2 13.9-1.1a14 14 0 0 0 6.3-6l1-2.1.2-12c.1-10.5.2-11.9.8-12.4.5-.4 3.5-.5 12.7-.5h12l.8 1.3c1.3 1.7 4.2 3.2 6.7 3.5 6 .6 11.1-3.9 11.1-9.9 0-3.2-1-5.7-3.3-7.7a9.9 9.9 0 0 0-13.6.3l-2 1.8-13.4.1-13.6.1-2 1.1c-1.2.7-3 2-3.8 3-3 3.3-3.1 4.3-3.3 17 0 6.3-.2 11.6-.3 11.9-.1.4-2.3.5-8.7.5h-8.5l1.6-.9c2.4-1.2 5-4 6.3-6.5l1-2.2.3-24c.2-23.1.2-24 1-24.5.5-.5 2-.6 4.9-.6 3.8 0 4 0 4.8 1 1.4 1.8 4.3 3.2 7 3.4 4.9.4 9-2.5 10.4-7 .8-2.6.8-3.3 0-6-1.3-4.3-5-7-9.7-7-3 0-5.5 1-7.3 3l-1.2 1.5h-4.3c-8 0-12.3 2.3-15.1 8.1l-1.4 2.8-.2 23.7c-.2 23-.2 23.8-1 24.4-.6.4-2.4.5-7.9.5h-7.1v-8.6h1.4c3 0 6-2 7.5-4.7.7-1 .7-3.2.9-16.2 0-10 0-16-.4-17.8a20.6 20.6 0 0 0-14-16c-2.3-.7-3.6-.8-7-.7-3.8.2-4.5.3-7.3 1.7a20.6 20.6 0 0 0-11.1 13 89 89 0 0 0-.7 18.2c0 16.3 0 17 1.9 19.5 1.1 1.5 4.3 3 6.4 3h1.5v8.6h-7.3c-7 0-7.4 0-8.2-.8-.7-.8-.7-2-1-24.8l-.1-23.9-1-2c-1.4-2.8-4.1-5.4-7-6.7-2-1-3-1.1-7.5-1.2-5-.2-5.3-.2-5.9-1.2-.3-.5-1.6-1.5-2.8-2.2-2.9-1.7-6.5-1.7-9.6-.2Z" fill="url(#paint11_linear)" fill-opacity=".8"/>
      <path class="_8" d="M595.7 359.3c-5.3 2.7-7.6 8.5-5.9 14.5.8 2.7 4.8 6.8 7.5 7.5a12 12 0 0 0 12.1-2.8l1.9-2h4.9c4.4 0 5 .2 5.9 1 .8 1 .9 2.5 1.1 29.4l.3 28.3 1.2 2.4c1.4 2.9 4.5 6 7 7.5l2 1h-9.8c-7.4 0-9.9-.1-10.3-.6a91 91 0 0 1-.7-14.7l-.1-14.1-1.5-2.6a14.9 14.9 0 0 0-7.8-6.9c-2.5-.9-3.8-1-18-1h-15.2l-1.4-1.6a12 12 0 1 0-13.6 19c4.3 2 8.8 1.2 12.9-2.4l2.6-2.3h13.7c11.7 0 14 0 14.8.8 1.1.7 1.1.8 1.1 14 0 12.3.1 13.6 1 16 1.3 3.3 4.2 6.4 7.5 8 2.4 1.3 2.8 1.3 16.5 1.6l14.1.2v2.8c0 4.7 1.2 4.4-21 4.7-18.9.3-19.3.3-21.8 1.4a19.6 19.6 0 0 0-7.9 7.6c-1.3 2.6-2 6.3-2 10.8 0 3.4 0 3.7-1.4 4.8-.8.7-2 2.5-2.8 4a8.7 8.7 0 0 0-1 5.7c.9 10.8 13.7 15.3 20.8 7.3 2.1-2.6 2.9-4.6 2.9-8 0-3.7-.8-5.6-3.4-8.4-2-2.2-2-2.2-2-6.1 0-6.4-1.2-6 17.8-6 8.8 0 17.7-.1 19.7-.4 5.7-.6 9.5-3 12.6-7.8l1.4-2.1v24c0 22.3-.1 24.2-1 26a8.8 8.8 0 0 1-15.8 1c-1-1.7-1.2-2.6-1.2-6 0-4 0-4 1.5-5.4 1-.6 2-2.3 2.7-3.7a12 12 0 0 0-13.2-16.8 12.2 12.2 0 0 0-5.6 20.6c1.4 1.4 1.5 1.7 1.5 4.8 0 10 4.8 18 13 22 2.8 1.3 4 1.5 8 1.6 3.5.2 5.3 0 7.3-.6 5.4-1.7 9.5-4.9 12.2-9.4 3.3-5.4 3.2-4.8 3.2-37.6v-29.6h6.8v28.4c0 16.8.2 29.4.5 31a23.2 23.2 0 0 0 12.5 16.1c3.1 1.6 3.6 1.6 9.1 1.6 5.3 0 6-.1 8.5-1.3a22 22 0 0 0 13.1-21v-4.3l2.2-2.1c3.3-3.4 4.3-7.5 3-12-1-3.1-2.8-5.4-5.8-7a9.5 9.5 0 0 0-5.7-1.4c-10.8 0-15.9 13.2-8 20.6 1.6 1.7 1.7 1.8 1.7 5.1 0 4-1 6.8-3.3 8.7a8.8 8.8 0 0 1-13.5-2.3l-1.2-2v-48.6l1.7 2.5c1 1.4 2.7 3.2 4 4 4.3 3 4.5 3 24.4 3.3 10 .1 18.7.3 19.3.4 1.4.3 2 2.3 2 6.2 0 3.4 0 3.6-1.6 5.2a11 11 0 0 0-3.8 8.8c0 7 4.9 11.9 11.8 11.9 6.8 0 11.8-5 11.8-12 0-3.6-.8-5.5-3.5-8.4l-1.9-2-.2-5.6a19 19 0 0 0-1.2-7.8 17.7 17.7 0 0 0-7.9-8l-2.7-1.4-19.3-.2-19.2-.1-1-1.3c-.7-.9-1-2-1-3.8v-2.6l14-.1c13.3-.2 14-.2 16.3-1.3 3-1.4 5.8-4 7.5-7.2l1.3-2.4.1-14.1c.2-12.5.3-14.2 1-14.7a67 67 0 0 1 15-.6H765l1 1.5c1.5 2 4.9 3.8 7.9 4.2 7.1.7 13.1-4.7 13.1-11.8 0-3.7-1.3-6.7-3.9-9-4.7-4.3-11.4-4.1-16.2.3l-2.2 2-16 .2-16 .2-2.5 1.3c-1.3.7-3.4 2.3-4.4 3.5-3.4 4-3.7 5-3.9 20.2 0 7.4-.2 13.7-.3 14-.2.5-2.7.6-10.3.6h-10.1l1.9-1c2.9-1.5 6-4.7 7.4-7.7l1.3-2.7.3-28.4c.2-27.4.3-28.4 1.1-29 .7-.5 2.4-.7 5.8-.7 4.6 0 4.9 0 5.8 1.2a12 12 0 0 0 8.3 4c5.7.5 10.6-3 12.2-8.4 1-3 1-3.8 0-7a11.4 11.4 0 0 0-11.4-8.3c-3.7 0-6.5 1.2-8.7 3.7l-1.4 1.6h-5.1c-9.4 0-14.5 2.8-17.9 9.7l-1.6 3.2-.2 28.1c-.3 27.2-.3 28.2-1.2 28.9-.7.5-2.9.7-9.4.7H680v-10.3h1.7c3.4 0 7.1-2.3 9-5.6.7-1.2.8-3.7.9-19.1 0-12 0-18.9-.4-21.1a24.4 24.4 0 0 0-16.6-19 21 21 0 0 0-8.3-.7 16 16 0 0 0-8.6 1.9 24.3 24.3 0 0 0-13.2 15.4c-.7 2.8-.8 5.9-.8 21.5 0 19.4 0 20.2 2.2 23.1 1.4 1.8 5.2 3.6 7.6 3.6h1.8V434h-8.7c-8.2 0-8.7 0-9.6-1-.8-1-.9-2.3-1.1-29.3l-.3-28.3-1.2-2.4a18.1 18.1 0 0 0-8.2-8c-2.4-1-3.4-1.2-8.9-1.4-5.9-.2-6.2-.2-7-1.3a12 12 0 0 0-3.2-2.7 12 12 0 0 0-11.4-.2Z" fill="url(#paint12_linear)" fill-opacity=".8"/>
      <path class="_7" d="M737.7 223.3c-5.3 2.7-7.6 8.5-5.9 14.5.8 2.7 4.8 6.8 7.5 7.5a12 12 0 0 0 12.1-2.8l1.9-2h4.9c4.4 0 5 .2 5.9 1 .8 1 .9 2.5 1.1 29.4l.3 28.3 1.2 2.4c1.4 2.9 4.5 6 7 7.5l2 1h-9.8c-7.4 0-9.9-.1-10.3-.6a91 91 0 0 1-.7-14.7l-.1-14.1-1.5-2.6a14.9 14.9 0 0 0-7.8-6.9c-2.5-.9-3.8-1-18-1h-15.2l-1.4-1.6a12 12 0 1 0-13.6 19c4.3 2 8.8 1.2 12.9-2.4l2.6-2.3h13.7c11.7 0 14 0 14.8.8 1.1.7 1.1.8 1.1 14 0 12.3.1 13.6 1 16 1.3 3.3 4.2 6.4 7.5 8 2.4 1.3 2.8 1.3 16.5 1.6l14.1.2v2.8c0 4.7 1.2 4.4-21 4.7-18.9.3-19.3.3-21.8 1.4a19.6 19.6 0 0 0-7.9 7.6c-1.3 2.6-2 6.3-2 10.8 0 3.4 0 3.7-1.4 4.8-.8.7-2 2.5-2.8 4a8.7 8.7 0 0 0-1 5.7c.9 10.8 13.7 15.3 20.8 7.3 2.1-2.6 2.9-4.6 2.9-8 0-3.7-.8-5.6-3.4-8.4-2-2.2-2-2.2-2-6.1 0-6.4-1.2-6 17.8-6 8.8 0 17.7-.1 19.7-.4 5.7-.6 9.5-3 12.6-7.8l1.4-2.1v24c0 22.3-.1 24.2-1 26a8.8 8.8 0 0 1-15.8 1c-1-1.7-1.2-2.6-1.2-6 0-4 0-4 1.5-5.4 1-.6 2-2.3 2.7-3.7a12 12 0 0 0-13.2-16.8 12.2 12.2 0 0 0-5.6 20.6c1.4 1.4 1.5 1.7 1.5 4.8 0 10 4.8 18 13 22 2.8 1.3 4 1.5 8 1.6 3.5.2 5.3 0 7.3-.6 5.4-1.7 9.5-4.9 12.2-9.4 3.3-5.4 3.2-4.8 3.2-37.6v-29.6h6.8v28.4c0 16.8.2 29.4.5 31a23.2 23.2 0 0 0 12.5 16.1c3.1 1.6 3.6 1.6 9.1 1.6 5.3 0 6-.1 8.5-1.3a22 22 0 0 0 13.1-21v-4.3l2.2-2.1c3.3-3.4 4.3-7.5 3-12-1-3.1-2.8-5.4-5.8-7a9.5 9.5 0 0 0-5.7-1.4c-10.8 0-15.9 13.2-8 20.6 1.6 1.7 1.7 1.8 1.7 5.1 0 4-1 6.8-3.3 8.7a8.8 8.8 0 0 1-13.5-2.3l-1.2-2v-48.6l1.7 2.5c1 1.4 2.7 3.2 4 4 4.3 3 4.5 3 24.4 3.3 10 .1 18.7.3 19.3.4 1.4.3 2 2.3 2 6.2 0 3.4 0 3.6-1.6 5.2a11 11 0 0 0-3.8 8.8c0 7 4.9 11.9 11.8 11.9 6.8 0 11.8-5 11.8-12 0-3.6-.8-5.5-3.5-8.4l-1.9-2-.2-5.6a19 19 0 0 0-1.2-7.8 17.7 17.7 0 0 0-7.9-8l-2.7-1.4-19.3-.2-19.2-.1-1-1.3c-.7-.9-1-2-1-3.8v-2.6l14-.1c13.3-.2 14-.2 16.3-1.3 3-1.4 5.8-4 7.5-7.2l1.3-2.4.1-14.1c.2-12.5.3-14.2 1-14.7a67 67 0 0 1 15-.6H907l1 1.5c1.5 2 4.9 3.8 7.9 4.2 7.1.7 13.1-4.7 13.1-11.8 0-3.7-1.3-6.7-3.9-9-4.7-4.3-11.4-4.1-16.2.3l-2.2 2-16 .2-16 .2-2.5 1.3c-1.3.7-3.4 2.3-4.4 3.5-3.4 4-3.7 5-3.9 20.2 0 7.4-.2 13.7-.3 14-.2.5-2.7.6-10.3.6h-10.1l1.9-1c2.9-1.5 6-4.7 7.4-7.7l1.3-2.7.3-28.4c.2-27.4.3-28.4 1.1-29 .7-.5 2.4-.7 5.8-.7 4.6 0 4.9 0 5.8 1.2a12 12 0 0 0 8.3 4c5.7.5 10.6-3 12.2-8.4 1-3 1-3.8 0-7a11.4 11.4 0 0 0-11.4-8.3c-3.7 0-6.5 1.2-8.7 3.7l-1.4 1.6h-5.1c-9.4 0-14.5 2.8-17.9 9.7l-1.6 3.2-.2 28.1c-.3 27.2-.3 28.2-1.2 28.9-.7.5-2.9.7-9.4.7H822v-10.3h1.7c3.4 0 7.1-2.3 9-5.6.7-1.2.8-3.7.9-19.1 0-12 0-18.9-.4-21.1a24.4 24.4 0 0 0-16.6-19 21 21 0 0 0-8.3-.7 16 16 0 0 0-8.6 1.9 24.3 24.3 0 0 0-13.2 15.4c-.7 2.8-.8 5.9-.8 21.5 0 19.4 0 20.2 2.2 23.1 1.4 1.8 5.2 3.6 7.6 3.6h1.8V298h-8.7c-8.2 0-8.7 0-9.6-1-.8-1-.9-2.3-1.1-29.3l-.3-28.3-1.2-2.4a18.1 18.1 0 0 0-8.2-8c-2.4-1-3.4-1.2-8.9-1.4-5.9-.2-6.2-.2-7-1.3a12 12 0 0 0-3.2-2.7 12 12 0 0 0-11.4-.2Z" fill="url(#paint13_linear)"/>
      <path class="_6" opacity=".7" d="M919.7 133.3c-5.3 2.7-7.6 8.5-5.9 14.5.8 2.7 4.8 6.8 7.5 7.5a12 12 0 0 0 12.1-2.8l1.9-2h4.9c4.4 0 5 .2 5.9 1 .8 1 .9 2.5 1.1 29.4l.3 28.3 1.2 2.4c1.4 2.9 4.5 6 7 7.5l2 1h-9.8c-7.4 0-9.9-.1-10.3-.6a91 91 0 0 1-.7-14.7l-.1-14.1-1.5-2.6a14.9 14.9 0 0 0-7.8-6.9c-2.5-.9-3.8-1-18-1h-15.2l-1.4-1.6a12 12 0 1 0-13.6 19c4.3 2 8.8 1.2 12.9-2.4l2.6-2.3h13.7c11.7 0 14 0 14.8.8 1.1.7 1.1.8 1.1 14 0 12.3.1 13.6 1 16 1.3 3.3 4.2 6.4 7.5 8 2.4 1.3 2.8 1.3 16.5 1.6l14.1.2v2.8c0 4.7 1.2 4.4-21 4.7-18.9.3-19.3.3-21.8 1.4a19.6 19.6 0 0 0-7.9 7.6c-1.3 2.6-2 6.3-2 10.8 0 3.4 0 3.7-1.4 4.8-.8.7-2 2.5-2.8 4a8.7 8.7 0 0 0-1 5.7c.9 10.8 13.7 15.3 20.8 7.3 2.1-2.6 2.9-4.6 2.9-8 0-3.7-.8-5.6-3.4-8.4-2-2.2-2-2.2-2-6.1 0-6.4-1.2-6 17.8-6 8.8 0 17.7-.1 19.7-.4 5.7-.6 9.5-3 12.6-7.8l1.4-2.1v24c0 22.3-.1 24.2-1 26a8.8 8.8 0 0 1-15.8 1c-1-1.7-1.2-2.6-1.2-6 0-4 0-4 1.5-5.4 1-.6 2-2.3 2.7-3.7a12 12 0 0 0-13.2-16.8 12.2 12.2 0 0 0-5.6 20.6c1.4 1.4 1.5 1.7 1.5 4.8 0 10 4.8 18 13 22 2.8 1.3 4 1.5 8 1.6 3.5.2 5.3 0 7.3-.6 5.4-1.7 9.5-4.9 12.2-9.4 3.3-5.4 3.2-4.8 3.2-37.6v-29.6h6.8v28.4c0 16.8.2 29.4.5 31a23.2 23.2 0 0 0 12.5 16.1c3.1 1.6 3.6 1.6 9.1 1.6 5.3 0 6-.1 8.5-1.3a22 22 0 0 0 13.1-21v-4.3l2.2-2.1c3.3-3.4 4.3-7.5 3-12-1-3.1-2.8-5.4-5.8-7a9.5 9.5 0 0 0-5.7-1.4 11.9 11.9 0 0 0-8 20.6c1.6 1.7 1.7 1.8 1.7 5.1 0 4-1 6.8-3.3 8.7a8.8 8.8 0 0 1-13.5-2.3l-1.2-2v-48.6l1.7 2.5c1 1.4 2.7 3.2 4 4 4.3 3 4.5 3 24.4 3.3 10 .1 18.7.3 19.3.4 1.4.3 2 2.3 2 6.2 0 3.4 0 3.6-1.6 5.2a11 11 0 0 0-3.9 8.8c0 7 5 11.9 11.9 11.9 6.8 0 11.8-5 11.8-12 0-3.6-.8-5.5-3.5-8.4l-1.9-2-.2-5.6a19 19 0 0 0-1.2-7.8 17.7 17.7 0 0 0-7.9-8l-2.7-1.4-19.3-.2-19.2-.1-1-1.3c-.7-.9-1-2-1-3.8v-2.6l14-.1c13.3-.2 14-.2 16.3-1.3 3-1.4 5.8-4 7.4-7.2l1.4-2.4.1-14.1c.2-12.5.3-14.2 1-14.7a67 67 0 0 1 15-.6h14.2l1 1.5c1.5 2 4.9 3.8 7.9 4.2 7.1.7 13.1-4.7 13.1-11.8 0-3.7-1.3-6.7-3.9-9-4.7-4.3-11.4-4.1-16.1.3l-2.3 2-16 .2-16 .2-2.5 1.3c-1.3.7-3.4 2.3-4.4 3.5-3.4 4-3.7 5-3.9 20.2 0 7.4-.2 13.7-.4 14 0 .5-2.6.6-10.2.6h-10.1l1.9-1c2.9-1.5 6-4.7 7.4-7.7l1.3-2.7.3-28.4c.2-27.4.3-28.4 1.2-29 .6-.5 2.3-.7 5.7-.7 4.6 0 4.9 0 5.8 1.2a12 12 0 0 0 8.3 4c5.7.5 10.6-3 12.2-8.4 1-3 1-3.8 0-7a11.4 11.4 0 0 0-11.4-8.3c-3.7 0-6.5 1.2-8.7 3.7l-1.4 1.6h-5.1c-9.4 0-14.5 2.8-17.9 9.7l-1.6 3.2-.2 28.1c-.3 27.2-.3 28.2-1.2 28.9-.7.5-2.8.7-9.4.7h-8.4v-10.2h1.7c3.4 0 7.1-2.4 9-5.7.6-1.2.8-3.7.9-19.1 0-12 0-18.9-.4-21.1a24.4 24.4 0 0 0-16.6-19 21 21 0 0 0-8.3-.7 16 16 0 0 0-8.6 1.9 24.3 24.3 0 0 0-13.2 15.4c-.7 2.8-.8 5.9-.8 21.5 0 19.3 0 20.2 2.2 23.1 1.4 1.8 5.2 3.6 7.6 3.6h1.8V208h-8.7c-8.2 0-8.7 0-9.6-1-.8-1-.9-2.3-1.1-29.3l-.3-28.3-1.2-2.4a18.1 18.1 0 0 0-8.2-8c-2.4-1-3.4-1.2-8.9-1.4-5.9-.2-6.2-.2-7-1.3a12 12 0 0 0-3.2-2.7 12 12 0 0 0-11.4-.2Z" fill="url(#paint14_linear)"/>
      <path class="_5" d="M1091.7 179.3c-5.3 2.7-7.6 8.5-5.9 14.5.8 2.7 4.8 6.8 7.5 7.5a12 12 0 0 0 12.1-2.8l1.9-2h4.9c4.4 0 5 .2 5.9 1 .8 1 .9 2.5 1.1 29.4l.3 28.3 1.2 2.4c1.4 2.9 4.5 6 7 7.5l2 1h-9.8c-7.4 0-9.9-.1-10.3-.6-.3-.4-.6-5.7-.7-14.7l-.1-14.1-1.5-2.6a15 15 0 0 0-7.8-6.9c-2.5-.9-3.8-1-18-1h-15.2l-1.4-1.6a12 12 0 1 0-13.6 19c4.3 2 8.8 1.2 12.9-2.4l2.6-2.3h13.7c11.7 0 14 0 14.8.8 1.1.7 1.1.8 1.1 14 0 12.3.1 13.6 1 16 1.3 3.3 4.2 6.4 7.5 8 2.4 1.3 2.8 1.3 16.5 1.6l14.1.2v2.8c0 4.7 1.2 4.4-21 4.7-18.9.3-19.3.3-21.8 1.4a19.6 19.6 0 0 0-7.9 7.6c-1.3 2.6-2 6.3-2 10.8 0 3.4 0 3.7-1.4 4.8-.8.7-2 2.5-2.8 4a8.6 8.6 0 0 0-1 5.7c.9 10.8 13.7 15.3 20.8 7.3 2.1-2.6 2.9-4.6 2.9-8 0-3.7-.8-5.6-3.4-8.4-2-2.2-2-2.2-2-6.1 0-6.4-1.2-6 17.8-6 8.8 0 17.7-.1 19.7-.4 5.7-.6 9.5-3 12.6-7.8l1.4-2.1v24c0 22.3-.1 24.2-1 26a8.8 8.8 0 0 1-15.8 1c-1-1.7-1.2-2.6-1.2-6 0-4 0-4 1.5-5.4 1-.6 2-2.3 2.7-3.7a12 12 0 0 0-13.3-16.8 12.2 12.2 0 0 0-5.5 20.6c1.4 1.4 1.5 1.7 1.5 4.8 0 10 4.8 18 13 22 2.8 1.3 4 1.5 8 1.6 3.5.2 5.3 0 7.3-.6 5.4-1.7 9.5-4.9 12.2-9.4 3.3-5.4 3.2-4.8 3.2-37.6v-29.6h6.8v28.4c0 16.8.2 29.4.5 31a23.2 23.2 0 0 0 12.5 16.1c3.1 1.6 3.6 1.6 9.1 1.6 5.3 0 6-.1 8.5-1.3a22 22 0 0 0 13.1-21v-4.3l2.2-2.1c3.3-3.4 4.3-7.5 3-12-1-3.1-2.8-5.4-5.8-7a9.5 9.5 0 0 0-5.7-1.4 11.9 11.9 0 0 0-8 20.6c1.6 1.7 1.7 1.8 1.7 5.1 0 4-1 6.8-3.3 8.7a8.8 8.8 0 0 1-13.5-2.3l-1.2-2v-48.6l1.7 2.5c1 1.4 2.7 3.2 4 4 4.3 3 4.5 3 24.4 3.3 10 .1 18.7.3 19.3.4 1.4.3 2 2.3 2 6.2 0 3.4 0 3.6-1.6 5.2a11 11 0 0 0-3.9 8.8c0 7 5 11.9 11.9 11.9 6.8 0 11.8-5 11.8-12 0-3.6-.8-5.5-3.5-8.4l-1.9-2-.2-5.6a19 19 0 0 0-1.2-7.8 17.7 17.7 0 0 0-7.9-8l-2.7-1.4-19.3-.2-19.2-.1-1-1.3c-.7-.9-1-2-1-3.8v-2.6l14-.1c13.3-.2 14-.2 16.3-1.3 3-1.4 5.8-4 7.4-7.2l1.4-2.4.1-14.1c.2-12.5.3-14.2 1-14.7a67 67 0 0 1 15-.6h14.2l1 1.5c1.5 2 4.9 3.8 7.9 4.2 7.1.7 13.1-4.7 13.1-11.8 0-3.7-1.3-6.7-3.9-9-4.7-4.3-11.4-4.1-16.1.3l-2.3 2-16 .2-16 .2-2.5 1.3c-1.3.7-3.4 2.3-4.4 3.5-3.4 4-3.7 5-3.9 20.2 0 7.4-.2 13.7-.4 14 0 .5-2.6.6-10.2.6h-10.1l1.9-1c2.9-1.5 6-4.7 7.4-7.7l1.3-2.7.3-28.4c.2-27.4.3-28.4 1.2-29 .6-.5 2.3-.7 5.7-.7 4.6 0 4.9 0 5.8 1.2a12 12 0 0 0 8.3 4c5.7.5 10.6-3 12.2-8.4 1-3 1-3.8 0-7a11.4 11.4 0 0 0-11.4-8.3c-3.7 0-6.5 1.2-8.7 3.7l-1.4 1.6h-5.1c-9.4 0-14.5 2.8-17.9 9.7l-1.6 3.2-.2 28.1c-.3 27.2-.3 28.2-1.2 28.9-.7.5-2.8.7-9.4.7h-8.4v-10.2h1.7c3.4 0 7.1-2.4 9-5.7.6-1.2.8-3.7.9-19.1 0-12 0-18.9-.4-21.1a24.4 24.4 0 0 0-16.7-19c-2.6-.7-4.2-1-8.2-.7a16 16 0 0 0-8.6 1.9 24.3 24.3 0 0 0-13.2 15.4c-.7 2.8-.8 5.9-.8 21.5 0 19.3 0 20.2 2.2 23.1 1.4 1.8 5.2 3.6 7.6 3.6h1.8V254h-8.7c-8.2 0-8.7 0-9.6-1-.8-1-.9-2.3-1.1-29.3l-.3-28.3-1.2-2.4a18.1 18.1 0 0 0-8.2-8c-2.4-1-3.5-1.2-8.9-1.4-5.9-.2-6.2-.2-7-1.3a12 12 0 0 0-3.2-2.7 12 12 0 0 0-11.4-.2Z" fill="url(#paint15_linear)" fill-opacity=".5"/>
      <path class="_4" d="M595.7 89.3c-5.3 2.7-7.6 8.5-5.9 14.5.8 2.7 4.8 6.8 7.5 7.5a12 12 0 0 0 12.1-2.8l1.9-2h4.9c4.4 0 5 .2 5.9 1 .8 1 .9 2.5 1.1 29.4l.3 28.3 1.2 2.4c1.4 2.9 4.5 6 7 7.5l2 1h-9.8c-7.4 0-9.9-.1-10.3-.6a91 91 0 0 1-.7-14.7l-.1-14.1-1.5-2.6a14.9 14.9 0 0 0-7.8-6.9c-2.5-.9-3.8-1-18-1h-15.2l-1.4-1.6a12 12 0 1 0-13.6 19c4.3 2 8.8 1.2 12.9-2.4l2.6-2.3h13.7c11.7 0 14 0 14.8.8 1.1.7 1.1.8 1.1 14 0 12.3.1 13.6 1 16 1.3 3.3 4.2 6.4 7.5 8 2.4 1.3 2.8 1.3 16.5 1.6l14.1.2v2.8c0 4.7 1.2 4.4-21 4.7-18.9.3-19.3.3-21.8 1.4a19.6 19.6 0 0 0-7.9 7.6c-1.3 2.6-2 6.3-2 10.8 0 3.4 0 3.7-1.4 4.8-.8.7-2 2.5-2.8 4a8.7 8.7 0 0 0-1 5.7c.9 10.8 13.7 15.3 20.8 7.3 2.1-2.6 2.9-4.6 2.9-8 0-3.7-.8-5.6-3.4-8.4-2-2.2-2-2.2-2-6.1 0-6.4-1.2-6 17.8-6 8.8 0 17.7-.1 19.7-.4 5.7-.6 9.5-3 12.6-7.8l1.4-2.1v24c0 22.3-.1 24.2-1 26a8.8 8.8 0 0 1-15.8 1c-1-1.7-1.2-2.6-1.2-6 0-4 0-4 1.5-5.4 1-.6 2-2.3 2.7-3.7a12 12 0 0 0-13.2-16.8 12.2 12.2 0 0 0-5.6 20.6c1.4 1.4 1.5 1.7 1.5 4.8 0 10 4.8 18 13 22 2.8 1.3 4 1.5 8 1.6 3.5.2 5.3 0 7.3-.6 5.4-1.7 9.5-4.9 12.2-9.4 3.3-5.4 3.2-4.8 3.2-37.6v-29.6h6.8v28.4c0 16.8.2 29.4.5 31a23.2 23.2 0 0 0 12.5 16.1c3.1 1.6 3.6 1.6 9.1 1.6 5.3 0 6-.1 8.5-1.3a22 22 0 0 0 13.1-21v-4.3l2.2-2.1c3.3-3.4 4.3-7.5 3-12-1-3.1-2.8-5.4-5.8-7a9.5 9.5 0 0 0-5.7-1.4c-10.8 0-15.9 13.2-8 20.6 1.6 1.7 1.7 1.8 1.7 5.1 0 4-1 6.8-3.3 8.7a8.8 8.8 0 0 1-13.5-2.3l-1.2-2v-48.6l1.7 2.5c1 1.4 2.7 3.2 4 4 4.3 3 4.5 3 24.4 3.3 10 .1 18.7.3 19.3.4 1.4.3 2 2.3 2 6.2 0 3.4 0 3.6-1.6 5.2a11 11 0 0 0-3.8 8.8c0 7 4.9 11.9 11.8 11.9 6.8 0 11.8-5 11.8-12 0-3.6-.8-5.5-3.5-8.4l-1.9-2-.2-5.6a19 19 0 0 0-1.2-7.8 17.7 17.7 0 0 0-7.9-8l-2.7-1.4-19.3-.2-19.2-.1-1-1.3c-.7-.9-1-2-1-3.8v-2.6l14-.1c13.3-.2 14-.2 16.3-1.3 3-1.4 5.8-4 7.5-7.2l1.3-2.4.1-14.1c.2-12.5.3-14.2 1-14.7a67 67 0 0 1 15-.6H765l1 1.5c1.5 2 4.9 3.8 7.9 4.2 7.1.7 13.1-4.7 13.1-11.8 0-3.7-1.3-6.7-3.9-9-4.7-4.3-11.4-4.1-16.2.3l-2.2 2-16 .2-16 .2-2.5 1.3c-1.3.7-3.4 2.3-4.4 3.5-3.4 4-3.7 5-3.9 20.2 0 7.4-.2 13.7-.3 14-.2.5-2.7.6-10.3.6h-10.1l1.9-1c2.9-1.5 6-4.7 7.4-7.7l1.3-2.7.3-28.4c.2-27.4.3-28.4 1.1-29 .7-.5 2.4-.7 5.8-.7 4.6 0 4.9 0 5.8 1.2a12 12 0 0 0 8.3 4c5.7.5 10.6-3 12.2-8.3 1-3 1-4 0-7.1a11.4 11.4 0 0 0-11.4-8.3c-3.7 0-6.5 1.2-8.7 3.7l-1.4 1.6h-5.1c-9.4 0-14.5 2.8-17.9 9.7l-1.6 3.2-.2 28.1c-.3 27.2-.3 28.2-1.2 28.9-.7.5-2.9.7-9.4.7H680v-10.2h1.7c3.4 0 7.1-2.4 9-5.7.7-1.2.8-3.7.9-19.1 0-12 0-18.9-.4-21.1a24.4 24.4 0 0 0-16.6-19 21 21 0 0 0-8.3-.7 16 16 0 0 0-8.6 1.9 24.3 24.3 0 0 0-13.2 15.4c-.7 2.8-.8 5.9-.8 21.5 0 19.3 0 20.2 2.2 23.1 1.4 1.8 5.2 3.6 7.6 3.6h1.8V164h-8.7c-8.2 0-8.7 0-9.6-1-.8-1-.9-2.3-1.1-29.3l-.3-28.3-1.2-2.4a18.1 18.1 0 0 0-8.2-8c-2.4-1-3.4-1.2-8.9-1.4-5.9-.2-6.2-.2-7-1.3a12 12 0 0 0-3.2-2.7 12 12 0 0 0-11.4-.2Z" fill="url(#paint16_linear)" fill-opacity=".8"/>
      <path class="_3" d="M777.7 1.3c-5.3 2.7-7.6 8.5-5.9 14.5.8 2.7 4.8 6.8 7.5 7.5a12 12 0 0 0 12.1-2.8l1.9-2h4.9c4.4 0 5 .2 5.9 1 .8 1 .9 2.5 1.1 29.4l.3 28.3 1.2 2.4c1.4 2.9 4.5 6 7 7.5l2 1h-9.8c-7.4 0-9.9-.1-10.3-.6a91 91 0 0 1-.7-14.7l-.1-14.1-1.5-2.6a14.9 14.9 0 0 0-7.8-6.9c-2.5-.9-3.8-1-18-1h-15.2l-1.4-1.6a12 12 0 1 0-13.6 19c4.3 2 8.8 1.2 12.9-2.4l2.6-2.3h13.7c11.7 0 14 0 14.8.8 1.1.7 1.1.8 1.1 14 0 12.3.1 13.6 1 16 1.3 3.3 4.2 6.4 7.5 8 2.4 1.3 2.8 1.3 16.5 1.5l14.1.3v2.8c0 4.7 1.2 4.4-21 4.7-18.9.3-19.3.3-21.8 1.4a19.6 19.6 0 0 0-7.9 7.6c-1.3 2.6-2 6.3-2 10.8 0 3.4 0 3.7-1.4 4.8-.8.7-2 2.5-2.8 4a8.7 8.7 0 0 0-1 5.7c.9 10.8 13.7 15.3 20.8 7.3 2.1-2.6 2.9-4.6 2.9-8 0-3.7-.8-5.6-3.4-8.4-2-2.2-2-2.2-2-6.1 0-6.4-1.2-6 17.8-6 8.8 0 17.7-.1 19.7-.4 5.7-.6 9.5-3 12.6-7.8l1.4-2.1v24c0 22.3-.1 24.2-1 26a8.8 8.8 0 0 1-15.8 1c-1-1.7-1.2-2.6-1.2-6 0-4 0-4 1.5-5.4 1-.6 2-2.3 2.7-3.7a12 12 0 0 0-13.2-16.8 12.2 12.2 0 0 0-5.6 20.6c1.4 1.4 1.5 1.7 1.5 4.8 0 10 4.8 18 13 22 2.8 1.3 4 1.5 8 1.6 3.5.2 5.3 0 7.3-.6 5.4-1.7 9.5-4.9 12.2-9.4 3.3-5.4 3.2-4.8 3.2-37.6v-29.6h6.8v28.4c0 16.8.2 29.4.5 31a23.2 23.2 0 0 0 12.5 16.1c3.1 1.6 3.6 1.6 9.1 1.6 5.3 0 6-.1 8.5-1.3a22 22 0 0 0 13.1-21v-4.3l2.2-2.1c3.3-3.4 4.3-7.5 3-12-1-3.1-2.8-5.4-5.8-7a9.5 9.5 0 0 0-5.7-1.4c-10.8 0-15.9 13.2-8 20.6 1.6 1.7 1.7 1.8 1.7 5.1 0 4-1 6.8-3.3 8.7a8.8 8.8 0 0 1-13.5-2.3l-1.2-2v-48.6l1.7 2.5c1 1.4 2.7 3.2 4 4 4.3 3 4.5 3 24.4 3.3 10 .1 18.7.3 19.3.4 1.4.3 2 2.3 2 6.2 0 3.4 0 3.6-1.6 5.2a11 11 0 0 0-3.8 8.8c0 7 4.9 11.9 11.8 11.9 6.8 0 11.8-5 11.8-12 0-3.6-.8-5.5-3.5-8.4l-1.9-2-.2-5.6a19 19 0 0 0-1.2-7.8 17.7 17.7 0 0 0-7.9-8l-2.7-1.4-19.3-.2-19.2-.1-1-1.3c-.7-.9-1-2-1-3.8v-2.6l14-.1c13.3-.2 14-.2 16.3-1.3 3-1.4 5.8-4 7.5-7.2l1.3-2.4.1-14.1c.2-12.5.3-14.2 1-14.7.6-.5 4.2-.6 15-.6H947l1 1.5c1.5 2 4.9 3.8 7.9 4.2 7.1.7 13.1-4.7 13.1-11.8 0-3.7-1.3-6.7-3.9-9-4.7-4.3-11.4-4.1-16.2.3l-2.2 2-16 .2-16 .2-2.5 1.3c-1.3.7-3.4 2.3-4.4 3.5-3.4 4-3.7 5-3.9 20.2 0 7.4-.2 13.7-.3 14-.2.5-2.7.6-10.3.6h-10.1l1.9-1c2.9-1.5 6-4.7 7.4-7.7l1.3-2.7.3-28.4c.2-27.4.3-28.4 1.1-29 .7-.5 2.4-.7 5.8-.7 4.6 0 4.9 0 5.8 1.2a12 12 0 0 0 8.3 4c5.7.5 10.6-3 12.2-8.3 1-3 1-4 0-7.1A11.4 11.4 0 0 0 915.9.1c-3.7 0-6.5 1.2-8.7 3.7l-1.4 1.6h-5.1c-9.4 0-14.5 2.8-17.9 9.7l-1.6 3.2-.2 28.1c-.3 27.2-.3 28.2-1.2 28.9-.7.5-2.9.7-9.4.7H862V65.7h1.7c3.4 0 7.1-2.3 9-5.6.7-1.2.8-3.7.9-19.1 0-12 0-18.9-.4-21.1a24.4 24.4 0 0 0-16.6-19 21 21 0 0 0-8.3-.7 16 16 0 0 0-8.6 1.9 24.3 24.3 0 0 0-13.2 15.4c-.7 2.8-.8 5.9-.8 21.5 0 19.4 0 20.2 2.2 23.1 1.4 1.8 5.2 3.6 7.6 3.6h1.8V76h-8.7c-8.2 0-8.7 0-9.6-1-.8-1-.9-2.3-1.1-29.3l-.3-28.3-1.2-2.4a18.1 18.1 0 0 0-8.2-8c-2.4-1-3.4-1.2-8.9-1.4-5.9-.2-6.2-.2-7-1.3a12 12 0 0 0-3.2-2.7 12 12 0 0 0-11.4-.2Z" fill="url(#paint17_linear)"/>
      <path class="_2" d="M992.7 1.3c-5.3 2.7-7.6 8.5-5.9 14.5.8 2.7 4.8 6.8 7.5 7.5a12 12 0 0 0 12.1-2.8l1.9-2h4.9c4.4 0 5 .2 5.9 1 .8 1 .9 2.5 1.1 29.4l.3 28.3 1.2 2.4c1.4 2.9 4.5 6 7 7.5l2 1h-9.8c-7.4 0-9.9-.1-10.3-.6-.3-.4-.6-5.7-.7-14.7l-.1-14.1-1.5-2.6a15 15 0 0 0-7.8-6.9c-2.5-.9-3.8-1-18-1h-15.2l-1.4-1.6a12 12 0 1 0-13.6 19c4.3 2 8.8 1.2 12.9-2.4l2.6-2.3h13.7c11.7 0 14 0 14.8.8 1.1.7 1.1.8 1.1 14 0 12.3.1 13.6 1 16 1.3 3.3 4.2 6.4 7.5 8 2.4 1.3 2.8 1.3 16.5 1.5l14.1.3v2.8c0 4.7 1.2 4.4-21 4.7-18.9.3-19.3.3-21.8 1.4a19.6 19.6 0 0 0-7.9 7.6c-1.3 2.6-2 6.3-2 10.8 0 3.4 0 3.7-1.4 4.8-.8.7-2 2.5-2.8 4a8.7 8.7 0 0 0-1 5.7c.9 10.8 13.7 15.3 20.8 7.3 2.1-2.6 2.9-4.6 2.9-8 0-3.7-.8-5.6-3.4-8.4-2-2.2-2-2.2-2-6.1 0-6.4-1.2-6 17.8-6 8.8 0 17.7-.1 19.7-.4 5.7-.6 9.5-3 12.6-7.8l1.4-2.1v24c0 22.3-.1 24.2-1 26a8.8 8.8 0 0 1-15.8 1c-1-1.7-1.2-2.6-1.2-6 0-4 0-4 1.5-5.4 1-.6 2-2.3 2.7-3.7a12 12 0 0 0-13.2-16.8 12.2 12.2 0 0 0-5.6 20.6c1.4 1.4 1.5 1.7 1.5 4.8 0 10 4.8 18 13 22 2.8 1.3 4 1.5 8 1.6 3.5.2 5.3 0 7.3-.6 5.4-1.7 9.5-4.9 12.2-9.4 3.3-5.4 3.2-4.8 3.2-37.6v-29.6h6.8v28.4c0 16.8.2 29.4.5 31a23.2 23.2 0 0 0 12.5 16.1c3.1 1.6 3.6 1.6 9.1 1.6 5.3 0 6-.1 8.5-1.3a22 22 0 0 0 13.1-21v-4.3l2.2-2.1c3.3-3.4 4.3-7.5 3-12-1-3.1-2.8-5.4-5.8-7a9.5 9.5 0 0 0-5.7-1.4 11.9 11.9 0 0 0-8 20.6c1.6 1.7 1.7 1.8 1.7 5.1 0 4-1 6.8-3.3 8.7a8.8 8.8 0 0 1-13.5-2.3l-1.2-2v-48.6l1.7 2.5c1 1.4 2.7 3.2 4 4 4.3 3 4.5 3 24.4 3.3 10 .1 18.7.3 19.3.4 1.4.3 2 2.3 2 6.2 0 3.4 0 3.6-1.6 5.2a11 11 0 0 0-3.9 8.8c0 7 5 11.9 11.9 11.9 6.8 0 11.8-5 11.8-12 0-3.6-.8-5.5-3.5-8.4l-1.9-2-.2-5.6a19 19 0 0 0-1.2-7.8 17.7 17.7 0 0 0-7.9-8l-2.7-1.4-19.3-.2-19.2-.1-1-1.3c-.7-.9-1-2-1-3.8v-2.6l14-.1c13.3-.2 14-.2 16.3-1.3 3-1.4 5.8-4 7.4-7.2l1.4-2.4.1-14.1c.2-12.5.3-14.2 1-14.7a67 67 0 0 1 15-.6h14.2l1 1.5c1.5 2 4.9 3.8 7.9 4.2 7.1.7 13.1-4.7 13.1-11.8 0-3.7-1.3-6.7-3.9-9-4.7-4.3-11.4-4.1-16.1.3l-2.3 2-16 .2-16 .2-2.5 1.3c-1.3.7-3.4 2.3-4.4 3.5-3.4 4-3.7 5-3.9 20.2 0 7.4-.2 13.7-.4 14 0 .5-2.6.6-10.2.6h-10.1l1.9-1c2.9-1.5 6-4.7 7.4-7.7l1.3-2.7.3-28.4c.2-27.4.3-28.4 1.2-29 .6-.5 2.3-.7 5.7-.7 4.6 0 4.9 0 5.8 1.2a12 12 0 0 0 8.3 4c5.7.5 10.6-3 12.2-8.3 1-3 1-4 0-7.1a11.4 11.4 0 0 0-11.4-8.3c-3.7 0-6.5 1.2-8.7 3.7l-1.4 1.6h-5.1c-9.4 0-14.5 2.8-17.9 9.7l-1.6 3.2-.2 28.1c-.3 27.2-.3 28.2-1.2 28.9-.7.5-2.8.7-9.4.7h-8.4V65.7h1.7c3.4 0 7.1-2.3 9-5.6.6-1.2.8-3.7.9-19.1 0-12 0-18.9-.4-21.1a24.4 24.4 0 0 0-16.7-19 21 21 0 0 0-8.2-.7 16 16 0 0 0-8.6 1.9 24.3 24.3 0 0 0-13.2 15.4c-.7 2.8-.8 5.9-.8 21.5 0 19.4 0 20.2 2.2 23.1 1.4 1.8 5.2 3.6 7.6 3.6h1.8V76h-8.7c-8.2 0-8.7 0-9.6-1-.8-1-.9-2.3-1.1-29.3l-.3-28.3-1.2-2.4a18.1 18.1 0 0 0-8.2-8c-2.4-1-3.5-1.2-8.9-1.4-5.9-.2-6.2-.2-7-1.3a12 12 0 0 0-3.2-2.7 12 12 0 0 0-11.4-.2Z" fill="url(#paint18_linear)"/>
      <path class="_1" d="M1205.7 1.3c-5.3 2.7-7.6 8.5-5.9 14.5.8 2.7 4.8 6.8 7.5 7.5a12 12 0 0 0 12.1-2.8l1.9-2h4.9c4.4 0 5 .2 5.9 1 .8 1 .9 2.5 1.1 29.4l.3 28.3 1.2 2.4c1.4 2.9 4.5 6 7 7.5l2 1h-9.8c-7.4 0-9.9-.1-10.3-.6-.3-.4-.6-5.7-.7-14.7l-.1-14.1-1.5-2.6a15 15 0 0 0-7.8-6.9c-2.5-.9-3.8-1-18-1h-15.2l-1.4-1.6a12 12 0 1 0-13.6 19c4.3 2 8.8 1.2 12.9-2.4l2.6-2.3h13.7c11.7 0 14 0 14.8.8 1.1.7 1.1.8 1.1 14 0 12.3.1 13.6 1 16 1.3 3.3 4.2 6.4 7.5 8 2.4 1.3 2.8 1.3 16.5 1.5l14.1.3v2.8c0 4.7 1.2 4.4-21 4.7-18.9.3-19.3.3-21.8 1.4a19.6 19.6 0 0 0-7.9 7.6c-1.3 2.6-2 6.3-2 10.8 0 3.4 0 3.7-1.4 4.8-.8.7-2 2.5-2.8 4a8.6 8.6 0 0 0-1 5.7c.9 10.8 13.7 15.3 20.8 7.3 2.1-2.6 2.9-4.6 2.9-8 0-3.7-.8-5.6-3.4-8.4-2-2.2-2-2.2-2-6.1 0-6.4-1.2-6 17.8-6 8.8 0 17.7-.1 19.7-.4 5.7-.6 9.5-3 12.6-7.8l1.4-2.1v24c0 22.3-.1 24.2-1 26a8.8 8.8 0 0 1-15.8 1c-1-1.7-1.2-2.6-1.2-6 0-4 0-4 1.5-5.4 1-.6 2-2.3 2.7-3.7a12 12 0 0 0-13.3-16.8 12.2 12.2 0 0 0-5.5 20.6c1.4 1.4 1.5 1.7 1.5 4.8 0 10 4.8 18 13 22 2.8 1.3 4 1.5 8 1.6 3.5.2 5.3 0 7.3-.6 5.4-1.7 9.5-4.9 12.2-9.4 3.3-5.4 3.2-4.8 3.2-37.6v-29.6h6.8v28.4c0 16.8.2 29.4.5 31a23.2 23.2 0 0 0 12.5 16.1c3.1 1.6 3.6 1.6 9.1 1.6 5.3 0 6-.1 8.5-1.3a22 22 0 0 0 13.1-21v-4.3l2.2-2.1c3.3-3.4 4.3-7.5 3-12-1-3.1-2.8-5.4-5.8-7a9.5 9.5 0 0 0-5.7-1.4 11.9 11.9 0 0 0-8 20.6c1.6 1.7 1.7 1.8 1.7 5.1 0 4-1 6.8-3.3 8.7a8.8 8.8 0 0 1-13.5-2.3l-1.2-2v-48.6l1.7 2.5c1 1.4 2.7 3.2 4 4 4.3 3 4.5 3 24.4 3.3 10 .1 18.7.3 19.3.4 1.4.3 2 2.3 2 6.2 0 3.4 0 3.6-1.6 5.2a11 11 0 0 0-3.9 8.8c0 7 5 11.9 11.9 11.9 6.8 0 11.8-5 11.8-12 0-3.6-.8-5.5-3.5-8.4l-1.9-2-.2-5.6a19 19 0 0 0-1.2-7.8 17.7 17.7 0 0 0-7.9-8l-2.7-1.4-19.3-.2-19.2-.1-1-1.3c-.7-.9-1-2-1-3.8v-2.6l14-.1c13.3-.2 14-.2 16.3-1.3 3-1.4 5.8-4 7.4-7.2l1.4-2.4.1-14.1c.2-12.5.3-14.2 1-14.7a67 67 0 0 1 15-.6h14.2l1 1.5c1.5 2 4.9 3.8 7.9 4.2 7.1.7 13.1-4.7 13.1-11.8 0-3.7-1.3-6.7-3.9-9-4.7-4.3-11.4-4.1-16.1.3l-2.3 2-16 .2-16 .2-2.5 1.3c-1.3.7-3.4 2.3-4.4 3.5-3.4 4-3.7 5-3.9 20.2 0 7.4-.2 13.7-.4 14 0 .5-2.6.6-10.2.6h-10.1l1.9-1c2.9-1.5 6-4.7 7.4-7.7l1.3-2.7.3-28.4c.2-27.4.3-28.4 1.2-29 .6-.5 2.3-.7 5.7-.7 4.6 0 4.9 0 5.8 1.2a12 12 0 0 0 8.3 4c5.7.5 10.6-3 12.2-8.3 1-3 1-4 0-7.1a11.4 11.4 0 0 0-11.4-8.3c-3.7 0-6.5 1.2-8.7 3.7l-1.4 1.6h-5.1c-9.4 0-14.5 2.8-17.9 9.7l-1.6 3.2-.2 28.1c-.3 27.2-.3 28.2-1.2 28.9-.7.5-2.8.7-9.4.7h-8.4V65.7h1.7c3.4 0 7.1-2.3 9-5.6.6-1.2.8-3.7.9-19.1 0-12 0-18.9-.4-21.1a24.4 24.4 0 0 0-16.7-19 21 21 0 0 0-8.2-.7 16 16 0 0 0-8.6 1.9 24.3 24.3 0 0 0-13.2 15.4c-.7 2.8-.8 5.9-.8 21.5 0 19.4 0 20.2 2.2 23.1 1.4 1.8 5.2 3.6 7.6 3.6h1.8V76h-8.7c-8.2 0-8.7 0-9.6-1-.8-1-.9-2.3-1.1-29.3l-.3-28.3-1.2-2.4a18.1 18.1 0 0 0-8.2-8c-2.4-1-3.5-1.2-8.9-1.4-5.9-.2-6.2-.2-7-1.3a12 12 0 0 0-3.2-2.7 12 12 0 0 0-11.4-.2Z" fill="url(#paint19_linear)" fill-opacity=".2"/>
    </g>
    <path class="mid-hill" d="M386.5 973.3c-136.5 82.6-134.1 85.8-263.6 0C-6.5 887.6-183 1167-183 1167h826S523 890.8 386.5 973.3Z" fill="url(#paint20_linear)"/>
    <path class="back-hill" d="M484.5 976.3c-136.5 82.6-134.1 85.8-263.6 0C91.5 890.6-85 1170-85 1170h826S621 893.8 484.5 976.3Z" fill="url(#paint21_linear)" fill-opacity=".5"/>
    <g class="hill-clam">
      <path class="Vector 4" d="m308.2 1079.9 32.4 13 7.5-3.6 12.3-2.6 12.8-3.6 6.5-10 1.7-8 26.8-19 8-11.6-1.9-16.6 1.7-14.9 1.8-15-13.3-11.2-4.1-14-14.3-7-9-3.8-15.4-9.2-19.3 2.5-11.7-2.7-9.6-.1-12.8 11H298l-10.7 6.3L282 973l-10.8 6.9-4.3 10 4.1 18.8-2.7 4.7-1.7 12.8 5.7 14 17 13.4 9.5 8 9.4 18.3Z" fill="url(#paint22_linear)"/>
      <path class="Vector" d="M326 941.4c-2.7.3-6.3 1.5-8.6 2.8a26.2 26.2 0 0 0-7.5 6.7l-1.3 1.9-3.4-.1c-4.3-.1-7.6.6-11.6 2.6-6 3-9.8 8.2-11 15.3l-.4 2.5-1.8.6a22 22 0 0 0-10.7 8.6c-1.8 3-2.5 5.8-2.6 10.1-.1 5.2.8 9.6 2.9 14.5l1 2.4-.7 1.1a29.5 29.5 0 0 0-2.6 23.8 24.6 24.6 0 0 0 11 13.8c3.3 2 9.9 6.9 12.2 8.8l5.3 4.6 4 3.4.3 2.4c.7 5 2.5 9.1 5.9 12.8a23 23 0 0 0 17.2 7.6h2.8l3 2.2c5 3.4 9.7 5.5 12.7 5.6 3 0 7.3-1.6 12.5-5l3.5-2.2 2.8.1a23 23 0 0 0 23.9-19.7l.4-2.6 3.3-2.6c5.4-4.3 12.2-9.2 16.8-12.1 6.2-3.8 7.4-4.8 9.3-7.2 2.1-2.5 3.7-5.6 4.7-9 .7-2.4.8-3.4.9-7.8 0-4.6 0-5.4-.7-8-.5-1.5-1.4-3.8-2-5l-1.2-2.3 1-2c3-6.5 4.3-14 3.3-19.5-.2-1.2-.9-3.3-1.5-4.6-2-4.2-7-8.5-11.5-10-1-.4-1.1-.5-1.3-2.4-.4-4.4-2.4-9-5.3-12.3a24 24 0 0 0-18.3-7.1c-1.8.1-2 0-2.2-.5 0-.4-1-1.7-1.9-3a22.5 22.5 0 0 0-15.3-8.6 29 29 0 0 0-18.3 3.4 29 29 0 0 0-19-4Zm10.3 5.4 3.8 1.6 2.2 1.2-1.1 61.6c-.6 34-1.2 61.5-1.3 61.3-.4-1-27.1-115.8-27.1-116.3 0-1.8 4.5-6.4 7.8-8a18 18 0 0 1 10.3-2c2 .1 4.4.4 5.4.6Zm28.2.4c4.5 1 9.4 4.5 11.7 8.4l1 1.4-16 57.5-16 57.8 1-61 1.3-61.5 1.3-.7c4.1-2.3 10.5-3.1 15.7-2Zm-56.7 10.6c.3.2 26.8 113.3 26.6 113.4a5276 5276 0 0 1-47.2-97.7c0-1.6 1.2-5.7 2.2-7.7 2-3.8 7-7.2 11.8-8a20 20 0 0 1 6.6 0Zm81.3 1.6a16.3 16.3 0 0 1 12.2 13c.3 1.3.5 2.8.4 3.3a5807 5807 0 0 1-51 95.8l31-112.4a22 22 0 0 1 7.4.3Zm-85 60.9 23.4 48.1c1.6 3.4 2.7 5.8 2.4 5.5-.7-.6-51-62.2-53-64.8-3-3.8-5.1-11-5-16.7a14 14 0 0 1 6.6-12.3c1.9-1.2 4.6-2.3 5-2l20.5 42.2Zm104.9-38c2 1.1 4.3 3.7 5.3 5.9 2.4 5.3 1.5 13-2.7 20.9l-2 3.9-26.9 30.4a4232.5 4232.5 0 0 1-27.5 31c-.3.3 1-2.4 3-6l24.6-46 21.8-40.7.8-1.3 1.2.5 2.4 1.3Zm-104.9 68c32.1 39.3 30.1 36.8 29.5 36.4-2.7-1.6-10.4-8-22.2-18.7a243.4 243.4 0 0 0-31.4-25.4 17 17 0 0 1-7.8-10.5c-.8-2.3-.8-3-.7-7.3 0-5 .3-6.4 1.9-9.9.6-1.3.6-1.3 1.2-.7l29.5 36Zm110.2-30.3c1.7 5.9.8 14-2.1 18.8a21.8 21.8 0 0 1-7.9 7 314.5 314.5 0 0 0-33.4 25.5c-5.4 4.5-11.1 9.2-12.8 10.4-3.3 2.5-6.9 5-6.7 4.6l30.8-35c28.9-32.6 30.7-34.7 31.1-34l1 2.7Zm-35.3 51.8a18.7 18.7 0 0 1-13.1 11.2l-1.3.2 1.3-1 13.3-11.3-.2.9Zm-59.7 10c.9 1-1.4.2-4.3-1.2a18.2 18.2 0 0 1-8.8-10.2c0-.2 12 10.3 13.1 11.5Z" fill="url(#paint23_linear)"/>
    </g>
    <path class="front-hill" d="M478 1045.3c-137.4 51.9-135 53.9-265.2 0C82.6 991.3-95 1167-95 1167h831s-120.7-173.6-258-121.7Z" fill="url(#paint24_radial)"/>
    <g class="coins">
      <g class="coin-10">
        <g class="Ellipse 2" filter="url(#filter0_di)">
          <circle cx="420.5" cy="706.5" r="16.5" fill="#00F0FF" fill-opacity=".2"/>
          <circle cx="420.5" cy="706.5" r="15.5" stroke="#00F0FF" stroke-width="2"/>
        </g>
        <g class="0" filter="url(#filter1_d)">
          <path d="M425.6 707c0 1 0 2-.3 3-.2.8-.5 1.6-1 2.2-.4.6-1 1.1-1.6 1.5-.6.3-1.4.5-2.3.5a4.1 4.1 0 0 1-3.6-1.7c-.4-.6-.8-1.4-1-2.3a13 13 0 0 1 0-6.2 7 7 0 0 1 1-2.2 4.5 4.5 0 0 1 3.9-2c.7 0 1.4.1 2 .4a4 4 0 0 1 1.6 1.3c.4.6.8 1.3 1 2.3.2.9.3 2 .3 3.2Zm-1.8 0a8.1 8.1 0 0 0-.1-1.4l-6 4.4.4 1 .6.9.8.5 1 .2c.5 0 1-.1 1.4-.4a3 3 0 0 0 1-1c.3-.5.5-1 .6-1.7.2-.7.3-1.5.3-2.5Zm-6.5 0v1.2l6-4.4a5 5 0 0 0-.4-1 3 3 0 0 0-.6-.7 2.5 2.5 0 0 0-1.8-.7c-.4 0-.9 0-1.3.3a3 3 0 0 0-1 1c-.3.6-.5 1.1-.6 1.8-.2.7-.3 1.5-.3 2.4Z" fill="#00F0FF"/>
        </g>
      </g>
      <g class="coin-9">
        <g class="Ellipse 2_2" filter="url(#filter2_di)">
          <circle cx="226.5" cy="818.5" r="16.5" fill="#00F0FF" fill-opacity=".2"/>
          <circle cx="226.5" cy="818.5" r="15.5" stroke="#00F0FF" stroke-width="2"/>
        </g>
        <g class="0_2" filter="url(#filter3_d)">
          <path d="M231.7 819c0 1-.2 2-.4 3-.2.8-.5 1.6-1 2.2-.4.6-1 1.1-1.6 1.5-.6.3-1.4.5-2.3.5a4.1 4.1 0 0 1-3.6-1.7c-.4-.6-.8-1.4-1-2.3a13 13 0 0 1 0-6.2 7 7 0 0 1 1-2.2 4.5 4.5 0 0 1 3.9-2c.7 0 1.4.1 2 .4a4 4 0 0 1 1.6 1.3c.4.6.8 1.3 1 2.3.2.9.3 2 .3 3.2Zm-2 0a8.1 8.1 0 0 0 0-1.4l-6 4.4.4 1 .6.9.8.5 1 .2c.5 0 1-.1 1.4-.4a3 3 0 0 0 1-1c.3-.5.5-1 .6-1.7.2-.7.3-1.5.3-2.5Zm-6.4 0v1.2l6-4.4a5 5 0 0 0-.4-1 3 3 0 0 0-.6-.7 2.5 2.5 0 0 0-1.8-.7c-.4 0-.9 0-1.3.3a3 3 0 0 0-1 1c-.3.6-.5 1.1-.6 1.8-.2.7-.3 1.5-.3 2.4Z" fill="#00F0FF"/>
        </g>
      </g>
      <g class="coin-8">
        <g class="Ellipse 2_3" filter="url(#filter4_di)">
          <circle cx="268.5" cy="918.5" r="16.5" fill="#00F0FF" fill-opacity=".2"/>
          <circle cx="268.5" cy="918.5" r="15.5" stroke="#00F0FF" stroke-width="2"/>
        </g>
        <g class="0_3" filter="url(#filter5_d)">
          <path d="M273.6 919c0 1 0 2-.3 3-.2.8-.5 1.6-1 2.2-.4.6-1 1.1-1.6 1.5-.6.3-1.4.5-2.3.5a4.1 4.1 0 0 1-3.6-1.7c-.4-.6-.8-1.4-1-2.3a13 13 0 0 1 0-6.2 7 7 0 0 1 1-2.2 4.5 4.5 0 0 1 3.9-2c.7 0 1.4.1 2 .4a4 4 0 0 1 1.6 1.3c.4.6.8 1.3 1 2.3.2.9.3 2 .3 3.2Zm-1.8 0a8.1 8.1 0 0 0-.1-1.4l-6 4.4.4 1 .6.9.8.5 1 .2c.5 0 1-.1 1.4-.4a3 3 0 0 0 1-1c.3-.5.5-1 .6-1.7.2-.7.3-1.5.3-2.5Zm-6.5 0v1.2l6-4.4a5 5 0 0 0-.4-1 3 3 0 0 0-.6-.7 2.5 2.5 0 0 0-1.8-.7c-.4 0-.9 0-1.3.3a3 3 0 0 0-1 1c-.3.6-.5 1.1-.6 1.8-.2.7-.3 1.5-.3 2.4Z" fill="#00F0FF"/>
        </g>
      </g>
      <g class="coin-7">
        <g class="Ellipse 2_4" filter="url(#filter6_di)">
          <circle cx="265.5" cy="876.5" r="16.5" fill="#00F0FF" fill-opacity=".2"/>
          <circle cx="265.5" cy="876.5" r="15.5" stroke="#00F0FF" stroke-width="2"/>
        </g>
        <g class="0_4" filter="url(#filter7_d)">
          <path d="M270.6 877c0 1 0 2-.3 3-.2.8-.5 1.6-1 2.2-.4.6-1 1.1-1.6 1.5-.6.3-1.4.5-2.3.5a4.1 4.1 0 0 1-3.6-1.7c-.4-.6-.8-1.4-1-2.3a13 13 0 0 1 0-6.2 7 7 0 0 1 1-2.2 4.5 4.5 0 0 1 3.9-2c.7 0 1.4.1 2 .4a4 4 0 0 1 1.6 1.3c.4.6.8 1.3 1 2.3.2.9.3 2 .3 3.2Zm-1.8 0a8.1 8.1 0 0 0-.1-1.4l-6 4.4.4 1 .6.9.8.5 1 .2c.5 0 1-.1 1.4-.4a3 3 0 0 0 1-1c.3-.5.5-1 .6-1.7.2-.7.3-1.5.3-2.5Zm-6.5 0v1.2l6-4.4a5 5 0 0 0-.4-1 3 3 0 0 0-.6-.7 2.5 2.5 0 0 0-1.8-.7c-.4 0-.9 0-1.3.3a3 3 0 0 0-1 1c-.3.6-.5 1.1-.6 1.8-.2.7-.3 1.5-.3 2.4Z" fill="#00F0FF"/>
        </g>
      </g>
      <g class="coin-6">
        <g class="Ellipse 2_5" filter="url(#filter8_di)">
          <circle cx="304.5" cy="838.5" r="16.5" fill="#00F0FF" fill-opacity=".2"/>
          <circle cx="304.5" cy="838.5" r="15.5" stroke="#00F0FF" stroke-width="2"/>
        </g>
        <g class="0_5" filter="url(#filter9_d)">
          <path d="M309.6 839c0 1 0 2-.3 3-.2.8-.5 1.6-1 2.2-.4.6-1 1.1-1.6 1.5-.6.3-1.4.5-2.3.5a4.1 4.1 0 0 1-3.6-1.7c-.4-.6-.8-1.4-1-2.3a13 13 0 0 1 0-6.2 7 7 0 0 1 1-2.2 4.5 4.5 0 0 1 3.9-2c.7 0 1.4.1 2 .4a4 4 0 0 1 1.6 1.3c.4.6.8 1.3 1 2.3.2.9.3 2 .3 3.2Zm-1.8 0a8.1 8.1 0 0 0-.1-1.4l-6 4.4.4 1 .6.9.8.5 1 .2c.5 0 1-.1 1.4-.4a3 3 0 0 0 1-1c.3-.5.5-1 .6-1.7.2-.7.3-1.5.3-2.5Zm-6.5 0v1.2l6-4.4a5 5 0 0 0-.4-1 3 3 0 0 0-.6-.7 2.5 2.5 0 0 0-1.8-.7c-.4 0-.9 0-1.3.3a3 3 0 0 0-1 1c-.3.6-.5 1.1-.6 1.8-.2.7-.3 1.5-.3 2.4Z" fill="#00F0FF"/>
        </g>
      </g>
      <g class="coin-5">
        <g class="Ellipse 2_6" filter="url(#filter10_di)">
          <circle cx="325.5" cy="897.5" r="16.5" fill="#00F0FF" fill-opacity=".2"/>
          <circle cx="325.5" cy="897.5" r="15.5" stroke="#00F0FF" stroke-width="2"/>
        </g>
        <g class="0_6" filter="url(#filter11_d)">
          <path d="M330.6 898c0 1 0 2-.3 3-.2.8-.5 1.6-1 2.2-.4.6-1 1.1-1.6 1.5-.6.3-1.4.5-2.3.5a4.1 4.1 0 0 1-3.6-1.7c-.4-.6-.8-1.4-1-2.3a13 13 0 0 1 0-6.2 7 7 0 0 1 1-2.2 4.5 4.5 0 0 1 3.9-2c.7 0 1.4.1 2 .4a4 4 0 0 1 1.6 1.3c.4.6.8 1.3 1 2.3.2.9.3 2 .3 3.2Zm-1.8 0a8.1 8.1 0 0 0-.1-1.4l-6 4.4.4 1 .6.9.8.5 1 .2c.5 0 1-.1 1.4-.4a3 3 0 0 0 1-1c.3-.5.5-1 .6-1.7.2-.7.3-1.5.3-2.5Zm-6.5 0v1.2l6-4.4a5 5 0 0 0-.4-1 3 3 0 0 0-.6-.7 2.5 2.5 0 0 0-1.8-.7c-.4 0-.9 0-1.3.3a3 3 0 0 0-1 1c-.3.6-.5 1.1-.6 1.8-.2.7-.3 1.5-.3 2.4Z" fill="#00F0FF"/>
        </g>
      </g>
      <g class="coin-4">
        <g class="Ellipse 2_7" filter="url(#filter12_di)">
          <circle cx="338.5" cy="883.5" r="16.5" fill="#00F0FF" fill-opacity=".2"/>
          <circle cx="338.5" cy="883.5" r="15.5" stroke="#00F0FF" stroke-width="2"/>
        </g>
        <g class="0_7" filter="url(#filter13_d)">
          <path d="M343.6 884c0 1 0 2-.3 3-.2.8-.5 1.6-1 2.2-.4.6-1 1.1-1.6 1.5-.6.3-1.4.5-2.3.5a4.1 4.1 0 0 1-3.6-1.7c-.4-.6-.8-1.4-1-2.3a13 13 0 0 1 0-6.2 7 7 0 0 1 1-2.2 4.5 4.5 0 0 1 3.9-2c.7 0 1.4.1 2 .4a4 4 0 0 1 1.6 1.3c.4.6.8 1.3 1 2.3.2.9.3 2 .3 3.2Zm-1.8 0a8.1 8.1 0 0 0-.1-1.4l-6 4.4.4 1 .6.9.8.5 1 .2c.5 0 1-.1 1.4-.4a3 3 0 0 0 1-1c.3-.5.5-1 .6-1.7.2-.7.3-1.5.3-2.5Zm-6.5 0v1.2l6-4.4a5 5 0 0 0-.4-1 3 3 0 0 0-.6-.7 2.5 2.5 0 0 0-1.8-.7c-.4 0-.9 0-1.3.3a3 3 0 0 0-1 1c-.3.6-.5 1.1-.6 1.8-.2.7-.3 1.5-.3 2.4Z" fill="#00F0FF"/>
        </g>
      </g>
      <g class="coin-3">
        <g class="Ellipse 2_8" filter="url(#filter14_di)">
          <circle cx="402.5" cy="848.5" r="16.5" fill="#00F0FF" fill-opacity=".2"/>
          <circle cx="402.5" cy="848.5" r="15.5" stroke="#00F0FF" stroke-width="2"/>
        </g>
        <g class="0_8" filter="url(#filter15_d)">
          <path d="M407.6 849c0 1 0 2-.3 3-.2.8-.5 1.6-1 2.2-.4.6-1 1.1-1.6 1.5-.6.3-1.4.5-2.3.5a4.1 4.1 0 0 1-3.6-1.7c-.4-.6-.8-1.4-1-2.3a13 13 0 0 1 0-6.2 7 7 0 0 1 1-2.2 4.5 4.5 0 0 1 3.9-2c.7 0 1.4.1 2 .4a4 4 0 0 1 1.6 1.3c.4.6.8 1.3 1 2.3.2.9.3 2 .3 3.2Zm-1.8 0a8.1 8.1 0 0 0-.1-1.4l-6 4.4.4 1 .6.9.8.5 1 .2c.5 0 1-.1 1.4-.4a3 3 0 0 0 1-1c.3-.5.5-1 .6-1.7.2-.7.3-1.5.3-2.5Zm-6.5 0v1.2l6-4.4a5 5 0 0 0-.4-1 3 3 0 0 0-.6-.7 2.5 2.5 0 0 0-1.8-.7c-.4 0-.9 0-1.3.3a3 3 0 0 0-1 1c-.3.6-.5 1.1-.6 1.8-.2.7-.3 1.5-.3 2.4Z" fill="#00F0FF"/>
        </g>
      </g>
      <g class="coin-2">
        <g class="Ellipse 2_9" filter="url(#filter16_di)">
          <circle cx="378.5" cy="765.5" r="16.5" fill="#00F0FF" fill-opacity=".2"/>
          <circle cx="378.5" cy="765.5" r="15.5" stroke="#00F0FF" stroke-width="2"/>
        </g>
        <g class="0_9" filter="url(#filter17_d)">
          <path d="M383.6 766c0 1 0 2-.3 3-.2.8-.5 1.6-1 2.2-.4.6-1 1.1-1.6 1.5-.6.3-1.4.5-2.3.5a4.1 4.1 0 0 1-3.6-1.7c-.4-.6-.8-1.4-1-2.3a13 13 0 0 1 0-6.2 7 7 0 0 1 1-2.2 4.5 4.5 0 0 1 3.9-2c.7 0 1.4.1 2 .4a4 4 0 0 1 1.6 1.3c.4.6.8 1.3 1 2.3.2.9.3 2 .3 3.2Zm-1.8 0a8.1 8.1 0 0 0-.1-1.4l-6 4.4.4 1 .6.9.8.5 1 .2c.5 0 1-.1 1.4-.4a3 3 0 0 0 1-1c.3-.5.5-1 .6-1.7.2-.7.3-1.5.3-2.5Zm-6.5 0v1.2l6-4.4a5 5 0 0 0-.4-1 3 3 0 0 0-.6-.7 2.5 2.5 0 0 0-1.8-.7c-.4 0-.9 0-1.3.3a3 3 0 0 0-1 1c-.3.6-.5 1.1-.6 1.8-.2.7-.3 1.5-.3 2.4Z" fill="#00F0FF"/>
        </g>
      </g>
      <g class="coin-1">
        <g class="Ellipse 2_10" filter="url(#filter18_di)">
          <circle cx="280.5" cy="685.5" r="16.5" fill="#00F0FF" fill-opacity=".2"/>
          <circle cx="280.5" cy="685.5" r="15.5" stroke="#00F0FF" stroke-width="2"/>
        </g>
        <g class="0_10" filter="url(#filter19_d)">
          <path d="M285.6 686c0 1 0 2-.3 3-.2.8-.5 1.6-1 2.2-.4.6-1 1.1-1.6 1.5-.6.3-1.4.5-2.3.5a4.1 4.1 0 0 1-3.6-1.7c-.4-.6-.8-1.4-1-2.3a13 13 0 0 1 0-6.2 7 7 0 0 1 1-2.2 4.5 4.5 0 0 1 3.9-2c.7 0 1.4.1 2 .4a4 4 0 0 1 1.6 1.3c.4.6.8 1.3 1 2.3.2.9.3 2 .3 3.2Zm-1.8 0a8.1 8.1 0 0 0-.1-1.4l-6 4.4.4 1 .6.9.8.5 1 .2c.5 0 1-.1 1.4-.4a3 3 0 0 0 1-1c.3-.5.5-1 .6-1.7.2-.7.3-1.5.3-2.5Zm-6.5 0v1.2l6-4.4a5 5 0 0 0-.4-1 3 3 0 0 0-.6-.7 2.5 2.5 0 0 0-1.8-.7c-.4 0-.9 0-1.3.3a3 3 0 0 0-1 1c-.3.6-.5 1.1-.6 1.8-.2.7-.3 1.5-.3 2.4Z" fill="#00F0FF"/>
        </g>
      </g>
    </g>
  </g>
  <defs>
    <linearGradient id="paint0_linear" x1="176.5" y1="723.7" x2="713.4" y2="713.9" gradientUnits="userSpaceOnUse">
      <stop stop-color="#0B14EC"/>
      <stop offset=".6" stop-color="#00F0FF"/>
    </linearGradient>
    <linearGradient id="paint1_linear" x1="61.6" y1="669" x2="560.8" y2="669" gradientUnits="userSpaceOnUse">
      <stop stop-color="#0B14EC"/>
      <stop offset=".6" stop-color="#00F0FF"/>
    </linearGradient>
    <linearGradient id="paint2_linear" x1="223" y1="575" x2="769.6" y2="575" gradientUnits="userSpaceOnUse">
      <stop stop-color="#0B14EC"/>
      <stop offset=".6" stop-color="#00F0FF"/>
    </linearGradient>
    <linearGradient id="paint3_linear" x1="608.4" y1="448" x2="1363.5" y2="448" gradientUnits="userSpaceOnUse">
      <stop stop-color="#0B14EC"/>
      <stop offset=".6" stop-color="#00F0FF"/>
    </linearGradient>
    <linearGradient id="paint4_linear" x1="750.4" y1="312" x2="1505.5" y2="312" gradientUnits="userSpaceOnUse">
      <stop stop-color="#0B14EC"/>
      <stop offset=".6" stop-color="#00F0FF"/>
    </linearGradient>
    <linearGradient id="paint5_linear" x1="891.4" y1="268" x2="1646.5" y2="268" gradientUnits="userSpaceOnUse">
      <stop stop-color="#0B14EC"/>
      <stop offset=".6" stop-color="#00F0FF"/>
    </linearGradient>
    <linearGradient id="paint6_linear" x1="1075.4" y1="358" x2="1830.5" y2="358" gradientUnits="userSpaceOnUse">
      <stop stop-color="#0B14EC"/>
      <stop offset=".6" stop-color="#00F0FF"/>
    </linearGradient>
    <linearGradient id="paint7_linear" x1="-184.4" y1="570" x2="314.8" y2="570" gradientUnits="userSpaceOnUse">
      <stop stop-color="#0B14EC"/>
      <stop offset=".6" stop-color="#00F0FF"/>
    </linearGradient>
    <linearGradient id="paint8_linear" x1="-63.4" y1="609" x2="435.8" y2="609" gradientUnits="userSpaceOnUse">
      <stop stop-color="#0B14EC"/>
      <stop offset=".6" stop-color="#00F0FF"/>
    </linearGradient>
    <linearGradient id="paint9_linear" x1="50.6" y1="549" x2="549.8" y2="549" gradientUnits="userSpaceOnUse">
      <stop stop-color="#0B14EC"/>
      <stop offset=".6" stop-color="#00F0FF"/>
    </linearGradient>
    <linearGradient id="paint10_linear" x1="164" y1="473" x2="710.6" y2="473" gradientUnits="userSpaceOnUse">
      <stop stop-color="#0B14EC"/>
      <stop offset=".6" stop-color="#00F0FF"/>
    </linearGradient>
    <linearGradient id="paint11_linear" x1="303.2" y1="462" x2="941.4" y2="462" gradientUnits="userSpaceOnUse">
      <stop stop-color="#0B14EC"/>
      <stop offset=".6" stop-color="#00F0FF"/>
    </linearGradient>
    <linearGradient id="paint12_linear" x1="426.4" y1="358" x2="1181.5" y2="358" gradientUnits="userSpaceOnUse">
      <stop stop-color="#0B14EC"/>
      <stop offset=".6" stop-color="#00F0FF"/>
    </linearGradient>
    <linearGradient id="paint13_linear" x1="568.4" y1="222" x2="1323.5" y2="222" gradientUnits="userSpaceOnUse">
      <stop stop-color="#0B14EC"/>
      <stop offset=".6" stop-color="#00F0FF"/>
    </linearGradient>
    <linearGradient id="paint14_linear" x1="750.4" y1="132" x2="1505.5" y2="132" gradientUnits="userSpaceOnUse">
      <stop stop-color="#0B14EC"/>
      <stop offset=".6" stop-color="#00F0FF"/>
    </linearGradient>
    <linearGradient id="paint15_linear" x1="922.4" y1="178" x2="1677.5" y2="178" gradientUnits="userSpaceOnUse">
      <stop stop-color="#0B14EC"/>
      <stop offset=".6" stop-color="#00F0FF"/>
    </linearGradient>
    <linearGradient id="paint16_linear" x1="426.4" y1="88" x2="1181.5" y2="88" gradientUnits="userSpaceOnUse">
      <stop stop-color="#0B14EC"/>
      <stop offset=".6" stop-color="#00F0FF"/>
    </linearGradient>
    <linearGradient id="paint17_linear" x1="608.4" y1="0" x2="1363.5" y2="0" gradientUnits="userSpaceOnUse">
      <stop stop-color="#0B14EC"/>
      <stop offset=".6" stop-color="#00F0FF"/>
    </linearGradient>
    <linearGradient id="paint18_linear" x1="823.4" y1="0" x2="1578.5" y2="0" gradientUnits="userSpaceOnUse">
      <stop stop-color="#0B14EC"/>
      <stop offset=".6" stop-color="#00F0FF"/>
    </linearGradient>
    <linearGradient id="paint19_linear" x1="1036.4" y1="0" x2="1791.5" y2="0" gradientUnits="userSpaceOnUse">
      <stop stop-color="#0B14EC"/>
      <stop offset=".6" stop-color="#00F0FF"/>
    </linearGradient>
    <linearGradient id="paint20_linear" x1="230" y1="957" x2="230" y2="1167" gradientUnits="userSpaceOnUse">
      <stop stop-color="#00F0FF"/>
      <stop offset="1" stop-color="#1C1E51"/>
    </linearGradient>
    <linearGradient id="paint21_linear" x1="328" y1="960" x2="328" y2="1170" gradientUnits="userSpaceOnUse">
      <stop stop-color="#00F0FF"/>
      <stop offset="1" stop-color="#1C1E51"/>
    </linearGradient>
    <linearGradient id="paint22_linear" x1="342.7" y1="942.7" x2="341.4" y2="1093" gradientUnits="userSpaceOnUse">
      <stop stop-color="#1C1E51"/>
      <stop offset="0" stop-color="#1C1E51"/>
      <stop offset="1" stop-color="#0B14EC"/>
    </linearGradient>
    <linearGradient id="paint23_linear" x1="342" y1="1095.4" x2="344.9" y2="941.4" gradientUnits="userSpaceOnUse">
      <stop stop-color="#1C1E51"/>
      <stop offset="0" stop-color="#1C1E51"/>
      <stop offset="1" stop-color="#0B14EC"/>
    </linearGradient>
    <filter id="filter0_di" x="400" y="686" width="41" height="41" filterUnits="userSpaceOnUse" color-interpolation-filters="sRGB">
      <feFlood flood-opacity="0" result="BackgroundImageFix"/>
      <feColorMatrix in="SourceAlpha" values="0 0 0 0 0 0 0 0 0 0 0 0 0 0 0 0 0 0 127 0" result="hardAlpha"/>
      <feOffset/>
      <feGaussianBlur stdDeviation="2"/>
      <feComposite in2="hardAlpha" operator="out"/>
      <feColorMatrix values="0 0 0 0 0 0 0 0 0 0.94 0 0 0 0 1 0 0 0 1 0"/>
      <feBlend in2="BackgroundImageFix" result="effect1_dropShadow"/>
      <feBlend in="SourceGraphic" in2="effect1_dropShadow" result="shape"/>
      <feColorMatrix in="SourceAlpha" values="0 0 0 0 0 0 0 0 0 0 0 0 0 0 0 0 0 0 127 0" result="hardAlpha"/>
      <feOffset/>
      <feGaussianBlur stdDeviation="2"/>
      <feComposite in2="hardAlpha" operator="arithmetic" k2="-1" k3="1"/>
      <feColorMatrix values="0 0 0 0 0 0 0 0 0 0 0 0 0 0 0 0 0 0 0.25 0"/>
      <feBlend in2="shape" result="effect2_innerShadow"/>
    </filter>
    <filter id="filter1_d" x="411.4" y="695.8" width="18.2" height="22.4" filterUnits="userSpaceOnUse" color-interpolation-filters="sRGB">
      <feFlood flood-opacity="0" result="BackgroundImageFix"/>
      <feColorMatrix in="SourceAlpha" values="0 0 0 0 0 0 0 0 0 0 0 0 0 0 0 0 0 0 127 0" result="hardAlpha"/>
      <feOffset/>
      <feGaussianBlur stdDeviation="2"/>
      <feComposite in2="hardAlpha" operator="out"/>
      <feColorMatrix values="0 0 0 0 0 0 0 0 0 0.94 0 0 0 0 1 0 0 0 1 0"/>
      <feBlend in2="BackgroundImageFix" result="effect1_dropShadow"/>
      <feBlend in="SourceGraphic" in2="effect1_dropShadow" result="shape"/>
    </filter>
    <filter id="filter2_di" x="206" y="798" width="41" height="41" filterUnits="userSpaceOnUse" color-interpolation-filters="sRGB">
      <feFlood flood-opacity="0" result="BackgroundImageFix"/>
      <feColorMatrix in="SourceAlpha" values="0 0 0 0 0 0 0 0 0 0 0 0 0 0 0 0 0 0 127 0" result="hardAlpha"/>
      <feOffset/>
      <feGaussianBlur stdDeviation="2"/>
      <feComposite in2="hardAlpha" operator="out"/>
      <feColorMatrix values="0 0 0 0 0 0 0 0 0 0.94 0 0 0 0 1 0 0 0 1 0"/>
      <feBlend in2="BackgroundImageFix" result="effect1_dropShadow"/>
      <feBlend in="SourceGraphic" in2="effect1_dropShadow" result="shape"/>
      <feColorMatrix in="SourceAlpha" values="0 0 0 0 0 0 0 0 0 0 0 0 0 0 0 0 0 0 127 0" result="hardAlpha"/>
      <feOffset/>
      <feGaussianBlur stdDeviation="2"/>
      <feComposite in2="hardAlpha" operator="arithmetic" k2="-1" k3="1"/>
      <feColorMatrix values="0 0 0 0 0 0 0 0 0 0 0 0 0 0 0 0 0 0 0.25 0"/>
      <feBlend in2="shape" result="effect2_innerShadow"/>
    </filter>
    <filter id="filter3_d" x="217.4" y="807.8" width="18.2" height="22.4" filterUnits="userSpaceOnUse" color-interpolation-filters="sRGB">
      <feFlood flood-opacity="0" result="BackgroundImageFix"/>
      <feColorMatrix in="SourceAlpha" values="0 0 0 0 0 0 0 0 0 0 0 0 0 0 0 0 0 0 127 0" result="hardAlpha"/>
      <feOffset/>
      <feGaussianBlur stdDeviation="2"/>
      <feComposite in2="hardAlpha" operator="out"/>
      <feColorMatrix values="0 0 0 0 0 0 0 0 0 0.94 0 0 0 0 1 0 0 0 1 0"/>
      <feBlend in2="BackgroundImageFix" result="effect1_dropShadow"/>
      <feBlend in="SourceGraphic" in2="effect1_dropShadow" result="shape"/>
    </filter>
    <filter id="filter4_di" x="248" y="898" width="41" height="41" filterUnits="userSpaceOnUse" color-interpolation-filters="sRGB">
      <feFlood flood-opacity="0" result="BackgroundImageFix"/>
      <feColorMatrix in="SourceAlpha" values="0 0 0 0 0 0 0 0 0 0 0 0 0 0 0 0 0 0 127 0" result="hardAlpha"/>
      <feOffset/>
      <feGaussianBlur stdDeviation="2"/>
      <feComposite in2="hardAlpha" operator="out"/>
      <feColorMatrix values="0 0 0 0 0 0 0 0 0 0.94 0 0 0 0 1 0 0 0 1 0"/>
      <feBlend in2="BackgroundImageFix" result="effect1_dropShadow"/>
      <feBlend in="SourceGraphic" in2="effect1_dropShadow" result="shape"/>
      <feColorMatrix in="SourceAlpha" values="0 0 0 0 0 0 0 0 0 0 0 0 0 0 0 0 0 0 127 0" result="hardAlpha"/>
      <feOffset/>
      <feGaussianBlur stdDeviation="2"/>
      <feComposite in2="hardAlpha" operator="arithmetic" k2="-1" k3="1"/>
      <feColorMatrix values="0 0 0 0 0 0 0 0 0 0 0 0 0 0 0 0 0 0 0.25 0"/>
      <feBlend in2="shape" result="effect2_innerShadow"/>
    </filter>
    <filter id="filter5_d" x="259.4" y="907.8" width="18.2" height="22.4" filterUnits="userSpaceOnUse" color-interpolation-filters="sRGB">
      <feFlood flood-opacity="0" result="BackgroundImageFix"/>
      <feColorMatrix in="SourceAlpha" values="0 0 0 0 0 0 0 0 0 0 0 0 0 0 0 0 0 0 127 0" result="hardAlpha"/>
      <feOffset/>
      <feGaussianBlur stdDeviation="2"/>
      <feComposite in2="hardAlpha" operator="out"/>
      <feColorMatrix values="0 0 0 0 0 0 0 0 0 0.94 0 0 0 0 1 0 0 0 1 0"/>
      <feBlend in2="BackgroundImageFix" result="effect1_dropShadow"/>
      <feBlend in="SourceGraphic" in2="effect1_dropShadow" result="shape"/>
    </filter>
    <filter id="filter6_di" x="245" y="856" width="41" height="41" filterUnits="userSpaceOnUse" color-interpolation-filters="sRGB">
      <feFlood flood-opacity="0" result="BackgroundImageFix"/>
      <feColorMatrix in="SourceAlpha" values="0 0 0 0 0 0 0 0 0 0 0 0 0 0 0 0 0 0 127 0" result="hardAlpha"/>
      <feOffset/>
      <feGaussianBlur stdDeviation="2"/>
      <feComposite in2="hardAlpha" operator="out"/>
      <feColorMatrix values="0 0 0 0 0 0 0 0 0 0.94 0 0 0 0 1 0 0 0 1 0"/>
      <feBlend in2="BackgroundImageFix" result="effect1_dropShadow"/>
      <feBlend in="SourceGraphic" in2="effect1_dropShadow" result="shape"/>
      <feColorMatrix in="SourceAlpha" values="0 0 0 0 0 0 0 0 0 0 0 0 0 0 0 0 0 0 127 0" result="hardAlpha"/>
      <feOffset/>
      <feGaussianBlur stdDeviation="2"/>
      <feComposite in2="hardAlpha" operator="arithmetic" k2="-1" k3="1"/>
      <feColorMatrix values="0 0 0 0 0 0 0 0 0 0 0 0 0 0 0 0 0 0 0.25 0"/>
      <feBlend in2="shape" result="effect2_innerShadow"/>
    </filter>
    <filter id="filter7_d" x="256.4" y="865.8" width="18.2" height="22.4" filterUnits="userSpaceOnUse" color-interpolation-filters="sRGB">
      <feFlood flood-opacity="0" result="BackgroundImageFix"/>
      <feColorMatrix in="SourceAlpha" values="0 0 0 0 0 0 0 0 0 0 0 0 0 0 0 0 0 0 127 0" result="hardAlpha"/>
      <feOffset/>
      <feGaussianBlur stdDeviation="2"/>
      <feComposite in2="hardAlpha" operator="out"/>
      <feColorMatrix values="0 0 0 0 0 0 0 0 0 0.94 0 0 0 0 1 0 0 0 1 0"/>
      <feBlend in2="BackgroundImageFix" result="effect1_dropShadow"/>
      <feBlend in="SourceGraphic" in2="effect1_dropShadow" result="shape"/>
    </filter>
    <filter id="filter8_di" x="284" y="818" width="41" height="41" filterUnits="userSpaceOnUse" color-interpolation-filters="sRGB">
      <feFlood flood-opacity="0" result="BackgroundImageFix"/>
      <feColorMatrix in="SourceAlpha" values="0 0 0 0 0 0 0 0 0 0 0 0 0 0 0 0 0 0 127 0" result="hardAlpha"/>
      <feOffset/>
      <feGaussianBlur stdDeviation="2"/>
      <feComposite in2="hardAlpha" operator="out"/>
      <feColorMatrix values="0 0 0 0 0 0 0 0 0 0.94 0 0 0 0 1 0 0 0 1 0"/>
      <feBlend in2="BackgroundImageFix" result="effect1_dropShadow"/>
      <feBlend in="SourceGraphic" in2="effect1_dropShadow" result="shape"/>
      <feColorMatrix in="SourceAlpha" values="0 0 0 0 0 0 0 0 0 0 0 0 0 0 0 0 0 0 127 0" result="hardAlpha"/>
      <feOffset/>
      <feGaussianBlur stdDeviation="2"/>
      <feComposite in2="hardAlpha" operator="arithmetic" k2="-1" k3="1"/>
      <feColorMatrix values="0 0 0 0 0 0 0 0 0 0 0 0 0 0 0 0 0 0 0.25 0"/>
      <feBlend in2="shape" result="effect2_innerShadow"/>
    </filter>
    <filter id="filter9_d" x="295.4" y="827.8" width="18.2" height="22.4" filterUnits="userSpaceOnUse" color-interpolation-filters="sRGB">
      <feFlood flood-opacity="0" result="BackgroundImageFix"/>
      <feColorMatrix in="SourceAlpha" values="0 0 0 0 0 0 0 0 0 0 0 0 0 0 0 0 0 0 127 0" result="hardAlpha"/>
      <feOffset/>
      <feGaussianBlur stdDeviation="2"/>
      <feComposite in2="hardAlpha" operator="out"/>
      <feColorMatrix values="0 0 0 0 0 0 0 0 0 0.94 0 0 0 0 1 0 0 0 1 0"/>
      <feBlend in2="BackgroundImageFix" result="effect1_dropShadow"/>
      <feBlend in="SourceGraphic" in2="effect1_dropShadow" result="shape"/>
    </filter>
    <filter id="filter10_di" x="305" y="877" width="41" height="41" filterUnits="userSpaceOnUse" color-interpolation-filters="sRGB">
      <feFlood flood-opacity="0" result="BackgroundImageFix"/>
      <feColorMatrix in="SourceAlpha" values="0 0 0 0 0 0 0 0 0 0 0 0 0 0 0 0 0 0 127 0" result="hardAlpha"/>
      <feOffset/>
      <feGaussianBlur stdDeviation="2"/>
      <feComposite in2="hardAlpha" operator="out"/>
      <feColorMatrix values="0 0 0 0 0 0 0 0 0 0.94 0 0 0 0 1 0 0 0 1 0"/>
      <feBlend in2="BackgroundImageFix" result="effect1_dropShadow"/>
      <feBlend in="SourceGraphic" in2="effect1_dropShadow" result="shape"/>
      <feColorMatrix in="SourceAlpha" values="0 0 0 0 0 0 0 0 0 0 0 0 0 0 0 0 0 0 127 0" result="hardAlpha"/>
      <feOffset/>
      <feGaussianBlur stdDeviation="2"/>
      <feComposite in2="hardAlpha" operator="arithmetic" k2="-1" k3="1"/>
      <feColorMatrix values="0 0 0 0 0 0 0 0 0 0 0 0 0 0 0 0 0 0 0.25 0"/>
      <feBlend in2="shape" result="effect2_innerShadow"/>
    </filter>
    <filter id="filter11_d" x="316.4" y="886.8" width="18.2" height="22.4" filterUnits="userSpaceOnUse" color-interpolation-filters="sRGB">
      <feFlood flood-opacity="0" result="BackgroundImageFix"/>
      <feColorMatrix in="SourceAlpha" values="0 0 0 0 0 0 0 0 0 0 0 0 0 0 0 0 0 0 127 0" result="hardAlpha"/>
      <feOffset/>
      <feGaussianBlur stdDeviation="2"/>
      <feComposite in2="hardAlpha" operator="out"/>
      <feColorMatrix values="0 0 0 0 0 0 0 0 0 0.94 0 0 0 0 1 0 0 0 1 0"/>
      <feBlend in2="BackgroundImageFix" result="effect1_dropShadow"/>
      <feBlend in="SourceGraphic" in2="effect1_dropShadow" result="shape"/>
    </filter>
    <filter id="filter12_di" x="318" y="863" width="41" height="41" filterUnits="userSpaceOnUse" color-interpolation-filters="sRGB">
      <feFlood flood-opacity="0" result="BackgroundImageFix"/>
      <feColorMatrix in="SourceAlpha" values="0 0 0 0 0 0 0 0 0 0 0 0 0 0 0 0 0 0 127 0" result="hardAlpha"/>
      <feOffset/>
      <feGaussianBlur stdDeviation="2"/>
      <feComposite in2="hardAlpha" operator="out"/>
      <feColorMatrix values="0 0 0 0 0 0 0 0 0 0.94 0 0 0 0 1 0 0 0 1 0"/>
      <feBlend in2="BackgroundImageFix" result="effect1_dropShadow"/>
      <feBlend in="SourceGraphic" in2="effect1_dropShadow" result="shape"/>
      <feColorMatrix in="SourceAlpha" values="0 0 0 0 0 0 0 0 0 0 0 0 0 0 0 0 0 0 127 0" result="hardAlpha"/>
      <feOffset/>
      <feGaussianBlur stdDeviation="2"/>
      <feComposite in2="hardAlpha" operator="arithmetic" k2="-1" k3="1"/>
      <feColorMatrix values="0 0 0 0 0 0 0 0 0 0 0 0 0 0 0 0 0 0 0.25 0"/>
      <feBlend in2="shape" result="effect2_innerShadow"/>
    </filter>
    <filter id="filter13_d" x="329.4" y="872.8" width="18.2" height="22.4" filterUnits="userSpaceOnUse" color-interpolation-filters="sRGB">
      <feFlood flood-opacity="0" result="BackgroundImageFix"/>
      <feColorMatrix in="SourceAlpha" values="0 0 0 0 0 0 0 0 0 0 0 0 0 0 0 0 0 0 127 0" result="hardAlpha"/>
      <feOffset/>
      <feGaussianBlur stdDeviation="2"/>
      <feComposite in2="hardAlpha" operator="out"/>
      <feColorMatrix values="0 0 0 0 0 0 0 0 0 0.94 0 0 0 0 1 0 0 0 1 0"/>
      <feBlend in2="BackgroundImageFix" result="effect1_dropShadow"/>
      <feBlend in="SourceGraphic" in2="effect1_dropShadow" result="shape"/>
    </filter>
    <filter id="filter14_di" x="382" y="828" width="41" height="41" filterUnits="userSpaceOnUse" color-interpolation-filters="sRGB">
      <feFlood flood-opacity="0" result="BackgroundImageFix"/>
      <feColorMatrix in="SourceAlpha" values="0 0 0 0 0 0 0 0 0 0 0 0 0 0 0 0 0 0 127 0" result="hardAlpha"/>
      <feOffset/>
      <feGaussianBlur stdDeviation="2"/>
      <feComposite in2="hardAlpha" operator="out"/>
      <feColorMatrix values="0 0 0 0 0 0 0 0 0 0.94 0 0 0 0 1 0 0 0 1 0"/>
      <feBlend in2="BackgroundImageFix" result="effect1_dropShadow"/>
      <feBlend in="SourceGraphic" in2="effect1_dropShadow" result="shape"/>
      <feColorMatrix in="SourceAlpha" values="0 0 0 0 0 0 0 0 0 0 0 0 0 0 0 0 0 0 127 0" result="hardAlpha"/>
      <feOffset/>
      <feGaussianBlur stdDeviation="2"/>
      <feComposite in2="hardAlpha" operator="arithmetic" k2="-1" k3="1"/>
      <feColorMatrix values="0 0 0 0 0 0 0 0 0 0 0 0 0 0 0 0 0 0 0.25 0"/>
      <feBlend in2="shape" result="effect2_innerShadow"/>
    </filter>
    <filter id="filter15_d" x="393.4" y="837.8" width="18.2" height="22.4" filterUnits="userSpaceOnUse" color-interpolation-filters="sRGB">
      <feFlood flood-opacity="0" result="BackgroundImageFix"/>
      <feColorMatrix in="SourceAlpha" values="0 0 0 0 0 0 0 0 0 0 0 0 0 0 0 0 0 0 127 0" result="hardAlpha"/>
      <feOffset/>
      <feGaussianBlur stdDeviation="2"/>
      <feComposite in2="hardAlpha" operator="out"/>
      <feColorMatrix values="0 0 0 0 0 0 0 0 0 0.94 0 0 0 0 1 0 0 0 1 0"/>
      <feBlend in2="BackgroundImageFix" result="effect1_dropShadow"/>
      <feBlend in="SourceGraphic" in2="effect1_dropShadow" result="shape"/>
    </filter>
    <filter id="filter16_di" x="358" y="745" width="41" height="41" filterUnits="userSpaceOnUse" color-interpolation-filters="sRGB">
      <feFlood flood-opacity="0" result="BackgroundImageFix"/>
      <feColorMatrix in="SourceAlpha" values="0 0 0 0 0 0 0 0 0 0 0 0 0 0 0 0 0 0 127 0" result="hardAlpha"/>
      <feOffset/>
      <feGaussianBlur stdDeviation="2"/>
      <feComposite in2="hardAlpha" operator="out"/>
      <feColorMatrix values="0 0 0 0 0 0 0 0 0 0.94 0 0 0 0 1 0 0 0 1 0"/>
      <feBlend in2="BackgroundImageFix" result="effect1_dropShadow"/>
      <feBlend in="SourceGraphic" in2="effect1_dropShadow" result="shape"/>
      <feColorMatrix in="SourceAlpha" values="0 0 0 0 0 0 0 0 0 0 0 0 0 0 0 0 0 0 127 0" result="hardAlpha"/>
      <feOffset/>
      <feGaussianBlur stdDeviation="2"/>
      <feComposite in2="hardAlpha" operator="arithmetic" k2="-1" k3="1"/>
      <feColorMatrix values="0 0 0 0 0 0 0 0 0 0 0 0 0 0 0 0 0 0 0.25 0"/>
      <feBlend in2="shape" result="effect2_innerShadow"/>
    </filter>
    <filter id="filter17_d" x="369.4" y="754.8" width="18.2" height="22.4" filterUnits="userSpaceOnUse" color-interpolation-filters="sRGB">
      <feFlood flood-opacity="0" result="BackgroundImageFix"/>
      <feColorMatrix in="SourceAlpha" values="0 0 0 0 0 0 0 0 0 0 0 0 0 0 0 0 0 0 127 0" result="hardAlpha"/>
      <feOffset/>
      <feGaussianBlur stdDeviation="2"/>
      <feComposite in2="hardAlpha" operator="out"/>
      <feColorMatrix values="0 0 0 0 0 0 0 0 0 0.94 0 0 0 0 1 0 0 0 1 0"/>
      <feBlend in2="BackgroundImageFix" result="effect1_dropShadow"/>
      <feBlend in="SourceGraphic" in2="effect1_dropShadow" result="shape"/>
    </filter>
    <filter id="filter18_di" x="260" y="665" width="41" height="41" filterUnits="userSpaceOnUse" color-interpolation-filters="sRGB">
      <feFlood flood-opacity="0" result="BackgroundImageFix"/>
      <feColorMatrix in="SourceAlpha" values="0 0 0 0 0 0 0 0 0 0 0 0 0 0 0 0 0 0 127 0" result="hardAlpha"/>
      <feOffset/>
      <feGaussianBlur stdDeviation="2"/>
      <feComposite in2="hardAlpha" operator="out"/>
      <feColorMatrix values="0 0 0 0 0 0 0 0 0 0.94 0 0 0 0 1 0 0 0 1 0"/>
      <feBlend in2="BackgroundImageFix" result="effect1_dropShadow"/>
      <feBlend in="SourceGraphic" in2="effect1_dropShadow" result="shape"/>
      <feColorMatrix in="SourceAlpha" values="0 0 0 0 0 0 0 0 0 0 0 0 0 0 0 0 0 0 127 0" result="hardAlpha"/>
      <feOffset/>
      <feGaussianBlur stdDeviation="2"/>
      <feComposite in2="hardAlpha" operator="arithmetic" k2="-1" k3="1"/>
      <feColorMatrix values="0 0 0 0 0 0 0 0 0 0 0 0 0 0 0 0 0 0 0.25 0"/>
      <feBlend in2="shape" result="effect2_innerShadow"/>
    </filter>
    <filter id="filter19_d" x="271.4" y="674.8" width="18.2" height="22.4" filterUnits="userSpaceOnUse" color-interpolation-filters="sRGB">
      <feFlood flood-opacity="0" result="BackgroundImageFix"/>
      <feColorMatrix in="SourceAlpha" values="0 0 0 0 0 0 0 0 0 0 0 0 0 0 0 0 0 0 127 0" result="hardAlpha"/>
      <feOffset/>
      <feGaussianBlur stdDeviation="2"/>
      <feComposite in2="hardAlpha" operator="out"/>
      <feColorMatrix values="0 0 0 0 0 0 0 0 0 0.94 0 0 0 0 1 0 0 0 1 0"/>
      <feBlend in2="BackgroundImageFix" result="effect1_dropShadow"/>
      <feBlend in="SourceGraphic" in2="effect1_dropShadow" result="shape"/>
    </filter>
    <radialGradient id="paint24_radial" cx="0" cy="0" r="1" gradientUnits="userSpaceOnUse" gradientTransform="rotate(81.7 -71.6 464.2) scale(830.713 5229.72)">
      <stop stop-color="#00F0FF"/>
      <stop offset=".5" stop-color="#0F7FA2"/>
      <stop offset=".8" stop-color="#1C1E51"/>
      <stop offset=".9" stop-color="#1C1E51"/>
    </radialGradient>
  </defs>
</svg>
