<svg width="540" height="329" viewBox="0 0 540 329" fill="none" xmlns="http://www.w3.org/2000/svg">
  <g class="upper-ring">
    <path class="c4" d="M187.5 164.6c-2.4 1.2-3.5 3.9-2.7 6.6.4 1.3 2.2 3 3.4 3.5 2 .6 4.2 0 5.5-1.3l.9-1h2.2c2 0 2.3.1 2.7.5.4.5.4 1.1.5 13.4l.2 13 .5 1c.7 1.4 2 2.8 3.3 3.5l.8.4h-4.4c-3.4 0-4.6 0-4.7-.3-.2-.1-.3-2.6-.3-6.7l-.1-6.4-.7-1.2c-.8-1.5-2-2.6-3.6-3.1-1-.4-1.7-.5-8.2-.5h-7l-.6-.7a5.5 5.5 0 1 0-6.2 8.7c2 .9 4 .5 6-1.1l1.1-1.1h6.3c5.3 0 6.3 0 6.7.3.5.4.5.4.5 6.5 0 5.6 0 6.2.5 7.3.6 1.5 1.9 2.9 3.4 3.7 1.1.5 1.3.5 7.5.6l6.5.1v1.3c0 2.2.5 2-9.6 2.2-8.6 0-8.8.1-10 .6a9 9 0 0 0-3.6 3.5c-.6 1.1-.9 2.8-.9 5 0 1.5 0 1.6-.6 2.1-.4.3-1 1.1-1.3 1.8a4 4 0 0 0-.5 2.6c.4 5 6.3 7 9.5 3.3 1-1.1 1.3-2 1.3-3.6 0-1.7-.3-2.6-1.5-3.8-.9-1-.9-1-.9-2.8 0-3-.6-2.8 8.1-2.7l9-.2a7.2 7.2 0 0 0 5.8-3.6l.6-1v11c0 10.2 0 11-.4 11.9a4 4 0 0 1-7.2.4c-.5-.8-.6-1.2-.6-2.7 0-1.8 0-1.9.7-2.5.4-.3 1-1 1.2-1.7 2-4-1.7-8.6-6-7.7a5.6 5.6 0 0 0-2.6 9.5c.7.6.7.8.7 2.1 0 4.6 2.2 8.3 6 10 1.2.7 1.8.8 3.6.9 1.6 0 2.4 0 3.3-.3a9.8 9.8 0 0 0 5.6-4.3c1.5-2.5 1.5-2.2 1.5-17.2v-13.5h3.1v13c0 7.6 0 13.4.2 14.1.6 3.1 2.8 6 5.7 7.4 1.4.7 1.6.7 4.2.7 2.4 0 2.7 0 3.8-.6a10 10 0 0 0 6-9.6v-2l1-1c1.5-1.4 2-3.4 1.4-5.4a5.2 5.2 0 0 0-2.6-3.2c-1-.5-1.5-.6-2.7-.6-4.9 0-7.2 6-3.6 9.4.7.7.8.8.8 2.3 0 1.8-.5 3-1.6 4a4 4 0 0 1-6-1l-.6-1v-22.1l.7 1 1.8 2c2 1.3 2.1 1.3 11.2 1.4 4.6 0 8.5.1 8.8.2.6.1 1 1 1 2.8 0 1.6 0 1.7-.8 2.4a5 5 0 0 0-1.8 4c0 3.2 2.3 5.4 5.4 5.4 3.2 0 5.4-2.3 5.4-5.4 0-1.7-.3-2.6-1.6-3.9l-.8-.9-.1-2.5c-.1-2-.2-2.8-.6-3.6a8 8 0 0 0-3.6-3.7l-1.2-.6h-8.8l-8.8-.1-.5-.6c-.3-.4-.4-1-.4-1.8v-1.2h6.4c6 0 6.4-.1 7.4-.6a7.5 7.5 0 0 0 3.4-3.3l.6-1v-6.5c.2-5.7.2-6.5.5-6.7.3-.2 2-.3 6.9-.3h6.5l.4.7c.7 1 2.3 1.7 3.6 1.9 3.3.3 6-2.1 6-5.4 0-1.7-.6-3-1.8-4.1a5.3 5.3 0 0 0-7.3.1l-1 1h-7.4l-7.3.1-1.1.6c-.6.4-1.5 1.1-2 1.7-1.6 1.7-1.7 2.2-1.8 9.2 0 3.3-.1 6.2-.2 6.3 0 .3-1.2.3-4.7.3h-4.6l1-.4a8.8 8.8 0 0 0 3.3-3.6l.6-1.2.1-13c.1-12.4.1-12.9.5-13.2.4-.2 1.1-.3 2.7-.3 2 0 2.2 0 2.6.5.8 1 2.3 1.7 3.8 1.8 2.6.3 4.9-1.3 5.6-3.7.4-1.4.4-1.8 0-3.3a5.2 5.2 0 0 0-5.2-3.8 5 5 0 0 0-4 1.7l-.6.8h-2.4c-4.3 0-6.6 1.2-8.1 4.4l-.8 1.5v12.8c-.2 12.4-.2 12.9-.6 13.2-.3.2-1.3.3-4.3.3H226V194h.8a5 5 0 0 0 4-2.5c.3-.6.4-1.8.5-8.8 0-5.4 0-8.6-.2-9.6-.7-4-3.7-7.5-7.6-8.7-1.2-.3-2-.4-3.8-.3-2 0-2.4.1-4 .8-3 1.5-5.1 4-6 7.1-.3 1.3-.3 2.7-.3 9.8 0 8.8 0 9.2 1 10.6.6.8 2.3 1.6 3.5 1.6h.8V198.7h-4c-3.7 0-4 0-4.4-.5-.4-.4-.4-1-.5-13.4l-.1-12.9-.6-1c-.7-1.6-2.1-3-3.7-3.7-1-.5-1.6-.6-4-.7-2.7 0-2.9 0-3.2-.6a5.5 5.5 0 0 0-6.7-1.3Z" fill="url(#paint0_linear)" fill-opacity=".2"/>
    <path class="c3" d="M285.8 164.6c-2.4 1.2-3.5 3.9-2.7 6.6.4 1.3 2.2 3 3.4 3.5 2 .6 4.2 0 5.5-1.3l.9-1h2.2c2 0 2.3.1 2.7.5.4.5.4 1.1.5 13.4l.2 13 .5 1c.7 1.4 2 2.8 3.3 3.5l.8.4h-4.4c-3.4 0-4.6 0-4.7-.3-.2-.1-.3-2.6-.4-6.7v-6.4l-.7-1.2c-.8-1.5-2-2.6-3.6-3.1-1-.4-1.7-.5-8.2-.5h-7l-.6-.7a5.5 5.5 0 1 0-6.2 8.7c2 .9 4 .5 6-1.1l1.1-1.1h6.3c5.3 0 6.3 0 6.7.3.5.4.5.4.5 6.5 0 5.6 0 6.2.5 7.3.6 1.5 1.9 2.9 3.4 3.7 1.1.5 1.3.5 7.5.6l6.5.1v1.3c0 2.2.5 2-9.6 2.2-8.6 0-8.8.1-10 .6a9 9 0 0 0-3.6 3.5c-.6 1.1-.9 2.8-.9 5 0 1.5 0 1.6-.6 2.1-.4.3-1 1.1-1.3 1.8a4 4 0 0 0-.5 2.6c.4 5 6.3 7 9.5 3.3 1-1.1 1.3-2 1.3-3.6 0-1.7-.3-2.6-1.5-3.8-.9-1-.9-1-.9-2.8 0-3-.6-2.8 8.1-2.7l9-.2a7.2 7.2 0 0 0 5.8-3.6l.6-1v11c0 10.2 0 11-.4 11.9a4 4 0 0 1-7.2.4c-.5-.8-.6-1.2-.6-2.7 0-1.8 0-1.9.7-2.5.4-.3 1-1 1.2-1.7 2-4-1.7-8.6-6-7.7a5.6 5.6 0 0 0-2.6 9.5c.7.6.7.8.7 2.1 0 4.6 2.2 8.3 6 10 1.2.7 1.8.8 3.6.9 1.6 0 2.4 0 3.3-.3a9.8 9.8 0 0 0 5.6-4.3c1.5-2.5 1.5-2.2 1.5-17.2v-13.5h3.1v13c0 7.6 0 13.4.2 14.1.6 3.1 2.8 6 5.7 7.4 1.4.7 1.6.7 4.2.7 2.4 0 2.7 0 3.8-.6a10 10 0 0 0 6-9.6v-2l1-1c1.5-1.4 2-3.4 1.4-5.4a5.2 5.2 0 0 0-2.6-3.2c-1-.5-1.5-.6-2.7-.6-4.9 0-7.2 6-3.6 9.4.7.7.8.8.8 2.3 0 1.8-.5 3-1.6 4a4 4 0 0 1-6-1l-.6-1v-22.1l.7 1 1.8 2c2 1.3 2.1 1.3 11.2 1.4 4.6 0 8.5.1 8.8.2.6.1 1 1 1 2.8 0 1.6 0 1.7-.8 2.4a5 5 0 0 0-1.8 4c0 3.2 2.3 5.4 5.4 5.4 3.2 0 5.4-2.3 5.4-5.4 0-1.7-.3-2.6-1.6-3.9l-.8-.9-.1-2.5c-.1-2-.2-2.8-.6-3.6a8 8 0 0 0-3.6-3.7l-1.2-.6H341l-8.8-.1-.5-.6c-.3-.4-.4-1-.4-1.8v-1.2h6.4c6 0 6.4-.1 7.4-.6a7.5 7.5 0 0 0 3.4-3.3l.6-1v-6.5c.2-5.7.2-6.5.5-6.7.3-.2 2-.3 6.9-.3h6.5l.4.7c.7 1 2.3 1.7 3.6 1.9 3.3.3 6-2.1 6-5.4 0-1.7-.6-3-1.8-4.1a5.3 5.3 0 0 0-7.3.1l-1 1h-7.4l-7.3.1-1.1.6c-.6.4-1.5 1.1-2 1.7-1.6 1.7-1.7 2.2-1.8 9.2 0 3.3-.1 6.2-.2 6.3 0 .3-1.2.3-4.7.3H334l1-.4a8.8 8.8 0 0 0 3.3-3.6l.6-1.2.1-13c.1-12.4.1-12.9.5-13.2.4-.2 1.1-.3 2.7-.3 2 0 2.2 0 2.6.5.8 1 2.3 1.7 3.8 1.8 2.6.3 4.9-1.3 5.6-3.7.4-1.4.4-1.8 0-3.3a5.2 5.2 0 0 0-5.2-3.8 5 5 0 0 0-4 1.7l-.6.8h-2.4c-4.3 0-6.6 1.2-8.1 4.4l-.8 1.5v12.8c-.2 12.4-.2 12.9-.6 13.2-.3.2-1.3.3-4.3.3h-3.8V194h.8a5 5 0 0 0 4-2.5c.3-.6.4-1.7.5-8.8 0-5.4 0-8.6-.2-9.6-.7-4-3.7-7.5-7.6-8.7-1.2-.3-2-.4-3.8-.3-2 0-2.4.1-4 .8-3 1.5-5.1 4-6 7.1-.3 1.3-.3 2.7-.3 9.8 0 8.8 0 9.2 1 10.6.6.8 2.4 1.6 3.5 1.6h.8V198.7h-4c-3.7 0-4 0-4.4-.5-.4-.4-.4-1-.5-13.4L304 172l-.6-1c-.7-1.6-2.1-3-3.7-3.7-1-.5-1.6-.6-4-.7-2.7 0-2.9 0-3.2-.6a5.5 5.5 0 0 0-6.7-1.3Z" fill="url(#paint1_linear)" fill-opacity=".2"/>
    <path class="b4" d="M187.5 82.6c-2.4 1.2-3.5 3.9-2.7 6.6.4 1.3 2.2 3.1 3.4 3.5 2 .6 4.2 0 5.5-1.3l.9-1h2.2c2 0 2.3.1 2.7.5.4.5.4 1.1.5 13.4l.2 13 .5 1c.7 1.4 2 2.8 3.3 3.5l.8.4h-4.4c-3.4 0-4.6 0-4.7-.3-.2-.1-.3-2.6-.3-6.7l-.1-6.4-.7-1.2c-.8-1.5-2-2.6-3.6-3.1-1-.4-1.7-.5-8.2-.5h-7l-.6-.7a5.5 5.5 0 1 0-6.2 8.7c2 .9 4 .5 6-1.1l1.1-1.1h6.3c5.3 0 6.3 0 6.7.3.5.4.5.4.5 6.5 0 5.6 0 6.2.5 7.3.6 1.5 1.9 2.9 3.4 3.7 1.1.5 1.3.5 7.5.6l6.5.1v1.3c0 2.2.5 2-9.6 2.2-8.6 0-8.8.1-10 .6a9 9 0 0 0-3.6 3.5c-.6 1.1-.9 2.9-.9 5 0 1.5 0 1.6-.6 2.1-.4.3-1 1.1-1.3 1.8a4 4 0 0 0-.5 2.6c.4 5 6.3 7 9.5 3.3 1-1.1 1.3-2 1.3-3.6 0-1.7-.3-2.6-1.5-3.8-.9-1-.9-1-.9-2.8 0-3-.6-2.8 8.1-2.7l9-.2a7.2 7.2 0 0 0 5.8-3.6l.6-1v11c0 10.2 0 11-.4 11.9a4 4 0 0 1-7.2.4c-.5-.8-.6-1.2-.6-2.7 0-1.8 0-1.9.7-2.5.4-.3 1-1 1.2-1.7 2-4-1.7-8.6-6-7.7a5.6 5.6 0 0 0-2.6 9.5c.7.6.7.8.7 2.1 0 4.6 2.2 8.3 6 10 1.2.7 1.8.8 3.6.9 1.6 0 2.4 0 3.3-.3a9.8 9.8 0 0 0 5.6-4.3c1.5-2.5 1.5-2.2 1.5-17.2v-13.5h3.1v13c0 7.6 0 13.4.2 14.1.6 3.1 2.8 6 5.7 7.4 1.4.7 1.6.7 4.2.7 2.4 0 2.7 0 3.8-.6a10 10 0 0 0 6-9.6v-2l1-1c1.5-1.4 2-3.4 1.4-5.4a5.2 5.2 0 0 0-2.6-3.2c-1-.5-1.5-.6-2.7-.6-4.9 0-7.2 6-3.6 9.4.7.7.8.8.8 2.3 0 1.8-.5 3-1.6 4a4 4 0 0 1-6-1l-.6-1v-22.1l.7 1 1.8 2c2 1.3 2.1 1.3 11.2 1.4 4.6 0 8.5.1 8.8.2.6.1 1 1 1 2.8 0 1.6 0 1.7-.8 2.4a5 5 0 0 0-1.8 4c0 3.2 2.3 5.4 5.4 5.4 3.2 0 5.4-2.3 5.4-5.4 0-1.7-.3-2.6-1.6-3.9l-.8-.9-.1-2.5c-.1-2-.2-2.8-.6-3.6a8 8 0 0 0-3.6-3.7l-1.2-.6h-8.8l-8.8-.1-.5-.6c-.3-.4-.4-1-.4-1.8v-1.2h6.4c6 0 6.4-.1 7.4-.6a7.5 7.5 0 0 0 3.4-3.3l.6-1v-6.5c.2-5.7.2-6.5.5-6.7.3-.2 2-.3 6.9-.3h6.5l.4.7c.7 1 2.3 1.7 3.6 1.9 3.3.3 6-2.1 6-5.4 0-1.7-.6-3-1.8-4.1a5.3 5.3 0 0 0-7.3.1l-1 1h-7.4l-7.3.1-1.1.6c-.6.4-1.5 1.1-2 1.7-1.6 1.7-1.7 2.2-1.8 9.2 0 3.3-.1 6.2-.2 6.3 0 .3-1.2.3-4.7.3h-4.6l1-.4a8.8 8.8 0 0 0 3.3-3.6l.6-1.2.1-13c.1-12.4.1-12.9.5-13.2.4-.2 1.1-.3 2.7-.3 2 0 2.2 0 2.6.5.8 1 2.3 1.7 3.8 1.9 2.6.2 4.9-1.4 5.6-3.8.4-1.4.4-1.8 0-3.3a5.2 5.2 0 0 0-5.2-3.8 5 5 0 0 0-4 1.7l-.6.8h-2.4c-4.3 0-6.6 1.2-8.1 4.4l-.8 1.5v12.8c-.2 12.4-.2 12.9-.6 13.2-.3.2-1.3.3-4.3.3H226V112h.8a5 5 0 0 0 4-2.5c.3-.6.4-1.7.5-8.8 0-5.4 0-8.6-.2-9.6-.7-4-3.7-7.5-7.6-8.7-1.2-.3-2-.4-3.8-.3-2 0-2.4.1-4 .8-3 1.5-5.1 4-6 7.1-.3 1.3-.3 2.7-.3 9.8 0 8.8 0 9.2 1 10.6.6.8 2.3 1.6 3.5 1.6h.8V116.7h-4c-3.7 0-4 0-4.4-.5-.4-.4-.4-1-.5-13.4l-.1-12.9-.6-1c-.7-1.6-2.1-3-3.7-3.7-1-.5-1.6-.6-4-.7-2.7 0-2.9 0-3.2-.6a5.5 5.5 0 0 0-6.7-1.3Z" fill="url(#paint2_linear)" fill-opacity=".5"/>
    <path class="b3" d="M285.8 82.6c-2.4 1.2-3.5 3.9-2.7 6.6.4 1.3 2.2 3.1 3.4 3.5 2 .6 4.2 0 5.5-1.3l.9-1h2.2c2 0 2.3.1 2.7.5.4.5.4 1.1.5 13.4l.2 13 .5 1c.7 1.4 2 2.8 3.3 3.5l.8.4h-4.4c-3.4 0-4.6 0-4.7-.3-.2-.1-.3-2.6-.4-6.7v-6.4l-.7-1.2c-.8-1.5-2-2.6-3.6-3.1-1-.4-1.7-.5-8.2-.5h-7l-.6-.7a5.5 5.5 0 1 0-6.2 8.7c2 .9 4 .5 6-1.1l1.1-1.1h6.3c5.3 0 6.3 0 6.7.4.5.3.5.3.5 6.4 0 5.6 0 6.2.5 7.3.6 1.5 1.9 2.9 3.4 3.7 1.1.5 1.3.5 7.5.6l6.5.1v1.3c0 2.2.5 2-9.6 2.2-8.6 0-8.8.1-10 .6a9 9 0 0 0-3.6 3.5c-.6 1.1-.9 2.9-.9 5 0 1.5 0 1.6-.6 2.1-.4.3-1 1.1-1.3 1.8a4 4 0 0 0-.5 2.6c.4 5 6.3 7 9.5 3.3 1-1.1 1.3-2 1.3-3.6 0-1.7-.3-2.6-1.5-3.8-.9-1-.9-1-.9-2.8 0-3-.6-2.8 8.1-2.7l9-.2a7.2 7.2 0 0 0 5.8-3.6l.6-1v11c0 10.2 0 11-.4 11.9a4 4 0 0 1-7.2.4c-.5-.8-.6-1.2-.6-2.7 0-1.8 0-1.9.7-2.5.4-.3 1-1 1.2-1.7 2-4-1.7-8.6-6-7.7a5.6 5.6 0 0 0-2.6 9.5c.7.6.7.8.7 2.1 0 4.6 2.2 8.3 6 10 1.2.7 1.8.8 3.6.9 1.6 0 2.4 0 3.3-.3a9.8 9.8 0 0 0 5.6-4.3c1.5-2.5 1.5-2.2 1.5-17.2v-13.5h3.1v13c0 7.6 0 13.4.2 14.1.6 3.1 2.8 6 5.7 7.4 1.4.7 1.6.7 4.2.7 2.4 0 2.7 0 3.8-.6a10 10 0 0 0 6-9.6v-2l1-1c1.5-1.4 2-3.4 1.4-5.4a5.2 5.2 0 0 0-2.6-3.2c-1-.5-1.5-.6-2.7-.6-4.9 0-7.2 6-3.6 9.4.7.7.8.8.8 2.3 0 1.8-.5 3-1.6 4a4 4 0 0 1-6-1l-.6-1v-22.1l.7 1 1.8 2c2 1.3 2.1 1.3 11.2 1.4 4.6 0 8.5.1 8.8.2.6.1 1 1 1 2.8 0 1.6 0 1.7-.8 2.4a5 5 0 0 0-1.8 4c0 3.2 2.3 5.4 5.4 5.4 3.2 0 5.4-2.3 5.4-5.4 0-1.7-.3-2.6-1.6-3.9l-.8-.9-.1-2.5c-.1-2-.2-2.8-.6-3.6a8 8 0 0 0-3.6-3.7l-1.2-.6H341l-8.8-.1-.5-.6c-.3-.4-.4-1-.4-1.8v-1.2h6.4c6 0 6.4-.1 7.4-.6a7.5 7.5 0 0 0 3.4-3.3l.6-1v-6.5c.2-5.7.2-6.5.5-6.7.3-.2 2-.3 6.9-.3h6.5l.4.7c.7 1 2.3 1.7 3.6 1.9 3.3.3 6-2.1 6-5.4 0-1.7-.6-3-1.8-4.1a5.3 5.3 0 0 0-7.3.1l-1 1h-7.4l-7.3.1-1.1.6c-.6.4-1.5 1.1-2 1.7-1.6 1.7-1.7 2.2-1.8 9.2 0 3.3-.1 6.2-.2 6.3 0 .3-1.2.3-4.7.3H334l1-.4a8.8 8.8 0 0 0 3.3-3.6l.6-1.2.1-13c.1-12.4.1-12.9.5-13.2.4-.2 1.1-.3 2.7-.3 2 0 2.2 0 2.6.5.8 1 2.3 1.7 3.8 1.9 2.6.2 4.9-1.4 5.6-3.8.4-1.4.4-1.8 0-3.3a5.2 5.2 0 0 0-5.2-3.8 5 5 0 0 0-4 1.7l-.6.8h-2.4c-4.3 0-6.6 1.2-8.1 4.4l-.8 1.5v12.8c-.2 12.4-.2 12.9-.6 13.2-.3.2-1.3.3-4.3.3h-3.8V112h.8a5 5 0 0 0 4-2.5c.3-.6.4-1.7.5-8.8 0-5.4 0-8.6-.2-9.6-.7-4-3.7-7.5-7.6-8.7-1.2-.3-2-.4-3.8-.3-2 0-2.4.1-4 .8-3 1.5-5.1 4-6 7.1-.3 1.3-.3 2.7-.3 9.8 0 8.8 0 9.2 1 10.6.6.8 2.4 1.6 3.5 1.6h.8V116.7h-4c-3.7 0-4 0-4.4-.5-.4-.4-.4-1-.5-13.4L304 90l-.6-1c-.7-1.6-2.1-3-3.7-3.7-1-.5-1.6-.6-4-.7-2.7 0-2.9 0-3.2-.6a5.5 5.5 0 0 0-6.7-1.3Z" fill="url(#paint3_linear)" fill-opacity=".5"/>
    <path class="a4" d="M187.5.6c-2.4 1.2-3.5 3.9-2.7 6.6.4 1.3 2.2 3.1 3.4 3.5 2 .6 4.2 0 5.5-1.3l.9-1h2.2c2 0 2.3.1 2.7.5.4.5.4 1.1.5 13.4l.2 13 .5 1c.7 1.4 2 2.8 3.3 3.5l.8.4h-4.4c-3.4 0-4.6 0-4.7-.3-.2-.1-.3-2.6-.3-6.7l-.1-6.4-.7-1.2c-.8-1.5-2-2.6-3.6-3.1-1-.4-1.7-.5-8.2-.5h-7l-.6-.7A5.5 5.5 0 1 0 169 30c2 .9 4 .5 6-1.1l1.1-1.1h6.3c5.3 0 6.3 0 6.7.3.5.4.5.4.5 6.5 0 5.6 0 6.2.5 7.3.6 1.5 1.9 2.9 3.4 3.7 1.1.5 1.3.5 7.5.6l6.5.1v1.3c0 2.2.5 2-9.6 2.2-8.6 0-8.8.1-10 .6a9 9 0 0 0-3.6 3.5c-.6 1.1-.9 2.9-.9 5 0 1.5 0 1.6-.6 2.1-.4.3-1 1.1-1.3 1.8a4 4 0 0 0-.5 2.6c.4 5 6.3 7 9.5 3.3 1-1.1 1.3-2 1.3-3.6 0-1.7-.3-2.6-1.5-3.8-.9-1-.9-1-.9-2.8 0-3-.6-2.8 8.1-2.7l9-.2a7.2 7.2 0 0 0 5.8-3.6l.6-1v11c0 10.2 0 11-.4 11.9a4 4 0 0 1-7.2.4c-.5-.8-.6-1.2-.6-2.7 0-1.8 0-1.9.7-2.5.4-.3 1-1 1.2-1.7 2-4-1.7-8.6-6-7.7a5.6 5.6 0 0 0-2.6 9.5c.7.6.7.8.7 2.1 0 4.6 2.2 8.3 6 10 1.2.7 1.8.8 3.6.9 1.6 0 2.4 0 3.3-.3a9.8 9.8 0 0 0 5.6-4.3c1.5-2.5 1.5-2.2 1.5-17.2V46.9h3.1v13c0 7.6 0 13.4.2 14.1.6 3.1 2.8 6 5.7 7.4 1.4.7 1.6.7 4.2.7 2.4 0 2.7 0 3.8-.6a10 10 0 0 0 6-9.6v-2l1-1c1.5-1.4 2-3.4 1.4-5.4a5.2 5.2 0 0 0-2.6-3.2c-1-.5-1.5-.6-2.7-.6-4.9 0-7.2 6-3.6 9.4.7.7.8.8.8 2.3 0 1.8-.5 3-1.6 4a4 4 0 0 1-6-1l-.6-1V51.3l.7 1 1.8 2c2 1.3 2.1 1.3 11.2 1.4 4.6 0 8.5.1 8.8.2.6.1 1 1 1 2.8 0 1.6 0 1.7-.8 2.4a5 5 0 0 0-1.8 4c0 3.2 2.3 5.4 5.4 5.4 3.2 0 5.4-2.3 5.4-5.4 0-1.7-.3-2.6-1.6-3.9l-.8-.9-.1-2.5c-.1-2-.2-2.8-.6-3.6a8 8 0 0 0-3.6-3.7l-1.2-.6h-8.8l-8.8-.1-.5-.6c-.3-.4-.4-1-.4-1.8v-1.2h6.4c6 0 6.4-.1 7.4-.6a7.5 7.5 0 0 0 3.4-3.3l.6-1v-6.5c.2-5.7.2-6.5.5-6.7.3-.2 2-.3 6.9-.3h6.5l.4.7c.7 1 2.3 1.7 3.6 1.9 3.3.3 6-2.1 6-5.4 0-1.7-.6-3-1.8-4.1a5.3 5.3 0 0 0-7.3.1l-1 1h-7.4l-7.3.1-1.1.6c-.6.4-1.5 1.1-2 1.7-1.6 1.7-1.7 2.2-1.8 9.2 0 3.3-.1 6.2-.2 6.3 0 .3-1.2.3-4.7.3h-4.6l1-.4a8.8 8.8 0 0 0 3.3-3.6l.6-1.2.1-13c.1-12.4.1-12.9.5-13.2.4-.2 1.1-.3 2.7-.3 2 0 2.2 0 2.6.5.8 1 2.3 1.7 3.8 1.9 2.6.2 4.9-1.4 5.6-3.8.4-1.4.4-1.8 0-3.3a5.2 5.2 0 0 0-5.2-3.8 5 5 0 0 0-4 1.7l-.6.8h-2.4c-4.3 0-6.6 1.2-8.1 4.4l-.8 1.5v12.8c-.2 12.4-.2 12.9-.6 13.2-.3.2-1.3.3-4.3.3H226V30h.8a5 5 0 0 0 4-2.5c.3-.6.4-1.7.5-8.8 0-5.4 0-8.6-.2-9.6-.7-4-3.7-7.5-7.6-8.7-1.2-.3-2-.4-3.8-.3-2 0-2.4.1-4 .8-3 1.5-5.1 4-6 7.1-.3 1.3-.3 2.7-.3 9.8 0 8.8 0 9.2 1 10.6.6.8 2.3 1.6 3.5 1.6h.8V34.7h-4c-3.7 0-4 0-4.4-.5-.4-.4-.4-1-.5-13.4L205.7 8l-.6-1c-.7-1.6-2.1-3-3.7-3.7-1-.5-1.6-.6-4-.7-2.7 0-2.9 0-3.2-.6a5.5 5.5 0 0 0-6.7-1.3Z" fill="url(#paint4_linear)"/>
    <path class="a3" d="M285.8.6c-2.4 1.2-3.5 3.9-2.7 6.6.4 1.3 2.2 3.1 3.4 3.5 2 .6 4.2 0 5.5-1.3l.9-1h2.2c2 0 2.3.1 2.7.5.4.5.4 1.1.5 13.4l.2 13 .5 1c.7 1.4 2 2.8 3.3 3.5l.8.4h-4.4c-3.4 0-4.6 0-4.7-.3-.2-.1-.3-2.6-.4-6.7v-6.4l-.7-1.2c-.8-1.5-2-2.6-3.6-3.1-1-.4-1.7-.5-8.2-.5h-7l-.6-.7a5.5 5.5 0 1 0-6.2 8.7c2 .9 4 .5 6-1.1l1.1-1.1h6.3c5.3 0 6.3 0 6.7.3.5.4.5.4.5 6.5 0 5.6 0 6.2.5 7.3.6 1.5 1.9 2.9 3.4 3.7 1.1.5 1.3.5 7.5.6l6.5.1v1.3c0 2.2.5 2-9.6 2.2-8.6 0-8.8.1-10 .6a9 9 0 0 0-3.6 3.5c-.6 1.1-.9 2.9-.9 5 0 1.5 0 1.6-.6 2.1-.4.3-1 1.1-1.3 1.8a4 4 0 0 0-.5 2.6c.4 5 6.3 7 9.5 3.3 1-1.1 1.3-2 1.3-3.6 0-1.7-.3-2.6-1.5-3.8-.9-1-.9-1-.9-2.8 0-3-.6-2.8 8.1-2.7l9-.2a7.2 7.2 0 0 0 5.8-3.6l.6-1v11c0 10.2 0 11-.4 11.9a4 4 0 0 1-7.2.4c-.5-.8-.6-1.2-.6-2.7 0-1.8 0-1.9.7-2.5.4-.3 1-1 1.2-1.7 2-4-1.7-8.6-6-7.7a5.6 5.6 0 0 0-2.6 9.5c.7.6.7.8.7 2.1 0 4.6 2.2 8.3 6 10 1.2.7 1.8.8 3.6.9 1.6 0 2.4 0 3.3-.3a9.8 9.8 0 0 0 5.6-4.3c1.5-2.5 1.5-2.2 1.5-17.2V46.9h3.1v13c0 7.6 0 13.4.2 14.1.6 3.1 2.8 6 5.7 7.4 1.4.7 1.6.7 4.2.7 2.4 0 2.7 0 3.8-.6a10 10 0 0 0 6-9.6v-2l1-1c1.5-1.4 2-3.4 1.4-5.4a5.2 5.2 0 0 0-2.6-3.2c-1-.5-1.5-.6-2.7-.6-4.9 0-7.2 6-3.6 9.4.7.7.8.8.8 2.3 0 1.9-.5 3-1.6 4a4 4 0 0 1-6-1l-.6-1V51.3l.7 1 1.8 2c2 1.3 2.1 1.3 11.2 1.4 4.6 0 8.5.1 8.8.2.6.1 1 1 1 2.8 0 1.6 0 1.7-.8 2.4a5 5 0 0 0-1.8 4c0 3.2 2.3 5.4 5.4 5.4 3.2 0 5.4-2.3 5.4-5.4 0-1.7-.3-2.6-1.6-3.9l-.8-.9-.1-2.5c-.1-2-.2-2.8-.6-3.6a8 8 0 0 0-3.6-3.7L350 50H341l-8.8-.1-.5-.6c-.3-.4-.4-1-.4-1.8v-1.2h6.4c6 0 6.4-.1 7.4-.6a7.5 7.5 0 0 0 3.4-3.3l.6-1v-6.5c.2-5.7.2-6.5.5-6.7.3-.2 2-.3 6.9-.3h6.5l.4.7c.7 1 2.3 1.7 3.6 1.9 3.3.3 6-2.1 6-5.4 0-1.7-.6-3-1.8-4.1a5.3 5.3 0 0 0-7.3.1l-1 1h-7.4l-7.3.1-1.1.6c-.6.4-1.5 1.1-2 1.7-1.6 1.7-1.7 2.2-1.8 9.2 0 3.3-.1 6.2-.2 6.3 0 .3-1.2.3-4.7.3H334l1-.4a8.8 8.8 0 0 0 3.3-3.6l.6-1.2.1-13c.1-12.4.1-12.9.5-13.2.4-.2 1.1-.3 2.7-.3 2 0 2.2 0 2.6.5.8 1 2.3 1.7 3.8 1.9 2.6.2 4.9-1.4 5.6-3.8.4-1.4.4-1.8 0-3.3a5.2 5.2 0 0 0-5.2-3.8 5 5 0 0 0-4 1.7l-.6.8h-2.4c-4.3 0-6.6 1.2-8.1 4.4l-.8 1.5v12.8c-.2 12.4-.2 12.9-.6 13.2-.3.2-1.3.3-4.3.3h-3.8V30h.8a5 5 0 0 0 4-2.5c.3-.6.4-1.7.5-8.8 0-5.4 0-8.6-.2-9.6-.7-4-3.7-7.5-7.6-8.7-1.2-.3-2-.4-3.8-.3-2 0-2.4.1-4 .8-3 1.5-5.1 4-6 7.1-.3 1.3-.3 2.7-.3 9.8 0 8.8 0 9.2 1 10.6.6.8 2.4 1.6 3.5 1.6h.8V34.7h-4c-3.7 0-4 0-4.4-.5-.4-.4-.4-1-.5-13.4L304 8l-.6-1c-.7-1.6-2.1-3-3.7-3.7-1-.5-1.6-.6-4-.7-2.7 0-2.9 0-3.2-.6a5.5 5.5 0 0 0-6.7-1.3Z" fill="url(#paint5_linear)"/>
    <path class="c2" d="M368.8 205.6c-2.4 1.2-3.5 3.9-2.7 6.6.4 1.3 2.2 3 3.4 3.5 2 .6 4.2 0 5.5-1.3l.9-1h2.2c2 0 2.3.1 2.7.5.4.5.4 1.1.5 13.4l.2 13 .5 1c.7 1.4 2 2.8 3.3 3.5l.8.4h-4.4c-3.4 0-4.6 0-4.7-.3-.2-.1-.3-2.6-.4-6.7v-6.4l-.7-1.2c-.8-1.5-2-2.6-3.6-3.1-1-.4-1.7-.5-8.2-.5h-7l-.6-.7a5.5 5.5 0 1 0-6.2 8.7c2 .9 4 .5 6-1.1l1.1-1.1h6.3c5.3 0 6.3 0 6.7.3.5.4.5.4.5 6.5 0 5.6 0 6.2.5 7.3.6 1.5 1.9 2.9 3.4 3.7 1.1.5 1.3.5 7.5.6l6.5.1v1.3c0 2.2.5 2-9.6 2.2-8.6 0-8.8.1-10 .6a9 9 0 0 0-3.6 3.5c-.6 1.1-.9 2.9-.9 5 0 1.5 0 1.6-.6 2.1-.4.3-1 1.1-1.3 1.8a4 4 0 0 0-.5 2.6c.4 5 6.3 7 9.5 3.3 1-1.1 1.3-2 1.3-3.6 0-1.7-.3-2.6-1.5-3.8-.9-1-.9-1-.9-2.8 0-3-.6-2.8 8.1-2.7l9-.2a7.2 7.2 0 0 0 5.8-3.6l.6-1v11c0 10.2 0 11-.4 11.9a4 4 0 0 1-7.2.4c-.5-.8-.6-1.2-.6-2.7 0-1.8 0-1.9.7-2.5.4-.3 1-1 1.2-1.7 2-4-1.7-8.6-6-7.7a5.6 5.6 0 0 0-2.6 9.5c.7.6.7.8.7 2.1 0 4.6 2.2 8.3 6 10 1.2.7 1.8.8 3.6.9 1.6 0 2.4 0 3.3-.3a9.8 9.8 0 0 0 5.6-4.3c1.5-2.5 1.5-2.2 1.5-17.2v-13.5h3.1v13c0 7.6 0 13.4.2 14.1.6 3.1 2.8 6 5.7 7.4 1.4.7 1.6.7 4.2.7 2.4 0 2.7 0 3.8-.6a10 10 0 0 0 6-9.6v-2l1-1c1.5-1.4 2-3.4 1.4-5.4a5.2 5.2 0 0 0-2.6-3.2c-1-.5-1.5-.6-2.7-.6-4.9 0-7.2 6-3.6 9.4.7.7.8.8.8 2.3 0 1.8-.5 3-1.6 4a4 4 0 0 1-6-1l-.6-1v-22.1l.7 1 1.8 2c2 1.3 2.1 1.3 11.2 1.4 4.6 0 8.5.1 8.8.2.6.1 1 1 1 2.8 0 1.6 0 1.7-.8 2.4a5 5 0 0 0-1.8 4c0 3.2 2.3 5.4 5.4 5.4 3.2 0 5.4-2.3 5.4-5.4 0-1.7-.3-2.6-1.6-3.9l-.8-.9-.1-2.5c-.1-2-.2-2.8-.6-3.6a8 8 0 0 0-3.6-3.7l-1.2-.6H424l-8.8-.1-.5-.6c-.3-.4-.4-1-.4-1.8v-1.2h6.4c6 0 6.4-.1 7.4-.6a7.5 7.5 0 0 0 3.4-3.3l.6-1v-6.5c.2-5.7.2-6.5.5-6.7.3-.2 2-.3 6.9-.3h6.5l.4.7c.7 1 2.3 1.7 3.6 1.9 3.3.3 6-2.1 6-5.4 0-1.7-.6-3-1.8-4.1a5.3 5.3 0 0 0-7.3.1l-1 1h-7.4l-7.3.1-1.1.6c-.6.4-1.5 1.1-2 1.7-1.6 1.7-1.7 2.2-1.8 9.2 0 3.3-.1 6.2-.2 6.3 0 .3-1.2.3-4.7.3H417l1-.4a8.8 8.8 0 0 0 3.3-3.6l.6-1.2.1-13c.1-12.4.1-12.9.5-13.2.4-.2 1.1-.3 2.7-.3 2 0 2.2 0 2.6.5.8 1 2.3 1.7 3.8 1.8 2.6.3 4.9-1.3 5.6-3.7.4-1.4.4-1.8 0-3.3a5.2 5.2 0 0 0-5.2-3.8 5 5 0 0 0-4 1.7l-.6.8h-2.4c-4.3 0-6.6 1.2-8.1 4.4l-.8 1.5v12.8c-.2 12.4-.2 12.9-.6 13.2-.3.2-1.3.3-4.3.3h-3.8V235h.8a5 5 0 0 0 4-2.5c.3-.6.4-1.8.5-8.8 0-5.4 0-8.6-.2-9.6-.7-4-3.7-7.5-7.6-8.7-1.2-.3-2-.4-3.8-.3-2 0-2.4.1-4 .8-3 1.5-5.1 4-6 7.1-.3 1.3-.3 2.7-.3 9.8 0 8.8 0 9.2 1 10.6.6.8 2.4 1.6 3.5 1.6h.8V239.7h-4c-3.7 0-4 0-4.4-.5-.4-.4-.4-1-.5-13.4L387 213l-.6-1c-.7-1.6-2.1-3-3.7-3.7-1-.5-1.6-.6-4-.7-2.7 0-2.9 0-3.2-.6a5.5 5.5 0 0 0-6.7-1.3Z" fill="url(#paint6_linear)" fill-opacity=".2"/>
    <path class="b2" d="M368.8 123.6c-2.4 1.2-3.5 3.9-2.7 6.6.4 1.3 2.2 3.1 3.4 3.5 2 .6 4.2 0 5.5-1.3l.9-1h2.2c2 0 2.3.1 2.7.5.4.5.4 1.1.5 13.4l.2 13 .5 1c.7 1.4 2 2.8 3.3 3.5l.8.4h-4.4c-3.4 0-4.6 0-4.7-.3-.2-.1-.3-2.6-.4-6.7v-6.4l-.7-1.2c-.8-1.5-2-2.6-3.6-3.1-1-.4-1.7-.5-8.2-.5h-7l-.6-.7a5.5 5.5 0 1 0-6.2 8.7c2 .9 4 .5 6-1.1l1.1-1.1h6.3c5.3 0 6.3 0 6.7.3.5.4.5.4.5 6.5 0 5.6 0 6.2.5 7.3.6 1.5 1.9 2.9 3.4 3.7 1.1.5 1.3.5 7.5.6l6.5.1v1.3c0 2.2.5 2-9.6 2.2-8.6 0-8.8.1-10 .6a9 9 0 0 0-3.6 3.5c-.6 1.1-.9 2.9-.9 5 0 1.5 0 1.6-.6 2.1-.4.3-1 1.1-1.3 1.8a4 4 0 0 0-.5 2.6c.4 5 6.3 7 9.5 3.3 1-1.1 1.3-2 1.3-3.6 0-1.7-.3-2.6-1.5-3.8-.9-1-.9-1-.9-2.8 0-3-.6-2.8 8.1-2.7l9-.2a7.2 7.2 0 0 0 5.8-3.6l.6-1v11c0 10.2 0 11-.4 11.9a4 4 0 0 1-7.2.4c-.5-.8-.6-1.2-.6-2.7 0-1.8 0-1.9.7-2.5.4-.3 1-1 1.2-1.7 2-4-1.7-8.6-6-7.7a5.6 5.6 0 0 0-2.6 9.5c.7.6.7.8.7 2.1 0 4.6 2.2 8.3 6 10 1.2.7 1.8.8 3.6.9 1.6 0 2.4 0 3.3-.3a9.8 9.8 0 0 0 5.6-4.3c1.5-2.5 1.5-2.2 1.5-17.2v-13.5h3.1v13c0 7.6 0 13.4.2 14.1.6 3.1 2.8 6 5.7 7.4 1.4.7 1.6.7 4.2.7 2.4 0 2.7 0 3.8-.6a10 10 0 0 0 6-9.6v-2l1-1c1.5-1.4 2-3.4 1.4-5.4a5.2 5.2 0 0 0-2.6-3.2c-1-.5-1.5-.6-2.7-.6-4.9 0-7.2 6-3.6 9.4.7.7.8.8.8 2.3 0 1.8-.5 3-1.6 4a4 4 0 0 1-6-1l-.6-1v-22.1l.7 1 1.8 2c2 1.3 2.1 1.3 11.2 1.4 4.6 0 8.5.1 8.8.2.6.1 1 1 1 2.8 0 1.6 0 1.7-.8 2.4a5 5 0 0 0-1.8 4c0 3.2 2.3 5.4 5.4 5.4 3.2 0 5.4-2.3 5.4-5.4 0-1.7-.3-2.6-1.6-3.9l-.8-.9-.1-2.5c-.1-2-.2-2.8-.6-3.6a8 8 0 0 0-3.6-3.7l-1.2-.6H424l-8.8-.1-.5-.6c-.3-.4-.4-1-.4-1.8v-1.2h6.4c6 0 6.4-.1 7.4-.6a7.5 7.5 0 0 0 3.4-3.3l.6-1v-6.5c.2-5.7.2-6.5.5-6.7.3-.2 2-.3 6.9-.3h6.5l.4.7c.7 1 2.3 1.7 3.6 1.9 3.3.3 6-2.1 6-5.4 0-1.7-.6-3-1.8-4.1a5.3 5.3 0 0 0-7.3.1l-1 1h-7.4l-7.3.1-1.1.6c-.6.4-1.5 1.1-2 1.7-1.6 1.7-1.7 2.2-1.8 9.2 0 3.3-.1 6.2-.2 6.3 0 .3-1.2.3-4.7.3H417l1-.4a8.8 8.8 0 0 0 3.3-3.6l.6-1.2.1-13c.1-12.4.1-12.9.5-13.2.4-.2 1.1-.3 2.7-.3 2 0 2.2 0 2.6.5.8 1 2.3 1.7 3.8 1.9 2.6.2 4.9-1.4 5.6-3.8.4-1.4.4-1.8 0-3.3a5.2 5.2 0 0 0-5.2-3.8 5 5 0 0 0-4 1.7l-.6.8h-2.4c-4.3 0-6.6 1.2-8.1 4.4l-.8 1.5v12.8c-.2 12.4-.2 12.9-.6 13.2-.3.2-1.3.3-4.3.3h-3.8V153h.8a5 5 0 0 0 4-2.5c.3-.6.4-1.7.5-8.8 0-5.4 0-8.6-.2-9.6-.7-4-3.7-7.5-7.6-8.7-1.2-.3-2-.4-3.8-.3-2 0-2.4.1-4 .8-3 1.5-5.1 4-6 7.1-.3 1.3-.3 2.7-.3 9.8 0 8.8 0 9.2 1 10.6.6.8 2.4 1.6 3.5 1.6h.8V157.7h-4c-3.7 0-4 0-4.4-.5-.4-.4-.4-1-.5-13.4L387 131l-.6-1c-.7-1.6-2.1-3-3.7-3.7-1-.5-1.6-.6-4-.7-2.7 0-2.9 0-3.2-.6a5.5 5.5 0 0 0-6.7-1.3Z" fill="url(#paint7_linear)" fill-opacity=".5"/>
    <path class="a2" d="M368.8 41.6c-2.4 1.2-3.5 3.9-2.7 6.6.4 1.3 2.2 3.1 3.4 3.5 2 .6 4.2 0 5.5-1.3l.9-1h2.2c2 0 2.3.1 2.7.5.4.5.4 1.1.5 13.4l.2 13 .5 1c.7 1.4 2 2.8 3.3 3.5l.8.4h-4.4c-3.4 0-4.6 0-4.7-.3-.2-.1-.3-2.6-.4-6.7v-6.4l-.7-1.2c-.8-1.5-2-2.6-3.6-3.1-1-.4-1.7-.5-8.2-.5h-7l-.6-.7a5.5 5.5 0 1 0-6.2 8.7c2 .9 4 .5 6-1.1l1.1-1.1h6.3c5.3 0 6.3 0 6.7.3.5.4.5.4.5 6.5 0 5.6 0 6.2.5 7.3.6 1.5 1.9 2.9 3.4 3.7 1.1.5 1.3.5 7.5.6l6.5.1v1.3c0 2.2.5 2-9.6 2.2-8.6 0-8.8.1-10 .6a9 9 0 0 0-3.6 3.5c-.6 1.1-.9 2.9-.9 5 0 1.5 0 1.6-.6 2.1-.4.3-1 1.1-1.3 1.8a4 4 0 0 0-.5 2.6c.4 5 6.3 7 9.5 3.3 1-1.1 1.3-2 1.3-3.6 0-1.7-.3-2.6-1.5-3.8-.9-1-.9-1-.9-2.8 0-3-.6-2.8 8.1-2.7l9-.2a7.2 7.2 0 0 0 5.8-3.6l.6-1v11c0 10.2 0 11-.4 11.9a4 4 0 0 1-7.2.4c-.5-.8-.6-1.2-.6-2.7 0-1.8 0-1.9.7-2.5.4-.3 1-1 1.2-1.7 2-4-1.7-8.6-6-7.7a5.6 5.6 0 0 0-2.6 9.5c.7.6.7.8.7 2.1 0 4.6 2.2 8.3 6 10 1.2.7 1.8.8 3.6.9 1.6 0 2.4 0 3.3-.3a9.8 9.8 0 0 0 5.6-4.3c1.5-2.5 1.5-2.2 1.5-17.2V87.9h3.1v13c0 7.6 0 13.4.2 14.1.6 3.1 2.8 6 5.7 7.4 1.4.7 1.6.7 4.2.7 2.4 0 2.7 0 3.8-.6a10 10 0 0 0 6-9.6v-2l1-1c1.5-1.4 2-3.4 1.4-5.4a5.2 5.2 0 0 0-2.6-3.2c-1-.5-1.5-.6-2.7-.6-4.9 0-7.2 6-3.6 9.4.7.7.8.8.8 2.3 0 1.8-.5 3-1.6 4a4 4 0 0 1-6-1l-.6-1V92.3l.7 1 1.8 2c2 1.3 2.1 1.3 11.2 1.4 4.6 0 8.5.1 8.8.2.6.1 1 1 1 2.8 0 1.6 0 1.7-.8 2.4a5 5 0 0 0-1.8 4c0 3.2 2.3 5.4 5.4 5.4 3.2 0 5.4-2.3 5.4-5.4 0-1.7-.3-2.6-1.6-3.9l-.8-.9-.1-2.5c-.1-2-.2-2.8-.6-3.6a8 8 0 0 0-3.6-3.7L433 91H424l-8.8-.1-.5-.6c-.3-.4-.4-1-.4-1.8v-1.2h6.4c6 0 6.4-.1 7.4-.6a7.5 7.5 0 0 0 3.4-3.3l.6-1v-6.5c.2-5.7.2-6.5.5-6.7.3-.2 2-.3 6.9-.3h6.5l.4.7c.7 1 2.3 1.7 3.6 1.9 3.3.3 6-2.1 6-5.4 0-1.7-.6-3-1.8-4.1a5.3 5.3 0 0 0-7.3.1l-1 1h-7.4l-7.3.1-1.1.6c-.6.4-1.5 1.1-2 1.7-1.6 1.7-1.7 2.2-1.8 9.2 0 3.3-.1 6.2-.2 6.3 0 .3-1.2.3-4.7.3H417l1-.4a8.8 8.8 0 0 0 3.3-3.6l.6-1.2.1-13c.1-12.4.1-12.9.5-13.2.4-.2 1.1-.3 2.7-.3 2 0 2.2 0 2.6.5.8 1 2.3 1.7 3.8 1.9 2.6.2 4.9-1.4 5.6-3.8.4-1.4.4-1.8 0-3.3a5.2 5.2 0 0 0-5.2-3.8 5 5 0 0 0-4 1.7l-.6.8h-2.4c-4.3 0-6.6 1.2-8.1 4.4l-.8 1.5v12.8c-.2 12.4-.2 12.9-.6 13.2-.3.2-1.3.3-4.3.3h-3.8V71h.8a5 5 0 0 0 4-2.5c.3-.6.4-1.7.5-8.8 0-5.4 0-8.6-.2-9.6-.7-4-3.7-7.5-7.6-8.7-1.2-.3-2-.4-3.8-.3-2 0-2.4.1-4 .8-3 1.5-5.1 4-6 7.1-.3 1.3-.3 2.7-.3 9.8 0 8.8 0 9.2 1 10.6.6.8 2.4 1.6 3.5 1.6h.8V75.7h-4c-3.7 0-4 0-4.4-.5-.4-.4-.4-1-.5-13.4L387 49l-.6-1c-.7-1.6-2.1-3-3.7-3.7-1-.5-1.6-.6-4-.7-2.7 0-2.9 0-3.2-.6a5.5 5.5 0 0 0-6.7-1.3Z" fill="url(#paint8_linear)"/>
    <path class="c5" d="M104.8 205.6c-2.4 1.2-3.5 3.9-2.7 6.6.4 1.3 2.2 3 3.4 3.5 2 .6 4.2 0 5.5-1.3l.9-1h2.2c2 0 2.3.1 2.7.5.4.5.4 1.1.5 13.4l.2 13 .5 1c.7 1.4 2 2.8 3.3 3.5l.8.4h-4.4c-3.4 0-4.6 0-4.7-.3-.2-.1-.3-2.6-.3-6.7l-.1-6.4-.7-1.2c-.8-1.5-2-2.6-3.6-3.1-1-.4-1.7-.5-8.2-.5h-7l-.6-.7a5.5 5.5 0 1 0-6.2 8.7c2 .9 4 .5 6-1.1l1.1-1.1h6.3c5.3 0 6.3 0 6.7.3.5.4.5.4.5 6.5 0 5.6 0 6.2.5 7.3.5 1.5 1.9 2.9 3.4 3.7 1.1.5 1.3.5 7.5.6l6.5.1v1.3c0 2.2.5 2-9.6 2.2-8.6 0-8.8.1-10 .6a9 9 0 0 0-3.6 3.5c-.6 1.1-.9 2.9-.9 5 0 1.5 0 1.6-.6 2.1-.4.3-1 1.1-1.3 1.8a4 4 0 0 0-.5 2.6c.4 5 6.3 7 9.5 3.3 1-1.1 1.3-2 1.3-3.6 0-1.7-.3-2.6-1.5-3.8-.9-1-.9-1-.9-2.8 0-3-.6-2.8 8.1-2.7l9-.2a7.2 7.2 0 0 0 5.8-3.6l.6-1v11c0 10.2 0 11-.4 11.9a4 4 0 0 1-7.2.4c-.5-.8-.6-1.2-.6-2.7 0-1.8 0-1.9.7-2.5.4-.3 1-1 1.2-1.7 2-4-1.7-8.6-6-7.7a5.6 5.6 0 0 0-2.6 9.5c.7.6.7.8.7 2.1 0 4.6 2.2 8.3 6 10 1.2.7 1.8.8 3.6.9 1.6 0 2.4 0 3.3-.3a9.8 9.8 0 0 0 5.6-4.3c1.5-2.5 1.5-2.2 1.5-17.2v-13.5h3.1v13c0 7.6 0 13.4.2 14.1.6 3.1 2.8 6 5.7 7.4 1.4.7 1.6.7 4.2.7 2.4 0 2.7 0 3.8-.6a10 10 0 0 0 6-9.6v-2l1-1c1.5-1.4 2-3.4 1.4-5.4a5.2 5.2 0 0 0-2.6-3.2c-1-.5-1.5-.6-2.7-.6-4.9 0-7.2 6-3.6 9.4.7.7.8.8.8 2.3 0 1.8-.5 3-1.6 4a4 4 0 0 1-6-1l-.6-1v-22.1l.7 1 1.8 2c2 1.3 2.1 1.3 11.2 1.4 4.6 0 8.5.1 8.8.2.6.1 1 1 1 2.8 0 1.6 0 1.7-.8 2.4a5 5 0 0 0-1.8 4c0 3.2 2.3 5.4 5.4 5.4 3.2 0 5.4-2.3 5.4-5.4 0-1.7-.3-2.6-1.6-3.9l-.8-.9-.1-2.5c-.1-2-.2-2.8-.6-3.6a8 8 0 0 0-3.6-3.7l-1.2-.6H160l-8.8-.1-.5-.6c-.3-.4-.4-1-.4-1.8v-1.2h6.4c6 0 6.4-.1 7.4-.6a7.5 7.5 0 0 0 3.4-3.3l.6-1v-6.5c.2-5.7.2-6.5.5-6.7.3-.2 2-.3 6.9-.3h6.5l.4.7c.7 1 2.3 1.7 3.6 1.9 3.3.3 6-2.1 6-5.4 0-1.7-.6-3-1.8-4.1a5.3 5.3 0 0 0-7.3.1l-1 1h-7.4l-7.3.1-1.1.6c-.6.4-1.5 1.1-2 1.7-1.6 1.7-1.7 2.2-1.8 9.2 0 3.3-.1 6.2-.2 6.3 0 .3-1.2.3-4.7.3H153l1-.4a8.8 8.8 0 0 0 3.3-3.6l.6-1.2.1-13c.1-12.4.1-12.9.5-13.2.4-.2 1.1-.3 2.7-.3 2 0 2.2 0 2.6.5.8 1 2.3 1.7 3.8 1.8 2.6.3 4.9-1.3 5.6-3.7.4-1.4.4-1.8 0-3.3a5.2 5.2 0 0 0-5.2-3.8 5 5 0 0 0-4 1.7l-.6.8h-2.4c-4.3 0-6.6 1.2-8.1 4.4l-.8 1.5v12.8c-.2 12.4-.2 12.9-.6 13.2-.3.2-1.3.3-4.3.3h-3.8V235h.8a5 5 0 0 0 4-2.5c.3-.6.4-1.8.5-8.8 0-5.4 0-8.6-.2-9.6-.7-4-3.7-7.5-7.6-8.7-1.2-.3-2-.4-3.8-.3-2 0-2.4.1-4 .8-3 1.5-5.1 4-6 7.1-.3 1.3-.3 2.7-.3 9.8 0 8.8 0 9.2 1 10.6.6.8 2.4 1.6 3.5 1.6h.8V239.7h-4c-3.7 0-4 0-4.4-.5-.4-.4-.4-1-.5-13.4L123 213l-.6-1c-.7-1.6-2.1-3-3.7-3.7-1-.5-1.6-.6-4-.7-2.7 0-2.9 0-3.2-.6a5.5 5.5 0 0 0-6.7-1.3Z" fill="url(#paint9_linear)" fill-opacity=".2"/>
    <path class="b5" d="M104.8 123.6c-2.4 1.2-3.5 3.9-2.7 6.6.4 1.3 2.2 3.1 3.4 3.5 2 .6 4.2 0 5.5-1.3l.9-1h2.2c2 0 2.3.1 2.7.5.4.5.4 1.1.5 13.4l.2 13 .5 1c.7 1.4 2 2.8 3.3 3.5l.8.4h-4.4c-3.4 0-4.6 0-4.7-.3-.2-.1-.3-2.6-.3-6.7l-.1-6.4-.7-1.2c-.8-1.5-2-2.6-3.6-3.1-1-.4-1.7-.5-8.2-.5h-7l-.6-.7a5.5 5.5 0 1 0-6.2 8.7c2 .9 4 .5 6-1.1l1.1-1.1h6.3c5.3 0 6.3 0 6.7.3.5.4.5.4.5 6.5 0 5.6 0 6.2.5 7.3.5 1.5 1.9 2.9 3.4 3.7 1.1.5 1.3.5 7.5.6l6.5.1v1.3c0 2.2.5 2-9.6 2.2-8.6 0-8.8.1-10 .6a9 9 0 0 0-3.6 3.5c-.6 1.1-.9 2.9-.9 5 0 1.5 0 1.6-.6 2.1-.4.3-1 1.1-1.3 1.8a4 4 0 0 0-.5 2.6c.4 5 6.3 7 9.5 3.3 1-1.1 1.3-2 1.3-3.6 0-1.7-.3-2.6-1.5-3.8-.9-1-.9-1-.9-2.8 0-3-.6-2.8 8.1-2.7l9-.2a7.2 7.2 0 0 0 5.8-3.6l.6-1v11c0 10.2 0 11-.4 11.9a4 4 0 0 1-7.2.4c-.5-.8-.6-1.2-.6-2.7 0-1.8 0-1.9.7-2.5.4-.3 1-1 1.2-1.7 2-4-1.7-8.6-6-7.7a5.6 5.6 0 0 0-2.6 9.5c.7.6.7.8.7 2.1 0 4.6 2.2 8.3 6 10 1.2.7 1.8.8 3.6.9 1.6 0 2.4 0 3.3-.3a9.8 9.8 0 0 0 5.6-4.3c1.5-2.5 1.5-2.2 1.5-17.2v-13.5h3.1v13c0 7.6 0 13.4.2 14.1.6 3.1 2.8 6 5.7 7.4 1.4.7 1.6.7 4.2.7 2.4 0 2.7 0 3.8-.6a10 10 0 0 0 6-9.6v-2l1-1c1.5-1.4 2-3.4 1.4-5.4a5.2 5.2 0 0 0-2.6-3.2c-1-.5-1.5-.6-2.7-.6-4.9 0-7.2 6-3.6 9.4.7.7.8.8.8 2.3 0 1.8-.5 3-1.6 4a4 4 0 0 1-6-1l-.6-1v-22.1l.7 1 1.8 2c2 1.3 2.1 1.3 11.2 1.4 4.6 0 8.5.1 8.8.2.6.1 1 1 1 2.8 0 1.6 0 1.7-.8 2.4a5 5 0 0 0-1.8 4c0 3.2 2.3 5.4 5.4 5.4 3.2 0 5.4-2.3 5.4-5.4 0-1.7-.3-2.6-1.6-3.9l-.8-.9-.1-2.5c-.1-2-.2-2.8-.6-3.6a8 8 0 0 0-3.6-3.7l-1.2-.6H160l-8.8-.1-.5-.6c-.3-.4-.4-1-.4-1.8v-1.2h6.4c6 0 6.4-.1 7.4-.6a7.5 7.5 0 0 0 3.4-3.3l.6-1v-6.5c.2-5.7.2-6.5.5-6.7.3-.2 2-.3 6.9-.3h6.5l.4.7c.7 1 2.3 1.7 3.6 1.9 3.3.3 6-2.1 6-5.4 0-1.7-.6-3-1.8-4.1a5.3 5.3 0 0 0-7.3.1l-1 1h-7.4l-7.3.1-1.1.6c-.6.4-1.5 1.1-2 1.7-1.6 1.7-1.7 2.2-1.8 9.2 0 3.3-.1 6.2-.2 6.3 0 .3-1.2.3-4.7.3H153l1-.4a8.8 8.8 0 0 0 3.3-3.6l.6-1.2.1-13c.1-12.4.1-12.9.5-13.2.4-.2 1.1-.3 2.7-.3 2 0 2.2 0 2.6.5.8 1 2.3 1.7 3.8 1.9 2.6.2 4.9-1.4 5.6-3.8.4-1.4.4-1.8 0-3.3a5.2 5.2 0 0 0-5.2-3.8 5 5 0 0 0-4 1.7l-.6.8h-2.4c-4.3 0-6.6 1.2-8.1 4.4l-.8 1.5v12.8c-.2 12.4-.2 12.9-.6 13.2-.3.2-1.3.3-4.3.3h-3.8V153h.8a5 5 0 0 0 4-2.5c.3-.6.4-1.7.5-8.8 0-5.4 0-8.6-.2-9.6-.7-4-3.7-7.5-7.6-8.7-1.2-.3-2-.4-3.8-.3-2 0-2.4.1-4 .8-3 1.5-5.1 4-6 7.1-.3 1.3-.3 2.7-.3 9.8 0 8.8 0 9.2 1 10.6.6.8 2.4 1.6 3.5 1.6h.8V157.7h-4c-3.7 0-4 0-4.4-.5-.4-.4-.4-1-.5-13.4L123 131l-.6-1c-.7-1.6-2.1-3-3.7-3.7-1-.5-1.6-.6-4-.7-2.7 0-2.9 0-3.2-.6a5.5 5.5 0 0 0-6.7-1.3Z" fill="url(#paint10_linear)" fill-opacity=".5"/>
    <path class="a5" d="M104.8 41.6c-2.4 1.2-3.5 3.9-2.7 6.6.4 1.3 2.2 3.1 3.4 3.5 2 .6 4.2 0 5.5-1.3l.9-1h2.2c2 0 2.3.1 2.7.5.4.5.4 1.1.5 13.4l.2 13 .5 1c.7 1.4 2 2.8 3.3 3.5l.8.4h-4.4c-3.4 0-4.6 0-4.7-.3-.2-.1-.3-2.6-.3-6.7l-.1-6.4-.7-1.2c-.8-1.5-2-2.6-3.6-3.1-1-.4-1.7-.5-8.2-.5h-7l-.6-.7a5.5 5.5 0 1 0-6.2 8.7c2 .9 4 .5 6-1.1l1.1-1.1h6.3c5.3 0 6.3 0 6.7.3.5.4.5.4.5 6.5 0 5.6 0 6.2.5 7.3.5 1.5 1.9 2.9 3.4 3.7 1.1.5 1.3.5 7.5.6l6.5.1v1.3c0 2.2.5 2-9.6 2.2-8.6 0-8.8.1-10 .6a9 9 0 0 0-3.6 3.5c-.6 1.1-.9 2.9-.9 5 0 1.5 0 1.6-.6 2.1-.4.3-1 1.1-1.3 1.8a4 4 0 0 0-.5 2.6c.4 5 6.3 7 9.5 3.3 1-1.1 1.3-2 1.3-3.6 0-1.7-.3-2.6-1.5-3.8-.9-1-.9-1-.9-2.8 0-3-.6-2.8 8.1-2.7l9-.2a7.2 7.2 0 0 0 5.8-3.6l.6-1v11c0 10.2 0 11-.4 11.9a4 4 0 0 1-7.2.4c-.5-.8-.6-1.2-.6-2.7 0-1.8 0-1.9.7-2.5.4-.3 1-1 1.2-1.7 2-4-1.7-8.6-6-7.7a5.6 5.6 0 0 0-2.6 9.5c.7.6.7.8.7 2.1 0 4.6 2.2 8.3 6 10 1.2.7 1.8.8 3.6.9 1.6 0 2.4 0 3.3-.3a9.8 9.8 0 0 0 5.6-4.3c1.5-2.5 1.5-2.2 1.5-17.2V87.9h3.1v13c0 7.6 0 13.4.2 14.1.6 3.1 2.8 6 5.7 7.4 1.4.7 1.6.7 4.2.7 2.4 0 2.7 0 3.8-.6a10 10 0 0 0 6-9.6v-2l1-1c1.5-1.4 2-3.4 1.4-5.4a5.2 5.2 0 0 0-2.6-3.2c-1-.5-1.5-.6-2.7-.6-4.9 0-7.2 6-3.6 9.4.7.7.8.8.8 2.3 0 1.8-.5 3-1.6 4a4 4 0 0 1-6-1l-.6-1V92.3l.7 1 1.8 2c2 1.3 2.1 1.3 11.2 1.4 4.6 0 8.5.1 8.8.2.6.1 1 1 1 2.8 0 1.6 0 1.7-.8 2.4a5 5 0 0 0-1.8 4c0 3.2 2.3 5.4 5.4 5.4 3.2 0 5.4-2.3 5.4-5.4 0-1.7-.3-2.6-1.6-3.9l-.8-.9-.1-2.5c-.1-2-.2-2.8-.6-3.6a8 8 0 0 0-3.6-3.7L169 91H160l-8.8-.1-.5-.6c-.3-.4-.4-1-.4-1.8v-1.2h6.4c6 0 6.4-.1 7.4-.6a7.5 7.5 0 0 0 3.4-3.3l.6-1v-6.5c.2-5.7.2-6.5.5-6.7.3-.2 2-.3 6.9-.3h6.5l.4.7c.7 1 2.3 1.7 3.6 1.9 3.3.3 6-2.1 6-5.4 0-1.7-.6-3-1.8-4.1a5.3 5.3 0 0 0-7.3.1l-1 1h-7.4l-7.3.1-1.1.6c-.6.4-1.5 1.1-2 1.7-1.6 1.7-1.7 2.2-1.8 9.2 0 3.3-.1 6.2-.2 6.3 0 .3-1.2.3-4.7.3H153l1-.4a8.8 8.8 0 0 0 3.3-3.6l.6-1.2.1-13c.1-12.4.1-12.9.5-13.2.4-.2 1.1-.3 2.7-.3 2 0 2.2 0 2.6.5.8 1 2.3 1.7 3.8 1.9 2.6.2 4.9-1.4 5.6-3.8.4-1.4.4-1.8 0-3.3a5.2 5.2 0 0 0-5.2-3.8 5 5 0 0 0-4 1.7l-.6.8h-2.4c-4.3 0-6.6 1.2-8.1 4.4l-.8 1.5v12.8c-.2 12.4-.2 12.9-.6 13.2-.3.2-1.3.3-4.3.3h-3.8V71h.8a5 5 0 0 0 4-2.5c.3-.6.4-1.7.5-8.8 0-5.4 0-8.6-.2-9.6-.7-4-3.7-7.5-7.6-8.7-1.2-.3-2-.4-3.8-.3-2 0-2.4.1-4 .8-3 1.5-5.1 4-6 7.1-.3 1.3-.3 2.7-.3 9.8 0 8.8 0 9.2 1 10.6.6.8 2.4 1.6 3.5 1.6h.8V75.7h-4c-3.7 0-4 0-4.4-.5-.4-.4-.4-1-.5-13.4L123 49l-.6-1c-.7-1.6-2.1-3-3.7-3.7-1-.5-1.6-.6-4-.7-2.7 0-2.9 0-3.2-.6a5.5 5.5 0 0 0-6.7-1.3Z" fill="url(#paint11_linear)"/>
    <path class="c1" d="M451.8 246.6c-2.4 1.2-3.5 3.9-2.7 6.6.4 1.3 2.2 3.1 3.4 3.4 2 .6 4.2.2 5.5-1.2l.9-1h2.2c2 0 2.3.1 2.7.5.4.5.4 1.1.5 13.4l.2 13 .5 1c.7 1.4 2 2.8 3.3 3.5l.8.4h-4.4c-3.4 0-4.6 0-4.7-.3-.2-.1-.3-2.6-.4-6.7v-6.4l-.7-1.2c-.8-1.5-2-2.6-3.6-3.1-1-.4-1.7-.5-8.2-.5h-7l-.6-.7a5.5 5.5 0 1 0-6.2 8.7c2 .9 4 .5 6-1.1l1.1-1.1h6.3c5.3 0 6.3 0 6.7.3.5.4.5.4.5 6.5 0 5.6 0 6.2.5 7.3.6 1.5 1.9 2.9 3.4 3.7 1.1.5 1.3.5 7.5.6l6.5.1v1.3c0 2.2.5 2-9.6 2.2-8.6 0-8.8.1-10 .6a9 9 0 0 0-3.6 3.5c-.6 1.1-.9 2.9-.9 5 0 1.5 0 1.6-.6 2.1-.4.3-1 1.1-1.3 1.8a4 4 0 0 0-.5 2.6c.4 5 6.3 7 9.5 3.3 1-1.1 1.3-2 1.3-3.6 0-1.7-.3-2.6-1.5-3.8-.9-1-.9-1-.9-2.8 0-3-.6-2.8 8.1-2.7l9-.2a7.2 7.2 0 0 0 5.8-3.6l.6-1v11c0 10.2 0 11-.4 11.9a4 4 0 0 1-7.2.4c-.5-.8-.6-1.2-.6-2.7 0-1.8 0-1.9.7-2.5.4-.3 1-1 1.2-1.7 2-4-1.7-8.6-6-7.7a5.6 5.6 0 0 0-2.6 9.5c.7.6.7.8.7 2.1 0 4.6 2.2 8.3 6 10 1.2.7 1.8.8 3.6.9 1.6 0 2.4 0 3.3-.3a9.8 9.8 0 0 0 5.6-4.3c1.5-2.5 1.5-2.2 1.5-17.2v-13.5h3.1v13c0 7.6 0 13.4.2 14.1.6 3.1 2.8 6 5.7 7.4 1.4.7 1.6.7 4.2.7 2.4 0 2.7 0 3.8-.6a10 10 0 0 0 6-9.6v-2l1-1c1.5-1.4 2-3.4 1.4-5.4a5.2 5.2 0 0 0-2.6-3.2c-1-.5-1.5-.6-2.7-.6-4.9 0-7.2 6-3.6 9.4.7.7.8.8.8 2.3 0 1.8-.5 3-1.6 4a4 4 0 0 1-6-1l-.6-1v-22.1l.7 1 1.8 2c2 1.3 2.1 1.3 11.2 1.4 4.6 0 8.5.1 8.8.2.6.1 1 1 1 2.8 0 1.6 0 1.7-.8 2.4a5 5 0 0 0-1.8 4c0 3.2 2.3 5.4 5.4 5.4 3.2 0 5.4-2.3 5.4-5.4 0-1.7-.3-2.6-1.6-3.9l-.8-.9-.1-2.5c-.1-2-.2-2.8-.6-3.6a8 8 0 0 0-3.6-3.7l-1.2-.6H507l-8.8-.1-.5-.6c-.3-.4-.4-1-.4-1.8v-1.2h6.4c6 0 6.4-.1 7.4-.6a7.5 7.5 0 0 0 3.4-3.3l.6-1v-6.5c.2-5.7.2-6.5.5-6.7.3-.2 2-.3 6.9-.3h6.5l.4.7c.7 1 2.3 1.7 3.6 1.9 3.3.3 6-2.1 6-5.4 0-1.7-.6-3-1.8-4.1a5.3 5.3 0 0 0-7.3.1l-1 1h-7.4l-7.3.1-1.1.6c-.6.4-1.5 1.1-2 1.7-1.6 1.7-1.7 2.2-1.8 9.2 0 3.3-.1 6.2-.2 6.3 0 .3-1.2.3-4.7.3H500l1-.4a8.8 8.8 0 0 0 3.3-3.6l.6-1.2.1-13c.1-12.4.1-12.9.5-13.2.4-.2 1.1-.3 2.7-.3 2 0 2.2 0 2.6.5.8 1 2.3 1.7 3.8 1.9 2.6.2 4.9-1.4 5.6-3.8.4-1.4.4-1.8 0-3.3a5.2 5.2 0 0 0-5.2-3.8 5 5 0 0 0-4 1.7l-.6.8h-2.4c-4.3 0-6.6 1.2-8.1 4.4l-.8 1.5v12.8c-.2 12.4-.2 12.9-.6 13.2-.3.2-1.3.3-4.3.3h-3.8V276h.8a5 5 0 0 0 4-2.5c.3-.6.4-1.8.5-8.8 0-5.4 0-8.6-.2-9.6-.7-4-3.7-7.5-7.6-8.7-1.2-.3-2-.4-3.8-.3-2 0-2.4.1-4 .8-3 1.5-5.1 4-6 7.1-.3 1.3-.3 2.7-.3 9.8 0 8.8 0 9.2 1 10.6.6.8 2.4 1.6 3.5 1.6h.8V280.7h-4c-3.7 0-4 0-4.4-.5-.4-.4-.4-1-.5-13.4L470 254l-.6-1c-.7-1.6-2.1-3-3.7-3.7-1-.5-1.6-.6-4-.7-2.7 0-2.9 0-3.2-.6a5.5 5.5 0 0 0-6.7-1.3Z" fill="url(#paint12_linear)" fill-opacity=".2"/>
    <path class="b1" d="M451.8 164.6c-2.4 1.2-3.5 3.9-2.7 6.6.4 1.3 2.2 3.1 3.4 3.5 2 .6 4.2 0 5.5-1.3l.9-1h2.2c2 0 2.3.1 2.7.5.4.5.4 1.1.5 13.4l.2 13 .5 1c.7 1.4 2 2.8 3.3 3.5l.8.4h-4.4c-3.4 0-4.6 0-4.7-.3-.2-.1-.3-2.6-.4-6.7v-6.4l-.7-1.2c-.8-1.5-2-2.6-3.6-3.1-1-.4-1.7-.5-8.2-.5h-7l-.6-.7a5.5 5.5 0 1 0-6.2 8.7c2 .9 4 .5 6-1.1l1.1-1.1h6.3c5.3 0 6.3 0 6.7.3.5.4.5.4.5 6.5 0 5.6 0 6.2.5 7.3.6 1.5 1.9 2.9 3.4 3.7 1.1.5 1.3.5 7.5.6l6.5.1v1.3c0 2.2.5 2-9.6 2.2-8.6 0-8.8.1-10 .6a9 9 0 0 0-3.6 3.5c-.6 1.1-.9 2.9-.9 5 0 1.5 0 1.6-.6 2.1-.4.3-1 1.1-1.3 1.8a4 4 0 0 0-.5 2.6c.4 5 6.3 7 9.5 3.3 1-1.1 1.3-2 1.3-3.6 0-1.7-.3-2.6-1.5-3.8-.9-1-.9-1-.9-2.8 0-3-.6-2.8 8.1-2.7l9-.2a7.2 7.2 0 0 0 5.8-3.6l.6-1v11c0 10.2 0 11-.4 11.9a4 4 0 0 1-7.2.4c-.5-.8-.6-1.2-.6-2.7 0-1.8 0-1.9.7-2.5.4-.3 1-1 1.2-1.7 2-4-1.7-8.6-6-7.7a5.6 5.6 0 0 0-2.6 9.5c.7.6.7.8.7 2.1 0 4.6 2.2 8.3 6 10 1.2.7 1.8.8 3.6.9 1.6 0 2.4 0 3.3-.3a9.8 9.8 0 0 0 5.6-4.3c1.5-2.5 1.5-2.2 1.5-17.2v-13.5h3.1v13c0 7.6 0 13.4.2 14.1.6 3.1 2.8 6 5.7 7.4 1.4.7 1.6.7 4.2.7 2.4 0 2.7 0 3.8-.6a10 10 0 0 0 6-9.6v-2l1-1c1.5-1.4 2-3.4 1.4-5.4a5.2 5.2 0 0 0-2.6-3.2c-1-.5-1.5-.6-2.7-.6-4.9 0-7.2 6-3.6 9.4.7.7.8.8.8 2.3 0 1.8-.5 3-1.6 4a4 4 0 0 1-6-1l-.6-1v-22.1l.7 1 1.8 2c2 1.3 2.1 1.3 11.2 1.4 4.6 0 8.5.1 8.8.2.6.1 1 1 1 2.8 0 1.6 0 1.7-.8 2.4a5 5 0 0 0-1.8 4c0 3.2 2.3 5.4 5.4 5.4 3.2 0 5.4-2.3 5.4-5.4 0-1.7-.3-2.6-1.6-3.9l-.8-.9-.1-2.5c-.1-2-.2-2.8-.6-3.6a8 8 0 0 0-3.6-3.7l-1.2-.6H507l-8.8-.1-.5-.6c-.3-.4-.4-1-.4-1.8v-1.2h6.4c6 0 6.4-.1 7.4-.6a7.5 7.5 0 0 0 3.4-3.3l.6-1v-6.5c.2-5.7.2-6.5.5-6.7.3-.2 2-.3 6.9-.3h6.5l.4.7c.7 1 2.3 1.7 3.6 1.9 3.3.3 6-2.1 6-5.4 0-1.7-.6-3-1.8-4.1a5.3 5.3 0 0 0-7.3.1l-1 1h-7.4l-7.3.1-1.1.6c-.6.4-1.5 1.1-2 1.7-1.6 1.7-1.7 2.2-1.8 9.2 0 3.3-.1 6.2-.2 6.3 0 .3-1.2.3-4.7.3H500l1-.4a8.8 8.8 0 0 0 3.3-3.6l.6-1.2.1-13c.1-12.4.1-12.9.5-13.2.4-.2 1.1-.3 2.7-.3 2 0 2.2 0 2.6.5.8 1 2.3 1.7 3.8 1.9 2.6.2 4.9-1.4 5.6-3.8.4-1.4.4-1.8 0-3.3a5.2 5.2 0 0 0-5.2-3.8 5 5 0 0 0-4 1.7l-.6.8h-2.4c-4.3 0-6.6 1.2-8.1 4.4l-.8 1.5v12.8c-.2 12.4-.2 12.9-.6 13.2-.3.2-1.3.3-4.3.3h-3.8V194h.8a5 5 0 0 0 4-2.5c.3-.6.4-1.7.5-8.8 0-5.4 0-8.6-.2-9.6-.7-4-3.7-7.5-7.6-8.7-1.2-.3-2-.4-3.8-.3-2 0-2.4.1-4 .8-3 1.5-5.1 4-6 7.1-.3 1.3-.3 2.7-.3 9.8 0 8.8 0 9.2 1 10.6.6.8 2.4 1.6 3.5 1.6h.8V198.7h-4c-3.7 0-4 0-4.4-.5-.4-.4-.4-1-.5-13.4L470 172l-.6-1c-.7-1.6-2.1-3-3.7-3.7-1-.5-1.6-.6-4-.7-2.7 0-2.9 0-3.2-.6a5.5 5.5 0 0 0-6.7-1.3Z" fill="url(#paint13_linear)" fill-opacity=".5"/>
    <path class="a1" d="M451.8 82.6c-2.4 1.2-3.5 3.9-2.7 6.6.4 1.3 2.2 3.1 3.4 3.5 2 .6 4.2 0 5.5-1.3l.9-1h2.2c2 0 2.3.1 2.7.5.4.5.4 1.1.5 13.4l.2 13 .5 1c.7 1.4 2 2.8 3.3 3.5l.8.4h-4.4c-3.4 0-4.6 0-4.7-.3-.2-.1-.3-2.6-.4-6.7v-6.4l-.7-1.2c-.8-1.5-2-2.6-3.6-3.1-1-.4-1.7-.5-8.2-.5h-7l-.6-.7a5.5 5.5 0 1 0-6.2 8.7c2 .9 4 .5 6-1.1l1.1-1.1h6.3c5.3 0 6.3 0 6.7.4.5.3.5.3.5 6.4 0 5.6 0 6.2.5 7.3.6 1.5 1.9 2.9 3.4 3.7 1.1.5 1.3.5 7.5.6l6.5.1v1.3c0 2.2.5 2-9.6 2.2-8.6 0-8.8.1-10 .6a9 9 0 0 0-3.6 3.5c-.6 1.1-.9 2.9-.9 5 0 1.5 0 1.6-.6 2.1-.4.3-1 1.1-1.3 1.8a4 4 0 0 0-.5 2.6c.4 5 6.3 7 9.5 3.3 1-1.1 1.3-2 1.3-3.6 0-1.7-.3-2.6-1.5-3.8-.9-1-.9-1-.9-2.8 0-3-.6-2.8 8.1-2.7l9-.2a7.2 7.2 0 0 0 5.8-3.6l.6-1v11c0 10.2 0 11-.4 11.9a4 4 0 0 1-7.2.4c-.5-.8-.6-1.2-.6-2.7 0-1.8 0-1.9.7-2.5.4-.3 1-1 1.2-1.7 2-4-1.7-8.6-6-7.7a5.6 5.6 0 0 0-2.6 9.5c.7.6.7.8.7 2.1 0 4.6 2.2 8.3 6 10 1.2.7 1.8.8 3.6.9 1.6 0 2.4 0 3.3-.3a9.8 9.8 0 0 0 5.6-4.3c1.5-2.5 1.5-2.2 1.5-17.2v-13.5h3.1v13c0 7.6 0 13.4.2 14.1.6 3.1 2.8 6 5.7 7.4 1.4.7 1.6.7 4.2.7 2.4 0 2.7 0 3.8-.6a10 10 0 0 0 6-9.6v-2l1-1c1.5-1.4 2-3.4 1.4-5.4a5.2 5.2 0 0 0-2.6-3.2c-1-.5-1.5-.6-2.7-.6-4.9 0-7.2 6-3.6 9.4.7.7.8.8.8 2.3 0 1.8-.5 3-1.6 4a4 4 0 0 1-6-1l-.6-1v-22.1l.7 1 1.8 2c2 1.3 2.1 1.3 11.2 1.4 4.6 0 8.5.1 8.8.2.6.1 1 1 1 2.8 0 1.6 0 1.7-.8 2.4a5 5 0 0 0-1.8 4c0 3.2 2.3 5.4 5.4 5.4 3.2 0 5.4-2.3 5.4-5.4 0-1.7-.3-2.6-1.6-3.9l-.8-.9-.1-2.5c-.1-2-.2-2.8-.6-3.6a8 8 0 0 0-3.6-3.7l-1.2-.6H507l-8.8-.1-.5-.6c-.3-.4-.4-1-.4-1.8v-1.2h6.4c6 0 6.4-.1 7.4-.6a7.5 7.5 0 0 0 3.4-3.3l.6-1v-6.5c.2-5.7.2-6.5.5-6.7.3-.2 2-.3 6.9-.3h6.5l.4.7c.7 1 2.3 1.7 3.6 1.9 3.3.3 6-2.1 6-5.4 0-1.7-.6-3-1.8-4.1a5.3 5.3 0 0 0-7.3.1l-1 1h-7.4l-7.3.1-1.1.6c-.6.4-1.5 1.1-2 1.7-1.6 1.7-1.7 2.2-1.8 9.2 0 3.3-.1 6.2-.2 6.3 0 .3-1.2.3-4.7.3H500l1-.4a8.8 8.8 0 0 0 3.3-3.6l.6-1.2.1-13c.1-12.4.1-12.9.5-13.2.4-.2 1.1-.3 2.7-.3 2 0 2.2 0 2.6.5.8 1 2.3 1.7 3.8 1.9 2.6.2 4.9-1.4 5.6-3.8.4-1.4.4-1.8 0-3.3a5.2 5.2 0 0 0-5.2-3.8 5 5 0 0 0-4 1.7l-.6.8h-2.4c-4.3 0-6.6 1.2-8.1 4.4l-.8 1.5v12.8c-.2 12.4-.2 12.9-.6 13.2-.3.2-1.3.3-4.3.3h-3.8V112h.8a5 5 0 0 0 4-2.5c.3-.6.4-1.7.5-8.8 0-5.4 0-8.6-.2-9.6-.7-4-3.7-7.5-7.6-8.7-1.2-.3-2-.4-3.8-.3-2 0-2.4.1-4 .8-3 1.5-5.1 4-6 7.1-.3 1.3-.3 2.7-.3 9.8 0 8.8 0 9.2 1 10.6.6.8 2.4 1.6 3.5 1.6h.8V116.7h-4c-3.7 0-4 0-4.4-.5-.4-.4-.4-1-.5-13.4L470 90l-.6-1c-.7-1.6-2.1-3-3.7-3.7-1-.5-1.6-.6-4-.7-2.7 0-2.9 0-3.2-.6a5.5 5.5 0 0 0-6.7-1.3Z" fill="url(#paint14_linear)"/>
    <path class="c6" d="M21.8 246.6c-2.4 1.2-3.5 3.9-2.7 6.6.4 1.3 2.2 3.1 3.4 3.4 2 .6 4.2.2 5.5-1.2l.9-1h2.2c2 0 2.3.1 2.7.5.4.5.4 1.1.5 13.4l.2 13 .5 1c.7 1.4 2 2.8 3.3 3.5l.8.4h-4.4c-3.4 0-4.6 0-4.7-.3-.2-.1-.3-2.6-.4-6.7v-6.4l-.7-1.2c-.8-1.5-2-2.6-3.6-3.1-1-.4-1.7-.5-8.2-.5h-7l-.6-.7a5.5 5.5 0 1 0-6.2 8.7c2 .9 4 .5 6-1.1l1.1-1.1h6.3c5.3 0 6.3 0 6.7.3.5.4.5.4.5 6.5 0 5.6 0 6.2.5 7.3.6 1.5 1.9 2.9 3.4 3.7 1.1.5 1.3.5 7.5.6l6.5.1v1.3c0 2.2.5 2-9.6 2.2-8.6 0-8.8.1-10 .6a9 9 0 0 0-3.6 3.5c-.6 1.1-.9 2.9-.9 5 0 1.5 0 1.6-.6 2.1-.4.3-1 1.1-1.3 1.8a4 4 0 0 0-.5 2.6c.4 5 6.3 7 9.5 3.3 1-1.1 1.3-2 1.3-3.6 0-1.7-.3-2.6-1.5-3.8-.9-1-.9-1-.9-2.8 0-3-.6-2.8 8.1-2.7l9-.2a7.2 7.2 0 0 0 5.8-3.6l.6-1v11c0 10.2 0 11-.4 11.9a4 4 0 0 1-7.2.4c-.5-.8-.6-1.2-.6-2.7 0-1.8 0-1.9.7-2.5.4-.3 1-1 1.2-1.7 2-4-1.7-8.6-6-7.7a5.6 5.6 0 0 0-2.6 9.5c.7.6.7.8.7 2.1 0 4.6 2.2 8.3 6 10 1.2.7 1.8.8 3.6.9 1.6 0 2.4 0 3.3-.3a9.8 9.8 0 0 0 5.6-4.3c1.5-2.5 1.5-2.2 1.5-17.2v-13.5H56v13c0 7.6 0 13.4.2 14.1.6 3.1 2.8 6 5.7 7.4 1.4.7 1.6.7 4.2.7 2.4 0 2.7 0 3.8-.6a10 10 0 0 0 6-9.6v-2l1-1c1.5-1.4 2-3.4 1.4-5.4a5.2 5.2 0 0 0-2.6-3.2c-1-.5-1.5-.6-2.7-.6-4.9 0-7.2 6-3.6 9.4.7.7.8.8.8 2.3 0 1.8-.5 3-1.5 4a4 4 0 0 1-6.2-1l-.5-1v-22.1l.7 1 1.8 2c2 1.3 2.1 1.3 11.2 1.4 4.6 0 8.5.1 8.8.2.6.1 1 1 1 2.8 0 1.6 0 1.7-.8 2.4a5 5 0 0 0-1.8 4c0 3.2 2.3 5.4 5.4 5.4 3.2 0 5.4-2.3 5.4-5.4 0-1.7-.3-2.6-1.6-3.9l-.8-.9-.1-2.5c-.1-2-.2-2.8-.6-3.6a8 8 0 0 0-3.6-3.7L86 296H77l-8.8-.1-.5-.6c-.3-.4-.4-1-.4-1.8v-1.2h6.4c6 0 6.4-.1 7.4-.6a7.5 7.5 0 0 0 3.4-3.3l.6-1v-6.5c.2-5.7.2-6.5.5-6.7.3-.2 2-.3 6.9-.3H99l.4.7c.7 1 2.3 1.7 3.6 1.9 3.3.3 6-2.1 6-5.4 0-1.7-.6-3-1.8-4.1a5.3 5.3 0 0 0-7.3.1l-1 1h-7.4l-7.3.1-1.1.6c-.6.4-1.5 1.1-2 1.7-1.6 1.7-1.7 2.2-1.8 9.2 0 3.3-.1 6.2-.2 6.3 0 .3-1.2.3-4.7.3H70l1-.4a8.8 8.8 0 0 0 3.3-3.6l.6-1.2.1-13c.1-12.4.1-12.9.5-13.2.4-.2 1.1-.3 2.7-.3 2 0 2.2 0 2.6.5.8 1 2.3 1.7 3.8 1.9 2.6.2 4.9-1.4 5.6-3.8.4-1.4.4-1.8 0-3.3a5.2 5.2 0 0 0-5.2-3.8 5 5 0 0 0-4 1.7l-.6.8h-2.4c-4.3 0-6.6 1.2-8.1 4.4l-.8 1.5v12.8c-.2 12.4-.2 12.9-.6 13.2-.3.2-1.3.3-4.3.3h-3.8V276h.8a5 5 0 0 0 4-2.5c.3-.6.4-1.8.5-8.8 0-5.4 0-8.6-.2-9.6-.7-4-3.7-7.5-7.6-8.7-1.2-.3-2-.4-3.8-.3-2 0-2.4.1-4 .8-3 1.5-5.1 4-6 7.1-.3 1.3-.3 2.7-.3 9.8 0 8.8 0 9.2 1 10.6.6.8 2.3 1.6 3.5 1.6h.8V280.7h-4c-3.7 0-4 0-4.4-.5-.4-.4-.4-1-.5-13.4L40 254l-.6-1c-.7-1.6-2.1-3-3.7-3.7-1-.5-1.6-.6-4-.7-2.7 0-2.9 0-3.2-.6a5.5 5.5 0 0 0-6.7-1.3Z" fill="url(#paint15_linear)" fill-opacity=".2"/>
    <path class="b6" d="M21.8 164.6c-2.4 1.2-3.5 3.9-2.7 6.6.4 1.3 2.2 3.1 3.4 3.5 2 .6 4.2 0 5.5-1.3l.9-1h2.2c2 0 2.3.1 2.7.5.4.5.4 1.1.5 13.4l.2 13 .5 1c.7 1.4 2 2.8 3.3 3.5l.8.4h-4.4c-3.4 0-4.6 0-4.7-.3-.2-.1-.3-2.6-.4-6.7v-6.4l-.7-1.2c-.8-1.5-2-2.6-3.6-3.1-1-.4-1.7-.5-8.2-.5h-7l-.6-.7a5.5 5.5 0 1 0-6.2 8.7c2 .9 4 .5 6-1.1l1.1-1.1h6.3c5.3 0 6.3 0 6.7.3.5.4.5.4.5 6.5 0 5.6 0 6.2.5 7.3.6 1.5 1.9 2.9 3.4 3.7 1.1.5 1.3.5 7.5.6l6.5.1v1.3c0 2.2.5 2-9.6 2.2-8.6 0-8.8.1-10 .6a9 9 0 0 0-3.6 3.5c-.6 1.1-.9 2.9-.9 5 0 1.5 0 1.6-.6 2.1-.4.3-1 1.1-1.3 1.8a4 4 0 0 0-.5 2.6c.4 5 6.3 7 9.5 3.3 1-1.1 1.3-2 1.3-3.6 0-1.7-.3-2.6-1.5-3.8-.9-1-.9-1-.9-2.8 0-3-.6-2.8 8.1-2.7l9-.2a7.2 7.2 0 0 0 5.8-3.6l.6-1v11c0 10.2 0 11-.4 11.9a4 4 0 0 1-7.2.4c-.5-.8-.6-1.2-.6-2.7 0-1.8 0-1.9.7-2.5.4-.3 1-1 1.2-1.7 2-4-1.7-8.6-6-7.7a5.6 5.6 0 0 0-2.6 9.5c.7.6.7.8.7 2.1 0 4.6 2.2 8.3 6 10 1.2.7 1.8.8 3.6.9 1.6 0 2.4 0 3.3-.3a9.8 9.8 0 0 0 5.6-4.3c1.5-2.5 1.5-2.2 1.5-17.2v-13.5H56v13c0 7.6 0 13.4.2 14.1.6 3.1 2.8 6 5.7 7.4 1.4.7 1.6.7 4.2.7 2.4 0 2.7 0 3.8-.6a10 10 0 0 0 6-9.6v-2l1-1c1.5-1.4 2-3.4 1.4-5.4a5.2 5.2 0 0 0-2.6-3.2c-1-.5-1.5-.6-2.7-.6-4.9 0-7.2 6-3.6 9.4.7.7.8.8.8 2.3 0 1.8-.5 3-1.5 4a4 4 0 0 1-6.2-1l-.5-1v-22.1l.7 1 1.8 2c2 1.3 2.1 1.3 11.2 1.4 4.6 0 8.5.1 8.8.2.6.1 1 1 1 2.8 0 1.6 0 1.7-.8 2.4a5 5 0 0 0-1.8 4c0 3.2 2.3 5.4 5.4 5.4 3.2 0 5.4-2.3 5.4-5.4 0-1.7-.3-2.6-1.6-3.9l-.8-.9-.1-2.5c-.1-2-.2-2.8-.6-3.6a8 8 0 0 0-3.6-3.7L86 214H77l-8.8-.1-.5-.6c-.3-.4-.4-1-.4-1.8v-1.2h6.4c6 0 6.4-.1 7.4-.6a7.5 7.5 0 0 0 3.4-3.3l.6-1v-6.5c.2-5.7.2-6.5.5-6.7.3-.2 2-.3 6.9-.3H99l.4.7c.7 1 2.3 1.7 3.6 1.9 3.3.3 6-2.1 6-5.4 0-1.7-.6-3-1.8-4.1a5.3 5.3 0 0 0-7.3.1l-1 1h-7.4l-7.3.1-1.1.6c-.6.4-1.5 1.1-2 1.7-1.6 1.7-1.7 2.2-1.8 9.2 0 3.3-.1 6.2-.2 6.3 0 .3-1.2.3-4.7.3H70l1-.4a8.8 8.8 0 0 0 3.3-3.6l.6-1.2.1-13c.1-12.4.1-12.9.5-13.2.4-.2 1.1-.3 2.7-.3 2 0 2.2 0 2.6.5.8 1 2.3 1.7 3.8 1.9 2.6.2 4.9-1.4 5.6-3.8.4-1.4.4-1.8 0-3.3a5.2 5.2 0 0 0-5.2-3.8 5 5 0 0 0-4 1.7l-.6.8h-2.4c-4.3 0-6.6 1.2-8.1 4.4l-.8 1.5v12.8c-.2 12.4-.2 12.9-.6 13.2-.3.2-1.3.3-4.3.3h-3.8V194h.8a5 5 0 0 0 4-2.5c.3-.6.4-1.7.5-8.8 0-5.4 0-8.6-.2-9.6-.7-4-3.7-7.5-7.6-8.7-1.2-.3-2-.4-3.8-.3-2 0-2.4.1-4 .8-3 1.5-5.1 4-6 7.1-.3 1.3-.3 2.7-.3 9.8 0 8.8 0 9.2 1 10.6.6.8 2.3 1.6 3.5 1.6h.8V198.7h-4c-3.7 0-4 0-4.4-.5-.4-.4-.4-1-.5-13.4L40 172l-.6-1c-.7-1.6-2.1-3-3.7-3.7-1-.5-1.6-.6-4-.7-2.7 0-2.9 0-3.2-.6a5.5 5.5 0 0 0-6.7-1.3Z" fill="url(#paint16_linear)" fill-opacity=".5"/>
    <path class="a6" d="M21.8 82.6c-2.4 1.2-3.5 3.9-2.7 6.6.4 1.3 2.2 3.1 3.4 3.5 2 .6 4.2 0 5.5-1.3l.9-1h2.2c2 0 2.3.1 2.7.5.4.5.4 1.1.5 13.4l.2 13 .5 1c.7 1.4 2 2.8 3.3 3.5l.8.4h-4.4c-3.4 0-4.6 0-4.7-.3-.2-.1-.3-2.6-.4-6.7v-6.4l-.7-1.2c-.8-1.5-2-2.6-3.6-3.1-1-.4-1.7-.5-8.2-.5h-7l-.6-.7a5.5 5.5 0 1 0-6.2 8.7c2 .9 4 .5 6-1.1l1.1-1.1h6.3c5.3 0 6.3 0 6.7.4.5.3.5.3.5 6.4 0 5.6 0 6.2.5 7.3.6 1.5 1.9 2.9 3.4 3.7 1.1.5 1.3.5 7.5.6l6.5.1v1.3c0 2.2.5 2-9.6 2.2-8.6 0-8.8.1-10 .6a9 9 0 0 0-3.6 3.5c-.6 1.1-.9 2.9-.9 5 0 1.5 0 1.6-.6 2.1-.4.3-1 1.1-1.3 1.8a4 4 0 0 0-.5 2.6c.4 5 6.3 7 9.5 3.3 1-1.1 1.3-2 1.3-3.6 0-1.7-.3-2.6-1.5-3.8-.9-1-.9-1-.9-2.8 0-3-.6-2.8 8.1-2.7l9-.2a7.2 7.2 0 0 0 5.8-3.6l.6-1v11c0 10.2 0 11-.4 11.9a4 4 0 0 1-7.2.4c-.5-.8-.6-1.2-.6-2.7 0-1.8 0-1.9.7-2.5.4-.3 1-1 1.2-1.7 2-4-1.7-8.6-6-7.7a5.6 5.6 0 0 0-2.6 9.5c.7.6.7.8.7 2.1 0 4.6 2.2 8.3 6 10 1.2.7 1.8.8 3.6.9 1.6 0 2.4 0 3.3-.3a9.8 9.8 0 0 0 5.6-4.3c1.5-2.5 1.5-2.2 1.5-17.2v-13.5H56v13c0 7.6 0 13.4.2 14.1.6 3.1 2.8 6 5.7 7.4 1.4.7 1.6.7 4.2.7 2.4 0 2.7 0 3.8-.6a10 10 0 0 0 6-9.6v-2l1-1c1.5-1.4 2-3.4 1.4-5.4a5.2 5.2 0 0 0-2.6-3.2c-1-.5-1.5-.6-2.7-.6-4.9 0-7.2 6-3.6 9.4.7.7.8.8.8 2.3 0 1.8-.5 3-1.5 4a4 4 0 0 1-6.2-1l-.5-1v-22.1l.7 1 1.8 2c2 1.3 2.1 1.3 11.2 1.4 4.6 0 8.5.1 8.8.2.6.1 1 1 1 2.8 0 1.6 0 1.7-.8 2.4a5 5 0 0 0-1.8 4c0 3.2 2.3 5.4 5.4 5.4 3.2 0 5.4-2.3 5.4-5.4 0-1.7-.3-2.6-1.6-3.9l-.8-.9-.1-2.5c-.1-2-.2-2.8-.6-3.6a8 8 0 0 0-3.6-3.7L86 132H77l-8.8-.1-.5-.6c-.3-.4-.4-1-.4-1.8v-1.2h6.4c6 0 6.4-.1 7.4-.6a7.5 7.5 0 0 0 3.4-3.3l.6-1v-6.5c.2-5.7.2-6.5.5-6.7.3-.2 2-.3 6.9-.3H99l.4.7c.7 1 2.3 1.7 3.6 1.9 3.3.3 6-2.1 6-5.4 0-1.7-.6-3-1.8-4.1a5.3 5.3 0 0 0-7.3.1l-1 1h-7.4l-7.3.1-1.1.6c-.6.4-1.5 1.1-2 1.7-1.6 1.7-1.7 2.2-1.8 9.2 0 3.3-.1 6.2-.2 6.3 0 .3-1.2.3-4.7.3H70l1-.4a8.8 8.8 0 0 0 3.3-3.6l.6-1.2.1-13c.1-12.4.1-12.9.5-13.2.4-.2 1.1-.3 2.7-.3 2 0 2.2 0 2.6.5.8 1 2.3 1.7 3.8 1.9 2.6.2 4.9-1.4 5.6-3.8.4-1.4.4-1.8 0-3.3a5.2 5.2 0 0 0-5.2-3.8 5 5 0 0 0-4 1.7l-.6.8h-2.4c-4.3 0-6.6 1.2-8.1 4.4l-.8 1.5v12.8c-.2 12.4-.2 12.9-.6 13.2-.3.2-1.3.3-4.3.3h-3.8V112h.8a5 5 0 0 0 4-2.5c.3-.6.4-1.7.5-8.8 0-5.4 0-8.6-.2-9.6-.7-4-3.7-7.5-7.6-8.7-1.2-.3-2-.4-3.8-.3-2 0-2.4.1-4 .8-3 1.5-5.1 4-6 7.1-.3 1.3-.3 2.7-.3 9.8 0 8.8 0 9.2 1 10.6.6.8 2.3 1.6 3.5 1.6h.8V116.7h-4c-3.7 0-4 0-4.4-.5-.4-.4-.4-1-.5-13.4L40 90l-.6-1c-.7-1.6-2.1-3-3.7-3.7-1-.5-1.6-.6-4-.7-2.7 0-2.9 0-3.2-.6a5.5 5.5 0 0 0-6.7-1.3Z" fill="url(#paint17_linear)"/>
  </g>
  <defs>
    <linearGradient id="paint0_linear" x1="110.2" y1="164" x2="454.9" y2="164" gradientUnits="userSpaceOnUse">
      <stop stop-color="#0B14EC"/>
      <stop offset=".6" stop-color="#00F0FF"/>
    </linearGradient>
    <linearGradient id="paint1_linear" x1="208.5" y1="164" x2="553.2" y2="164" gradientUnits="userSpaceOnUse">
      <stop stop-color="#0B14EC"/>
      <stop offset=".6" stop-color="#00F0FF"/>
    </linearGradient>
    <linearGradient id="paint2_linear" x1="110.2" y1="82" x2="454.9" y2="82" gradientUnits="userSpaceOnUse">
      <stop stop-color="#0B14EC"/>
      <stop offset=".6" stop-color="#00F0FF"/>
    </linearGradient>
    <linearGradient id="paint3_linear" x1="208.5" y1="82" x2="553.2" y2="82" gradientUnits="userSpaceOnUse">
      <stop stop-color="#0B14EC"/>
      <stop offset=".6" stop-color="#00F0FF"/>
    </linearGradient>
    <linearGradient id="paint4_linear" x1="110.2" y1="0" x2="454.9" y2="0" gradientUnits="userSpaceOnUse">
      <stop stop-color="#0B14EC"/>
      <stop offset=".6" stop-color="#00F0FF"/>
    </linearGradient>
    <linearGradient id="paint5_linear" x1="208.5" y1="0" x2="553.2" y2="0" gradientUnits="userSpaceOnUse">
      <stop stop-color="#0B14EC"/>
      <stop offset=".6" stop-color="#00F0FF"/>
    </linearGradient>
    <linearGradient id="paint6_linear" x1="291.5" y1="205" x2="636.2" y2="205" gradientUnits="userSpaceOnUse">
      <stop stop-color="#0B14EC"/>
      <stop offset=".6" stop-color="#00F0FF"/>
    </linearGradient>
    <linearGradient id="paint7_linear" x1="291.5" y1="123" x2="636.2" y2="123" gradientUnits="userSpaceOnUse">
      <stop stop-color="#0B14EC"/>
      <stop offset=".6" stop-color="#00F0FF"/>
    </linearGradient>
    <linearGradient id="paint8_linear" x1="291.5" y1="41" x2="636.2" y2="41" gradientUnits="userSpaceOnUse">
      <stop stop-color="#0B14EC"/>
      <stop offset=".6" stop-color="#00F0FF"/>
    </linearGradient>
    <linearGradient id="paint9_linear" x1="27.5" y1="205" x2="372.2" y2="205" gradientUnits="userSpaceOnUse">
      <stop stop-color="#0B14EC"/>
      <stop offset=".6" stop-color="#00F0FF"/>
    </linearGradient>
    <linearGradient id="paint10_linear" x1="27.5" y1="123" x2="372.2" y2="123" gradientUnits="userSpaceOnUse">
      <stop stop-color="#0B14EC"/>
      <stop offset=".6" stop-color="#00F0FF"/>
    </linearGradient>
    <linearGradient id="paint11_linear" x1="27.5" y1="41" x2="372.2" y2="41" gradientUnits="userSpaceOnUse">
      <stop stop-color="#0B14EC"/>
      <stop offset=".6" stop-color="#00F0FF"/>
    </linearGradient>
    <linearGradient id="paint12_linear" x1="374.5" y1="246" x2="719.2" y2="246" gradientUnits="userSpaceOnUse">
      <stop stop-color="#0B14EC"/>
      <stop offset=".6" stop-color="#00F0FF"/>
    </linearGradient>
    <linearGradient id="paint13_linear" x1="374.5" y1="164" x2="719.2" y2="164" gradientUnits="userSpaceOnUse">
      <stop stop-color="#0B14EC"/>
      <stop offset=".6" stop-color="#00F0FF"/>
    </linearGradient>
    <linearGradient id="paint14_linear" x1="374.5" y1="82" x2="719.2" y2="82" gradientUnits="userSpaceOnUse">
      <stop stop-color="#0B14EC"/>
      <stop offset=".6" stop-color="#00F0FF"/>
    </linearGradient>
    <linearGradient id="paint15_linear" x1="-55.5" y1="246" x2="289.2" y2="246" gradientUnits="userSpaceOnUse">
      <stop stop-color="#0B14EC"/>
      <stop offset=".6" stop-color="#00F0FF"/>
    </linearGradient>
    <linearGradient id="paint16_linear" x1="-55.5" y1="164" x2="289.2" y2="164" gradientUnits="userSpaceOnUse">
      <stop stop-color="#0B14EC"/>
      <stop offset=".6" stop-color="#00F0FF"/>
    </linearGradient>
    <linearGradient id="paint17_linear" x1="-55.5" y1="82" x2="289.2" y2="82" gradientUnits="userSpaceOnUse">
      <stop stop-color="#0B14EC"/>
      <stop offset=".6" stop-color="#00F0FF"/>
    </linearGradient>
  </defs>
</svg>
